G04 #@! TF.GenerationSoftware,KiCad,Pcbnew,(5.1.9)-1*
G04 #@! TF.CreationDate,2021-06-09T23:16:39+02:00*
G04 #@! TF.ProjectId,decoder,6465636f-6465-4722-9e6b-696361645f70,rev?*
G04 #@! TF.SameCoordinates,Original*
G04 #@! TF.FileFunction,Soldermask,Bot*
G04 #@! TF.FilePolarity,Negative*
%FSLAX46Y46*%
G04 Gerber Fmt 4.6, Leading zero omitted, Abs format (unit mm)*
G04 Created by KiCad (PCBNEW (5.1.9)-1) date 2021-06-09 23:16:39*
%MOMM*%
%LPD*%
G01*
G04 APERTURE LIST*
%ADD10C,1.400000*%
%ADD11C,2.600000*%
%ADD12C,3.250000*%
%ADD13O,2.600000X2.000000*%
%ADD14O,1.700000X1.700000*%
%ADD15R,1.700000X1.700000*%
%ADD16C,1.600000*%
%ADD17O,2.000000X2.600000*%
%ADD18C,0.800000*%
%ADD19C,7.000000*%
%ADD20C,1.500000*%
G04 APERTURE END LIST*
D10*
X110105000Y-73150000D03*
X110105000Y-75440000D03*
X110105000Y-84580000D03*
X110105000Y-86870000D03*
X105285000Y-76440000D03*
X103505000Y-77460000D03*
X105285000Y-78480000D03*
X103505000Y-79500000D03*
X105285000Y-80520000D03*
X103505000Y-81540000D03*
X105285000Y-82560000D03*
X103505000Y-83580000D03*
D11*
X104395000Y-88140000D03*
X104395000Y-71880000D03*
D12*
X100965000Y-86360000D03*
X100965000Y-73660000D03*
D10*
X110105000Y-94740000D03*
X110105000Y-97030000D03*
X110105000Y-106170000D03*
X110105000Y-108460000D03*
X105285000Y-98030000D03*
X103505000Y-99050000D03*
X105285000Y-100070000D03*
X103505000Y-101090000D03*
X105285000Y-102110000D03*
X103505000Y-103130000D03*
X105285000Y-104150000D03*
X103505000Y-105170000D03*
D11*
X104395000Y-109730000D03*
X104395000Y-93470000D03*
D12*
X100965000Y-107950000D03*
X100965000Y-95250000D03*
D13*
X186055000Y-68875000D03*
X186055000Y-72375000D03*
X186055000Y-75875000D03*
X186055000Y-79375000D03*
X186055000Y-82875000D03*
G36*
G01*
X187105000Y-87375000D02*
X185005000Y-87375000D01*
G75*
G02*
X184755000Y-87125000I0J250000D01*
G01*
X184755000Y-85625000D01*
G75*
G02*
X185005000Y-85375000I250000J0D01*
G01*
X187105000Y-85375000D01*
G75*
G02*
X187355000Y-85625000I0J-250000D01*
G01*
X187355000Y-87125000D01*
G75*
G02*
X187105000Y-87375000I-250000J0D01*
G01*
G37*
X186055000Y-95250000D03*
X186055000Y-98750000D03*
X186055000Y-102250000D03*
X186055000Y-105750000D03*
X186055000Y-109250000D03*
G36*
G01*
X187105000Y-113750000D02*
X185005000Y-113750000D01*
G75*
G02*
X184755000Y-113500000I0J250000D01*
G01*
X184755000Y-112000000D01*
G75*
G02*
X185005000Y-111750000I250000J0D01*
G01*
X187105000Y-111750000D01*
G75*
G02*
X187355000Y-112000000I0J-250000D01*
G01*
X187355000Y-113500000D01*
G75*
G02*
X187105000Y-113750000I-250000J0D01*
G01*
G37*
D14*
X136525000Y-84455000D03*
X136525000Y-86995000D03*
X139065000Y-84455000D03*
X139065000Y-86995000D03*
X141605000Y-84455000D03*
D15*
X141605000Y-86995000D03*
D16*
X142809874Y-76769874D03*
X140335000Y-74295000D03*
D17*
X131135000Y-74930000D03*
X127635000Y-74930000D03*
G36*
G01*
X123135000Y-75980000D02*
X123135000Y-73880000D01*
G75*
G02*
X123385000Y-73630000I250000J0D01*
G01*
X124885000Y-73630000D01*
G75*
G02*
X125135000Y-73880000I0J-250000D01*
G01*
X125135000Y-75980000D01*
G75*
G02*
X124885000Y-76230000I-250000J0D01*
G01*
X123385000Y-76230000D01*
G75*
G02*
X123135000Y-75980000I0J250000D01*
G01*
G37*
D18*
X156161155Y-78056155D03*
X154305000Y-78825000D03*
X152448845Y-78056155D03*
X151680000Y-76200000D03*
X152448845Y-74343845D03*
X154305000Y-73575000D03*
X156161155Y-74343845D03*
X156930000Y-76200000D03*
D19*
X154305000Y-76200000D03*
D18*
X126316155Y-105458845D03*
X124460000Y-104690000D03*
X122603845Y-105458845D03*
X121835000Y-107315000D03*
X122603845Y-109171155D03*
X124460000Y-109940000D03*
X126316155Y-109171155D03*
X127085000Y-107315000D03*
D19*
X124460000Y-107315000D03*
D20*
X143310000Y-106680000D03*
X138430000Y-106680000D03*
M02*
