G04 #@! TF.GenerationSoftware,KiCad,Pcbnew,(5.1.9)-1*
G04 #@! TF.CreationDate,2021-06-09T23:16:39+02:00*
G04 #@! TF.ProjectId,decoder,6465636f-6465-4722-9e6b-696361645f70,rev?*
G04 #@! TF.SameCoordinates,Original*
G04 #@! TF.FileFunction,Copper,L2,Bot*
G04 #@! TF.FilePolarity,Positive*
%FSLAX46Y46*%
G04 Gerber Fmt 4.6, Leading zero omitted, Abs format (unit mm)*
G04 Created by KiCad (PCBNEW (5.1.9)-1) date 2021-06-09 23:16:39*
%MOMM*%
%LPD*%
G01*
G04 APERTURE LIST*
G04 #@! TA.AperFunction,ComponentPad*
%ADD10C,1.400000*%
G04 #@! TD*
G04 #@! TA.AperFunction,ComponentPad*
%ADD11C,2.600000*%
G04 #@! TD*
G04 #@! TA.AperFunction,ComponentPad*
%ADD12O,2.600000X2.000000*%
G04 #@! TD*
G04 #@! TA.AperFunction,ComponentPad*
%ADD13O,1.700000X1.700000*%
G04 #@! TD*
G04 #@! TA.AperFunction,ComponentPad*
%ADD14R,1.700000X1.700000*%
G04 #@! TD*
G04 #@! TA.AperFunction,ComponentPad*
%ADD15C,1.600000*%
G04 #@! TD*
G04 #@! TA.AperFunction,ComponentPad*
%ADD16O,2.000000X2.600000*%
G04 #@! TD*
G04 #@! TA.AperFunction,ComponentPad*
%ADD17C,0.800000*%
G04 #@! TD*
G04 #@! TA.AperFunction,ComponentPad*
%ADD18C,7.000000*%
G04 #@! TD*
G04 #@! TA.AperFunction,ComponentPad*
%ADD19C,1.500000*%
G04 #@! TD*
G04 #@! TA.AperFunction,ViaPad*
%ADD20C,0.800000*%
G04 #@! TD*
G04 #@! TA.AperFunction,Conductor*
%ADD21C,0.500000*%
G04 #@! TD*
G04 #@! TA.AperFunction,Conductor*
%ADD22C,1.000000*%
G04 #@! TD*
G04 #@! TA.AperFunction,Conductor*
%ADD23C,0.250000*%
G04 #@! TD*
G04 #@! TA.AperFunction,Conductor*
%ADD24C,0.254000*%
G04 #@! TD*
G04 #@! TA.AperFunction,Conductor*
%ADD25C,0.100000*%
G04 #@! TD*
G04 APERTURE END LIST*
D10*
X110105000Y-73150000D03*
X110105000Y-75440000D03*
X110105000Y-84580000D03*
X110105000Y-86870000D03*
X105285000Y-76440000D03*
X103505000Y-77460000D03*
X105285000Y-78480000D03*
X103505000Y-79500000D03*
X105285000Y-80520000D03*
X103505000Y-81540000D03*
X105285000Y-82560000D03*
X103505000Y-83580000D03*
D11*
X104395000Y-88140000D03*
X104395000Y-71880000D03*
D10*
X110105000Y-94740000D03*
X110105000Y-97030000D03*
X110105000Y-106170000D03*
X110105000Y-108460000D03*
X105285000Y-98030000D03*
X103505000Y-99050000D03*
X105285000Y-100070000D03*
X103505000Y-101090000D03*
X105285000Y-102110000D03*
X103505000Y-103130000D03*
X105285000Y-104150000D03*
X103505000Y-105170000D03*
D11*
X104395000Y-109730000D03*
X104395000Y-93470000D03*
D12*
X186055000Y-68875000D03*
X186055000Y-72375000D03*
X186055000Y-75875000D03*
X186055000Y-79375000D03*
X186055000Y-82875000D03*
G04 #@! TA.AperFunction,ComponentPad*
G36*
G01*
X187105000Y-87375000D02*
X185005000Y-87375000D01*
G75*
G02*
X184755000Y-87125000I0J250000D01*
G01*
X184755000Y-85625000D01*
G75*
G02*
X185005000Y-85375000I250000J0D01*
G01*
X187105000Y-85375000D01*
G75*
G02*
X187355000Y-85625000I0J-250000D01*
G01*
X187355000Y-87125000D01*
G75*
G02*
X187105000Y-87375000I-250000J0D01*
G01*
G37*
G04 #@! TD.AperFunction*
X186055000Y-95250000D03*
X186055000Y-98750000D03*
X186055000Y-102250000D03*
X186055000Y-105750000D03*
X186055000Y-109250000D03*
G04 #@! TA.AperFunction,ComponentPad*
G36*
G01*
X187105000Y-113750000D02*
X185005000Y-113750000D01*
G75*
G02*
X184755000Y-113500000I0J250000D01*
G01*
X184755000Y-112000000D01*
G75*
G02*
X185005000Y-111750000I250000J0D01*
G01*
X187105000Y-111750000D01*
G75*
G02*
X187355000Y-112000000I0J-250000D01*
G01*
X187355000Y-113500000D01*
G75*
G02*
X187105000Y-113750000I-250000J0D01*
G01*
G37*
G04 #@! TD.AperFunction*
D13*
X136525000Y-84455000D03*
X136525000Y-86995000D03*
X139065000Y-84455000D03*
X139065000Y-86995000D03*
X141605000Y-84455000D03*
D14*
X141605000Y-86995000D03*
D15*
X142809874Y-76769874D03*
X140335000Y-74295000D03*
D16*
X131135000Y-74930000D03*
X127635000Y-74930000D03*
G04 #@! TA.AperFunction,ComponentPad*
G36*
G01*
X123135000Y-75980000D02*
X123135000Y-73880000D01*
G75*
G02*
X123385000Y-73630000I250000J0D01*
G01*
X124885000Y-73630000D01*
G75*
G02*
X125135000Y-73880000I0J-250000D01*
G01*
X125135000Y-75980000D01*
G75*
G02*
X124885000Y-76230000I-250000J0D01*
G01*
X123385000Y-76230000D01*
G75*
G02*
X123135000Y-75980000I0J250000D01*
G01*
G37*
G04 #@! TD.AperFunction*
D17*
X156161155Y-78056155D03*
X154305000Y-78825000D03*
X152448845Y-78056155D03*
X151680000Y-76200000D03*
X152448845Y-74343845D03*
X154305000Y-73575000D03*
X156161155Y-74343845D03*
X156930000Y-76200000D03*
D18*
X154305000Y-76200000D03*
D17*
X126316155Y-105458845D03*
X124460000Y-104690000D03*
X122603845Y-105458845D03*
X121835000Y-107315000D03*
X122603845Y-109171155D03*
X124460000Y-109940000D03*
X126316155Y-109171155D03*
X127085000Y-107315000D03*
D18*
X124460000Y-107315000D03*
D19*
X143310000Y-106680000D03*
X138430000Y-106680000D03*
D20*
X158750000Y-96520000D03*
X133350000Y-81915000D03*
X139065000Y-90170000D03*
X167640000Y-74930000D03*
X167640000Y-90170000D03*
X167640000Y-105410000D03*
X147955000Y-81280000D03*
X131445000Y-93980000D03*
X149225000Y-104140000D03*
X126365000Y-99695000D03*
X140652503Y-96202503D03*
X170815000Y-102235000D03*
X170815000Y-94615000D03*
X170815000Y-71755000D03*
X170815000Y-86995000D03*
X170815000Y-79375000D03*
X170815000Y-106299000D03*
X133350000Y-96520000D03*
X147955000Y-99060000D03*
X147955000Y-94615000D03*
X148590000Y-88900000D03*
X143575000Y-90785000D03*
X154940000Y-102235184D03*
X178562000Y-114427000D03*
X175006000Y-114427000D03*
X171450000Y-114427000D03*
X167894000Y-114427000D03*
X164338000Y-114427000D03*
X160782000Y-113919000D03*
X160782000Y-66675000D03*
X164338000Y-66675000D03*
X167894000Y-66675000D03*
X171450000Y-66675000D03*
X175006000Y-66675000D03*
X178562000Y-66675000D03*
X108585000Y-102235000D03*
X107632503Y-104457497D03*
D21*
X167640000Y-97790000D02*
X167640000Y-90170000D01*
X167640000Y-105410000D02*
X167640000Y-97790000D01*
D22*
X127635000Y-74930000D02*
X127635000Y-76835000D01*
X127635000Y-76835000D02*
X129540000Y-78740000D01*
X129540000Y-78740000D02*
X135890000Y-78740000D01*
X141605000Y-80645000D02*
X141605000Y-84455000D01*
X137795000Y-76835000D02*
X141605000Y-80645000D01*
X135890000Y-78740000D02*
X137795000Y-76835000D01*
X137795000Y-76835000D02*
X140335000Y-74295000D01*
D23*
X131445000Y-96520000D02*
X131445000Y-93980000D01*
X132715000Y-97790000D02*
X131445000Y-96520000D01*
X149225000Y-104140000D02*
X142875000Y-97790000D01*
X142875000Y-97790000D02*
X142875000Y-95885000D01*
X141369999Y-94379999D02*
X139935001Y-94379999D01*
X142875000Y-95885000D02*
X141369999Y-94379999D01*
X130810000Y-99695000D02*
X132715000Y-97790000D01*
X126365000Y-99695000D02*
X130810000Y-99695000D01*
X139935001Y-94379999D02*
X138665001Y-94379999D01*
X138665001Y-94379999D02*
X135255000Y-97790000D01*
X135255000Y-97790000D02*
X132715000Y-97790000D01*
D21*
X139935001Y-94379999D02*
X139935001Y-95485001D01*
X139935001Y-95485001D02*
X140652503Y-96202503D01*
X170815000Y-102235000D02*
X170815000Y-94615000D01*
X170815000Y-86995000D02*
X170815000Y-94615000D01*
X170815000Y-71755000D02*
X170815000Y-79375000D01*
X170815000Y-79375000D02*
X170815000Y-84455000D01*
X170815000Y-84455000D02*
X170815000Y-86995000D01*
X154940000Y-84455000D02*
X144780000Y-74295000D01*
X144780000Y-74295000D02*
X140335000Y-74295000D01*
X170815000Y-84455000D02*
X154940000Y-84455000D01*
X170815000Y-102235000D02*
X170815000Y-106299000D01*
X143256000Y-86106000D02*
X141605000Y-84455000D01*
X143256000Y-89471500D02*
X143256000Y-86106000D01*
X139935001Y-92792499D02*
X143256000Y-89471500D01*
X139935001Y-94379999D02*
X139935001Y-92792499D01*
D23*
X133350000Y-90170000D02*
X136525000Y-86995000D01*
X133350000Y-96520000D02*
X133350000Y-90170000D01*
X147955000Y-97155000D02*
X147955000Y-94615000D01*
X147955000Y-99060000D02*
X147955000Y-97155000D01*
X154940000Y-95250000D02*
X154940000Y-102235184D01*
X147340000Y-90785000D02*
X143575000Y-90785000D01*
X149245000Y-90785000D02*
X149860000Y-90170000D01*
X147340000Y-90785000D02*
X149245000Y-90785000D01*
X149860000Y-90170000D02*
X154940000Y-95250000D01*
X148590000Y-88900000D02*
X149860000Y-90170000D01*
D21*
X180239000Y-112750000D02*
X178562000Y-114427000D01*
X186055000Y-112750000D02*
X180239000Y-112750000D01*
X180183000Y-109250000D02*
X175006000Y-114427000D01*
X186055000Y-109250000D02*
X180183000Y-109250000D01*
X180127000Y-105750000D02*
X171450000Y-114427000D01*
X186055000Y-105750000D02*
X180127000Y-105750000D01*
X186055000Y-102250000D02*
X182637038Y-102250000D01*
X180071000Y-102250000D02*
X167894000Y-114427000D01*
X182637038Y-102250000D02*
X180071000Y-102250000D01*
X186055000Y-98750000D02*
X182047000Y-98750000D01*
X182047000Y-98750000D02*
X168910000Y-111887000D01*
X166878000Y-111887000D02*
X164338000Y-114427000D01*
X168910000Y-111887000D02*
X166878000Y-111887000D01*
X172123999Y-107149001D02*
X167551999Y-107149001D01*
X178562000Y-100711000D02*
X172123999Y-107149001D01*
X180975000Y-95250000D02*
X178562000Y-97663000D01*
X167551999Y-107149001D02*
X160782000Y-113919000D01*
X178562000Y-97663000D02*
X178562000Y-100711000D01*
X186055000Y-95250000D02*
X180975000Y-95250000D01*
X171165000Y-70485000D02*
X164592000Y-70485000D01*
X178562000Y-81407000D02*
X178562000Y-77882000D01*
X183530000Y-86375000D02*
X178562000Y-81407000D01*
X164592000Y-70485000D02*
X160782000Y-66675000D01*
X178562000Y-77882000D02*
X171165000Y-70485000D01*
X186055000Y-86375000D02*
X183530000Y-86375000D01*
X166878000Y-69215000D02*
X164338000Y-66675000D01*
X171772500Y-69215000D02*
X166878000Y-69215000D01*
X179993250Y-77435750D02*
X179993250Y-79790250D01*
X179993250Y-77435750D02*
X171772500Y-69215000D01*
X183078000Y-82875000D02*
X186055000Y-82875000D01*
X179993250Y-79790250D02*
X183078000Y-82875000D01*
X186055000Y-79375000D02*
X183515000Y-79375000D01*
X183515000Y-79375000D02*
X172085000Y-67945000D01*
X172085000Y-67945000D02*
X169164000Y-67945000D01*
X169164000Y-67945000D02*
X167894000Y-66675000D01*
X173002842Y-66675000D02*
X171450000Y-66675000D01*
X182202842Y-75875000D02*
X173002842Y-66675000D01*
X186055000Y-75875000D02*
X182202842Y-75875000D01*
X180706000Y-72375000D02*
X175006000Y-66675000D01*
X186055000Y-72375000D02*
X180706000Y-72375000D01*
X186055000Y-68875000D02*
X180762000Y-68875000D01*
X180762000Y-68875000D02*
X178562000Y-66675000D01*
D23*
X108585000Y-85860000D02*
X108585000Y-102235000D01*
X105285000Y-82560000D02*
X108585000Y-85860000D01*
X107632503Y-87707503D02*
X103505000Y-83580000D01*
X107632503Y-104457497D02*
X107632503Y-87707503D01*
D24*
X190069001Y-123394000D02*
X159532231Y-123394000D01*
X148838970Y-113198101D01*
X148822711Y-113178289D01*
X148790266Y-113151662D01*
X148784350Y-113146021D01*
X148764264Y-113130322D01*
X148718407Y-113092688D01*
X148711147Y-113088808D01*
X148704675Y-113083749D01*
X148651753Y-113057061D01*
X148599406Y-113029081D01*
X148591534Y-113026693D01*
X148584195Y-113022992D01*
X148527055Y-113007133D01*
X148470283Y-112989912D01*
X148462099Y-112989106D01*
X148454176Y-112986907D01*
X148395047Y-112982502D01*
X148369647Y-112980000D01*
X148361468Y-112980000D01*
X148319617Y-112976882D01*
X148294182Y-112980000D01*
X93903000Y-112980000D01*
X93903000Y-111079224D01*
X103225381Y-111079224D01*
X103357317Y-111374312D01*
X103698045Y-111545159D01*
X104065557Y-111646250D01*
X104445729Y-111673701D01*
X104823951Y-111626457D01*
X105185690Y-111506333D01*
X105432683Y-111374312D01*
X105564619Y-111079224D01*
X104395000Y-109909605D01*
X103225381Y-111079224D01*
X93903000Y-111079224D01*
X93903000Y-107727409D01*
X98705000Y-107727409D01*
X98705000Y-108172591D01*
X98791851Y-108609218D01*
X98962214Y-109020511D01*
X99209544Y-109390666D01*
X99524334Y-109705456D01*
X99894489Y-109952786D01*
X100305782Y-110123149D01*
X100742409Y-110210000D01*
X101187591Y-110210000D01*
X101624218Y-110123149D01*
X102035511Y-109952786D01*
X102405666Y-109705456D01*
X102460709Y-109650413D01*
X102451299Y-109780729D01*
X102498543Y-110158951D01*
X102618667Y-110520690D01*
X102750688Y-110767683D01*
X103045776Y-110899619D01*
X104215395Y-109730000D01*
X104574605Y-109730000D01*
X105744224Y-110899619D01*
X106039312Y-110767683D01*
X106210159Y-110426955D01*
X106264567Y-110229155D01*
X121725450Y-110229155D01*
X122121634Y-110749550D01*
X122836612Y-111139748D01*
X123613976Y-111382964D01*
X124423853Y-111469851D01*
X125235118Y-111397069D01*
X126016597Y-111167415D01*
X126738256Y-110789715D01*
X126798366Y-110749550D01*
X127194550Y-110229155D01*
X124460000Y-107494605D01*
X121725450Y-110229155D01*
X106264567Y-110229155D01*
X106311250Y-110059443D01*
X106338701Y-109679271D01*
X106301478Y-109381269D01*
X109363336Y-109381269D01*
X109422797Y-109615037D01*
X109661242Y-109725934D01*
X109916740Y-109788183D01*
X110179473Y-109799390D01*
X110439344Y-109759125D01*
X110686366Y-109668935D01*
X110787203Y-109615037D01*
X110846664Y-109381269D01*
X110105000Y-108639605D01*
X109363336Y-109381269D01*
X106301478Y-109381269D01*
X106291457Y-109301049D01*
X106171333Y-108939310D01*
X106039312Y-108692317D01*
X105744224Y-108560381D01*
X104574605Y-109730000D01*
X104215395Y-109730000D01*
X104201253Y-109715858D01*
X104380858Y-109536253D01*
X104395000Y-109550395D01*
X105410922Y-108534473D01*
X108765610Y-108534473D01*
X108805875Y-108794344D01*
X108896065Y-109041366D01*
X108949963Y-109142203D01*
X109183731Y-109201664D01*
X109925395Y-108460000D01*
X110284605Y-108460000D01*
X111026269Y-109201664D01*
X111260037Y-109142203D01*
X111370934Y-108903758D01*
X111433183Y-108648260D01*
X111444390Y-108385527D01*
X111404125Y-108125656D01*
X111313935Y-107878634D01*
X111260037Y-107777797D01*
X111026269Y-107718336D01*
X110284605Y-108460000D01*
X109925395Y-108460000D01*
X109183731Y-107718336D01*
X108949963Y-107777797D01*
X108839066Y-108016242D01*
X108776817Y-108271740D01*
X108765610Y-108534473D01*
X105410922Y-108534473D01*
X105564619Y-108380776D01*
X105432683Y-108085688D01*
X105091955Y-107914841D01*
X104724443Y-107813750D01*
X104344271Y-107786299D01*
X103966049Y-107833543D01*
X103604310Y-107953667D01*
X103357317Y-108085688D01*
X103225382Y-108380774D01*
X103190523Y-108345915D01*
X103225000Y-108172591D01*
X103225000Y-107727409D01*
X103138149Y-107290782D01*
X102967786Y-106879489D01*
X102720456Y-106509334D01*
X102405666Y-106194544D01*
X102035511Y-105947214D01*
X101624218Y-105776851D01*
X101187591Y-105690000D01*
X100742409Y-105690000D01*
X100305782Y-105776851D01*
X99894489Y-105947214D01*
X99524334Y-106194544D01*
X99209544Y-106509334D01*
X98962214Y-106879489D01*
X98791851Y-107290782D01*
X98705000Y-107727409D01*
X93903000Y-107727409D01*
X93903000Y-103204473D01*
X102165610Y-103204473D01*
X102205875Y-103464344D01*
X102296065Y-103711366D01*
X102349963Y-103812203D01*
X102583731Y-103871664D01*
X103325395Y-103130000D01*
X102583731Y-102388336D01*
X102349963Y-102447797D01*
X102239066Y-102686242D01*
X102176817Y-102941740D01*
X102165610Y-103204473D01*
X93903000Y-103204473D01*
X93903000Y-101164473D01*
X102165610Y-101164473D01*
X102205875Y-101424344D01*
X102296065Y-101671366D01*
X102349963Y-101772203D01*
X102583731Y-101831664D01*
X103325395Y-101090000D01*
X102583731Y-100348336D01*
X102349963Y-100407797D01*
X102239066Y-100646242D01*
X102176817Y-100901740D01*
X102165610Y-101164473D01*
X93903000Y-101164473D01*
X93903000Y-95027409D01*
X98705000Y-95027409D01*
X98705000Y-95472591D01*
X98791851Y-95909218D01*
X98962214Y-96320511D01*
X99209544Y-96690666D01*
X99524334Y-97005456D01*
X99894489Y-97252786D01*
X100305782Y-97423149D01*
X100742409Y-97510000D01*
X101187591Y-97510000D01*
X101624218Y-97423149D01*
X102035511Y-97252786D01*
X102405666Y-97005456D01*
X102720456Y-96690666D01*
X102967786Y-96320511D01*
X103138149Y-95909218D01*
X103225000Y-95472591D01*
X103225000Y-95027409D01*
X103190523Y-94854085D01*
X103225382Y-94819226D01*
X103357317Y-95114312D01*
X103698045Y-95285159D01*
X104065557Y-95386250D01*
X104445729Y-95413701D01*
X104823951Y-95366457D01*
X105185690Y-95246333D01*
X105432683Y-95114312D01*
X105564619Y-94819224D01*
X104395000Y-93649605D01*
X104380858Y-93663748D01*
X104201253Y-93484143D01*
X104215395Y-93470000D01*
X104574605Y-93470000D01*
X105744224Y-94639619D01*
X106039312Y-94507683D01*
X106210159Y-94166955D01*
X106311250Y-93799443D01*
X106338701Y-93419271D01*
X106291457Y-93041049D01*
X106171333Y-92679310D01*
X106039312Y-92432317D01*
X105744224Y-92300381D01*
X104574605Y-93470000D01*
X104215395Y-93470000D01*
X103045776Y-92300381D01*
X102750688Y-92432317D01*
X102579841Y-92773045D01*
X102478750Y-93140557D01*
X102451299Y-93520729D01*
X102454075Y-93542953D01*
X102405666Y-93494544D01*
X102035511Y-93247214D01*
X101624218Y-93076851D01*
X101187591Y-92990000D01*
X100742409Y-92990000D01*
X100305782Y-93076851D01*
X99894489Y-93247214D01*
X99524334Y-93494544D01*
X99209544Y-93809334D01*
X98962214Y-94179489D01*
X98791851Y-94590782D01*
X98705000Y-95027409D01*
X93903000Y-95027409D01*
X93903000Y-92120776D01*
X103225381Y-92120776D01*
X104395000Y-93290395D01*
X105564619Y-92120776D01*
X105432683Y-91825688D01*
X105091955Y-91654841D01*
X104724443Y-91553750D01*
X104344271Y-91526299D01*
X103966049Y-91573543D01*
X103604310Y-91693667D01*
X103357317Y-91825688D01*
X103225381Y-92120776D01*
X93903000Y-92120776D01*
X93903000Y-89489224D01*
X103225381Y-89489224D01*
X103357317Y-89784312D01*
X103698045Y-89955159D01*
X104065557Y-90056250D01*
X104445729Y-90083701D01*
X104823951Y-90036457D01*
X105185690Y-89916333D01*
X105432683Y-89784312D01*
X105564619Y-89489224D01*
X104395000Y-88319605D01*
X103225381Y-89489224D01*
X93903000Y-89489224D01*
X93903000Y-86137409D01*
X98705000Y-86137409D01*
X98705000Y-86582591D01*
X98791851Y-87019218D01*
X98962214Y-87430511D01*
X99209544Y-87800666D01*
X99524334Y-88115456D01*
X99894489Y-88362786D01*
X100305782Y-88533149D01*
X100742409Y-88620000D01*
X101187591Y-88620000D01*
X101624218Y-88533149D01*
X102035511Y-88362786D01*
X102405666Y-88115456D01*
X102460709Y-88060413D01*
X102451299Y-88190729D01*
X102498543Y-88568951D01*
X102618667Y-88930690D01*
X102750688Y-89177683D01*
X103045776Y-89309619D01*
X104215395Y-88140000D01*
X104201253Y-88125858D01*
X104380858Y-87946253D01*
X104395000Y-87960395D01*
X104409143Y-87946253D01*
X104588748Y-88125858D01*
X104574605Y-88140000D01*
X105744224Y-89309619D01*
X106039312Y-89177683D01*
X106210159Y-88836955D01*
X106311250Y-88469443D01*
X106338701Y-88089271D01*
X106291457Y-87711049D01*
X106171333Y-87349310D01*
X106138980Y-87288781D01*
X106872504Y-88022306D01*
X106872503Y-103753786D01*
X106828566Y-103797723D01*
X106715298Y-103967241D01*
X106637277Y-104155599D01*
X106620000Y-104242457D01*
X106620000Y-104018514D01*
X106568696Y-103760595D01*
X106468061Y-103517641D01*
X106321962Y-103298987D01*
X106136013Y-103113038D01*
X106024771Y-103038709D01*
X106026664Y-103031269D01*
X105285000Y-102289605D01*
X105270858Y-102303748D01*
X105091253Y-102124143D01*
X105105395Y-102110000D01*
X105464605Y-102110000D01*
X106206269Y-102851664D01*
X106440037Y-102792203D01*
X106550934Y-102553758D01*
X106613183Y-102298260D01*
X106624390Y-102035527D01*
X106584125Y-101775656D01*
X106493935Y-101528634D01*
X106440037Y-101427797D01*
X106206269Y-101368336D01*
X105464605Y-102110000D01*
X105105395Y-102110000D01*
X105091253Y-102095858D01*
X105270858Y-101916253D01*
X105285000Y-101930395D01*
X106026664Y-101188731D01*
X106024771Y-101181291D01*
X106136013Y-101106962D01*
X106321962Y-100921013D01*
X106468061Y-100702359D01*
X106568696Y-100459405D01*
X106620000Y-100201486D01*
X106620000Y-99938514D01*
X106568696Y-99680595D01*
X106468061Y-99437641D01*
X106321962Y-99218987D01*
X106152975Y-99050000D01*
X106321962Y-98881013D01*
X106468061Y-98662359D01*
X106568696Y-98419405D01*
X106620000Y-98161486D01*
X106620000Y-97898514D01*
X106568696Y-97640595D01*
X106468061Y-97397641D01*
X106321962Y-97178987D01*
X106136013Y-96993038D01*
X105917359Y-96846939D01*
X105674405Y-96746304D01*
X105416486Y-96695000D01*
X105153514Y-96695000D01*
X104895595Y-96746304D01*
X104652641Y-96846939D01*
X104433987Y-96993038D01*
X104248038Y-97178987D01*
X104101939Y-97397641D01*
X104001304Y-97640595D01*
X103970065Y-97797643D01*
X103894405Y-97766304D01*
X103636486Y-97715000D01*
X103373514Y-97715000D01*
X103115595Y-97766304D01*
X102872641Y-97866939D01*
X102653987Y-98013038D01*
X102468038Y-98198987D01*
X102321939Y-98417641D01*
X102221304Y-98660595D01*
X102170000Y-98918514D01*
X102170000Y-99181486D01*
X102221304Y-99439405D01*
X102321939Y-99682359D01*
X102468038Y-99901013D01*
X102653987Y-100086962D01*
X102765229Y-100161291D01*
X102763336Y-100168731D01*
X103505000Y-100910395D01*
X103519143Y-100896253D01*
X103698748Y-101075858D01*
X103684605Y-101090000D01*
X103698748Y-101104143D01*
X103519143Y-101283748D01*
X103505000Y-101269605D01*
X102763336Y-102011269D01*
X102788449Y-102110000D01*
X102763336Y-102208731D01*
X103505000Y-102950395D01*
X103519143Y-102936253D01*
X103698748Y-103115858D01*
X103684605Y-103130000D01*
X103698748Y-103144143D01*
X103519143Y-103323748D01*
X103505000Y-103309605D01*
X102763336Y-104051269D01*
X102765229Y-104058709D01*
X102653987Y-104133038D01*
X102468038Y-104318987D01*
X102321939Y-104537641D01*
X102221304Y-104780595D01*
X102170000Y-105038514D01*
X102170000Y-105301486D01*
X102221304Y-105559405D01*
X102321939Y-105802359D01*
X102468038Y-106021013D01*
X102653987Y-106206962D01*
X102872641Y-106353061D01*
X103115595Y-106453696D01*
X103373514Y-106505000D01*
X103636486Y-106505000D01*
X103894405Y-106453696D01*
X104137359Y-106353061D01*
X104356013Y-106206962D01*
X104524461Y-106038514D01*
X108770000Y-106038514D01*
X108770000Y-106301486D01*
X108821304Y-106559405D01*
X108921939Y-106802359D01*
X109068038Y-107021013D01*
X109253987Y-107206962D01*
X109419581Y-107317608D01*
X109363336Y-107538731D01*
X110105000Y-108280395D01*
X110846664Y-107538731D01*
X110790419Y-107317608D01*
X110848420Y-107278853D01*
X120305149Y-107278853D01*
X120377931Y-108090118D01*
X120607585Y-108871597D01*
X120985285Y-109593256D01*
X121025450Y-109653366D01*
X121545845Y-110049550D01*
X124280395Y-107315000D01*
X124639605Y-107315000D01*
X127374155Y-110049550D01*
X127894550Y-109653366D01*
X128284748Y-108938388D01*
X128527964Y-108161024D01*
X128614851Y-107351147D01*
X128542402Y-106543589D01*
X137045000Y-106543589D01*
X137045000Y-106816411D01*
X137098225Y-107083989D01*
X137202629Y-107336043D01*
X137354201Y-107562886D01*
X137547114Y-107755799D01*
X137773957Y-107907371D01*
X138026011Y-108011775D01*
X138293589Y-108065000D01*
X138566411Y-108065000D01*
X138833989Y-108011775D01*
X139086043Y-107907371D01*
X139312886Y-107755799D01*
X139505799Y-107562886D01*
X139657371Y-107336043D01*
X139761775Y-107083989D01*
X139815000Y-106816411D01*
X139815000Y-106543589D01*
X141925000Y-106543589D01*
X141925000Y-106816411D01*
X141978225Y-107083989D01*
X142082629Y-107336043D01*
X142234201Y-107562886D01*
X142427114Y-107755799D01*
X142653957Y-107907371D01*
X142906011Y-108011775D01*
X143173589Y-108065000D01*
X143446411Y-108065000D01*
X143713989Y-108011775D01*
X143966043Y-107907371D01*
X144192886Y-107755799D01*
X144385799Y-107562886D01*
X144537371Y-107336043D01*
X144641775Y-107083989D01*
X144695000Y-106816411D01*
X144695000Y-106543589D01*
X144641775Y-106276011D01*
X144537371Y-106023957D01*
X144385799Y-105797114D01*
X144192886Y-105604201D01*
X143966043Y-105452629D01*
X143713989Y-105348225D01*
X143446411Y-105295000D01*
X143173589Y-105295000D01*
X142906011Y-105348225D01*
X142653957Y-105452629D01*
X142427114Y-105604201D01*
X142234201Y-105797114D01*
X142082629Y-106023957D01*
X141978225Y-106276011D01*
X141925000Y-106543589D01*
X139815000Y-106543589D01*
X139761775Y-106276011D01*
X139657371Y-106023957D01*
X139505799Y-105797114D01*
X139312886Y-105604201D01*
X139086043Y-105452629D01*
X138833989Y-105348225D01*
X138566411Y-105295000D01*
X138293589Y-105295000D01*
X138026011Y-105348225D01*
X137773957Y-105452629D01*
X137547114Y-105604201D01*
X137354201Y-105797114D01*
X137202629Y-106023957D01*
X137098225Y-106276011D01*
X137045000Y-106543589D01*
X128542402Y-106543589D01*
X128542069Y-106539882D01*
X128312415Y-105758403D01*
X127934715Y-105036744D01*
X127894550Y-104976634D01*
X127374155Y-104580450D01*
X124639605Y-107315000D01*
X124280395Y-107315000D01*
X121545845Y-104580450D01*
X121025450Y-104976634D01*
X120635252Y-105691612D01*
X120392036Y-106468976D01*
X120305149Y-107278853D01*
X110848420Y-107278853D01*
X110956013Y-107206962D01*
X111141962Y-107021013D01*
X111288061Y-106802359D01*
X111388696Y-106559405D01*
X111440000Y-106301486D01*
X111440000Y-106038514D01*
X111388696Y-105780595D01*
X111288061Y-105537641D01*
X111141962Y-105318987D01*
X110956013Y-105133038D01*
X110737359Y-104986939D01*
X110494405Y-104886304D01*
X110236486Y-104835000D01*
X109973514Y-104835000D01*
X109715595Y-104886304D01*
X109472641Y-104986939D01*
X109253987Y-105133038D01*
X109068038Y-105318987D01*
X108921939Y-105537641D01*
X108821304Y-105780595D01*
X108770000Y-106038514D01*
X104524461Y-106038514D01*
X104541962Y-106021013D01*
X104688061Y-105802359D01*
X104788696Y-105559405D01*
X104819935Y-105402357D01*
X104895595Y-105433696D01*
X105153514Y-105485000D01*
X105416486Y-105485000D01*
X105674405Y-105433696D01*
X105917359Y-105333061D01*
X106136013Y-105186962D01*
X106321962Y-105001013D01*
X106468061Y-104782359D01*
X106568696Y-104539405D01*
X106597503Y-104394584D01*
X106597503Y-104559436D01*
X106637277Y-104759395D01*
X106715298Y-104947753D01*
X106828566Y-105117271D01*
X106972729Y-105261434D01*
X107142247Y-105374702D01*
X107330605Y-105452723D01*
X107530564Y-105492497D01*
X107734442Y-105492497D01*
X107934401Y-105452723D01*
X108122759Y-105374702D01*
X108292277Y-105261434D01*
X108436440Y-105117271D01*
X108549708Y-104947753D01*
X108627729Y-104759395D01*
X108667503Y-104559436D01*
X108667503Y-104400845D01*
X121725450Y-104400845D01*
X124460000Y-107135395D01*
X127194550Y-104400845D01*
X126798366Y-103880450D01*
X126083388Y-103490252D01*
X125306024Y-103247036D01*
X124496147Y-103160149D01*
X123684882Y-103232931D01*
X122903403Y-103462585D01*
X122181744Y-103840285D01*
X122121634Y-103880450D01*
X121725450Y-104400845D01*
X108667503Y-104400845D01*
X108667503Y-104355558D01*
X108627729Y-104155599D01*
X108549708Y-103967241D01*
X108436440Y-103797723D01*
X108392503Y-103753786D01*
X108392503Y-103251987D01*
X108483061Y-103270000D01*
X108686939Y-103270000D01*
X108886898Y-103230226D01*
X109075256Y-103152205D01*
X109244774Y-103038937D01*
X109388937Y-102894774D01*
X109502205Y-102725256D01*
X109580226Y-102536898D01*
X109620000Y-102336939D01*
X109620000Y-102133061D01*
X109580226Y-101933102D01*
X109502205Y-101744744D01*
X109388937Y-101575226D01*
X109345000Y-101531289D01*
X109345000Y-99593061D01*
X125330000Y-99593061D01*
X125330000Y-99796939D01*
X125369774Y-99996898D01*
X125447795Y-100185256D01*
X125561063Y-100354774D01*
X125705226Y-100498937D01*
X125874744Y-100612205D01*
X126063102Y-100690226D01*
X126263061Y-100730000D01*
X126466939Y-100730000D01*
X126666898Y-100690226D01*
X126855256Y-100612205D01*
X127024774Y-100498937D01*
X127068711Y-100455000D01*
X130772678Y-100455000D01*
X130810000Y-100458676D01*
X130847322Y-100455000D01*
X130847333Y-100455000D01*
X130958986Y-100444003D01*
X131102247Y-100400546D01*
X131234276Y-100329974D01*
X131350001Y-100235001D01*
X131373804Y-100205997D01*
X133029802Y-98550000D01*
X135217678Y-98550000D01*
X135255000Y-98553676D01*
X135292322Y-98550000D01*
X135292333Y-98550000D01*
X135403986Y-98539003D01*
X135547247Y-98495546D01*
X135679276Y-98424974D01*
X135795001Y-98330001D01*
X135818804Y-98300997D01*
X138979803Y-95139999D01*
X139050002Y-95139999D01*
X139050002Y-95441523D01*
X139045720Y-95485001D01*
X139062806Y-95658491D01*
X139113413Y-95825314D01*
X139195591Y-95979060D01*
X139278469Y-96080047D01*
X139278472Y-96080050D01*
X139306185Y-96113818D01*
X139339952Y-96141530D01*
X139645968Y-96447546D01*
X139657277Y-96504401D01*
X139735298Y-96692759D01*
X139848566Y-96862277D01*
X139992729Y-97006440D01*
X140162247Y-97119708D01*
X140350605Y-97197729D01*
X140550564Y-97237503D01*
X140754442Y-97237503D01*
X140954401Y-97197729D01*
X141142759Y-97119708D01*
X141312277Y-97006440D01*
X141456440Y-96862277D01*
X141569708Y-96692759D01*
X141647729Y-96504401D01*
X141687503Y-96304442D01*
X141687503Y-96100564D01*
X141647729Y-95900605D01*
X141569708Y-95712247D01*
X141456440Y-95542729D01*
X141312277Y-95398566D01*
X141142759Y-95285298D01*
X140954401Y-95207277D01*
X140897546Y-95195968D01*
X140841577Y-95139999D01*
X141055198Y-95139999D01*
X142115001Y-96199803D01*
X142115000Y-97752677D01*
X142111324Y-97790000D01*
X142115000Y-97827322D01*
X142115000Y-97827332D01*
X142125997Y-97938985D01*
X142152089Y-98025000D01*
X142169454Y-98082246D01*
X142240026Y-98214276D01*
X142274220Y-98255941D01*
X142334999Y-98330001D01*
X142364003Y-98353804D01*
X148190000Y-104179802D01*
X148190000Y-104241939D01*
X148229774Y-104441898D01*
X148307795Y-104630256D01*
X148421063Y-104799774D01*
X148565226Y-104943937D01*
X148734744Y-105057205D01*
X148923102Y-105135226D01*
X149123061Y-105175000D01*
X149326939Y-105175000D01*
X149526898Y-105135226D01*
X149715256Y-105057205D01*
X149884774Y-104943937D01*
X150028937Y-104799774D01*
X150142205Y-104630256D01*
X150220226Y-104441898D01*
X150260000Y-104241939D01*
X150260000Y-104038061D01*
X150220226Y-103838102D01*
X150142205Y-103649744D01*
X150028937Y-103480226D01*
X149884774Y-103336063D01*
X149715256Y-103222795D01*
X149526898Y-103144774D01*
X149326939Y-103105000D01*
X149264802Y-103105000D01*
X143635000Y-97475199D01*
X143635000Y-95922323D01*
X143638676Y-95885000D01*
X143635000Y-95847677D01*
X143635000Y-95847667D01*
X143624003Y-95736014D01*
X143580546Y-95592753D01*
X143509974Y-95460724D01*
X143415001Y-95344999D01*
X143386003Y-95321201D01*
X142577863Y-94513061D01*
X146920000Y-94513061D01*
X146920000Y-94716939D01*
X146959774Y-94916898D01*
X147037795Y-95105256D01*
X147151063Y-95274774D01*
X147195001Y-95318712D01*
X147195000Y-97192332D01*
X147195001Y-97192342D01*
X147195000Y-98356289D01*
X147151063Y-98400226D01*
X147037795Y-98569744D01*
X146959774Y-98758102D01*
X146920000Y-98958061D01*
X146920000Y-99161939D01*
X146959774Y-99361898D01*
X147037795Y-99550256D01*
X147151063Y-99719774D01*
X147295226Y-99863937D01*
X147464744Y-99977205D01*
X147653102Y-100055226D01*
X147853061Y-100095000D01*
X148056939Y-100095000D01*
X148256898Y-100055226D01*
X148445256Y-99977205D01*
X148614774Y-99863937D01*
X148758937Y-99719774D01*
X148872205Y-99550256D01*
X148950226Y-99361898D01*
X148990000Y-99161939D01*
X148990000Y-98958061D01*
X148950226Y-98758102D01*
X148872205Y-98569744D01*
X148758937Y-98400226D01*
X148715000Y-98356289D01*
X148715000Y-95318711D01*
X148758937Y-95274774D01*
X148872205Y-95105256D01*
X148950226Y-94916898D01*
X148990000Y-94716939D01*
X148990000Y-94513061D01*
X148950226Y-94313102D01*
X148872205Y-94124744D01*
X148758937Y-93955226D01*
X148614774Y-93811063D01*
X148445256Y-93697795D01*
X148256898Y-93619774D01*
X148056939Y-93580000D01*
X147853061Y-93580000D01*
X147653102Y-93619774D01*
X147464744Y-93697795D01*
X147295226Y-93811063D01*
X147151063Y-93955226D01*
X147037795Y-94124744D01*
X146959774Y-94313102D01*
X146920000Y-94513061D01*
X142577863Y-94513061D01*
X141933803Y-93869002D01*
X141910000Y-93839998D01*
X141794275Y-93745025D01*
X141662246Y-93674453D01*
X141518985Y-93630996D01*
X141407332Y-93619999D01*
X141407321Y-93619999D01*
X141369999Y-93616323D01*
X141332677Y-93619999D01*
X140820001Y-93619999D01*
X140820001Y-93159077D01*
X142676231Y-91302848D01*
X142771063Y-91444774D01*
X142915226Y-91588937D01*
X143084744Y-91702205D01*
X143273102Y-91780226D01*
X143473061Y-91820000D01*
X143676939Y-91820000D01*
X143876898Y-91780226D01*
X144065256Y-91702205D01*
X144234774Y-91588937D01*
X144278711Y-91545000D01*
X149207678Y-91545000D01*
X149245000Y-91548676D01*
X149282322Y-91545000D01*
X149282333Y-91545000D01*
X149393986Y-91534003D01*
X149537247Y-91490546D01*
X149669276Y-91419974D01*
X149785001Y-91325001D01*
X149808803Y-91295998D01*
X149860000Y-91244801D01*
X154180000Y-95564802D01*
X154180001Y-101531472D01*
X154136063Y-101575410D01*
X154022795Y-101744928D01*
X153944774Y-101933286D01*
X153905000Y-102133245D01*
X153905000Y-102337123D01*
X153944774Y-102537082D01*
X154022795Y-102725440D01*
X154136063Y-102894958D01*
X154280226Y-103039121D01*
X154449744Y-103152389D01*
X154638102Y-103230410D01*
X154838061Y-103270184D01*
X155041939Y-103270184D01*
X155241898Y-103230410D01*
X155430256Y-103152389D01*
X155599774Y-103039121D01*
X155743937Y-102894958D01*
X155857205Y-102725440D01*
X155935226Y-102537082D01*
X155975000Y-102337123D01*
X155975000Y-102133245D01*
X155935226Y-101933286D01*
X155857205Y-101744928D01*
X155743937Y-101575410D01*
X155700000Y-101531473D01*
X155700000Y-95287323D01*
X155703676Y-95250000D01*
X155700000Y-95212677D01*
X155700000Y-95212667D01*
X155689003Y-95101014D01*
X155645546Y-94957753D01*
X155613182Y-94897205D01*
X155574974Y-94825723D01*
X155503799Y-94738997D01*
X155480001Y-94709999D01*
X155451004Y-94686202D01*
X150423804Y-89659003D01*
X150423799Y-89658997D01*
X150423789Y-89658987D01*
X150400000Y-89630000D01*
X150371013Y-89606211D01*
X149625000Y-88860199D01*
X149625000Y-88798061D01*
X149585226Y-88598102D01*
X149507205Y-88409744D01*
X149393937Y-88240226D01*
X149249774Y-88096063D01*
X149080256Y-87982795D01*
X148891898Y-87904774D01*
X148691939Y-87865000D01*
X148488061Y-87865000D01*
X148288102Y-87904774D01*
X148099744Y-87982795D01*
X147930226Y-88096063D01*
X147786063Y-88240226D01*
X147672795Y-88409744D01*
X147594774Y-88598102D01*
X147555000Y-88798061D01*
X147555000Y-89001939D01*
X147594774Y-89201898D01*
X147672795Y-89390256D01*
X147786063Y-89559774D01*
X147930226Y-89703937D01*
X148099744Y-89817205D01*
X148288102Y-89895226D01*
X148488061Y-89935000D01*
X148550199Y-89935000D01*
X148640199Y-90025000D01*
X144278711Y-90025000D01*
X144234774Y-89981063D01*
X144065256Y-89867795D01*
X144050855Y-89861830D01*
X144077589Y-89811813D01*
X144128195Y-89644990D01*
X144141000Y-89514977D01*
X144141000Y-89514969D01*
X144145281Y-89471500D01*
X144141000Y-89428031D01*
X144141000Y-86149469D01*
X144145281Y-86106000D01*
X144141000Y-86062531D01*
X144141000Y-86062523D01*
X144128195Y-85932510D01*
X144117264Y-85896476D01*
X144077589Y-85765686D01*
X143995411Y-85611941D01*
X143912532Y-85510953D01*
X143912530Y-85510951D01*
X143884817Y-85477183D01*
X143851049Y-85449470D01*
X143075539Y-84673960D01*
X143090000Y-84601260D01*
X143090000Y-84308740D01*
X143032932Y-84021842D01*
X142920990Y-83751589D01*
X142758475Y-83508368D01*
X142740000Y-83489893D01*
X142740000Y-80700752D01*
X142745491Y-80645000D01*
X142723577Y-80422501D01*
X142658676Y-80208553D01*
X142553284Y-80011377D01*
X142446989Y-79881856D01*
X142446987Y-79881854D01*
X142411449Y-79838551D01*
X142368146Y-79803013D01*
X139685135Y-77120003D01*
X141411086Y-77120003D01*
X141506270Y-77386165D01*
X141651551Y-77628644D01*
X141841346Y-77838121D01*
X142068361Y-78006545D01*
X142323872Y-78127445D01*
X142459745Y-78168662D01*
X142682874Y-78046767D01*
X142682874Y-76896874D01*
X142936874Y-76896874D01*
X142936874Y-78046767D01*
X143160003Y-78168662D01*
X143426165Y-78073478D01*
X143668644Y-77928197D01*
X143878121Y-77738402D01*
X144046545Y-77511387D01*
X144167445Y-77255876D01*
X144208662Y-77120003D01*
X144086767Y-76896874D01*
X142936874Y-76896874D01*
X142682874Y-76896874D01*
X141532981Y-76896874D01*
X141411086Y-77120003D01*
X139685135Y-77120003D01*
X139400131Y-76835000D01*
X139815386Y-76419745D01*
X141411086Y-76419745D01*
X141532981Y-76642874D01*
X142682874Y-76642874D01*
X142682874Y-75492981D01*
X142936874Y-75492981D01*
X142936874Y-76642874D01*
X144086767Y-76642874D01*
X144208662Y-76419745D01*
X144113478Y-76153583D01*
X143968197Y-75911104D01*
X143778402Y-75701627D01*
X143551387Y-75533203D01*
X143295876Y-75412303D01*
X143160003Y-75371086D01*
X142936874Y-75492981D01*
X142682874Y-75492981D01*
X142459745Y-75371086D01*
X142193583Y-75466270D01*
X141951104Y-75611551D01*
X141741627Y-75801346D01*
X141573203Y-76028361D01*
X141452303Y-76283872D01*
X141411086Y-76419745D01*
X139815386Y-76419745D01*
X140512282Y-75722850D01*
X140753574Y-75674853D01*
X141014727Y-75566680D01*
X141249759Y-75409637D01*
X141449637Y-75209759D01*
X141469521Y-75180000D01*
X144413422Y-75180000D01*
X154283470Y-85050049D01*
X154311183Y-85083817D01*
X154344951Y-85111530D01*
X154344953Y-85111532D01*
X154402075Y-85158411D01*
X154445941Y-85194411D01*
X154599687Y-85276589D01*
X154766510Y-85327195D01*
X154896523Y-85340000D01*
X154896531Y-85340000D01*
X154940000Y-85344281D01*
X154983469Y-85340000D01*
X169930000Y-85340000D01*
X169930001Y-86456545D01*
X169897795Y-86504744D01*
X169819774Y-86693102D01*
X169780000Y-86893061D01*
X169780000Y-87096939D01*
X169819774Y-87296898D01*
X169897795Y-87485256D01*
X169930000Y-87533454D01*
X169930001Y-94076544D01*
X169897795Y-94124744D01*
X169819774Y-94313102D01*
X169780000Y-94513061D01*
X169780000Y-94716939D01*
X169819774Y-94916898D01*
X169897795Y-95105256D01*
X169930001Y-95153456D01*
X169930000Y-101696546D01*
X169897795Y-101744744D01*
X169819774Y-101933102D01*
X169780000Y-102133061D01*
X169780000Y-102336939D01*
X169819774Y-102536898D01*
X169897795Y-102725256D01*
X169930000Y-102773455D01*
X169930001Y-105760544D01*
X169897795Y-105808744D01*
X169819774Y-105997102D01*
X169780000Y-106197061D01*
X169780000Y-106264001D01*
X167595464Y-106264001D01*
X167551998Y-106259720D01*
X167508532Y-106264001D01*
X167508522Y-106264001D01*
X167378509Y-106276806D01*
X167211686Y-106327412D01*
X167057940Y-106409590D01*
X167057938Y-106409591D01*
X167057939Y-106409591D01*
X166956952Y-106492469D01*
X166956950Y-106492471D01*
X166923182Y-106520184D01*
X166895469Y-106553952D01*
X160536957Y-112912465D01*
X160480102Y-112923774D01*
X160291744Y-113001795D01*
X160122226Y-113115063D01*
X159978063Y-113259226D01*
X159864795Y-113428744D01*
X159786774Y-113617102D01*
X159747000Y-113817061D01*
X159747000Y-114020939D01*
X159786774Y-114220898D01*
X159864795Y-114409256D01*
X159978063Y-114578774D01*
X160122226Y-114722937D01*
X160291744Y-114836205D01*
X160480102Y-114914226D01*
X160680061Y-114954000D01*
X160883939Y-114954000D01*
X161083898Y-114914226D01*
X161272256Y-114836205D01*
X161441774Y-114722937D01*
X161585937Y-114578774D01*
X161699205Y-114409256D01*
X161777226Y-114220898D01*
X161788535Y-114164043D01*
X167918578Y-108034001D01*
X171511421Y-108034001D01*
X168543422Y-111002000D01*
X166921465Y-111002000D01*
X166877999Y-110997719D01*
X166834533Y-111002000D01*
X166834523Y-111002000D01*
X166704510Y-111014805D01*
X166537687Y-111065411D01*
X166383941Y-111147589D01*
X166383939Y-111147590D01*
X166383940Y-111147590D01*
X166282953Y-111230468D01*
X166282951Y-111230470D01*
X166249183Y-111258183D01*
X166221470Y-111291951D01*
X164092957Y-113420465D01*
X164036102Y-113431774D01*
X163847744Y-113509795D01*
X163678226Y-113623063D01*
X163534063Y-113767226D01*
X163420795Y-113936744D01*
X163342774Y-114125102D01*
X163303000Y-114325061D01*
X163303000Y-114528939D01*
X163342774Y-114728898D01*
X163420795Y-114917256D01*
X163534063Y-115086774D01*
X163678226Y-115230937D01*
X163847744Y-115344205D01*
X164036102Y-115422226D01*
X164236061Y-115462000D01*
X164439939Y-115462000D01*
X164639898Y-115422226D01*
X164828256Y-115344205D01*
X164997774Y-115230937D01*
X165141937Y-115086774D01*
X165255205Y-114917256D01*
X165333226Y-114728898D01*
X165344535Y-114672043D01*
X167244579Y-112772000D01*
X168297422Y-112772000D01*
X167648957Y-113420465D01*
X167592102Y-113431774D01*
X167403744Y-113509795D01*
X167234226Y-113623063D01*
X167090063Y-113767226D01*
X166976795Y-113936744D01*
X166898774Y-114125102D01*
X166859000Y-114325061D01*
X166859000Y-114528939D01*
X166898774Y-114728898D01*
X166976795Y-114917256D01*
X167090063Y-115086774D01*
X167234226Y-115230937D01*
X167403744Y-115344205D01*
X167592102Y-115422226D01*
X167792061Y-115462000D01*
X167995939Y-115462000D01*
X168195898Y-115422226D01*
X168384256Y-115344205D01*
X168553774Y-115230937D01*
X168697937Y-115086774D01*
X168811205Y-114917256D01*
X168889226Y-114728898D01*
X168900535Y-114672043D01*
X169247517Y-114325061D01*
X170415000Y-114325061D01*
X170415000Y-114528939D01*
X170454774Y-114728898D01*
X170532795Y-114917256D01*
X170646063Y-115086774D01*
X170790226Y-115230937D01*
X170959744Y-115344205D01*
X171148102Y-115422226D01*
X171348061Y-115462000D01*
X171551939Y-115462000D01*
X171751898Y-115422226D01*
X171940256Y-115344205D01*
X172109774Y-115230937D01*
X172253937Y-115086774D01*
X172367205Y-114917256D01*
X172445226Y-114728898D01*
X172456535Y-114672043D01*
X172803517Y-114325061D01*
X173971000Y-114325061D01*
X173971000Y-114528939D01*
X174010774Y-114728898D01*
X174088795Y-114917256D01*
X174202063Y-115086774D01*
X174346226Y-115230937D01*
X174515744Y-115344205D01*
X174704102Y-115422226D01*
X174904061Y-115462000D01*
X175107939Y-115462000D01*
X175307898Y-115422226D01*
X175496256Y-115344205D01*
X175665774Y-115230937D01*
X175809937Y-115086774D01*
X175923205Y-114917256D01*
X176001226Y-114728898D01*
X176012535Y-114672043D01*
X176359517Y-114325061D01*
X177527000Y-114325061D01*
X177527000Y-114528939D01*
X177566774Y-114728898D01*
X177644795Y-114917256D01*
X177758063Y-115086774D01*
X177902226Y-115230937D01*
X178071744Y-115344205D01*
X178260102Y-115422226D01*
X178460061Y-115462000D01*
X178663939Y-115462000D01*
X178863898Y-115422226D01*
X179052256Y-115344205D01*
X179221774Y-115230937D01*
X179365937Y-115086774D01*
X179479205Y-114917256D01*
X179557226Y-114728898D01*
X179568535Y-114672043D01*
X180605579Y-113635000D01*
X184130224Y-113635000D01*
X184133992Y-113673254D01*
X184184528Y-113839850D01*
X184266595Y-113993386D01*
X184377038Y-114127962D01*
X184511614Y-114238405D01*
X184665150Y-114320472D01*
X184831746Y-114371008D01*
X185005000Y-114388072D01*
X187105000Y-114388072D01*
X187278254Y-114371008D01*
X187444850Y-114320472D01*
X187598386Y-114238405D01*
X187732962Y-114127962D01*
X187843405Y-113993386D01*
X187925472Y-113839850D01*
X187976008Y-113673254D01*
X187993072Y-113500000D01*
X187993072Y-112000000D01*
X187976008Y-111826746D01*
X187925472Y-111660150D01*
X187843405Y-111506614D01*
X187732962Y-111372038D01*
X187598386Y-111261595D01*
X187444850Y-111179528D01*
X187278254Y-111128992D01*
X187105000Y-111111928D01*
X185005000Y-111111928D01*
X184831746Y-111128992D01*
X184665150Y-111179528D01*
X184511614Y-111261595D01*
X184377038Y-111372038D01*
X184266595Y-111506614D01*
X184184528Y-111660150D01*
X184133992Y-111826746D01*
X184130224Y-111865000D01*
X180282465Y-111865000D01*
X180238999Y-111860719D01*
X180195533Y-111865000D01*
X180195523Y-111865000D01*
X180065510Y-111877805D01*
X179898687Y-111928411D01*
X179744941Y-112010589D01*
X179744939Y-112010590D01*
X179744940Y-112010590D01*
X179643953Y-112093468D01*
X179643951Y-112093470D01*
X179610183Y-112121183D01*
X179582470Y-112154951D01*
X178316957Y-113420465D01*
X178260102Y-113431774D01*
X178071744Y-113509795D01*
X177902226Y-113623063D01*
X177758063Y-113767226D01*
X177644795Y-113936744D01*
X177566774Y-114125102D01*
X177527000Y-114325061D01*
X176359517Y-114325061D01*
X180549579Y-110135000D01*
X184374135Y-110135000D01*
X184388969Y-110162752D01*
X184593286Y-110411714D01*
X184842248Y-110616031D01*
X185126285Y-110767852D01*
X185434484Y-110861343D01*
X185674678Y-110885000D01*
X186435322Y-110885000D01*
X186675516Y-110861343D01*
X186983715Y-110767852D01*
X187267752Y-110616031D01*
X187516714Y-110411714D01*
X187721031Y-110162752D01*
X187872852Y-109878715D01*
X187966343Y-109570516D01*
X187997911Y-109250000D01*
X187966343Y-108929484D01*
X187872852Y-108621285D01*
X187721031Y-108337248D01*
X187516714Y-108088286D01*
X187267752Y-107883969D01*
X186983715Y-107732148D01*
X186675516Y-107638657D01*
X186435322Y-107615000D01*
X185674678Y-107615000D01*
X185434484Y-107638657D01*
X185126285Y-107732148D01*
X184842248Y-107883969D01*
X184593286Y-108088286D01*
X184388969Y-108337248D01*
X184374135Y-108365000D01*
X180226469Y-108365000D01*
X180183000Y-108360719D01*
X180139531Y-108365000D01*
X180139523Y-108365000D01*
X180009510Y-108377805D01*
X179842686Y-108428411D01*
X179688941Y-108510589D01*
X179587953Y-108593468D01*
X179587951Y-108593470D01*
X179554183Y-108621183D01*
X179526470Y-108654951D01*
X174760957Y-113420465D01*
X174704102Y-113431774D01*
X174515744Y-113509795D01*
X174346226Y-113623063D01*
X174202063Y-113767226D01*
X174088795Y-113936744D01*
X174010774Y-114125102D01*
X173971000Y-114325061D01*
X172803517Y-114325061D01*
X180493579Y-106635000D01*
X184374135Y-106635000D01*
X184388969Y-106662752D01*
X184593286Y-106911714D01*
X184842248Y-107116031D01*
X185126285Y-107267852D01*
X185434484Y-107361343D01*
X185674678Y-107385000D01*
X186435322Y-107385000D01*
X186675516Y-107361343D01*
X186983715Y-107267852D01*
X187267752Y-107116031D01*
X187516714Y-106911714D01*
X187721031Y-106662752D01*
X187872852Y-106378715D01*
X187966343Y-106070516D01*
X187997911Y-105750000D01*
X187966343Y-105429484D01*
X187872852Y-105121285D01*
X187721031Y-104837248D01*
X187516714Y-104588286D01*
X187267752Y-104383969D01*
X186983715Y-104232148D01*
X186675516Y-104138657D01*
X186435322Y-104115000D01*
X185674678Y-104115000D01*
X185434484Y-104138657D01*
X185126285Y-104232148D01*
X184842248Y-104383969D01*
X184593286Y-104588286D01*
X184388969Y-104837248D01*
X184374135Y-104865000D01*
X180170466Y-104865000D01*
X180126999Y-104860719D01*
X180083533Y-104865000D01*
X180083523Y-104865000D01*
X179953510Y-104877805D01*
X179786687Y-104928411D01*
X179632941Y-105010589D01*
X179632939Y-105010590D01*
X179632940Y-105010590D01*
X179531953Y-105093468D01*
X179531951Y-105093470D01*
X179498183Y-105121183D01*
X179470470Y-105154951D01*
X171204957Y-113420465D01*
X171148102Y-113431774D01*
X170959744Y-113509795D01*
X170790226Y-113623063D01*
X170646063Y-113767226D01*
X170532795Y-113936744D01*
X170454774Y-114125102D01*
X170415000Y-114325061D01*
X169247517Y-114325061D01*
X180437579Y-103135000D01*
X184374135Y-103135000D01*
X184388969Y-103162752D01*
X184593286Y-103411714D01*
X184842248Y-103616031D01*
X185126285Y-103767852D01*
X185434484Y-103861343D01*
X185674678Y-103885000D01*
X186435322Y-103885000D01*
X186675516Y-103861343D01*
X186983715Y-103767852D01*
X187267752Y-103616031D01*
X187516714Y-103411714D01*
X187721031Y-103162752D01*
X187872852Y-102878715D01*
X187966343Y-102570516D01*
X187997911Y-102250000D01*
X187966343Y-101929484D01*
X187872852Y-101621285D01*
X187721031Y-101337248D01*
X187516714Y-101088286D01*
X187267752Y-100883969D01*
X186983715Y-100732148D01*
X186675516Y-100638657D01*
X186435322Y-100615000D01*
X185674678Y-100615000D01*
X185434484Y-100638657D01*
X185126285Y-100732148D01*
X184842248Y-100883969D01*
X184593286Y-101088286D01*
X184388969Y-101337248D01*
X184374135Y-101365000D01*
X180683579Y-101365000D01*
X182413579Y-99635000D01*
X184374135Y-99635000D01*
X184388969Y-99662752D01*
X184593286Y-99911714D01*
X184842248Y-100116031D01*
X185126285Y-100267852D01*
X185434484Y-100361343D01*
X185674678Y-100385000D01*
X186435322Y-100385000D01*
X186675516Y-100361343D01*
X186983715Y-100267852D01*
X187267752Y-100116031D01*
X187516714Y-99911714D01*
X187721031Y-99662752D01*
X187872852Y-99378715D01*
X187966343Y-99070516D01*
X187997911Y-98750000D01*
X187966343Y-98429484D01*
X187872852Y-98121285D01*
X187721031Y-97837248D01*
X187516714Y-97588286D01*
X187267752Y-97383969D01*
X186983715Y-97232148D01*
X186675516Y-97138657D01*
X186435322Y-97115000D01*
X185674678Y-97115000D01*
X185434484Y-97138657D01*
X185126285Y-97232148D01*
X184842248Y-97383969D01*
X184593286Y-97588286D01*
X184388969Y-97837248D01*
X184374135Y-97865000D01*
X182090469Y-97865000D01*
X182047000Y-97860719D01*
X182003531Y-97865000D01*
X182003523Y-97865000D01*
X181873510Y-97877805D01*
X181706686Y-97928411D01*
X181552941Y-98010589D01*
X181451953Y-98093468D01*
X181451951Y-98093470D01*
X181418183Y-98121183D01*
X181390470Y-98154951D01*
X179447000Y-100098421D01*
X179447000Y-98029578D01*
X181341579Y-96135000D01*
X184374135Y-96135000D01*
X184388969Y-96162752D01*
X184593286Y-96411714D01*
X184842248Y-96616031D01*
X185126285Y-96767852D01*
X185434484Y-96861343D01*
X185674678Y-96885000D01*
X186435322Y-96885000D01*
X186675516Y-96861343D01*
X186983715Y-96767852D01*
X187267752Y-96616031D01*
X187516714Y-96411714D01*
X187721031Y-96162752D01*
X187872852Y-95878715D01*
X187966343Y-95570516D01*
X187997911Y-95250000D01*
X187966343Y-94929484D01*
X187872852Y-94621285D01*
X187721031Y-94337248D01*
X187516714Y-94088286D01*
X187267752Y-93883969D01*
X186983715Y-93732148D01*
X186675516Y-93638657D01*
X186435322Y-93615000D01*
X185674678Y-93615000D01*
X185434484Y-93638657D01*
X185126285Y-93732148D01*
X184842248Y-93883969D01*
X184593286Y-94088286D01*
X184388969Y-94337248D01*
X184374135Y-94365000D01*
X181018465Y-94365000D01*
X180974999Y-94360719D01*
X180931533Y-94365000D01*
X180931523Y-94365000D01*
X180801510Y-94377805D01*
X180634687Y-94428411D01*
X180480941Y-94510589D01*
X180480939Y-94510590D01*
X180480940Y-94510590D01*
X180379953Y-94593468D01*
X180379951Y-94593470D01*
X180346183Y-94621183D01*
X180318470Y-94654951D01*
X177966956Y-97006466D01*
X177933183Y-97034183D01*
X177822589Y-97168942D01*
X177740411Y-97322688D01*
X177689805Y-97489511D01*
X177677000Y-97619524D01*
X177677000Y-97619531D01*
X177672719Y-97663000D01*
X177677000Y-97706469D01*
X177677001Y-100344420D01*
X171845746Y-106175676D01*
X171810226Y-105997102D01*
X171732205Y-105808744D01*
X171700000Y-105760546D01*
X171700000Y-102773454D01*
X171732205Y-102725256D01*
X171810226Y-102536898D01*
X171850000Y-102336939D01*
X171850000Y-102133061D01*
X171810226Y-101933102D01*
X171732205Y-101744744D01*
X171700000Y-101696546D01*
X171700000Y-95153454D01*
X171732205Y-95105256D01*
X171810226Y-94916898D01*
X171850000Y-94716939D01*
X171850000Y-94513061D01*
X171810226Y-94313102D01*
X171732205Y-94124744D01*
X171700000Y-94076546D01*
X171700000Y-87533454D01*
X171732205Y-87485256D01*
X171810226Y-87296898D01*
X171850000Y-87096939D01*
X171850000Y-86893061D01*
X171810226Y-86693102D01*
X171732205Y-86504744D01*
X171700000Y-86456546D01*
X171700000Y-84498477D01*
X171704282Y-84455000D01*
X171700000Y-84411523D01*
X171700000Y-79913454D01*
X171732205Y-79865256D01*
X171810226Y-79676898D01*
X171850000Y-79476939D01*
X171850000Y-79273061D01*
X171810226Y-79073102D01*
X171732205Y-78884744D01*
X171700000Y-78836546D01*
X171700000Y-72293454D01*
X171708762Y-72280341D01*
X177677001Y-78248580D01*
X177677000Y-81363531D01*
X177672719Y-81407000D01*
X177677000Y-81450469D01*
X177677000Y-81450476D01*
X177689805Y-81580489D01*
X177740411Y-81747312D01*
X177822589Y-81901058D01*
X177933183Y-82035817D01*
X177966956Y-82063534D01*
X182873470Y-86970049D01*
X182901183Y-87003817D01*
X182934951Y-87031530D01*
X182934953Y-87031532D01*
X182984908Y-87072529D01*
X183035941Y-87114411D01*
X183189687Y-87196589D01*
X183305903Y-87231843D01*
X183356509Y-87247195D01*
X183371306Y-87248652D01*
X183486523Y-87260000D01*
X183486531Y-87260000D01*
X183530000Y-87264281D01*
X183573469Y-87260000D01*
X184130224Y-87260000D01*
X184133992Y-87298254D01*
X184184528Y-87464850D01*
X184266595Y-87618386D01*
X184377038Y-87752962D01*
X184511614Y-87863405D01*
X184665150Y-87945472D01*
X184831746Y-87996008D01*
X185005000Y-88013072D01*
X187105000Y-88013072D01*
X187278254Y-87996008D01*
X187444850Y-87945472D01*
X187598386Y-87863405D01*
X187732962Y-87752962D01*
X187843405Y-87618386D01*
X187925472Y-87464850D01*
X187976008Y-87298254D01*
X187993072Y-87125000D01*
X187993072Y-85625000D01*
X187976008Y-85451746D01*
X187925472Y-85285150D01*
X187843405Y-85131614D01*
X187732962Y-84997038D01*
X187598386Y-84886595D01*
X187444850Y-84804528D01*
X187278254Y-84753992D01*
X187105000Y-84736928D01*
X185005000Y-84736928D01*
X184831746Y-84753992D01*
X184665150Y-84804528D01*
X184511614Y-84886595D01*
X184377038Y-84997038D01*
X184266595Y-85131614D01*
X184184528Y-85285150D01*
X184133992Y-85451746D01*
X184130224Y-85490000D01*
X183896579Y-85490000D01*
X179447000Y-81040422D01*
X179447000Y-80495578D01*
X182421470Y-83470049D01*
X182449183Y-83503817D01*
X182482951Y-83531530D01*
X182482953Y-83531532D01*
X182534268Y-83573645D01*
X182583941Y-83614411D01*
X182737687Y-83696589D01*
X182904510Y-83747195D01*
X183034523Y-83760000D01*
X183034533Y-83760000D01*
X183077999Y-83764281D01*
X183121465Y-83760000D01*
X184374135Y-83760000D01*
X184388969Y-83787752D01*
X184593286Y-84036714D01*
X184842248Y-84241031D01*
X185126285Y-84392852D01*
X185434484Y-84486343D01*
X185674678Y-84510000D01*
X186435322Y-84510000D01*
X186675516Y-84486343D01*
X186983715Y-84392852D01*
X187267752Y-84241031D01*
X187516714Y-84036714D01*
X187721031Y-83787752D01*
X187872852Y-83503715D01*
X187966343Y-83195516D01*
X187997911Y-82875000D01*
X187966343Y-82554484D01*
X187872852Y-82246285D01*
X187721031Y-81962248D01*
X187516714Y-81713286D01*
X187267752Y-81508969D01*
X186983715Y-81357148D01*
X186675516Y-81263657D01*
X186435322Y-81240000D01*
X185674678Y-81240000D01*
X185434484Y-81263657D01*
X185126285Y-81357148D01*
X184842248Y-81508969D01*
X184593286Y-81713286D01*
X184388969Y-81962248D01*
X184374135Y-81990000D01*
X183444579Y-81990000D01*
X180878250Y-79423672D01*
X180878250Y-77989829D01*
X182858470Y-79970049D01*
X182886183Y-80003817D01*
X182919951Y-80031530D01*
X182919953Y-80031532D01*
X182945399Y-80052415D01*
X183020941Y-80114411D01*
X183174687Y-80196589D01*
X183341510Y-80247195D01*
X183471523Y-80260000D01*
X183471533Y-80260000D01*
X183514999Y-80264281D01*
X183558466Y-80260000D01*
X184374135Y-80260000D01*
X184388969Y-80287752D01*
X184593286Y-80536714D01*
X184842248Y-80741031D01*
X185126285Y-80892852D01*
X185434484Y-80986343D01*
X185674678Y-81010000D01*
X186435322Y-81010000D01*
X186675516Y-80986343D01*
X186983715Y-80892852D01*
X187267752Y-80741031D01*
X187516714Y-80536714D01*
X187721031Y-80287752D01*
X187872852Y-80003715D01*
X187966343Y-79695516D01*
X187997911Y-79375000D01*
X187966343Y-79054484D01*
X187872852Y-78746285D01*
X187721031Y-78462248D01*
X187516714Y-78213286D01*
X187267752Y-78008969D01*
X186983715Y-77857148D01*
X186675516Y-77763657D01*
X186435322Y-77740000D01*
X185674678Y-77740000D01*
X185434484Y-77763657D01*
X185126285Y-77857148D01*
X184842248Y-78008969D01*
X184593286Y-78213286D01*
X184388969Y-78462248D01*
X184374135Y-78490000D01*
X183881579Y-78490000D01*
X182150728Y-76759149D01*
X182159365Y-76760000D01*
X182159373Y-76760000D01*
X182202842Y-76764281D01*
X182246311Y-76760000D01*
X184374135Y-76760000D01*
X184388969Y-76787752D01*
X184593286Y-77036714D01*
X184842248Y-77241031D01*
X185126285Y-77392852D01*
X185434484Y-77486343D01*
X185674678Y-77510000D01*
X186435322Y-77510000D01*
X186675516Y-77486343D01*
X186983715Y-77392852D01*
X187267752Y-77241031D01*
X187516714Y-77036714D01*
X187721031Y-76787752D01*
X187872852Y-76503715D01*
X187966343Y-76195516D01*
X187997911Y-75875000D01*
X187966343Y-75554484D01*
X187872852Y-75246285D01*
X187721031Y-74962248D01*
X187516714Y-74713286D01*
X187267752Y-74508969D01*
X186983715Y-74357148D01*
X186675516Y-74263657D01*
X186435322Y-74240000D01*
X185674678Y-74240000D01*
X185434484Y-74263657D01*
X185126285Y-74357148D01*
X184842248Y-74508969D01*
X184593286Y-74713286D01*
X184388969Y-74962248D01*
X184374135Y-74990000D01*
X182569421Y-74990000D01*
X180839421Y-73260000D01*
X184374135Y-73260000D01*
X184388969Y-73287752D01*
X184593286Y-73536714D01*
X184842248Y-73741031D01*
X185126285Y-73892852D01*
X185434484Y-73986343D01*
X185674678Y-74010000D01*
X186435322Y-74010000D01*
X186675516Y-73986343D01*
X186983715Y-73892852D01*
X187267752Y-73741031D01*
X187516714Y-73536714D01*
X187721031Y-73287752D01*
X187872852Y-73003715D01*
X187966343Y-72695516D01*
X187997911Y-72375000D01*
X187966343Y-72054484D01*
X187872852Y-71746285D01*
X187721031Y-71462248D01*
X187516714Y-71213286D01*
X187267752Y-71008969D01*
X186983715Y-70857148D01*
X186675516Y-70763657D01*
X186435322Y-70740000D01*
X185674678Y-70740000D01*
X185434484Y-70763657D01*
X185126285Y-70857148D01*
X184842248Y-71008969D01*
X184593286Y-71213286D01*
X184388969Y-71462248D01*
X184374135Y-71490000D01*
X181072579Y-71490000D01*
X176155640Y-66573061D01*
X177527000Y-66573061D01*
X177527000Y-66776939D01*
X177566774Y-66976898D01*
X177644795Y-67165256D01*
X177758063Y-67334774D01*
X177902226Y-67478937D01*
X178071744Y-67592205D01*
X178260102Y-67670226D01*
X178316957Y-67681535D01*
X180105470Y-69470049D01*
X180133183Y-69503817D01*
X180166951Y-69531530D01*
X180166953Y-69531532D01*
X180245165Y-69595719D01*
X180267941Y-69614411D01*
X180421687Y-69696589D01*
X180588510Y-69747195D01*
X180718523Y-69760000D01*
X180718531Y-69760000D01*
X180762000Y-69764281D01*
X180805469Y-69760000D01*
X184374135Y-69760000D01*
X184388969Y-69787752D01*
X184593286Y-70036714D01*
X184842248Y-70241031D01*
X185126285Y-70392852D01*
X185434484Y-70486343D01*
X185674678Y-70510000D01*
X186435322Y-70510000D01*
X186675516Y-70486343D01*
X186983715Y-70392852D01*
X187267752Y-70241031D01*
X187516714Y-70036714D01*
X187721031Y-69787752D01*
X187872852Y-69503715D01*
X187966343Y-69195516D01*
X187997911Y-68875000D01*
X187966343Y-68554484D01*
X187872852Y-68246285D01*
X187721031Y-67962248D01*
X187516714Y-67713286D01*
X187267752Y-67508969D01*
X186983715Y-67357148D01*
X186675516Y-67263657D01*
X186435322Y-67240000D01*
X185674678Y-67240000D01*
X185434484Y-67263657D01*
X185126285Y-67357148D01*
X184842248Y-67508969D01*
X184593286Y-67713286D01*
X184388969Y-67962248D01*
X184374135Y-67990000D01*
X181128579Y-67990000D01*
X179568535Y-66429957D01*
X179557226Y-66373102D01*
X179479205Y-66184744D01*
X179365937Y-66015226D01*
X179221774Y-65871063D01*
X179052256Y-65757795D01*
X178863898Y-65679774D01*
X178663939Y-65640000D01*
X178460061Y-65640000D01*
X178260102Y-65679774D01*
X178071744Y-65757795D01*
X177902226Y-65871063D01*
X177758063Y-66015226D01*
X177644795Y-66184744D01*
X177566774Y-66373102D01*
X177527000Y-66573061D01*
X176155640Y-66573061D01*
X176012535Y-66429957D01*
X176001226Y-66373102D01*
X175923205Y-66184744D01*
X175809937Y-66015226D01*
X175665774Y-65871063D01*
X175496256Y-65757795D01*
X175307898Y-65679774D01*
X175107939Y-65640000D01*
X174904061Y-65640000D01*
X174704102Y-65679774D01*
X174515744Y-65757795D01*
X174346226Y-65871063D01*
X174202063Y-66015226D01*
X174088795Y-66184744D01*
X174010774Y-66373102D01*
X174001109Y-66421689D01*
X173659376Y-66079956D01*
X173631659Y-66046183D01*
X173496901Y-65935589D01*
X173343155Y-65853411D01*
X173176332Y-65802805D01*
X173046319Y-65790000D01*
X173046311Y-65790000D01*
X173002842Y-65785719D01*
X172959373Y-65790000D01*
X171988454Y-65790000D01*
X171940256Y-65757795D01*
X171751898Y-65679774D01*
X171551939Y-65640000D01*
X171348061Y-65640000D01*
X171148102Y-65679774D01*
X170959744Y-65757795D01*
X170790226Y-65871063D01*
X170646063Y-66015226D01*
X170532795Y-66184744D01*
X170454774Y-66373102D01*
X170415000Y-66573061D01*
X170415000Y-66776939D01*
X170454774Y-66976898D01*
X170489196Y-67060000D01*
X169530579Y-67060000D01*
X168900535Y-66429957D01*
X168889226Y-66373102D01*
X168811205Y-66184744D01*
X168697937Y-66015226D01*
X168553774Y-65871063D01*
X168384256Y-65757795D01*
X168195898Y-65679774D01*
X167995939Y-65640000D01*
X167792061Y-65640000D01*
X167592102Y-65679774D01*
X167403744Y-65757795D01*
X167234226Y-65871063D01*
X167090063Y-66015226D01*
X166976795Y-66184744D01*
X166898774Y-66373102D01*
X166859000Y-66573061D01*
X166859000Y-66776939D01*
X166898774Y-66976898D01*
X166976795Y-67165256D01*
X167090063Y-67334774D01*
X167234226Y-67478937D01*
X167403744Y-67592205D01*
X167592102Y-67670226D01*
X167648957Y-67681535D01*
X168297421Y-68330000D01*
X167244579Y-68330000D01*
X165344535Y-66429957D01*
X165333226Y-66373102D01*
X165255205Y-66184744D01*
X165141937Y-66015226D01*
X164997774Y-65871063D01*
X164828256Y-65757795D01*
X164639898Y-65679774D01*
X164439939Y-65640000D01*
X164236061Y-65640000D01*
X164036102Y-65679774D01*
X163847744Y-65757795D01*
X163678226Y-65871063D01*
X163534063Y-66015226D01*
X163420795Y-66184744D01*
X163342774Y-66373102D01*
X163303000Y-66573061D01*
X163303000Y-66776939D01*
X163342774Y-66976898D01*
X163420795Y-67165256D01*
X163534063Y-67334774D01*
X163678226Y-67478937D01*
X163847744Y-67592205D01*
X164036102Y-67670226D01*
X164092957Y-67681535D01*
X166011421Y-69600000D01*
X164958579Y-69600000D01*
X161788535Y-66429957D01*
X161777226Y-66373102D01*
X161699205Y-66184744D01*
X161585937Y-66015226D01*
X161441774Y-65871063D01*
X161272256Y-65757795D01*
X161083898Y-65679774D01*
X160883939Y-65640000D01*
X160680061Y-65640000D01*
X160480102Y-65679774D01*
X160291744Y-65757795D01*
X160122226Y-65871063D01*
X159978063Y-66015226D01*
X159864795Y-66184744D01*
X159786774Y-66373102D01*
X159747000Y-66573061D01*
X159747000Y-66776939D01*
X159786774Y-66976898D01*
X159864795Y-67165256D01*
X159978063Y-67334774D01*
X160122226Y-67478937D01*
X160291744Y-67592205D01*
X160480102Y-67670226D01*
X160536957Y-67681535D01*
X163935470Y-71080049D01*
X163963183Y-71113817D01*
X163996951Y-71141530D01*
X163996953Y-71141532D01*
X164097941Y-71224411D01*
X164251686Y-71306589D01*
X164418510Y-71357195D01*
X164548523Y-71370000D01*
X164548531Y-71370000D01*
X164592000Y-71374281D01*
X164635469Y-71370000D01*
X169854196Y-71370000D01*
X169819774Y-71453102D01*
X169780000Y-71653061D01*
X169780000Y-71856939D01*
X169819774Y-72056898D01*
X169897795Y-72245256D01*
X169930000Y-72293454D01*
X169930001Y-78836544D01*
X169897795Y-78884744D01*
X169819774Y-79073102D01*
X169780000Y-79273061D01*
X169780000Y-79476939D01*
X169819774Y-79676898D01*
X169897795Y-79865256D01*
X169930000Y-79913454D01*
X169930001Y-83570000D01*
X155306579Y-83570000D01*
X150850734Y-79114155D01*
X151570450Y-79114155D01*
X151966634Y-79634550D01*
X152681612Y-80024748D01*
X153458976Y-80267964D01*
X154268853Y-80354851D01*
X155080118Y-80282069D01*
X155861597Y-80052415D01*
X156583256Y-79674715D01*
X156643366Y-79634550D01*
X157039550Y-79114155D01*
X154305000Y-76379605D01*
X151570450Y-79114155D01*
X150850734Y-79114155D01*
X147900432Y-76163853D01*
X150150149Y-76163853D01*
X150222931Y-76975118D01*
X150452585Y-77756597D01*
X150830285Y-78478256D01*
X150870450Y-78538366D01*
X151390845Y-78934550D01*
X154125395Y-76200000D01*
X154484605Y-76200000D01*
X157219155Y-78934550D01*
X157739550Y-78538366D01*
X158129748Y-77823388D01*
X158372964Y-77046024D01*
X158459851Y-76236147D01*
X158387069Y-75424882D01*
X158157415Y-74643403D01*
X157779715Y-73921744D01*
X157739550Y-73861634D01*
X157219155Y-73465450D01*
X154484605Y-76200000D01*
X154125395Y-76200000D01*
X151390845Y-73465450D01*
X150870450Y-73861634D01*
X150480252Y-74576612D01*
X150237036Y-75353976D01*
X150150149Y-76163853D01*
X147900432Y-76163853D01*
X145436534Y-73699956D01*
X145408817Y-73666183D01*
X145274059Y-73555589D01*
X145120313Y-73473411D01*
X144953490Y-73422805D01*
X144823477Y-73410000D01*
X144823469Y-73410000D01*
X144780000Y-73405719D01*
X144736531Y-73410000D01*
X141469521Y-73410000D01*
X141449637Y-73380241D01*
X141355241Y-73285845D01*
X151570450Y-73285845D01*
X154305000Y-76020395D01*
X157039550Y-73285845D01*
X156643366Y-72765450D01*
X155928388Y-72375252D01*
X155151024Y-72132036D01*
X154341147Y-72045149D01*
X153529882Y-72117931D01*
X152748403Y-72347585D01*
X152026744Y-72725285D01*
X151966634Y-72765450D01*
X151570450Y-73285845D01*
X141355241Y-73285845D01*
X141249759Y-73180363D01*
X141014727Y-73023320D01*
X140753574Y-72915147D01*
X140476335Y-72860000D01*
X140193665Y-72860000D01*
X139916426Y-72915147D01*
X139655273Y-73023320D01*
X139420241Y-73180363D01*
X139220363Y-73380241D01*
X139063320Y-73615273D01*
X138955147Y-73876426D01*
X138907150Y-74117718D01*
X137031861Y-75993008D01*
X137031856Y-75993012D01*
X137031849Y-75993019D01*
X136988552Y-76028552D01*
X136953019Y-76071849D01*
X135419869Y-77605000D01*
X130010132Y-77605000D01*
X128796773Y-76391642D01*
X129001031Y-76142752D01*
X129152852Y-75858715D01*
X129246343Y-75550515D01*
X129270000Y-75310321D01*
X129270000Y-74549679D01*
X129500000Y-74549679D01*
X129500000Y-75310322D01*
X129523657Y-75550516D01*
X129617148Y-75858715D01*
X129768969Y-76142752D01*
X129973286Y-76391714D01*
X130222249Y-76596031D01*
X130506286Y-76747852D01*
X130814485Y-76841343D01*
X131135000Y-76872911D01*
X131455516Y-76841343D01*
X131763715Y-76747852D01*
X132047752Y-76596031D01*
X132296714Y-76391714D01*
X132501031Y-76142752D01*
X132652852Y-75858715D01*
X132746343Y-75550515D01*
X132770000Y-75310321D01*
X132770000Y-74549678D01*
X132746343Y-74309484D01*
X132652852Y-74001285D01*
X132501031Y-73717248D01*
X132296714Y-73468286D01*
X132047751Y-73263969D01*
X131763714Y-73112148D01*
X131455515Y-73018657D01*
X131135000Y-72987089D01*
X130814484Y-73018657D01*
X130506285Y-73112148D01*
X130222248Y-73263969D01*
X129973286Y-73468286D01*
X129768969Y-73717249D01*
X129617148Y-74001286D01*
X129523657Y-74309485D01*
X129500000Y-74549679D01*
X129270000Y-74549679D01*
X129270000Y-74549678D01*
X129246343Y-74309484D01*
X129152852Y-74001285D01*
X129001031Y-73717248D01*
X128796714Y-73468286D01*
X128547751Y-73263969D01*
X128263714Y-73112148D01*
X127955515Y-73018657D01*
X127635000Y-72987089D01*
X127314484Y-73018657D01*
X127006285Y-73112148D01*
X126722248Y-73263969D01*
X126473286Y-73468286D01*
X126268969Y-73717249D01*
X126117148Y-74001286D01*
X126023657Y-74309485D01*
X126000000Y-74549679D01*
X126000000Y-75310322D01*
X126023657Y-75550516D01*
X126117148Y-75858715D01*
X126268969Y-76142752D01*
X126473286Y-76391714D01*
X126500001Y-76413638D01*
X126500001Y-76779239D01*
X126494509Y-76835000D01*
X126516423Y-77057498D01*
X126581324Y-77271446D01*
X126611828Y-77328514D01*
X126686717Y-77468623D01*
X126828552Y-77641449D01*
X126871860Y-77676991D01*
X128698009Y-79503141D01*
X128733551Y-79546449D01*
X128906377Y-79688284D01*
X129103553Y-79793676D01*
X129317501Y-79858577D01*
X129423928Y-79869059D01*
X129540000Y-79880491D01*
X129595752Y-79875000D01*
X135834249Y-79875000D01*
X135890000Y-79880491D01*
X135945751Y-79875000D01*
X135945752Y-79875000D01*
X136112499Y-79858577D01*
X136326447Y-79793676D01*
X136523623Y-79688284D01*
X136696449Y-79546449D01*
X136731996Y-79503135D01*
X137795000Y-78440132D01*
X140470000Y-81115133D01*
X140470001Y-83489892D01*
X140451525Y-83508368D01*
X140335000Y-83682760D01*
X140218475Y-83508368D01*
X140011632Y-83301525D01*
X139768411Y-83139010D01*
X139498158Y-83027068D01*
X139211260Y-82970000D01*
X138918740Y-82970000D01*
X138631842Y-83027068D01*
X138361589Y-83139010D01*
X138118368Y-83301525D01*
X137911525Y-83508368D01*
X137789805Y-83690534D01*
X137720178Y-83573645D01*
X137525269Y-83357412D01*
X137291920Y-83183359D01*
X137029099Y-83058175D01*
X136881890Y-83013524D01*
X136652000Y-83134845D01*
X136652000Y-84328000D01*
X136672000Y-84328000D01*
X136672000Y-84582000D01*
X136652000Y-84582000D01*
X136652000Y-84602000D01*
X136398000Y-84602000D01*
X136398000Y-84582000D01*
X135204186Y-84582000D01*
X135083519Y-84811891D01*
X135180843Y-85086252D01*
X135329822Y-85336355D01*
X135524731Y-85552588D01*
X135754406Y-85723900D01*
X135578368Y-85841525D01*
X135371525Y-86048368D01*
X135209010Y-86291589D01*
X135097068Y-86561842D01*
X135040000Y-86848740D01*
X135040000Y-87141260D01*
X135083790Y-87361408D01*
X132838998Y-89606201D01*
X132810000Y-89629999D01*
X132786202Y-89658997D01*
X132786201Y-89658998D01*
X132715026Y-89745724D01*
X132644454Y-89877754D01*
X132617820Y-89965558D01*
X132600998Y-90021014D01*
X132599522Y-90035997D01*
X132586324Y-90170000D01*
X132590001Y-90207332D01*
X132590000Y-95816289D01*
X132546063Y-95860226D01*
X132432795Y-96029744D01*
X132354774Y-96218102D01*
X132332066Y-96332265D01*
X132205000Y-96205199D01*
X132205000Y-94683711D01*
X132248937Y-94639774D01*
X132362205Y-94470256D01*
X132440226Y-94281898D01*
X132480000Y-94081939D01*
X132480000Y-93878061D01*
X132440226Y-93678102D01*
X132362205Y-93489744D01*
X132248937Y-93320226D01*
X132104774Y-93176063D01*
X131935256Y-93062795D01*
X131746898Y-92984774D01*
X131546939Y-92945000D01*
X131343061Y-92945000D01*
X131143102Y-92984774D01*
X130954744Y-93062795D01*
X130785226Y-93176063D01*
X130641063Y-93320226D01*
X130527795Y-93489744D01*
X130449774Y-93678102D01*
X130410000Y-93878061D01*
X130410000Y-94081939D01*
X130449774Y-94281898D01*
X130527795Y-94470256D01*
X130641063Y-94639774D01*
X130685001Y-94683712D01*
X130685000Y-96482677D01*
X130681324Y-96520000D01*
X130685000Y-96557322D01*
X130685000Y-96557332D01*
X130695997Y-96668985D01*
X130727767Y-96773718D01*
X130739454Y-96812246D01*
X130810026Y-96944276D01*
X130849871Y-96992826D01*
X130904999Y-97060001D01*
X130934003Y-97083804D01*
X131640198Y-97790000D01*
X130495199Y-98935000D01*
X127068711Y-98935000D01*
X127024774Y-98891063D01*
X126855256Y-98777795D01*
X126666898Y-98699774D01*
X126466939Y-98660000D01*
X126263061Y-98660000D01*
X126063102Y-98699774D01*
X125874744Y-98777795D01*
X125705226Y-98891063D01*
X125561063Y-99035226D01*
X125447795Y-99204744D01*
X125369774Y-99393102D01*
X125330000Y-99593061D01*
X109345000Y-99593061D01*
X109345000Y-98127775D01*
X109472641Y-98213061D01*
X109715595Y-98313696D01*
X109973514Y-98365000D01*
X110236486Y-98365000D01*
X110494405Y-98313696D01*
X110737359Y-98213061D01*
X110956013Y-98066962D01*
X111141962Y-97881013D01*
X111288061Y-97662359D01*
X111388696Y-97419405D01*
X111440000Y-97161486D01*
X111440000Y-96898514D01*
X111388696Y-96640595D01*
X111288061Y-96397641D01*
X111141962Y-96178987D01*
X110956013Y-95993038D01*
X110794322Y-95885000D01*
X110956013Y-95776962D01*
X111141962Y-95591013D01*
X111288061Y-95372359D01*
X111388696Y-95129405D01*
X111440000Y-94871486D01*
X111440000Y-94608514D01*
X111388696Y-94350595D01*
X111288061Y-94107641D01*
X111141962Y-93888987D01*
X110956013Y-93703038D01*
X110737359Y-93556939D01*
X110494405Y-93456304D01*
X110236486Y-93405000D01*
X109973514Y-93405000D01*
X109715595Y-93456304D01*
X109472641Y-93556939D01*
X109345000Y-93642225D01*
X109345000Y-87967775D01*
X109472641Y-88053061D01*
X109715595Y-88153696D01*
X109973514Y-88205000D01*
X110236486Y-88205000D01*
X110494405Y-88153696D01*
X110737359Y-88053061D01*
X110956013Y-87906962D01*
X111141962Y-87721013D01*
X111288061Y-87502359D01*
X111388696Y-87259405D01*
X111440000Y-87001486D01*
X111440000Y-86738514D01*
X111388696Y-86480595D01*
X111288061Y-86237641D01*
X111141962Y-86018987D01*
X110956013Y-85833038D01*
X110794322Y-85725000D01*
X110956013Y-85616962D01*
X111141962Y-85431013D01*
X111288061Y-85212359D01*
X111388696Y-84969405D01*
X111440000Y-84711486D01*
X111440000Y-84448514D01*
X111388696Y-84190595D01*
X111350387Y-84098109D01*
X135083519Y-84098109D01*
X135204186Y-84328000D01*
X136398000Y-84328000D01*
X136398000Y-83134845D01*
X136168110Y-83013524D01*
X136020901Y-83058175D01*
X135758080Y-83183359D01*
X135524731Y-83357412D01*
X135329822Y-83573645D01*
X135180843Y-83823748D01*
X135083519Y-84098109D01*
X111350387Y-84098109D01*
X111288061Y-83947641D01*
X111141962Y-83728987D01*
X110956013Y-83543038D01*
X110737359Y-83396939D01*
X110494405Y-83296304D01*
X110236486Y-83245000D01*
X109973514Y-83245000D01*
X109715595Y-83296304D01*
X109472641Y-83396939D01*
X109253987Y-83543038D01*
X109068038Y-83728987D01*
X108921939Y-83947641D01*
X108821304Y-84190595D01*
X108770000Y-84448514D01*
X108770000Y-84711486D01*
X108821304Y-84969405D01*
X108858142Y-85058340D01*
X106598645Y-82798844D01*
X106620000Y-82691486D01*
X106620000Y-82428514D01*
X106568696Y-82170595D01*
X106468061Y-81927641D01*
X106321962Y-81708987D01*
X106136013Y-81523038D01*
X106024771Y-81448709D01*
X106026664Y-81441269D01*
X105285000Y-80699605D01*
X105270858Y-80713748D01*
X105091253Y-80534143D01*
X105105395Y-80520000D01*
X105464605Y-80520000D01*
X106206269Y-81261664D01*
X106440037Y-81202203D01*
X106550934Y-80963758D01*
X106613183Y-80708260D01*
X106624390Y-80445527D01*
X106584125Y-80185656D01*
X106493935Y-79938634D01*
X106440037Y-79837797D01*
X106206269Y-79778336D01*
X105464605Y-80520000D01*
X105105395Y-80520000D01*
X105091253Y-80505858D01*
X105270858Y-80326253D01*
X105285000Y-80340395D01*
X106026664Y-79598731D01*
X106024771Y-79591291D01*
X106136013Y-79516962D01*
X106321962Y-79331013D01*
X106468061Y-79112359D01*
X106568696Y-78869405D01*
X106620000Y-78611486D01*
X106620000Y-78348514D01*
X106568696Y-78090595D01*
X106468061Y-77847641D01*
X106321962Y-77628987D01*
X106152975Y-77460000D01*
X106321962Y-77291013D01*
X106468061Y-77072359D01*
X106568696Y-76829405D01*
X106620000Y-76571486D01*
X106620000Y-76308514D01*
X106568696Y-76050595D01*
X106468061Y-75807641D01*
X106321962Y-75588987D01*
X106136013Y-75403038D01*
X105917359Y-75256939D01*
X105674405Y-75156304D01*
X105416486Y-75105000D01*
X105153514Y-75105000D01*
X104895595Y-75156304D01*
X104652641Y-75256939D01*
X104433987Y-75403038D01*
X104248038Y-75588987D01*
X104101939Y-75807641D01*
X104001304Y-76050595D01*
X103970065Y-76207643D01*
X103894405Y-76176304D01*
X103636486Y-76125000D01*
X103373514Y-76125000D01*
X103115595Y-76176304D01*
X102872641Y-76276939D01*
X102653987Y-76423038D01*
X102468038Y-76608987D01*
X102321939Y-76827641D01*
X102221304Y-77070595D01*
X102170000Y-77328514D01*
X102170000Y-77591486D01*
X102221304Y-77849405D01*
X102321939Y-78092359D01*
X102468038Y-78311013D01*
X102653987Y-78496962D01*
X102765229Y-78571291D01*
X102763336Y-78578731D01*
X103505000Y-79320395D01*
X103519143Y-79306253D01*
X103698748Y-79485858D01*
X103684605Y-79500000D01*
X103698748Y-79514143D01*
X103519143Y-79693748D01*
X103505000Y-79679605D01*
X102763336Y-80421269D01*
X102765229Y-80428709D01*
X102653987Y-80503038D01*
X102468038Y-80688987D01*
X102321939Y-80907641D01*
X102221304Y-81150595D01*
X102170000Y-81408514D01*
X102170000Y-81671486D01*
X102221304Y-81929405D01*
X102321939Y-82172359D01*
X102468038Y-82391013D01*
X102637025Y-82560000D01*
X102468038Y-82728987D01*
X102321939Y-82947641D01*
X102221304Y-83190595D01*
X102170000Y-83448514D01*
X102170000Y-83711486D01*
X102221304Y-83969405D01*
X102321939Y-84212359D01*
X102468038Y-84431013D01*
X102653987Y-84616962D01*
X102872641Y-84763061D01*
X103115595Y-84863696D01*
X103373514Y-84915000D01*
X103636486Y-84915000D01*
X103743844Y-84893645D01*
X105258596Y-86408398D01*
X105091955Y-86324841D01*
X104724443Y-86223750D01*
X104344271Y-86196299D01*
X103966049Y-86243543D01*
X103604310Y-86363667D01*
X103357317Y-86495688D01*
X103225382Y-86790774D01*
X103190523Y-86755915D01*
X103225000Y-86582591D01*
X103225000Y-86137409D01*
X103138149Y-85700782D01*
X102967786Y-85289489D01*
X102720456Y-84919334D01*
X102405666Y-84604544D01*
X102035511Y-84357214D01*
X101624218Y-84186851D01*
X101187591Y-84100000D01*
X100742409Y-84100000D01*
X100305782Y-84186851D01*
X99894489Y-84357214D01*
X99524334Y-84604544D01*
X99209544Y-84919334D01*
X98962214Y-85289489D01*
X98791851Y-85700782D01*
X98705000Y-86137409D01*
X93903000Y-86137409D01*
X93903000Y-79574473D01*
X102165610Y-79574473D01*
X102205875Y-79834344D01*
X102296065Y-80081366D01*
X102349963Y-80182203D01*
X102583731Y-80241664D01*
X103325395Y-79500000D01*
X102583731Y-78758336D01*
X102349963Y-78817797D01*
X102239066Y-79056242D01*
X102176817Y-79311740D01*
X102165610Y-79574473D01*
X93903000Y-79574473D01*
X93903000Y-73437409D01*
X98705000Y-73437409D01*
X98705000Y-73882591D01*
X98791851Y-74319218D01*
X98962214Y-74730511D01*
X99209544Y-75100666D01*
X99524334Y-75415456D01*
X99894489Y-75662786D01*
X100305782Y-75833149D01*
X100742409Y-75920000D01*
X101187591Y-75920000D01*
X101624218Y-75833149D01*
X102035511Y-75662786D01*
X102405666Y-75415456D01*
X102720456Y-75100666D01*
X102967786Y-74730511D01*
X103138149Y-74319218D01*
X103225000Y-73882591D01*
X103225000Y-73437409D01*
X103190523Y-73264085D01*
X103225382Y-73229226D01*
X103357317Y-73524312D01*
X103698045Y-73695159D01*
X104065557Y-73796250D01*
X104445729Y-73823701D01*
X104823951Y-73776457D01*
X105185690Y-73656333D01*
X105432683Y-73524312D01*
X105564619Y-73229224D01*
X104395000Y-72059605D01*
X104380858Y-72073748D01*
X104201253Y-71894143D01*
X104215395Y-71880000D01*
X104574605Y-71880000D01*
X105744224Y-73049619D01*
X105813793Y-73018514D01*
X108770000Y-73018514D01*
X108770000Y-73281486D01*
X108821304Y-73539405D01*
X108921939Y-73782359D01*
X109068038Y-74001013D01*
X109253987Y-74186962D01*
X109415678Y-74295000D01*
X109253987Y-74403038D01*
X109068038Y-74588987D01*
X108921939Y-74807641D01*
X108821304Y-75050595D01*
X108770000Y-75308514D01*
X108770000Y-75571486D01*
X108821304Y-75829405D01*
X108921939Y-76072359D01*
X109068038Y-76291013D01*
X109253987Y-76476962D01*
X109472641Y-76623061D01*
X109715595Y-76723696D01*
X109973514Y-76775000D01*
X110236486Y-76775000D01*
X110494405Y-76723696D01*
X110737359Y-76623061D01*
X110956013Y-76476962D01*
X111141962Y-76291013D01*
X111182729Y-76230000D01*
X122496928Y-76230000D01*
X122509188Y-76354482D01*
X122545498Y-76474180D01*
X122604463Y-76584494D01*
X122683815Y-76681185D01*
X122780506Y-76760537D01*
X122890820Y-76819502D01*
X123010518Y-76855812D01*
X123135000Y-76868072D01*
X123849250Y-76865000D01*
X124008000Y-76706250D01*
X124008000Y-75057000D01*
X124262000Y-75057000D01*
X124262000Y-76706250D01*
X124420750Y-76865000D01*
X125135000Y-76868072D01*
X125259482Y-76855812D01*
X125379180Y-76819502D01*
X125489494Y-76760537D01*
X125586185Y-76681185D01*
X125665537Y-76584494D01*
X125724502Y-76474180D01*
X125760812Y-76354482D01*
X125773072Y-76230000D01*
X125770000Y-75215750D01*
X125611250Y-75057000D01*
X124262000Y-75057000D01*
X124008000Y-75057000D01*
X122658750Y-75057000D01*
X122500000Y-75215750D01*
X122496928Y-76230000D01*
X111182729Y-76230000D01*
X111288061Y-76072359D01*
X111388696Y-75829405D01*
X111440000Y-75571486D01*
X111440000Y-75308514D01*
X111388696Y-75050595D01*
X111288061Y-74807641D01*
X111141962Y-74588987D01*
X110956013Y-74403038D01*
X110794322Y-74295000D01*
X110956013Y-74186962D01*
X111141962Y-74001013D01*
X111288061Y-73782359D01*
X111351170Y-73630000D01*
X122496928Y-73630000D01*
X122500000Y-74644250D01*
X122658750Y-74803000D01*
X124008000Y-74803000D01*
X124008000Y-73153750D01*
X124262000Y-73153750D01*
X124262000Y-74803000D01*
X125611250Y-74803000D01*
X125770000Y-74644250D01*
X125773072Y-73630000D01*
X125760812Y-73505518D01*
X125724502Y-73385820D01*
X125665537Y-73275506D01*
X125586185Y-73178815D01*
X125489494Y-73099463D01*
X125379180Y-73040498D01*
X125259482Y-73004188D01*
X125135000Y-72991928D01*
X124420750Y-72995000D01*
X124262000Y-73153750D01*
X124008000Y-73153750D01*
X123849250Y-72995000D01*
X123135000Y-72991928D01*
X123010518Y-73004188D01*
X122890820Y-73040498D01*
X122780506Y-73099463D01*
X122683815Y-73178815D01*
X122604463Y-73275506D01*
X122545498Y-73385820D01*
X122509188Y-73505518D01*
X122496928Y-73630000D01*
X111351170Y-73630000D01*
X111388696Y-73539405D01*
X111440000Y-73281486D01*
X111440000Y-73018514D01*
X111388696Y-72760595D01*
X111288061Y-72517641D01*
X111141962Y-72298987D01*
X110956013Y-72113038D01*
X110737359Y-71966939D01*
X110494405Y-71866304D01*
X110236486Y-71815000D01*
X109973514Y-71815000D01*
X109715595Y-71866304D01*
X109472641Y-71966939D01*
X109253987Y-72113038D01*
X109068038Y-72298987D01*
X108921939Y-72517641D01*
X108821304Y-72760595D01*
X108770000Y-73018514D01*
X105813793Y-73018514D01*
X106039312Y-72917683D01*
X106210159Y-72576955D01*
X106311250Y-72209443D01*
X106338701Y-71829271D01*
X106291457Y-71451049D01*
X106171333Y-71089310D01*
X106039312Y-70842317D01*
X105744224Y-70710381D01*
X104574605Y-71880000D01*
X104215395Y-71880000D01*
X103045776Y-70710381D01*
X102750688Y-70842317D01*
X102579841Y-71183045D01*
X102478750Y-71550557D01*
X102451299Y-71930729D01*
X102454075Y-71952953D01*
X102405666Y-71904544D01*
X102035511Y-71657214D01*
X101624218Y-71486851D01*
X101187591Y-71400000D01*
X100742409Y-71400000D01*
X100305782Y-71486851D01*
X99894489Y-71657214D01*
X99524334Y-71904544D01*
X99209544Y-72219334D01*
X98962214Y-72589489D01*
X98791851Y-73000782D01*
X98705000Y-73437409D01*
X93903000Y-73437409D01*
X93903000Y-70530776D01*
X103225381Y-70530776D01*
X104395000Y-71700395D01*
X105564619Y-70530776D01*
X105432683Y-70235688D01*
X105091955Y-70064841D01*
X104724443Y-69963750D01*
X104344271Y-69936299D01*
X103966049Y-69983543D01*
X103604310Y-70103667D01*
X103357317Y-70235688D01*
X103225381Y-70530776D01*
X93903000Y-70530776D01*
X93903000Y-68630000D01*
X148302361Y-68630000D01*
X148336000Y-68633313D01*
X148369639Y-68630000D01*
X148369647Y-68630000D01*
X148470283Y-68620088D01*
X148599406Y-68580919D01*
X148718407Y-68517312D01*
X148822711Y-68431711D01*
X148844158Y-68405578D01*
X159541736Y-57708000D01*
X190069000Y-57708000D01*
X190069001Y-123394000D01*
G04 #@! TA.AperFunction,Conductor*
D25*
G36*
X190069001Y-123394000D02*
G01*
X159532231Y-123394000D01*
X148838970Y-113198101D01*
X148822711Y-113178289D01*
X148790266Y-113151662D01*
X148784350Y-113146021D01*
X148764264Y-113130322D01*
X148718407Y-113092688D01*
X148711147Y-113088808D01*
X148704675Y-113083749D01*
X148651753Y-113057061D01*
X148599406Y-113029081D01*
X148591534Y-113026693D01*
X148584195Y-113022992D01*
X148527055Y-113007133D01*
X148470283Y-112989912D01*
X148462099Y-112989106D01*
X148454176Y-112986907D01*
X148395047Y-112982502D01*
X148369647Y-112980000D01*
X148361468Y-112980000D01*
X148319617Y-112976882D01*
X148294182Y-112980000D01*
X93903000Y-112980000D01*
X93903000Y-111079224D01*
X103225381Y-111079224D01*
X103357317Y-111374312D01*
X103698045Y-111545159D01*
X104065557Y-111646250D01*
X104445729Y-111673701D01*
X104823951Y-111626457D01*
X105185690Y-111506333D01*
X105432683Y-111374312D01*
X105564619Y-111079224D01*
X104395000Y-109909605D01*
X103225381Y-111079224D01*
X93903000Y-111079224D01*
X93903000Y-107727409D01*
X98705000Y-107727409D01*
X98705000Y-108172591D01*
X98791851Y-108609218D01*
X98962214Y-109020511D01*
X99209544Y-109390666D01*
X99524334Y-109705456D01*
X99894489Y-109952786D01*
X100305782Y-110123149D01*
X100742409Y-110210000D01*
X101187591Y-110210000D01*
X101624218Y-110123149D01*
X102035511Y-109952786D01*
X102405666Y-109705456D01*
X102460709Y-109650413D01*
X102451299Y-109780729D01*
X102498543Y-110158951D01*
X102618667Y-110520690D01*
X102750688Y-110767683D01*
X103045776Y-110899619D01*
X104215395Y-109730000D01*
X104574605Y-109730000D01*
X105744224Y-110899619D01*
X106039312Y-110767683D01*
X106210159Y-110426955D01*
X106264567Y-110229155D01*
X121725450Y-110229155D01*
X122121634Y-110749550D01*
X122836612Y-111139748D01*
X123613976Y-111382964D01*
X124423853Y-111469851D01*
X125235118Y-111397069D01*
X126016597Y-111167415D01*
X126738256Y-110789715D01*
X126798366Y-110749550D01*
X127194550Y-110229155D01*
X124460000Y-107494605D01*
X121725450Y-110229155D01*
X106264567Y-110229155D01*
X106311250Y-110059443D01*
X106338701Y-109679271D01*
X106301478Y-109381269D01*
X109363336Y-109381269D01*
X109422797Y-109615037D01*
X109661242Y-109725934D01*
X109916740Y-109788183D01*
X110179473Y-109799390D01*
X110439344Y-109759125D01*
X110686366Y-109668935D01*
X110787203Y-109615037D01*
X110846664Y-109381269D01*
X110105000Y-108639605D01*
X109363336Y-109381269D01*
X106301478Y-109381269D01*
X106291457Y-109301049D01*
X106171333Y-108939310D01*
X106039312Y-108692317D01*
X105744224Y-108560381D01*
X104574605Y-109730000D01*
X104215395Y-109730000D01*
X104201253Y-109715858D01*
X104380858Y-109536253D01*
X104395000Y-109550395D01*
X105410922Y-108534473D01*
X108765610Y-108534473D01*
X108805875Y-108794344D01*
X108896065Y-109041366D01*
X108949963Y-109142203D01*
X109183731Y-109201664D01*
X109925395Y-108460000D01*
X110284605Y-108460000D01*
X111026269Y-109201664D01*
X111260037Y-109142203D01*
X111370934Y-108903758D01*
X111433183Y-108648260D01*
X111444390Y-108385527D01*
X111404125Y-108125656D01*
X111313935Y-107878634D01*
X111260037Y-107777797D01*
X111026269Y-107718336D01*
X110284605Y-108460000D01*
X109925395Y-108460000D01*
X109183731Y-107718336D01*
X108949963Y-107777797D01*
X108839066Y-108016242D01*
X108776817Y-108271740D01*
X108765610Y-108534473D01*
X105410922Y-108534473D01*
X105564619Y-108380776D01*
X105432683Y-108085688D01*
X105091955Y-107914841D01*
X104724443Y-107813750D01*
X104344271Y-107786299D01*
X103966049Y-107833543D01*
X103604310Y-107953667D01*
X103357317Y-108085688D01*
X103225382Y-108380774D01*
X103190523Y-108345915D01*
X103225000Y-108172591D01*
X103225000Y-107727409D01*
X103138149Y-107290782D01*
X102967786Y-106879489D01*
X102720456Y-106509334D01*
X102405666Y-106194544D01*
X102035511Y-105947214D01*
X101624218Y-105776851D01*
X101187591Y-105690000D01*
X100742409Y-105690000D01*
X100305782Y-105776851D01*
X99894489Y-105947214D01*
X99524334Y-106194544D01*
X99209544Y-106509334D01*
X98962214Y-106879489D01*
X98791851Y-107290782D01*
X98705000Y-107727409D01*
X93903000Y-107727409D01*
X93903000Y-103204473D01*
X102165610Y-103204473D01*
X102205875Y-103464344D01*
X102296065Y-103711366D01*
X102349963Y-103812203D01*
X102583731Y-103871664D01*
X103325395Y-103130000D01*
X102583731Y-102388336D01*
X102349963Y-102447797D01*
X102239066Y-102686242D01*
X102176817Y-102941740D01*
X102165610Y-103204473D01*
X93903000Y-103204473D01*
X93903000Y-101164473D01*
X102165610Y-101164473D01*
X102205875Y-101424344D01*
X102296065Y-101671366D01*
X102349963Y-101772203D01*
X102583731Y-101831664D01*
X103325395Y-101090000D01*
X102583731Y-100348336D01*
X102349963Y-100407797D01*
X102239066Y-100646242D01*
X102176817Y-100901740D01*
X102165610Y-101164473D01*
X93903000Y-101164473D01*
X93903000Y-95027409D01*
X98705000Y-95027409D01*
X98705000Y-95472591D01*
X98791851Y-95909218D01*
X98962214Y-96320511D01*
X99209544Y-96690666D01*
X99524334Y-97005456D01*
X99894489Y-97252786D01*
X100305782Y-97423149D01*
X100742409Y-97510000D01*
X101187591Y-97510000D01*
X101624218Y-97423149D01*
X102035511Y-97252786D01*
X102405666Y-97005456D01*
X102720456Y-96690666D01*
X102967786Y-96320511D01*
X103138149Y-95909218D01*
X103225000Y-95472591D01*
X103225000Y-95027409D01*
X103190523Y-94854085D01*
X103225382Y-94819226D01*
X103357317Y-95114312D01*
X103698045Y-95285159D01*
X104065557Y-95386250D01*
X104445729Y-95413701D01*
X104823951Y-95366457D01*
X105185690Y-95246333D01*
X105432683Y-95114312D01*
X105564619Y-94819224D01*
X104395000Y-93649605D01*
X104380858Y-93663748D01*
X104201253Y-93484143D01*
X104215395Y-93470000D01*
X104574605Y-93470000D01*
X105744224Y-94639619D01*
X106039312Y-94507683D01*
X106210159Y-94166955D01*
X106311250Y-93799443D01*
X106338701Y-93419271D01*
X106291457Y-93041049D01*
X106171333Y-92679310D01*
X106039312Y-92432317D01*
X105744224Y-92300381D01*
X104574605Y-93470000D01*
X104215395Y-93470000D01*
X103045776Y-92300381D01*
X102750688Y-92432317D01*
X102579841Y-92773045D01*
X102478750Y-93140557D01*
X102451299Y-93520729D01*
X102454075Y-93542953D01*
X102405666Y-93494544D01*
X102035511Y-93247214D01*
X101624218Y-93076851D01*
X101187591Y-92990000D01*
X100742409Y-92990000D01*
X100305782Y-93076851D01*
X99894489Y-93247214D01*
X99524334Y-93494544D01*
X99209544Y-93809334D01*
X98962214Y-94179489D01*
X98791851Y-94590782D01*
X98705000Y-95027409D01*
X93903000Y-95027409D01*
X93903000Y-92120776D01*
X103225381Y-92120776D01*
X104395000Y-93290395D01*
X105564619Y-92120776D01*
X105432683Y-91825688D01*
X105091955Y-91654841D01*
X104724443Y-91553750D01*
X104344271Y-91526299D01*
X103966049Y-91573543D01*
X103604310Y-91693667D01*
X103357317Y-91825688D01*
X103225381Y-92120776D01*
X93903000Y-92120776D01*
X93903000Y-89489224D01*
X103225381Y-89489224D01*
X103357317Y-89784312D01*
X103698045Y-89955159D01*
X104065557Y-90056250D01*
X104445729Y-90083701D01*
X104823951Y-90036457D01*
X105185690Y-89916333D01*
X105432683Y-89784312D01*
X105564619Y-89489224D01*
X104395000Y-88319605D01*
X103225381Y-89489224D01*
X93903000Y-89489224D01*
X93903000Y-86137409D01*
X98705000Y-86137409D01*
X98705000Y-86582591D01*
X98791851Y-87019218D01*
X98962214Y-87430511D01*
X99209544Y-87800666D01*
X99524334Y-88115456D01*
X99894489Y-88362786D01*
X100305782Y-88533149D01*
X100742409Y-88620000D01*
X101187591Y-88620000D01*
X101624218Y-88533149D01*
X102035511Y-88362786D01*
X102405666Y-88115456D01*
X102460709Y-88060413D01*
X102451299Y-88190729D01*
X102498543Y-88568951D01*
X102618667Y-88930690D01*
X102750688Y-89177683D01*
X103045776Y-89309619D01*
X104215395Y-88140000D01*
X104201253Y-88125858D01*
X104380858Y-87946253D01*
X104395000Y-87960395D01*
X104409143Y-87946253D01*
X104588748Y-88125858D01*
X104574605Y-88140000D01*
X105744224Y-89309619D01*
X106039312Y-89177683D01*
X106210159Y-88836955D01*
X106311250Y-88469443D01*
X106338701Y-88089271D01*
X106291457Y-87711049D01*
X106171333Y-87349310D01*
X106138980Y-87288781D01*
X106872504Y-88022306D01*
X106872503Y-103753786D01*
X106828566Y-103797723D01*
X106715298Y-103967241D01*
X106637277Y-104155599D01*
X106620000Y-104242457D01*
X106620000Y-104018514D01*
X106568696Y-103760595D01*
X106468061Y-103517641D01*
X106321962Y-103298987D01*
X106136013Y-103113038D01*
X106024771Y-103038709D01*
X106026664Y-103031269D01*
X105285000Y-102289605D01*
X105270858Y-102303748D01*
X105091253Y-102124143D01*
X105105395Y-102110000D01*
X105464605Y-102110000D01*
X106206269Y-102851664D01*
X106440037Y-102792203D01*
X106550934Y-102553758D01*
X106613183Y-102298260D01*
X106624390Y-102035527D01*
X106584125Y-101775656D01*
X106493935Y-101528634D01*
X106440037Y-101427797D01*
X106206269Y-101368336D01*
X105464605Y-102110000D01*
X105105395Y-102110000D01*
X105091253Y-102095858D01*
X105270858Y-101916253D01*
X105285000Y-101930395D01*
X106026664Y-101188731D01*
X106024771Y-101181291D01*
X106136013Y-101106962D01*
X106321962Y-100921013D01*
X106468061Y-100702359D01*
X106568696Y-100459405D01*
X106620000Y-100201486D01*
X106620000Y-99938514D01*
X106568696Y-99680595D01*
X106468061Y-99437641D01*
X106321962Y-99218987D01*
X106152975Y-99050000D01*
X106321962Y-98881013D01*
X106468061Y-98662359D01*
X106568696Y-98419405D01*
X106620000Y-98161486D01*
X106620000Y-97898514D01*
X106568696Y-97640595D01*
X106468061Y-97397641D01*
X106321962Y-97178987D01*
X106136013Y-96993038D01*
X105917359Y-96846939D01*
X105674405Y-96746304D01*
X105416486Y-96695000D01*
X105153514Y-96695000D01*
X104895595Y-96746304D01*
X104652641Y-96846939D01*
X104433987Y-96993038D01*
X104248038Y-97178987D01*
X104101939Y-97397641D01*
X104001304Y-97640595D01*
X103970065Y-97797643D01*
X103894405Y-97766304D01*
X103636486Y-97715000D01*
X103373514Y-97715000D01*
X103115595Y-97766304D01*
X102872641Y-97866939D01*
X102653987Y-98013038D01*
X102468038Y-98198987D01*
X102321939Y-98417641D01*
X102221304Y-98660595D01*
X102170000Y-98918514D01*
X102170000Y-99181486D01*
X102221304Y-99439405D01*
X102321939Y-99682359D01*
X102468038Y-99901013D01*
X102653987Y-100086962D01*
X102765229Y-100161291D01*
X102763336Y-100168731D01*
X103505000Y-100910395D01*
X103519143Y-100896253D01*
X103698748Y-101075858D01*
X103684605Y-101090000D01*
X103698748Y-101104143D01*
X103519143Y-101283748D01*
X103505000Y-101269605D01*
X102763336Y-102011269D01*
X102788449Y-102110000D01*
X102763336Y-102208731D01*
X103505000Y-102950395D01*
X103519143Y-102936253D01*
X103698748Y-103115858D01*
X103684605Y-103130000D01*
X103698748Y-103144143D01*
X103519143Y-103323748D01*
X103505000Y-103309605D01*
X102763336Y-104051269D01*
X102765229Y-104058709D01*
X102653987Y-104133038D01*
X102468038Y-104318987D01*
X102321939Y-104537641D01*
X102221304Y-104780595D01*
X102170000Y-105038514D01*
X102170000Y-105301486D01*
X102221304Y-105559405D01*
X102321939Y-105802359D01*
X102468038Y-106021013D01*
X102653987Y-106206962D01*
X102872641Y-106353061D01*
X103115595Y-106453696D01*
X103373514Y-106505000D01*
X103636486Y-106505000D01*
X103894405Y-106453696D01*
X104137359Y-106353061D01*
X104356013Y-106206962D01*
X104524461Y-106038514D01*
X108770000Y-106038514D01*
X108770000Y-106301486D01*
X108821304Y-106559405D01*
X108921939Y-106802359D01*
X109068038Y-107021013D01*
X109253987Y-107206962D01*
X109419581Y-107317608D01*
X109363336Y-107538731D01*
X110105000Y-108280395D01*
X110846664Y-107538731D01*
X110790419Y-107317608D01*
X110848420Y-107278853D01*
X120305149Y-107278853D01*
X120377931Y-108090118D01*
X120607585Y-108871597D01*
X120985285Y-109593256D01*
X121025450Y-109653366D01*
X121545845Y-110049550D01*
X124280395Y-107315000D01*
X124639605Y-107315000D01*
X127374155Y-110049550D01*
X127894550Y-109653366D01*
X128284748Y-108938388D01*
X128527964Y-108161024D01*
X128614851Y-107351147D01*
X128542402Y-106543589D01*
X137045000Y-106543589D01*
X137045000Y-106816411D01*
X137098225Y-107083989D01*
X137202629Y-107336043D01*
X137354201Y-107562886D01*
X137547114Y-107755799D01*
X137773957Y-107907371D01*
X138026011Y-108011775D01*
X138293589Y-108065000D01*
X138566411Y-108065000D01*
X138833989Y-108011775D01*
X139086043Y-107907371D01*
X139312886Y-107755799D01*
X139505799Y-107562886D01*
X139657371Y-107336043D01*
X139761775Y-107083989D01*
X139815000Y-106816411D01*
X139815000Y-106543589D01*
X141925000Y-106543589D01*
X141925000Y-106816411D01*
X141978225Y-107083989D01*
X142082629Y-107336043D01*
X142234201Y-107562886D01*
X142427114Y-107755799D01*
X142653957Y-107907371D01*
X142906011Y-108011775D01*
X143173589Y-108065000D01*
X143446411Y-108065000D01*
X143713989Y-108011775D01*
X143966043Y-107907371D01*
X144192886Y-107755799D01*
X144385799Y-107562886D01*
X144537371Y-107336043D01*
X144641775Y-107083989D01*
X144695000Y-106816411D01*
X144695000Y-106543589D01*
X144641775Y-106276011D01*
X144537371Y-106023957D01*
X144385799Y-105797114D01*
X144192886Y-105604201D01*
X143966043Y-105452629D01*
X143713989Y-105348225D01*
X143446411Y-105295000D01*
X143173589Y-105295000D01*
X142906011Y-105348225D01*
X142653957Y-105452629D01*
X142427114Y-105604201D01*
X142234201Y-105797114D01*
X142082629Y-106023957D01*
X141978225Y-106276011D01*
X141925000Y-106543589D01*
X139815000Y-106543589D01*
X139761775Y-106276011D01*
X139657371Y-106023957D01*
X139505799Y-105797114D01*
X139312886Y-105604201D01*
X139086043Y-105452629D01*
X138833989Y-105348225D01*
X138566411Y-105295000D01*
X138293589Y-105295000D01*
X138026011Y-105348225D01*
X137773957Y-105452629D01*
X137547114Y-105604201D01*
X137354201Y-105797114D01*
X137202629Y-106023957D01*
X137098225Y-106276011D01*
X137045000Y-106543589D01*
X128542402Y-106543589D01*
X128542069Y-106539882D01*
X128312415Y-105758403D01*
X127934715Y-105036744D01*
X127894550Y-104976634D01*
X127374155Y-104580450D01*
X124639605Y-107315000D01*
X124280395Y-107315000D01*
X121545845Y-104580450D01*
X121025450Y-104976634D01*
X120635252Y-105691612D01*
X120392036Y-106468976D01*
X120305149Y-107278853D01*
X110848420Y-107278853D01*
X110956013Y-107206962D01*
X111141962Y-107021013D01*
X111288061Y-106802359D01*
X111388696Y-106559405D01*
X111440000Y-106301486D01*
X111440000Y-106038514D01*
X111388696Y-105780595D01*
X111288061Y-105537641D01*
X111141962Y-105318987D01*
X110956013Y-105133038D01*
X110737359Y-104986939D01*
X110494405Y-104886304D01*
X110236486Y-104835000D01*
X109973514Y-104835000D01*
X109715595Y-104886304D01*
X109472641Y-104986939D01*
X109253987Y-105133038D01*
X109068038Y-105318987D01*
X108921939Y-105537641D01*
X108821304Y-105780595D01*
X108770000Y-106038514D01*
X104524461Y-106038514D01*
X104541962Y-106021013D01*
X104688061Y-105802359D01*
X104788696Y-105559405D01*
X104819935Y-105402357D01*
X104895595Y-105433696D01*
X105153514Y-105485000D01*
X105416486Y-105485000D01*
X105674405Y-105433696D01*
X105917359Y-105333061D01*
X106136013Y-105186962D01*
X106321962Y-105001013D01*
X106468061Y-104782359D01*
X106568696Y-104539405D01*
X106597503Y-104394584D01*
X106597503Y-104559436D01*
X106637277Y-104759395D01*
X106715298Y-104947753D01*
X106828566Y-105117271D01*
X106972729Y-105261434D01*
X107142247Y-105374702D01*
X107330605Y-105452723D01*
X107530564Y-105492497D01*
X107734442Y-105492497D01*
X107934401Y-105452723D01*
X108122759Y-105374702D01*
X108292277Y-105261434D01*
X108436440Y-105117271D01*
X108549708Y-104947753D01*
X108627729Y-104759395D01*
X108667503Y-104559436D01*
X108667503Y-104400845D01*
X121725450Y-104400845D01*
X124460000Y-107135395D01*
X127194550Y-104400845D01*
X126798366Y-103880450D01*
X126083388Y-103490252D01*
X125306024Y-103247036D01*
X124496147Y-103160149D01*
X123684882Y-103232931D01*
X122903403Y-103462585D01*
X122181744Y-103840285D01*
X122121634Y-103880450D01*
X121725450Y-104400845D01*
X108667503Y-104400845D01*
X108667503Y-104355558D01*
X108627729Y-104155599D01*
X108549708Y-103967241D01*
X108436440Y-103797723D01*
X108392503Y-103753786D01*
X108392503Y-103251987D01*
X108483061Y-103270000D01*
X108686939Y-103270000D01*
X108886898Y-103230226D01*
X109075256Y-103152205D01*
X109244774Y-103038937D01*
X109388937Y-102894774D01*
X109502205Y-102725256D01*
X109580226Y-102536898D01*
X109620000Y-102336939D01*
X109620000Y-102133061D01*
X109580226Y-101933102D01*
X109502205Y-101744744D01*
X109388937Y-101575226D01*
X109345000Y-101531289D01*
X109345000Y-99593061D01*
X125330000Y-99593061D01*
X125330000Y-99796939D01*
X125369774Y-99996898D01*
X125447795Y-100185256D01*
X125561063Y-100354774D01*
X125705226Y-100498937D01*
X125874744Y-100612205D01*
X126063102Y-100690226D01*
X126263061Y-100730000D01*
X126466939Y-100730000D01*
X126666898Y-100690226D01*
X126855256Y-100612205D01*
X127024774Y-100498937D01*
X127068711Y-100455000D01*
X130772678Y-100455000D01*
X130810000Y-100458676D01*
X130847322Y-100455000D01*
X130847333Y-100455000D01*
X130958986Y-100444003D01*
X131102247Y-100400546D01*
X131234276Y-100329974D01*
X131350001Y-100235001D01*
X131373804Y-100205997D01*
X133029802Y-98550000D01*
X135217678Y-98550000D01*
X135255000Y-98553676D01*
X135292322Y-98550000D01*
X135292333Y-98550000D01*
X135403986Y-98539003D01*
X135547247Y-98495546D01*
X135679276Y-98424974D01*
X135795001Y-98330001D01*
X135818804Y-98300997D01*
X138979803Y-95139999D01*
X139050002Y-95139999D01*
X139050002Y-95441523D01*
X139045720Y-95485001D01*
X139062806Y-95658491D01*
X139113413Y-95825314D01*
X139195591Y-95979060D01*
X139278469Y-96080047D01*
X139278472Y-96080050D01*
X139306185Y-96113818D01*
X139339952Y-96141530D01*
X139645968Y-96447546D01*
X139657277Y-96504401D01*
X139735298Y-96692759D01*
X139848566Y-96862277D01*
X139992729Y-97006440D01*
X140162247Y-97119708D01*
X140350605Y-97197729D01*
X140550564Y-97237503D01*
X140754442Y-97237503D01*
X140954401Y-97197729D01*
X141142759Y-97119708D01*
X141312277Y-97006440D01*
X141456440Y-96862277D01*
X141569708Y-96692759D01*
X141647729Y-96504401D01*
X141687503Y-96304442D01*
X141687503Y-96100564D01*
X141647729Y-95900605D01*
X141569708Y-95712247D01*
X141456440Y-95542729D01*
X141312277Y-95398566D01*
X141142759Y-95285298D01*
X140954401Y-95207277D01*
X140897546Y-95195968D01*
X140841577Y-95139999D01*
X141055198Y-95139999D01*
X142115001Y-96199803D01*
X142115000Y-97752677D01*
X142111324Y-97790000D01*
X142115000Y-97827322D01*
X142115000Y-97827332D01*
X142125997Y-97938985D01*
X142152089Y-98025000D01*
X142169454Y-98082246D01*
X142240026Y-98214276D01*
X142274220Y-98255941D01*
X142334999Y-98330001D01*
X142364003Y-98353804D01*
X148190000Y-104179802D01*
X148190000Y-104241939D01*
X148229774Y-104441898D01*
X148307795Y-104630256D01*
X148421063Y-104799774D01*
X148565226Y-104943937D01*
X148734744Y-105057205D01*
X148923102Y-105135226D01*
X149123061Y-105175000D01*
X149326939Y-105175000D01*
X149526898Y-105135226D01*
X149715256Y-105057205D01*
X149884774Y-104943937D01*
X150028937Y-104799774D01*
X150142205Y-104630256D01*
X150220226Y-104441898D01*
X150260000Y-104241939D01*
X150260000Y-104038061D01*
X150220226Y-103838102D01*
X150142205Y-103649744D01*
X150028937Y-103480226D01*
X149884774Y-103336063D01*
X149715256Y-103222795D01*
X149526898Y-103144774D01*
X149326939Y-103105000D01*
X149264802Y-103105000D01*
X143635000Y-97475199D01*
X143635000Y-95922323D01*
X143638676Y-95885000D01*
X143635000Y-95847677D01*
X143635000Y-95847667D01*
X143624003Y-95736014D01*
X143580546Y-95592753D01*
X143509974Y-95460724D01*
X143415001Y-95344999D01*
X143386003Y-95321201D01*
X142577863Y-94513061D01*
X146920000Y-94513061D01*
X146920000Y-94716939D01*
X146959774Y-94916898D01*
X147037795Y-95105256D01*
X147151063Y-95274774D01*
X147195001Y-95318712D01*
X147195000Y-97192332D01*
X147195001Y-97192342D01*
X147195000Y-98356289D01*
X147151063Y-98400226D01*
X147037795Y-98569744D01*
X146959774Y-98758102D01*
X146920000Y-98958061D01*
X146920000Y-99161939D01*
X146959774Y-99361898D01*
X147037795Y-99550256D01*
X147151063Y-99719774D01*
X147295226Y-99863937D01*
X147464744Y-99977205D01*
X147653102Y-100055226D01*
X147853061Y-100095000D01*
X148056939Y-100095000D01*
X148256898Y-100055226D01*
X148445256Y-99977205D01*
X148614774Y-99863937D01*
X148758937Y-99719774D01*
X148872205Y-99550256D01*
X148950226Y-99361898D01*
X148990000Y-99161939D01*
X148990000Y-98958061D01*
X148950226Y-98758102D01*
X148872205Y-98569744D01*
X148758937Y-98400226D01*
X148715000Y-98356289D01*
X148715000Y-95318711D01*
X148758937Y-95274774D01*
X148872205Y-95105256D01*
X148950226Y-94916898D01*
X148990000Y-94716939D01*
X148990000Y-94513061D01*
X148950226Y-94313102D01*
X148872205Y-94124744D01*
X148758937Y-93955226D01*
X148614774Y-93811063D01*
X148445256Y-93697795D01*
X148256898Y-93619774D01*
X148056939Y-93580000D01*
X147853061Y-93580000D01*
X147653102Y-93619774D01*
X147464744Y-93697795D01*
X147295226Y-93811063D01*
X147151063Y-93955226D01*
X147037795Y-94124744D01*
X146959774Y-94313102D01*
X146920000Y-94513061D01*
X142577863Y-94513061D01*
X141933803Y-93869002D01*
X141910000Y-93839998D01*
X141794275Y-93745025D01*
X141662246Y-93674453D01*
X141518985Y-93630996D01*
X141407332Y-93619999D01*
X141407321Y-93619999D01*
X141369999Y-93616323D01*
X141332677Y-93619999D01*
X140820001Y-93619999D01*
X140820001Y-93159077D01*
X142676231Y-91302848D01*
X142771063Y-91444774D01*
X142915226Y-91588937D01*
X143084744Y-91702205D01*
X143273102Y-91780226D01*
X143473061Y-91820000D01*
X143676939Y-91820000D01*
X143876898Y-91780226D01*
X144065256Y-91702205D01*
X144234774Y-91588937D01*
X144278711Y-91545000D01*
X149207678Y-91545000D01*
X149245000Y-91548676D01*
X149282322Y-91545000D01*
X149282333Y-91545000D01*
X149393986Y-91534003D01*
X149537247Y-91490546D01*
X149669276Y-91419974D01*
X149785001Y-91325001D01*
X149808803Y-91295998D01*
X149860000Y-91244801D01*
X154180000Y-95564802D01*
X154180001Y-101531472D01*
X154136063Y-101575410D01*
X154022795Y-101744928D01*
X153944774Y-101933286D01*
X153905000Y-102133245D01*
X153905000Y-102337123D01*
X153944774Y-102537082D01*
X154022795Y-102725440D01*
X154136063Y-102894958D01*
X154280226Y-103039121D01*
X154449744Y-103152389D01*
X154638102Y-103230410D01*
X154838061Y-103270184D01*
X155041939Y-103270184D01*
X155241898Y-103230410D01*
X155430256Y-103152389D01*
X155599774Y-103039121D01*
X155743937Y-102894958D01*
X155857205Y-102725440D01*
X155935226Y-102537082D01*
X155975000Y-102337123D01*
X155975000Y-102133245D01*
X155935226Y-101933286D01*
X155857205Y-101744928D01*
X155743937Y-101575410D01*
X155700000Y-101531473D01*
X155700000Y-95287323D01*
X155703676Y-95250000D01*
X155700000Y-95212677D01*
X155700000Y-95212667D01*
X155689003Y-95101014D01*
X155645546Y-94957753D01*
X155613182Y-94897205D01*
X155574974Y-94825723D01*
X155503799Y-94738997D01*
X155480001Y-94709999D01*
X155451004Y-94686202D01*
X150423804Y-89659003D01*
X150423799Y-89658997D01*
X150423789Y-89658987D01*
X150400000Y-89630000D01*
X150371013Y-89606211D01*
X149625000Y-88860199D01*
X149625000Y-88798061D01*
X149585226Y-88598102D01*
X149507205Y-88409744D01*
X149393937Y-88240226D01*
X149249774Y-88096063D01*
X149080256Y-87982795D01*
X148891898Y-87904774D01*
X148691939Y-87865000D01*
X148488061Y-87865000D01*
X148288102Y-87904774D01*
X148099744Y-87982795D01*
X147930226Y-88096063D01*
X147786063Y-88240226D01*
X147672795Y-88409744D01*
X147594774Y-88598102D01*
X147555000Y-88798061D01*
X147555000Y-89001939D01*
X147594774Y-89201898D01*
X147672795Y-89390256D01*
X147786063Y-89559774D01*
X147930226Y-89703937D01*
X148099744Y-89817205D01*
X148288102Y-89895226D01*
X148488061Y-89935000D01*
X148550199Y-89935000D01*
X148640199Y-90025000D01*
X144278711Y-90025000D01*
X144234774Y-89981063D01*
X144065256Y-89867795D01*
X144050855Y-89861830D01*
X144077589Y-89811813D01*
X144128195Y-89644990D01*
X144141000Y-89514977D01*
X144141000Y-89514969D01*
X144145281Y-89471500D01*
X144141000Y-89428031D01*
X144141000Y-86149469D01*
X144145281Y-86106000D01*
X144141000Y-86062531D01*
X144141000Y-86062523D01*
X144128195Y-85932510D01*
X144117264Y-85896476D01*
X144077589Y-85765686D01*
X143995411Y-85611941D01*
X143912532Y-85510953D01*
X143912530Y-85510951D01*
X143884817Y-85477183D01*
X143851049Y-85449470D01*
X143075539Y-84673960D01*
X143090000Y-84601260D01*
X143090000Y-84308740D01*
X143032932Y-84021842D01*
X142920990Y-83751589D01*
X142758475Y-83508368D01*
X142740000Y-83489893D01*
X142740000Y-80700752D01*
X142745491Y-80645000D01*
X142723577Y-80422501D01*
X142658676Y-80208553D01*
X142553284Y-80011377D01*
X142446989Y-79881856D01*
X142446987Y-79881854D01*
X142411449Y-79838551D01*
X142368146Y-79803013D01*
X139685135Y-77120003D01*
X141411086Y-77120003D01*
X141506270Y-77386165D01*
X141651551Y-77628644D01*
X141841346Y-77838121D01*
X142068361Y-78006545D01*
X142323872Y-78127445D01*
X142459745Y-78168662D01*
X142682874Y-78046767D01*
X142682874Y-76896874D01*
X142936874Y-76896874D01*
X142936874Y-78046767D01*
X143160003Y-78168662D01*
X143426165Y-78073478D01*
X143668644Y-77928197D01*
X143878121Y-77738402D01*
X144046545Y-77511387D01*
X144167445Y-77255876D01*
X144208662Y-77120003D01*
X144086767Y-76896874D01*
X142936874Y-76896874D01*
X142682874Y-76896874D01*
X141532981Y-76896874D01*
X141411086Y-77120003D01*
X139685135Y-77120003D01*
X139400131Y-76835000D01*
X139815386Y-76419745D01*
X141411086Y-76419745D01*
X141532981Y-76642874D01*
X142682874Y-76642874D01*
X142682874Y-75492981D01*
X142936874Y-75492981D01*
X142936874Y-76642874D01*
X144086767Y-76642874D01*
X144208662Y-76419745D01*
X144113478Y-76153583D01*
X143968197Y-75911104D01*
X143778402Y-75701627D01*
X143551387Y-75533203D01*
X143295876Y-75412303D01*
X143160003Y-75371086D01*
X142936874Y-75492981D01*
X142682874Y-75492981D01*
X142459745Y-75371086D01*
X142193583Y-75466270D01*
X141951104Y-75611551D01*
X141741627Y-75801346D01*
X141573203Y-76028361D01*
X141452303Y-76283872D01*
X141411086Y-76419745D01*
X139815386Y-76419745D01*
X140512282Y-75722850D01*
X140753574Y-75674853D01*
X141014727Y-75566680D01*
X141249759Y-75409637D01*
X141449637Y-75209759D01*
X141469521Y-75180000D01*
X144413422Y-75180000D01*
X154283470Y-85050049D01*
X154311183Y-85083817D01*
X154344951Y-85111530D01*
X154344953Y-85111532D01*
X154402075Y-85158411D01*
X154445941Y-85194411D01*
X154599687Y-85276589D01*
X154766510Y-85327195D01*
X154896523Y-85340000D01*
X154896531Y-85340000D01*
X154940000Y-85344281D01*
X154983469Y-85340000D01*
X169930000Y-85340000D01*
X169930001Y-86456545D01*
X169897795Y-86504744D01*
X169819774Y-86693102D01*
X169780000Y-86893061D01*
X169780000Y-87096939D01*
X169819774Y-87296898D01*
X169897795Y-87485256D01*
X169930000Y-87533454D01*
X169930001Y-94076544D01*
X169897795Y-94124744D01*
X169819774Y-94313102D01*
X169780000Y-94513061D01*
X169780000Y-94716939D01*
X169819774Y-94916898D01*
X169897795Y-95105256D01*
X169930001Y-95153456D01*
X169930000Y-101696546D01*
X169897795Y-101744744D01*
X169819774Y-101933102D01*
X169780000Y-102133061D01*
X169780000Y-102336939D01*
X169819774Y-102536898D01*
X169897795Y-102725256D01*
X169930000Y-102773455D01*
X169930001Y-105760544D01*
X169897795Y-105808744D01*
X169819774Y-105997102D01*
X169780000Y-106197061D01*
X169780000Y-106264001D01*
X167595464Y-106264001D01*
X167551998Y-106259720D01*
X167508532Y-106264001D01*
X167508522Y-106264001D01*
X167378509Y-106276806D01*
X167211686Y-106327412D01*
X167057940Y-106409590D01*
X167057938Y-106409591D01*
X167057939Y-106409591D01*
X166956952Y-106492469D01*
X166956950Y-106492471D01*
X166923182Y-106520184D01*
X166895469Y-106553952D01*
X160536957Y-112912465D01*
X160480102Y-112923774D01*
X160291744Y-113001795D01*
X160122226Y-113115063D01*
X159978063Y-113259226D01*
X159864795Y-113428744D01*
X159786774Y-113617102D01*
X159747000Y-113817061D01*
X159747000Y-114020939D01*
X159786774Y-114220898D01*
X159864795Y-114409256D01*
X159978063Y-114578774D01*
X160122226Y-114722937D01*
X160291744Y-114836205D01*
X160480102Y-114914226D01*
X160680061Y-114954000D01*
X160883939Y-114954000D01*
X161083898Y-114914226D01*
X161272256Y-114836205D01*
X161441774Y-114722937D01*
X161585937Y-114578774D01*
X161699205Y-114409256D01*
X161777226Y-114220898D01*
X161788535Y-114164043D01*
X167918578Y-108034001D01*
X171511421Y-108034001D01*
X168543422Y-111002000D01*
X166921465Y-111002000D01*
X166877999Y-110997719D01*
X166834533Y-111002000D01*
X166834523Y-111002000D01*
X166704510Y-111014805D01*
X166537687Y-111065411D01*
X166383941Y-111147589D01*
X166383939Y-111147590D01*
X166383940Y-111147590D01*
X166282953Y-111230468D01*
X166282951Y-111230470D01*
X166249183Y-111258183D01*
X166221470Y-111291951D01*
X164092957Y-113420465D01*
X164036102Y-113431774D01*
X163847744Y-113509795D01*
X163678226Y-113623063D01*
X163534063Y-113767226D01*
X163420795Y-113936744D01*
X163342774Y-114125102D01*
X163303000Y-114325061D01*
X163303000Y-114528939D01*
X163342774Y-114728898D01*
X163420795Y-114917256D01*
X163534063Y-115086774D01*
X163678226Y-115230937D01*
X163847744Y-115344205D01*
X164036102Y-115422226D01*
X164236061Y-115462000D01*
X164439939Y-115462000D01*
X164639898Y-115422226D01*
X164828256Y-115344205D01*
X164997774Y-115230937D01*
X165141937Y-115086774D01*
X165255205Y-114917256D01*
X165333226Y-114728898D01*
X165344535Y-114672043D01*
X167244579Y-112772000D01*
X168297422Y-112772000D01*
X167648957Y-113420465D01*
X167592102Y-113431774D01*
X167403744Y-113509795D01*
X167234226Y-113623063D01*
X167090063Y-113767226D01*
X166976795Y-113936744D01*
X166898774Y-114125102D01*
X166859000Y-114325061D01*
X166859000Y-114528939D01*
X166898774Y-114728898D01*
X166976795Y-114917256D01*
X167090063Y-115086774D01*
X167234226Y-115230937D01*
X167403744Y-115344205D01*
X167592102Y-115422226D01*
X167792061Y-115462000D01*
X167995939Y-115462000D01*
X168195898Y-115422226D01*
X168384256Y-115344205D01*
X168553774Y-115230937D01*
X168697937Y-115086774D01*
X168811205Y-114917256D01*
X168889226Y-114728898D01*
X168900535Y-114672043D01*
X169247517Y-114325061D01*
X170415000Y-114325061D01*
X170415000Y-114528939D01*
X170454774Y-114728898D01*
X170532795Y-114917256D01*
X170646063Y-115086774D01*
X170790226Y-115230937D01*
X170959744Y-115344205D01*
X171148102Y-115422226D01*
X171348061Y-115462000D01*
X171551939Y-115462000D01*
X171751898Y-115422226D01*
X171940256Y-115344205D01*
X172109774Y-115230937D01*
X172253937Y-115086774D01*
X172367205Y-114917256D01*
X172445226Y-114728898D01*
X172456535Y-114672043D01*
X172803517Y-114325061D01*
X173971000Y-114325061D01*
X173971000Y-114528939D01*
X174010774Y-114728898D01*
X174088795Y-114917256D01*
X174202063Y-115086774D01*
X174346226Y-115230937D01*
X174515744Y-115344205D01*
X174704102Y-115422226D01*
X174904061Y-115462000D01*
X175107939Y-115462000D01*
X175307898Y-115422226D01*
X175496256Y-115344205D01*
X175665774Y-115230937D01*
X175809937Y-115086774D01*
X175923205Y-114917256D01*
X176001226Y-114728898D01*
X176012535Y-114672043D01*
X176359517Y-114325061D01*
X177527000Y-114325061D01*
X177527000Y-114528939D01*
X177566774Y-114728898D01*
X177644795Y-114917256D01*
X177758063Y-115086774D01*
X177902226Y-115230937D01*
X178071744Y-115344205D01*
X178260102Y-115422226D01*
X178460061Y-115462000D01*
X178663939Y-115462000D01*
X178863898Y-115422226D01*
X179052256Y-115344205D01*
X179221774Y-115230937D01*
X179365937Y-115086774D01*
X179479205Y-114917256D01*
X179557226Y-114728898D01*
X179568535Y-114672043D01*
X180605579Y-113635000D01*
X184130224Y-113635000D01*
X184133992Y-113673254D01*
X184184528Y-113839850D01*
X184266595Y-113993386D01*
X184377038Y-114127962D01*
X184511614Y-114238405D01*
X184665150Y-114320472D01*
X184831746Y-114371008D01*
X185005000Y-114388072D01*
X187105000Y-114388072D01*
X187278254Y-114371008D01*
X187444850Y-114320472D01*
X187598386Y-114238405D01*
X187732962Y-114127962D01*
X187843405Y-113993386D01*
X187925472Y-113839850D01*
X187976008Y-113673254D01*
X187993072Y-113500000D01*
X187993072Y-112000000D01*
X187976008Y-111826746D01*
X187925472Y-111660150D01*
X187843405Y-111506614D01*
X187732962Y-111372038D01*
X187598386Y-111261595D01*
X187444850Y-111179528D01*
X187278254Y-111128992D01*
X187105000Y-111111928D01*
X185005000Y-111111928D01*
X184831746Y-111128992D01*
X184665150Y-111179528D01*
X184511614Y-111261595D01*
X184377038Y-111372038D01*
X184266595Y-111506614D01*
X184184528Y-111660150D01*
X184133992Y-111826746D01*
X184130224Y-111865000D01*
X180282465Y-111865000D01*
X180238999Y-111860719D01*
X180195533Y-111865000D01*
X180195523Y-111865000D01*
X180065510Y-111877805D01*
X179898687Y-111928411D01*
X179744941Y-112010589D01*
X179744939Y-112010590D01*
X179744940Y-112010590D01*
X179643953Y-112093468D01*
X179643951Y-112093470D01*
X179610183Y-112121183D01*
X179582470Y-112154951D01*
X178316957Y-113420465D01*
X178260102Y-113431774D01*
X178071744Y-113509795D01*
X177902226Y-113623063D01*
X177758063Y-113767226D01*
X177644795Y-113936744D01*
X177566774Y-114125102D01*
X177527000Y-114325061D01*
X176359517Y-114325061D01*
X180549579Y-110135000D01*
X184374135Y-110135000D01*
X184388969Y-110162752D01*
X184593286Y-110411714D01*
X184842248Y-110616031D01*
X185126285Y-110767852D01*
X185434484Y-110861343D01*
X185674678Y-110885000D01*
X186435322Y-110885000D01*
X186675516Y-110861343D01*
X186983715Y-110767852D01*
X187267752Y-110616031D01*
X187516714Y-110411714D01*
X187721031Y-110162752D01*
X187872852Y-109878715D01*
X187966343Y-109570516D01*
X187997911Y-109250000D01*
X187966343Y-108929484D01*
X187872852Y-108621285D01*
X187721031Y-108337248D01*
X187516714Y-108088286D01*
X187267752Y-107883969D01*
X186983715Y-107732148D01*
X186675516Y-107638657D01*
X186435322Y-107615000D01*
X185674678Y-107615000D01*
X185434484Y-107638657D01*
X185126285Y-107732148D01*
X184842248Y-107883969D01*
X184593286Y-108088286D01*
X184388969Y-108337248D01*
X184374135Y-108365000D01*
X180226469Y-108365000D01*
X180183000Y-108360719D01*
X180139531Y-108365000D01*
X180139523Y-108365000D01*
X180009510Y-108377805D01*
X179842686Y-108428411D01*
X179688941Y-108510589D01*
X179587953Y-108593468D01*
X179587951Y-108593470D01*
X179554183Y-108621183D01*
X179526470Y-108654951D01*
X174760957Y-113420465D01*
X174704102Y-113431774D01*
X174515744Y-113509795D01*
X174346226Y-113623063D01*
X174202063Y-113767226D01*
X174088795Y-113936744D01*
X174010774Y-114125102D01*
X173971000Y-114325061D01*
X172803517Y-114325061D01*
X180493579Y-106635000D01*
X184374135Y-106635000D01*
X184388969Y-106662752D01*
X184593286Y-106911714D01*
X184842248Y-107116031D01*
X185126285Y-107267852D01*
X185434484Y-107361343D01*
X185674678Y-107385000D01*
X186435322Y-107385000D01*
X186675516Y-107361343D01*
X186983715Y-107267852D01*
X187267752Y-107116031D01*
X187516714Y-106911714D01*
X187721031Y-106662752D01*
X187872852Y-106378715D01*
X187966343Y-106070516D01*
X187997911Y-105750000D01*
X187966343Y-105429484D01*
X187872852Y-105121285D01*
X187721031Y-104837248D01*
X187516714Y-104588286D01*
X187267752Y-104383969D01*
X186983715Y-104232148D01*
X186675516Y-104138657D01*
X186435322Y-104115000D01*
X185674678Y-104115000D01*
X185434484Y-104138657D01*
X185126285Y-104232148D01*
X184842248Y-104383969D01*
X184593286Y-104588286D01*
X184388969Y-104837248D01*
X184374135Y-104865000D01*
X180170466Y-104865000D01*
X180126999Y-104860719D01*
X180083533Y-104865000D01*
X180083523Y-104865000D01*
X179953510Y-104877805D01*
X179786687Y-104928411D01*
X179632941Y-105010589D01*
X179632939Y-105010590D01*
X179632940Y-105010590D01*
X179531953Y-105093468D01*
X179531951Y-105093470D01*
X179498183Y-105121183D01*
X179470470Y-105154951D01*
X171204957Y-113420465D01*
X171148102Y-113431774D01*
X170959744Y-113509795D01*
X170790226Y-113623063D01*
X170646063Y-113767226D01*
X170532795Y-113936744D01*
X170454774Y-114125102D01*
X170415000Y-114325061D01*
X169247517Y-114325061D01*
X180437579Y-103135000D01*
X184374135Y-103135000D01*
X184388969Y-103162752D01*
X184593286Y-103411714D01*
X184842248Y-103616031D01*
X185126285Y-103767852D01*
X185434484Y-103861343D01*
X185674678Y-103885000D01*
X186435322Y-103885000D01*
X186675516Y-103861343D01*
X186983715Y-103767852D01*
X187267752Y-103616031D01*
X187516714Y-103411714D01*
X187721031Y-103162752D01*
X187872852Y-102878715D01*
X187966343Y-102570516D01*
X187997911Y-102250000D01*
X187966343Y-101929484D01*
X187872852Y-101621285D01*
X187721031Y-101337248D01*
X187516714Y-101088286D01*
X187267752Y-100883969D01*
X186983715Y-100732148D01*
X186675516Y-100638657D01*
X186435322Y-100615000D01*
X185674678Y-100615000D01*
X185434484Y-100638657D01*
X185126285Y-100732148D01*
X184842248Y-100883969D01*
X184593286Y-101088286D01*
X184388969Y-101337248D01*
X184374135Y-101365000D01*
X180683579Y-101365000D01*
X182413579Y-99635000D01*
X184374135Y-99635000D01*
X184388969Y-99662752D01*
X184593286Y-99911714D01*
X184842248Y-100116031D01*
X185126285Y-100267852D01*
X185434484Y-100361343D01*
X185674678Y-100385000D01*
X186435322Y-100385000D01*
X186675516Y-100361343D01*
X186983715Y-100267852D01*
X187267752Y-100116031D01*
X187516714Y-99911714D01*
X187721031Y-99662752D01*
X187872852Y-99378715D01*
X187966343Y-99070516D01*
X187997911Y-98750000D01*
X187966343Y-98429484D01*
X187872852Y-98121285D01*
X187721031Y-97837248D01*
X187516714Y-97588286D01*
X187267752Y-97383969D01*
X186983715Y-97232148D01*
X186675516Y-97138657D01*
X186435322Y-97115000D01*
X185674678Y-97115000D01*
X185434484Y-97138657D01*
X185126285Y-97232148D01*
X184842248Y-97383969D01*
X184593286Y-97588286D01*
X184388969Y-97837248D01*
X184374135Y-97865000D01*
X182090469Y-97865000D01*
X182047000Y-97860719D01*
X182003531Y-97865000D01*
X182003523Y-97865000D01*
X181873510Y-97877805D01*
X181706686Y-97928411D01*
X181552941Y-98010589D01*
X181451953Y-98093468D01*
X181451951Y-98093470D01*
X181418183Y-98121183D01*
X181390470Y-98154951D01*
X179447000Y-100098421D01*
X179447000Y-98029578D01*
X181341579Y-96135000D01*
X184374135Y-96135000D01*
X184388969Y-96162752D01*
X184593286Y-96411714D01*
X184842248Y-96616031D01*
X185126285Y-96767852D01*
X185434484Y-96861343D01*
X185674678Y-96885000D01*
X186435322Y-96885000D01*
X186675516Y-96861343D01*
X186983715Y-96767852D01*
X187267752Y-96616031D01*
X187516714Y-96411714D01*
X187721031Y-96162752D01*
X187872852Y-95878715D01*
X187966343Y-95570516D01*
X187997911Y-95250000D01*
X187966343Y-94929484D01*
X187872852Y-94621285D01*
X187721031Y-94337248D01*
X187516714Y-94088286D01*
X187267752Y-93883969D01*
X186983715Y-93732148D01*
X186675516Y-93638657D01*
X186435322Y-93615000D01*
X185674678Y-93615000D01*
X185434484Y-93638657D01*
X185126285Y-93732148D01*
X184842248Y-93883969D01*
X184593286Y-94088286D01*
X184388969Y-94337248D01*
X184374135Y-94365000D01*
X181018465Y-94365000D01*
X180974999Y-94360719D01*
X180931533Y-94365000D01*
X180931523Y-94365000D01*
X180801510Y-94377805D01*
X180634687Y-94428411D01*
X180480941Y-94510589D01*
X180480939Y-94510590D01*
X180480940Y-94510590D01*
X180379953Y-94593468D01*
X180379951Y-94593470D01*
X180346183Y-94621183D01*
X180318470Y-94654951D01*
X177966956Y-97006466D01*
X177933183Y-97034183D01*
X177822589Y-97168942D01*
X177740411Y-97322688D01*
X177689805Y-97489511D01*
X177677000Y-97619524D01*
X177677000Y-97619531D01*
X177672719Y-97663000D01*
X177677000Y-97706469D01*
X177677001Y-100344420D01*
X171845746Y-106175676D01*
X171810226Y-105997102D01*
X171732205Y-105808744D01*
X171700000Y-105760546D01*
X171700000Y-102773454D01*
X171732205Y-102725256D01*
X171810226Y-102536898D01*
X171850000Y-102336939D01*
X171850000Y-102133061D01*
X171810226Y-101933102D01*
X171732205Y-101744744D01*
X171700000Y-101696546D01*
X171700000Y-95153454D01*
X171732205Y-95105256D01*
X171810226Y-94916898D01*
X171850000Y-94716939D01*
X171850000Y-94513061D01*
X171810226Y-94313102D01*
X171732205Y-94124744D01*
X171700000Y-94076546D01*
X171700000Y-87533454D01*
X171732205Y-87485256D01*
X171810226Y-87296898D01*
X171850000Y-87096939D01*
X171850000Y-86893061D01*
X171810226Y-86693102D01*
X171732205Y-86504744D01*
X171700000Y-86456546D01*
X171700000Y-84498477D01*
X171704282Y-84455000D01*
X171700000Y-84411523D01*
X171700000Y-79913454D01*
X171732205Y-79865256D01*
X171810226Y-79676898D01*
X171850000Y-79476939D01*
X171850000Y-79273061D01*
X171810226Y-79073102D01*
X171732205Y-78884744D01*
X171700000Y-78836546D01*
X171700000Y-72293454D01*
X171708762Y-72280341D01*
X177677001Y-78248580D01*
X177677000Y-81363531D01*
X177672719Y-81407000D01*
X177677000Y-81450469D01*
X177677000Y-81450476D01*
X177689805Y-81580489D01*
X177740411Y-81747312D01*
X177822589Y-81901058D01*
X177933183Y-82035817D01*
X177966956Y-82063534D01*
X182873470Y-86970049D01*
X182901183Y-87003817D01*
X182934951Y-87031530D01*
X182934953Y-87031532D01*
X182984908Y-87072529D01*
X183035941Y-87114411D01*
X183189687Y-87196589D01*
X183305903Y-87231843D01*
X183356509Y-87247195D01*
X183371306Y-87248652D01*
X183486523Y-87260000D01*
X183486531Y-87260000D01*
X183530000Y-87264281D01*
X183573469Y-87260000D01*
X184130224Y-87260000D01*
X184133992Y-87298254D01*
X184184528Y-87464850D01*
X184266595Y-87618386D01*
X184377038Y-87752962D01*
X184511614Y-87863405D01*
X184665150Y-87945472D01*
X184831746Y-87996008D01*
X185005000Y-88013072D01*
X187105000Y-88013072D01*
X187278254Y-87996008D01*
X187444850Y-87945472D01*
X187598386Y-87863405D01*
X187732962Y-87752962D01*
X187843405Y-87618386D01*
X187925472Y-87464850D01*
X187976008Y-87298254D01*
X187993072Y-87125000D01*
X187993072Y-85625000D01*
X187976008Y-85451746D01*
X187925472Y-85285150D01*
X187843405Y-85131614D01*
X187732962Y-84997038D01*
X187598386Y-84886595D01*
X187444850Y-84804528D01*
X187278254Y-84753992D01*
X187105000Y-84736928D01*
X185005000Y-84736928D01*
X184831746Y-84753992D01*
X184665150Y-84804528D01*
X184511614Y-84886595D01*
X184377038Y-84997038D01*
X184266595Y-85131614D01*
X184184528Y-85285150D01*
X184133992Y-85451746D01*
X184130224Y-85490000D01*
X183896579Y-85490000D01*
X179447000Y-81040422D01*
X179447000Y-80495578D01*
X182421470Y-83470049D01*
X182449183Y-83503817D01*
X182482951Y-83531530D01*
X182482953Y-83531532D01*
X182534268Y-83573645D01*
X182583941Y-83614411D01*
X182737687Y-83696589D01*
X182904510Y-83747195D01*
X183034523Y-83760000D01*
X183034533Y-83760000D01*
X183077999Y-83764281D01*
X183121465Y-83760000D01*
X184374135Y-83760000D01*
X184388969Y-83787752D01*
X184593286Y-84036714D01*
X184842248Y-84241031D01*
X185126285Y-84392852D01*
X185434484Y-84486343D01*
X185674678Y-84510000D01*
X186435322Y-84510000D01*
X186675516Y-84486343D01*
X186983715Y-84392852D01*
X187267752Y-84241031D01*
X187516714Y-84036714D01*
X187721031Y-83787752D01*
X187872852Y-83503715D01*
X187966343Y-83195516D01*
X187997911Y-82875000D01*
X187966343Y-82554484D01*
X187872852Y-82246285D01*
X187721031Y-81962248D01*
X187516714Y-81713286D01*
X187267752Y-81508969D01*
X186983715Y-81357148D01*
X186675516Y-81263657D01*
X186435322Y-81240000D01*
X185674678Y-81240000D01*
X185434484Y-81263657D01*
X185126285Y-81357148D01*
X184842248Y-81508969D01*
X184593286Y-81713286D01*
X184388969Y-81962248D01*
X184374135Y-81990000D01*
X183444579Y-81990000D01*
X180878250Y-79423672D01*
X180878250Y-77989829D01*
X182858470Y-79970049D01*
X182886183Y-80003817D01*
X182919951Y-80031530D01*
X182919953Y-80031532D01*
X182945399Y-80052415D01*
X183020941Y-80114411D01*
X183174687Y-80196589D01*
X183341510Y-80247195D01*
X183471523Y-80260000D01*
X183471533Y-80260000D01*
X183514999Y-80264281D01*
X183558466Y-80260000D01*
X184374135Y-80260000D01*
X184388969Y-80287752D01*
X184593286Y-80536714D01*
X184842248Y-80741031D01*
X185126285Y-80892852D01*
X185434484Y-80986343D01*
X185674678Y-81010000D01*
X186435322Y-81010000D01*
X186675516Y-80986343D01*
X186983715Y-80892852D01*
X187267752Y-80741031D01*
X187516714Y-80536714D01*
X187721031Y-80287752D01*
X187872852Y-80003715D01*
X187966343Y-79695516D01*
X187997911Y-79375000D01*
X187966343Y-79054484D01*
X187872852Y-78746285D01*
X187721031Y-78462248D01*
X187516714Y-78213286D01*
X187267752Y-78008969D01*
X186983715Y-77857148D01*
X186675516Y-77763657D01*
X186435322Y-77740000D01*
X185674678Y-77740000D01*
X185434484Y-77763657D01*
X185126285Y-77857148D01*
X184842248Y-78008969D01*
X184593286Y-78213286D01*
X184388969Y-78462248D01*
X184374135Y-78490000D01*
X183881579Y-78490000D01*
X182150728Y-76759149D01*
X182159365Y-76760000D01*
X182159373Y-76760000D01*
X182202842Y-76764281D01*
X182246311Y-76760000D01*
X184374135Y-76760000D01*
X184388969Y-76787752D01*
X184593286Y-77036714D01*
X184842248Y-77241031D01*
X185126285Y-77392852D01*
X185434484Y-77486343D01*
X185674678Y-77510000D01*
X186435322Y-77510000D01*
X186675516Y-77486343D01*
X186983715Y-77392852D01*
X187267752Y-77241031D01*
X187516714Y-77036714D01*
X187721031Y-76787752D01*
X187872852Y-76503715D01*
X187966343Y-76195516D01*
X187997911Y-75875000D01*
X187966343Y-75554484D01*
X187872852Y-75246285D01*
X187721031Y-74962248D01*
X187516714Y-74713286D01*
X187267752Y-74508969D01*
X186983715Y-74357148D01*
X186675516Y-74263657D01*
X186435322Y-74240000D01*
X185674678Y-74240000D01*
X185434484Y-74263657D01*
X185126285Y-74357148D01*
X184842248Y-74508969D01*
X184593286Y-74713286D01*
X184388969Y-74962248D01*
X184374135Y-74990000D01*
X182569421Y-74990000D01*
X180839421Y-73260000D01*
X184374135Y-73260000D01*
X184388969Y-73287752D01*
X184593286Y-73536714D01*
X184842248Y-73741031D01*
X185126285Y-73892852D01*
X185434484Y-73986343D01*
X185674678Y-74010000D01*
X186435322Y-74010000D01*
X186675516Y-73986343D01*
X186983715Y-73892852D01*
X187267752Y-73741031D01*
X187516714Y-73536714D01*
X187721031Y-73287752D01*
X187872852Y-73003715D01*
X187966343Y-72695516D01*
X187997911Y-72375000D01*
X187966343Y-72054484D01*
X187872852Y-71746285D01*
X187721031Y-71462248D01*
X187516714Y-71213286D01*
X187267752Y-71008969D01*
X186983715Y-70857148D01*
X186675516Y-70763657D01*
X186435322Y-70740000D01*
X185674678Y-70740000D01*
X185434484Y-70763657D01*
X185126285Y-70857148D01*
X184842248Y-71008969D01*
X184593286Y-71213286D01*
X184388969Y-71462248D01*
X184374135Y-71490000D01*
X181072579Y-71490000D01*
X176155640Y-66573061D01*
X177527000Y-66573061D01*
X177527000Y-66776939D01*
X177566774Y-66976898D01*
X177644795Y-67165256D01*
X177758063Y-67334774D01*
X177902226Y-67478937D01*
X178071744Y-67592205D01*
X178260102Y-67670226D01*
X178316957Y-67681535D01*
X180105470Y-69470049D01*
X180133183Y-69503817D01*
X180166951Y-69531530D01*
X180166953Y-69531532D01*
X180245165Y-69595719D01*
X180267941Y-69614411D01*
X180421687Y-69696589D01*
X180588510Y-69747195D01*
X180718523Y-69760000D01*
X180718531Y-69760000D01*
X180762000Y-69764281D01*
X180805469Y-69760000D01*
X184374135Y-69760000D01*
X184388969Y-69787752D01*
X184593286Y-70036714D01*
X184842248Y-70241031D01*
X185126285Y-70392852D01*
X185434484Y-70486343D01*
X185674678Y-70510000D01*
X186435322Y-70510000D01*
X186675516Y-70486343D01*
X186983715Y-70392852D01*
X187267752Y-70241031D01*
X187516714Y-70036714D01*
X187721031Y-69787752D01*
X187872852Y-69503715D01*
X187966343Y-69195516D01*
X187997911Y-68875000D01*
X187966343Y-68554484D01*
X187872852Y-68246285D01*
X187721031Y-67962248D01*
X187516714Y-67713286D01*
X187267752Y-67508969D01*
X186983715Y-67357148D01*
X186675516Y-67263657D01*
X186435322Y-67240000D01*
X185674678Y-67240000D01*
X185434484Y-67263657D01*
X185126285Y-67357148D01*
X184842248Y-67508969D01*
X184593286Y-67713286D01*
X184388969Y-67962248D01*
X184374135Y-67990000D01*
X181128579Y-67990000D01*
X179568535Y-66429957D01*
X179557226Y-66373102D01*
X179479205Y-66184744D01*
X179365937Y-66015226D01*
X179221774Y-65871063D01*
X179052256Y-65757795D01*
X178863898Y-65679774D01*
X178663939Y-65640000D01*
X178460061Y-65640000D01*
X178260102Y-65679774D01*
X178071744Y-65757795D01*
X177902226Y-65871063D01*
X177758063Y-66015226D01*
X177644795Y-66184744D01*
X177566774Y-66373102D01*
X177527000Y-66573061D01*
X176155640Y-66573061D01*
X176012535Y-66429957D01*
X176001226Y-66373102D01*
X175923205Y-66184744D01*
X175809937Y-66015226D01*
X175665774Y-65871063D01*
X175496256Y-65757795D01*
X175307898Y-65679774D01*
X175107939Y-65640000D01*
X174904061Y-65640000D01*
X174704102Y-65679774D01*
X174515744Y-65757795D01*
X174346226Y-65871063D01*
X174202063Y-66015226D01*
X174088795Y-66184744D01*
X174010774Y-66373102D01*
X174001109Y-66421689D01*
X173659376Y-66079956D01*
X173631659Y-66046183D01*
X173496901Y-65935589D01*
X173343155Y-65853411D01*
X173176332Y-65802805D01*
X173046319Y-65790000D01*
X173046311Y-65790000D01*
X173002842Y-65785719D01*
X172959373Y-65790000D01*
X171988454Y-65790000D01*
X171940256Y-65757795D01*
X171751898Y-65679774D01*
X171551939Y-65640000D01*
X171348061Y-65640000D01*
X171148102Y-65679774D01*
X170959744Y-65757795D01*
X170790226Y-65871063D01*
X170646063Y-66015226D01*
X170532795Y-66184744D01*
X170454774Y-66373102D01*
X170415000Y-66573061D01*
X170415000Y-66776939D01*
X170454774Y-66976898D01*
X170489196Y-67060000D01*
X169530579Y-67060000D01*
X168900535Y-66429957D01*
X168889226Y-66373102D01*
X168811205Y-66184744D01*
X168697937Y-66015226D01*
X168553774Y-65871063D01*
X168384256Y-65757795D01*
X168195898Y-65679774D01*
X167995939Y-65640000D01*
X167792061Y-65640000D01*
X167592102Y-65679774D01*
X167403744Y-65757795D01*
X167234226Y-65871063D01*
X167090063Y-66015226D01*
X166976795Y-66184744D01*
X166898774Y-66373102D01*
X166859000Y-66573061D01*
X166859000Y-66776939D01*
X166898774Y-66976898D01*
X166976795Y-67165256D01*
X167090063Y-67334774D01*
X167234226Y-67478937D01*
X167403744Y-67592205D01*
X167592102Y-67670226D01*
X167648957Y-67681535D01*
X168297421Y-68330000D01*
X167244579Y-68330000D01*
X165344535Y-66429957D01*
X165333226Y-66373102D01*
X165255205Y-66184744D01*
X165141937Y-66015226D01*
X164997774Y-65871063D01*
X164828256Y-65757795D01*
X164639898Y-65679774D01*
X164439939Y-65640000D01*
X164236061Y-65640000D01*
X164036102Y-65679774D01*
X163847744Y-65757795D01*
X163678226Y-65871063D01*
X163534063Y-66015226D01*
X163420795Y-66184744D01*
X163342774Y-66373102D01*
X163303000Y-66573061D01*
X163303000Y-66776939D01*
X163342774Y-66976898D01*
X163420795Y-67165256D01*
X163534063Y-67334774D01*
X163678226Y-67478937D01*
X163847744Y-67592205D01*
X164036102Y-67670226D01*
X164092957Y-67681535D01*
X166011421Y-69600000D01*
X164958579Y-69600000D01*
X161788535Y-66429957D01*
X161777226Y-66373102D01*
X161699205Y-66184744D01*
X161585937Y-66015226D01*
X161441774Y-65871063D01*
X161272256Y-65757795D01*
X161083898Y-65679774D01*
X160883939Y-65640000D01*
X160680061Y-65640000D01*
X160480102Y-65679774D01*
X160291744Y-65757795D01*
X160122226Y-65871063D01*
X159978063Y-66015226D01*
X159864795Y-66184744D01*
X159786774Y-66373102D01*
X159747000Y-66573061D01*
X159747000Y-66776939D01*
X159786774Y-66976898D01*
X159864795Y-67165256D01*
X159978063Y-67334774D01*
X160122226Y-67478937D01*
X160291744Y-67592205D01*
X160480102Y-67670226D01*
X160536957Y-67681535D01*
X163935470Y-71080049D01*
X163963183Y-71113817D01*
X163996951Y-71141530D01*
X163996953Y-71141532D01*
X164097941Y-71224411D01*
X164251686Y-71306589D01*
X164418510Y-71357195D01*
X164548523Y-71370000D01*
X164548531Y-71370000D01*
X164592000Y-71374281D01*
X164635469Y-71370000D01*
X169854196Y-71370000D01*
X169819774Y-71453102D01*
X169780000Y-71653061D01*
X169780000Y-71856939D01*
X169819774Y-72056898D01*
X169897795Y-72245256D01*
X169930000Y-72293454D01*
X169930001Y-78836544D01*
X169897795Y-78884744D01*
X169819774Y-79073102D01*
X169780000Y-79273061D01*
X169780000Y-79476939D01*
X169819774Y-79676898D01*
X169897795Y-79865256D01*
X169930000Y-79913454D01*
X169930001Y-83570000D01*
X155306579Y-83570000D01*
X150850734Y-79114155D01*
X151570450Y-79114155D01*
X151966634Y-79634550D01*
X152681612Y-80024748D01*
X153458976Y-80267964D01*
X154268853Y-80354851D01*
X155080118Y-80282069D01*
X155861597Y-80052415D01*
X156583256Y-79674715D01*
X156643366Y-79634550D01*
X157039550Y-79114155D01*
X154305000Y-76379605D01*
X151570450Y-79114155D01*
X150850734Y-79114155D01*
X147900432Y-76163853D01*
X150150149Y-76163853D01*
X150222931Y-76975118D01*
X150452585Y-77756597D01*
X150830285Y-78478256D01*
X150870450Y-78538366D01*
X151390845Y-78934550D01*
X154125395Y-76200000D01*
X154484605Y-76200000D01*
X157219155Y-78934550D01*
X157739550Y-78538366D01*
X158129748Y-77823388D01*
X158372964Y-77046024D01*
X158459851Y-76236147D01*
X158387069Y-75424882D01*
X158157415Y-74643403D01*
X157779715Y-73921744D01*
X157739550Y-73861634D01*
X157219155Y-73465450D01*
X154484605Y-76200000D01*
X154125395Y-76200000D01*
X151390845Y-73465450D01*
X150870450Y-73861634D01*
X150480252Y-74576612D01*
X150237036Y-75353976D01*
X150150149Y-76163853D01*
X147900432Y-76163853D01*
X145436534Y-73699956D01*
X145408817Y-73666183D01*
X145274059Y-73555589D01*
X145120313Y-73473411D01*
X144953490Y-73422805D01*
X144823477Y-73410000D01*
X144823469Y-73410000D01*
X144780000Y-73405719D01*
X144736531Y-73410000D01*
X141469521Y-73410000D01*
X141449637Y-73380241D01*
X141355241Y-73285845D01*
X151570450Y-73285845D01*
X154305000Y-76020395D01*
X157039550Y-73285845D01*
X156643366Y-72765450D01*
X155928388Y-72375252D01*
X155151024Y-72132036D01*
X154341147Y-72045149D01*
X153529882Y-72117931D01*
X152748403Y-72347585D01*
X152026744Y-72725285D01*
X151966634Y-72765450D01*
X151570450Y-73285845D01*
X141355241Y-73285845D01*
X141249759Y-73180363D01*
X141014727Y-73023320D01*
X140753574Y-72915147D01*
X140476335Y-72860000D01*
X140193665Y-72860000D01*
X139916426Y-72915147D01*
X139655273Y-73023320D01*
X139420241Y-73180363D01*
X139220363Y-73380241D01*
X139063320Y-73615273D01*
X138955147Y-73876426D01*
X138907150Y-74117718D01*
X137031861Y-75993008D01*
X137031856Y-75993012D01*
X137031849Y-75993019D01*
X136988552Y-76028552D01*
X136953019Y-76071849D01*
X135419869Y-77605000D01*
X130010132Y-77605000D01*
X128796773Y-76391642D01*
X129001031Y-76142752D01*
X129152852Y-75858715D01*
X129246343Y-75550515D01*
X129270000Y-75310321D01*
X129270000Y-74549679D01*
X129500000Y-74549679D01*
X129500000Y-75310322D01*
X129523657Y-75550516D01*
X129617148Y-75858715D01*
X129768969Y-76142752D01*
X129973286Y-76391714D01*
X130222249Y-76596031D01*
X130506286Y-76747852D01*
X130814485Y-76841343D01*
X131135000Y-76872911D01*
X131455516Y-76841343D01*
X131763715Y-76747852D01*
X132047752Y-76596031D01*
X132296714Y-76391714D01*
X132501031Y-76142752D01*
X132652852Y-75858715D01*
X132746343Y-75550515D01*
X132770000Y-75310321D01*
X132770000Y-74549678D01*
X132746343Y-74309484D01*
X132652852Y-74001285D01*
X132501031Y-73717248D01*
X132296714Y-73468286D01*
X132047751Y-73263969D01*
X131763714Y-73112148D01*
X131455515Y-73018657D01*
X131135000Y-72987089D01*
X130814484Y-73018657D01*
X130506285Y-73112148D01*
X130222248Y-73263969D01*
X129973286Y-73468286D01*
X129768969Y-73717249D01*
X129617148Y-74001286D01*
X129523657Y-74309485D01*
X129500000Y-74549679D01*
X129270000Y-74549679D01*
X129270000Y-74549678D01*
X129246343Y-74309484D01*
X129152852Y-74001285D01*
X129001031Y-73717248D01*
X128796714Y-73468286D01*
X128547751Y-73263969D01*
X128263714Y-73112148D01*
X127955515Y-73018657D01*
X127635000Y-72987089D01*
X127314484Y-73018657D01*
X127006285Y-73112148D01*
X126722248Y-73263969D01*
X126473286Y-73468286D01*
X126268969Y-73717249D01*
X126117148Y-74001286D01*
X126023657Y-74309485D01*
X126000000Y-74549679D01*
X126000000Y-75310322D01*
X126023657Y-75550516D01*
X126117148Y-75858715D01*
X126268969Y-76142752D01*
X126473286Y-76391714D01*
X126500001Y-76413638D01*
X126500001Y-76779239D01*
X126494509Y-76835000D01*
X126516423Y-77057498D01*
X126581324Y-77271446D01*
X126611828Y-77328514D01*
X126686717Y-77468623D01*
X126828552Y-77641449D01*
X126871860Y-77676991D01*
X128698009Y-79503141D01*
X128733551Y-79546449D01*
X128906377Y-79688284D01*
X129103553Y-79793676D01*
X129317501Y-79858577D01*
X129423928Y-79869059D01*
X129540000Y-79880491D01*
X129595752Y-79875000D01*
X135834249Y-79875000D01*
X135890000Y-79880491D01*
X135945751Y-79875000D01*
X135945752Y-79875000D01*
X136112499Y-79858577D01*
X136326447Y-79793676D01*
X136523623Y-79688284D01*
X136696449Y-79546449D01*
X136731996Y-79503135D01*
X137795000Y-78440132D01*
X140470000Y-81115133D01*
X140470001Y-83489892D01*
X140451525Y-83508368D01*
X140335000Y-83682760D01*
X140218475Y-83508368D01*
X140011632Y-83301525D01*
X139768411Y-83139010D01*
X139498158Y-83027068D01*
X139211260Y-82970000D01*
X138918740Y-82970000D01*
X138631842Y-83027068D01*
X138361589Y-83139010D01*
X138118368Y-83301525D01*
X137911525Y-83508368D01*
X137789805Y-83690534D01*
X137720178Y-83573645D01*
X137525269Y-83357412D01*
X137291920Y-83183359D01*
X137029099Y-83058175D01*
X136881890Y-83013524D01*
X136652000Y-83134845D01*
X136652000Y-84328000D01*
X136672000Y-84328000D01*
X136672000Y-84582000D01*
X136652000Y-84582000D01*
X136652000Y-84602000D01*
X136398000Y-84602000D01*
X136398000Y-84582000D01*
X135204186Y-84582000D01*
X135083519Y-84811891D01*
X135180843Y-85086252D01*
X135329822Y-85336355D01*
X135524731Y-85552588D01*
X135754406Y-85723900D01*
X135578368Y-85841525D01*
X135371525Y-86048368D01*
X135209010Y-86291589D01*
X135097068Y-86561842D01*
X135040000Y-86848740D01*
X135040000Y-87141260D01*
X135083790Y-87361408D01*
X132838998Y-89606201D01*
X132810000Y-89629999D01*
X132786202Y-89658997D01*
X132786201Y-89658998D01*
X132715026Y-89745724D01*
X132644454Y-89877754D01*
X132617820Y-89965558D01*
X132600998Y-90021014D01*
X132599522Y-90035997D01*
X132586324Y-90170000D01*
X132590001Y-90207332D01*
X132590000Y-95816289D01*
X132546063Y-95860226D01*
X132432795Y-96029744D01*
X132354774Y-96218102D01*
X132332066Y-96332265D01*
X132205000Y-96205199D01*
X132205000Y-94683711D01*
X132248937Y-94639774D01*
X132362205Y-94470256D01*
X132440226Y-94281898D01*
X132480000Y-94081939D01*
X132480000Y-93878061D01*
X132440226Y-93678102D01*
X132362205Y-93489744D01*
X132248937Y-93320226D01*
X132104774Y-93176063D01*
X131935256Y-93062795D01*
X131746898Y-92984774D01*
X131546939Y-92945000D01*
X131343061Y-92945000D01*
X131143102Y-92984774D01*
X130954744Y-93062795D01*
X130785226Y-93176063D01*
X130641063Y-93320226D01*
X130527795Y-93489744D01*
X130449774Y-93678102D01*
X130410000Y-93878061D01*
X130410000Y-94081939D01*
X130449774Y-94281898D01*
X130527795Y-94470256D01*
X130641063Y-94639774D01*
X130685001Y-94683712D01*
X130685000Y-96482677D01*
X130681324Y-96520000D01*
X130685000Y-96557322D01*
X130685000Y-96557332D01*
X130695997Y-96668985D01*
X130727767Y-96773718D01*
X130739454Y-96812246D01*
X130810026Y-96944276D01*
X130849871Y-96992826D01*
X130904999Y-97060001D01*
X130934003Y-97083804D01*
X131640198Y-97790000D01*
X130495199Y-98935000D01*
X127068711Y-98935000D01*
X127024774Y-98891063D01*
X126855256Y-98777795D01*
X126666898Y-98699774D01*
X126466939Y-98660000D01*
X126263061Y-98660000D01*
X126063102Y-98699774D01*
X125874744Y-98777795D01*
X125705226Y-98891063D01*
X125561063Y-99035226D01*
X125447795Y-99204744D01*
X125369774Y-99393102D01*
X125330000Y-99593061D01*
X109345000Y-99593061D01*
X109345000Y-98127775D01*
X109472641Y-98213061D01*
X109715595Y-98313696D01*
X109973514Y-98365000D01*
X110236486Y-98365000D01*
X110494405Y-98313696D01*
X110737359Y-98213061D01*
X110956013Y-98066962D01*
X111141962Y-97881013D01*
X111288061Y-97662359D01*
X111388696Y-97419405D01*
X111440000Y-97161486D01*
X111440000Y-96898514D01*
X111388696Y-96640595D01*
X111288061Y-96397641D01*
X111141962Y-96178987D01*
X110956013Y-95993038D01*
X110794322Y-95885000D01*
X110956013Y-95776962D01*
X111141962Y-95591013D01*
X111288061Y-95372359D01*
X111388696Y-95129405D01*
X111440000Y-94871486D01*
X111440000Y-94608514D01*
X111388696Y-94350595D01*
X111288061Y-94107641D01*
X111141962Y-93888987D01*
X110956013Y-93703038D01*
X110737359Y-93556939D01*
X110494405Y-93456304D01*
X110236486Y-93405000D01*
X109973514Y-93405000D01*
X109715595Y-93456304D01*
X109472641Y-93556939D01*
X109345000Y-93642225D01*
X109345000Y-87967775D01*
X109472641Y-88053061D01*
X109715595Y-88153696D01*
X109973514Y-88205000D01*
X110236486Y-88205000D01*
X110494405Y-88153696D01*
X110737359Y-88053061D01*
X110956013Y-87906962D01*
X111141962Y-87721013D01*
X111288061Y-87502359D01*
X111388696Y-87259405D01*
X111440000Y-87001486D01*
X111440000Y-86738514D01*
X111388696Y-86480595D01*
X111288061Y-86237641D01*
X111141962Y-86018987D01*
X110956013Y-85833038D01*
X110794322Y-85725000D01*
X110956013Y-85616962D01*
X111141962Y-85431013D01*
X111288061Y-85212359D01*
X111388696Y-84969405D01*
X111440000Y-84711486D01*
X111440000Y-84448514D01*
X111388696Y-84190595D01*
X111350387Y-84098109D01*
X135083519Y-84098109D01*
X135204186Y-84328000D01*
X136398000Y-84328000D01*
X136398000Y-83134845D01*
X136168110Y-83013524D01*
X136020901Y-83058175D01*
X135758080Y-83183359D01*
X135524731Y-83357412D01*
X135329822Y-83573645D01*
X135180843Y-83823748D01*
X135083519Y-84098109D01*
X111350387Y-84098109D01*
X111288061Y-83947641D01*
X111141962Y-83728987D01*
X110956013Y-83543038D01*
X110737359Y-83396939D01*
X110494405Y-83296304D01*
X110236486Y-83245000D01*
X109973514Y-83245000D01*
X109715595Y-83296304D01*
X109472641Y-83396939D01*
X109253987Y-83543038D01*
X109068038Y-83728987D01*
X108921939Y-83947641D01*
X108821304Y-84190595D01*
X108770000Y-84448514D01*
X108770000Y-84711486D01*
X108821304Y-84969405D01*
X108858142Y-85058340D01*
X106598645Y-82798844D01*
X106620000Y-82691486D01*
X106620000Y-82428514D01*
X106568696Y-82170595D01*
X106468061Y-81927641D01*
X106321962Y-81708987D01*
X106136013Y-81523038D01*
X106024771Y-81448709D01*
X106026664Y-81441269D01*
X105285000Y-80699605D01*
X105270858Y-80713748D01*
X105091253Y-80534143D01*
X105105395Y-80520000D01*
X105464605Y-80520000D01*
X106206269Y-81261664D01*
X106440037Y-81202203D01*
X106550934Y-80963758D01*
X106613183Y-80708260D01*
X106624390Y-80445527D01*
X106584125Y-80185656D01*
X106493935Y-79938634D01*
X106440037Y-79837797D01*
X106206269Y-79778336D01*
X105464605Y-80520000D01*
X105105395Y-80520000D01*
X105091253Y-80505858D01*
X105270858Y-80326253D01*
X105285000Y-80340395D01*
X106026664Y-79598731D01*
X106024771Y-79591291D01*
X106136013Y-79516962D01*
X106321962Y-79331013D01*
X106468061Y-79112359D01*
X106568696Y-78869405D01*
X106620000Y-78611486D01*
X106620000Y-78348514D01*
X106568696Y-78090595D01*
X106468061Y-77847641D01*
X106321962Y-77628987D01*
X106152975Y-77460000D01*
X106321962Y-77291013D01*
X106468061Y-77072359D01*
X106568696Y-76829405D01*
X106620000Y-76571486D01*
X106620000Y-76308514D01*
X106568696Y-76050595D01*
X106468061Y-75807641D01*
X106321962Y-75588987D01*
X106136013Y-75403038D01*
X105917359Y-75256939D01*
X105674405Y-75156304D01*
X105416486Y-75105000D01*
X105153514Y-75105000D01*
X104895595Y-75156304D01*
X104652641Y-75256939D01*
X104433987Y-75403038D01*
X104248038Y-75588987D01*
X104101939Y-75807641D01*
X104001304Y-76050595D01*
X103970065Y-76207643D01*
X103894405Y-76176304D01*
X103636486Y-76125000D01*
X103373514Y-76125000D01*
X103115595Y-76176304D01*
X102872641Y-76276939D01*
X102653987Y-76423038D01*
X102468038Y-76608987D01*
X102321939Y-76827641D01*
X102221304Y-77070595D01*
X102170000Y-77328514D01*
X102170000Y-77591486D01*
X102221304Y-77849405D01*
X102321939Y-78092359D01*
X102468038Y-78311013D01*
X102653987Y-78496962D01*
X102765229Y-78571291D01*
X102763336Y-78578731D01*
X103505000Y-79320395D01*
X103519143Y-79306253D01*
X103698748Y-79485858D01*
X103684605Y-79500000D01*
X103698748Y-79514143D01*
X103519143Y-79693748D01*
X103505000Y-79679605D01*
X102763336Y-80421269D01*
X102765229Y-80428709D01*
X102653987Y-80503038D01*
X102468038Y-80688987D01*
X102321939Y-80907641D01*
X102221304Y-81150595D01*
X102170000Y-81408514D01*
X102170000Y-81671486D01*
X102221304Y-81929405D01*
X102321939Y-82172359D01*
X102468038Y-82391013D01*
X102637025Y-82560000D01*
X102468038Y-82728987D01*
X102321939Y-82947641D01*
X102221304Y-83190595D01*
X102170000Y-83448514D01*
X102170000Y-83711486D01*
X102221304Y-83969405D01*
X102321939Y-84212359D01*
X102468038Y-84431013D01*
X102653987Y-84616962D01*
X102872641Y-84763061D01*
X103115595Y-84863696D01*
X103373514Y-84915000D01*
X103636486Y-84915000D01*
X103743844Y-84893645D01*
X105258596Y-86408398D01*
X105091955Y-86324841D01*
X104724443Y-86223750D01*
X104344271Y-86196299D01*
X103966049Y-86243543D01*
X103604310Y-86363667D01*
X103357317Y-86495688D01*
X103225382Y-86790774D01*
X103190523Y-86755915D01*
X103225000Y-86582591D01*
X103225000Y-86137409D01*
X103138149Y-85700782D01*
X102967786Y-85289489D01*
X102720456Y-84919334D01*
X102405666Y-84604544D01*
X102035511Y-84357214D01*
X101624218Y-84186851D01*
X101187591Y-84100000D01*
X100742409Y-84100000D01*
X100305782Y-84186851D01*
X99894489Y-84357214D01*
X99524334Y-84604544D01*
X99209544Y-84919334D01*
X98962214Y-85289489D01*
X98791851Y-85700782D01*
X98705000Y-86137409D01*
X93903000Y-86137409D01*
X93903000Y-79574473D01*
X102165610Y-79574473D01*
X102205875Y-79834344D01*
X102296065Y-80081366D01*
X102349963Y-80182203D01*
X102583731Y-80241664D01*
X103325395Y-79500000D01*
X102583731Y-78758336D01*
X102349963Y-78817797D01*
X102239066Y-79056242D01*
X102176817Y-79311740D01*
X102165610Y-79574473D01*
X93903000Y-79574473D01*
X93903000Y-73437409D01*
X98705000Y-73437409D01*
X98705000Y-73882591D01*
X98791851Y-74319218D01*
X98962214Y-74730511D01*
X99209544Y-75100666D01*
X99524334Y-75415456D01*
X99894489Y-75662786D01*
X100305782Y-75833149D01*
X100742409Y-75920000D01*
X101187591Y-75920000D01*
X101624218Y-75833149D01*
X102035511Y-75662786D01*
X102405666Y-75415456D01*
X102720456Y-75100666D01*
X102967786Y-74730511D01*
X103138149Y-74319218D01*
X103225000Y-73882591D01*
X103225000Y-73437409D01*
X103190523Y-73264085D01*
X103225382Y-73229226D01*
X103357317Y-73524312D01*
X103698045Y-73695159D01*
X104065557Y-73796250D01*
X104445729Y-73823701D01*
X104823951Y-73776457D01*
X105185690Y-73656333D01*
X105432683Y-73524312D01*
X105564619Y-73229224D01*
X104395000Y-72059605D01*
X104380858Y-72073748D01*
X104201253Y-71894143D01*
X104215395Y-71880000D01*
X104574605Y-71880000D01*
X105744224Y-73049619D01*
X105813793Y-73018514D01*
X108770000Y-73018514D01*
X108770000Y-73281486D01*
X108821304Y-73539405D01*
X108921939Y-73782359D01*
X109068038Y-74001013D01*
X109253987Y-74186962D01*
X109415678Y-74295000D01*
X109253987Y-74403038D01*
X109068038Y-74588987D01*
X108921939Y-74807641D01*
X108821304Y-75050595D01*
X108770000Y-75308514D01*
X108770000Y-75571486D01*
X108821304Y-75829405D01*
X108921939Y-76072359D01*
X109068038Y-76291013D01*
X109253987Y-76476962D01*
X109472641Y-76623061D01*
X109715595Y-76723696D01*
X109973514Y-76775000D01*
X110236486Y-76775000D01*
X110494405Y-76723696D01*
X110737359Y-76623061D01*
X110956013Y-76476962D01*
X111141962Y-76291013D01*
X111182729Y-76230000D01*
X122496928Y-76230000D01*
X122509188Y-76354482D01*
X122545498Y-76474180D01*
X122604463Y-76584494D01*
X122683815Y-76681185D01*
X122780506Y-76760537D01*
X122890820Y-76819502D01*
X123010518Y-76855812D01*
X123135000Y-76868072D01*
X123849250Y-76865000D01*
X124008000Y-76706250D01*
X124008000Y-75057000D01*
X124262000Y-75057000D01*
X124262000Y-76706250D01*
X124420750Y-76865000D01*
X125135000Y-76868072D01*
X125259482Y-76855812D01*
X125379180Y-76819502D01*
X125489494Y-76760537D01*
X125586185Y-76681185D01*
X125665537Y-76584494D01*
X125724502Y-76474180D01*
X125760812Y-76354482D01*
X125773072Y-76230000D01*
X125770000Y-75215750D01*
X125611250Y-75057000D01*
X124262000Y-75057000D01*
X124008000Y-75057000D01*
X122658750Y-75057000D01*
X122500000Y-75215750D01*
X122496928Y-76230000D01*
X111182729Y-76230000D01*
X111288061Y-76072359D01*
X111388696Y-75829405D01*
X111440000Y-75571486D01*
X111440000Y-75308514D01*
X111388696Y-75050595D01*
X111288061Y-74807641D01*
X111141962Y-74588987D01*
X110956013Y-74403038D01*
X110794322Y-74295000D01*
X110956013Y-74186962D01*
X111141962Y-74001013D01*
X111288061Y-73782359D01*
X111351170Y-73630000D01*
X122496928Y-73630000D01*
X122500000Y-74644250D01*
X122658750Y-74803000D01*
X124008000Y-74803000D01*
X124008000Y-73153750D01*
X124262000Y-73153750D01*
X124262000Y-74803000D01*
X125611250Y-74803000D01*
X125770000Y-74644250D01*
X125773072Y-73630000D01*
X125760812Y-73505518D01*
X125724502Y-73385820D01*
X125665537Y-73275506D01*
X125586185Y-73178815D01*
X125489494Y-73099463D01*
X125379180Y-73040498D01*
X125259482Y-73004188D01*
X125135000Y-72991928D01*
X124420750Y-72995000D01*
X124262000Y-73153750D01*
X124008000Y-73153750D01*
X123849250Y-72995000D01*
X123135000Y-72991928D01*
X123010518Y-73004188D01*
X122890820Y-73040498D01*
X122780506Y-73099463D01*
X122683815Y-73178815D01*
X122604463Y-73275506D01*
X122545498Y-73385820D01*
X122509188Y-73505518D01*
X122496928Y-73630000D01*
X111351170Y-73630000D01*
X111388696Y-73539405D01*
X111440000Y-73281486D01*
X111440000Y-73018514D01*
X111388696Y-72760595D01*
X111288061Y-72517641D01*
X111141962Y-72298987D01*
X110956013Y-72113038D01*
X110737359Y-71966939D01*
X110494405Y-71866304D01*
X110236486Y-71815000D01*
X109973514Y-71815000D01*
X109715595Y-71866304D01*
X109472641Y-71966939D01*
X109253987Y-72113038D01*
X109068038Y-72298987D01*
X108921939Y-72517641D01*
X108821304Y-72760595D01*
X108770000Y-73018514D01*
X105813793Y-73018514D01*
X106039312Y-72917683D01*
X106210159Y-72576955D01*
X106311250Y-72209443D01*
X106338701Y-71829271D01*
X106291457Y-71451049D01*
X106171333Y-71089310D01*
X106039312Y-70842317D01*
X105744224Y-70710381D01*
X104574605Y-71880000D01*
X104215395Y-71880000D01*
X103045776Y-70710381D01*
X102750688Y-70842317D01*
X102579841Y-71183045D01*
X102478750Y-71550557D01*
X102451299Y-71930729D01*
X102454075Y-71952953D01*
X102405666Y-71904544D01*
X102035511Y-71657214D01*
X101624218Y-71486851D01*
X101187591Y-71400000D01*
X100742409Y-71400000D01*
X100305782Y-71486851D01*
X99894489Y-71657214D01*
X99524334Y-71904544D01*
X99209544Y-72219334D01*
X98962214Y-72589489D01*
X98791851Y-73000782D01*
X98705000Y-73437409D01*
X93903000Y-73437409D01*
X93903000Y-70530776D01*
X103225381Y-70530776D01*
X104395000Y-71700395D01*
X105564619Y-70530776D01*
X105432683Y-70235688D01*
X105091955Y-70064841D01*
X104724443Y-69963750D01*
X104344271Y-69936299D01*
X103966049Y-69983543D01*
X103604310Y-70103667D01*
X103357317Y-70235688D01*
X103225381Y-70530776D01*
X93903000Y-70530776D01*
X93903000Y-68630000D01*
X148302361Y-68630000D01*
X148336000Y-68633313D01*
X148369639Y-68630000D01*
X148369647Y-68630000D01*
X148470283Y-68620088D01*
X148599406Y-68580919D01*
X148718407Y-68517312D01*
X148822711Y-68431711D01*
X148844158Y-68405578D01*
X159541736Y-57708000D01*
X190069000Y-57708000D01*
X190069001Y-123394000D01*
G37*
G04 #@! TD.AperFunction*
D24*
X137911525Y-87941632D02*
X138118368Y-88148475D01*
X138361589Y-88310990D01*
X138631842Y-88422932D01*
X138918740Y-88480000D01*
X139211260Y-88480000D01*
X139498158Y-88422932D01*
X139768411Y-88310990D01*
X140011632Y-88148475D01*
X140143487Y-88016620D01*
X140165498Y-88089180D01*
X140224463Y-88199494D01*
X140303815Y-88296185D01*
X140400506Y-88375537D01*
X140510820Y-88434502D01*
X140630518Y-88470812D01*
X140755000Y-88483072D01*
X142371000Y-88483072D01*
X142371000Y-89104921D01*
X139339952Y-92135970D01*
X139306185Y-92163682D01*
X139278472Y-92197450D01*
X139278469Y-92197453D01*
X139195591Y-92298440D01*
X139113413Y-92452186D01*
X139062806Y-92619009D01*
X139045720Y-92792499D01*
X139050002Y-92835978D01*
X139050001Y-93619999D01*
X138702326Y-93619999D01*
X138665001Y-93616323D01*
X138627676Y-93619999D01*
X138627668Y-93619999D01*
X138516015Y-93630996D01*
X138372754Y-93674453D01*
X138240725Y-93745025D01*
X138125000Y-93839998D01*
X138101202Y-93868996D01*
X134940199Y-97030000D01*
X134254013Y-97030000D01*
X134267205Y-97010256D01*
X134345226Y-96821898D01*
X134385000Y-96621939D01*
X134385000Y-96418061D01*
X134345226Y-96218102D01*
X134267205Y-96029744D01*
X134153937Y-95860226D01*
X134110000Y-95816289D01*
X134110000Y-90484801D01*
X136158592Y-88436210D01*
X136378740Y-88480000D01*
X136671260Y-88480000D01*
X136958158Y-88422932D01*
X137228411Y-88310990D01*
X137471632Y-88148475D01*
X137678475Y-87941632D01*
X137795000Y-87767240D01*
X137911525Y-87941632D01*
G04 #@! TA.AperFunction,Conductor*
D25*
G36*
X137911525Y-87941632D02*
G01*
X138118368Y-88148475D01*
X138361589Y-88310990D01*
X138631842Y-88422932D01*
X138918740Y-88480000D01*
X139211260Y-88480000D01*
X139498158Y-88422932D01*
X139768411Y-88310990D01*
X140011632Y-88148475D01*
X140143487Y-88016620D01*
X140165498Y-88089180D01*
X140224463Y-88199494D01*
X140303815Y-88296185D01*
X140400506Y-88375537D01*
X140510820Y-88434502D01*
X140630518Y-88470812D01*
X140755000Y-88483072D01*
X142371000Y-88483072D01*
X142371000Y-89104921D01*
X139339952Y-92135970D01*
X139306185Y-92163682D01*
X139278472Y-92197450D01*
X139278469Y-92197453D01*
X139195591Y-92298440D01*
X139113413Y-92452186D01*
X139062806Y-92619009D01*
X139045720Y-92792499D01*
X139050002Y-92835978D01*
X139050001Y-93619999D01*
X138702326Y-93619999D01*
X138665001Y-93616323D01*
X138627676Y-93619999D01*
X138627668Y-93619999D01*
X138516015Y-93630996D01*
X138372754Y-93674453D01*
X138240725Y-93745025D01*
X138125000Y-93839998D01*
X138101202Y-93868996D01*
X134940199Y-97030000D01*
X134254013Y-97030000D01*
X134267205Y-97010256D01*
X134345226Y-96821898D01*
X134385000Y-96621939D01*
X134385000Y-96418061D01*
X134345226Y-96218102D01*
X134267205Y-96029744D01*
X134153937Y-95860226D01*
X134110000Y-95816289D01*
X134110000Y-90484801D01*
X136158592Y-88436210D01*
X136378740Y-88480000D01*
X136671260Y-88480000D01*
X136958158Y-88422932D01*
X137228411Y-88310990D01*
X137471632Y-88148475D01*
X137678475Y-87941632D01*
X137795000Y-87767240D01*
X137911525Y-87941632D01*
G37*
G04 #@! TD.AperFunction*
M02*
