G04 #@! TF.GenerationSoftware,KiCad,Pcbnew,(5.1.9)-1*
G04 #@! TF.CreationDate,2021-06-10T00:16:51+02:00*
G04 #@! TF.ProjectId,shield,73686965-6c64-42e6-9b69-6361645f7063,rev?*
G04 #@! TF.SameCoordinates,Original*
G04 #@! TF.FileFunction,Copper,L2,Bot*
G04 #@! TF.FilePolarity,Positive*
%FSLAX46Y46*%
G04 Gerber Fmt 4.6, Leading zero omitted, Abs format (unit mm)*
G04 Created by KiCad (PCBNEW (5.1.9)-1) date 2021-06-10 00:16:51*
%MOMM*%
%LPD*%
G01*
G04 APERTURE LIST*
G04 #@! TA.AperFunction,ComponentPad*
%ADD10R,1.700000X1.700000*%
G04 #@! TD*
G04 #@! TA.AperFunction,ComponentPad*
%ADD11O,1.700000X1.700000*%
G04 #@! TD*
G04 #@! TA.AperFunction,ComponentPad*
%ADD12O,2.400000X1.600000*%
G04 #@! TD*
G04 #@! TA.AperFunction,ComponentPad*
%ADD13R,2.400000X1.600000*%
G04 #@! TD*
G04 #@! TA.AperFunction,ComponentPad*
%ADD14C,1.400000*%
G04 #@! TD*
G04 #@! TA.AperFunction,ComponentPad*
%ADD15C,2.600000*%
G04 #@! TD*
G04 #@! TA.AperFunction,ComponentPad*
%ADD16O,1.727200X2.032000*%
G04 #@! TD*
G04 #@! TA.AperFunction,ViaPad*
%ADD17C,0.600000*%
G04 #@! TD*
G04 #@! TA.AperFunction,Conductor*
%ADD18C,0.250000*%
G04 #@! TD*
G04 #@! TA.AperFunction,Conductor*
%ADD19C,0.254000*%
G04 #@! TD*
G04 #@! TA.AperFunction,Conductor*
%ADD20C,0.100000*%
G04 #@! TD*
G04 APERTURE END LIST*
D10*
X130683000Y-97155000D03*
D11*
X128143000Y-97155000D03*
X130683000Y-99695000D03*
X128143000Y-99695000D03*
X130683000Y-102235000D03*
X128143000Y-102235000D03*
D12*
X138938000Y-116840000D03*
X146558000Y-109220000D03*
X138938000Y-114300000D03*
X146558000Y-111760000D03*
X138938000Y-111760000D03*
X146558000Y-114300000D03*
X138938000Y-109220000D03*
D13*
X146558000Y-116840000D03*
D12*
X138938000Y-90805000D03*
X146558000Y-83185000D03*
X138938000Y-88265000D03*
X146558000Y-85725000D03*
X138938000Y-85725000D03*
X146558000Y-88265000D03*
X138938000Y-83185000D03*
D13*
X146558000Y-90805000D03*
D14*
X158373000Y-116090000D03*
X158373000Y-113800000D03*
X158373000Y-104660000D03*
X158373000Y-102370000D03*
X163193000Y-112800000D03*
X164973000Y-111780000D03*
X163193000Y-110760000D03*
X164973000Y-109740000D03*
X163193000Y-108720000D03*
X164973000Y-107700000D03*
X163193000Y-106680000D03*
X164973000Y-105660000D03*
D15*
X164083000Y-101100000D03*
X164083000Y-117360000D03*
D14*
X158373000Y-95760000D03*
X158373000Y-93470000D03*
X158373000Y-84330000D03*
X158373000Y-82040000D03*
X163193000Y-92470000D03*
X164973000Y-91450000D03*
X163193000Y-90430000D03*
X164973000Y-89410000D03*
X163193000Y-88390000D03*
X164973000Y-87370000D03*
X163193000Y-86350000D03*
X164973000Y-85330000D03*
D15*
X164083000Y-80770000D03*
X164083000Y-97030000D03*
D16*
X138938000Y-123825000D03*
X141478000Y-123825000D03*
X144018000Y-123825000D03*
X146558000Y-123825000D03*
X149098000Y-123825000D03*
X151638000Y-123825000D03*
X154178000Y-123825000D03*
X156718000Y-123825000D03*
X161798000Y-123825000D03*
X164338000Y-123825000D03*
X166878000Y-123825000D03*
X169418000Y-123825000D03*
X171958000Y-123825000D03*
X174498000Y-123825000D03*
X129794000Y-75565000D03*
X132334000Y-75565000D03*
X134874000Y-75565000D03*
X137414000Y-75565000D03*
X139954000Y-75565000D03*
X142494000Y-75565000D03*
X145034000Y-75565000D03*
X147574000Y-75565000D03*
X150114000Y-75565000D03*
X152654000Y-75565000D03*
X156718000Y-75565000D03*
X159258000Y-75565000D03*
X161798000Y-75565000D03*
X164338000Y-75565000D03*
X166878000Y-75565000D03*
X169418000Y-75565000D03*
X171958000Y-75565000D03*
X174498000Y-75565000D03*
D17*
X137668000Y-97155000D03*
X153543000Y-88900000D03*
X147828000Y-93980000D03*
X137668000Y-99695000D03*
X152060500Y-96307500D03*
X148463000Y-97790000D03*
X151574001Y-92646001D03*
D18*
X138938000Y-111760000D02*
X140843000Y-111760000D01*
X140843000Y-111760000D02*
X142748000Y-109855000D01*
X142748000Y-109855000D02*
X142748000Y-86995000D01*
X141478000Y-85725000D02*
X138938000Y-85725000D01*
X142748000Y-86995000D02*
X141478000Y-85725000D01*
X156718000Y-77470000D02*
X170053000Y-77470000D01*
X170053000Y-77470000D02*
X171958000Y-75565000D01*
X152908000Y-81280000D02*
X156718000Y-77470000D01*
X137307498Y-81280000D02*
X152908000Y-81280000D01*
X134493000Y-84094498D02*
X137307498Y-81280000D01*
X134493000Y-93980000D02*
X134493000Y-84094498D01*
X137668000Y-97155000D02*
X134493000Y-93980000D01*
X139954000Y-77089000D02*
X139954000Y-75565000D01*
X129507999Y-87535001D02*
X139954000Y-77089000D01*
X129507999Y-98519999D02*
X129507999Y-87535001D01*
X130683000Y-99695000D02*
X129507999Y-98519999D01*
X141668500Y-75565000D02*
X142494000Y-75565000D01*
X141142610Y-76209738D02*
X141142610Y-76090890D01*
X140446338Y-76906010D02*
X141142610Y-76209738D01*
X140404010Y-76906010D02*
X140446338Y-76906010D01*
X140404010Y-77275400D02*
X140404010Y-76906010D01*
X130683000Y-86996410D02*
X140404010Y-77275400D01*
X141142610Y-76090890D02*
X141668500Y-75565000D01*
X130683000Y-97155000D02*
X130683000Y-86996410D01*
X159518000Y-94615000D02*
X158373000Y-93470000D01*
X164973000Y-94615000D02*
X159518000Y-94615000D01*
X165998001Y-93589999D02*
X164973000Y-94615000D01*
X165998001Y-90435001D02*
X165998001Y-93589999D01*
X164973000Y-89410000D02*
X165998001Y-90435001D01*
X153418000Y-86995000D02*
X158373000Y-82040000D01*
X146558000Y-86995000D02*
X153418000Y-86995000D01*
X146558000Y-88265000D02*
X146558000Y-86995000D01*
X146558000Y-86995000D02*
X146558000Y-85725000D01*
X159072999Y-82739999D02*
X158373000Y-82040000D01*
X165998001Y-84837999D02*
X163900001Y-82739999D01*
X163900001Y-82739999D02*
X159072999Y-82739999D01*
X165998001Y-88384999D02*
X165998001Y-84837999D01*
X164973000Y-89410000D02*
X165998001Y-88384999D01*
X159623000Y-88900000D02*
X153543000Y-88900000D01*
X163193000Y-92470000D02*
X159623000Y-88900000D01*
X158441002Y-92021000D02*
X149787000Y-92021000D01*
X159915003Y-93495001D02*
X158441002Y-92021000D01*
X163917948Y-93495001D02*
X159915003Y-93495001D01*
X164973000Y-92439949D02*
X163917948Y-93495001D01*
X164973000Y-91450000D02*
X164973000Y-92439949D01*
X149787000Y-92021000D02*
X147828000Y-93980000D01*
X149098000Y-120015000D02*
X149098000Y-123825000D01*
X157727949Y-120015000D02*
X149098000Y-120015000D01*
X164973000Y-112769949D02*
X157727949Y-120015000D01*
X164973000Y-111780000D02*
X164973000Y-112769949D01*
X125603000Y-99695000D02*
X128143000Y-97155000D01*
X136398000Y-100965000D02*
X125603000Y-100965000D01*
X125603000Y-100965000D02*
X125603000Y-99695000D01*
X137668000Y-99695000D02*
X136398000Y-100965000D01*
X125603000Y-107315000D02*
X125603000Y-100965000D01*
X138303000Y-120015000D02*
X125603000Y-107315000D01*
X149098000Y-120015000D02*
X138303000Y-120015000D01*
X163193000Y-105690051D02*
X153810449Y-96307500D01*
X153810449Y-96307500D02*
X152060500Y-96307500D01*
X163193000Y-106680000D02*
X163193000Y-105690051D01*
X161433000Y-110760000D02*
X148463000Y-97790000D01*
X163193000Y-110760000D02*
X161433000Y-110760000D01*
X163562999Y-104634999D02*
X151574001Y-92646001D01*
X165465001Y-104634999D02*
X163562999Y-104634999D01*
X165998001Y-105167999D02*
X165465001Y-104634999D01*
X164973000Y-107700000D02*
X165998001Y-106674999D01*
X165998001Y-106674999D02*
X165998001Y-105167999D01*
X158373000Y-113800000D02*
X151138000Y-113800000D01*
X151138000Y-113800000D02*
X150368000Y-113030000D01*
X150368000Y-113030000D02*
X147828000Y-113030000D01*
X147828000Y-113030000D02*
X146558000Y-113030000D01*
X146558000Y-113030000D02*
X146558000Y-114300000D01*
X146558000Y-113030000D02*
X146558000Y-111760000D01*
X138938000Y-88265000D02*
X141478000Y-88265000D01*
X141478000Y-88265000D02*
X142113000Y-88900000D01*
X142113000Y-88900000D02*
X142113000Y-109220000D01*
X138072006Y-110634990D02*
X137033000Y-111673996D01*
X140698010Y-110634990D02*
X138072006Y-110634990D01*
X142113000Y-109220000D02*
X140698010Y-110634990D01*
X137033000Y-111673996D02*
X137033000Y-113665000D01*
X137668000Y-114300000D02*
X138938000Y-114300000D01*
X137033000Y-113665000D02*
X137668000Y-114300000D01*
D19*
X176328000Y-86013876D02*
X176328001Y-86013886D01*
X176328000Y-123859876D01*
X176328001Y-123859886D01*
X176328000Y-125655000D01*
X136692091Y-125655000D01*
X125043000Y-114005909D01*
X125043000Y-107830632D01*
X125062999Y-107855001D01*
X125092003Y-107878804D01*
X137739201Y-120526003D01*
X137762999Y-120555001D01*
X137878724Y-120649974D01*
X138010753Y-120720546D01*
X138154014Y-120764003D01*
X138265667Y-120775000D01*
X138265676Y-120775000D01*
X138302999Y-120778676D01*
X138340322Y-120775000D01*
X148338000Y-120775000D01*
X148338001Y-122379584D01*
X148261394Y-122420531D01*
X148033203Y-122607803D01*
X147845931Y-122835995D01*
X147828000Y-122869541D01*
X147810069Y-122835994D01*
X147622797Y-122607803D01*
X147394605Y-122420531D01*
X147134263Y-122281375D01*
X146851776Y-122195684D01*
X146558000Y-122166749D01*
X146264223Y-122195684D01*
X145981736Y-122281375D01*
X145721394Y-122420531D01*
X145493203Y-122607803D01*
X145305931Y-122835995D01*
X145288000Y-122869541D01*
X145270069Y-122835994D01*
X145082797Y-122607803D01*
X144854605Y-122420531D01*
X144594263Y-122281375D01*
X144311776Y-122195684D01*
X144018000Y-122166749D01*
X143724223Y-122195684D01*
X143441736Y-122281375D01*
X143181394Y-122420531D01*
X142953203Y-122607803D01*
X142765931Y-122835995D01*
X142748000Y-122869541D01*
X142730069Y-122835994D01*
X142542797Y-122607803D01*
X142314605Y-122420531D01*
X142054263Y-122281375D01*
X141771776Y-122195684D01*
X141478000Y-122166749D01*
X141184223Y-122195684D01*
X140901736Y-122281375D01*
X140641394Y-122420531D01*
X140413203Y-122607803D01*
X140225931Y-122835995D01*
X140208000Y-122869541D01*
X140190069Y-122835994D01*
X140002797Y-122607803D01*
X139774605Y-122420531D01*
X139514263Y-122281375D01*
X139231776Y-122195684D01*
X138938000Y-122166749D01*
X138644223Y-122195684D01*
X138361736Y-122281375D01*
X138101394Y-122420531D01*
X137873203Y-122607803D01*
X137685931Y-122835995D01*
X137546775Y-123096337D01*
X137461084Y-123378824D01*
X137439400Y-123598982D01*
X137439400Y-124051019D01*
X137461084Y-124271177D01*
X137546775Y-124553664D01*
X137685931Y-124814006D01*
X137873203Y-125042197D01*
X138101395Y-125229469D01*
X138361737Y-125368625D01*
X138644224Y-125454316D01*
X138938000Y-125483251D01*
X139231777Y-125454316D01*
X139514264Y-125368625D01*
X139774606Y-125229469D01*
X140002797Y-125042197D01*
X140190069Y-124814006D01*
X140208000Y-124780459D01*
X140225931Y-124814006D01*
X140413203Y-125042197D01*
X140641395Y-125229469D01*
X140901737Y-125368625D01*
X141184224Y-125454316D01*
X141478000Y-125483251D01*
X141771777Y-125454316D01*
X142054264Y-125368625D01*
X142314606Y-125229469D01*
X142542797Y-125042197D01*
X142730069Y-124814006D01*
X142748000Y-124780459D01*
X142765931Y-124814006D01*
X142953203Y-125042197D01*
X143181395Y-125229469D01*
X143441737Y-125368625D01*
X143724224Y-125454316D01*
X144018000Y-125483251D01*
X144311777Y-125454316D01*
X144594264Y-125368625D01*
X144854606Y-125229469D01*
X145082797Y-125042197D01*
X145270069Y-124814006D01*
X145288000Y-124780459D01*
X145305931Y-124814006D01*
X145493203Y-125042197D01*
X145721395Y-125229469D01*
X145981737Y-125368625D01*
X146264224Y-125454316D01*
X146558000Y-125483251D01*
X146851777Y-125454316D01*
X147134264Y-125368625D01*
X147394606Y-125229469D01*
X147622797Y-125042197D01*
X147810069Y-124814006D01*
X147828000Y-124780459D01*
X147845931Y-124814006D01*
X148033203Y-125042197D01*
X148261395Y-125229469D01*
X148521737Y-125368625D01*
X148804224Y-125454316D01*
X149098000Y-125483251D01*
X149391777Y-125454316D01*
X149674264Y-125368625D01*
X149934606Y-125229469D01*
X150162797Y-125042197D01*
X150350069Y-124814006D01*
X150371424Y-124774053D01*
X150519514Y-124976729D01*
X150735965Y-125175733D01*
X150987081Y-125328686D01*
X151263211Y-125429709D01*
X151278974Y-125432358D01*
X151511000Y-125311217D01*
X151511000Y-123952000D01*
X151765000Y-123952000D01*
X151765000Y-125311217D01*
X151997026Y-125432358D01*
X152012789Y-125429709D01*
X152288919Y-125328686D01*
X152540035Y-125175733D01*
X152756486Y-124976729D01*
X152908000Y-124769367D01*
X153059514Y-124976729D01*
X153275965Y-125175733D01*
X153527081Y-125328686D01*
X153803211Y-125429709D01*
X153818974Y-125432358D01*
X154051000Y-125311217D01*
X154051000Y-123952000D01*
X151765000Y-123952000D01*
X151511000Y-123952000D01*
X151491000Y-123952000D01*
X151491000Y-123698000D01*
X151511000Y-123698000D01*
X151511000Y-122338783D01*
X151765000Y-122338783D01*
X151765000Y-123698000D01*
X154051000Y-123698000D01*
X154051000Y-122338783D01*
X154305000Y-122338783D01*
X154305000Y-123698000D01*
X154325000Y-123698000D01*
X154325000Y-123952000D01*
X154305000Y-123952000D01*
X154305000Y-125311217D01*
X154537026Y-125432358D01*
X154552789Y-125429709D01*
X154828919Y-125328686D01*
X155080035Y-125175733D01*
X155296486Y-124976729D01*
X155444576Y-124774053D01*
X155465931Y-124814006D01*
X155653203Y-125042197D01*
X155881395Y-125229469D01*
X156141737Y-125368625D01*
X156424224Y-125454316D01*
X156718000Y-125483251D01*
X157011777Y-125454316D01*
X157294264Y-125368625D01*
X157554606Y-125229469D01*
X157782797Y-125042197D01*
X157970069Y-124814006D01*
X158109225Y-124553663D01*
X158194916Y-124271176D01*
X158216600Y-124051018D01*
X158216600Y-123598982D01*
X160299400Y-123598982D01*
X160299400Y-124051019D01*
X160321084Y-124271177D01*
X160406775Y-124553664D01*
X160545931Y-124814006D01*
X160733203Y-125042197D01*
X160961395Y-125229469D01*
X161221737Y-125368625D01*
X161504224Y-125454316D01*
X161798000Y-125483251D01*
X162091777Y-125454316D01*
X162374264Y-125368625D01*
X162634606Y-125229469D01*
X162862797Y-125042197D01*
X163050069Y-124814006D01*
X163068000Y-124780459D01*
X163085931Y-124814006D01*
X163273203Y-125042197D01*
X163501395Y-125229469D01*
X163761737Y-125368625D01*
X164044224Y-125454316D01*
X164338000Y-125483251D01*
X164631777Y-125454316D01*
X164914264Y-125368625D01*
X165174606Y-125229469D01*
X165402797Y-125042197D01*
X165590069Y-124814006D01*
X165608000Y-124780459D01*
X165625931Y-124814006D01*
X165813203Y-125042197D01*
X166041395Y-125229469D01*
X166301737Y-125368625D01*
X166584224Y-125454316D01*
X166878000Y-125483251D01*
X167171777Y-125454316D01*
X167454264Y-125368625D01*
X167714606Y-125229469D01*
X167942797Y-125042197D01*
X168130069Y-124814006D01*
X168148000Y-124780459D01*
X168165931Y-124814006D01*
X168353203Y-125042197D01*
X168581395Y-125229469D01*
X168841737Y-125368625D01*
X169124224Y-125454316D01*
X169418000Y-125483251D01*
X169711777Y-125454316D01*
X169994264Y-125368625D01*
X170254606Y-125229469D01*
X170482797Y-125042197D01*
X170670069Y-124814006D01*
X170688000Y-124780459D01*
X170705931Y-124814006D01*
X170893203Y-125042197D01*
X171121395Y-125229469D01*
X171381737Y-125368625D01*
X171664224Y-125454316D01*
X171958000Y-125483251D01*
X172251777Y-125454316D01*
X172534264Y-125368625D01*
X172794606Y-125229469D01*
X173022797Y-125042197D01*
X173210069Y-124814006D01*
X173228000Y-124780459D01*
X173245931Y-124814006D01*
X173433203Y-125042197D01*
X173661395Y-125229469D01*
X173921737Y-125368625D01*
X174204224Y-125454316D01*
X174498000Y-125483251D01*
X174791777Y-125454316D01*
X175074264Y-125368625D01*
X175334606Y-125229469D01*
X175562797Y-125042197D01*
X175750069Y-124814006D01*
X175889225Y-124553663D01*
X175974916Y-124271176D01*
X175996600Y-124051018D01*
X175996600Y-123598981D01*
X175974916Y-123378823D01*
X175889225Y-123096336D01*
X175750069Y-122835994D01*
X175562797Y-122607803D01*
X175334605Y-122420531D01*
X175074263Y-122281375D01*
X174791776Y-122195684D01*
X174498000Y-122166749D01*
X174204223Y-122195684D01*
X173921736Y-122281375D01*
X173661394Y-122420531D01*
X173433203Y-122607803D01*
X173245931Y-122835995D01*
X173228000Y-122869541D01*
X173210069Y-122835994D01*
X173022797Y-122607803D01*
X172794605Y-122420531D01*
X172534263Y-122281375D01*
X172251776Y-122195684D01*
X171958000Y-122166749D01*
X171664223Y-122195684D01*
X171381736Y-122281375D01*
X171121394Y-122420531D01*
X170893203Y-122607803D01*
X170705931Y-122835995D01*
X170688000Y-122869541D01*
X170670069Y-122835994D01*
X170482797Y-122607803D01*
X170254605Y-122420531D01*
X169994263Y-122281375D01*
X169711776Y-122195684D01*
X169418000Y-122166749D01*
X169124223Y-122195684D01*
X168841736Y-122281375D01*
X168581394Y-122420531D01*
X168353203Y-122607803D01*
X168165931Y-122835995D01*
X168148000Y-122869541D01*
X168130069Y-122835994D01*
X167942797Y-122607803D01*
X167714605Y-122420531D01*
X167454263Y-122281375D01*
X167171776Y-122195684D01*
X166878000Y-122166749D01*
X166584223Y-122195684D01*
X166301736Y-122281375D01*
X166041394Y-122420531D01*
X165813203Y-122607803D01*
X165625931Y-122835995D01*
X165608000Y-122869541D01*
X165590069Y-122835994D01*
X165402797Y-122607803D01*
X165174605Y-122420531D01*
X164914263Y-122281375D01*
X164631776Y-122195684D01*
X164338000Y-122166749D01*
X164044223Y-122195684D01*
X163761736Y-122281375D01*
X163501394Y-122420531D01*
X163273203Y-122607803D01*
X163085931Y-122835995D01*
X163068000Y-122869541D01*
X163050069Y-122835994D01*
X162862797Y-122607803D01*
X162634605Y-122420531D01*
X162374263Y-122281375D01*
X162091776Y-122195684D01*
X161798000Y-122166749D01*
X161504223Y-122195684D01*
X161221736Y-122281375D01*
X160961394Y-122420531D01*
X160733203Y-122607803D01*
X160545931Y-122835995D01*
X160406775Y-123096337D01*
X160321084Y-123378824D01*
X160299400Y-123598982D01*
X158216600Y-123598982D01*
X158216600Y-123598981D01*
X158194916Y-123378823D01*
X158109225Y-123096336D01*
X157970069Y-122835994D01*
X157782797Y-122607803D01*
X157554605Y-122420531D01*
X157294263Y-122281375D01*
X157011776Y-122195684D01*
X156718000Y-122166749D01*
X156424223Y-122195684D01*
X156141736Y-122281375D01*
X155881394Y-122420531D01*
X155653203Y-122607803D01*
X155465931Y-122835995D01*
X155444576Y-122875947D01*
X155296486Y-122673271D01*
X155080035Y-122474267D01*
X154828919Y-122321314D01*
X154552789Y-122220291D01*
X154537026Y-122217642D01*
X154305000Y-122338783D01*
X154051000Y-122338783D01*
X153818974Y-122217642D01*
X153803211Y-122220291D01*
X153527081Y-122321314D01*
X153275965Y-122474267D01*
X153059514Y-122673271D01*
X152908000Y-122880633D01*
X152756486Y-122673271D01*
X152540035Y-122474267D01*
X152288919Y-122321314D01*
X152012789Y-122220291D01*
X151997026Y-122217642D01*
X151765000Y-122338783D01*
X151511000Y-122338783D01*
X151278974Y-122217642D01*
X151263211Y-122220291D01*
X150987081Y-122321314D01*
X150735965Y-122474267D01*
X150519514Y-122673271D01*
X150371424Y-122875947D01*
X150350069Y-122835994D01*
X150162797Y-122607803D01*
X149934605Y-122420531D01*
X149858000Y-122379585D01*
X149858000Y-120775000D01*
X157690627Y-120775000D01*
X157727949Y-120778676D01*
X157765271Y-120775000D01*
X157765282Y-120775000D01*
X157876935Y-120764003D01*
X158020196Y-120720546D01*
X158152225Y-120649974D01*
X158267950Y-120555001D01*
X158291753Y-120525997D01*
X160108526Y-118709224D01*
X162913381Y-118709224D01*
X163045317Y-119004312D01*
X163386045Y-119175159D01*
X163753557Y-119276250D01*
X164133729Y-119303701D01*
X164511951Y-119256457D01*
X164873690Y-119136333D01*
X165120683Y-119004312D01*
X165252619Y-118709224D01*
X164083000Y-117539605D01*
X162913381Y-118709224D01*
X160108526Y-118709224D01*
X162381619Y-116436132D01*
X162267841Y-116663045D01*
X162166750Y-117030557D01*
X162139299Y-117410729D01*
X162186543Y-117788951D01*
X162306667Y-118150690D01*
X162438688Y-118397683D01*
X162733776Y-118529619D01*
X163903395Y-117360000D01*
X163889253Y-117345858D01*
X164068858Y-117166253D01*
X164083000Y-117180395D01*
X164097143Y-117166253D01*
X164276748Y-117345858D01*
X164262605Y-117360000D01*
X165432224Y-118529619D01*
X165727312Y-118397683D01*
X165898159Y-118056955D01*
X165999250Y-117689443D01*
X166026701Y-117309271D01*
X166023925Y-117287047D01*
X166072334Y-117335456D01*
X166442489Y-117582786D01*
X166853782Y-117753149D01*
X167290409Y-117840000D01*
X167735591Y-117840000D01*
X168172218Y-117753149D01*
X168583511Y-117582786D01*
X168953666Y-117335456D01*
X169268456Y-117020666D01*
X169515786Y-116650511D01*
X169686149Y-116239218D01*
X169773000Y-115802591D01*
X169773000Y-115357409D01*
X169686149Y-114920782D01*
X169515786Y-114509489D01*
X169268456Y-114139334D01*
X168953666Y-113824544D01*
X168583511Y-113577214D01*
X168172218Y-113406851D01*
X167735591Y-113320000D01*
X167290409Y-113320000D01*
X166853782Y-113406851D01*
X166442489Y-113577214D01*
X166072334Y-113824544D01*
X165757544Y-114139334D01*
X165510214Y-114509489D01*
X165339851Y-114920782D01*
X165253000Y-115357409D01*
X165253000Y-115802591D01*
X165287477Y-115975915D01*
X165252618Y-116010774D01*
X165120683Y-115715688D01*
X164779955Y-115544841D01*
X164412443Y-115443750D01*
X164032271Y-115416299D01*
X163654049Y-115463543D01*
X163292310Y-115583667D01*
X163167225Y-115650527D01*
X165484008Y-113333744D01*
X165513001Y-113309950D01*
X165536795Y-113280957D01*
X165536799Y-113280953D01*
X165607973Y-113194226D01*
X165610550Y-113189405D01*
X165678546Y-113062196D01*
X165722003Y-112918935D01*
X165725568Y-112882740D01*
X165824013Y-112816962D01*
X166009962Y-112631013D01*
X166156061Y-112412359D01*
X166256696Y-112169405D01*
X166308000Y-111911486D01*
X166308000Y-111648514D01*
X166256696Y-111390595D01*
X166156061Y-111147641D01*
X166009962Y-110928987D01*
X165840975Y-110760000D01*
X166009962Y-110591013D01*
X166156061Y-110372359D01*
X166256696Y-110129405D01*
X166308000Y-109871486D01*
X166308000Y-109608514D01*
X166256696Y-109350595D01*
X166156061Y-109107641D01*
X166009962Y-108888987D01*
X165840975Y-108720000D01*
X166009962Y-108551013D01*
X166156061Y-108332359D01*
X166256696Y-108089405D01*
X166308000Y-107831486D01*
X166308000Y-107568514D01*
X166286645Y-107461157D01*
X166509005Y-107238797D01*
X166538002Y-107215000D01*
X166632975Y-107099275D01*
X166703547Y-106967246D01*
X166747004Y-106823985D01*
X166758001Y-106712332D01*
X166758001Y-106712323D01*
X166761677Y-106675000D01*
X166758001Y-106637677D01*
X166758001Y-105205322D01*
X166761677Y-105167999D01*
X166758001Y-105130676D01*
X166758001Y-105130666D01*
X166747004Y-105019013D01*
X166743502Y-105007470D01*
X166853782Y-105053149D01*
X167290409Y-105140000D01*
X167735591Y-105140000D01*
X168172218Y-105053149D01*
X168583511Y-104882786D01*
X168953666Y-104635456D01*
X169268456Y-104320666D01*
X169515786Y-103950511D01*
X169686149Y-103539218D01*
X169773000Y-103102591D01*
X169773000Y-102657409D01*
X169686149Y-102220782D01*
X169515786Y-101809489D01*
X169268456Y-101439334D01*
X168953666Y-101124544D01*
X168583511Y-100877214D01*
X168172218Y-100706851D01*
X167735591Y-100620000D01*
X167290409Y-100620000D01*
X166853782Y-100706851D01*
X166442489Y-100877214D01*
X166072334Y-101124544D01*
X166017291Y-101179587D01*
X166026701Y-101049271D01*
X165979457Y-100671049D01*
X165859333Y-100309310D01*
X165727312Y-100062317D01*
X165432224Y-99930381D01*
X164262605Y-101100000D01*
X164276748Y-101114143D01*
X164097143Y-101293748D01*
X164083000Y-101279605D01*
X162913381Y-102449224D01*
X163045317Y-102744312D01*
X163386045Y-102915159D01*
X163753557Y-103016250D01*
X164133729Y-103043701D01*
X164511951Y-102996457D01*
X164873690Y-102876333D01*
X165120683Y-102744312D01*
X165252618Y-102449226D01*
X165287477Y-102484085D01*
X165253000Y-102657409D01*
X165253000Y-103102591D01*
X165339851Y-103539218D01*
X165477941Y-103872598D01*
X165465001Y-103871323D01*
X165427679Y-103874999D01*
X163877801Y-103874999D01*
X161153531Y-101150729D01*
X162139299Y-101150729D01*
X162186543Y-101528951D01*
X162306667Y-101890690D01*
X162438688Y-102137683D01*
X162733776Y-102269619D01*
X163903395Y-101100000D01*
X162733776Y-99930381D01*
X162438688Y-100062317D01*
X162267841Y-100403045D01*
X162166750Y-100770557D01*
X162139299Y-101150729D01*
X161153531Y-101150729D01*
X159753578Y-99750776D01*
X162913381Y-99750776D01*
X164083000Y-100920395D01*
X165252619Y-99750776D01*
X165120683Y-99455688D01*
X164779955Y-99284841D01*
X164412443Y-99183750D01*
X164032271Y-99156299D01*
X163654049Y-99203543D01*
X163292310Y-99323667D01*
X163045317Y-99455688D01*
X162913381Y-99750776D01*
X159753578Y-99750776D01*
X158382026Y-98379224D01*
X162913381Y-98379224D01*
X163045317Y-98674312D01*
X163386045Y-98845159D01*
X163753557Y-98946250D01*
X164133729Y-98973701D01*
X164511951Y-98926457D01*
X164873690Y-98806333D01*
X165120683Y-98674312D01*
X165252619Y-98379224D01*
X164083000Y-97209605D01*
X162913381Y-98379224D01*
X158382026Y-98379224D01*
X152783801Y-92781000D01*
X157227785Y-92781000D01*
X157189939Y-92837641D01*
X157089304Y-93080595D01*
X157038000Y-93338514D01*
X157038000Y-93601486D01*
X157089304Y-93859405D01*
X157189939Y-94102359D01*
X157336038Y-94321013D01*
X157521987Y-94506962D01*
X157683678Y-94615000D01*
X157521987Y-94723038D01*
X157336038Y-94908987D01*
X157189939Y-95127641D01*
X157089304Y-95370595D01*
X157038000Y-95628514D01*
X157038000Y-95891486D01*
X157089304Y-96149405D01*
X157189939Y-96392359D01*
X157336038Y-96611013D01*
X157521987Y-96796962D01*
X157740641Y-96943061D01*
X157983595Y-97043696D01*
X158241514Y-97095000D01*
X158504486Y-97095000D01*
X158576230Y-97080729D01*
X162139299Y-97080729D01*
X162186543Y-97458951D01*
X162306667Y-97820690D01*
X162438688Y-98067683D01*
X162733776Y-98199619D01*
X163903395Y-97030000D01*
X162733776Y-95860381D01*
X162438688Y-95992317D01*
X162267841Y-96333045D01*
X162166750Y-96700557D01*
X162139299Y-97080729D01*
X158576230Y-97080729D01*
X158762405Y-97043696D01*
X159005359Y-96943061D01*
X159224013Y-96796962D01*
X159409962Y-96611013D01*
X159556061Y-96392359D01*
X159656696Y-96149405D01*
X159708000Y-95891486D01*
X159708000Y-95628514D01*
X159657572Y-95375000D01*
X163065313Y-95375000D01*
X163045317Y-95385688D01*
X162913381Y-95680776D01*
X164083000Y-96850395D01*
X164097143Y-96836253D01*
X164276748Y-97015858D01*
X164262605Y-97030000D01*
X165432224Y-98199619D01*
X165727312Y-98067683D01*
X165898159Y-97726955D01*
X165999250Y-97359443D01*
X166026701Y-96979271D01*
X166023925Y-96957047D01*
X166072334Y-97005456D01*
X166442489Y-97252786D01*
X166853782Y-97423149D01*
X167290409Y-97510000D01*
X167735591Y-97510000D01*
X168172218Y-97423149D01*
X168583511Y-97252786D01*
X168953666Y-97005456D01*
X169268456Y-96690666D01*
X169515786Y-96320511D01*
X169686149Y-95909218D01*
X169773000Y-95472591D01*
X169773000Y-95027409D01*
X169686149Y-94590782D01*
X169515786Y-94179489D01*
X169268456Y-93809334D01*
X168953666Y-93494544D01*
X168583511Y-93247214D01*
X168172218Y-93076851D01*
X167735591Y-92990000D01*
X167290409Y-92990000D01*
X166853782Y-93076851D01*
X166758001Y-93116525D01*
X166758001Y-90472323D01*
X166761677Y-90435000D01*
X166758001Y-90397677D01*
X166758001Y-90397668D01*
X166747004Y-90286015D01*
X166703547Y-90142754D01*
X166632975Y-90010725D01*
X166538002Y-89895000D01*
X166509005Y-89871203D01*
X166286645Y-89648843D01*
X166308000Y-89541486D01*
X166308000Y-89278514D01*
X166286645Y-89171157D01*
X166509005Y-88948797D01*
X166538002Y-88925000D01*
X166632975Y-88809275D01*
X166703547Y-88677246D01*
X166747004Y-88533985D01*
X166758001Y-88422332D01*
X166758001Y-88422323D01*
X166761677Y-88385000D01*
X166758001Y-88347677D01*
X166758001Y-84875321D01*
X166761677Y-84837998D01*
X166758001Y-84800675D01*
X166758001Y-84800666D01*
X166747004Y-84689013D01*
X166743502Y-84677470D01*
X166853782Y-84723149D01*
X167290409Y-84810000D01*
X167735591Y-84810000D01*
X168172218Y-84723149D01*
X168583511Y-84552786D01*
X168953666Y-84305456D01*
X169268456Y-83990666D01*
X169515786Y-83620511D01*
X169686149Y-83209218D01*
X169773000Y-82772591D01*
X169773000Y-82327409D01*
X169686149Y-81890782D01*
X169515786Y-81479489D01*
X169268456Y-81109334D01*
X168953666Y-80794544D01*
X168583511Y-80547214D01*
X168172218Y-80376851D01*
X167735591Y-80290000D01*
X167290409Y-80290000D01*
X166853782Y-80376851D01*
X166442489Y-80547214D01*
X166072334Y-80794544D01*
X166017291Y-80849587D01*
X166026701Y-80719271D01*
X165979457Y-80341049D01*
X165859333Y-79979310D01*
X165727312Y-79732317D01*
X165432224Y-79600381D01*
X164262605Y-80770000D01*
X164276748Y-80784143D01*
X164097143Y-80963748D01*
X164083000Y-80949605D01*
X164068858Y-80963748D01*
X163889253Y-80784143D01*
X163903395Y-80770000D01*
X162733776Y-79600381D01*
X162438688Y-79732317D01*
X162267841Y-80073045D01*
X162166750Y-80440557D01*
X162139299Y-80820729D01*
X162186543Y-81198951D01*
X162306667Y-81560690D01*
X162438688Y-81807683D01*
X162733774Y-81939618D01*
X162693393Y-81979999D01*
X159708000Y-81979999D01*
X159708000Y-81908514D01*
X159656696Y-81650595D01*
X159556061Y-81407641D01*
X159409962Y-81188987D01*
X159224013Y-81003038D01*
X159005359Y-80856939D01*
X158762405Y-80756304D01*
X158504486Y-80705000D01*
X158241514Y-80705000D01*
X157983595Y-80756304D01*
X157740641Y-80856939D01*
X157521987Y-81003038D01*
X157336038Y-81188987D01*
X157189939Y-81407641D01*
X157089304Y-81650595D01*
X157038000Y-81908514D01*
X157038000Y-82171486D01*
X157059355Y-82278843D01*
X153103199Y-86235000D01*
X148302864Y-86235000D01*
X148372236Y-86006309D01*
X148399943Y-85725000D01*
X148372236Y-85443691D01*
X148290182Y-85173192D01*
X148156932Y-84923899D01*
X147977608Y-84705392D01*
X147759101Y-84526068D01*
X147626142Y-84455000D01*
X147759101Y-84383932D01*
X147977608Y-84204608D01*
X148156932Y-83986101D01*
X148290182Y-83736808D01*
X148372236Y-83466309D01*
X148399943Y-83185000D01*
X148372236Y-82903691D01*
X148290182Y-82633192D01*
X148156932Y-82383899D01*
X147977608Y-82165392D01*
X147824817Y-82040000D01*
X152870678Y-82040000D01*
X152908000Y-82043676D01*
X152945322Y-82040000D01*
X152945333Y-82040000D01*
X153056986Y-82029003D01*
X153200247Y-81985546D01*
X153332276Y-81914974D01*
X153448001Y-81820001D01*
X153471804Y-81790997D01*
X155842025Y-79420776D01*
X162913381Y-79420776D01*
X164083000Y-80590395D01*
X165252619Y-79420776D01*
X165120683Y-79125688D01*
X164779955Y-78954841D01*
X164412443Y-78853750D01*
X164032271Y-78826299D01*
X163654049Y-78873543D01*
X163292310Y-78993667D01*
X163045317Y-79125688D01*
X162913381Y-79420776D01*
X155842025Y-79420776D01*
X157032802Y-78230000D01*
X170015678Y-78230000D01*
X170053000Y-78233676D01*
X170090322Y-78230000D01*
X170090333Y-78230000D01*
X170201986Y-78219003D01*
X170345247Y-78175546D01*
X170477276Y-78104974D01*
X170593001Y-78010001D01*
X170616804Y-77980997D01*
X171464171Y-77133631D01*
X171664224Y-77194316D01*
X171958000Y-77223251D01*
X172251777Y-77194316D01*
X172534264Y-77108625D01*
X172794606Y-76969469D01*
X173022797Y-76782197D01*
X173210069Y-76554006D01*
X173228000Y-76520459D01*
X173245931Y-76554006D01*
X173433203Y-76782197D01*
X173661395Y-76969469D01*
X173921737Y-77108625D01*
X174204224Y-77194316D01*
X174498000Y-77223251D01*
X174791777Y-77194316D01*
X175074264Y-77108625D01*
X175334606Y-76969469D01*
X175562797Y-76782197D01*
X175750069Y-76554006D01*
X175889225Y-76293663D01*
X175974916Y-76011176D01*
X175996600Y-75791018D01*
X175996600Y-75338981D01*
X175974916Y-75118823D01*
X175889225Y-74836336D01*
X175750069Y-74575994D01*
X175562797Y-74347803D01*
X175334605Y-74160531D01*
X175074263Y-74021375D01*
X174791776Y-73935684D01*
X174498000Y-73906749D01*
X174204223Y-73935684D01*
X173921736Y-74021375D01*
X173661394Y-74160531D01*
X173433203Y-74347803D01*
X173245931Y-74575995D01*
X173228000Y-74609541D01*
X173210069Y-74575994D01*
X173022797Y-74347803D01*
X172794605Y-74160531D01*
X172534263Y-74021375D01*
X172251776Y-73935684D01*
X171958000Y-73906749D01*
X171664223Y-73935684D01*
X171381736Y-74021375D01*
X171121394Y-74160531D01*
X170893203Y-74347803D01*
X170705931Y-74575995D01*
X170688000Y-74609541D01*
X170670069Y-74575994D01*
X170482797Y-74347803D01*
X170254605Y-74160531D01*
X169994263Y-74021375D01*
X169711776Y-73935684D01*
X169418000Y-73906749D01*
X169124223Y-73935684D01*
X168841736Y-74021375D01*
X168581394Y-74160531D01*
X168353203Y-74347803D01*
X168165931Y-74575995D01*
X168148000Y-74609541D01*
X168130069Y-74575994D01*
X167942797Y-74347803D01*
X167714605Y-74160531D01*
X167454263Y-74021375D01*
X167171776Y-73935684D01*
X166878000Y-73906749D01*
X166584223Y-73935684D01*
X166301736Y-74021375D01*
X166041394Y-74160531D01*
X165813203Y-74347803D01*
X165625931Y-74575995D01*
X165608000Y-74609541D01*
X165590069Y-74575994D01*
X165402797Y-74347803D01*
X165174605Y-74160531D01*
X164914263Y-74021375D01*
X164631776Y-73935684D01*
X164338000Y-73906749D01*
X164044223Y-73935684D01*
X163761736Y-74021375D01*
X163501394Y-74160531D01*
X163273203Y-74347803D01*
X163085931Y-74575995D01*
X163068000Y-74609541D01*
X163050069Y-74575994D01*
X162862797Y-74347803D01*
X162634605Y-74160531D01*
X162374263Y-74021375D01*
X162091776Y-73935684D01*
X161798000Y-73906749D01*
X161504223Y-73935684D01*
X161221736Y-74021375D01*
X160961394Y-74160531D01*
X160733203Y-74347803D01*
X160545931Y-74575995D01*
X160528000Y-74609541D01*
X160510069Y-74575994D01*
X160322797Y-74347803D01*
X160094605Y-74160531D01*
X159834263Y-74021375D01*
X159551776Y-73935684D01*
X159258000Y-73906749D01*
X158964223Y-73935684D01*
X158681736Y-74021375D01*
X158421394Y-74160531D01*
X158193203Y-74347803D01*
X158005931Y-74575995D01*
X157988000Y-74609541D01*
X157970069Y-74575994D01*
X157782797Y-74347803D01*
X157554605Y-74160531D01*
X157294263Y-74021375D01*
X157011776Y-73935684D01*
X156718000Y-73906749D01*
X156424223Y-73935684D01*
X156141736Y-74021375D01*
X155881394Y-74160531D01*
X155653203Y-74347803D01*
X155465931Y-74575995D01*
X155326775Y-74836337D01*
X155241084Y-75118824D01*
X155219400Y-75338982D01*
X155219400Y-75791019D01*
X155241084Y-76011177D01*
X155326775Y-76293664D01*
X155465931Y-76554006D01*
X155653203Y-76782197D01*
X155881395Y-76969469D01*
X156052351Y-77060847D01*
X152593199Y-80520000D01*
X138234212Y-80520000D01*
X140915014Y-77839198D01*
X140944011Y-77815401D01*
X141038984Y-77699676D01*
X141109556Y-77567647D01*
X141153013Y-77424386D01*
X141164010Y-77312733D01*
X141164010Y-77312724D01*
X141167686Y-77275401D01*
X141166257Y-77260892D01*
X141547703Y-76879447D01*
X141657395Y-76969469D01*
X141917737Y-77108625D01*
X142200224Y-77194316D01*
X142494000Y-77223251D01*
X142787777Y-77194316D01*
X143070264Y-77108625D01*
X143330606Y-76969469D01*
X143558797Y-76782197D01*
X143746069Y-76554006D01*
X143764000Y-76520459D01*
X143781931Y-76554006D01*
X143969203Y-76782197D01*
X144197395Y-76969469D01*
X144457737Y-77108625D01*
X144740224Y-77194316D01*
X145034000Y-77223251D01*
X145327777Y-77194316D01*
X145610264Y-77108625D01*
X145870606Y-76969469D01*
X146098797Y-76782197D01*
X146286069Y-76554006D01*
X146304000Y-76520459D01*
X146321931Y-76554006D01*
X146509203Y-76782197D01*
X146737395Y-76969469D01*
X146997737Y-77108625D01*
X147280224Y-77194316D01*
X147574000Y-77223251D01*
X147867777Y-77194316D01*
X148150264Y-77108625D01*
X148410606Y-76969469D01*
X148638797Y-76782197D01*
X148826069Y-76554006D01*
X148844000Y-76520459D01*
X148861931Y-76554006D01*
X149049203Y-76782197D01*
X149277395Y-76969469D01*
X149537737Y-77108625D01*
X149820224Y-77194316D01*
X150114000Y-77223251D01*
X150407777Y-77194316D01*
X150690264Y-77108625D01*
X150950606Y-76969469D01*
X151178797Y-76782197D01*
X151366069Y-76554006D01*
X151384000Y-76520459D01*
X151401931Y-76554006D01*
X151589203Y-76782197D01*
X151817395Y-76969469D01*
X152077737Y-77108625D01*
X152360224Y-77194316D01*
X152654000Y-77223251D01*
X152947777Y-77194316D01*
X153230264Y-77108625D01*
X153490606Y-76969469D01*
X153718797Y-76782197D01*
X153906069Y-76554006D01*
X154045225Y-76293663D01*
X154130916Y-76011176D01*
X154152600Y-75791018D01*
X154152600Y-75338981D01*
X154130916Y-75118823D01*
X154045225Y-74836336D01*
X153906069Y-74575994D01*
X153718797Y-74347803D01*
X153490605Y-74160531D01*
X153230263Y-74021375D01*
X152947776Y-73935684D01*
X152654000Y-73906749D01*
X152360223Y-73935684D01*
X152077736Y-74021375D01*
X151817394Y-74160531D01*
X151589203Y-74347803D01*
X151401931Y-74575995D01*
X151384000Y-74609541D01*
X151366069Y-74575994D01*
X151178797Y-74347803D01*
X150950605Y-74160531D01*
X150690263Y-74021375D01*
X150407776Y-73935684D01*
X150114000Y-73906749D01*
X149820223Y-73935684D01*
X149537736Y-74021375D01*
X149277394Y-74160531D01*
X149049203Y-74347803D01*
X148861931Y-74575995D01*
X148844000Y-74609541D01*
X148826069Y-74575994D01*
X148638797Y-74347803D01*
X148410605Y-74160531D01*
X148150263Y-74021375D01*
X147867776Y-73935684D01*
X147574000Y-73906749D01*
X147280223Y-73935684D01*
X146997736Y-74021375D01*
X146737394Y-74160531D01*
X146509203Y-74347803D01*
X146321931Y-74575995D01*
X146304000Y-74609541D01*
X146286069Y-74575994D01*
X146098797Y-74347803D01*
X145870605Y-74160531D01*
X145610263Y-74021375D01*
X145327776Y-73935684D01*
X145034000Y-73906749D01*
X144740223Y-73935684D01*
X144457736Y-74021375D01*
X144197394Y-74160531D01*
X143969203Y-74347803D01*
X143781931Y-74575995D01*
X143764000Y-74609541D01*
X143746069Y-74575994D01*
X143558797Y-74347803D01*
X143330605Y-74160531D01*
X143070263Y-74021375D01*
X142787776Y-73935684D01*
X142494000Y-73906749D01*
X142200223Y-73935684D01*
X141917736Y-74021375D01*
X141657394Y-74160531D01*
X141429203Y-74347803D01*
X141241931Y-74575995D01*
X141224000Y-74609541D01*
X141206069Y-74575994D01*
X141018797Y-74347803D01*
X140790605Y-74160531D01*
X140530263Y-74021375D01*
X140247776Y-73935684D01*
X139954000Y-73906749D01*
X139660223Y-73935684D01*
X139377736Y-74021375D01*
X139117394Y-74160531D01*
X138889203Y-74347803D01*
X138701931Y-74575995D01*
X138680576Y-74615947D01*
X138532486Y-74413271D01*
X138316035Y-74214267D01*
X138064919Y-74061314D01*
X137788789Y-73960291D01*
X137773026Y-73957642D01*
X137541000Y-74078783D01*
X137541000Y-75438000D01*
X137561000Y-75438000D01*
X137561000Y-75692000D01*
X137541000Y-75692000D01*
X137541000Y-77051217D01*
X137773026Y-77172358D01*
X137788789Y-77169709D01*
X138064919Y-77068686D01*
X138316035Y-76915733D01*
X138532486Y-76716729D01*
X138680576Y-76514053D01*
X138701931Y-76554006D01*
X138889203Y-76782197D01*
X139052218Y-76915980D01*
X128996997Y-86971202D01*
X128967999Y-86995000D01*
X128944201Y-87023998D01*
X128944200Y-87023999D01*
X128873025Y-87110725D01*
X128802453Y-87242755D01*
X128758997Y-87386016D01*
X128744323Y-87535001D01*
X128748000Y-87572333D01*
X128747999Y-95798247D01*
X128576158Y-95727068D01*
X128289260Y-95670000D01*
X127996740Y-95670000D01*
X127709842Y-95727068D01*
X127439589Y-95839010D01*
X127196368Y-96001525D01*
X126989525Y-96208368D01*
X126827010Y-96451589D01*
X126715068Y-96721842D01*
X126658000Y-97008740D01*
X126658000Y-97301260D01*
X126701790Y-97521407D01*
X125091998Y-99131201D01*
X125063000Y-99154999D01*
X125043000Y-99179369D01*
X125043000Y-75338982D01*
X128295400Y-75338982D01*
X128295400Y-75791019D01*
X128317084Y-76011177D01*
X128402775Y-76293664D01*
X128541931Y-76554006D01*
X128729203Y-76782197D01*
X128957395Y-76969469D01*
X129217737Y-77108625D01*
X129500224Y-77194316D01*
X129794000Y-77223251D01*
X130087777Y-77194316D01*
X130370264Y-77108625D01*
X130630606Y-76969469D01*
X130858797Y-76782197D01*
X131046069Y-76554006D01*
X131064000Y-76520459D01*
X131081931Y-76554006D01*
X131269203Y-76782197D01*
X131497395Y-76969469D01*
X131757737Y-77108625D01*
X132040224Y-77194316D01*
X132334000Y-77223251D01*
X132627777Y-77194316D01*
X132910264Y-77108625D01*
X133170606Y-76969469D01*
X133398797Y-76782197D01*
X133586069Y-76554006D01*
X133604000Y-76520459D01*
X133621931Y-76554006D01*
X133809203Y-76782197D01*
X134037395Y-76969469D01*
X134297737Y-77108625D01*
X134580224Y-77194316D01*
X134874000Y-77223251D01*
X135167777Y-77194316D01*
X135450264Y-77108625D01*
X135710606Y-76969469D01*
X135938797Y-76782197D01*
X136126069Y-76554006D01*
X136147424Y-76514053D01*
X136295514Y-76716729D01*
X136511965Y-76915733D01*
X136763081Y-77068686D01*
X137039211Y-77169709D01*
X137054974Y-77172358D01*
X137287000Y-77051217D01*
X137287000Y-75692000D01*
X137267000Y-75692000D01*
X137267000Y-75438000D01*
X137287000Y-75438000D01*
X137287000Y-74078783D01*
X137054974Y-73957642D01*
X137039211Y-73960291D01*
X136763081Y-74061314D01*
X136511965Y-74214267D01*
X136295514Y-74413271D01*
X136147424Y-74615947D01*
X136126069Y-74575994D01*
X135938797Y-74347803D01*
X135710605Y-74160531D01*
X135450263Y-74021375D01*
X135167776Y-73935684D01*
X134874000Y-73906749D01*
X134580223Y-73935684D01*
X134297736Y-74021375D01*
X134037394Y-74160531D01*
X133809203Y-74347803D01*
X133621931Y-74575995D01*
X133604000Y-74609541D01*
X133586069Y-74575994D01*
X133398797Y-74347803D01*
X133170605Y-74160531D01*
X132910263Y-74021375D01*
X132627776Y-73935684D01*
X132334000Y-73906749D01*
X132040223Y-73935684D01*
X131757736Y-74021375D01*
X131497394Y-74160531D01*
X131269203Y-74347803D01*
X131081931Y-74575995D01*
X131064000Y-74609541D01*
X131046069Y-74575994D01*
X130858797Y-74347803D01*
X130630605Y-74160531D01*
X130370263Y-74021375D01*
X130087776Y-73935684D01*
X129794000Y-73906749D01*
X129500223Y-73935684D01*
X129217736Y-74021375D01*
X128957394Y-74160531D01*
X128729203Y-74347803D01*
X128541931Y-74575995D01*
X128402775Y-74836337D01*
X128317084Y-75118824D01*
X128295400Y-75338982D01*
X125043000Y-75338982D01*
X125043000Y-73735000D01*
X176328001Y-73735000D01*
X176328000Y-86013876D01*
G04 #@! TA.AperFunction,Conductor*
D20*
G36*
X176328000Y-86013876D02*
G01*
X176328001Y-86013886D01*
X176328000Y-123859876D01*
X176328001Y-123859886D01*
X176328000Y-125655000D01*
X136692091Y-125655000D01*
X125043000Y-114005909D01*
X125043000Y-107830632D01*
X125062999Y-107855001D01*
X125092003Y-107878804D01*
X137739201Y-120526003D01*
X137762999Y-120555001D01*
X137878724Y-120649974D01*
X138010753Y-120720546D01*
X138154014Y-120764003D01*
X138265667Y-120775000D01*
X138265676Y-120775000D01*
X138302999Y-120778676D01*
X138340322Y-120775000D01*
X148338000Y-120775000D01*
X148338001Y-122379584D01*
X148261394Y-122420531D01*
X148033203Y-122607803D01*
X147845931Y-122835995D01*
X147828000Y-122869541D01*
X147810069Y-122835994D01*
X147622797Y-122607803D01*
X147394605Y-122420531D01*
X147134263Y-122281375D01*
X146851776Y-122195684D01*
X146558000Y-122166749D01*
X146264223Y-122195684D01*
X145981736Y-122281375D01*
X145721394Y-122420531D01*
X145493203Y-122607803D01*
X145305931Y-122835995D01*
X145288000Y-122869541D01*
X145270069Y-122835994D01*
X145082797Y-122607803D01*
X144854605Y-122420531D01*
X144594263Y-122281375D01*
X144311776Y-122195684D01*
X144018000Y-122166749D01*
X143724223Y-122195684D01*
X143441736Y-122281375D01*
X143181394Y-122420531D01*
X142953203Y-122607803D01*
X142765931Y-122835995D01*
X142748000Y-122869541D01*
X142730069Y-122835994D01*
X142542797Y-122607803D01*
X142314605Y-122420531D01*
X142054263Y-122281375D01*
X141771776Y-122195684D01*
X141478000Y-122166749D01*
X141184223Y-122195684D01*
X140901736Y-122281375D01*
X140641394Y-122420531D01*
X140413203Y-122607803D01*
X140225931Y-122835995D01*
X140208000Y-122869541D01*
X140190069Y-122835994D01*
X140002797Y-122607803D01*
X139774605Y-122420531D01*
X139514263Y-122281375D01*
X139231776Y-122195684D01*
X138938000Y-122166749D01*
X138644223Y-122195684D01*
X138361736Y-122281375D01*
X138101394Y-122420531D01*
X137873203Y-122607803D01*
X137685931Y-122835995D01*
X137546775Y-123096337D01*
X137461084Y-123378824D01*
X137439400Y-123598982D01*
X137439400Y-124051019D01*
X137461084Y-124271177D01*
X137546775Y-124553664D01*
X137685931Y-124814006D01*
X137873203Y-125042197D01*
X138101395Y-125229469D01*
X138361737Y-125368625D01*
X138644224Y-125454316D01*
X138938000Y-125483251D01*
X139231777Y-125454316D01*
X139514264Y-125368625D01*
X139774606Y-125229469D01*
X140002797Y-125042197D01*
X140190069Y-124814006D01*
X140208000Y-124780459D01*
X140225931Y-124814006D01*
X140413203Y-125042197D01*
X140641395Y-125229469D01*
X140901737Y-125368625D01*
X141184224Y-125454316D01*
X141478000Y-125483251D01*
X141771777Y-125454316D01*
X142054264Y-125368625D01*
X142314606Y-125229469D01*
X142542797Y-125042197D01*
X142730069Y-124814006D01*
X142748000Y-124780459D01*
X142765931Y-124814006D01*
X142953203Y-125042197D01*
X143181395Y-125229469D01*
X143441737Y-125368625D01*
X143724224Y-125454316D01*
X144018000Y-125483251D01*
X144311777Y-125454316D01*
X144594264Y-125368625D01*
X144854606Y-125229469D01*
X145082797Y-125042197D01*
X145270069Y-124814006D01*
X145288000Y-124780459D01*
X145305931Y-124814006D01*
X145493203Y-125042197D01*
X145721395Y-125229469D01*
X145981737Y-125368625D01*
X146264224Y-125454316D01*
X146558000Y-125483251D01*
X146851777Y-125454316D01*
X147134264Y-125368625D01*
X147394606Y-125229469D01*
X147622797Y-125042197D01*
X147810069Y-124814006D01*
X147828000Y-124780459D01*
X147845931Y-124814006D01*
X148033203Y-125042197D01*
X148261395Y-125229469D01*
X148521737Y-125368625D01*
X148804224Y-125454316D01*
X149098000Y-125483251D01*
X149391777Y-125454316D01*
X149674264Y-125368625D01*
X149934606Y-125229469D01*
X150162797Y-125042197D01*
X150350069Y-124814006D01*
X150371424Y-124774053D01*
X150519514Y-124976729D01*
X150735965Y-125175733D01*
X150987081Y-125328686D01*
X151263211Y-125429709D01*
X151278974Y-125432358D01*
X151511000Y-125311217D01*
X151511000Y-123952000D01*
X151765000Y-123952000D01*
X151765000Y-125311217D01*
X151997026Y-125432358D01*
X152012789Y-125429709D01*
X152288919Y-125328686D01*
X152540035Y-125175733D01*
X152756486Y-124976729D01*
X152908000Y-124769367D01*
X153059514Y-124976729D01*
X153275965Y-125175733D01*
X153527081Y-125328686D01*
X153803211Y-125429709D01*
X153818974Y-125432358D01*
X154051000Y-125311217D01*
X154051000Y-123952000D01*
X151765000Y-123952000D01*
X151511000Y-123952000D01*
X151491000Y-123952000D01*
X151491000Y-123698000D01*
X151511000Y-123698000D01*
X151511000Y-122338783D01*
X151765000Y-122338783D01*
X151765000Y-123698000D01*
X154051000Y-123698000D01*
X154051000Y-122338783D01*
X154305000Y-122338783D01*
X154305000Y-123698000D01*
X154325000Y-123698000D01*
X154325000Y-123952000D01*
X154305000Y-123952000D01*
X154305000Y-125311217D01*
X154537026Y-125432358D01*
X154552789Y-125429709D01*
X154828919Y-125328686D01*
X155080035Y-125175733D01*
X155296486Y-124976729D01*
X155444576Y-124774053D01*
X155465931Y-124814006D01*
X155653203Y-125042197D01*
X155881395Y-125229469D01*
X156141737Y-125368625D01*
X156424224Y-125454316D01*
X156718000Y-125483251D01*
X157011777Y-125454316D01*
X157294264Y-125368625D01*
X157554606Y-125229469D01*
X157782797Y-125042197D01*
X157970069Y-124814006D01*
X158109225Y-124553663D01*
X158194916Y-124271176D01*
X158216600Y-124051018D01*
X158216600Y-123598982D01*
X160299400Y-123598982D01*
X160299400Y-124051019D01*
X160321084Y-124271177D01*
X160406775Y-124553664D01*
X160545931Y-124814006D01*
X160733203Y-125042197D01*
X160961395Y-125229469D01*
X161221737Y-125368625D01*
X161504224Y-125454316D01*
X161798000Y-125483251D01*
X162091777Y-125454316D01*
X162374264Y-125368625D01*
X162634606Y-125229469D01*
X162862797Y-125042197D01*
X163050069Y-124814006D01*
X163068000Y-124780459D01*
X163085931Y-124814006D01*
X163273203Y-125042197D01*
X163501395Y-125229469D01*
X163761737Y-125368625D01*
X164044224Y-125454316D01*
X164338000Y-125483251D01*
X164631777Y-125454316D01*
X164914264Y-125368625D01*
X165174606Y-125229469D01*
X165402797Y-125042197D01*
X165590069Y-124814006D01*
X165608000Y-124780459D01*
X165625931Y-124814006D01*
X165813203Y-125042197D01*
X166041395Y-125229469D01*
X166301737Y-125368625D01*
X166584224Y-125454316D01*
X166878000Y-125483251D01*
X167171777Y-125454316D01*
X167454264Y-125368625D01*
X167714606Y-125229469D01*
X167942797Y-125042197D01*
X168130069Y-124814006D01*
X168148000Y-124780459D01*
X168165931Y-124814006D01*
X168353203Y-125042197D01*
X168581395Y-125229469D01*
X168841737Y-125368625D01*
X169124224Y-125454316D01*
X169418000Y-125483251D01*
X169711777Y-125454316D01*
X169994264Y-125368625D01*
X170254606Y-125229469D01*
X170482797Y-125042197D01*
X170670069Y-124814006D01*
X170688000Y-124780459D01*
X170705931Y-124814006D01*
X170893203Y-125042197D01*
X171121395Y-125229469D01*
X171381737Y-125368625D01*
X171664224Y-125454316D01*
X171958000Y-125483251D01*
X172251777Y-125454316D01*
X172534264Y-125368625D01*
X172794606Y-125229469D01*
X173022797Y-125042197D01*
X173210069Y-124814006D01*
X173228000Y-124780459D01*
X173245931Y-124814006D01*
X173433203Y-125042197D01*
X173661395Y-125229469D01*
X173921737Y-125368625D01*
X174204224Y-125454316D01*
X174498000Y-125483251D01*
X174791777Y-125454316D01*
X175074264Y-125368625D01*
X175334606Y-125229469D01*
X175562797Y-125042197D01*
X175750069Y-124814006D01*
X175889225Y-124553663D01*
X175974916Y-124271176D01*
X175996600Y-124051018D01*
X175996600Y-123598981D01*
X175974916Y-123378823D01*
X175889225Y-123096336D01*
X175750069Y-122835994D01*
X175562797Y-122607803D01*
X175334605Y-122420531D01*
X175074263Y-122281375D01*
X174791776Y-122195684D01*
X174498000Y-122166749D01*
X174204223Y-122195684D01*
X173921736Y-122281375D01*
X173661394Y-122420531D01*
X173433203Y-122607803D01*
X173245931Y-122835995D01*
X173228000Y-122869541D01*
X173210069Y-122835994D01*
X173022797Y-122607803D01*
X172794605Y-122420531D01*
X172534263Y-122281375D01*
X172251776Y-122195684D01*
X171958000Y-122166749D01*
X171664223Y-122195684D01*
X171381736Y-122281375D01*
X171121394Y-122420531D01*
X170893203Y-122607803D01*
X170705931Y-122835995D01*
X170688000Y-122869541D01*
X170670069Y-122835994D01*
X170482797Y-122607803D01*
X170254605Y-122420531D01*
X169994263Y-122281375D01*
X169711776Y-122195684D01*
X169418000Y-122166749D01*
X169124223Y-122195684D01*
X168841736Y-122281375D01*
X168581394Y-122420531D01*
X168353203Y-122607803D01*
X168165931Y-122835995D01*
X168148000Y-122869541D01*
X168130069Y-122835994D01*
X167942797Y-122607803D01*
X167714605Y-122420531D01*
X167454263Y-122281375D01*
X167171776Y-122195684D01*
X166878000Y-122166749D01*
X166584223Y-122195684D01*
X166301736Y-122281375D01*
X166041394Y-122420531D01*
X165813203Y-122607803D01*
X165625931Y-122835995D01*
X165608000Y-122869541D01*
X165590069Y-122835994D01*
X165402797Y-122607803D01*
X165174605Y-122420531D01*
X164914263Y-122281375D01*
X164631776Y-122195684D01*
X164338000Y-122166749D01*
X164044223Y-122195684D01*
X163761736Y-122281375D01*
X163501394Y-122420531D01*
X163273203Y-122607803D01*
X163085931Y-122835995D01*
X163068000Y-122869541D01*
X163050069Y-122835994D01*
X162862797Y-122607803D01*
X162634605Y-122420531D01*
X162374263Y-122281375D01*
X162091776Y-122195684D01*
X161798000Y-122166749D01*
X161504223Y-122195684D01*
X161221736Y-122281375D01*
X160961394Y-122420531D01*
X160733203Y-122607803D01*
X160545931Y-122835995D01*
X160406775Y-123096337D01*
X160321084Y-123378824D01*
X160299400Y-123598982D01*
X158216600Y-123598982D01*
X158216600Y-123598981D01*
X158194916Y-123378823D01*
X158109225Y-123096336D01*
X157970069Y-122835994D01*
X157782797Y-122607803D01*
X157554605Y-122420531D01*
X157294263Y-122281375D01*
X157011776Y-122195684D01*
X156718000Y-122166749D01*
X156424223Y-122195684D01*
X156141736Y-122281375D01*
X155881394Y-122420531D01*
X155653203Y-122607803D01*
X155465931Y-122835995D01*
X155444576Y-122875947D01*
X155296486Y-122673271D01*
X155080035Y-122474267D01*
X154828919Y-122321314D01*
X154552789Y-122220291D01*
X154537026Y-122217642D01*
X154305000Y-122338783D01*
X154051000Y-122338783D01*
X153818974Y-122217642D01*
X153803211Y-122220291D01*
X153527081Y-122321314D01*
X153275965Y-122474267D01*
X153059514Y-122673271D01*
X152908000Y-122880633D01*
X152756486Y-122673271D01*
X152540035Y-122474267D01*
X152288919Y-122321314D01*
X152012789Y-122220291D01*
X151997026Y-122217642D01*
X151765000Y-122338783D01*
X151511000Y-122338783D01*
X151278974Y-122217642D01*
X151263211Y-122220291D01*
X150987081Y-122321314D01*
X150735965Y-122474267D01*
X150519514Y-122673271D01*
X150371424Y-122875947D01*
X150350069Y-122835994D01*
X150162797Y-122607803D01*
X149934605Y-122420531D01*
X149858000Y-122379585D01*
X149858000Y-120775000D01*
X157690627Y-120775000D01*
X157727949Y-120778676D01*
X157765271Y-120775000D01*
X157765282Y-120775000D01*
X157876935Y-120764003D01*
X158020196Y-120720546D01*
X158152225Y-120649974D01*
X158267950Y-120555001D01*
X158291753Y-120525997D01*
X160108526Y-118709224D01*
X162913381Y-118709224D01*
X163045317Y-119004312D01*
X163386045Y-119175159D01*
X163753557Y-119276250D01*
X164133729Y-119303701D01*
X164511951Y-119256457D01*
X164873690Y-119136333D01*
X165120683Y-119004312D01*
X165252619Y-118709224D01*
X164083000Y-117539605D01*
X162913381Y-118709224D01*
X160108526Y-118709224D01*
X162381619Y-116436132D01*
X162267841Y-116663045D01*
X162166750Y-117030557D01*
X162139299Y-117410729D01*
X162186543Y-117788951D01*
X162306667Y-118150690D01*
X162438688Y-118397683D01*
X162733776Y-118529619D01*
X163903395Y-117360000D01*
X163889253Y-117345858D01*
X164068858Y-117166253D01*
X164083000Y-117180395D01*
X164097143Y-117166253D01*
X164276748Y-117345858D01*
X164262605Y-117360000D01*
X165432224Y-118529619D01*
X165727312Y-118397683D01*
X165898159Y-118056955D01*
X165999250Y-117689443D01*
X166026701Y-117309271D01*
X166023925Y-117287047D01*
X166072334Y-117335456D01*
X166442489Y-117582786D01*
X166853782Y-117753149D01*
X167290409Y-117840000D01*
X167735591Y-117840000D01*
X168172218Y-117753149D01*
X168583511Y-117582786D01*
X168953666Y-117335456D01*
X169268456Y-117020666D01*
X169515786Y-116650511D01*
X169686149Y-116239218D01*
X169773000Y-115802591D01*
X169773000Y-115357409D01*
X169686149Y-114920782D01*
X169515786Y-114509489D01*
X169268456Y-114139334D01*
X168953666Y-113824544D01*
X168583511Y-113577214D01*
X168172218Y-113406851D01*
X167735591Y-113320000D01*
X167290409Y-113320000D01*
X166853782Y-113406851D01*
X166442489Y-113577214D01*
X166072334Y-113824544D01*
X165757544Y-114139334D01*
X165510214Y-114509489D01*
X165339851Y-114920782D01*
X165253000Y-115357409D01*
X165253000Y-115802591D01*
X165287477Y-115975915D01*
X165252618Y-116010774D01*
X165120683Y-115715688D01*
X164779955Y-115544841D01*
X164412443Y-115443750D01*
X164032271Y-115416299D01*
X163654049Y-115463543D01*
X163292310Y-115583667D01*
X163167225Y-115650527D01*
X165484008Y-113333744D01*
X165513001Y-113309950D01*
X165536795Y-113280957D01*
X165536799Y-113280953D01*
X165607973Y-113194226D01*
X165610550Y-113189405D01*
X165678546Y-113062196D01*
X165722003Y-112918935D01*
X165725568Y-112882740D01*
X165824013Y-112816962D01*
X166009962Y-112631013D01*
X166156061Y-112412359D01*
X166256696Y-112169405D01*
X166308000Y-111911486D01*
X166308000Y-111648514D01*
X166256696Y-111390595D01*
X166156061Y-111147641D01*
X166009962Y-110928987D01*
X165840975Y-110760000D01*
X166009962Y-110591013D01*
X166156061Y-110372359D01*
X166256696Y-110129405D01*
X166308000Y-109871486D01*
X166308000Y-109608514D01*
X166256696Y-109350595D01*
X166156061Y-109107641D01*
X166009962Y-108888987D01*
X165840975Y-108720000D01*
X166009962Y-108551013D01*
X166156061Y-108332359D01*
X166256696Y-108089405D01*
X166308000Y-107831486D01*
X166308000Y-107568514D01*
X166286645Y-107461157D01*
X166509005Y-107238797D01*
X166538002Y-107215000D01*
X166632975Y-107099275D01*
X166703547Y-106967246D01*
X166747004Y-106823985D01*
X166758001Y-106712332D01*
X166758001Y-106712323D01*
X166761677Y-106675000D01*
X166758001Y-106637677D01*
X166758001Y-105205322D01*
X166761677Y-105167999D01*
X166758001Y-105130676D01*
X166758001Y-105130666D01*
X166747004Y-105019013D01*
X166743502Y-105007470D01*
X166853782Y-105053149D01*
X167290409Y-105140000D01*
X167735591Y-105140000D01*
X168172218Y-105053149D01*
X168583511Y-104882786D01*
X168953666Y-104635456D01*
X169268456Y-104320666D01*
X169515786Y-103950511D01*
X169686149Y-103539218D01*
X169773000Y-103102591D01*
X169773000Y-102657409D01*
X169686149Y-102220782D01*
X169515786Y-101809489D01*
X169268456Y-101439334D01*
X168953666Y-101124544D01*
X168583511Y-100877214D01*
X168172218Y-100706851D01*
X167735591Y-100620000D01*
X167290409Y-100620000D01*
X166853782Y-100706851D01*
X166442489Y-100877214D01*
X166072334Y-101124544D01*
X166017291Y-101179587D01*
X166026701Y-101049271D01*
X165979457Y-100671049D01*
X165859333Y-100309310D01*
X165727312Y-100062317D01*
X165432224Y-99930381D01*
X164262605Y-101100000D01*
X164276748Y-101114143D01*
X164097143Y-101293748D01*
X164083000Y-101279605D01*
X162913381Y-102449224D01*
X163045317Y-102744312D01*
X163386045Y-102915159D01*
X163753557Y-103016250D01*
X164133729Y-103043701D01*
X164511951Y-102996457D01*
X164873690Y-102876333D01*
X165120683Y-102744312D01*
X165252618Y-102449226D01*
X165287477Y-102484085D01*
X165253000Y-102657409D01*
X165253000Y-103102591D01*
X165339851Y-103539218D01*
X165477941Y-103872598D01*
X165465001Y-103871323D01*
X165427679Y-103874999D01*
X163877801Y-103874999D01*
X161153531Y-101150729D01*
X162139299Y-101150729D01*
X162186543Y-101528951D01*
X162306667Y-101890690D01*
X162438688Y-102137683D01*
X162733776Y-102269619D01*
X163903395Y-101100000D01*
X162733776Y-99930381D01*
X162438688Y-100062317D01*
X162267841Y-100403045D01*
X162166750Y-100770557D01*
X162139299Y-101150729D01*
X161153531Y-101150729D01*
X159753578Y-99750776D01*
X162913381Y-99750776D01*
X164083000Y-100920395D01*
X165252619Y-99750776D01*
X165120683Y-99455688D01*
X164779955Y-99284841D01*
X164412443Y-99183750D01*
X164032271Y-99156299D01*
X163654049Y-99203543D01*
X163292310Y-99323667D01*
X163045317Y-99455688D01*
X162913381Y-99750776D01*
X159753578Y-99750776D01*
X158382026Y-98379224D01*
X162913381Y-98379224D01*
X163045317Y-98674312D01*
X163386045Y-98845159D01*
X163753557Y-98946250D01*
X164133729Y-98973701D01*
X164511951Y-98926457D01*
X164873690Y-98806333D01*
X165120683Y-98674312D01*
X165252619Y-98379224D01*
X164083000Y-97209605D01*
X162913381Y-98379224D01*
X158382026Y-98379224D01*
X152783801Y-92781000D01*
X157227785Y-92781000D01*
X157189939Y-92837641D01*
X157089304Y-93080595D01*
X157038000Y-93338514D01*
X157038000Y-93601486D01*
X157089304Y-93859405D01*
X157189939Y-94102359D01*
X157336038Y-94321013D01*
X157521987Y-94506962D01*
X157683678Y-94615000D01*
X157521987Y-94723038D01*
X157336038Y-94908987D01*
X157189939Y-95127641D01*
X157089304Y-95370595D01*
X157038000Y-95628514D01*
X157038000Y-95891486D01*
X157089304Y-96149405D01*
X157189939Y-96392359D01*
X157336038Y-96611013D01*
X157521987Y-96796962D01*
X157740641Y-96943061D01*
X157983595Y-97043696D01*
X158241514Y-97095000D01*
X158504486Y-97095000D01*
X158576230Y-97080729D01*
X162139299Y-97080729D01*
X162186543Y-97458951D01*
X162306667Y-97820690D01*
X162438688Y-98067683D01*
X162733776Y-98199619D01*
X163903395Y-97030000D01*
X162733776Y-95860381D01*
X162438688Y-95992317D01*
X162267841Y-96333045D01*
X162166750Y-96700557D01*
X162139299Y-97080729D01*
X158576230Y-97080729D01*
X158762405Y-97043696D01*
X159005359Y-96943061D01*
X159224013Y-96796962D01*
X159409962Y-96611013D01*
X159556061Y-96392359D01*
X159656696Y-96149405D01*
X159708000Y-95891486D01*
X159708000Y-95628514D01*
X159657572Y-95375000D01*
X163065313Y-95375000D01*
X163045317Y-95385688D01*
X162913381Y-95680776D01*
X164083000Y-96850395D01*
X164097143Y-96836253D01*
X164276748Y-97015858D01*
X164262605Y-97030000D01*
X165432224Y-98199619D01*
X165727312Y-98067683D01*
X165898159Y-97726955D01*
X165999250Y-97359443D01*
X166026701Y-96979271D01*
X166023925Y-96957047D01*
X166072334Y-97005456D01*
X166442489Y-97252786D01*
X166853782Y-97423149D01*
X167290409Y-97510000D01*
X167735591Y-97510000D01*
X168172218Y-97423149D01*
X168583511Y-97252786D01*
X168953666Y-97005456D01*
X169268456Y-96690666D01*
X169515786Y-96320511D01*
X169686149Y-95909218D01*
X169773000Y-95472591D01*
X169773000Y-95027409D01*
X169686149Y-94590782D01*
X169515786Y-94179489D01*
X169268456Y-93809334D01*
X168953666Y-93494544D01*
X168583511Y-93247214D01*
X168172218Y-93076851D01*
X167735591Y-92990000D01*
X167290409Y-92990000D01*
X166853782Y-93076851D01*
X166758001Y-93116525D01*
X166758001Y-90472323D01*
X166761677Y-90435000D01*
X166758001Y-90397677D01*
X166758001Y-90397668D01*
X166747004Y-90286015D01*
X166703547Y-90142754D01*
X166632975Y-90010725D01*
X166538002Y-89895000D01*
X166509005Y-89871203D01*
X166286645Y-89648843D01*
X166308000Y-89541486D01*
X166308000Y-89278514D01*
X166286645Y-89171157D01*
X166509005Y-88948797D01*
X166538002Y-88925000D01*
X166632975Y-88809275D01*
X166703547Y-88677246D01*
X166747004Y-88533985D01*
X166758001Y-88422332D01*
X166758001Y-88422323D01*
X166761677Y-88385000D01*
X166758001Y-88347677D01*
X166758001Y-84875321D01*
X166761677Y-84837998D01*
X166758001Y-84800675D01*
X166758001Y-84800666D01*
X166747004Y-84689013D01*
X166743502Y-84677470D01*
X166853782Y-84723149D01*
X167290409Y-84810000D01*
X167735591Y-84810000D01*
X168172218Y-84723149D01*
X168583511Y-84552786D01*
X168953666Y-84305456D01*
X169268456Y-83990666D01*
X169515786Y-83620511D01*
X169686149Y-83209218D01*
X169773000Y-82772591D01*
X169773000Y-82327409D01*
X169686149Y-81890782D01*
X169515786Y-81479489D01*
X169268456Y-81109334D01*
X168953666Y-80794544D01*
X168583511Y-80547214D01*
X168172218Y-80376851D01*
X167735591Y-80290000D01*
X167290409Y-80290000D01*
X166853782Y-80376851D01*
X166442489Y-80547214D01*
X166072334Y-80794544D01*
X166017291Y-80849587D01*
X166026701Y-80719271D01*
X165979457Y-80341049D01*
X165859333Y-79979310D01*
X165727312Y-79732317D01*
X165432224Y-79600381D01*
X164262605Y-80770000D01*
X164276748Y-80784143D01*
X164097143Y-80963748D01*
X164083000Y-80949605D01*
X164068858Y-80963748D01*
X163889253Y-80784143D01*
X163903395Y-80770000D01*
X162733776Y-79600381D01*
X162438688Y-79732317D01*
X162267841Y-80073045D01*
X162166750Y-80440557D01*
X162139299Y-80820729D01*
X162186543Y-81198951D01*
X162306667Y-81560690D01*
X162438688Y-81807683D01*
X162733774Y-81939618D01*
X162693393Y-81979999D01*
X159708000Y-81979999D01*
X159708000Y-81908514D01*
X159656696Y-81650595D01*
X159556061Y-81407641D01*
X159409962Y-81188987D01*
X159224013Y-81003038D01*
X159005359Y-80856939D01*
X158762405Y-80756304D01*
X158504486Y-80705000D01*
X158241514Y-80705000D01*
X157983595Y-80756304D01*
X157740641Y-80856939D01*
X157521987Y-81003038D01*
X157336038Y-81188987D01*
X157189939Y-81407641D01*
X157089304Y-81650595D01*
X157038000Y-81908514D01*
X157038000Y-82171486D01*
X157059355Y-82278843D01*
X153103199Y-86235000D01*
X148302864Y-86235000D01*
X148372236Y-86006309D01*
X148399943Y-85725000D01*
X148372236Y-85443691D01*
X148290182Y-85173192D01*
X148156932Y-84923899D01*
X147977608Y-84705392D01*
X147759101Y-84526068D01*
X147626142Y-84455000D01*
X147759101Y-84383932D01*
X147977608Y-84204608D01*
X148156932Y-83986101D01*
X148290182Y-83736808D01*
X148372236Y-83466309D01*
X148399943Y-83185000D01*
X148372236Y-82903691D01*
X148290182Y-82633192D01*
X148156932Y-82383899D01*
X147977608Y-82165392D01*
X147824817Y-82040000D01*
X152870678Y-82040000D01*
X152908000Y-82043676D01*
X152945322Y-82040000D01*
X152945333Y-82040000D01*
X153056986Y-82029003D01*
X153200247Y-81985546D01*
X153332276Y-81914974D01*
X153448001Y-81820001D01*
X153471804Y-81790997D01*
X155842025Y-79420776D01*
X162913381Y-79420776D01*
X164083000Y-80590395D01*
X165252619Y-79420776D01*
X165120683Y-79125688D01*
X164779955Y-78954841D01*
X164412443Y-78853750D01*
X164032271Y-78826299D01*
X163654049Y-78873543D01*
X163292310Y-78993667D01*
X163045317Y-79125688D01*
X162913381Y-79420776D01*
X155842025Y-79420776D01*
X157032802Y-78230000D01*
X170015678Y-78230000D01*
X170053000Y-78233676D01*
X170090322Y-78230000D01*
X170090333Y-78230000D01*
X170201986Y-78219003D01*
X170345247Y-78175546D01*
X170477276Y-78104974D01*
X170593001Y-78010001D01*
X170616804Y-77980997D01*
X171464171Y-77133631D01*
X171664224Y-77194316D01*
X171958000Y-77223251D01*
X172251777Y-77194316D01*
X172534264Y-77108625D01*
X172794606Y-76969469D01*
X173022797Y-76782197D01*
X173210069Y-76554006D01*
X173228000Y-76520459D01*
X173245931Y-76554006D01*
X173433203Y-76782197D01*
X173661395Y-76969469D01*
X173921737Y-77108625D01*
X174204224Y-77194316D01*
X174498000Y-77223251D01*
X174791777Y-77194316D01*
X175074264Y-77108625D01*
X175334606Y-76969469D01*
X175562797Y-76782197D01*
X175750069Y-76554006D01*
X175889225Y-76293663D01*
X175974916Y-76011176D01*
X175996600Y-75791018D01*
X175996600Y-75338981D01*
X175974916Y-75118823D01*
X175889225Y-74836336D01*
X175750069Y-74575994D01*
X175562797Y-74347803D01*
X175334605Y-74160531D01*
X175074263Y-74021375D01*
X174791776Y-73935684D01*
X174498000Y-73906749D01*
X174204223Y-73935684D01*
X173921736Y-74021375D01*
X173661394Y-74160531D01*
X173433203Y-74347803D01*
X173245931Y-74575995D01*
X173228000Y-74609541D01*
X173210069Y-74575994D01*
X173022797Y-74347803D01*
X172794605Y-74160531D01*
X172534263Y-74021375D01*
X172251776Y-73935684D01*
X171958000Y-73906749D01*
X171664223Y-73935684D01*
X171381736Y-74021375D01*
X171121394Y-74160531D01*
X170893203Y-74347803D01*
X170705931Y-74575995D01*
X170688000Y-74609541D01*
X170670069Y-74575994D01*
X170482797Y-74347803D01*
X170254605Y-74160531D01*
X169994263Y-74021375D01*
X169711776Y-73935684D01*
X169418000Y-73906749D01*
X169124223Y-73935684D01*
X168841736Y-74021375D01*
X168581394Y-74160531D01*
X168353203Y-74347803D01*
X168165931Y-74575995D01*
X168148000Y-74609541D01*
X168130069Y-74575994D01*
X167942797Y-74347803D01*
X167714605Y-74160531D01*
X167454263Y-74021375D01*
X167171776Y-73935684D01*
X166878000Y-73906749D01*
X166584223Y-73935684D01*
X166301736Y-74021375D01*
X166041394Y-74160531D01*
X165813203Y-74347803D01*
X165625931Y-74575995D01*
X165608000Y-74609541D01*
X165590069Y-74575994D01*
X165402797Y-74347803D01*
X165174605Y-74160531D01*
X164914263Y-74021375D01*
X164631776Y-73935684D01*
X164338000Y-73906749D01*
X164044223Y-73935684D01*
X163761736Y-74021375D01*
X163501394Y-74160531D01*
X163273203Y-74347803D01*
X163085931Y-74575995D01*
X163068000Y-74609541D01*
X163050069Y-74575994D01*
X162862797Y-74347803D01*
X162634605Y-74160531D01*
X162374263Y-74021375D01*
X162091776Y-73935684D01*
X161798000Y-73906749D01*
X161504223Y-73935684D01*
X161221736Y-74021375D01*
X160961394Y-74160531D01*
X160733203Y-74347803D01*
X160545931Y-74575995D01*
X160528000Y-74609541D01*
X160510069Y-74575994D01*
X160322797Y-74347803D01*
X160094605Y-74160531D01*
X159834263Y-74021375D01*
X159551776Y-73935684D01*
X159258000Y-73906749D01*
X158964223Y-73935684D01*
X158681736Y-74021375D01*
X158421394Y-74160531D01*
X158193203Y-74347803D01*
X158005931Y-74575995D01*
X157988000Y-74609541D01*
X157970069Y-74575994D01*
X157782797Y-74347803D01*
X157554605Y-74160531D01*
X157294263Y-74021375D01*
X157011776Y-73935684D01*
X156718000Y-73906749D01*
X156424223Y-73935684D01*
X156141736Y-74021375D01*
X155881394Y-74160531D01*
X155653203Y-74347803D01*
X155465931Y-74575995D01*
X155326775Y-74836337D01*
X155241084Y-75118824D01*
X155219400Y-75338982D01*
X155219400Y-75791019D01*
X155241084Y-76011177D01*
X155326775Y-76293664D01*
X155465931Y-76554006D01*
X155653203Y-76782197D01*
X155881395Y-76969469D01*
X156052351Y-77060847D01*
X152593199Y-80520000D01*
X138234212Y-80520000D01*
X140915014Y-77839198D01*
X140944011Y-77815401D01*
X141038984Y-77699676D01*
X141109556Y-77567647D01*
X141153013Y-77424386D01*
X141164010Y-77312733D01*
X141164010Y-77312724D01*
X141167686Y-77275401D01*
X141166257Y-77260892D01*
X141547703Y-76879447D01*
X141657395Y-76969469D01*
X141917737Y-77108625D01*
X142200224Y-77194316D01*
X142494000Y-77223251D01*
X142787777Y-77194316D01*
X143070264Y-77108625D01*
X143330606Y-76969469D01*
X143558797Y-76782197D01*
X143746069Y-76554006D01*
X143764000Y-76520459D01*
X143781931Y-76554006D01*
X143969203Y-76782197D01*
X144197395Y-76969469D01*
X144457737Y-77108625D01*
X144740224Y-77194316D01*
X145034000Y-77223251D01*
X145327777Y-77194316D01*
X145610264Y-77108625D01*
X145870606Y-76969469D01*
X146098797Y-76782197D01*
X146286069Y-76554006D01*
X146304000Y-76520459D01*
X146321931Y-76554006D01*
X146509203Y-76782197D01*
X146737395Y-76969469D01*
X146997737Y-77108625D01*
X147280224Y-77194316D01*
X147574000Y-77223251D01*
X147867777Y-77194316D01*
X148150264Y-77108625D01*
X148410606Y-76969469D01*
X148638797Y-76782197D01*
X148826069Y-76554006D01*
X148844000Y-76520459D01*
X148861931Y-76554006D01*
X149049203Y-76782197D01*
X149277395Y-76969469D01*
X149537737Y-77108625D01*
X149820224Y-77194316D01*
X150114000Y-77223251D01*
X150407777Y-77194316D01*
X150690264Y-77108625D01*
X150950606Y-76969469D01*
X151178797Y-76782197D01*
X151366069Y-76554006D01*
X151384000Y-76520459D01*
X151401931Y-76554006D01*
X151589203Y-76782197D01*
X151817395Y-76969469D01*
X152077737Y-77108625D01*
X152360224Y-77194316D01*
X152654000Y-77223251D01*
X152947777Y-77194316D01*
X153230264Y-77108625D01*
X153490606Y-76969469D01*
X153718797Y-76782197D01*
X153906069Y-76554006D01*
X154045225Y-76293663D01*
X154130916Y-76011176D01*
X154152600Y-75791018D01*
X154152600Y-75338981D01*
X154130916Y-75118823D01*
X154045225Y-74836336D01*
X153906069Y-74575994D01*
X153718797Y-74347803D01*
X153490605Y-74160531D01*
X153230263Y-74021375D01*
X152947776Y-73935684D01*
X152654000Y-73906749D01*
X152360223Y-73935684D01*
X152077736Y-74021375D01*
X151817394Y-74160531D01*
X151589203Y-74347803D01*
X151401931Y-74575995D01*
X151384000Y-74609541D01*
X151366069Y-74575994D01*
X151178797Y-74347803D01*
X150950605Y-74160531D01*
X150690263Y-74021375D01*
X150407776Y-73935684D01*
X150114000Y-73906749D01*
X149820223Y-73935684D01*
X149537736Y-74021375D01*
X149277394Y-74160531D01*
X149049203Y-74347803D01*
X148861931Y-74575995D01*
X148844000Y-74609541D01*
X148826069Y-74575994D01*
X148638797Y-74347803D01*
X148410605Y-74160531D01*
X148150263Y-74021375D01*
X147867776Y-73935684D01*
X147574000Y-73906749D01*
X147280223Y-73935684D01*
X146997736Y-74021375D01*
X146737394Y-74160531D01*
X146509203Y-74347803D01*
X146321931Y-74575995D01*
X146304000Y-74609541D01*
X146286069Y-74575994D01*
X146098797Y-74347803D01*
X145870605Y-74160531D01*
X145610263Y-74021375D01*
X145327776Y-73935684D01*
X145034000Y-73906749D01*
X144740223Y-73935684D01*
X144457736Y-74021375D01*
X144197394Y-74160531D01*
X143969203Y-74347803D01*
X143781931Y-74575995D01*
X143764000Y-74609541D01*
X143746069Y-74575994D01*
X143558797Y-74347803D01*
X143330605Y-74160531D01*
X143070263Y-74021375D01*
X142787776Y-73935684D01*
X142494000Y-73906749D01*
X142200223Y-73935684D01*
X141917736Y-74021375D01*
X141657394Y-74160531D01*
X141429203Y-74347803D01*
X141241931Y-74575995D01*
X141224000Y-74609541D01*
X141206069Y-74575994D01*
X141018797Y-74347803D01*
X140790605Y-74160531D01*
X140530263Y-74021375D01*
X140247776Y-73935684D01*
X139954000Y-73906749D01*
X139660223Y-73935684D01*
X139377736Y-74021375D01*
X139117394Y-74160531D01*
X138889203Y-74347803D01*
X138701931Y-74575995D01*
X138680576Y-74615947D01*
X138532486Y-74413271D01*
X138316035Y-74214267D01*
X138064919Y-74061314D01*
X137788789Y-73960291D01*
X137773026Y-73957642D01*
X137541000Y-74078783D01*
X137541000Y-75438000D01*
X137561000Y-75438000D01*
X137561000Y-75692000D01*
X137541000Y-75692000D01*
X137541000Y-77051217D01*
X137773026Y-77172358D01*
X137788789Y-77169709D01*
X138064919Y-77068686D01*
X138316035Y-76915733D01*
X138532486Y-76716729D01*
X138680576Y-76514053D01*
X138701931Y-76554006D01*
X138889203Y-76782197D01*
X139052218Y-76915980D01*
X128996997Y-86971202D01*
X128967999Y-86995000D01*
X128944201Y-87023998D01*
X128944200Y-87023999D01*
X128873025Y-87110725D01*
X128802453Y-87242755D01*
X128758997Y-87386016D01*
X128744323Y-87535001D01*
X128748000Y-87572333D01*
X128747999Y-95798247D01*
X128576158Y-95727068D01*
X128289260Y-95670000D01*
X127996740Y-95670000D01*
X127709842Y-95727068D01*
X127439589Y-95839010D01*
X127196368Y-96001525D01*
X126989525Y-96208368D01*
X126827010Y-96451589D01*
X126715068Y-96721842D01*
X126658000Y-97008740D01*
X126658000Y-97301260D01*
X126701790Y-97521407D01*
X125091998Y-99131201D01*
X125063000Y-99154999D01*
X125043000Y-99179369D01*
X125043000Y-75338982D01*
X128295400Y-75338982D01*
X128295400Y-75791019D01*
X128317084Y-76011177D01*
X128402775Y-76293664D01*
X128541931Y-76554006D01*
X128729203Y-76782197D01*
X128957395Y-76969469D01*
X129217737Y-77108625D01*
X129500224Y-77194316D01*
X129794000Y-77223251D01*
X130087777Y-77194316D01*
X130370264Y-77108625D01*
X130630606Y-76969469D01*
X130858797Y-76782197D01*
X131046069Y-76554006D01*
X131064000Y-76520459D01*
X131081931Y-76554006D01*
X131269203Y-76782197D01*
X131497395Y-76969469D01*
X131757737Y-77108625D01*
X132040224Y-77194316D01*
X132334000Y-77223251D01*
X132627777Y-77194316D01*
X132910264Y-77108625D01*
X133170606Y-76969469D01*
X133398797Y-76782197D01*
X133586069Y-76554006D01*
X133604000Y-76520459D01*
X133621931Y-76554006D01*
X133809203Y-76782197D01*
X134037395Y-76969469D01*
X134297737Y-77108625D01*
X134580224Y-77194316D01*
X134874000Y-77223251D01*
X135167777Y-77194316D01*
X135450264Y-77108625D01*
X135710606Y-76969469D01*
X135938797Y-76782197D01*
X136126069Y-76554006D01*
X136147424Y-76514053D01*
X136295514Y-76716729D01*
X136511965Y-76915733D01*
X136763081Y-77068686D01*
X137039211Y-77169709D01*
X137054974Y-77172358D01*
X137287000Y-77051217D01*
X137287000Y-75692000D01*
X137267000Y-75692000D01*
X137267000Y-75438000D01*
X137287000Y-75438000D01*
X137287000Y-74078783D01*
X137054974Y-73957642D01*
X137039211Y-73960291D01*
X136763081Y-74061314D01*
X136511965Y-74214267D01*
X136295514Y-74413271D01*
X136147424Y-74615947D01*
X136126069Y-74575994D01*
X135938797Y-74347803D01*
X135710605Y-74160531D01*
X135450263Y-74021375D01*
X135167776Y-73935684D01*
X134874000Y-73906749D01*
X134580223Y-73935684D01*
X134297736Y-74021375D01*
X134037394Y-74160531D01*
X133809203Y-74347803D01*
X133621931Y-74575995D01*
X133604000Y-74609541D01*
X133586069Y-74575994D01*
X133398797Y-74347803D01*
X133170605Y-74160531D01*
X132910263Y-74021375D01*
X132627776Y-73935684D01*
X132334000Y-73906749D01*
X132040223Y-73935684D01*
X131757736Y-74021375D01*
X131497394Y-74160531D01*
X131269203Y-74347803D01*
X131081931Y-74575995D01*
X131064000Y-74609541D01*
X131046069Y-74575994D01*
X130858797Y-74347803D01*
X130630605Y-74160531D01*
X130370263Y-74021375D01*
X130087776Y-73935684D01*
X129794000Y-73906749D01*
X129500223Y-73935684D01*
X129217736Y-74021375D01*
X128957394Y-74160531D01*
X128729203Y-74347803D01*
X128541931Y-74575995D01*
X128402775Y-74836337D01*
X128317084Y-75118824D01*
X128295400Y-75338982D01*
X125043000Y-75338982D01*
X125043000Y-73735000D01*
X176328001Y-73735000D01*
X176328000Y-86013876D01*
G37*
G04 #@! TD.AperFunction*
D19*
X137635161Y-82062399D02*
X137433500Y-82260105D01*
X137274285Y-82493354D01*
X137163633Y-82753182D01*
X137146096Y-82835961D01*
X137268085Y-83058000D01*
X138811000Y-83058000D01*
X138811000Y-83038000D01*
X139065000Y-83038000D01*
X139065000Y-83058000D01*
X140607915Y-83058000D01*
X140729904Y-82835961D01*
X140712367Y-82753182D01*
X140601715Y-82493354D01*
X140442500Y-82260105D01*
X140240839Y-82062399D01*
X140206587Y-82040000D01*
X145291183Y-82040000D01*
X145138392Y-82165392D01*
X144959068Y-82383899D01*
X144825818Y-82633192D01*
X144743764Y-82903691D01*
X144716057Y-83185000D01*
X144743764Y-83466309D01*
X144825818Y-83736808D01*
X144959068Y-83986101D01*
X145138392Y-84204608D01*
X145356899Y-84383932D01*
X145489858Y-84455000D01*
X145356899Y-84526068D01*
X145138392Y-84705392D01*
X144959068Y-84923899D01*
X144825818Y-85173192D01*
X144743764Y-85443691D01*
X144716057Y-85725000D01*
X144743764Y-86006309D01*
X144825818Y-86276808D01*
X144959068Y-86526101D01*
X145138392Y-86744608D01*
X145356899Y-86923932D01*
X145489858Y-86995000D01*
X145356899Y-87066068D01*
X145138392Y-87245392D01*
X144959068Y-87463899D01*
X144825818Y-87713192D01*
X144743764Y-87983691D01*
X144716057Y-88265000D01*
X144743764Y-88546309D01*
X144825818Y-88816808D01*
X144959068Y-89066101D01*
X145138392Y-89284608D01*
X145251482Y-89377419D01*
X145233518Y-89379188D01*
X145113820Y-89415498D01*
X145003506Y-89474463D01*
X144906815Y-89553815D01*
X144827463Y-89650506D01*
X144768498Y-89760820D01*
X144732188Y-89880518D01*
X144719928Y-90005000D01*
X144719928Y-91605000D01*
X144732188Y-91729482D01*
X144768498Y-91849180D01*
X144827463Y-91959494D01*
X144906815Y-92056185D01*
X145003506Y-92135537D01*
X145113820Y-92194502D01*
X145233518Y-92230812D01*
X145358000Y-92243072D01*
X147758000Y-92243072D01*
X147882482Y-92230812D01*
X148002180Y-92194502D01*
X148112494Y-92135537D01*
X148209185Y-92056185D01*
X148288537Y-91959494D01*
X148347502Y-91849180D01*
X148383812Y-91729482D01*
X148396072Y-91605000D01*
X148396072Y-90005000D01*
X148383812Y-89880518D01*
X148347502Y-89760820D01*
X148288537Y-89650506D01*
X148209185Y-89553815D01*
X148112494Y-89474463D01*
X148002180Y-89415498D01*
X147882482Y-89379188D01*
X147864518Y-89377419D01*
X147977608Y-89284608D01*
X148156932Y-89066101D01*
X148290182Y-88816808D01*
X148372236Y-88546309D01*
X148399943Y-88265000D01*
X148372236Y-87983691D01*
X148302864Y-87755000D01*
X153380678Y-87755000D01*
X153418000Y-87758676D01*
X153455322Y-87755000D01*
X153455333Y-87755000D01*
X153566986Y-87744003D01*
X153710247Y-87700546D01*
X153842276Y-87629974D01*
X153958001Y-87535001D01*
X153981804Y-87505997D01*
X157038000Y-84449802D01*
X157038000Y-84461486D01*
X157089304Y-84719405D01*
X157189939Y-84962359D01*
X157336038Y-85181013D01*
X157521987Y-85366962D01*
X157740641Y-85513061D01*
X157983595Y-85613696D01*
X158241514Y-85665000D01*
X158504486Y-85665000D01*
X158762405Y-85613696D01*
X159005359Y-85513061D01*
X159224013Y-85366962D01*
X159409962Y-85181013D01*
X159556061Y-84962359D01*
X159656696Y-84719405D01*
X159708000Y-84461486D01*
X159708000Y-84198514D01*
X159656696Y-83940595D01*
X159556061Y-83697641D01*
X159424002Y-83499999D01*
X163585200Y-83499999D01*
X164275599Y-84190398D01*
X164121987Y-84293038D01*
X163936038Y-84478987D01*
X163789939Y-84697641D01*
X163689304Y-84940595D01*
X163658065Y-85097643D01*
X163582405Y-85066304D01*
X163324486Y-85015000D01*
X163061514Y-85015000D01*
X162803595Y-85066304D01*
X162560641Y-85166939D01*
X162341987Y-85313038D01*
X162156038Y-85498987D01*
X162009939Y-85717641D01*
X161909304Y-85960595D01*
X161858000Y-86218514D01*
X161858000Y-86481486D01*
X161909304Y-86739405D01*
X162009939Y-86982359D01*
X162156038Y-87201013D01*
X162341987Y-87386962D01*
X162453229Y-87461291D01*
X162451336Y-87468731D01*
X163193000Y-88210395D01*
X163207143Y-88196253D01*
X163386748Y-88375858D01*
X163372605Y-88390000D01*
X163386748Y-88404143D01*
X163207143Y-88583748D01*
X163193000Y-88569605D01*
X162451336Y-89311269D01*
X162453229Y-89318709D01*
X162341987Y-89393038D01*
X162156038Y-89578987D01*
X162009939Y-89797641D01*
X161909304Y-90040595D01*
X161897540Y-90099738D01*
X160262275Y-88464473D01*
X161853610Y-88464473D01*
X161893875Y-88724344D01*
X161984065Y-88971366D01*
X162037963Y-89072203D01*
X162271731Y-89131664D01*
X163013395Y-88390000D01*
X162271731Y-87648336D01*
X162037963Y-87707797D01*
X161927066Y-87946242D01*
X161864817Y-88201740D01*
X161853610Y-88464473D01*
X160262275Y-88464473D01*
X160186804Y-88389003D01*
X160163001Y-88359999D01*
X160047276Y-88265026D01*
X159915247Y-88194454D01*
X159771986Y-88150997D01*
X159660333Y-88140000D01*
X159660322Y-88140000D01*
X159623000Y-88136324D01*
X159585678Y-88140000D01*
X154088535Y-88140000D01*
X153985889Y-88071414D01*
X153815729Y-88000932D01*
X153635089Y-87965000D01*
X153450911Y-87965000D01*
X153270271Y-88000932D01*
X153100111Y-88071414D01*
X152946972Y-88173738D01*
X152816738Y-88303972D01*
X152714414Y-88457111D01*
X152643932Y-88627271D01*
X152608000Y-88807911D01*
X152608000Y-88992089D01*
X152643932Y-89172729D01*
X152714414Y-89342889D01*
X152816738Y-89496028D01*
X152946972Y-89626262D01*
X153100111Y-89728586D01*
X153270271Y-89799068D01*
X153450911Y-89835000D01*
X153635089Y-89835000D01*
X153815729Y-89799068D01*
X153985889Y-89728586D01*
X154088535Y-89660000D01*
X159308199Y-89660000D01*
X161879355Y-92231157D01*
X161858000Y-92338514D01*
X161858000Y-92601486D01*
X161884558Y-92735001D01*
X160229805Y-92735001D01*
X159004806Y-91510003D01*
X158981003Y-91480999D01*
X158865278Y-91386026D01*
X158733249Y-91315454D01*
X158589988Y-91271997D01*
X158478335Y-91261000D01*
X158478324Y-91261000D01*
X158441002Y-91257324D01*
X158403680Y-91261000D01*
X149824322Y-91261000D01*
X149786999Y-91257324D01*
X149749676Y-91261000D01*
X149749667Y-91261000D01*
X149638014Y-91271997D01*
X149494753Y-91315454D01*
X149362724Y-91386026D01*
X149246999Y-91480999D01*
X149223201Y-91509997D01*
X147676352Y-93056847D01*
X147555271Y-93080932D01*
X147385111Y-93151414D01*
X147231972Y-93253738D01*
X147101738Y-93383972D01*
X146999414Y-93537111D01*
X146928932Y-93707271D01*
X146893000Y-93887911D01*
X146893000Y-94072089D01*
X146928932Y-94252729D01*
X146999414Y-94422889D01*
X147101738Y-94576028D01*
X147231972Y-94706262D01*
X147385111Y-94808586D01*
X147555271Y-94879068D01*
X147735911Y-94915000D01*
X147920089Y-94915000D01*
X148100729Y-94879068D01*
X148270889Y-94808586D01*
X148424028Y-94706262D01*
X148554262Y-94576028D01*
X148656586Y-94422889D01*
X148727068Y-94252729D01*
X148751153Y-94131648D01*
X150101802Y-92781000D01*
X150647536Y-92781000D01*
X150674933Y-92918730D01*
X150745415Y-93088890D01*
X150847739Y-93242029D01*
X150977973Y-93372263D01*
X151131112Y-93474587D01*
X151301272Y-93545069D01*
X151422353Y-93569154D01*
X153400699Y-95547500D01*
X152606035Y-95547500D01*
X152503389Y-95478914D01*
X152333229Y-95408432D01*
X152152589Y-95372500D01*
X151968411Y-95372500D01*
X151787771Y-95408432D01*
X151617611Y-95478914D01*
X151464472Y-95581238D01*
X151334238Y-95711472D01*
X151231914Y-95864611D01*
X151161432Y-96034771D01*
X151125500Y-96215411D01*
X151125500Y-96399589D01*
X151161432Y-96580229D01*
X151231914Y-96750389D01*
X151334238Y-96903528D01*
X151464472Y-97033762D01*
X151617611Y-97136086D01*
X151787771Y-97206568D01*
X151968411Y-97242500D01*
X152152589Y-97242500D01*
X152333229Y-97206568D01*
X152503389Y-97136086D01*
X152606035Y-97067500D01*
X153495648Y-97067500D01*
X157665376Y-101237229D01*
X157521987Y-101333038D01*
X157336038Y-101518987D01*
X157189939Y-101737641D01*
X157089304Y-101980595D01*
X157038000Y-102238514D01*
X157038000Y-102501486D01*
X157089304Y-102759405D01*
X157189939Y-103002359D01*
X157336038Y-103221013D01*
X157521987Y-103406962D01*
X157683678Y-103515000D01*
X157521987Y-103623038D01*
X157336038Y-103808987D01*
X157189939Y-104027641D01*
X157089304Y-104270595D01*
X157038000Y-104528514D01*
X157038000Y-104791486D01*
X157089304Y-105049405D01*
X157189939Y-105292359D01*
X157336038Y-105511013D01*
X157521987Y-105696962D01*
X157740641Y-105843061D01*
X157983595Y-105943696D01*
X158241514Y-105995000D01*
X158504486Y-105995000D01*
X158762405Y-105943696D01*
X159005359Y-105843061D01*
X159224013Y-105696962D01*
X159409962Y-105511013D01*
X159556061Y-105292359D01*
X159656696Y-105049405D01*
X159708000Y-104791486D01*
X159708000Y-104528514D01*
X159656696Y-104270595D01*
X159556061Y-104027641D01*
X159409962Y-103808987D01*
X159224013Y-103623038D01*
X159062322Y-103515000D01*
X159224013Y-103406962D01*
X159409962Y-103221013D01*
X159505771Y-103077624D01*
X162206586Y-105778439D01*
X162156038Y-105828987D01*
X162009939Y-106047641D01*
X161909304Y-106290595D01*
X161858000Y-106548514D01*
X161858000Y-106811486D01*
X161909304Y-107069405D01*
X162009939Y-107312359D01*
X162156038Y-107531013D01*
X162341987Y-107716962D01*
X162453229Y-107791291D01*
X162451336Y-107798731D01*
X163193000Y-108540395D01*
X163207143Y-108526253D01*
X163386748Y-108705858D01*
X163372605Y-108720000D01*
X163386748Y-108734143D01*
X163207143Y-108913748D01*
X163193000Y-108899605D01*
X162451336Y-109641269D01*
X162453229Y-109648709D01*
X162341987Y-109723038D01*
X162156038Y-109908987D01*
X162095225Y-110000000D01*
X161747802Y-110000000D01*
X160542275Y-108794473D01*
X161853610Y-108794473D01*
X161893875Y-109054344D01*
X161984065Y-109301366D01*
X162037963Y-109402203D01*
X162271731Y-109461664D01*
X163013395Y-108720000D01*
X162271731Y-107978336D01*
X162037963Y-108037797D01*
X161927066Y-108276242D01*
X161864817Y-108531740D01*
X161853610Y-108794473D01*
X160542275Y-108794473D01*
X149386153Y-97638352D01*
X149362068Y-97517271D01*
X149291586Y-97347111D01*
X149189262Y-97193972D01*
X149059028Y-97063738D01*
X148905889Y-96961414D01*
X148735729Y-96890932D01*
X148555089Y-96855000D01*
X148370911Y-96855000D01*
X148190271Y-96890932D01*
X148020111Y-96961414D01*
X147866972Y-97063738D01*
X147736738Y-97193972D01*
X147634414Y-97347111D01*
X147563932Y-97517271D01*
X147528000Y-97697911D01*
X147528000Y-97882089D01*
X147563932Y-98062729D01*
X147634414Y-98232889D01*
X147736738Y-98386028D01*
X147866972Y-98516262D01*
X148020111Y-98618586D01*
X148190271Y-98689068D01*
X148311352Y-98713153D01*
X160869201Y-111271003D01*
X160892999Y-111300001D01*
X160921997Y-111323799D01*
X161008723Y-111394974D01*
X161139732Y-111465000D01*
X161140753Y-111465546D01*
X161284014Y-111509003D01*
X161395667Y-111520000D01*
X161395677Y-111520000D01*
X161433000Y-111523676D01*
X161470323Y-111520000D01*
X162095225Y-111520000D01*
X162156038Y-111611013D01*
X162325025Y-111780000D01*
X162156038Y-111948987D01*
X162009939Y-112167641D01*
X161909304Y-112410595D01*
X161858000Y-112668514D01*
X161858000Y-112931486D01*
X161909304Y-113189405D01*
X162009939Y-113432359D01*
X162156038Y-113651013D01*
X162341987Y-113836962D01*
X162560641Y-113983061D01*
X162648637Y-114019510D01*
X157413148Y-119255000D01*
X149135333Y-119255000D01*
X149098000Y-119251323D01*
X149060667Y-119255000D01*
X138617802Y-119255000D01*
X136551841Y-117189039D01*
X137146096Y-117189039D01*
X137163633Y-117271818D01*
X137274285Y-117531646D01*
X137433500Y-117764895D01*
X137635161Y-117962601D01*
X137871517Y-118117166D01*
X138133486Y-118222650D01*
X138411000Y-118275000D01*
X138811000Y-118275000D01*
X138811000Y-116967000D01*
X139065000Y-116967000D01*
X139065000Y-118275000D01*
X139465000Y-118275000D01*
X139742514Y-118222650D01*
X140004483Y-118117166D01*
X140240839Y-117962601D01*
X140442500Y-117764895D01*
X140601715Y-117531646D01*
X140712367Y-117271818D01*
X140729904Y-117189039D01*
X140607915Y-116967000D01*
X139065000Y-116967000D01*
X138811000Y-116967000D01*
X137268085Y-116967000D01*
X137146096Y-117189039D01*
X136551841Y-117189039D01*
X131036798Y-111673996D01*
X136269324Y-111673996D01*
X136273000Y-111711319D01*
X136273001Y-113627668D01*
X136269324Y-113665000D01*
X136273001Y-113702333D01*
X136282621Y-113800000D01*
X136283998Y-113813985D01*
X136327454Y-113957246D01*
X136398026Y-114089276D01*
X136448694Y-114151014D01*
X136493000Y-114205001D01*
X136521998Y-114228799D01*
X137104200Y-114811002D01*
X137127999Y-114840001D01*
X137156997Y-114863799D01*
X137243724Y-114934974D01*
X137252890Y-114939873D01*
X137339068Y-115101101D01*
X137518392Y-115319608D01*
X137736899Y-115498932D01*
X137864741Y-115567265D01*
X137635161Y-115717399D01*
X137433500Y-115915105D01*
X137274285Y-116148354D01*
X137163633Y-116408182D01*
X137146096Y-116490961D01*
X137268085Y-116713000D01*
X138811000Y-116713000D01*
X138811000Y-116693000D01*
X139065000Y-116693000D01*
X139065000Y-116713000D01*
X140607915Y-116713000D01*
X140729904Y-116490961D01*
X140712367Y-116408182D01*
X140601715Y-116148354D01*
X140442500Y-115915105D01*
X140240839Y-115717399D01*
X140011259Y-115567265D01*
X140139101Y-115498932D01*
X140357608Y-115319608D01*
X140536932Y-115101101D01*
X140670182Y-114851808D01*
X140752236Y-114581309D01*
X140779943Y-114300000D01*
X140752236Y-114018691D01*
X140670182Y-113748192D01*
X140536932Y-113498899D01*
X140357608Y-113280392D01*
X140139101Y-113101068D01*
X140006142Y-113030000D01*
X140139101Y-112958932D01*
X140357608Y-112779608D01*
X140536932Y-112561101D01*
X140558901Y-112520000D01*
X140805678Y-112520000D01*
X140843000Y-112523676D01*
X140880322Y-112520000D01*
X140880333Y-112520000D01*
X140991986Y-112509003D01*
X141135247Y-112465546D01*
X141267276Y-112394974D01*
X141383001Y-112300001D01*
X141406804Y-112270997D01*
X143259004Y-110418798D01*
X143288001Y-110395001D01*
X143382974Y-110279276D01*
X143453546Y-110147247D01*
X143497003Y-110003986D01*
X143508000Y-109892333D01*
X143508000Y-109892323D01*
X143511676Y-109855000D01*
X143508000Y-109817677D01*
X143508000Y-109220000D01*
X144716057Y-109220000D01*
X144743764Y-109501309D01*
X144825818Y-109771808D01*
X144959068Y-110021101D01*
X145138392Y-110239608D01*
X145356899Y-110418932D01*
X145489858Y-110490000D01*
X145356899Y-110561068D01*
X145138392Y-110740392D01*
X144959068Y-110958899D01*
X144825818Y-111208192D01*
X144743764Y-111478691D01*
X144716057Y-111760000D01*
X144743764Y-112041309D01*
X144825818Y-112311808D01*
X144959068Y-112561101D01*
X145138392Y-112779608D01*
X145356899Y-112958932D01*
X145489858Y-113030000D01*
X145356899Y-113101068D01*
X145138392Y-113280392D01*
X144959068Y-113498899D01*
X144825818Y-113748192D01*
X144743764Y-114018691D01*
X144716057Y-114300000D01*
X144743764Y-114581309D01*
X144825818Y-114851808D01*
X144959068Y-115101101D01*
X145138392Y-115319608D01*
X145251482Y-115412419D01*
X145233518Y-115414188D01*
X145113820Y-115450498D01*
X145003506Y-115509463D01*
X144906815Y-115588815D01*
X144827463Y-115685506D01*
X144768498Y-115795820D01*
X144732188Y-115915518D01*
X144719928Y-116040000D01*
X144719928Y-117640000D01*
X144732188Y-117764482D01*
X144768498Y-117884180D01*
X144827463Y-117994494D01*
X144906815Y-118091185D01*
X145003506Y-118170537D01*
X145113820Y-118229502D01*
X145233518Y-118265812D01*
X145358000Y-118278072D01*
X147758000Y-118278072D01*
X147882482Y-118265812D01*
X148002180Y-118229502D01*
X148112494Y-118170537D01*
X148209185Y-118091185D01*
X148288537Y-117994494D01*
X148347502Y-117884180D01*
X148383812Y-117764482D01*
X148396072Y-117640000D01*
X148396072Y-116040000D01*
X148383812Y-115915518D01*
X148347502Y-115795820D01*
X148288537Y-115685506D01*
X148209185Y-115588815D01*
X148112494Y-115509463D01*
X148002180Y-115450498D01*
X147882482Y-115414188D01*
X147864518Y-115412419D01*
X147977608Y-115319608D01*
X148156932Y-115101101D01*
X148290182Y-114851808D01*
X148372236Y-114581309D01*
X148399943Y-114300000D01*
X148372236Y-114018691D01*
X148302864Y-113790000D01*
X150053198Y-113790000D01*
X150574205Y-114311008D01*
X150597999Y-114340001D01*
X150626992Y-114363795D01*
X150626996Y-114363799D01*
X150688171Y-114414003D01*
X150713724Y-114434974D01*
X150845753Y-114505546D01*
X150989014Y-114549003D01*
X151100667Y-114560000D01*
X151100676Y-114560000D01*
X151137999Y-114563676D01*
X151175322Y-114560000D01*
X157275225Y-114560000D01*
X157336038Y-114651013D01*
X157521987Y-114836962D01*
X157683678Y-114945000D01*
X157521987Y-115053038D01*
X157336038Y-115238987D01*
X157189939Y-115457641D01*
X157089304Y-115700595D01*
X157038000Y-115958514D01*
X157038000Y-116221486D01*
X157089304Y-116479405D01*
X157189939Y-116722359D01*
X157336038Y-116941013D01*
X157521987Y-117126962D01*
X157740641Y-117273061D01*
X157983595Y-117373696D01*
X158241514Y-117425000D01*
X158504486Y-117425000D01*
X158762405Y-117373696D01*
X159005359Y-117273061D01*
X159224013Y-117126962D01*
X159409962Y-116941013D01*
X159556061Y-116722359D01*
X159656696Y-116479405D01*
X159708000Y-116221486D01*
X159708000Y-115958514D01*
X159656696Y-115700595D01*
X159556061Y-115457641D01*
X159409962Y-115238987D01*
X159224013Y-115053038D01*
X159062322Y-114945000D01*
X159224013Y-114836962D01*
X159409962Y-114651013D01*
X159556061Y-114432359D01*
X159656696Y-114189405D01*
X159708000Y-113931486D01*
X159708000Y-113668514D01*
X159656696Y-113410595D01*
X159556061Y-113167641D01*
X159409962Y-112948987D01*
X159224013Y-112763038D01*
X159005359Y-112616939D01*
X158762405Y-112516304D01*
X158504486Y-112465000D01*
X158241514Y-112465000D01*
X157983595Y-112516304D01*
X157740641Y-112616939D01*
X157521987Y-112763038D01*
X157336038Y-112948987D01*
X157275225Y-113040000D01*
X151452802Y-113040000D01*
X150931803Y-112519002D01*
X150908001Y-112489999D01*
X150792276Y-112395026D01*
X150660247Y-112324454D01*
X150516986Y-112280997D01*
X150405333Y-112270000D01*
X150405322Y-112270000D01*
X150368000Y-112266324D01*
X150330678Y-112270000D01*
X148302864Y-112270000D01*
X148372236Y-112041309D01*
X148399943Y-111760000D01*
X148372236Y-111478691D01*
X148290182Y-111208192D01*
X148156932Y-110958899D01*
X147977608Y-110740392D01*
X147759101Y-110561068D01*
X147626142Y-110490000D01*
X147759101Y-110418932D01*
X147977608Y-110239608D01*
X148156932Y-110021101D01*
X148290182Y-109771808D01*
X148372236Y-109501309D01*
X148399943Y-109220000D01*
X148372236Y-108938691D01*
X148290182Y-108668192D01*
X148156932Y-108418899D01*
X147977608Y-108200392D01*
X147759101Y-108021068D01*
X147509808Y-107887818D01*
X147239309Y-107805764D01*
X147028492Y-107785000D01*
X146087508Y-107785000D01*
X145876691Y-107805764D01*
X145606192Y-107887818D01*
X145356899Y-108021068D01*
X145138392Y-108200392D01*
X144959068Y-108418899D01*
X144825818Y-108668192D01*
X144743764Y-108938691D01*
X144716057Y-109220000D01*
X143508000Y-109220000D01*
X143508000Y-87032322D01*
X143511676Y-86994999D01*
X143508000Y-86957676D01*
X143508000Y-86957667D01*
X143497003Y-86846014D01*
X143453546Y-86702753D01*
X143382974Y-86570724D01*
X143288001Y-86454999D01*
X143259003Y-86431201D01*
X142041804Y-85214003D01*
X142018001Y-85184999D01*
X141902276Y-85090026D01*
X141770247Y-85019454D01*
X141626986Y-84975997D01*
X141515333Y-84965000D01*
X141515322Y-84965000D01*
X141478000Y-84961324D01*
X141440678Y-84965000D01*
X140558901Y-84965000D01*
X140536932Y-84923899D01*
X140357608Y-84705392D01*
X140139101Y-84526068D01*
X140011259Y-84457735D01*
X140240839Y-84307601D01*
X140442500Y-84109895D01*
X140601715Y-83876646D01*
X140712367Y-83616818D01*
X140729904Y-83534039D01*
X140607915Y-83312000D01*
X139065000Y-83312000D01*
X139065000Y-83332000D01*
X138811000Y-83332000D01*
X138811000Y-83312000D01*
X137268085Y-83312000D01*
X137146096Y-83534039D01*
X137163633Y-83616818D01*
X137274285Y-83876646D01*
X137433500Y-84109895D01*
X137635161Y-84307601D01*
X137864741Y-84457735D01*
X137736899Y-84526068D01*
X137518392Y-84705392D01*
X137339068Y-84923899D01*
X137205818Y-85173192D01*
X137123764Y-85443691D01*
X137096057Y-85725000D01*
X137123764Y-86006309D01*
X137205818Y-86276808D01*
X137339068Y-86526101D01*
X137518392Y-86744608D01*
X137736899Y-86923932D01*
X137869858Y-86995000D01*
X137736899Y-87066068D01*
X137518392Y-87245392D01*
X137339068Y-87463899D01*
X137205818Y-87713192D01*
X137123764Y-87983691D01*
X137096057Y-88265000D01*
X137123764Y-88546309D01*
X137205818Y-88816808D01*
X137339068Y-89066101D01*
X137518392Y-89284608D01*
X137736899Y-89463932D01*
X137864741Y-89532265D01*
X137635161Y-89682399D01*
X137433500Y-89880105D01*
X137274285Y-90113354D01*
X137163633Y-90373182D01*
X137146096Y-90455961D01*
X137268085Y-90678000D01*
X138811000Y-90678000D01*
X138811000Y-90658000D01*
X139065000Y-90658000D01*
X139065000Y-90678000D01*
X140607915Y-90678000D01*
X140729904Y-90455961D01*
X140712367Y-90373182D01*
X140601715Y-90113354D01*
X140442500Y-89880105D01*
X140240839Y-89682399D01*
X140011259Y-89532265D01*
X140139101Y-89463932D01*
X140357608Y-89284608D01*
X140536932Y-89066101D01*
X140558901Y-89025000D01*
X141163199Y-89025000D01*
X141353000Y-89214802D01*
X141353001Y-108905197D01*
X140715456Y-109542742D01*
X140607915Y-109347000D01*
X139065000Y-109347000D01*
X139065000Y-109367000D01*
X138811000Y-109367000D01*
X138811000Y-109347000D01*
X137268085Y-109347000D01*
X137146096Y-109569039D01*
X137163633Y-109651818D01*
X137274285Y-109911646D01*
X137433500Y-110144895D01*
X137460665Y-110171528D01*
X136522002Y-111110193D01*
X136492999Y-111133995D01*
X136459355Y-111174991D01*
X136398026Y-111249720D01*
X136341365Y-111355724D01*
X136327454Y-111381750D01*
X136283997Y-111525011D01*
X136273000Y-111636664D01*
X136273000Y-111636674D01*
X136269324Y-111673996D01*
X131036798Y-111673996D01*
X128233763Y-108870961D01*
X137146096Y-108870961D01*
X137268085Y-109093000D01*
X138811000Y-109093000D01*
X138811000Y-107785000D01*
X139065000Y-107785000D01*
X139065000Y-109093000D01*
X140607915Y-109093000D01*
X140729904Y-108870961D01*
X140712367Y-108788182D01*
X140601715Y-108528354D01*
X140442500Y-108295105D01*
X140240839Y-108097399D01*
X140004483Y-107942834D01*
X139742514Y-107837350D01*
X139465000Y-107785000D01*
X139065000Y-107785000D01*
X138811000Y-107785000D01*
X138411000Y-107785000D01*
X138133486Y-107837350D01*
X137871517Y-107942834D01*
X137635161Y-108097399D01*
X137433500Y-108295105D01*
X137274285Y-108528354D01*
X137163633Y-108788182D01*
X137146096Y-108870961D01*
X128233763Y-108870961D01*
X126363000Y-107000199D01*
X126363000Y-102591890D01*
X126701524Y-102591890D01*
X126746175Y-102739099D01*
X126871359Y-103001920D01*
X127045412Y-103235269D01*
X127261645Y-103430178D01*
X127511748Y-103579157D01*
X127786109Y-103676481D01*
X128016000Y-103555814D01*
X128016000Y-102362000D01*
X126822845Y-102362000D01*
X126701524Y-102591890D01*
X126363000Y-102591890D01*
X126363000Y-101725000D01*
X126748986Y-101725000D01*
X126746175Y-101730901D01*
X126701524Y-101878110D01*
X126822845Y-102108000D01*
X128016000Y-102108000D01*
X128016000Y-102088000D01*
X128270000Y-102088000D01*
X128270000Y-102108000D01*
X128290000Y-102108000D01*
X128290000Y-102362000D01*
X128270000Y-102362000D01*
X128270000Y-103555814D01*
X128499891Y-103676481D01*
X128774252Y-103579157D01*
X129024355Y-103430178D01*
X129240588Y-103235269D01*
X129411900Y-103005594D01*
X129529525Y-103181632D01*
X129736368Y-103388475D01*
X129979589Y-103550990D01*
X130249842Y-103662932D01*
X130536740Y-103720000D01*
X130829260Y-103720000D01*
X131116158Y-103662932D01*
X131386411Y-103550990D01*
X131629632Y-103388475D01*
X131836475Y-103181632D01*
X131998990Y-102938411D01*
X132110932Y-102668158D01*
X132168000Y-102381260D01*
X132168000Y-102088740D01*
X132110932Y-101801842D01*
X132079103Y-101725000D01*
X136360678Y-101725000D01*
X136398000Y-101728676D01*
X136435322Y-101725000D01*
X136435333Y-101725000D01*
X136546986Y-101714003D01*
X136690247Y-101670546D01*
X136822276Y-101599974D01*
X136938001Y-101505001D01*
X136961804Y-101475997D01*
X137819649Y-100618153D01*
X137940729Y-100594068D01*
X138110889Y-100523586D01*
X138264028Y-100421262D01*
X138394262Y-100291028D01*
X138496586Y-100137889D01*
X138567068Y-99967729D01*
X138603000Y-99787089D01*
X138603000Y-99602911D01*
X138567068Y-99422271D01*
X138496586Y-99252111D01*
X138394262Y-99098972D01*
X138264028Y-98968738D01*
X138110889Y-98866414D01*
X137940729Y-98795932D01*
X137760089Y-98760000D01*
X137575911Y-98760000D01*
X137395271Y-98795932D01*
X137225111Y-98866414D01*
X137071972Y-98968738D01*
X136941738Y-99098972D01*
X136839414Y-99252111D01*
X136768932Y-99422271D01*
X136744847Y-99543351D01*
X136083199Y-100205000D01*
X132079103Y-100205000D01*
X132110932Y-100128158D01*
X132168000Y-99841260D01*
X132168000Y-99548740D01*
X132110932Y-99261842D01*
X131998990Y-98991589D01*
X131836475Y-98748368D01*
X131704620Y-98616513D01*
X131777180Y-98594502D01*
X131887494Y-98535537D01*
X131984185Y-98456185D01*
X132063537Y-98359494D01*
X132122502Y-98249180D01*
X132158812Y-98129482D01*
X132171072Y-98005000D01*
X132171072Y-96305000D01*
X132158812Y-96180518D01*
X132122502Y-96060820D01*
X132063537Y-95950506D01*
X131984185Y-95853815D01*
X131887494Y-95774463D01*
X131777180Y-95715498D01*
X131657482Y-95679188D01*
X131533000Y-95666928D01*
X131443000Y-95666928D01*
X131443000Y-87311211D01*
X133733001Y-85021210D01*
X133733000Y-93942678D01*
X133729324Y-93980000D01*
X133733000Y-94017322D01*
X133733000Y-94017332D01*
X133743997Y-94128985D01*
X133765705Y-94200547D01*
X133787454Y-94272246D01*
X133858026Y-94404276D01*
X133875034Y-94425000D01*
X133952999Y-94520001D01*
X133982003Y-94543804D01*
X136744847Y-97306649D01*
X136768932Y-97427729D01*
X136839414Y-97597889D01*
X136941738Y-97751028D01*
X137071972Y-97881262D01*
X137225111Y-97983586D01*
X137395271Y-98054068D01*
X137575911Y-98090000D01*
X137760089Y-98090000D01*
X137940729Y-98054068D01*
X138110889Y-97983586D01*
X138264028Y-97881262D01*
X138394262Y-97751028D01*
X138496586Y-97597889D01*
X138567068Y-97427729D01*
X138603000Y-97247089D01*
X138603000Y-97062911D01*
X138567068Y-96882271D01*
X138496586Y-96712111D01*
X138394262Y-96558972D01*
X138264028Y-96428738D01*
X138110889Y-96326414D01*
X137940729Y-96255932D01*
X137819649Y-96231847D01*
X135253000Y-93665199D01*
X135253000Y-91154039D01*
X137146096Y-91154039D01*
X137163633Y-91236818D01*
X137274285Y-91496646D01*
X137433500Y-91729895D01*
X137635161Y-91927601D01*
X137871517Y-92082166D01*
X138133486Y-92187650D01*
X138411000Y-92240000D01*
X138811000Y-92240000D01*
X138811000Y-90932000D01*
X139065000Y-90932000D01*
X139065000Y-92240000D01*
X139465000Y-92240000D01*
X139742514Y-92187650D01*
X140004483Y-92082166D01*
X140240839Y-91927601D01*
X140442500Y-91729895D01*
X140601715Y-91496646D01*
X140712367Y-91236818D01*
X140729904Y-91154039D01*
X140607915Y-90932000D01*
X139065000Y-90932000D01*
X138811000Y-90932000D01*
X137268085Y-90932000D01*
X137146096Y-91154039D01*
X135253000Y-91154039D01*
X135253000Y-84409299D01*
X137622300Y-82040000D01*
X137669413Y-82040000D01*
X137635161Y-82062399D01*
G04 #@! TA.AperFunction,Conductor*
D20*
G36*
X137635161Y-82062399D02*
G01*
X137433500Y-82260105D01*
X137274285Y-82493354D01*
X137163633Y-82753182D01*
X137146096Y-82835961D01*
X137268085Y-83058000D01*
X138811000Y-83058000D01*
X138811000Y-83038000D01*
X139065000Y-83038000D01*
X139065000Y-83058000D01*
X140607915Y-83058000D01*
X140729904Y-82835961D01*
X140712367Y-82753182D01*
X140601715Y-82493354D01*
X140442500Y-82260105D01*
X140240839Y-82062399D01*
X140206587Y-82040000D01*
X145291183Y-82040000D01*
X145138392Y-82165392D01*
X144959068Y-82383899D01*
X144825818Y-82633192D01*
X144743764Y-82903691D01*
X144716057Y-83185000D01*
X144743764Y-83466309D01*
X144825818Y-83736808D01*
X144959068Y-83986101D01*
X145138392Y-84204608D01*
X145356899Y-84383932D01*
X145489858Y-84455000D01*
X145356899Y-84526068D01*
X145138392Y-84705392D01*
X144959068Y-84923899D01*
X144825818Y-85173192D01*
X144743764Y-85443691D01*
X144716057Y-85725000D01*
X144743764Y-86006309D01*
X144825818Y-86276808D01*
X144959068Y-86526101D01*
X145138392Y-86744608D01*
X145356899Y-86923932D01*
X145489858Y-86995000D01*
X145356899Y-87066068D01*
X145138392Y-87245392D01*
X144959068Y-87463899D01*
X144825818Y-87713192D01*
X144743764Y-87983691D01*
X144716057Y-88265000D01*
X144743764Y-88546309D01*
X144825818Y-88816808D01*
X144959068Y-89066101D01*
X145138392Y-89284608D01*
X145251482Y-89377419D01*
X145233518Y-89379188D01*
X145113820Y-89415498D01*
X145003506Y-89474463D01*
X144906815Y-89553815D01*
X144827463Y-89650506D01*
X144768498Y-89760820D01*
X144732188Y-89880518D01*
X144719928Y-90005000D01*
X144719928Y-91605000D01*
X144732188Y-91729482D01*
X144768498Y-91849180D01*
X144827463Y-91959494D01*
X144906815Y-92056185D01*
X145003506Y-92135537D01*
X145113820Y-92194502D01*
X145233518Y-92230812D01*
X145358000Y-92243072D01*
X147758000Y-92243072D01*
X147882482Y-92230812D01*
X148002180Y-92194502D01*
X148112494Y-92135537D01*
X148209185Y-92056185D01*
X148288537Y-91959494D01*
X148347502Y-91849180D01*
X148383812Y-91729482D01*
X148396072Y-91605000D01*
X148396072Y-90005000D01*
X148383812Y-89880518D01*
X148347502Y-89760820D01*
X148288537Y-89650506D01*
X148209185Y-89553815D01*
X148112494Y-89474463D01*
X148002180Y-89415498D01*
X147882482Y-89379188D01*
X147864518Y-89377419D01*
X147977608Y-89284608D01*
X148156932Y-89066101D01*
X148290182Y-88816808D01*
X148372236Y-88546309D01*
X148399943Y-88265000D01*
X148372236Y-87983691D01*
X148302864Y-87755000D01*
X153380678Y-87755000D01*
X153418000Y-87758676D01*
X153455322Y-87755000D01*
X153455333Y-87755000D01*
X153566986Y-87744003D01*
X153710247Y-87700546D01*
X153842276Y-87629974D01*
X153958001Y-87535001D01*
X153981804Y-87505997D01*
X157038000Y-84449802D01*
X157038000Y-84461486D01*
X157089304Y-84719405D01*
X157189939Y-84962359D01*
X157336038Y-85181013D01*
X157521987Y-85366962D01*
X157740641Y-85513061D01*
X157983595Y-85613696D01*
X158241514Y-85665000D01*
X158504486Y-85665000D01*
X158762405Y-85613696D01*
X159005359Y-85513061D01*
X159224013Y-85366962D01*
X159409962Y-85181013D01*
X159556061Y-84962359D01*
X159656696Y-84719405D01*
X159708000Y-84461486D01*
X159708000Y-84198514D01*
X159656696Y-83940595D01*
X159556061Y-83697641D01*
X159424002Y-83499999D01*
X163585200Y-83499999D01*
X164275599Y-84190398D01*
X164121987Y-84293038D01*
X163936038Y-84478987D01*
X163789939Y-84697641D01*
X163689304Y-84940595D01*
X163658065Y-85097643D01*
X163582405Y-85066304D01*
X163324486Y-85015000D01*
X163061514Y-85015000D01*
X162803595Y-85066304D01*
X162560641Y-85166939D01*
X162341987Y-85313038D01*
X162156038Y-85498987D01*
X162009939Y-85717641D01*
X161909304Y-85960595D01*
X161858000Y-86218514D01*
X161858000Y-86481486D01*
X161909304Y-86739405D01*
X162009939Y-86982359D01*
X162156038Y-87201013D01*
X162341987Y-87386962D01*
X162453229Y-87461291D01*
X162451336Y-87468731D01*
X163193000Y-88210395D01*
X163207143Y-88196253D01*
X163386748Y-88375858D01*
X163372605Y-88390000D01*
X163386748Y-88404143D01*
X163207143Y-88583748D01*
X163193000Y-88569605D01*
X162451336Y-89311269D01*
X162453229Y-89318709D01*
X162341987Y-89393038D01*
X162156038Y-89578987D01*
X162009939Y-89797641D01*
X161909304Y-90040595D01*
X161897540Y-90099738D01*
X160262275Y-88464473D01*
X161853610Y-88464473D01*
X161893875Y-88724344D01*
X161984065Y-88971366D01*
X162037963Y-89072203D01*
X162271731Y-89131664D01*
X163013395Y-88390000D01*
X162271731Y-87648336D01*
X162037963Y-87707797D01*
X161927066Y-87946242D01*
X161864817Y-88201740D01*
X161853610Y-88464473D01*
X160262275Y-88464473D01*
X160186804Y-88389003D01*
X160163001Y-88359999D01*
X160047276Y-88265026D01*
X159915247Y-88194454D01*
X159771986Y-88150997D01*
X159660333Y-88140000D01*
X159660322Y-88140000D01*
X159623000Y-88136324D01*
X159585678Y-88140000D01*
X154088535Y-88140000D01*
X153985889Y-88071414D01*
X153815729Y-88000932D01*
X153635089Y-87965000D01*
X153450911Y-87965000D01*
X153270271Y-88000932D01*
X153100111Y-88071414D01*
X152946972Y-88173738D01*
X152816738Y-88303972D01*
X152714414Y-88457111D01*
X152643932Y-88627271D01*
X152608000Y-88807911D01*
X152608000Y-88992089D01*
X152643932Y-89172729D01*
X152714414Y-89342889D01*
X152816738Y-89496028D01*
X152946972Y-89626262D01*
X153100111Y-89728586D01*
X153270271Y-89799068D01*
X153450911Y-89835000D01*
X153635089Y-89835000D01*
X153815729Y-89799068D01*
X153985889Y-89728586D01*
X154088535Y-89660000D01*
X159308199Y-89660000D01*
X161879355Y-92231157D01*
X161858000Y-92338514D01*
X161858000Y-92601486D01*
X161884558Y-92735001D01*
X160229805Y-92735001D01*
X159004806Y-91510003D01*
X158981003Y-91480999D01*
X158865278Y-91386026D01*
X158733249Y-91315454D01*
X158589988Y-91271997D01*
X158478335Y-91261000D01*
X158478324Y-91261000D01*
X158441002Y-91257324D01*
X158403680Y-91261000D01*
X149824322Y-91261000D01*
X149786999Y-91257324D01*
X149749676Y-91261000D01*
X149749667Y-91261000D01*
X149638014Y-91271997D01*
X149494753Y-91315454D01*
X149362724Y-91386026D01*
X149246999Y-91480999D01*
X149223201Y-91509997D01*
X147676352Y-93056847D01*
X147555271Y-93080932D01*
X147385111Y-93151414D01*
X147231972Y-93253738D01*
X147101738Y-93383972D01*
X146999414Y-93537111D01*
X146928932Y-93707271D01*
X146893000Y-93887911D01*
X146893000Y-94072089D01*
X146928932Y-94252729D01*
X146999414Y-94422889D01*
X147101738Y-94576028D01*
X147231972Y-94706262D01*
X147385111Y-94808586D01*
X147555271Y-94879068D01*
X147735911Y-94915000D01*
X147920089Y-94915000D01*
X148100729Y-94879068D01*
X148270889Y-94808586D01*
X148424028Y-94706262D01*
X148554262Y-94576028D01*
X148656586Y-94422889D01*
X148727068Y-94252729D01*
X148751153Y-94131648D01*
X150101802Y-92781000D01*
X150647536Y-92781000D01*
X150674933Y-92918730D01*
X150745415Y-93088890D01*
X150847739Y-93242029D01*
X150977973Y-93372263D01*
X151131112Y-93474587D01*
X151301272Y-93545069D01*
X151422353Y-93569154D01*
X153400699Y-95547500D01*
X152606035Y-95547500D01*
X152503389Y-95478914D01*
X152333229Y-95408432D01*
X152152589Y-95372500D01*
X151968411Y-95372500D01*
X151787771Y-95408432D01*
X151617611Y-95478914D01*
X151464472Y-95581238D01*
X151334238Y-95711472D01*
X151231914Y-95864611D01*
X151161432Y-96034771D01*
X151125500Y-96215411D01*
X151125500Y-96399589D01*
X151161432Y-96580229D01*
X151231914Y-96750389D01*
X151334238Y-96903528D01*
X151464472Y-97033762D01*
X151617611Y-97136086D01*
X151787771Y-97206568D01*
X151968411Y-97242500D01*
X152152589Y-97242500D01*
X152333229Y-97206568D01*
X152503389Y-97136086D01*
X152606035Y-97067500D01*
X153495648Y-97067500D01*
X157665376Y-101237229D01*
X157521987Y-101333038D01*
X157336038Y-101518987D01*
X157189939Y-101737641D01*
X157089304Y-101980595D01*
X157038000Y-102238514D01*
X157038000Y-102501486D01*
X157089304Y-102759405D01*
X157189939Y-103002359D01*
X157336038Y-103221013D01*
X157521987Y-103406962D01*
X157683678Y-103515000D01*
X157521987Y-103623038D01*
X157336038Y-103808987D01*
X157189939Y-104027641D01*
X157089304Y-104270595D01*
X157038000Y-104528514D01*
X157038000Y-104791486D01*
X157089304Y-105049405D01*
X157189939Y-105292359D01*
X157336038Y-105511013D01*
X157521987Y-105696962D01*
X157740641Y-105843061D01*
X157983595Y-105943696D01*
X158241514Y-105995000D01*
X158504486Y-105995000D01*
X158762405Y-105943696D01*
X159005359Y-105843061D01*
X159224013Y-105696962D01*
X159409962Y-105511013D01*
X159556061Y-105292359D01*
X159656696Y-105049405D01*
X159708000Y-104791486D01*
X159708000Y-104528514D01*
X159656696Y-104270595D01*
X159556061Y-104027641D01*
X159409962Y-103808987D01*
X159224013Y-103623038D01*
X159062322Y-103515000D01*
X159224013Y-103406962D01*
X159409962Y-103221013D01*
X159505771Y-103077624D01*
X162206586Y-105778439D01*
X162156038Y-105828987D01*
X162009939Y-106047641D01*
X161909304Y-106290595D01*
X161858000Y-106548514D01*
X161858000Y-106811486D01*
X161909304Y-107069405D01*
X162009939Y-107312359D01*
X162156038Y-107531013D01*
X162341987Y-107716962D01*
X162453229Y-107791291D01*
X162451336Y-107798731D01*
X163193000Y-108540395D01*
X163207143Y-108526253D01*
X163386748Y-108705858D01*
X163372605Y-108720000D01*
X163386748Y-108734143D01*
X163207143Y-108913748D01*
X163193000Y-108899605D01*
X162451336Y-109641269D01*
X162453229Y-109648709D01*
X162341987Y-109723038D01*
X162156038Y-109908987D01*
X162095225Y-110000000D01*
X161747802Y-110000000D01*
X160542275Y-108794473D01*
X161853610Y-108794473D01*
X161893875Y-109054344D01*
X161984065Y-109301366D01*
X162037963Y-109402203D01*
X162271731Y-109461664D01*
X163013395Y-108720000D01*
X162271731Y-107978336D01*
X162037963Y-108037797D01*
X161927066Y-108276242D01*
X161864817Y-108531740D01*
X161853610Y-108794473D01*
X160542275Y-108794473D01*
X149386153Y-97638352D01*
X149362068Y-97517271D01*
X149291586Y-97347111D01*
X149189262Y-97193972D01*
X149059028Y-97063738D01*
X148905889Y-96961414D01*
X148735729Y-96890932D01*
X148555089Y-96855000D01*
X148370911Y-96855000D01*
X148190271Y-96890932D01*
X148020111Y-96961414D01*
X147866972Y-97063738D01*
X147736738Y-97193972D01*
X147634414Y-97347111D01*
X147563932Y-97517271D01*
X147528000Y-97697911D01*
X147528000Y-97882089D01*
X147563932Y-98062729D01*
X147634414Y-98232889D01*
X147736738Y-98386028D01*
X147866972Y-98516262D01*
X148020111Y-98618586D01*
X148190271Y-98689068D01*
X148311352Y-98713153D01*
X160869201Y-111271003D01*
X160892999Y-111300001D01*
X160921997Y-111323799D01*
X161008723Y-111394974D01*
X161139732Y-111465000D01*
X161140753Y-111465546D01*
X161284014Y-111509003D01*
X161395667Y-111520000D01*
X161395677Y-111520000D01*
X161433000Y-111523676D01*
X161470323Y-111520000D01*
X162095225Y-111520000D01*
X162156038Y-111611013D01*
X162325025Y-111780000D01*
X162156038Y-111948987D01*
X162009939Y-112167641D01*
X161909304Y-112410595D01*
X161858000Y-112668514D01*
X161858000Y-112931486D01*
X161909304Y-113189405D01*
X162009939Y-113432359D01*
X162156038Y-113651013D01*
X162341987Y-113836962D01*
X162560641Y-113983061D01*
X162648637Y-114019510D01*
X157413148Y-119255000D01*
X149135333Y-119255000D01*
X149098000Y-119251323D01*
X149060667Y-119255000D01*
X138617802Y-119255000D01*
X136551841Y-117189039D01*
X137146096Y-117189039D01*
X137163633Y-117271818D01*
X137274285Y-117531646D01*
X137433500Y-117764895D01*
X137635161Y-117962601D01*
X137871517Y-118117166D01*
X138133486Y-118222650D01*
X138411000Y-118275000D01*
X138811000Y-118275000D01*
X138811000Y-116967000D01*
X139065000Y-116967000D01*
X139065000Y-118275000D01*
X139465000Y-118275000D01*
X139742514Y-118222650D01*
X140004483Y-118117166D01*
X140240839Y-117962601D01*
X140442500Y-117764895D01*
X140601715Y-117531646D01*
X140712367Y-117271818D01*
X140729904Y-117189039D01*
X140607915Y-116967000D01*
X139065000Y-116967000D01*
X138811000Y-116967000D01*
X137268085Y-116967000D01*
X137146096Y-117189039D01*
X136551841Y-117189039D01*
X131036798Y-111673996D01*
X136269324Y-111673996D01*
X136273000Y-111711319D01*
X136273001Y-113627668D01*
X136269324Y-113665000D01*
X136273001Y-113702333D01*
X136282621Y-113800000D01*
X136283998Y-113813985D01*
X136327454Y-113957246D01*
X136398026Y-114089276D01*
X136448694Y-114151014D01*
X136493000Y-114205001D01*
X136521998Y-114228799D01*
X137104200Y-114811002D01*
X137127999Y-114840001D01*
X137156997Y-114863799D01*
X137243724Y-114934974D01*
X137252890Y-114939873D01*
X137339068Y-115101101D01*
X137518392Y-115319608D01*
X137736899Y-115498932D01*
X137864741Y-115567265D01*
X137635161Y-115717399D01*
X137433500Y-115915105D01*
X137274285Y-116148354D01*
X137163633Y-116408182D01*
X137146096Y-116490961D01*
X137268085Y-116713000D01*
X138811000Y-116713000D01*
X138811000Y-116693000D01*
X139065000Y-116693000D01*
X139065000Y-116713000D01*
X140607915Y-116713000D01*
X140729904Y-116490961D01*
X140712367Y-116408182D01*
X140601715Y-116148354D01*
X140442500Y-115915105D01*
X140240839Y-115717399D01*
X140011259Y-115567265D01*
X140139101Y-115498932D01*
X140357608Y-115319608D01*
X140536932Y-115101101D01*
X140670182Y-114851808D01*
X140752236Y-114581309D01*
X140779943Y-114300000D01*
X140752236Y-114018691D01*
X140670182Y-113748192D01*
X140536932Y-113498899D01*
X140357608Y-113280392D01*
X140139101Y-113101068D01*
X140006142Y-113030000D01*
X140139101Y-112958932D01*
X140357608Y-112779608D01*
X140536932Y-112561101D01*
X140558901Y-112520000D01*
X140805678Y-112520000D01*
X140843000Y-112523676D01*
X140880322Y-112520000D01*
X140880333Y-112520000D01*
X140991986Y-112509003D01*
X141135247Y-112465546D01*
X141267276Y-112394974D01*
X141383001Y-112300001D01*
X141406804Y-112270997D01*
X143259004Y-110418798D01*
X143288001Y-110395001D01*
X143382974Y-110279276D01*
X143453546Y-110147247D01*
X143497003Y-110003986D01*
X143508000Y-109892333D01*
X143508000Y-109892323D01*
X143511676Y-109855000D01*
X143508000Y-109817677D01*
X143508000Y-109220000D01*
X144716057Y-109220000D01*
X144743764Y-109501309D01*
X144825818Y-109771808D01*
X144959068Y-110021101D01*
X145138392Y-110239608D01*
X145356899Y-110418932D01*
X145489858Y-110490000D01*
X145356899Y-110561068D01*
X145138392Y-110740392D01*
X144959068Y-110958899D01*
X144825818Y-111208192D01*
X144743764Y-111478691D01*
X144716057Y-111760000D01*
X144743764Y-112041309D01*
X144825818Y-112311808D01*
X144959068Y-112561101D01*
X145138392Y-112779608D01*
X145356899Y-112958932D01*
X145489858Y-113030000D01*
X145356899Y-113101068D01*
X145138392Y-113280392D01*
X144959068Y-113498899D01*
X144825818Y-113748192D01*
X144743764Y-114018691D01*
X144716057Y-114300000D01*
X144743764Y-114581309D01*
X144825818Y-114851808D01*
X144959068Y-115101101D01*
X145138392Y-115319608D01*
X145251482Y-115412419D01*
X145233518Y-115414188D01*
X145113820Y-115450498D01*
X145003506Y-115509463D01*
X144906815Y-115588815D01*
X144827463Y-115685506D01*
X144768498Y-115795820D01*
X144732188Y-115915518D01*
X144719928Y-116040000D01*
X144719928Y-117640000D01*
X144732188Y-117764482D01*
X144768498Y-117884180D01*
X144827463Y-117994494D01*
X144906815Y-118091185D01*
X145003506Y-118170537D01*
X145113820Y-118229502D01*
X145233518Y-118265812D01*
X145358000Y-118278072D01*
X147758000Y-118278072D01*
X147882482Y-118265812D01*
X148002180Y-118229502D01*
X148112494Y-118170537D01*
X148209185Y-118091185D01*
X148288537Y-117994494D01*
X148347502Y-117884180D01*
X148383812Y-117764482D01*
X148396072Y-117640000D01*
X148396072Y-116040000D01*
X148383812Y-115915518D01*
X148347502Y-115795820D01*
X148288537Y-115685506D01*
X148209185Y-115588815D01*
X148112494Y-115509463D01*
X148002180Y-115450498D01*
X147882482Y-115414188D01*
X147864518Y-115412419D01*
X147977608Y-115319608D01*
X148156932Y-115101101D01*
X148290182Y-114851808D01*
X148372236Y-114581309D01*
X148399943Y-114300000D01*
X148372236Y-114018691D01*
X148302864Y-113790000D01*
X150053198Y-113790000D01*
X150574205Y-114311008D01*
X150597999Y-114340001D01*
X150626992Y-114363795D01*
X150626996Y-114363799D01*
X150688171Y-114414003D01*
X150713724Y-114434974D01*
X150845753Y-114505546D01*
X150989014Y-114549003D01*
X151100667Y-114560000D01*
X151100676Y-114560000D01*
X151137999Y-114563676D01*
X151175322Y-114560000D01*
X157275225Y-114560000D01*
X157336038Y-114651013D01*
X157521987Y-114836962D01*
X157683678Y-114945000D01*
X157521987Y-115053038D01*
X157336038Y-115238987D01*
X157189939Y-115457641D01*
X157089304Y-115700595D01*
X157038000Y-115958514D01*
X157038000Y-116221486D01*
X157089304Y-116479405D01*
X157189939Y-116722359D01*
X157336038Y-116941013D01*
X157521987Y-117126962D01*
X157740641Y-117273061D01*
X157983595Y-117373696D01*
X158241514Y-117425000D01*
X158504486Y-117425000D01*
X158762405Y-117373696D01*
X159005359Y-117273061D01*
X159224013Y-117126962D01*
X159409962Y-116941013D01*
X159556061Y-116722359D01*
X159656696Y-116479405D01*
X159708000Y-116221486D01*
X159708000Y-115958514D01*
X159656696Y-115700595D01*
X159556061Y-115457641D01*
X159409962Y-115238987D01*
X159224013Y-115053038D01*
X159062322Y-114945000D01*
X159224013Y-114836962D01*
X159409962Y-114651013D01*
X159556061Y-114432359D01*
X159656696Y-114189405D01*
X159708000Y-113931486D01*
X159708000Y-113668514D01*
X159656696Y-113410595D01*
X159556061Y-113167641D01*
X159409962Y-112948987D01*
X159224013Y-112763038D01*
X159005359Y-112616939D01*
X158762405Y-112516304D01*
X158504486Y-112465000D01*
X158241514Y-112465000D01*
X157983595Y-112516304D01*
X157740641Y-112616939D01*
X157521987Y-112763038D01*
X157336038Y-112948987D01*
X157275225Y-113040000D01*
X151452802Y-113040000D01*
X150931803Y-112519002D01*
X150908001Y-112489999D01*
X150792276Y-112395026D01*
X150660247Y-112324454D01*
X150516986Y-112280997D01*
X150405333Y-112270000D01*
X150405322Y-112270000D01*
X150368000Y-112266324D01*
X150330678Y-112270000D01*
X148302864Y-112270000D01*
X148372236Y-112041309D01*
X148399943Y-111760000D01*
X148372236Y-111478691D01*
X148290182Y-111208192D01*
X148156932Y-110958899D01*
X147977608Y-110740392D01*
X147759101Y-110561068D01*
X147626142Y-110490000D01*
X147759101Y-110418932D01*
X147977608Y-110239608D01*
X148156932Y-110021101D01*
X148290182Y-109771808D01*
X148372236Y-109501309D01*
X148399943Y-109220000D01*
X148372236Y-108938691D01*
X148290182Y-108668192D01*
X148156932Y-108418899D01*
X147977608Y-108200392D01*
X147759101Y-108021068D01*
X147509808Y-107887818D01*
X147239309Y-107805764D01*
X147028492Y-107785000D01*
X146087508Y-107785000D01*
X145876691Y-107805764D01*
X145606192Y-107887818D01*
X145356899Y-108021068D01*
X145138392Y-108200392D01*
X144959068Y-108418899D01*
X144825818Y-108668192D01*
X144743764Y-108938691D01*
X144716057Y-109220000D01*
X143508000Y-109220000D01*
X143508000Y-87032322D01*
X143511676Y-86994999D01*
X143508000Y-86957676D01*
X143508000Y-86957667D01*
X143497003Y-86846014D01*
X143453546Y-86702753D01*
X143382974Y-86570724D01*
X143288001Y-86454999D01*
X143259003Y-86431201D01*
X142041804Y-85214003D01*
X142018001Y-85184999D01*
X141902276Y-85090026D01*
X141770247Y-85019454D01*
X141626986Y-84975997D01*
X141515333Y-84965000D01*
X141515322Y-84965000D01*
X141478000Y-84961324D01*
X141440678Y-84965000D01*
X140558901Y-84965000D01*
X140536932Y-84923899D01*
X140357608Y-84705392D01*
X140139101Y-84526068D01*
X140011259Y-84457735D01*
X140240839Y-84307601D01*
X140442500Y-84109895D01*
X140601715Y-83876646D01*
X140712367Y-83616818D01*
X140729904Y-83534039D01*
X140607915Y-83312000D01*
X139065000Y-83312000D01*
X139065000Y-83332000D01*
X138811000Y-83332000D01*
X138811000Y-83312000D01*
X137268085Y-83312000D01*
X137146096Y-83534039D01*
X137163633Y-83616818D01*
X137274285Y-83876646D01*
X137433500Y-84109895D01*
X137635161Y-84307601D01*
X137864741Y-84457735D01*
X137736899Y-84526068D01*
X137518392Y-84705392D01*
X137339068Y-84923899D01*
X137205818Y-85173192D01*
X137123764Y-85443691D01*
X137096057Y-85725000D01*
X137123764Y-86006309D01*
X137205818Y-86276808D01*
X137339068Y-86526101D01*
X137518392Y-86744608D01*
X137736899Y-86923932D01*
X137869858Y-86995000D01*
X137736899Y-87066068D01*
X137518392Y-87245392D01*
X137339068Y-87463899D01*
X137205818Y-87713192D01*
X137123764Y-87983691D01*
X137096057Y-88265000D01*
X137123764Y-88546309D01*
X137205818Y-88816808D01*
X137339068Y-89066101D01*
X137518392Y-89284608D01*
X137736899Y-89463932D01*
X137864741Y-89532265D01*
X137635161Y-89682399D01*
X137433500Y-89880105D01*
X137274285Y-90113354D01*
X137163633Y-90373182D01*
X137146096Y-90455961D01*
X137268085Y-90678000D01*
X138811000Y-90678000D01*
X138811000Y-90658000D01*
X139065000Y-90658000D01*
X139065000Y-90678000D01*
X140607915Y-90678000D01*
X140729904Y-90455961D01*
X140712367Y-90373182D01*
X140601715Y-90113354D01*
X140442500Y-89880105D01*
X140240839Y-89682399D01*
X140011259Y-89532265D01*
X140139101Y-89463932D01*
X140357608Y-89284608D01*
X140536932Y-89066101D01*
X140558901Y-89025000D01*
X141163199Y-89025000D01*
X141353000Y-89214802D01*
X141353001Y-108905197D01*
X140715456Y-109542742D01*
X140607915Y-109347000D01*
X139065000Y-109347000D01*
X139065000Y-109367000D01*
X138811000Y-109367000D01*
X138811000Y-109347000D01*
X137268085Y-109347000D01*
X137146096Y-109569039D01*
X137163633Y-109651818D01*
X137274285Y-109911646D01*
X137433500Y-110144895D01*
X137460665Y-110171528D01*
X136522002Y-111110193D01*
X136492999Y-111133995D01*
X136459355Y-111174991D01*
X136398026Y-111249720D01*
X136341365Y-111355724D01*
X136327454Y-111381750D01*
X136283997Y-111525011D01*
X136273000Y-111636664D01*
X136273000Y-111636674D01*
X136269324Y-111673996D01*
X131036798Y-111673996D01*
X128233763Y-108870961D01*
X137146096Y-108870961D01*
X137268085Y-109093000D01*
X138811000Y-109093000D01*
X138811000Y-107785000D01*
X139065000Y-107785000D01*
X139065000Y-109093000D01*
X140607915Y-109093000D01*
X140729904Y-108870961D01*
X140712367Y-108788182D01*
X140601715Y-108528354D01*
X140442500Y-108295105D01*
X140240839Y-108097399D01*
X140004483Y-107942834D01*
X139742514Y-107837350D01*
X139465000Y-107785000D01*
X139065000Y-107785000D01*
X138811000Y-107785000D01*
X138411000Y-107785000D01*
X138133486Y-107837350D01*
X137871517Y-107942834D01*
X137635161Y-108097399D01*
X137433500Y-108295105D01*
X137274285Y-108528354D01*
X137163633Y-108788182D01*
X137146096Y-108870961D01*
X128233763Y-108870961D01*
X126363000Y-107000199D01*
X126363000Y-102591890D01*
X126701524Y-102591890D01*
X126746175Y-102739099D01*
X126871359Y-103001920D01*
X127045412Y-103235269D01*
X127261645Y-103430178D01*
X127511748Y-103579157D01*
X127786109Y-103676481D01*
X128016000Y-103555814D01*
X128016000Y-102362000D01*
X126822845Y-102362000D01*
X126701524Y-102591890D01*
X126363000Y-102591890D01*
X126363000Y-101725000D01*
X126748986Y-101725000D01*
X126746175Y-101730901D01*
X126701524Y-101878110D01*
X126822845Y-102108000D01*
X128016000Y-102108000D01*
X128016000Y-102088000D01*
X128270000Y-102088000D01*
X128270000Y-102108000D01*
X128290000Y-102108000D01*
X128290000Y-102362000D01*
X128270000Y-102362000D01*
X128270000Y-103555814D01*
X128499891Y-103676481D01*
X128774252Y-103579157D01*
X129024355Y-103430178D01*
X129240588Y-103235269D01*
X129411900Y-103005594D01*
X129529525Y-103181632D01*
X129736368Y-103388475D01*
X129979589Y-103550990D01*
X130249842Y-103662932D01*
X130536740Y-103720000D01*
X130829260Y-103720000D01*
X131116158Y-103662932D01*
X131386411Y-103550990D01*
X131629632Y-103388475D01*
X131836475Y-103181632D01*
X131998990Y-102938411D01*
X132110932Y-102668158D01*
X132168000Y-102381260D01*
X132168000Y-102088740D01*
X132110932Y-101801842D01*
X132079103Y-101725000D01*
X136360678Y-101725000D01*
X136398000Y-101728676D01*
X136435322Y-101725000D01*
X136435333Y-101725000D01*
X136546986Y-101714003D01*
X136690247Y-101670546D01*
X136822276Y-101599974D01*
X136938001Y-101505001D01*
X136961804Y-101475997D01*
X137819649Y-100618153D01*
X137940729Y-100594068D01*
X138110889Y-100523586D01*
X138264028Y-100421262D01*
X138394262Y-100291028D01*
X138496586Y-100137889D01*
X138567068Y-99967729D01*
X138603000Y-99787089D01*
X138603000Y-99602911D01*
X138567068Y-99422271D01*
X138496586Y-99252111D01*
X138394262Y-99098972D01*
X138264028Y-98968738D01*
X138110889Y-98866414D01*
X137940729Y-98795932D01*
X137760089Y-98760000D01*
X137575911Y-98760000D01*
X137395271Y-98795932D01*
X137225111Y-98866414D01*
X137071972Y-98968738D01*
X136941738Y-99098972D01*
X136839414Y-99252111D01*
X136768932Y-99422271D01*
X136744847Y-99543351D01*
X136083199Y-100205000D01*
X132079103Y-100205000D01*
X132110932Y-100128158D01*
X132168000Y-99841260D01*
X132168000Y-99548740D01*
X132110932Y-99261842D01*
X131998990Y-98991589D01*
X131836475Y-98748368D01*
X131704620Y-98616513D01*
X131777180Y-98594502D01*
X131887494Y-98535537D01*
X131984185Y-98456185D01*
X132063537Y-98359494D01*
X132122502Y-98249180D01*
X132158812Y-98129482D01*
X132171072Y-98005000D01*
X132171072Y-96305000D01*
X132158812Y-96180518D01*
X132122502Y-96060820D01*
X132063537Y-95950506D01*
X131984185Y-95853815D01*
X131887494Y-95774463D01*
X131777180Y-95715498D01*
X131657482Y-95679188D01*
X131533000Y-95666928D01*
X131443000Y-95666928D01*
X131443000Y-87311211D01*
X133733001Y-85021210D01*
X133733000Y-93942678D01*
X133729324Y-93980000D01*
X133733000Y-94017322D01*
X133733000Y-94017332D01*
X133743997Y-94128985D01*
X133765705Y-94200547D01*
X133787454Y-94272246D01*
X133858026Y-94404276D01*
X133875034Y-94425000D01*
X133952999Y-94520001D01*
X133982003Y-94543804D01*
X136744847Y-97306649D01*
X136768932Y-97427729D01*
X136839414Y-97597889D01*
X136941738Y-97751028D01*
X137071972Y-97881262D01*
X137225111Y-97983586D01*
X137395271Y-98054068D01*
X137575911Y-98090000D01*
X137760089Y-98090000D01*
X137940729Y-98054068D01*
X138110889Y-97983586D01*
X138264028Y-97881262D01*
X138394262Y-97751028D01*
X138496586Y-97597889D01*
X138567068Y-97427729D01*
X138603000Y-97247089D01*
X138603000Y-97062911D01*
X138567068Y-96882271D01*
X138496586Y-96712111D01*
X138394262Y-96558972D01*
X138264028Y-96428738D01*
X138110889Y-96326414D01*
X137940729Y-96255932D01*
X137819649Y-96231847D01*
X135253000Y-93665199D01*
X135253000Y-91154039D01*
X137146096Y-91154039D01*
X137163633Y-91236818D01*
X137274285Y-91496646D01*
X137433500Y-91729895D01*
X137635161Y-91927601D01*
X137871517Y-92082166D01*
X138133486Y-92187650D01*
X138411000Y-92240000D01*
X138811000Y-92240000D01*
X138811000Y-90932000D01*
X139065000Y-90932000D01*
X139065000Y-92240000D01*
X139465000Y-92240000D01*
X139742514Y-92187650D01*
X140004483Y-92082166D01*
X140240839Y-91927601D01*
X140442500Y-91729895D01*
X140601715Y-91496646D01*
X140712367Y-91236818D01*
X140729904Y-91154039D01*
X140607915Y-90932000D01*
X139065000Y-90932000D01*
X138811000Y-90932000D01*
X137268085Y-90932000D01*
X137146096Y-91154039D01*
X135253000Y-91154039D01*
X135253000Y-84409299D01*
X137622300Y-82040000D01*
X137669413Y-82040000D01*
X137635161Y-82062399D01*
G37*
G04 #@! TD.AperFunction*
M02*
