G04 #@! TF.GenerationSoftware,KiCad,Pcbnew,(5.1.9)-1*
G04 #@! TF.CreationDate,2021-06-09T23:11:29+02:00*
G04 #@! TF.ProjectId,controller,636f6e74-726f-46c6-9c65-722e6b696361,rev?*
G04 #@! TF.SameCoordinates,Original*
G04 #@! TF.FileFunction,Copper,L1,Top*
G04 #@! TF.FilePolarity,Positive*
%FSLAX46Y46*%
G04 Gerber Fmt 4.6, Leading zero omitted, Abs format (unit mm)*
G04 Created by KiCad (PCBNEW (5.1.9)-1) date 2021-06-09 23:11:29*
%MOMM*%
%LPD*%
G01*
G04 APERTURE LIST*
G04 #@! TA.AperFunction,ComponentPad*
%ADD10C,1.400000*%
G04 #@! TD*
G04 #@! TA.AperFunction,ComponentPad*
%ADD11C,2.600000*%
G04 #@! TD*
G04 #@! TA.AperFunction,ComponentPad*
%ADD12O,1.700000X1.700000*%
G04 #@! TD*
G04 #@! TA.AperFunction,ComponentPad*
%ADD13R,1.700000X1.700000*%
G04 #@! TD*
G04 #@! TA.AperFunction,ComponentPad*
%ADD14C,1.600000*%
G04 #@! TD*
G04 #@! TA.AperFunction,SMDPad,CuDef*
%ADD15R,1.600000X0.550000*%
G04 #@! TD*
G04 #@! TA.AperFunction,SMDPad,CuDef*
%ADD16R,0.550000X1.600000*%
G04 #@! TD*
G04 #@! TA.AperFunction,ComponentPad*
%ADD17O,2.000000X2.600000*%
G04 #@! TD*
G04 #@! TA.AperFunction,ComponentPad*
%ADD18C,0.800000*%
G04 #@! TD*
G04 #@! TA.AperFunction,ComponentPad*
%ADD19C,7.000000*%
G04 #@! TD*
G04 #@! TA.AperFunction,ComponentPad*
%ADD20C,1.500000*%
G04 #@! TD*
G04 #@! TA.AperFunction,ViaPad*
%ADD21C,0.800000*%
G04 #@! TD*
G04 #@! TA.AperFunction,Conductor*
%ADD22C,0.250000*%
G04 #@! TD*
G04 #@! TA.AperFunction,Conductor*
%ADD23C,0.500000*%
G04 #@! TD*
G04 #@! TA.AperFunction,Conductor*
%ADD24C,0.254000*%
G04 #@! TD*
G04 #@! TA.AperFunction,Conductor*
%ADD25C,0.100000*%
G04 #@! TD*
G04 APERTURE END LIST*
G04 #@! TA.AperFunction,SMDPad,CuDef*
G36*
G01*
X119215000Y-100815000D02*
X119215000Y-101115000D01*
G75*
G02*
X119065000Y-101265000I-150000J0D01*
G01*
X117415000Y-101265000D01*
G75*
G02*
X117265000Y-101115000I0J150000D01*
G01*
X117265000Y-100815000D01*
G75*
G02*
X117415000Y-100665000I150000J0D01*
G01*
X119065000Y-100665000D01*
G75*
G02*
X119215000Y-100815000I0J-150000D01*
G01*
G37*
G04 #@! TD.AperFunction*
G04 #@! TA.AperFunction,SMDPad,CuDef*
G36*
G01*
X119215000Y-99545000D02*
X119215000Y-99845000D01*
G75*
G02*
X119065000Y-99995000I-150000J0D01*
G01*
X117415000Y-99995000D01*
G75*
G02*
X117265000Y-99845000I0J150000D01*
G01*
X117265000Y-99545000D01*
G75*
G02*
X117415000Y-99395000I150000J0D01*
G01*
X119065000Y-99395000D01*
G75*
G02*
X119215000Y-99545000I0J-150000D01*
G01*
G37*
G04 #@! TD.AperFunction*
G04 #@! TA.AperFunction,SMDPad,CuDef*
G36*
G01*
X119215000Y-98275000D02*
X119215000Y-98575000D01*
G75*
G02*
X119065000Y-98725000I-150000J0D01*
G01*
X117415000Y-98725000D01*
G75*
G02*
X117265000Y-98575000I0J150000D01*
G01*
X117265000Y-98275000D01*
G75*
G02*
X117415000Y-98125000I150000J0D01*
G01*
X119065000Y-98125000D01*
G75*
G02*
X119215000Y-98275000I0J-150000D01*
G01*
G37*
G04 #@! TD.AperFunction*
G04 #@! TA.AperFunction,SMDPad,CuDef*
G36*
G01*
X119215000Y-97005000D02*
X119215000Y-97305000D01*
G75*
G02*
X119065000Y-97455000I-150000J0D01*
G01*
X117415000Y-97455000D01*
G75*
G02*
X117265000Y-97305000I0J150000D01*
G01*
X117265000Y-97005000D01*
G75*
G02*
X117415000Y-96855000I150000J0D01*
G01*
X119065000Y-96855000D01*
G75*
G02*
X119215000Y-97005000I0J-150000D01*
G01*
G37*
G04 #@! TD.AperFunction*
G04 #@! TA.AperFunction,SMDPad,CuDef*
G36*
G01*
X124165000Y-97005000D02*
X124165000Y-97305000D01*
G75*
G02*
X124015000Y-97455000I-150000J0D01*
G01*
X122365000Y-97455000D01*
G75*
G02*
X122215000Y-97305000I0J150000D01*
G01*
X122215000Y-97005000D01*
G75*
G02*
X122365000Y-96855000I150000J0D01*
G01*
X124015000Y-96855000D01*
G75*
G02*
X124165000Y-97005000I0J-150000D01*
G01*
G37*
G04 #@! TD.AperFunction*
G04 #@! TA.AperFunction,SMDPad,CuDef*
G36*
G01*
X124165000Y-98275000D02*
X124165000Y-98575000D01*
G75*
G02*
X124015000Y-98725000I-150000J0D01*
G01*
X122365000Y-98725000D01*
G75*
G02*
X122215000Y-98575000I0J150000D01*
G01*
X122215000Y-98275000D01*
G75*
G02*
X122365000Y-98125000I150000J0D01*
G01*
X124015000Y-98125000D01*
G75*
G02*
X124165000Y-98275000I0J-150000D01*
G01*
G37*
G04 #@! TD.AperFunction*
G04 #@! TA.AperFunction,SMDPad,CuDef*
G36*
G01*
X124165000Y-99545000D02*
X124165000Y-99845000D01*
G75*
G02*
X124015000Y-99995000I-150000J0D01*
G01*
X122365000Y-99995000D01*
G75*
G02*
X122215000Y-99845000I0J150000D01*
G01*
X122215000Y-99545000D01*
G75*
G02*
X122365000Y-99395000I150000J0D01*
G01*
X124015000Y-99395000D01*
G75*
G02*
X124165000Y-99545000I0J-150000D01*
G01*
G37*
G04 #@! TD.AperFunction*
G04 #@! TA.AperFunction,SMDPad,CuDef*
G36*
G01*
X124165000Y-100815000D02*
X124165000Y-101115000D01*
G75*
G02*
X124015000Y-101265000I-150000J0D01*
G01*
X122365000Y-101265000D01*
G75*
G02*
X122215000Y-101115000I0J150000D01*
G01*
X122215000Y-100815000D01*
G75*
G02*
X122365000Y-100665000I150000J0D01*
G01*
X124015000Y-100665000D01*
G75*
G02*
X124165000Y-100815000I0J-150000D01*
G01*
G37*
G04 #@! TD.AperFunction*
G04 #@! TA.AperFunction,SMDPad,CuDef*
G36*
G01*
X119150000Y-86210000D02*
X119150000Y-86510000D01*
G75*
G02*
X119000000Y-86660000I-150000J0D01*
G01*
X117350000Y-86660000D01*
G75*
G02*
X117200000Y-86510000I0J150000D01*
G01*
X117200000Y-86210000D01*
G75*
G02*
X117350000Y-86060000I150000J0D01*
G01*
X119000000Y-86060000D01*
G75*
G02*
X119150000Y-86210000I0J-150000D01*
G01*
G37*
G04 #@! TD.AperFunction*
G04 #@! TA.AperFunction,SMDPad,CuDef*
G36*
G01*
X119150000Y-84940000D02*
X119150000Y-85240000D01*
G75*
G02*
X119000000Y-85390000I-150000J0D01*
G01*
X117350000Y-85390000D01*
G75*
G02*
X117200000Y-85240000I0J150000D01*
G01*
X117200000Y-84940000D01*
G75*
G02*
X117350000Y-84790000I150000J0D01*
G01*
X119000000Y-84790000D01*
G75*
G02*
X119150000Y-84940000I0J-150000D01*
G01*
G37*
G04 #@! TD.AperFunction*
G04 #@! TA.AperFunction,SMDPad,CuDef*
G36*
G01*
X119150000Y-83670000D02*
X119150000Y-83970000D01*
G75*
G02*
X119000000Y-84120000I-150000J0D01*
G01*
X117350000Y-84120000D01*
G75*
G02*
X117200000Y-83970000I0J150000D01*
G01*
X117200000Y-83670000D01*
G75*
G02*
X117350000Y-83520000I150000J0D01*
G01*
X119000000Y-83520000D01*
G75*
G02*
X119150000Y-83670000I0J-150000D01*
G01*
G37*
G04 #@! TD.AperFunction*
G04 #@! TA.AperFunction,SMDPad,CuDef*
G36*
G01*
X119150000Y-82400000D02*
X119150000Y-82700000D01*
G75*
G02*
X119000000Y-82850000I-150000J0D01*
G01*
X117350000Y-82850000D01*
G75*
G02*
X117200000Y-82700000I0J150000D01*
G01*
X117200000Y-82400000D01*
G75*
G02*
X117350000Y-82250000I150000J0D01*
G01*
X119000000Y-82250000D01*
G75*
G02*
X119150000Y-82400000I0J-150000D01*
G01*
G37*
G04 #@! TD.AperFunction*
G04 #@! TA.AperFunction,SMDPad,CuDef*
G36*
G01*
X124100000Y-82400000D02*
X124100000Y-82700000D01*
G75*
G02*
X123950000Y-82850000I-150000J0D01*
G01*
X122300000Y-82850000D01*
G75*
G02*
X122150000Y-82700000I0J150000D01*
G01*
X122150000Y-82400000D01*
G75*
G02*
X122300000Y-82250000I150000J0D01*
G01*
X123950000Y-82250000D01*
G75*
G02*
X124100000Y-82400000I0J-150000D01*
G01*
G37*
G04 #@! TD.AperFunction*
G04 #@! TA.AperFunction,SMDPad,CuDef*
G36*
G01*
X124100000Y-83670000D02*
X124100000Y-83970000D01*
G75*
G02*
X123950000Y-84120000I-150000J0D01*
G01*
X122300000Y-84120000D01*
G75*
G02*
X122150000Y-83970000I0J150000D01*
G01*
X122150000Y-83670000D01*
G75*
G02*
X122300000Y-83520000I150000J0D01*
G01*
X123950000Y-83520000D01*
G75*
G02*
X124100000Y-83670000I0J-150000D01*
G01*
G37*
G04 #@! TD.AperFunction*
G04 #@! TA.AperFunction,SMDPad,CuDef*
G36*
G01*
X124100000Y-84940000D02*
X124100000Y-85240000D01*
G75*
G02*
X123950000Y-85390000I-150000J0D01*
G01*
X122300000Y-85390000D01*
G75*
G02*
X122150000Y-85240000I0J150000D01*
G01*
X122150000Y-84940000D01*
G75*
G02*
X122300000Y-84790000I150000J0D01*
G01*
X123950000Y-84790000D01*
G75*
G02*
X124100000Y-84940000I0J-150000D01*
G01*
G37*
G04 #@! TD.AperFunction*
G04 #@! TA.AperFunction,SMDPad,CuDef*
G36*
G01*
X124100000Y-86210000D02*
X124100000Y-86510000D01*
G75*
G02*
X123950000Y-86660000I-150000J0D01*
G01*
X122300000Y-86660000D01*
G75*
G02*
X122150000Y-86510000I0J150000D01*
G01*
X122150000Y-86210000D01*
G75*
G02*
X122300000Y-86060000I150000J0D01*
G01*
X123950000Y-86060000D01*
G75*
G02*
X124100000Y-86210000I0J-150000D01*
G01*
G37*
G04 #@! TD.AperFunction*
G04 #@! TA.AperFunction,SMDPad,CuDef*
G36*
G01*
X113940000Y-88793000D02*
X113390000Y-88793000D01*
G75*
G02*
X113190000Y-88593000I0J200000D01*
G01*
X113190000Y-88193000D01*
G75*
G02*
X113390000Y-87993000I200000J0D01*
G01*
X113940000Y-87993000D01*
G75*
G02*
X114140000Y-88193000I0J-200000D01*
G01*
X114140000Y-88593000D01*
G75*
G02*
X113940000Y-88793000I-200000J0D01*
G01*
G37*
G04 #@! TD.AperFunction*
G04 #@! TA.AperFunction,SMDPad,CuDef*
G36*
G01*
X113940000Y-90443000D02*
X113390000Y-90443000D01*
G75*
G02*
X113190000Y-90243000I0J200000D01*
G01*
X113190000Y-89843000D01*
G75*
G02*
X113390000Y-89643000I200000J0D01*
G01*
X113940000Y-89643000D01*
G75*
G02*
X114140000Y-89843000I0J-200000D01*
G01*
X114140000Y-90243000D01*
G75*
G02*
X113940000Y-90443000I-200000J0D01*
G01*
G37*
G04 #@! TD.AperFunction*
G04 #@! TA.AperFunction,SMDPad,CuDef*
G36*
G01*
X113430000Y-74020000D02*
X113430000Y-74570000D01*
G75*
G02*
X113230000Y-74770000I-200000J0D01*
G01*
X112830000Y-74770000D01*
G75*
G02*
X112630000Y-74570000I0J200000D01*
G01*
X112630000Y-74020000D01*
G75*
G02*
X112830000Y-73820000I200000J0D01*
G01*
X113230000Y-73820000D01*
G75*
G02*
X113430000Y-74020000I0J-200000D01*
G01*
G37*
G04 #@! TD.AperFunction*
G04 #@! TA.AperFunction,SMDPad,CuDef*
G36*
G01*
X115080000Y-74020000D02*
X115080000Y-74570000D01*
G75*
G02*
X114880000Y-74770000I-200000J0D01*
G01*
X114480000Y-74770000D01*
G75*
G02*
X114280000Y-74570000I0J200000D01*
G01*
X114280000Y-74020000D01*
G75*
G02*
X114480000Y-73820000I200000J0D01*
G01*
X114880000Y-73820000D01*
G75*
G02*
X115080000Y-74020000I0J-200000D01*
G01*
G37*
G04 #@! TD.AperFunction*
G04 #@! TA.AperFunction,SMDPad,CuDef*
G36*
G01*
X113390000Y-105390000D02*
X113940000Y-105390000D01*
G75*
G02*
X114140000Y-105590000I0J-200000D01*
G01*
X114140000Y-105990000D01*
G75*
G02*
X113940000Y-106190000I-200000J0D01*
G01*
X113390000Y-106190000D01*
G75*
G02*
X113190000Y-105990000I0J200000D01*
G01*
X113190000Y-105590000D01*
G75*
G02*
X113390000Y-105390000I200000J0D01*
G01*
G37*
G04 #@! TD.AperFunction*
G04 #@! TA.AperFunction,SMDPad,CuDef*
G36*
G01*
X113390000Y-103740000D02*
X113940000Y-103740000D01*
G75*
G02*
X114140000Y-103940000I0J-200000D01*
G01*
X114140000Y-104340000D01*
G75*
G02*
X113940000Y-104540000I-200000J0D01*
G01*
X113390000Y-104540000D01*
G75*
G02*
X113190000Y-104340000I0J200000D01*
G01*
X113190000Y-103940000D01*
G75*
G02*
X113390000Y-103740000I200000J0D01*
G01*
G37*
G04 #@! TD.AperFunction*
G04 #@! TA.AperFunction,SMDPad,CuDef*
G36*
G01*
X113390000Y-94723000D02*
X113940000Y-94723000D01*
G75*
G02*
X114140000Y-94923000I0J-200000D01*
G01*
X114140000Y-95323000D01*
G75*
G02*
X113940000Y-95523000I-200000J0D01*
G01*
X113390000Y-95523000D01*
G75*
G02*
X113190000Y-95323000I0J200000D01*
G01*
X113190000Y-94923000D01*
G75*
G02*
X113390000Y-94723000I200000J0D01*
G01*
G37*
G04 #@! TD.AperFunction*
G04 #@! TA.AperFunction,SMDPad,CuDef*
G36*
G01*
X113390000Y-93073000D02*
X113940000Y-93073000D01*
G75*
G02*
X114140000Y-93273000I0J-200000D01*
G01*
X114140000Y-93673000D01*
G75*
G02*
X113940000Y-93873000I-200000J0D01*
G01*
X113390000Y-93873000D01*
G75*
G02*
X113190000Y-93673000I0J200000D01*
G01*
X113190000Y-93273000D01*
G75*
G02*
X113390000Y-93073000I200000J0D01*
G01*
G37*
G04 #@! TD.AperFunction*
D10*
X110105000Y-73150000D03*
X110105000Y-75440000D03*
X110105000Y-84580000D03*
X110105000Y-86870000D03*
X105285000Y-76440000D03*
X103505000Y-77460000D03*
X105285000Y-78480000D03*
X103505000Y-79500000D03*
X105285000Y-80520000D03*
X103505000Y-81540000D03*
X105285000Y-82560000D03*
X103505000Y-83580000D03*
D11*
X104395000Y-88140000D03*
X104395000Y-71880000D03*
D10*
X110105000Y-94740000D03*
X110105000Y-97030000D03*
X110105000Y-106170000D03*
X110105000Y-108460000D03*
X105285000Y-98030000D03*
X103505000Y-99050000D03*
X105285000Y-100070000D03*
X103505000Y-101090000D03*
X105285000Y-102110000D03*
X103505000Y-103130000D03*
X105285000Y-104150000D03*
X103505000Y-105170000D03*
D11*
X104395000Y-109730000D03*
X104395000Y-93470000D03*
D12*
X136525000Y-84455000D03*
X136525000Y-86995000D03*
X139065000Y-84455000D03*
X139065000Y-86995000D03*
X141605000Y-84455000D03*
D13*
X141605000Y-86995000D03*
D14*
X142809874Y-76769874D03*
X140335000Y-74295000D03*
D15*
X136525000Y-100025000D03*
X136525000Y-99225000D03*
X136525000Y-98425000D03*
X136525000Y-97625000D03*
X136525000Y-96825000D03*
X136525000Y-96025000D03*
X136525000Y-95225000D03*
X136525000Y-94425000D03*
D16*
X137975000Y-92975000D03*
X138775000Y-92975000D03*
X139575000Y-92975000D03*
X140375000Y-92975000D03*
X141175000Y-92975000D03*
X141975000Y-92975000D03*
X142775000Y-92975000D03*
X143575000Y-92975000D03*
D15*
X145025000Y-94425000D03*
X145025000Y-95225000D03*
X145025000Y-96025000D03*
X145025000Y-96825000D03*
X145025000Y-97625000D03*
X145025000Y-98425000D03*
X145025000Y-99225000D03*
X145025000Y-100025000D03*
D16*
X143575000Y-101475000D03*
X142775000Y-101475000D03*
X141975000Y-101475000D03*
X141175000Y-101475000D03*
X140375000Y-101475000D03*
X139575000Y-101475000D03*
X138775000Y-101475000D03*
X137975000Y-101475000D03*
D17*
X131135000Y-74930000D03*
X127635000Y-74930000D03*
G04 #@! TA.AperFunction,ComponentPad*
G36*
G01*
X123135000Y-75980000D02*
X123135000Y-73880000D01*
G75*
G02*
X123385000Y-73630000I250000J0D01*
G01*
X124885000Y-73630000D01*
G75*
G02*
X125135000Y-73880000I0J-250000D01*
G01*
X125135000Y-75980000D01*
G75*
G02*
X124885000Y-76230000I-250000J0D01*
G01*
X123385000Y-76230000D01*
G75*
G02*
X123135000Y-75980000I0J250000D01*
G01*
G37*
G04 #@! TD.AperFunction*
D18*
X156161155Y-78056155D03*
X154305000Y-78825000D03*
X152448845Y-78056155D03*
X151680000Y-76200000D03*
X152448845Y-74343845D03*
X154305000Y-73575000D03*
X156161155Y-74343845D03*
X156930000Y-76200000D03*
D19*
X154305000Y-76200000D03*
D18*
X126316155Y-105458845D03*
X124460000Y-104690000D03*
X122603845Y-105458845D03*
X121835000Y-107315000D03*
X122603845Y-109171155D03*
X124460000Y-109940000D03*
X126316155Y-109171155D03*
X127085000Y-107315000D03*
D19*
X124460000Y-107315000D03*
D20*
X143310000Y-106680000D03*
X138430000Y-106680000D03*
G04 #@! TA.AperFunction,SMDPad,CuDef*
G36*
G01*
X132990000Y-102255000D02*
X132440000Y-102255000D01*
G75*
G02*
X132240000Y-102055000I0J200000D01*
G01*
X132240000Y-101655000D01*
G75*
G02*
X132440000Y-101455000I200000J0D01*
G01*
X132990000Y-101455000D01*
G75*
G02*
X133190000Y-101655000I0J-200000D01*
G01*
X133190000Y-102055000D01*
G75*
G02*
X132990000Y-102255000I-200000J0D01*
G01*
G37*
G04 #@! TD.AperFunction*
G04 #@! TA.AperFunction,SMDPad,CuDef*
G36*
G01*
X132990000Y-103905000D02*
X132440000Y-103905000D01*
G75*
G02*
X132240000Y-103705000I0J200000D01*
G01*
X132240000Y-103305000D01*
G75*
G02*
X132440000Y-103105000I200000J0D01*
G01*
X132990000Y-103105000D01*
G75*
G02*
X133190000Y-103305000I0J-200000D01*
G01*
X133190000Y-103705000D01*
G75*
G02*
X132990000Y-103905000I-200000J0D01*
G01*
G37*
G04 #@! TD.AperFunction*
G04 #@! TA.AperFunction,SMDPad,CuDef*
G36*
G01*
X132971250Y-105847500D02*
X132458750Y-105847500D01*
G75*
G02*
X132240000Y-105628750I0J218750D01*
G01*
X132240000Y-105191250D01*
G75*
G02*
X132458750Y-104972500I218750J0D01*
G01*
X132971250Y-104972500D01*
G75*
G02*
X133190000Y-105191250I0J-218750D01*
G01*
X133190000Y-105628750D01*
G75*
G02*
X132971250Y-105847500I-218750J0D01*
G01*
G37*
G04 #@! TD.AperFunction*
G04 #@! TA.AperFunction,SMDPad,CuDef*
G36*
G01*
X132971250Y-107422500D02*
X132458750Y-107422500D01*
G75*
G02*
X132240000Y-107203750I0J218750D01*
G01*
X132240000Y-106766250D01*
G75*
G02*
X132458750Y-106547500I218750J0D01*
G01*
X132971250Y-106547500D01*
G75*
G02*
X133190000Y-106766250I0J-218750D01*
G01*
X133190000Y-107203750D01*
G75*
G02*
X132971250Y-107422500I-218750J0D01*
G01*
G37*
G04 #@! TD.AperFunction*
G04 #@! TA.AperFunction,SMDPad,CuDef*
G36*
G01*
X131720000Y-96285000D02*
X131170000Y-96285000D01*
G75*
G02*
X130970000Y-96085000I0J200000D01*
G01*
X130970000Y-95685000D01*
G75*
G02*
X131170000Y-95485000I200000J0D01*
G01*
X131720000Y-95485000D01*
G75*
G02*
X131920000Y-95685000I0J-200000D01*
G01*
X131920000Y-96085000D01*
G75*
G02*
X131720000Y-96285000I-200000J0D01*
G01*
G37*
G04 #@! TD.AperFunction*
G04 #@! TA.AperFunction,SMDPad,CuDef*
G36*
G01*
X131720000Y-97935000D02*
X131170000Y-97935000D01*
G75*
G02*
X130970000Y-97735000I0J200000D01*
G01*
X130970000Y-97335000D01*
G75*
G02*
X131170000Y-97135000I200000J0D01*
G01*
X131720000Y-97135000D01*
G75*
G02*
X131920000Y-97335000I0J-200000D01*
G01*
X131920000Y-97735000D01*
G75*
G02*
X131720000Y-97935000I-200000J0D01*
G01*
G37*
G04 #@! TD.AperFunction*
G04 #@! TA.AperFunction,SMDPad,CuDef*
G36*
G01*
X113940000Y-100540000D02*
X113390000Y-100540000D01*
G75*
G02*
X113190000Y-100340000I0J200000D01*
G01*
X113190000Y-99940000D01*
G75*
G02*
X113390000Y-99740000I200000J0D01*
G01*
X113940000Y-99740000D01*
G75*
G02*
X114140000Y-99940000I0J-200000D01*
G01*
X114140000Y-100340000D01*
G75*
G02*
X113940000Y-100540000I-200000J0D01*
G01*
G37*
G04 #@! TD.AperFunction*
G04 #@! TA.AperFunction,SMDPad,CuDef*
G36*
G01*
X113940000Y-102190000D02*
X113390000Y-102190000D01*
G75*
G02*
X113190000Y-101990000I0J200000D01*
G01*
X113190000Y-101590000D01*
G75*
G02*
X113390000Y-101390000I200000J0D01*
G01*
X113940000Y-101390000D01*
G75*
G02*
X114140000Y-101590000I0J-200000D01*
G01*
X114140000Y-101990000D01*
G75*
G02*
X113940000Y-102190000I-200000J0D01*
G01*
G37*
G04 #@! TD.AperFunction*
G04 #@! TA.AperFunction,SMDPad,CuDef*
G36*
G01*
X143835000Y-110740000D02*
X143835000Y-110240000D01*
G75*
G02*
X144060000Y-110015000I225000J0D01*
G01*
X144510000Y-110015000D01*
G75*
G02*
X144735000Y-110240000I0J-225000D01*
G01*
X144735000Y-110740000D01*
G75*
G02*
X144510000Y-110965000I-225000J0D01*
G01*
X144060000Y-110965000D01*
G75*
G02*
X143835000Y-110740000I0J225000D01*
G01*
G37*
G04 #@! TD.AperFunction*
G04 #@! TA.AperFunction,SMDPad,CuDef*
G36*
G01*
X142285000Y-110740000D02*
X142285000Y-110240000D01*
G75*
G02*
X142510000Y-110015000I225000J0D01*
G01*
X142960000Y-110015000D01*
G75*
G02*
X143185000Y-110240000I0J-225000D01*
G01*
X143185000Y-110740000D01*
G75*
G02*
X142960000Y-110965000I-225000J0D01*
G01*
X142510000Y-110965000D01*
G75*
G02*
X142285000Y-110740000I0J225000D01*
G01*
G37*
G04 #@! TD.AperFunction*
G04 #@! TA.AperFunction,SMDPad,CuDef*
G36*
G01*
X138755000Y-110740000D02*
X138755000Y-110240000D01*
G75*
G02*
X138980000Y-110015000I225000J0D01*
G01*
X139430000Y-110015000D01*
G75*
G02*
X139655000Y-110240000I0J-225000D01*
G01*
X139655000Y-110740000D01*
G75*
G02*
X139430000Y-110965000I-225000J0D01*
G01*
X138980000Y-110965000D01*
G75*
G02*
X138755000Y-110740000I0J225000D01*
G01*
G37*
G04 #@! TD.AperFunction*
G04 #@! TA.AperFunction,SMDPad,CuDef*
G36*
G01*
X137205000Y-110740000D02*
X137205000Y-110240000D01*
G75*
G02*
X137430000Y-110015000I225000J0D01*
G01*
X137880000Y-110015000D01*
G75*
G02*
X138105000Y-110240000I0J-225000D01*
G01*
X138105000Y-110740000D01*
G75*
G02*
X137880000Y-110965000I-225000J0D01*
G01*
X137430000Y-110965000D01*
G75*
G02*
X137205000Y-110740000I0J225000D01*
G01*
G37*
G04 #@! TD.AperFunction*
D21*
X139065000Y-90170000D03*
X123190000Y-90170000D03*
X116586000Y-88773000D03*
X107188000Y-85471000D03*
X131445000Y-93980000D03*
X140652503Y-96202503D03*
X128905000Y-101600000D03*
X133350000Y-96520000D03*
X126746000Y-98425000D03*
X111760000Y-100965000D03*
D22*
X139575000Y-101475000D02*
X139700000Y-101600000D01*
D23*
X141175000Y-103505000D02*
X139575000Y-103505000D01*
X141175000Y-101475000D02*
X141175000Y-103505000D01*
X139575000Y-103505000D02*
X139575000Y-101475000D01*
X139575000Y-97665000D02*
X139575000Y-101475000D01*
X139575000Y-95698499D02*
X139575000Y-97665000D01*
X140375000Y-94898499D02*
X139575000Y-95698499D01*
X140375000Y-92975000D02*
X140375000Y-94898499D01*
X140375000Y-91480000D02*
X139065000Y-90170000D01*
X140375000Y-92975000D02*
X140375000Y-91480000D01*
X104265000Y-79500000D02*
X105285000Y-80520000D01*
X103505000Y-79500000D02*
X104265000Y-79500000D01*
X103505000Y-101090000D02*
X104265000Y-101090000D01*
X105285000Y-102110000D02*
X104265000Y-101090000D01*
D22*
X142775000Y-101475000D02*
X142775000Y-104240000D01*
X140335000Y-106680000D02*
X138430000Y-106680000D01*
X142775000Y-104240000D02*
X140335000Y-106680000D01*
X137655000Y-107455000D02*
X137655000Y-110490000D01*
X138430000Y-106680000D02*
X137655000Y-107455000D01*
X143310000Y-106680000D02*
X143310000Y-104975000D01*
X143575000Y-104710000D02*
X143575000Y-101475000D01*
X143310000Y-104975000D02*
X143575000Y-104710000D01*
X144285000Y-107655000D02*
X144285000Y-110490000D01*
X143310000Y-106680000D02*
X144285000Y-107655000D01*
D23*
X142775000Y-92975000D02*
X142775000Y-95350000D01*
X140375000Y-97750000D02*
X140375000Y-101475000D01*
X141975000Y-97525000D02*
X141287500Y-96837500D01*
X141975000Y-101475000D02*
X141975000Y-97525000D01*
X141287500Y-96837500D02*
X140375000Y-97750000D01*
X142775000Y-95350000D02*
X141287500Y-96837500D01*
D22*
X131445000Y-93980000D02*
X131445000Y-95885000D01*
D23*
X141287500Y-96837500D02*
X140652503Y-96202503D01*
X104525000Y-98030000D02*
X103505000Y-99050000D01*
X105285000Y-98030000D02*
X104525000Y-98030000D01*
X104525000Y-76440000D02*
X103505000Y-77460000D01*
X105285000Y-76440000D02*
X104525000Y-76440000D01*
X105285000Y-76440000D02*
X105285000Y-75055000D01*
X105285000Y-75055000D02*
X108340001Y-71999999D01*
X108340001Y-71999999D02*
X116449999Y-71999999D01*
D22*
X111240000Y-92075000D02*
X105285000Y-98030000D01*
X113665000Y-92075000D02*
X111240000Y-92075000D01*
D23*
X126609999Y-71999999D02*
X127635000Y-73025000D01*
X127635000Y-73025000D02*
X127635000Y-74930000D01*
X116449999Y-71999999D02*
X126609999Y-71999999D01*
D22*
X114690001Y-71999999D02*
X116449999Y-71999999D01*
X114680000Y-72010000D02*
X114690001Y-71999999D01*
X114680000Y-74295000D02*
X114680000Y-72010000D01*
X123125000Y-83820000D02*
X121285000Y-83820000D01*
X121285000Y-83820000D02*
X120650000Y-84455000D01*
X123125000Y-85090000D02*
X120650000Y-85090000D01*
X120650000Y-84455000D02*
X120650000Y-85090000D01*
D23*
X99705000Y-77460000D02*
X103505000Y-77460000D01*
X97155000Y-80010000D02*
X99705000Y-77460000D01*
X99050000Y-99050000D02*
X97155000Y-97155000D01*
X97155000Y-97155000D02*
X97155000Y-80010000D01*
X103505000Y-99050000D02*
X99050000Y-99050000D01*
D22*
X120650000Y-86360000D02*
X118175000Y-86360000D01*
X120650000Y-85090000D02*
X120650000Y-86360000D01*
X120650000Y-86360000D02*
X120650000Y-88265000D01*
X116840000Y-92075000D02*
X113665000Y-92075000D01*
X120650000Y-88265000D02*
X116840000Y-92075000D01*
X123190000Y-100965000D02*
X121285000Y-100965000D01*
X118110000Y-104140000D02*
X113665000Y-104140000D01*
X121285000Y-100965000D02*
X118110000Y-104140000D01*
X128270000Y-100965000D02*
X123190000Y-100965000D01*
X128905000Y-101600000D02*
X128270000Y-100965000D01*
X113665000Y-93473000D02*
X113665000Y-92075000D01*
X131535000Y-97625000D02*
X131445000Y-97535000D01*
X133820000Y-96990000D02*
X133350000Y-96520000D01*
X133820000Y-97625000D02*
X133820000Y-96990000D01*
X136525000Y-97625000D02*
X133820000Y-97625000D01*
X133820000Y-97625000D02*
X131535000Y-97625000D01*
X146076410Y-95225000D02*
X145025000Y-95225000D01*
X147135010Y-91888600D02*
X147135010Y-94166400D01*
X143319001Y-88072591D02*
X147135010Y-91888600D01*
X143319001Y-86423999D02*
X143319001Y-88072591D01*
X142715001Y-85819999D02*
X143319001Y-86423999D01*
X147135010Y-94166400D02*
X146076410Y-95225000D01*
X140429999Y-85819999D02*
X142715001Y-85819999D01*
X139065000Y-84455000D02*
X140429999Y-85819999D01*
X139065000Y-86995000D02*
X139065000Y-87415000D01*
X143575000Y-92975000D02*
X143575000Y-90108000D01*
X142005500Y-88538500D02*
X140188500Y-88538500D01*
X143575000Y-90108000D02*
X142005500Y-88538500D01*
X139065000Y-87415000D02*
X140188500Y-88538500D01*
X145415000Y-90805000D02*
X141605000Y-86995000D01*
X146685000Y-92075000D02*
X145415000Y-90805000D01*
X146685000Y-93980000D02*
X146685000Y-92075000D01*
X146240000Y-94425000D02*
X146685000Y-93980000D01*
X145025000Y-94425000D02*
X146240000Y-94425000D01*
X136525000Y-98425000D02*
X132080000Y-98425000D01*
X132080000Y-98425000D02*
X130810000Y-99695000D01*
X125730000Y-99695000D02*
X123190000Y-99695000D01*
X130810000Y-99695000D02*
X128270000Y-99695000D01*
X126746000Y-99695000D02*
X126746000Y-98425000D01*
X128270000Y-99695000D02*
X126746000Y-99695000D01*
X126746000Y-99695000D02*
X125730000Y-99695000D01*
X136525000Y-100025000D02*
X133655000Y-100025000D01*
X132715000Y-100965000D02*
X132715000Y-101855000D01*
X133655000Y-100025000D02*
X132715000Y-100965000D01*
X132715000Y-103505000D02*
X132715000Y-105410000D01*
X113665000Y-95123000D02*
X112268000Y-95123000D01*
X111885000Y-94740000D02*
X110105000Y-94740000D01*
X112268000Y-95123000D02*
X111885000Y-94740000D01*
X110485000Y-105790000D02*
X110105000Y-106170000D01*
X113665000Y-105790000D02*
X110485000Y-105790000D01*
X110230000Y-73025000D02*
X110105000Y-73150000D01*
X112395000Y-73025000D02*
X110230000Y-73025000D01*
X113030000Y-73660000D02*
X112395000Y-73025000D01*
X113030000Y-74295000D02*
X113030000Y-73660000D01*
X102479999Y-82565001D02*
X103505000Y-81540000D01*
X102479999Y-84072001D02*
X102479999Y-82565001D01*
X103265003Y-84605001D02*
X103012999Y-84605001D01*
X108703002Y-90043000D02*
X103265003Y-84605001D01*
X103012999Y-84605001D02*
X102479999Y-84072001D01*
X113665000Y-90043000D02*
X108703002Y-90043000D01*
X118240000Y-100965000D02*
X116840000Y-100965000D01*
X116015000Y-100140000D02*
X113665000Y-100140000D01*
X116840000Y-100965000D02*
X116015000Y-100140000D01*
X112585000Y-100140000D02*
X111760000Y-100965000D01*
X113665000Y-100140000D02*
X112585000Y-100140000D01*
X119317000Y-101790000D02*
X113665000Y-101790000D01*
X119888000Y-101219000D02*
X119317000Y-101790000D01*
X119888000Y-100203000D02*
X119888000Y-101219000D01*
X119380000Y-99695000D02*
X119888000Y-100203000D01*
X118240000Y-99695000D02*
X119380000Y-99695000D01*
X102479999Y-104155001D02*
X103505000Y-103130000D01*
X102479999Y-105662001D02*
X102479999Y-104155001D01*
X103012999Y-106195001D02*
X102479999Y-105662001D01*
X105513999Y-106195001D02*
X103012999Y-106195001D01*
X109919000Y-101790000D02*
X105513999Y-106195001D01*
X113665000Y-101790000D02*
X109919000Y-101790000D01*
X112280000Y-97155000D02*
X105285000Y-104150000D01*
X118240000Y-97155000D02*
X112280000Y-97155000D01*
X103510001Y-105175001D02*
X103505000Y-105170000D01*
X105777001Y-105175001D02*
X103510001Y-105175001D01*
X112527002Y-98425000D02*
X105777001Y-105175001D01*
X118240000Y-98425000D02*
X112527002Y-98425000D01*
X111772820Y-82560000D02*
X105285000Y-82560000D01*
X113032820Y-83820000D02*
X111772820Y-82560000D01*
X118175000Y-83820000D02*
X113032820Y-83820000D01*
X104204999Y-84279999D02*
X103505000Y-83580000D01*
X105807003Y-83554999D02*
X105082003Y-84279999D01*
X105082003Y-84279999D02*
X104204999Y-84279999D01*
X112131409Y-83554999D02*
X105807003Y-83554999D01*
X113666410Y-85090000D02*
X112131409Y-83554999D01*
X118175000Y-85090000D02*
X113666410Y-85090000D01*
X125232500Y-82550000D02*
X123125000Y-82550000D01*
X126555000Y-83872500D02*
X125232500Y-82550000D01*
X125095000Y-98425000D02*
X126555000Y-96965000D01*
X123190000Y-98425000D02*
X125095000Y-98425000D01*
X126555000Y-93282000D02*
X126555000Y-83872500D01*
X126555000Y-96965000D02*
X126555000Y-93282000D01*
X120904000Y-98425000D02*
X123190000Y-98425000D01*
X120904000Y-99949000D02*
X120904000Y-98425000D01*
X121275010Y-100320010D02*
X120904000Y-99949000D01*
X130821400Y-100320010D02*
X121275010Y-100320010D01*
X131916410Y-99225000D02*
X130821400Y-100320010D01*
X136525000Y-99225000D02*
X131916410Y-99225000D01*
X110605010Y-96529990D02*
X110105000Y-97030000D01*
X120024990Y-96529990D02*
X110605010Y-96529990D01*
X120904000Y-97409000D02*
X120024990Y-96529990D01*
X120904000Y-98425000D02*
X120904000Y-97409000D01*
X112142000Y-86870000D02*
X113665000Y-88393000D01*
X110105000Y-86870000D02*
X112142000Y-86870000D01*
D24*
X161367001Y-112980000D02*
X93903000Y-112980000D01*
X93903000Y-111079224D01*
X103225381Y-111079224D01*
X103357317Y-111374312D01*
X103698045Y-111545159D01*
X104065557Y-111646250D01*
X104445729Y-111673701D01*
X104823951Y-111626457D01*
X105185690Y-111506333D01*
X105432683Y-111374312D01*
X105564619Y-111079224D01*
X104395000Y-109909605D01*
X103225381Y-111079224D01*
X93903000Y-111079224D01*
X93903000Y-101164473D01*
X102165610Y-101164473D01*
X102205875Y-101424344D01*
X102296065Y-101671366D01*
X102349963Y-101772203D01*
X102583731Y-101831664D01*
X103325395Y-101090000D01*
X102583731Y-100348336D01*
X102349963Y-100407797D01*
X102239066Y-100646242D01*
X102176817Y-100901740D01*
X102165610Y-101164473D01*
X93903000Y-101164473D01*
X93903000Y-80010000D01*
X96265719Y-80010000D01*
X96270001Y-80053479D01*
X96270000Y-97111531D01*
X96265719Y-97155000D01*
X96270000Y-97198469D01*
X96270000Y-97198476D01*
X96282805Y-97328489D01*
X96333411Y-97495312D01*
X96415589Y-97649058D01*
X96526183Y-97783817D01*
X96559956Y-97811534D01*
X98393470Y-99645049D01*
X98421183Y-99678817D01*
X98454951Y-99706530D01*
X98454953Y-99706532D01*
X98540209Y-99776500D01*
X98555941Y-99789411D01*
X98709687Y-99871589D01*
X98876510Y-99922195D01*
X99006523Y-99935000D01*
X99006531Y-99935000D01*
X99050000Y-99939281D01*
X99093469Y-99935000D01*
X102502025Y-99935000D01*
X102653987Y-100086962D01*
X102765229Y-100161291D01*
X102763336Y-100168731D01*
X103505000Y-100910395D01*
X103519143Y-100896253D01*
X103698748Y-101075858D01*
X103684605Y-101090000D01*
X103698748Y-101104143D01*
X103519143Y-101283748D01*
X103505000Y-101269605D01*
X102763336Y-102011269D01*
X102765229Y-102018709D01*
X102653987Y-102093038D01*
X102468038Y-102278987D01*
X102321939Y-102497641D01*
X102221304Y-102740595D01*
X102170000Y-102998514D01*
X102170000Y-103261486D01*
X102191355Y-103368844D01*
X101968997Y-103591202D01*
X101939999Y-103615000D01*
X101916201Y-103643998D01*
X101916200Y-103643999D01*
X101845025Y-103730725D01*
X101774453Y-103862755D01*
X101767310Y-103886304D01*
X101735548Y-103991014D01*
X101730997Y-104006016D01*
X101716323Y-104155001D01*
X101720000Y-104192333D01*
X101719999Y-105624678D01*
X101716323Y-105662001D01*
X101719999Y-105699323D01*
X101719999Y-105699333D01*
X101730996Y-105810986D01*
X101734498Y-105822530D01*
X101624218Y-105776851D01*
X101187591Y-105690000D01*
X100742409Y-105690000D01*
X100305782Y-105776851D01*
X99894489Y-105947214D01*
X99524334Y-106194544D01*
X99209544Y-106509334D01*
X98962214Y-106879489D01*
X98791851Y-107290782D01*
X98705000Y-107727409D01*
X98705000Y-108172591D01*
X98791851Y-108609218D01*
X98962214Y-109020511D01*
X99209544Y-109390666D01*
X99524334Y-109705456D01*
X99894489Y-109952786D01*
X100305782Y-110123149D01*
X100742409Y-110210000D01*
X101187591Y-110210000D01*
X101624218Y-110123149D01*
X102035511Y-109952786D01*
X102405666Y-109705456D01*
X102460709Y-109650413D01*
X102451299Y-109780729D01*
X102498543Y-110158951D01*
X102618667Y-110520690D01*
X102750688Y-110767683D01*
X103045776Y-110899619D01*
X104215395Y-109730000D01*
X104574605Y-109730000D01*
X105744224Y-110899619D01*
X106039312Y-110767683D01*
X106210159Y-110426955D01*
X106264567Y-110229155D01*
X121725450Y-110229155D01*
X122121634Y-110749550D01*
X122836612Y-111139748D01*
X123613976Y-111382964D01*
X124423853Y-111469851D01*
X125235118Y-111397069D01*
X126016597Y-111167415D01*
X126738256Y-110789715D01*
X126798366Y-110749550D01*
X127194550Y-110229155D01*
X124460000Y-107494605D01*
X121725450Y-110229155D01*
X106264567Y-110229155D01*
X106311250Y-110059443D01*
X106338701Y-109679271D01*
X106291457Y-109301049D01*
X106171333Y-108939310D01*
X106039312Y-108692317D01*
X105744224Y-108560381D01*
X104574605Y-109730000D01*
X104215395Y-109730000D01*
X104201253Y-109715858D01*
X104380858Y-109536253D01*
X104395000Y-109550395D01*
X105564619Y-108380776D01*
X105432683Y-108085688D01*
X105091955Y-107914841D01*
X104724443Y-107813750D01*
X104344271Y-107786299D01*
X103966049Y-107833543D01*
X103604310Y-107953667D01*
X103357317Y-108085688D01*
X103225382Y-108380774D01*
X103190523Y-108345915D01*
X103225000Y-108172591D01*
X103225000Y-107727409D01*
X103138149Y-107290782D01*
X103000059Y-106957402D01*
X103012999Y-106958677D01*
X103050322Y-106955001D01*
X105476677Y-106955001D01*
X105513999Y-106958677D01*
X105551321Y-106955001D01*
X105551332Y-106955001D01*
X105662985Y-106944004D01*
X105806246Y-106900547D01*
X105938275Y-106829975D01*
X106054000Y-106735002D01*
X106077804Y-106705997D01*
X110233802Y-102550000D01*
X112770635Y-102550000D01*
X112797394Y-102582606D01*
X112924392Y-102686831D01*
X113069284Y-102764278D01*
X113226500Y-102811969D01*
X113390000Y-102828072D01*
X113940000Y-102828072D01*
X114103500Y-102811969D01*
X114260716Y-102764278D01*
X114405608Y-102686831D01*
X114532606Y-102582606D01*
X114559365Y-102550000D01*
X118625199Y-102550000D01*
X117795199Y-103380000D01*
X114559365Y-103380000D01*
X114532606Y-103347394D01*
X114405608Y-103243169D01*
X114260716Y-103165722D01*
X114103500Y-103118031D01*
X113940000Y-103101928D01*
X113390000Y-103101928D01*
X113226500Y-103118031D01*
X113069284Y-103165722D01*
X112924392Y-103243169D01*
X112797394Y-103347394D01*
X112693169Y-103474392D01*
X112615722Y-103619284D01*
X112568031Y-103776500D01*
X112551928Y-103940000D01*
X112551928Y-104340000D01*
X112568031Y-104503500D01*
X112615722Y-104660716D01*
X112693169Y-104805608D01*
X112797394Y-104932606D01*
X112836866Y-104965000D01*
X112797394Y-104997394D01*
X112770635Y-105030000D01*
X110801805Y-105030000D01*
X110737359Y-104986939D01*
X110494405Y-104886304D01*
X110236486Y-104835000D01*
X109973514Y-104835000D01*
X109715595Y-104886304D01*
X109472641Y-104986939D01*
X109253987Y-105133038D01*
X109068038Y-105318987D01*
X108921939Y-105537641D01*
X108821304Y-105780595D01*
X108770000Y-106038514D01*
X108770000Y-106301486D01*
X108821304Y-106559405D01*
X108921939Y-106802359D01*
X109068038Y-107021013D01*
X109253987Y-107206962D01*
X109415678Y-107315000D01*
X109253987Y-107423038D01*
X109068038Y-107608987D01*
X108921939Y-107827641D01*
X108821304Y-108070595D01*
X108770000Y-108328514D01*
X108770000Y-108591486D01*
X108821304Y-108849405D01*
X108921939Y-109092359D01*
X109068038Y-109311013D01*
X109253987Y-109496962D01*
X109472641Y-109643061D01*
X109715595Y-109743696D01*
X109973514Y-109795000D01*
X110236486Y-109795000D01*
X110494405Y-109743696D01*
X110737359Y-109643061D01*
X110956013Y-109496962D01*
X111141962Y-109311013D01*
X111288061Y-109092359D01*
X111388696Y-108849405D01*
X111440000Y-108591486D01*
X111440000Y-108328514D01*
X111388696Y-108070595D01*
X111288061Y-107827641D01*
X111141962Y-107608987D01*
X110956013Y-107423038D01*
X110794322Y-107315000D01*
X110848420Y-107278853D01*
X120305149Y-107278853D01*
X120377931Y-108090118D01*
X120607585Y-108871597D01*
X120985285Y-109593256D01*
X121025450Y-109653366D01*
X121545845Y-110049550D01*
X124280395Y-107315000D01*
X124639605Y-107315000D01*
X127374155Y-110049550D01*
X127894550Y-109653366D01*
X128284748Y-108938388D01*
X128527964Y-108161024D01*
X128607195Y-107422500D01*
X131601928Y-107422500D01*
X131614188Y-107546982D01*
X131650498Y-107666680D01*
X131709463Y-107776994D01*
X131788815Y-107873685D01*
X131885506Y-107953037D01*
X131995820Y-108012002D01*
X132115518Y-108048312D01*
X132240000Y-108060572D01*
X132429250Y-108057500D01*
X132588000Y-107898750D01*
X132588000Y-107112000D01*
X132842000Y-107112000D01*
X132842000Y-107898750D01*
X133000750Y-108057500D01*
X133190000Y-108060572D01*
X133314482Y-108048312D01*
X133434180Y-108012002D01*
X133544494Y-107953037D01*
X133641185Y-107873685D01*
X133720537Y-107776994D01*
X133779502Y-107666680D01*
X133815812Y-107546982D01*
X133828072Y-107422500D01*
X133825000Y-107270750D01*
X133666250Y-107112000D01*
X132842000Y-107112000D01*
X132588000Y-107112000D01*
X131763750Y-107112000D01*
X131605000Y-107270750D01*
X131601928Y-107422500D01*
X128607195Y-107422500D01*
X128614851Y-107351147D01*
X128542069Y-106539882D01*
X128312415Y-105758403D01*
X127934715Y-105036744D01*
X127894550Y-104976634D01*
X127374155Y-104580450D01*
X124639605Y-107315000D01*
X124280395Y-107315000D01*
X121545845Y-104580450D01*
X121025450Y-104976634D01*
X120635252Y-105691612D01*
X120392036Y-106468976D01*
X120305149Y-107278853D01*
X110848420Y-107278853D01*
X110956013Y-107206962D01*
X111141962Y-107021013D01*
X111288061Y-106802359D01*
X111388696Y-106559405D01*
X111390567Y-106550000D01*
X112770635Y-106550000D01*
X112797394Y-106582606D01*
X112924392Y-106686831D01*
X113069284Y-106764278D01*
X113226500Y-106811969D01*
X113390000Y-106828072D01*
X113940000Y-106828072D01*
X114103500Y-106811969D01*
X114260716Y-106764278D01*
X114405608Y-106686831D01*
X114532606Y-106582606D01*
X114636831Y-106455608D01*
X114714278Y-106310716D01*
X114761969Y-106153500D01*
X114778072Y-105990000D01*
X114778072Y-105590000D01*
X114761969Y-105426500D01*
X114714278Y-105269284D01*
X114636831Y-105124392D01*
X114532606Y-104997394D01*
X114493134Y-104965000D01*
X114532606Y-104932606D01*
X114559365Y-104900000D01*
X118072678Y-104900000D01*
X118110000Y-104903676D01*
X118147322Y-104900000D01*
X118147333Y-104900000D01*
X118258986Y-104889003D01*
X118402247Y-104845546D01*
X118534276Y-104774974D01*
X118650001Y-104680001D01*
X118673804Y-104650997D01*
X118923956Y-104400845D01*
X121725450Y-104400845D01*
X124460000Y-107135395D01*
X127194550Y-104400845D01*
X126798366Y-103880450D01*
X126083388Y-103490252D01*
X125306024Y-103247036D01*
X124496147Y-103160149D01*
X123684882Y-103232931D01*
X122903403Y-103462585D01*
X122181744Y-103840285D01*
X122121634Y-103880450D01*
X121725450Y-104400845D01*
X118923956Y-104400845D01*
X121599802Y-101725000D01*
X121872024Y-101725000D01*
X121927171Y-101770258D01*
X122063418Y-101843084D01*
X122211255Y-101887929D01*
X122365000Y-101903072D01*
X124015000Y-101903072D01*
X124168745Y-101887929D01*
X124316582Y-101843084D01*
X124452829Y-101770258D01*
X124507976Y-101725000D01*
X127874587Y-101725000D01*
X127909774Y-101901898D01*
X127987795Y-102090256D01*
X128101063Y-102259774D01*
X128245226Y-102403937D01*
X128414744Y-102517205D01*
X128603102Y-102595226D01*
X128803061Y-102635000D01*
X129006939Y-102635000D01*
X129206898Y-102595226D01*
X129395256Y-102517205D01*
X129564774Y-102403937D01*
X129708937Y-102259774D01*
X129822205Y-102090256D01*
X129900226Y-101901898D01*
X129940000Y-101701939D01*
X129940000Y-101498061D01*
X129900226Y-101298102D01*
X129822205Y-101109744D01*
X129802337Y-101080010D01*
X130784078Y-101080010D01*
X130821400Y-101083686D01*
X130858722Y-101080010D01*
X130858733Y-101080010D01*
X130970386Y-101069013D01*
X131113647Y-101025556D01*
X131245676Y-100954984D01*
X131361401Y-100860011D01*
X131385204Y-100831008D01*
X132231212Y-99985000D01*
X132620199Y-99985000D01*
X132204002Y-100401196D01*
X132174999Y-100424999D01*
X132138893Y-100468995D01*
X132080026Y-100540724D01*
X132015600Y-100661255D01*
X132009454Y-100672754D01*
X131965997Y-100816015D01*
X131955000Y-100927668D01*
X131955000Y-100927678D01*
X131951324Y-100965000D01*
X131952427Y-100976196D01*
X131847394Y-101062394D01*
X131743169Y-101189392D01*
X131665722Y-101334284D01*
X131618031Y-101491500D01*
X131601928Y-101655000D01*
X131601928Y-102055000D01*
X131618031Y-102218500D01*
X131665722Y-102375716D01*
X131743169Y-102520608D01*
X131847394Y-102647606D01*
X131886866Y-102680000D01*
X131847394Y-102712394D01*
X131743169Y-102839392D01*
X131665722Y-102984284D01*
X131618031Y-103141500D01*
X131601928Y-103305000D01*
X131601928Y-103705000D01*
X131618031Y-103868500D01*
X131665722Y-104025716D01*
X131743169Y-104170608D01*
X131847394Y-104297606D01*
X131955000Y-104385917D01*
X131955001Y-104501582D01*
X131852885Y-104585385D01*
X131746329Y-104715225D01*
X131667150Y-104863358D01*
X131618392Y-105024092D01*
X131601928Y-105191250D01*
X131601928Y-105628750D01*
X131618392Y-105795908D01*
X131667150Y-105956642D01*
X131746329Y-106104775D01*
X131764100Y-106126430D01*
X131709463Y-106193006D01*
X131650498Y-106303320D01*
X131614188Y-106423018D01*
X131601928Y-106547500D01*
X131605000Y-106699250D01*
X131763750Y-106858000D01*
X132588000Y-106858000D01*
X132588000Y-106838000D01*
X132842000Y-106838000D01*
X132842000Y-106858000D01*
X133666250Y-106858000D01*
X133825000Y-106699250D01*
X133828072Y-106547500D01*
X133815812Y-106423018D01*
X133779502Y-106303320D01*
X133720537Y-106193006D01*
X133665900Y-106126430D01*
X133683671Y-106104775D01*
X133762850Y-105956642D01*
X133811608Y-105795908D01*
X133828072Y-105628750D01*
X133828072Y-105191250D01*
X133811608Y-105024092D01*
X133762850Y-104863358D01*
X133683671Y-104715225D01*
X133577115Y-104585385D01*
X133475000Y-104501582D01*
X133475000Y-104385916D01*
X133582606Y-104297606D01*
X133686831Y-104170608D01*
X133764278Y-104025716D01*
X133811969Y-103868500D01*
X133828072Y-103705000D01*
X133828072Y-103305000D01*
X133811969Y-103141500D01*
X133764278Y-102984284D01*
X133686831Y-102839392D01*
X133582606Y-102712394D01*
X133543134Y-102680000D01*
X133582606Y-102647606D01*
X133686831Y-102520608D01*
X133764278Y-102375716D01*
X133811969Y-102218500D01*
X133828072Y-102055000D01*
X133828072Y-101655000D01*
X133811969Y-101491500D01*
X133764278Y-101334284D01*
X133686831Y-101189392D01*
X133632100Y-101122702D01*
X133969802Y-100785000D01*
X135315019Y-100785000D01*
X135370506Y-100830537D01*
X135480820Y-100889502D01*
X135600518Y-100925812D01*
X135725000Y-100938072D01*
X137061928Y-100938072D01*
X137061928Y-102275000D01*
X137074188Y-102399482D01*
X137110498Y-102519180D01*
X137169463Y-102629494D01*
X137248815Y-102726185D01*
X137345506Y-102805537D01*
X137455820Y-102864502D01*
X137575518Y-102900812D01*
X137700000Y-102913072D01*
X138250000Y-102913072D01*
X138374482Y-102900812D01*
X138375000Y-102900655D01*
X138375518Y-102900812D01*
X138500000Y-102913072D01*
X139050000Y-102913072D01*
X139174482Y-102900812D01*
X139175620Y-102900467D01*
X139289250Y-102910000D01*
X139381333Y-102817917D01*
X139404494Y-102805537D01*
X139501185Y-102726185D01*
X139575000Y-102636241D01*
X139648815Y-102726185D01*
X139745506Y-102805537D01*
X139768667Y-102817917D01*
X139860750Y-102910000D01*
X139974380Y-102900467D01*
X139975518Y-102900812D01*
X140100000Y-102913072D01*
X140650000Y-102913072D01*
X140774482Y-102900812D01*
X140775620Y-102900467D01*
X140889250Y-102910000D01*
X140981333Y-102817917D01*
X141004494Y-102805537D01*
X141101185Y-102726185D01*
X141175000Y-102636241D01*
X141248815Y-102726185D01*
X141345506Y-102805537D01*
X141368667Y-102817917D01*
X141460750Y-102910000D01*
X141574380Y-102900467D01*
X141575518Y-102900812D01*
X141700000Y-102913072D01*
X142015001Y-102913072D01*
X142015001Y-103925197D01*
X140020199Y-105920000D01*
X139587909Y-105920000D01*
X139505799Y-105797114D01*
X139312886Y-105604201D01*
X139086043Y-105452629D01*
X138833989Y-105348225D01*
X138566411Y-105295000D01*
X138293589Y-105295000D01*
X138026011Y-105348225D01*
X137773957Y-105452629D01*
X137547114Y-105604201D01*
X137354201Y-105797114D01*
X137202629Y-106023957D01*
X137098225Y-106276011D01*
X137045000Y-106543589D01*
X137045000Y-106816411D01*
X137074441Y-106964420D01*
X137020026Y-107030724D01*
X136976583Y-107112000D01*
X136949454Y-107162754D01*
X136905997Y-107306015D01*
X136895000Y-107417668D01*
X136895000Y-107417678D01*
X136891324Y-107455000D01*
X136895000Y-107492323D01*
X136895001Y-109567932D01*
X136819716Y-109629716D01*
X136712382Y-109760503D01*
X136632625Y-109909717D01*
X136583512Y-110071623D01*
X136566928Y-110240000D01*
X136566928Y-110740000D01*
X136583512Y-110908377D01*
X136632625Y-111070283D01*
X136712382Y-111219497D01*
X136819716Y-111350284D01*
X136950503Y-111457618D01*
X137099717Y-111537375D01*
X137261623Y-111586488D01*
X137430000Y-111603072D01*
X137880000Y-111603072D01*
X138048377Y-111586488D01*
X138210283Y-111537375D01*
X138356351Y-111459300D01*
X138400506Y-111495537D01*
X138510820Y-111554502D01*
X138630518Y-111590812D01*
X138755000Y-111603072D01*
X138919250Y-111600000D01*
X139078000Y-111441250D01*
X139078000Y-110617000D01*
X139332000Y-110617000D01*
X139332000Y-111441250D01*
X139490750Y-111600000D01*
X139655000Y-111603072D01*
X139779482Y-111590812D01*
X139899180Y-111554502D01*
X140009494Y-111495537D01*
X140106185Y-111416185D01*
X140185537Y-111319494D01*
X140244502Y-111209180D01*
X140280812Y-111089482D01*
X140293072Y-110965000D01*
X141646928Y-110965000D01*
X141659188Y-111089482D01*
X141695498Y-111209180D01*
X141754463Y-111319494D01*
X141833815Y-111416185D01*
X141930506Y-111495537D01*
X142040820Y-111554502D01*
X142160518Y-111590812D01*
X142285000Y-111603072D01*
X142449250Y-111600000D01*
X142608000Y-111441250D01*
X142608000Y-110617000D01*
X141808750Y-110617000D01*
X141650000Y-110775750D01*
X141646928Y-110965000D01*
X140293072Y-110965000D01*
X140290000Y-110775750D01*
X140131250Y-110617000D01*
X139332000Y-110617000D01*
X139078000Y-110617000D01*
X139058000Y-110617000D01*
X139058000Y-110363000D01*
X139078000Y-110363000D01*
X139078000Y-109538750D01*
X139332000Y-109538750D01*
X139332000Y-110363000D01*
X140131250Y-110363000D01*
X140290000Y-110204250D01*
X140293072Y-110015000D01*
X141646928Y-110015000D01*
X141650000Y-110204250D01*
X141808750Y-110363000D01*
X142608000Y-110363000D01*
X142608000Y-109538750D01*
X142449250Y-109380000D01*
X142285000Y-109376928D01*
X142160518Y-109389188D01*
X142040820Y-109425498D01*
X141930506Y-109484463D01*
X141833815Y-109563815D01*
X141754463Y-109660506D01*
X141695498Y-109770820D01*
X141659188Y-109890518D01*
X141646928Y-110015000D01*
X140293072Y-110015000D01*
X140280812Y-109890518D01*
X140244502Y-109770820D01*
X140185537Y-109660506D01*
X140106185Y-109563815D01*
X140009494Y-109484463D01*
X139899180Y-109425498D01*
X139779482Y-109389188D01*
X139655000Y-109376928D01*
X139490750Y-109380000D01*
X139332000Y-109538750D01*
X139078000Y-109538750D01*
X138919250Y-109380000D01*
X138755000Y-109376928D01*
X138630518Y-109389188D01*
X138510820Y-109425498D01*
X138415000Y-109476716D01*
X138415000Y-108065000D01*
X138566411Y-108065000D01*
X138833989Y-108011775D01*
X139086043Y-107907371D01*
X139312886Y-107755799D01*
X139505799Y-107562886D01*
X139587909Y-107440000D01*
X140297678Y-107440000D01*
X140335000Y-107443676D01*
X140372322Y-107440000D01*
X140372333Y-107440000D01*
X140483986Y-107429003D01*
X140627247Y-107385546D01*
X140759276Y-107314974D01*
X140875001Y-107220001D01*
X140898804Y-107190997D01*
X142116428Y-105973374D01*
X142082629Y-106023957D01*
X141978225Y-106276011D01*
X141925000Y-106543589D01*
X141925000Y-106816411D01*
X141978225Y-107083989D01*
X142082629Y-107336043D01*
X142234201Y-107562886D01*
X142427114Y-107755799D01*
X142653957Y-107907371D01*
X142906011Y-108011775D01*
X143173589Y-108065000D01*
X143446411Y-108065000D01*
X143525000Y-108049368D01*
X143525001Y-109476716D01*
X143429180Y-109425498D01*
X143309482Y-109389188D01*
X143185000Y-109376928D01*
X143020750Y-109380000D01*
X142862000Y-109538750D01*
X142862000Y-110363000D01*
X142882000Y-110363000D01*
X142882000Y-110617000D01*
X142862000Y-110617000D01*
X142862000Y-111441250D01*
X143020750Y-111600000D01*
X143185000Y-111603072D01*
X143309482Y-111590812D01*
X143429180Y-111554502D01*
X143539494Y-111495537D01*
X143583649Y-111459300D01*
X143729717Y-111537375D01*
X143891623Y-111586488D01*
X144060000Y-111603072D01*
X144510000Y-111603072D01*
X144678377Y-111586488D01*
X144840283Y-111537375D01*
X144989497Y-111457618D01*
X145120284Y-111350284D01*
X145227618Y-111219497D01*
X145307375Y-111070283D01*
X145356488Y-110908377D01*
X145373072Y-110740000D01*
X145373072Y-110240000D01*
X145356488Y-110071623D01*
X145307375Y-109909717D01*
X145227618Y-109760503D01*
X145120284Y-109629716D01*
X145045000Y-109567932D01*
X145045000Y-107692322D01*
X145048676Y-107654999D01*
X145045000Y-107617676D01*
X145045000Y-107617667D01*
X145034003Y-107506014D01*
X144990546Y-107362753D01*
X144919974Y-107230724D01*
X144825001Y-107114999D01*
X144796004Y-107091202D01*
X144666167Y-106961365D01*
X144695000Y-106816411D01*
X144695000Y-106543589D01*
X144641775Y-106276011D01*
X144537371Y-106023957D01*
X144385799Y-105797114D01*
X144192886Y-105604201D01*
X144070000Y-105522091D01*
X144070000Y-105289801D01*
X144085998Y-105273803D01*
X144115001Y-105250001D01*
X144209974Y-105134276D01*
X144280546Y-105002247D01*
X144324003Y-104858986D01*
X144335000Y-104747333D01*
X144335000Y-104747332D01*
X144338677Y-104710000D01*
X144335000Y-104672667D01*
X144335000Y-102684981D01*
X144380537Y-102629494D01*
X144439502Y-102519180D01*
X144475812Y-102399482D01*
X144488072Y-102275000D01*
X144488072Y-100938072D01*
X145825000Y-100938072D01*
X145949482Y-100925812D01*
X146069180Y-100889502D01*
X146179494Y-100830537D01*
X146276185Y-100751185D01*
X146355537Y-100654494D01*
X146414502Y-100544180D01*
X146450812Y-100424482D01*
X146463072Y-100300000D01*
X146463072Y-99750000D01*
X146450812Y-99625518D01*
X146450655Y-99625000D01*
X146450812Y-99624482D01*
X146463072Y-99500000D01*
X146463072Y-98950000D01*
X146450812Y-98825518D01*
X146450655Y-98825000D01*
X146450812Y-98824482D01*
X146463072Y-98700000D01*
X146463072Y-98150000D01*
X146450812Y-98025518D01*
X146450655Y-98025000D01*
X146450812Y-98024482D01*
X146463072Y-97900000D01*
X146463072Y-97350000D01*
X146450812Y-97225518D01*
X146450655Y-97225000D01*
X146450812Y-97224482D01*
X146463072Y-97100000D01*
X146463072Y-96550000D01*
X146450812Y-96425518D01*
X146450655Y-96424999D01*
X146450812Y-96424482D01*
X146463072Y-96300000D01*
X146463072Y-95880079D01*
X146500686Y-95859974D01*
X146616411Y-95765001D01*
X146640213Y-95735998D01*
X147646018Y-94730195D01*
X147675011Y-94706401D01*
X147698805Y-94677408D01*
X147698809Y-94677404D01*
X147769706Y-94591015D01*
X147769984Y-94590676D01*
X147840556Y-94458647D01*
X147884013Y-94315386D01*
X147895010Y-94203733D01*
X147895010Y-94203724D01*
X147898686Y-94166401D01*
X147895010Y-94129078D01*
X147895010Y-91925925D01*
X147898686Y-91888600D01*
X147895010Y-91851275D01*
X147895010Y-91851267D01*
X147884013Y-91739614D01*
X147840556Y-91596353D01*
X147769984Y-91464324D01*
X147675011Y-91348599D01*
X147646014Y-91324802D01*
X144079001Y-87757790D01*
X144079001Y-86461321D01*
X144082677Y-86423999D01*
X144079001Y-86386676D01*
X144079001Y-86386666D01*
X144068004Y-86275013D01*
X144024547Y-86131752D01*
X143990339Y-86067754D01*
X143953975Y-85999722D01*
X143882800Y-85912996D01*
X143859002Y-85883998D01*
X143830005Y-85860201D01*
X143278804Y-85309001D01*
X143255002Y-85279998D01*
X143139277Y-85185025D01*
X143007248Y-85114453D01*
X142946794Y-85096115D01*
X143032932Y-84888158D01*
X143090000Y-84601260D01*
X143090000Y-84308740D01*
X143032932Y-84021842D01*
X142920990Y-83751589D01*
X142758475Y-83508368D01*
X142551632Y-83301525D01*
X142308411Y-83139010D01*
X142038158Y-83027068D01*
X141751260Y-82970000D01*
X141458740Y-82970000D01*
X141171842Y-83027068D01*
X140901589Y-83139010D01*
X140658368Y-83301525D01*
X140451525Y-83508368D01*
X140335000Y-83682760D01*
X140218475Y-83508368D01*
X140011632Y-83301525D01*
X139768411Y-83139010D01*
X139498158Y-83027068D01*
X139211260Y-82970000D01*
X138918740Y-82970000D01*
X138631842Y-83027068D01*
X138361589Y-83139010D01*
X138118368Y-83301525D01*
X137911525Y-83508368D01*
X137789805Y-83690534D01*
X137720178Y-83573645D01*
X137525269Y-83357412D01*
X137291920Y-83183359D01*
X137029099Y-83058175D01*
X136881890Y-83013524D01*
X136652000Y-83134845D01*
X136652000Y-84328000D01*
X136672000Y-84328000D01*
X136672000Y-84582000D01*
X136652000Y-84582000D01*
X136652000Y-84602000D01*
X136398000Y-84602000D01*
X136398000Y-84582000D01*
X135204186Y-84582000D01*
X135083519Y-84811891D01*
X135180843Y-85086252D01*
X135329822Y-85336355D01*
X135524731Y-85552588D01*
X135754406Y-85723900D01*
X135578368Y-85841525D01*
X135371525Y-86048368D01*
X135209010Y-86291589D01*
X135097068Y-86561842D01*
X135040000Y-86848740D01*
X135040000Y-87141260D01*
X135097068Y-87428158D01*
X135209010Y-87698411D01*
X135371525Y-87941632D01*
X135578368Y-88148475D01*
X135821589Y-88310990D01*
X136091842Y-88422932D01*
X136378740Y-88480000D01*
X136671260Y-88480000D01*
X136958158Y-88422932D01*
X137228411Y-88310990D01*
X137471632Y-88148475D01*
X137678475Y-87941632D01*
X137795000Y-87767240D01*
X137911525Y-87941632D01*
X138118368Y-88148475D01*
X138361589Y-88310990D01*
X138631842Y-88422932D01*
X138918740Y-88480000D01*
X139055199Y-88480000D01*
X139624700Y-89049502D01*
X139648499Y-89078501D01*
X139677497Y-89102299D01*
X139764223Y-89173474D01*
X139896253Y-89244046D01*
X140039514Y-89287503D01*
X140151167Y-89298500D01*
X140151177Y-89298500D01*
X140188500Y-89302176D01*
X140225823Y-89298500D01*
X141690699Y-89298500D01*
X142815001Y-90422803D01*
X142815001Y-91536928D01*
X142500000Y-91536928D01*
X142375518Y-91549188D01*
X142375000Y-91549345D01*
X142374482Y-91549188D01*
X142250000Y-91536928D01*
X141700000Y-91536928D01*
X141575518Y-91549188D01*
X141575000Y-91549345D01*
X141574482Y-91549188D01*
X141450000Y-91536928D01*
X140900000Y-91536928D01*
X140775518Y-91549188D01*
X140774380Y-91549533D01*
X140660750Y-91540000D01*
X140568667Y-91632083D01*
X140545506Y-91644463D01*
X140448815Y-91723815D01*
X140375000Y-91813759D01*
X140301185Y-91723815D01*
X140204494Y-91644463D01*
X140181333Y-91632083D01*
X140089250Y-91540000D01*
X139975620Y-91549533D01*
X139974482Y-91549188D01*
X139850000Y-91536928D01*
X139300000Y-91536928D01*
X139175518Y-91549188D01*
X139175000Y-91549345D01*
X139174482Y-91549188D01*
X139050000Y-91536928D01*
X138500000Y-91536928D01*
X138375518Y-91549188D01*
X138375000Y-91549345D01*
X138374482Y-91549188D01*
X138250000Y-91536928D01*
X137700000Y-91536928D01*
X137575518Y-91549188D01*
X137455820Y-91585498D01*
X137345506Y-91644463D01*
X137248815Y-91723815D01*
X137169463Y-91820506D01*
X137110498Y-91930820D01*
X137074188Y-92050518D01*
X137061928Y-92175000D01*
X137061928Y-93511928D01*
X135725000Y-93511928D01*
X135600518Y-93524188D01*
X135480820Y-93560498D01*
X135370506Y-93619463D01*
X135273815Y-93698815D01*
X135194463Y-93795506D01*
X135135498Y-93905820D01*
X135099188Y-94025518D01*
X135086928Y-94150000D01*
X135086928Y-94700000D01*
X135099188Y-94824482D01*
X135099345Y-94825000D01*
X135099188Y-94825518D01*
X135086928Y-94950000D01*
X135086928Y-95500000D01*
X135099188Y-95624482D01*
X135099345Y-95625000D01*
X135099188Y-95625518D01*
X135086928Y-95750000D01*
X135086928Y-96300000D01*
X135099188Y-96424482D01*
X135099345Y-96424999D01*
X135099188Y-96425518D01*
X135086928Y-96550000D01*
X135086928Y-96865000D01*
X134571365Y-96865000D01*
X134569003Y-96841014D01*
X134525546Y-96697753D01*
X134454974Y-96565724D01*
X134385000Y-96480460D01*
X134385000Y-96418061D01*
X134345226Y-96218102D01*
X134267205Y-96029744D01*
X134153937Y-95860226D01*
X134009774Y-95716063D01*
X133840256Y-95602795D01*
X133651898Y-95524774D01*
X133451939Y-95485000D01*
X133248061Y-95485000D01*
X133048102Y-95524774D01*
X132859744Y-95602795D01*
X132690226Y-95716063D01*
X132558072Y-95848217D01*
X132558072Y-95685000D01*
X132541969Y-95521500D01*
X132494278Y-95364284D01*
X132416831Y-95219392D01*
X132312606Y-95092394D01*
X132205000Y-95004084D01*
X132205000Y-94683711D01*
X132248937Y-94639774D01*
X132362205Y-94470256D01*
X132440226Y-94281898D01*
X132480000Y-94081939D01*
X132480000Y-93878061D01*
X132440226Y-93678102D01*
X132362205Y-93489744D01*
X132248937Y-93320226D01*
X132104774Y-93176063D01*
X131935256Y-93062795D01*
X131746898Y-92984774D01*
X131546939Y-92945000D01*
X131343061Y-92945000D01*
X131143102Y-92984774D01*
X130954744Y-93062795D01*
X130785226Y-93176063D01*
X130641063Y-93320226D01*
X130527795Y-93489744D01*
X130449774Y-93678102D01*
X130410000Y-93878061D01*
X130410000Y-94081939D01*
X130449774Y-94281898D01*
X130527795Y-94470256D01*
X130641063Y-94639774D01*
X130685000Y-94683711D01*
X130685001Y-95004083D01*
X130577394Y-95092394D01*
X130473169Y-95219392D01*
X130395722Y-95364284D01*
X130348031Y-95521500D01*
X130331928Y-95685000D01*
X130331928Y-96085000D01*
X130348031Y-96248500D01*
X130395722Y-96405716D01*
X130473169Y-96550608D01*
X130577394Y-96677606D01*
X130616866Y-96710000D01*
X130577394Y-96742394D01*
X130473169Y-96869392D01*
X130395722Y-97014284D01*
X130348031Y-97171500D01*
X130331928Y-97335000D01*
X130331928Y-97735000D01*
X130348031Y-97898500D01*
X130395722Y-98055716D01*
X130473169Y-98200608D01*
X130577394Y-98327606D01*
X130704392Y-98431831D01*
X130849284Y-98509278D01*
X130904247Y-98525951D01*
X130495199Y-98935000D01*
X127650013Y-98935000D01*
X127663205Y-98915256D01*
X127741226Y-98726898D01*
X127781000Y-98526939D01*
X127781000Y-98323061D01*
X127741226Y-98123102D01*
X127663205Y-97934744D01*
X127549937Y-97765226D01*
X127405774Y-97621063D01*
X127236256Y-97507795D01*
X127129126Y-97463420D01*
X127189974Y-97389276D01*
X127260546Y-97257247D01*
X127304003Y-97113986D01*
X127315000Y-97002333D01*
X127315000Y-97002323D01*
X127318676Y-96965000D01*
X127315000Y-96927677D01*
X127315000Y-84098109D01*
X135083519Y-84098109D01*
X135204186Y-84328000D01*
X136398000Y-84328000D01*
X136398000Y-83134845D01*
X136168110Y-83013524D01*
X136020901Y-83058175D01*
X135758080Y-83183359D01*
X135524731Y-83357412D01*
X135329822Y-83573645D01*
X135180843Y-83823748D01*
X135083519Y-84098109D01*
X127315000Y-84098109D01*
X127315000Y-83909822D01*
X127318676Y-83872499D01*
X127315000Y-83835176D01*
X127315000Y-83835167D01*
X127304003Y-83723514D01*
X127260546Y-83580253D01*
X127189974Y-83448224D01*
X127155333Y-83406014D01*
X127118799Y-83361496D01*
X127118795Y-83361492D01*
X127095001Y-83332499D01*
X127066008Y-83308705D01*
X125796303Y-82039002D01*
X125772501Y-82009999D01*
X125656776Y-81915026D01*
X125524747Y-81844454D01*
X125381486Y-81800997D01*
X125269833Y-81790000D01*
X125269822Y-81790000D01*
X125232500Y-81786324D01*
X125195178Y-81790000D01*
X124442976Y-81790000D01*
X124387829Y-81744742D01*
X124251582Y-81671916D01*
X124103745Y-81627071D01*
X123950000Y-81611928D01*
X122300000Y-81611928D01*
X122146255Y-81627071D01*
X121998418Y-81671916D01*
X121862171Y-81744742D01*
X121742749Y-81842749D01*
X121644742Y-81962171D01*
X121571916Y-82098418D01*
X121527071Y-82246255D01*
X121511928Y-82400000D01*
X121511928Y-82700000D01*
X121527071Y-82853745D01*
X121571916Y-83001582D01*
X121603141Y-83060000D01*
X121322333Y-83060000D01*
X121285000Y-83056323D01*
X121247667Y-83060000D01*
X121136014Y-83070997D01*
X120992753Y-83114454D01*
X120860724Y-83185026D01*
X120744999Y-83279999D01*
X120721201Y-83308997D01*
X120139002Y-83891197D01*
X120109999Y-83914999D01*
X120065350Y-83969405D01*
X120015026Y-84030724D01*
X119973008Y-84109334D01*
X119944454Y-84162754D01*
X119900997Y-84306015D01*
X119890000Y-84417668D01*
X119890000Y-84417678D01*
X119886324Y-84455000D01*
X119890000Y-84492322D01*
X119890000Y-85052667D01*
X119886323Y-85090000D01*
X119890000Y-85127333D01*
X119890000Y-85600000D01*
X119696859Y-85600000D01*
X119728084Y-85541582D01*
X119772929Y-85393745D01*
X119788072Y-85240000D01*
X119788072Y-84940000D01*
X119772929Y-84786255D01*
X119728084Y-84638418D01*
X119655258Y-84502171D01*
X119616546Y-84455000D01*
X119655258Y-84407829D01*
X119728084Y-84271582D01*
X119772929Y-84123745D01*
X119788072Y-83970000D01*
X119788072Y-83670000D01*
X119772929Y-83516255D01*
X119728084Y-83368418D01*
X119656270Y-83234064D01*
X119680537Y-83204494D01*
X119739502Y-83094180D01*
X119775812Y-82974482D01*
X119788072Y-82850000D01*
X119785000Y-82835750D01*
X119626250Y-82677000D01*
X118302000Y-82677000D01*
X118302000Y-82697000D01*
X118048000Y-82697000D01*
X118048000Y-82677000D01*
X116723750Y-82677000D01*
X116565000Y-82835750D01*
X116561928Y-82850000D01*
X116574188Y-82974482D01*
X116600130Y-83060000D01*
X113347622Y-83060000D01*
X112537622Y-82250000D01*
X116561928Y-82250000D01*
X116565000Y-82264250D01*
X116723750Y-82423000D01*
X118048000Y-82423000D01*
X118048000Y-81773750D01*
X118302000Y-81773750D01*
X118302000Y-82423000D01*
X119626250Y-82423000D01*
X119785000Y-82264250D01*
X119788072Y-82250000D01*
X119775812Y-82125518D01*
X119739502Y-82005820D01*
X119680537Y-81895506D01*
X119601185Y-81798815D01*
X119504494Y-81719463D01*
X119394180Y-81660498D01*
X119274482Y-81624188D01*
X119150000Y-81611928D01*
X118460750Y-81615000D01*
X118302000Y-81773750D01*
X118048000Y-81773750D01*
X117889250Y-81615000D01*
X117200000Y-81611928D01*
X117075518Y-81624188D01*
X116955820Y-81660498D01*
X116845506Y-81719463D01*
X116748815Y-81798815D01*
X116669463Y-81895506D01*
X116610498Y-82005820D01*
X116574188Y-82125518D01*
X116561928Y-82250000D01*
X112537622Y-82250000D01*
X112336624Y-82049003D01*
X112312821Y-82019999D01*
X112197096Y-81925026D01*
X112065067Y-81854454D01*
X111921806Y-81810997D01*
X111810153Y-81800000D01*
X111810142Y-81800000D01*
X111772820Y-81796324D01*
X111735498Y-81800000D01*
X106382775Y-81800000D01*
X106321962Y-81708987D01*
X106136013Y-81523038D01*
X106024771Y-81448709D01*
X106026664Y-81441269D01*
X105285000Y-80699605D01*
X105270858Y-80713748D01*
X105091253Y-80534143D01*
X105105395Y-80520000D01*
X105464605Y-80520000D01*
X106206269Y-81261664D01*
X106440037Y-81202203D01*
X106550934Y-80963758D01*
X106613183Y-80708260D01*
X106624390Y-80445527D01*
X106584125Y-80185656D01*
X106493935Y-79938634D01*
X106440037Y-79837797D01*
X106206269Y-79778336D01*
X105464605Y-80520000D01*
X105105395Y-80520000D01*
X105091253Y-80505858D01*
X105270858Y-80326253D01*
X105285000Y-80340395D01*
X106026664Y-79598731D01*
X106024771Y-79591291D01*
X106136013Y-79516962D01*
X106321962Y-79331013D01*
X106466860Y-79114155D01*
X151570450Y-79114155D01*
X151966634Y-79634550D01*
X152681612Y-80024748D01*
X153458976Y-80267964D01*
X154268853Y-80354851D01*
X155080118Y-80282069D01*
X155861597Y-80052415D01*
X156583256Y-79674715D01*
X156643366Y-79634550D01*
X157039550Y-79114155D01*
X154305000Y-76379605D01*
X151570450Y-79114155D01*
X106466860Y-79114155D01*
X106468061Y-79112359D01*
X106568696Y-78869405D01*
X106620000Y-78611486D01*
X106620000Y-78348514D01*
X106568696Y-78090595D01*
X106468061Y-77847641D01*
X106321962Y-77628987D01*
X106152975Y-77460000D01*
X106321962Y-77291013D01*
X106436226Y-77120003D01*
X141411086Y-77120003D01*
X141506270Y-77386165D01*
X141651551Y-77628644D01*
X141841346Y-77838121D01*
X142068361Y-78006545D01*
X142323872Y-78127445D01*
X142459745Y-78168662D01*
X142682874Y-78046767D01*
X142682874Y-76896874D01*
X142936874Y-76896874D01*
X142936874Y-78046767D01*
X143160003Y-78168662D01*
X143426165Y-78073478D01*
X143668644Y-77928197D01*
X143878121Y-77738402D01*
X144046545Y-77511387D01*
X144167445Y-77255876D01*
X144208662Y-77120003D01*
X144086767Y-76896874D01*
X142936874Y-76896874D01*
X142682874Y-76896874D01*
X141532981Y-76896874D01*
X141411086Y-77120003D01*
X106436226Y-77120003D01*
X106468061Y-77072359D01*
X106568696Y-76829405D01*
X106620000Y-76571486D01*
X106620000Y-76308514D01*
X106568696Y-76050595D01*
X106468061Y-75807641D01*
X106321962Y-75588987D01*
X106170000Y-75437025D01*
X106170000Y-75421578D01*
X108706580Y-72884999D01*
X108796558Y-72884999D01*
X108770000Y-73018514D01*
X108770000Y-73281486D01*
X108821304Y-73539405D01*
X108921939Y-73782359D01*
X109068038Y-74001013D01*
X109253987Y-74186962D01*
X109415678Y-74295000D01*
X109253987Y-74403038D01*
X109068038Y-74588987D01*
X108921939Y-74807641D01*
X108821304Y-75050595D01*
X108770000Y-75308514D01*
X108770000Y-75571486D01*
X108821304Y-75829405D01*
X108921939Y-76072359D01*
X109068038Y-76291013D01*
X109253987Y-76476962D01*
X109472641Y-76623061D01*
X109715595Y-76723696D01*
X109973514Y-76775000D01*
X110236486Y-76775000D01*
X110494405Y-76723696D01*
X110737359Y-76623061D01*
X110956013Y-76476962D01*
X111141962Y-76291013D01*
X111182729Y-76230000D01*
X122496928Y-76230000D01*
X122509188Y-76354482D01*
X122545498Y-76474180D01*
X122604463Y-76584494D01*
X122683815Y-76681185D01*
X122780506Y-76760537D01*
X122890820Y-76819502D01*
X123010518Y-76855812D01*
X123135000Y-76868072D01*
X123849250Y-76865000D01*
X124008000Y-76706250D01*
X124008000Y-75057000D01*
X124262000Y-75057000D01*
X124262000Y-76706250D01*
X124420750Y-76865000D01*
X125135000Y-76868072D01*
X125259482Y-76855812D01*
X125379180Y-76819502D01*
X125489494Y-76760537D01*
X125586185Y-76681185D01*
X125665537Y-76584494D01*
X125724502Y-76474180D01*
X125760812Y-76354482D01*
X125773072Y-76230000D01*
X125770000Y-75215750D01*
X125611250Y-75057000D01*
X124262000Y-75057000D01*
X124008000Y-75057000D01*
X122658750Y-75057000D01*
X122500000Y-75215750D01*
X122496928Y-76230000D01*
X111182729Y-76230000D01*
X111288061Y-76072359D01*
X111388696Y-75829405D01*
X111440000Y-75571486D01*
X111440000Y-75308514D01*
X111388696Y-75050595D01*
X111288061Y-74807641D01*
X111141962Y-74588987D01*
X110956013Y-74403038D01*
X110794322Y-74295000D01*
X110956013Y-74186962D01*
X111141962Y-74001013D01*
X111286296Y-73785000D01*
X112029720Y-73785000D01*
X112008031Y-73856500D01*
X111991928Y-74020000D01*
X111991928Y-74570000D01*
X112008031Y-74733500D01*
X112055722Y-74890716D01*
X112133169Y-75035608D01*
X112237394Y-75162606D01*
X112364392Y-75266831D01*
X112509284Y-75344278D01*
X112666500Y-75391969D01*
X112830000Y-75408072D01*
X113230000Y-75408072D01*
X113393500Y-75391969D01*
X113550716Y-75344278D01*
X113695608Y-75266831D01*
X113822606Y-75162606D01*
X113855000Y-75123134D01*
X113887394Y-75162606D01*
X114014392Y-75266831D01*
X114159284Y-75344278D01*
X114316500Y-75391969D01*
X114480000Y-75408072D01*
X114880000Y-75408072D01*
X115043500Y-75391969D01*
X115200716Y-75344278D01*
X115345608Y-75266831D01*
X115472606Y-75162606D01*
X115576831Y-75035608D01*
X115654278Y-74890716D01*
X115701969Y-74733500D01*
X115718072Y-74570000D01*
X115718072Y-74020000D01*
X115701969Y-73856500D01*
X115654278Y-73699284D01*
X115617245Y-73630000D01*
X122496928Y-73630000D01*
X122500000Y-74644250D01*
X122658750Y-74803000D01*
X124008000Y-74803000D01*
X124008000Y-73153750D01*
X124262000Y-73153750D01*
X124262000Y-74803000D01*
X125611250Y-74803000D01*
X125770000Y-74644250D01*
X125773072Y-73630000D01*
X125760812Y-73505518D01*
X125724502Y-73385820D01*
X125665537Y-73275506D01*
X125586185Y-73178815D01*
X125489494Y-73099463D01*
X125379180Y-73040498D01*
X125259482Y-73004188D01*
X125135000Y-72991928D01*
X124420750Y-72995000D01*
X124262000Y-73153750D01*
X124008000Y-73153750D01*
X123849250Y-72995000D01*
X123135000Y-72991928D01*
X123010518Y-73004188D01*
X122890820Y-73040498D01*
X122780506Y-73099463D01*
X122683815Y-73178815D01*
X122604463Y-73275506D01*
X122545498Y-73385820D01*
X122509188Y-73505518D01*
X122496928Y-73630000D01*
X115617245Y-73630000D01*
X115576831Y-73554392D01*
X115472606Y-73427394D01*
X115440000Y-73400635D01*
X115440000Y-72884999D01*
X126243421Y-72884999D01*
X126667402Y-73308980D01*
X126473286Y-73468286D01*
X126268969Y-73717249D01*
X126117148Y-74001286D01*
X126023657Y-74309485D01*
X126000000Y-74549679D01*
X126000000Y-75310322D01*
X126023657Y-75550516D01*
X126117148Y-75858715D01*
X126268969Y-76142752D01*
X126473286Y-76391714D01*
X126722249Y-76596031D01*
X127006286Y-76747852D01*
X127314485Y-76841343D01*
X127635000Y-76872911D01*
X127955516Y-76841343D01*
X128263715Y-76747852D01*
X128547752Y-76596031D01*
X128796714Y-76391714D01*
X129001031Y-76142752D01*
X129152852Y-75858715D01*
X129246343Y-75550515D01*
X129270000Y-75310321D01*
X129270000Y-74549679D01*
X129500000Y-74549679D01*
X129500000Y-75310322D01*
X129523657Y-75550516D01*
X129617148Y-75858715D01*
X129768969Y-76142752D01*
X129973286Y-76391714D01*
X130222249Y-76596031D01*
X130506286Y-76747852D01*
X130814485Y-76841343D01*
X131135000Y-76872911D01*
X131455516Y-76841343D01*
X131763715Y-76747852D01*
X132047752Y-76596031D01*
X132262557Y-76419745D01*
X141411086Y-76419745D01*
X141532981Y-76642874D01*
X142682874Y-76642874D01*
X142682874Y-75492981D01*
X142936874Y-75492981D01*
X142936874Y-76642874D01*
X144086767Y-76642874D01*
X144208662Y-76419745D01*
X144117151Y-76163853D01*
X150150149Y-76163853D01*
X150222931Y-76975118D01*
X150452585Y-77756597D01*
X150830285Y-78478256D01*
X150870450Y-78538366D01*
X151390845Y-78934550D01*
X154125395Y-76200000D01*
X154484605Y-76200000D01*
X157219155Y-78934550D01*
X157739550Y-78538366D01*
X158129748Y-77823388D01*
X158372964Y-77046024D01*
X158459851Y-76236147D01*
X158387069Y-75424882D01*
X158157415Y-74643403D01*
X157779715Y-73921744D01*
X157739550Y-73861634D01*
X157219155Y-73465450D01*
X154484605Y-76200000D01*
X154125395Y-76200000D01*
X151390845Y-73465450D01*
X150870450Y-73861634D01*
X150480252Y-74576612D01*
X150237036Y-75353976D01*
X150150149Y-76163853D01*
X144117151Y-76163853D01*
X144113478Y-76153583D01*
X143968197Y-75911104D01*
X143778402Y-75701627D01*
X143551387Y-75533203D01*
X143295876Y-75412303D01*
X143160003Y-75371086D01*
X142936874Y-75492981D01*
X142682874Y-75492981D01*
X142459745Y-75371086D01*
X142193583Y-75466270D01*
X141951104Y-75611551D01*
X141741627Y-75801346D01*
X141573203Y-76028361D01*
X141452303Y-76283872D01*
X141411086Y-76419745D01*
X132262557Y-76419745D01*
X132296714Y-76391714D01*
X132501031Y-76142752D01*
X132652852Y-75858715D01*
X132746343Y-75550515D01*
X132770000Y-75310321D01*
X132770000Y-74549678D01*
X132746343Y-74309484D01*
X132699076Y-74153665D01*
X138900000Y-74153665D01*
X138900000Y-74436335D01*
X138955147Y-74713574D01*
X139063320Y-74974727D01*
X139220363Y-75209759D01*
X139420241Y-75409637D01*
X139655273Y-75566680D01*
X139916426Y-75674853D01*
X140193665Y-75730000D01*
X140476335Y-75730000D01*
X140753574Y-75674853D01*
X141014727Y-75566680D01*
X141249759Y-75409637D01*
X141449637Y-75209759D01*
X141606680Y-74974727D01*
X141714853Y-74713574D01*
X141770000Y-74436335D01*
X141770000Y-74153665D01*
X141714853Y-73876426D01*
X141606680Y-73615273D01*
X141449637Y-73380241D01*
X141355241Y-73285845D01*
X151570450Y-73285845D01*
X154305000Y-76020395D01*
X157039550Y-73285845D01*
X156643366Y-72765450D01*
X155928388Y-72375252D01*
X155151024Y-72132036D01*
X154341147Y-72045149D01*
X153529882Y-72117931D01*
X152748403Y-72347585D01*
X152026744Y-72725285D01*
X151966634Y-72765450D01*
X151570450Y-73285845D01*
X141355241Y-73285845D01*
X141249759Y-73180363D01*
X141014727Y-73023320D01*
X140753574Y-72915147D01*
X140476335Y-72860000D01*
X140193665Y-72860000D01*
X139916426Y-72915147D01*
X139655273Y-73023320D01*
X139420241Y-73180363D01*
X139220363Y-73380241D01*
X139063320Y-73615273D01*
X138955147Y-73876426D01*
X138900000Y-74153665D01*
X132699076Y-74153665D01*
X132652852Y-74001285D01*
X132501031Y-73717248D01*
X132296714Y-73468286D01*
X132047751Y-73263969D01*
X131763714Y-73112148D01*
X131455515Y-73018657D01*
X131135000Y-72987089D01*
X130814484Y-73018657D01*
X130506285Y-73112148D01*
X130222248Y-73263969D01*
X129973286Y-73468286D01*
X129768969Y-73717249D01*
X129617148Y-74001286D01*
X129523657Y-74309485D01*
X129500000Y-74549679D01*
X129270000Y-74549679D01*
X129270000Y-74549678D01*
X129246343Y-74309484D01*
X129152852Y-74001285D01*
X129001031Y-73717248D01*
X128796714Y-73468286D01*
X128547751Y-73263969D01*
X128520000Y-73249136D01*
X128520000Y-73068465D01*
X128524281Y-73024999D01*
X128520000Y-72981533D01*
X128520000Y-72981523D01*
X128507195Y-72851510D01*
X128456589Y-72684687D01*
X128374411Y-72530941D01*
X128336707Y-72484999D01*
X128291532Y-72429953D01*
X128291530Y-72429951D01*
X128263817Y-72396183D01*
X128230050Y-72368471D01*
X127266533Y-71404955D01*
X127238816Y-71371182D01*
X127104058Y-71260588D01*
X126950312Y-71178410D01*
X126783489Y-71127804D01*
X126653476Y-71114999D01*
X126653468Y-71114999D01*
X126609999Y-71110718D01*
X126566530Y-71114999D01*
X108383470Y-71114999D01*
X108340001Y-71110718D01*
X108296532Y-71114999D01*
X108296524Y-71114999D01*
X108166511Y-71127804D01*
X107999688Y-71178410D01*
X107891341Y-71236322D01*
X107845942Y-71260588D01*
X107744954Y-71343467D01*
X107744952Y-71343469D01*
X107711184Y-71371182D01*
X107683471Y-71404950D01*
X104689951Y-74398471D01*
X104656184Y-74426183D01*
X104628471Y-74459951D01*
X104628468Y-74459954D01*
X104545590Y-74560941D01*
X104463412Y-74714687D01*
X104412805Y-74881510D01*
X104395719Y-75055000D01*
X104400001Y-75098479D01*
X104400001Y-75437024D01*
X104248038Y-75588987D01*
X104239485Y-75601788D01*
X104184687Y-75618411D01*
X104089272Y-75669411D01*
X104030941Y-75700589D01*
X103929953Y-75783468D01*
X103929951Y-75783470D01*
X103896183Y-75811183D01*
X103868470Y-75844951D01*
X103588421Y-76125000D01*
X103373514Y-76125000D01*
X103115595Y-76176304D01*
X102872641Y-76276939D01*
X102653987Y-76423038D01*
X102502025Y-76575000D01*
X99748469Y-76575000D01*
X99705000Y-76570719D01*
X99661531Y-76575000D01*
X99661523Y-76575000D01*
X99531510Y-76587805D01*
X99364686Y-76638411D01*
X99210941Y-76720589D01*
X99109953Y-76803468D01*
X99109951Y-76803470D01*
X99076183Y-76831183D01*
X99048470Y-76864951D01*
X96559951Y-79353471D01*
X96526184Y-79381183D01*
X96498471Y-79414951D01*
X96498468Y-79414954D01*
X96415590Y-79515941D01*
X96333412Y-79669687D01*
X96282805Y-79836510D01*
X96265719Y-80010000D01*
X93903000Y-80010000D01*
X93903000Y-73437409D01*
X98705000Y-73437409D01*
X98705000Y-73882591D01*
X98791851Y-74319218D01*
X98962214Y-74730511D01*
X99209544Y-75100666D01*
X99524334Y-75415456D01*
X99894489Y-75662786D01*
X100305782Y-75833149D01*
X100742409Y-75920000D01*
X101187591Y-75920000D01*
X101624218Y-75833149D01*
X102035511Y-75662786D01*
X102405666Y-75415456D01*
X102720456Y-75100666D01*
X102967786Y-74730511D01*
X103138149Y-74319218D01*
X103225000Y-73882591D01*
X103225000Y-73437409D01*
X103190523Y-73264085D01*
X103225382Y-73229226D01*
X103357317Y-73524312D01*
X103698045Y-73695159D01*
X104065557Y-73796250D01*
X104445729Y-73823701D01*
X104823951Y-73776457D01*
X105185690Y-73656333D01*
X105432683Y-73524312D01*
X105564619Y-73229224D01*
X104395000Y-72059605D01*
X104380858Y-72073748D01*
X104201253Y-71894143D01*
X104215395Y-71880000D01*
X104574605Y-71880000D01*
X105744224Y-73049619D01*
X106039312Y-72917683D01*
X106210159Y-72576955D01*
X106311250Y-72209443D01*
X106338701Y-71829271D01*
X106291457Y-71451049D01*
X106171333Y-71089310D01*
X106039312Y-70842317D01*
X105744224Y-70710381D01*
X104574605Y-71880000D01*
X104215395Y-71880000D01*
X103045776Y-70710381D01*
X102750688Y-70842317D01*
X102579841Y-71183045D01*
X102478750Y-71550557D01*
X102451299Y-71930729D01*
X102454075Y-71952953D01*
X102405666Y-71904544D01*
X102035511Y-71657214D01*
X101624218Y-71486851D01*
X101187591Y-71400000D01*
X100742409Y-71400000D01*
X100305782Y-71486851D01*
X99894489Y-71657214D01*
X99524334Y-71904544D01*
X99209544Y-72219334D01*
X98962214Y-72589489D01*
X98791851Y-73000782D01*
X98705000Y-73437409D01*
X93903000Y-73437409D01*
X93903000Y-70530776D01*
X103225381Y-70530776D01*
X104395000Y-71700395D01*
X105564619Y-70530776D01*
X105432683Y-70235688D01*
X105091955Y-70064841D01*
X104724443Y-69963750D01*
X104344271Y-69936299D01*
X103966049Y-69983543D01*
X103604310Y-70103667D01*
X103357317Y-70235688D01*
X103225381Y-70530776D01*
X93903000Y-70530776D01*
X93903000Y-68630000D01*
X161367000Y-68630000D01*
X161367001Y-112980000D01*
G04 #@! TA.AperFunction,Conductor*
D25*
G36*
X161367001Y-112980000D02*
G01*
X93903000Y-112980000D01*
X93903000Y-111079224D01*
X103225381Y-111079224D01*
X103357317Y-111374312D01*
X103698045Y-111545159D01*
X104065557Y-111646250D01*
X104445729Y-111673701D01*
X104823951Y-111626457D01*
X105185690Y-111506333D01*
X105432683Y-111374312D01*
X105564619Y-111079224D01*
X104395000Y-109909605D01*
X103225381Y-111079224D01*
X93903000Y-111079224D01*
X93903000Y-101164473D01*
X102165610Y-101164473D01*
X102205875Y-101424344D01*
X102296065Y-101671366D01*
X102349963Y-101772203D01*
X102583731Y-101831664D01*
X103325395Y-101090000D01*
X102583731Y-100348336D01*
X102349963Y-100407797D01*
X102239066Y-100646242D01*
X102176817Y-100901740D01*
X102165610Y-101164473D01*
X93903000Y-101164473D01*
X93903000Y-80010000D01*
X96265719Y-80010000D01*
X96270001Y-80053479D01*
X96270000Y-97111531D01*
X96265719Y-97155000D01*
X96270000Y-97198469D01*
X96270000Y-97198476D01*
X96282805Y-97328489D01*
X96333411Y-97495312D01*
X96415589Y-97649058D01*
X96526183Y-97783817D01*
X96559956Y-97811534D01*
X98393470Y-99645049D01*
X98421183Y-99678817D01*
X98454951Y-99706530D01*
X98454953Y-99706532D01*
X98540209Y-99776500D01*
X98555941Y-99789411D01*
X98709687Y-99871589D01*
X98876510Y-99922195D01*
X99006523Y-99935000D01*
X99006531Y-99935000D01*
X99050000Y-99939281D01*
X99093469Y-99935000D01*
X102502025Y-99935000D01*
X102653987Y-100086962D01*
X102765229Y-100161291D01*
X102763336Y-100168731D01*
X103505000Y-100910395D01*
X103519143Y-100896253D01*
X103698748Y-101075858D01*
X103684605Y-101090000D01*
X103698748Y-101104143D01*
X103519143Y-101283748D01*
X103505000Y-101269605D01*
X102763336Y-102011269D01*
X102765229Y-102018709D01*
X102653987Y-102093038D01*
X102468038Y-102278987D01*
X102321939Y-102497641D01*
X102221304Y-102740595D01*
X102170000Y-102998514D01*
X102170000Y-103261486D01*
X102191355Y-103368844D01*
X101968997Y-103591202D01*
X101939999Y-103615000D01*
X101916201Y-103643998D01*
X101916200Y-103643999D01*
X101845025Y-103730725D01*
X101774453Y-103862755D01*
X101767310Y-103886304D01*
X101735548Y-103991014D01*
X101730997Y-104006016D01*
X101716323Y-104155001D01*
X101720000Y-104192333D01*
X101719999Y-105624678D01*
X101716323Y-105662001D01*
X101719999Y-105699323D01*
X101719999Y-105699333D01*
X101730996Y-105810986D01*
X101734498Y-105822530D01*
X101624218Y-105776851D01*
X101187591Y-105690000D01*
X100742409Y-105690000D01*
X100305782Y-105776851D01*
X99894489Y-105947214D01*
X99524334Y-106194544D01*
X99209544Y-106509334D01*
X98962214Y-106879489D01*
X98791851Y-107290782D01*
X98705000Y-107727409D01*
X98705000Y-108172591D01*
X98791851Y-108609218D01*
X98962214Y-109020511D01*
X99209544Y-109390666D01*
X99524334Y-109705456D01*
X99894489Y-109952786D01*
X100305782Y-110123149D01*
X100742409Y-110210000D01*
X101187591Y-110210000D01*
X101624218Y-110123149D01*
X102035511Y-109952786D01*
X102405666Y-109705456D01*
X102460709Y-109650413D01*
X102451299Y-109780729D01*
X102498543Y-110158951D01*
X102618667Y-110520690D01*
X102750688Y-110767683D01*
X103045776Y-110899619D01*
X104215395Y-109730000D01*
X104574605Y-109730000D01*
X105744224Y-110899619D01*
X106039312Y-110767683D01*
X106210159Y-110426955D01*
X106264567Y-110229155D01*
X121725450Y-110229155D01*
X122121634Y-110749550D01*
X122836612Y-111139748D01*
X123613976Y-111382964D01*
X124423853Y-111469851D01*
X125235118Y-111397069D01*
X126016597Y-111167415D01*
X126738256Y-110789715D01*
X126798366Y-110749550D01*
X127194550Y-110229155D01*
X124460000Y-107494605D01*
X121725450Y-110229155D01*
X106264567Y-110229155D01*
X106311250Y-110059443D01*
X106338701Y-109679271D01*
X106291457Y-109301049D01*
X106171333Y-108939310D01*
X106039312Y-108692317D01*
X105744224Y-108560381D01*
X104574605Y-109730000D01*
X104215395Y-109730000D01*
X104201253Y-109715858D01*
X104380858Y-109536253D01*
X104395000Y-109550395D01*
X105564619Y-108380776D01*
X105432683Y-108085688D01*
X105091955Y-107914841D01*
X104724443Y-107813750D01*
X104344271Y-107786299D01*
X103966049Y-107833543D01*
X103604310Y-107953667D01*
X103357317Y-108085688D01*
X103225382Y-108380774D01*
X103190523Y-108345915D01*
X103225000Y-108172591D01*
X103225000Y-107727409D01*
X103138149Y-107290782D01*
X103000059Y-106957402D01*
X103012999Y-106958677D01*
X103050322Y-106955001D01*
X105476677Y-106955001D01*
X105513999Y-106958677D01*
X105551321Y-106955001D01*
X105551332Y-106955001D01*
X105662985Y-106944004D01*
X105806246Y-106900547D01*
X105938275Y-106829975D01*
X106054000Y-106735002D01*
X106077804Y-106705997D01*
X110233802Y-102550000D01*
X112770635Y-102550000D01*
X112797394Y-102582606D01*
X112924392Y-102686831D01*
X113069284Y-102764278D01*
X113226500Y-102811969D01*
X113390000Y-102828072D01*
X113940000Y-102828072D01*
X114103500Y-102811969D01*
X114260716Y-102764278D01*
X114405608Y-102686831D01*
X114532606Y-102582606D01*
X114559365Y-102550000D01*
X118625199Y-102550000D01*
X117795199Y-103380000D01*
X114559365Y-103380000D01*
X114532606Y-103347394D01*
X114405608Y-103243169D01*
X114260716Y-103165722D01*
X114103500Y-103118031D01*
X113940000Y-103101928D01*
X113390000Y-103101928D01*
X113226500Y-103118031D01*
X113069284Y-103165722D01*
X112924392Y-103243169D01*
X112797394Y-103347394D01*
X112693169Y-103474392D01*
X112615722Y-103619284D01*
X112568031Y-103776500D01*
X112551928Y-103940000D01*
X112551928Y-104340000D01*
X112568031Y-104503500D01*
X112615722Y-104660716D01*
X112693169Y-104805608D01*
X112797394Y-104932606D01*
X112836866Y-104965000D01*
X112797394Y-104997394D01*
X112770635Y-105030000D01*
X110801805Y-105030000D01*
X110737359Y-104986939D01*
X110494405Y-104886304D01*
X110236486Y-104835000D01*
X109973514Y-104835000D01*
X109715595Y-104886304D01*
X109472641Y-104986939D01*
X109253987Y-105133038D01*
X109068038Y-105318987D01*
X108921939Y-105537641D01*
X108821304Y-105780595D01*
X108770000Y-106038514D01*
X108770000Y-106301486D01*
X108821304Y-106559405D01*
X108921939Y-106802359D01*
X109068038Y-107021013D01*
X109253987Y-107206962D01*
X109415678Y-107315000D01*
X109253987Y-107423038D01*
X109068038Y-107608987D01*
X108921939Y-107827641D01*
X108821304Y-108070595D01*
X108770000Y-108328514D01*
X108770000Y-108591486D01*
X108821304Y-108849405D01*
X108921939Y-109092359D01*
X109068038Y-109311013D01*
X109253987Y-109496962D01*
X109472641Y-109643061D01*
X109715595Y-109743696D01*
X109973514Y-109795000D01*
X110236486Y-109795000D01*
X110494405Y-109743696D01*
X110737359Y-109643061D01*
X110956013Y-109496962D01*
X111141962Y-109311013D01*
X111288061Y-109092359D01*
X111388696Y-108849405D01*
X111440000Y-108591486D01*
X111440000Y-108328514D01*
X111388696Y-108070595D01*
X111288061Y-107827641D01*
X111141962Y-107608987D01*
X110956013Y-107423038D01*
X110794322Y-107315000D01*
X110848420Y-107278853D01*
X120305149Y-107278853D01*
X120377931Y-108090118D01*
X120607585Y-108871597D01*
X120985285Y-109593256D01*
X121025450Y-109653366D01*
X121545845Y-110049550D01*
X124280395Y-107315000D01*
X124639605Y-107315000D01*
X127374155Y-110049550D01*
X127894550Y-109653366D01*
X128284748Y-108938388D01*
X128527964Y-108161024D01*
X128607195Y-107422500D01*
X131601928Y-107422500D01*
X131614188Y-107546982D01*
X131650498Y-107666680D01*
X131709463Y-107776994D01*
X131788815Y-107873685D01*
X131885506Y-107953037D01*
X131995820Y-108012002D01*
X132115518Y-108048312D01*
X132240000Y-108060572D01*
X132429250Y-108057500D01*
X132588000Y-107898750D01*
X132588000Y-107112000D01*
X132842000Y-107112000D01*
X132842000Y-107898750D01*
X133000750Y-108057500D01*
X133190000Y-108060572D01*
X133314482Y-108048312D01*
X133434180Y-108012002D01*
X133544494Y-107953037D01*
X133641185Y-107873685D01*
X133720537Y-107776994D01*
X133779502Y-107666680D01*
X133815812Y-107546982D01*
X133828072Y-107422500D01*
X133825000Y-107270750D01*
X133666250Y-107112000D01*
X132842000Y-107112000D01*
X132588000Y-107112000D01*
X131763750Y-107112000D01*
X131605000Y-107270750D01*
X131601928Y-107422500D01*
X128607195Y-107422500D01*
X128614851Y-107351147D01*
X128542069Y-106539882D01*
X128312415Y-105758403D01*
X127934715Y-105036744D01*
X127894550Y-104976634D01*
X127374155Y-104580450D01*
X124639605Y-107315000D01*
X124280395Y-107315000D01*
X121545845Y-104580450D01*
X121025450Y-104976634D01*
X120635252Y-105691612D01*
X120392036Y-106468976D01*
X120305149Y-107278853D01*
X110848420Y-107278853D01*
X110956013Y-107206962D01*
X111141962Y-107021013D01*
X111288061Y-106802359D01*
X111388696Y-106559405D01*
X111390567Y-106550000D01*
X112770635Y-106550000D01*
X112797394Y-106582606D01*
X112924392Y-106686831D01*
X113069284Y-106764278D01*
X113226500Y-106811969D01*
X113390000Y-106828072D01*
X113940000Y-106828072D01*
X114103500Y-106811969D01*
X114260716Y-106764278D01*
X114405608Y-106686831D01*
X114532606Y-106582606D01*
X114636831Y-106455608D01*
X114714278Y-106310716D01*
X114761969Y-106153500D01*
X114778072Y-105990000D01*
X114778072Y-105590000D01*
X114761969Y-105426500D01*
X114714278Y-105269284D01*
X114636831Y-105124392D01*
X114532606Y-104997394D01*
X114493134Y-104965000D01*
X114532606Y-104932606D01*
X114559365Y-104900000D01*
X118072678Y-104900000D01*
X118110000Y-104903676D01*
X118147322Y-104900000D01*
X118147333Y-104900000D01*
X118258986Y-104889003D01*
X118402247Y-104845546D01*
X118534276Y-104774974D01*
X118650001Y-104680001D01*
X118673804Y-104650997D01*
X118923956Y-104400845D01*
X121725450Y-104400845D01*
X124460000Y-107135395D01*
X127194550Y-104400845D01*
X126798366Y-103880450D01*
X126083388Y-103490252D01*
X125306024Y-103247036D01*
X124496147Y-103160149D01*
X123684882Y-103232931D01*
X122903403Y-103462585D01*
X122181744Y-103840285D01*
X122121634Y-103880450D01*
X121725450Y-104400845D01*
X118923956Y-104400845D01*
X121599802Y-101725000D01*
X121872024Y-101725000D01*
X121927171Y-101770258D01*
X122063418Y-101843084D01*
X122211255Y-101887929D01*
X122365000Y-101903072D01*
X124015000Y-101903072D01*
X124168745Y-101887929D01*
X124316582Y-101843084D01*
X124452829Y-101770258D01*
X124507976Y-101725000D01*
X127874587Y-101725000D01*
X127909774Y-101901898D01*
X127987795Y-102090256D01*
X128101063Y-102259774D01*
X128245226Y-102403937D01*
X128414744Y-102517205D01*
X128603102Y-102595226D01*
X128803061Y-102635000D01*
X129006939Y-102635000D01*
X129206898Y-102595226D01*
X129395256Y-102517205D01*
X129564774Y-102403937D01*
X129708937Y-102259774D01*
X129822205Y-102090256D01*
X129900226Y-101901898D01*
X129940000Y-101701939D01*
X129940000Y-101498061D01*
X129900226Y-101298102D01*
X129822205Y-101109744D01*
X129802337Y-101080010D01*
X130784078Y-101080010D01*
X130821400Y-101083686D01*
X130858722Y-101080010D01*
X130858733Y-101080010D01*
X130970386Y-101069013D01*
X131113647Y-101025556D01*
X131245676Y-100954984D01*
X131361401Y-100860011D01*
X131385204Y-100831008D01*
X132231212Y-99985000D01*
X132620199Y-99985000D01*
X132204002Y-100401196D01*
X132174999Y-100424999D01*
X132138893Y-100468995D01*
X132080026Y-100540724D01*
X132015600Y-100661255D01*
X132009454Y-100672754D01*
X131965997Y-100816015D01*
X131955000Y-100927668D01*
X131955000Y-100927678D01*
X131951324Y-100965000D01*
X131952427Y-100976196D01*
X131847394Y-101062394D01*
X131743169Y-101189392D01*
X131665722Y-101334284D01*
X131618031Y-101491500D01*
X131601928Y-101655000D01*
X131601928Y-102055000D01*
X131618031Y-102218500D01*
X131665722Y-102375716D01*
X131743169Y-102520608D01*
X131847394Y-102647606D01*
X131886866Y-102680000D01*
X131847394Y-102712394D01*
X131743169Y-102839392D01*
X131665722Y-102984284D01*
X131618031Y-103141500D01*
X131601928Y-103305000D01*
X131601928Y-103705000D01*
X131618031Y-103868500D01*
X131665722Y-104025716D01*
X131743169Y-104170608D01*
X131847394Y-104297606D01*
X131955000Y-104385917D01*
X131955001Y-104501582D01*
X131852885Y-104585385D01*
X131746329Y-104715225D01*
X131667150Y-104863358D01*
X131618392Y-105024092D01*
X131601928Y-105191250D01*
X131601928Y-105628750D01*
X131618392Y-105795908D01*
X131667150Y-105956642D01*
X131746329Y-106104775D01*
X131764100Y-106126430D01*
X131709463Y-106193006D01*
X131650498Y-106303320D01*
X131614188Y-106423018D01*
X131601928Y-106547500D01*
X131605000Y-106699250D01*
X131763750Y-106858000D01*
X132588000Y-106858000D01*
X132588000Y-106838000D01*
X132842000Y-106838000D01*
X132842000Y-106858000D01*
X133666250Y-106858000D01*
X133825000Y-106699250D01*
X133828072Y-106547500D01*
X133815812Y-106423018D01*
X133779502Y-106303320D01*
X133720537Y-106193006D01*
X133665900Y-106126430D01*
X133683671Y-106104775D01*
X133762850Y-105956642D01*
X133811608Y-105795908D01*
X133828072Y-105628750D01*
X133828072Y-105191250D01*
X133811608Y-105024092D01*
X133762850Y-104863358D01*
X133683671Y-104715225D01*
X133577115Y-104585385D01*
X133475000Y-104501582D01*
X133475000Y-104385916D01*
X133582606Y-104297606D01*
X133686831Y-104170608D01*
X133764278Y-104025716D01*
X133811969Y-103868500D01*
X133828072Y-103705000D01*
X133828072Y-103305000D01*
X133811969Y-103141500D01*
X133764278Y-102984284D01*
X133686831Y-102839392D01*
X133582606Y-102712394D01*
X133543134Y-102680000D01*
X133582606Y-102647606D01*
X133686831Y-102520608D01*
X133764278Y-102375716D01*
X133811969Y-102218500D01*
X133828072Y-102055000D01*
X133828072Y-101655000D01*
X133811969Y-101491500D01*
X133764278Y-101334284D01*
X133686831Y-101189392D01*
X133632100Y-101122702D01*
X133969802Y-100785000D01*
X135315019Y-100785000D01*
X135370506Y-100830537D01*
X135480820Y-100889502D01*
X135600518Y-100925812D01*
X135725000Y-100938072D01*
X137061928Y-100938072D01*
X137061928Y-102275000D01*
X137074188Y-102399482D01*
X137110498Y-102519180D01*
X137169463Y-102629494D01*
X137248815Y-102726185D01*
X137345506Y-102805537D01*
X137455820Y-102864502D01*
X137575518Y-102900812D01*
X137700000Y-102913072D01*
X138250000Y-102913072D01*
X138374482Y-102900812D01*
X138375000Y-102900655D01*
X138375518Y-102900812D01*
X138500000Y-102913072D01*
X139050000Y-102913072D01*
X139174482Y-102900812D01*
X139175620Y-102900467D01*
X139289250Y-102910000D01*
X139381333Y-102817917D01*
X139404494Y-102805537D01*
X139501185Y-102726185D01*
X139575000Y-102636241D01*
X139648815Y-102726185D01*
X139745506Y-102805537D01*
X139768667Y-102817917D01*
X139860750Y-102910000D01*
X139974380Y-102900467D01*
X139975518Y-102900812D01*
X140100000Y-102913072D01*
X140650000Y-102913072D01*
X140774482Y-102900812D01*
X140775620Y-102900467D01*
X140889250Y-102910000D01*
X140981333Y-102817917D01*
X141004494Y-102805537D01*
X141101185Y-102726185D01*
X141175000Y-102636241D01*
X141248815Y-102726185D01*
X141345506Y-102805537D01*
X141368667Y-102817917D01*
X141460750Y-102910000D01*
X141574380Y-102900467D01*
X141575518Y-102900812D01*
X141700000Y-102913072D01*
X142015001Y-102913072D01*
X142015001Y-103925197D01*
X140020199Y-105920000D01*
X139587909Y-105920000D01*
X139505799Y-105797114D01*
X139312886Y-105604201D01*
X139086043Y-105452629D01*
X138833989Y-105348225D01*
X138566411Y-105295000D01*
X138293589Y-105295000D01*
X138026011Y-105348225D01*
X137773957Y-105452629D01*
X137547114Y-105604201D01*
X137354201Y-105797114D01*
X137202629Y-106023957D01*
X137098225Y-106276011D01*
X137045000Y-106543589D01*
X137045000Y-106816411D01*
X137074441Y-106964420D01*
X137020026Y-107030724D01*
X136976583Y-107112000D01*
X136949454Y-107162754D01*
X136905997Y-107306015D01*
X136895000Y-107417668D01*
X136895000Y-107417678D01*
X136891324Y-107455000D01*
X136895000Y-107492323D01*
X136895001Y-109567932D01*
X136819716Y-109629716D01*
X136712382Y-109760503D01*
X136632625Y-109909717D01*
X136583512Y-110071623D01*
X136566928Y-110240000D01*
X136566928Y-110740000D01*
X136583512Y-110908377D01*
X136632625Y-111070283D01*
X136712382Y-111219497D01*
X136819716Y-111350284D01*
X136950503Y-111457618D01*
X137099717Y-111537375D01*
X137261623Y-111586488D01*
X137430000Y-111603072D01*
X137880000Y-111603072D01*
X138048377Y-111586488D01*
X138210283Y-111537375D01*
X138356351Y-111459300D01*
X138400506Y-111495537D01*
X138510820Y-111554502D01*
X138630518Y-111590812D01*
X138755000Y-111603072D01*
X138919250Y-111600000D01*
X139078000Y-111441250D01*
X139078000Y-110617000D01*
X139332000Y-110617000D01*
X139332000Y-111441250D01*
X139490750Y-111600000D01*
X139655000Y-111603072D01*
X139779482Y-111590812D01*
X139899180Y-111554502D01*
X140009494Y-111495537D01*
X140106185Y-111416185D01*
X140185537Y-111319494D01*
X140244502Y-111209180D01*
X140280812Y-111089482D01*
X140293072Y-110965000D01*
X141646928Y-110965000D01*
X141659188Y-111089482D01*
X141695498Y-111209180D01*
X141754463Y-111319494D01*
X141833815Y-111416185D01*
X141930506Y-111495537D01*
X142040820Y-111554502D01*
X142160518Y-111590812D01*
X142285000Y-111603072D01*
X142449250Y-111600000D01*
X142608000Y-111441250D01*
X142608000Y-110617000D01*
X141808750Y-110617000D01*
X141650000Y-110775750D01*
X141646928Y-110965000D01*
X140293072Y-110965000D01*
X140290000Y-110775750D01*
X140131250Y-110617000D01*
X139332000Y-110617000D01*
X139078000Y-110617000D01*
X139058000Y-110617000D01*
X139058000Y-110363000D01*
X139078000Y-110363000D01*
X139078000Y-109538750D01*
X139332000Y-109538750D01*
X139332000Y-110363000D01*
X140131250Y-110363000D01*
X140290000Y-110204250D01*
X140293072Y-110015000D01*
X141646928Y-110015000D01*
X141650000Y-110204250D01*
X141808750Y-110363000D01*
X142608000Y-110363000D01*
X142608000Y-109538750D01*
X142449250Y-109380000D01*
X142285000Y-109376928D01*
X142160518Y-109389188D01*
X142040820Y-109425498D01*
X141930506Y-109484463D01*
X141833815Y-109563815D01*
X141754463Y-109660506D01*
X141695498Y-109770820D01*
X141659188Y-109890518D01*
X141646928Y-110015000D01*
X140293072Y-110015000D01*
X140280812Y-109890518D01*
X140244502Y-109770820D01*
X140185537Y-109660506D01*
X140106185Y-109563815D01*
X140009494Y-109484463D01*
X139899180Y-109425498D01*
X139779482Y-109389188D01*
X139655000Y-109376928D01*
X139490750Y-109380000D01*
X139332000Y-109538750D01*
X139078000Y-109538750D01*
X138919250Y-109380000D01*
X138755000Y-109376928D01*
X138630518Y-109389188D01*
X138510820Y-109425498D01*
X138415000Y-109476716D01*
X138415000Y-108065000D01*
X138566411Y-108065000D01*
X138833989Y-108011775D01*
X139086043Y-107907371D01*
X139312886Y-107755799D01*
X139505799Y-107562886D01*
X139587909Y-107440000D01*
X140297678Y-107440000D01*
X140335000Y-107443676D01*
X140372322Y-107440000D01*
X140372333Y-107440000D01*
X140483986Y-107429003D01*
X140627247Y-107385546D01*
X140759276Y-107314974D01*
X140875001Y-107220001D01*
X140898804Y-107190997D01*
X142116428Y-105973374D01*
X142082629Y-106023957D01*
X141978225Y-106276011D01*
X141925000Y-106543589D01*
X141925000Y-106816411D01*
X141978225Y-107083989D01*
X142082629Y-107336043D01*
X142234201Y-107562886D01*
X142427114Y-107755799D01*
X142653957Y-107907371D01*
X142906011Y-108011775D01*
X143173589Y-108065000D01*
X143446411Y-108065000D01*
X143525000Y-108049368D01*
X143525001Y-109476716D01*
X143429180Y-109425498D01*
X143309482Y-109389188D01*
X143185000Y-109376928D01*
X143020750Y-109380000D01*
X142862000Y-109538750D01*
X142862000Y-110363000D01*
X142882000Y-110363000D01*
X142882000Y-110617000D01*
X142862000Y-110617000D01*
X142862000Y-111441250D01*
X143020750Y-111600000D01*
X143185000Y-111603072D01*
X143309482Y-111590812D01*
X143429180Y-111554502D01*
X143539494Y-111495537D01*
X143583649Y-111459300D01*
X143729717Y-111537375D01*
X143891623Y-111586488D01*
X144060000Y-111603072D01*
X144510000Y-111603072D01*
X144678377Y-111586488D01*
X144840283Y-111537375D01*
X144989497Y-111457618D01*
X145120284Y-111350284D01*
X145227618Y-111219497D01*
X145307375Y-111070283D01*
X145356488Y-110908377D01*
X145373072Y-110740000D01*
X145373072Y-110240000D01*
X145356488Y-110071623D01*
X145307375Y-109909717D01*
X145227618Y-109760503D01*
X145120284Y-109629716D01*
X145045000Y-109567932D01*
X145045000Y-107692322D01*
X145048676Y-107654999D01*
X145045000Y-107617676D01*
X145045000Y-107617667D01*
X145034003Y-107506014D01*
X144990546Y-107362753D01*
X144919974Y-107230724D01*
X144825001Y-107114999D01*
X144796004Y-107091202D01*
X144666167Y-106961365D01*
X144695000Y-106816411D01*
X144695000Y-106543589D01*
X144641775Y-106276011D01*
X144537371Y-106023957D01*
X144385799Y-105797114D01*
X144192886Y-105604201D01*
X144070000Y-105522091D01*
X144070000Y-105289801D01*
X144085998Y-105273803D01*
X144115001Y-105250001D01*
X144209974Y-105134276D01*
X144280546Y-105002247D01*
X144324003Y-104858986D01*
X144335000Y-104747333D01*
X144335000Y-104747332D01*
X144338677Y-104710000D01*
X144335000Y-104672667D01*
X144335000Y-102684981D01*
X144380537Y-102629494D01*
X144439502Y-102519180D01*
X144475812Y-102399482D01*
X144488072Y-102275000D01*
X144488072Y-100938072D01*
X145825000Y-100938072D01*
X145949482Y-100925812D01*
X146069180Y-100889502D01*
X146179494Y-100830537D01*
X146276185Y-100751185D01*
X146355537Y-100654494D01*
X146414502Y-100544180D01*
X146450812Y-100424482D01*
X146463072Y-100300000D01*
X146463072Y-99750000D01*
X146450812Y-99625518D01*
X146450655Y-99625000D01*
X146450812Y-99624482D01*
X146463072Y-99500000D01*
X146463072Y-98950000D01*
X146450812Y-98825518D01*
X146450655Y-98825000D01*
X146450812Y-98824482D01*
X146463072Y-98700000D01*
X146463072Y-98150000D01*
X146450812Y-98025518D01*
X146450655Y-98025000D01*
X146450812Y-98024482D01*
X146463072Y-97900000D01*
X146463072Y-97350000D01*
X146450812Y-97225518D01*
X146450655Y-97225000D01*
X146450812Y-97224482D01*
X146463072Y-97100000D01*
X146463072Y-96550000D01*
X146450812Y-96425518D01*
X146450655Y-96424999D01*
X146450812Y-96424482D01*
X146463072Y-96300000D01*
X146463072Y-95880079D01*
X146500686Y-95859974D01*
X146616411Y-95765001D01*
X146640213Y-95735998D01*
X147646018Y-94730195D01*
X147675011Y-94706401D01*
X147698805Y-94677408D01*
X147698809Y-94677404D01*
X147769706Y-94591015D01*
X147769984Y-94590676D01*
X147840556Y-94458647D01*
X147884013Y-94315386D01*
X147895010Y-94203733D01*
X147895010Y-94203724D01*
X147898686Y-94166401D01*
X147895010Y-94129078D01*
X147895010Y-91925925D01*
X147898686Y-91888600D01*
X147895010Y-91851275D01*
X147895010Y-91851267D01*
X147884013Y-91739614D01*
X147840556Y-91596353D01*
X147769984Y-91464324D01*
X147675011Y-91348599D01*
X147646014Y-91324802D01*
X144079001Y-87757790D01*
X144079001Y-86461321D01*
X144082677Y-86423999D01*
X144079001Y-86386676D01*
X144079001Y-86386666D01*
X144068004Y-86275013D01*
X144024547Y-86131752D01*
X143990339Y-86067754D01*
X143953975Y-85999722D01*
X143882800Y-85912996D01*
X143859002Y-85883998D01*
X143830005Y-85860201D01*
X143278804Y-85309001D01*
X143255002Y-85279998D01*
X143139277Y-85185025D01*
X143007248Y-85114453D01*
X142946794Y-85096115D01*
X143032932Y-84888158D01*
X143090000Y-84601260D01*
X143090000Y-84308740D01*
X143032932Y-84021842D01*
X142920990Y-83751589D01*
X142758475Y-83508368D01*
X142551632Y-83301525D01*
X142308411Y-83139010D01*
X142038158Y-83027068D01*
X141751260Y-82970000D01*
X141458740Y-82970000D01*
X141171842Y-83027068D01*
X140901589Y-83139010D01*
X140658368Y-83301525D01*
X140451525Y-83508368D01*
X140335000Y-83682760D01*
X140218475Y-83508368D01*
X140011632Y-83301525D01*
X139768411Y-83139010D01*
X139498158Y-83027068D01*
X139211260Y-82970000D01*
X138918740Y-82970000D01*
X138631842Y-83027068D01*
X138361589Y-83139010D01*
X138118368Y-83301525D01*
X137911525Y-83508368D01*
X137789805Y-83690534D01*
X137720178Y-83573645D01*
X137525269Y-83357412D01*
X137291920Y-83183359D01*
X137029099Y-83058175D01*
X136881890Y-83013524D01*
X136652000Y-83134845D01*
X136652000Y-84328000D01*
X136672000Y-84328000D01*
X136672000Y-84582000D01*
X136652000Y-84582000D01*
X136652000Y-84602000D01*
X136398000Y-84602000D01*
X136398000Y-84582000D01*
X135204186Y-84582000D01*
X135083519Y-84811891D01*
X135180843Y-85086252D01*
X135329822Y-85336355D01*
X135524731Y-85552588D01*
X135754406Y-85723900D01*
X135578368Y-85841525D01*
X135371525Y-86048368D01*
X135209010Y-86291589D01*
X135097068Y-86561842D01*
X135040000Y-86848740D01*
X135040000Y-87141260D01*
X135097068Y-87428158D01*
X135209010Y-87698411D01*
X135371525Y-87941632D01*
X135578368Y-88148475D01*
X135821589Y-88310990D01*
X136091842Y-88422932D01*
X136378740Y-88480000D01*
X136671260Y-88480000D01*
X136958158Y-88422932D01*
X137228411Y-88310990D01*
X137471632Y-88148475D01*
X137678475Y-87941632D01*
X137795000Y-87767240D01*
X137911525Y-87941632D01*
X138118368Y-88148475D01*
X138361589Y-88310990D01*
X138631842Y-88422932D01*
X138918740Y-88480000D01*
X139055199Y-88480000D01*
X139624700Y-89049502D01*
X139648499Y-89078501D01*
X139677497Y-89102299D01*
X139764223Y-89173474D01*
X139896253Y-89244046D01*
X140039514Y-89287503D01*
X140151167Y-89298500D01*
X140151177Y-89298500D01*
X140188500Y-89302176D01*
X140225823Y-89298500D01*
X141690699Y-89298500D01*
X142815001Y-90422803D01*
X142815001Y-91536928D01*
X142500000Y-91536928D01*
X142375518Y-91549188D01*
X142375000Y-91549345D01*
X142374482Y-91549188D01*
X142250000Y-91536928D01*
X141700000Y-91536928D01*
X141575518Y-91549188D01*
X141575000Y-91549345D01*
X141574482Y-91549188D01*
X141450000Y-91536928D01*
X140900000Y-91536928D01*
X140775518Y-91549188D01*
X140774380Y-91549533D01*
X140660750Y-91540000D01*
X140568667Y-91632083D01*
X140545506Y-91644463D01*
X140448815Y-91723815D01*
X140375000Y-91813759D01*
X140301185Y-91723815D01*
X140204494Y-91644463D01*
X140181333Y-91632083D01*
X140089250Y-91540000D01*
X139975620Y-91549533D01*
X139974482Y-91549188D01*
X139850000Y-91536928D01*
X139300000Y-91536928D01*
X139175518Y-91549188D01*
X139175000Y-91549345D01*
X139174482Y-91549188D01*
X139050000Y-91536928D01*
X138500000Y-91536928D01*
X138375518Y-91549188D01*
X138375000Y-91549345D01*
X138374482Y-91549188D01*
X138250000Y-91536928D01*
X137700000Y-91536928D01*
X137575518Y-91549188D01*
X137455820Y-91585498D01*
X137345506Y-91644463D01*
X137248815Y-91723815D01*
X137169463Y-91820506D01*
X137110498Y-91930820D01*
X137074188Y-92050518D01*
X137061928Y-92175000D01*
X137061928Y-93511928D01*
X135725000Y-93511928D01*
X135600518Y-93524188D01*
X135480820Y-93560498D01*
X135370506Y-93619463D01*
X135273815Y-93698815D01*
X135194463Y-93795506D01*
X135135498Y-93905820D01*
X135099188Y-94025518D01*
X135086928Y-94150000D01*
X135086928Y-94700000D01*
X135099188Y-94824482D01*
X135099345Y-94825000D01*
X135099188Y-94825518D01*
X135086928Y-94950000D01*
X135086928Y-95500000D01*
X135099188Y-95624482D01*
X135099345Y-95625000D01*
X135099188Y-95625518D01*
X135086928Y-95750000D01*
X135086928Y-96300000D01*
X135099188Y-96424482D01*
X135099345Y-96424999D01*
X135099188Y-96425518D01*
X135086928Y-96550000D01*
X135086928Y-96865000D01*
X134571365Y-96865000D01*
X134569003Y-96841014D01*
X134525546Y-96697753D01*
X134454974Y-96565724D01*
X134385000Y-96480460D01*
X134385000Y-96418061D01*
X134345226Y-96218102D01*
X134267205Y-96029744D01*
X134153937Y-95860226D01*
X134009774Y-95716063D01*
X133840256Y-95602795D01*
X133651898Y-95524774D01*
X133451939Y-95485000D01*
X133248061Y-95485000D01*
X133048102Y-95524774D01*
X132859744Y-95602795D01*
X132690226Y-95716063D01*
X132558072Y-95848217D01*
X132558072Y-95685000D01*
X132541969Y-95521500D01*
X132494278Y-95364284D01*
X132416831Y-95219392D01*
X132312606Y-95092394D01*
X132205000Y-95004084D01*
X132205000Y-94683711D01*
X132248937Y-94639774D01*
X132362205Y-94470256D01*
X132440226Y-94281898D01*
X132480000Y-94081939D01*
X132480000Y-93878061D01*
X132440226Y-93678102D01*
X132362205Y-93489744D01*
X132248937Y-93320226D01*
X132104774Y-93176063D01*
X131935256Y-93062795D01*
X131746898Y-92984774D01*
X131546939Y-92945000D01*
X131343061Y-92945000D01*
X131143102Y-92984774D01*
X130954744Y-93062795D01*
X130785226Y-93176063D01*
X130641063Y-93320226D01*
X130527795Y-93489744D01*
X130449774Y-93678102D01*
X130410000Y-93878061D01*
X130410000Y-94081939D01*
X130449774Y-94281898D01*
X130527795Y-94470256D01*
X130641063Y-94639774D01*
X130685000Y-94683711D01*
X130685001Y-95004083D01*
X130577394Y-95092394D01*
X130473169Y-95219392D01*
X130395722Y-95364284D01*
X130348031Y-95521500D01*
X130331928Y-95685000D01*
X130331928Y-96085000D01*
X130348031Y-96248500D01*
X130395722Y-96405716D01*
X130473169Y-96550608D01*
X130577394Y-96677606D01*
X130616866Y-96710000D01*
X130577394Y-96742394D01*
X130473169Y-96869392D01*
X130395722Y-97014284D01*
X130348031Y-97171500D01*
X130331928Y-97335000D01*
X130331928Y-97735000D01*
X130348031Y-97898500D01*
X130395722Y-98055716D01*
X130473169Y-98200608D01*
X130577394Y-98327606D01*
X130704392Y-98431831D01*
X130849284Y-98509278D01*
X130904247Y-98525951D01*
X130495199Y-98935000D01*
X127650013Y-98935000D01*
X127663205Y-98915256D01*
X127741226Y-98726898D01*
X127781000Y-98526939D01*
X127781000Y-98323061D01*
X127741226Y-98123102D01*
X127663205Y-97934744D01*
X127549937Y-97765226D01*
X127405774Y-97621063D01*
X127236256Y-97507795D01*
X127129126Y-97463420D01*
X127189974Y-97389276D01*
X127260546Y-97257247D01*
X127304003Y-97113986D01*
X127315000Y-97002333D01*
X127315000Y-97002323D01*
X127318676Y-96965000D01*
X127315000Y-96927677D01*
X127315000Y-84098109D01*
X135083519Y-84098109D01*
X135204186Y-84328000D01*
X136398000Y-84328000D01*
X136398000Y-83134845D01*
X136168110Y-83013524D01*
X136020901Y-83058175D01*
X135758080Y-83183359D01*
X135524731Y-83357412D01*
X135329822Y-83573645D01*
X135180843Y-83823748D01*
X135083519Y-84098109D01*
X127315000Y-84098109D01*
X127315000Y-83909822D01*
X127318676Y-83872499D01*
X127315000Y-83835176D01*
X127315000Y-83835167D01*
X127304003Y-83723514D01*
X127260546Y-83580253D01*
X127189974Y-83448224D01*
X127155333Y-83406014D01*
X127118799Y-83361496D01*
X127118795Y-83361492D01*
X127095001Y-83332499D01*
X127066008Y-83308705D01*
X125796303Y-82039002D01*
X125772501Y-82009999D01*
X125656776Y-81915026D01*
X125524747Y-81844454D01*
X125381486Y-81800997D01*
X125269833Y-81790000D01*
X125269822Y-81790000D01*
X125232500Y-81786324D01*
X125195178Y-81790000D01*
X124442976Y-81790000D01*
X124387829Y-81744742D01*
X124251582Y-81671916D01*
X124103745Y-81627071D01*
X123950000Y-81611928D01*
X122300000Y-81611928D01*
X122146255Y-81627071D01*
X121998418Y-81671916D01*
X121862171Y-81744742D01*
X121742749Y-81842749D01*
X121644742Y-81962171D01*
X121571916Y-82098418D01*
X121527071Y-82246255D01*
X121511928Y-82400000D01*
X121511928Y-82700000D01*
X121527071Y-82853745D01*
X121571916Y-83001582D01*
X121603141Y-83060000D01*
X121322333Y-83060000D01*
X121285000Y-83056323D01*
X121247667Y-83060000D01*
X121136014Y-83070997D01*
X120992753Y-83114454D01*
X120860724Y-83185026D01*
X120744999Y-83279999D01*
X120721201Y-83308997D01*
X120139002Y-83891197D01*
X120109999Y-83914999D01*
X120065350Y-83969405D01*
X120015026Y-84030724D01*
X119973008Y-84109334D01*
X119944454Y-84162754D01*
X119900997Y-84306015D01*
X119890000Y-84417668D01*
X119890000Y-84417678D01*
X119886324Y-84455000D01*
X119890000Y-84492322D01*
X119890000Y-85052667D01*
X119886323Y-85090000D01*
X119890000Y-85127333D01*
X119890000Y-85600000D01*
X119696859Y-85600000D01*
X119728084Y-85541582D01*
X119772929Y-85393745D01*
X119788072Y-85240000D01*
X119788072Y-84940000D01*
X119772929Y-84786255D01*
X119728084Y-84638418D01*
X119655258Y-84502171D01*
X119616546Y-84455000D01*
X119655258Y-84407829D01*
X119728084Y-84271582D01*
X119772929Y-84123745D01*
X119788072Y-83970000D01*
X119788072Y-83670000D01*
X119772929Y-83516255D01*
X119728084Y-83368418D01*
X119656270Y-83234064D01*
X119680537Y-83204494D01*
X119739502Y-83094180D01*
X119775812Y-82974482D01*
X119788072Y-82850000D01*
X119785000Y-82835750D01*
X119626250Y-82677000D01*
X118302000Y-82677000D01*
X118302000Y-82697000D01*
X118048000Y-82697000D01*
X118048000Y-82677000D01*
X116723750Y-82677000D01*
X116565000Y-82835750D01*
X116561928Y-82850000D01*
X116574188Y-82974482D01*
X116600130Y-83060000D01*
X113347622Y-83060000D01*
X112537622Y-82250000D01*
X116561928Y-82250000D01*
X116565000Y-82264250D01*
X116723750Y-82423000D01*
X118048000Y-82423000D01*
X118048000Y-81773750D01*
X118302000Y-81773750D01*
X118302000Y-82423000D01*
X119626250Y-82423000D01*
X119785000Y-82264250D01*
X119788072Y-82250000D01*
X119775812Y-82125518D01*
X119739502Y-82005820D01*
X119680537Y-81895506D01*
X119601185Y-81798815D01*
X119504494Y-81719463D01*
X119394180Y-81660498D01*
X119274482Y-81624188D01*
X119150000Y-81611928D01*
X118460750Y-81615000D01*
X118302000Y-81773750D01*
X118048000Y-81773750D01*
X117889250Y-81615000D01*
X117200000Y-81611928D01*
X117075518Y-81624188D01*
X116955820Y-81660498D01*
X116845506Y-81719463D01*
X116748815Y-81798815D01*
X116669463Y-81895506D01*
X116610498Y-82005820D01*
X116574188Y-82125518D01*
X116561928Y-82250000D01*
X112537622Y-82250000D01*
X112336624Y-82049003D01*
X112312821Y-82019999D01*
X112197096Y-81925026D01*
X112065067Y-81854454D01*
X111921806Y-81810997D01*
X111810153Y-81800000D01*
X111810142Y-81800000D01*
X111772820Y-81796324D01*
X111735498Y-81800000D01*
X106382775Y-81800000D01*
X106321962Y-81708987D01*
X106136013Y-81523038D01*
X106024771Y-81448709D01*
X106026664Y-81441269D01*
X105285000Y-80699605D01*
X105270858Y-80713748D01*
X105091253Y-80534143D01*
X105105395Y-80520000D01*
X105464605Y-80520000D01*
X106206269Y-81261664D01*
X106440037Y-81202203D01*
X106550934Y-80963758D01*
X106613183Y-80708260D01*
X106624390Y-80445527D01*
X106584125Y-80185656D01*
X106493935Y-79938634D01*
X106440037Y-79837797D01*
X106206269Y-79778336D01*
X105464605Y-80520000D01*
X105105395Y-80520000D01*
X105091253Y-80505858D01*
X105270858Y-80326253D01*
X105285000Y-80340395D01*
X106026664Y-79598731D01*
X106024771Y-79591291D01*
X106136013Y-79516962D01*
X106321962Y-79331013D01*
X106466860Y-79114155D01*
X151570450Y-79114155D01*
X151966634Y-79634550D01*
X152681612Y-80024748D01*
X153458976Y-80267964D01*
X154268853Y-80354851D01*
X155080118Y-80282069D01*
X155861597Y-80052415D01*
X156583256Y-79674715D01*
X156643366Y-79634550D01*
X157039550Y-79114155D01*
X154305000Y-76379605D01*
X151570450Y-79114155D01*
X106466860Y-79114155D01*
X106468061Y-79112359D01*
X106568696Y-78869405D01*
X106620000Y-78611486D01*
X106620000Y-78348514D01*
X106568696Y-78090595D01*
X106468061Y-77847641D01*
X106321962Y-77628987D01*
X106152975Y-77460000D01*
X106321962Y-77291013D01*
X106436226Y-77120003D01*
X141411086Y-77120003D01*
X141506270Y-77386165D01*
X141651551Y-77628644D01*
X141841346Y-77838121D01*
X142068361Y-78006545D01*
X142323872Y-78127445D01*
X142459745Y-78168662D01*
X142682874Y-78046767D01*
X142682874Y-76896874D01*
X142936874Y-76896874D01*
X142936874Y-78046767D01*
X143160003Y-78168662D01*
X143426165Y-78073478D01*
X143668644Y-77928197D01*
X143878121Y-77738402D01*
X144046545Y-77511387D01*
X144167445Y-77255876D01*
X144208662Y-77120003D01*
X144086767Y-76896874D01*
X142936874Y-76896874D01*
X142682874Y-76896874D01*
X141532981Y-76896874D01*
X141411086Y-77120003D01*
X106436226Y-77120003D01*
X106468061Y-77072359D01*
X106568696Y-76829405D01*
X106620000Y-76571486D01*
X106620000Y-76308514D01*
X106568696Y-76050595D01*
X106468061Y-75807641D01*
X106321962Y-75588987D01*
X106170000Y-75437025D01*
X106170000Y-75421578D01*
X108706580Y-72884999D01*
X108796558Y-72884999D01*
X108770000Y-73018514D01*
X108770000Y-73281486D01*
X108821304Y-73539405D01*
X108921939Y-73782359D01*
X109068038Y-74001013D01*
X109253987Y-74186962D01*
X109415678Y-74295000D01*
X109253987Y-74403038D01*
X109068038Y-74588987D01*
X108921939Y-74807641D01*
X108821304Y-75050595D01*
X108770000Y-75308514D01*
X108770000Y-75571486D01*
X108821304Y-75829405D01*
X108921939Y-76072359D01*
X109068038Y-76291013D01*
X109253987Y-76476962D01*
X109472641Y-76623061D01*
X109715595Y-76723696D01*
X109973514Y-76775000D01*
X110236486Y-76775000D01*
X110494405Y-76723696D01*
X110737359Y-76623061D01*
X110956013Y-76476962D01*
X111141962Y-76291013D01*
X111182729Y-76230000D01*
X122496928Y-76230000D01*
X122509188Y-76354482D01*
X122545498Y-76474180D01*
X122604463Y-76584494D01*
X122683815Y-76681185D01*
X122780506Y-76760537D01*
X122890820Y-76819502D01*
X123010518Y-76855812D01*
X123135000Y-76868072D01*
X123849250Y-76865000D01*
X124008000Y-76706250D01*
X124008000Y-75057000D01*
X124262000Y-75057000D01*
X124262000Y-76706250D01*
X124420750Y-76865000D01*
X125135000Y-76868072D01*
X125259482Y-76855812D01*
X125379180Y-76819502D01*
X125489494Y-76760537D01*
X125586185Y-76681185D01*
X125665537Y-76584494D01*
X125724502Y-76474180D01*
X125760812Y-76354482D01*
X125773072Y-76230000D01*
X125770000Y-75215750D01*
X125611250Y-75057000D01*
X124262000Y-75057000D01*
X124008000Y-75057000D01*
X122658750Y-75057000D01*
X122500000Y-75215750D01*
X122496928Y-76230000D01*
X111182729Y-76230000D01*
X111288061Y-76072359D01*
X111388696Y-75829405D01*
X111440000Y-75571486D01*
X111440000Y-75308514D01*
X111388696Y-75050595D01*
X111288061Y-74807641D01*
X111141962Y-74588987D01*
X110956013Y-74403038D01*
X110794322Y-74295000D01*
X110956013Y-74186962D01*
X111141962Y-74001013D01*
X111286296Y-73785000D01*
X112029720Y-73785000D01*
X112008031Y-73856500D01*
X111991928Y-74020000D01*
X111991928Y-74570000D01*
X112008031Y-74733500D01*
X112055722Y-74890716D01*
X112133169Y-75035608D01*
X112237394Y-75162606D01*
X112364392Y-75266831D01*
X112509284Y-75344278D01*
X112666500Y-75391969D01*
X112830000Y-75408072D01*
X113230000Y-75408072D01*
X113393500Y-75391969D01*
X113550716Y-75344278D01*
X113695608Y-75266831D01*
X113822606Y-75162606D01*
X113855000Y-75123134D01*
X113887394Y-75162606D01*
X114014392Y-75266831D01*
X114159284Y-75344278D01*
X114316500Y-75391969D01*
X114480000Y-75408072D01*
X114880000Y-75408072D01*
X115043500Y-75391969D01*
X115200716Y-75344278D01*
X115345608Y-75266831D01*
X115472606Y-75162606D01*
X115576831Y-75035608D01*
X115654278Y-74890716D01*
X115701969Y-74733500D01*
X115718072Y-74570000D01*
X115718072Y-74020000D01*
X115701969Y-73856500D01*
X115654278Y-73699284D01*
X115617245Y-73630000D01*
X122496928Y-73630000D01*
X122500000Y-74644250D01*
X122658750Y-74803000D01*
X124008000Y-74803000D01*
X124008000Y-73153750D01*
X124262000Y-73153750D01*
X124262000Y-74803000D01*
X125611250Y-74803000D01*
X125770000Y-74644250D01*
X125773072Y-73630000D01*
X125760812Y-73505518D01*
X125724502Y-73385820D01*
X125665537Y-73275506D01*
X125586185Y-73178815D01*
X125489494Y-73099463D01*
X125379180Y-73040498D01*
X125259482Y-73004188D01*
X125135000Y-72991928D01*
X124420750Y-72995000D01*
X124262000Y-73153750D01*
X124008000Y-73153750D01*
X123849250Y-72995000D01*
X123135000Y-72991928D01*
X123010518Y-73004188D01*
X122890820Y-73040498D01*
X122780506Y-73099463D01*
X122683815Y-73178815D01*
X122604463Y-73275506D01*
X122545498Y-73385820D01*
X122509188Y-73505518D01*
X122496928Y-73630000D01*
X115617245Y-73630000D01*
X115576831Y-73554392D01*
X115472606Y-73427394D01*
X115440000Y-73400635D01*
X115440000Y-72884999D01*
X126243421Y-72884999D01*
X126667402Y-73308980D01*
X126473286Y-73468286D01*
X126268969Y-73717249D01*
X126117148Y-74001286D01*
X126023657Y-74309485D01*
X126000000Y-74549679D01*
X126000000Y-75310322D01*
X126023657Y-75550516D01*
X126117148Y-75858715D01*
X126268969Y-76142752D01*
X126473286Y-76391714D01*
X126722249Y-76596031D01*
X127006286Y-76747852D01*
X127314485Y-76841343D01*
X127635000Y-76872911D01*
X127955516Y-76841343D01*
X128263715Y-76747852D01*
X128547752Y-76596031D01*
X128796714Y-76391714D01*
X129001031Y-76142752D01*
X129152852Y-75858715D01*
X129246343Y-75550515D01*
X129270000Y-75310321D01*
X129270000Y-74549679D01*
X129500000Y-74549679D01*
X129500000Y-75310322D01*
X129523657Y-75550516D01*
X129617148Y-75858715D01*
X129768969Y-76142752D01*
X129973286Y-76391714D01*
X130222249Y-76596031D01*
X130506286Y-76747852D01*
X130814485Y-76841343D01*
X131135000Y-76872911D01*
X131455516Y-76841343D01*
X131763715Y-76747852D01*
X132047752Y-76596031D01*
X132262557Y-76419745D01*
X141411086Y-76419745D01*
X141532981Y-76642874D01*
X142682874Y-76642874D01*
X142682874Y-75492981D01*
X142936874Y-75492981D01*
X142936874Y-76642874D01*
X144086767Y-76642874D01*
X144208662Y-76419745D01*
X144117151Y-76163853D01*
X150150149Y-76163853D01*
X150222931Y-76975118D01*
X150452585Y-77756597D01*
X150830285Y-78478256D01*
X150870450Y-78538366D01*
X151390845Y-78934550D01*
X154125395Y-76200000D01*
X154484605Y-76200000D01*
X157219155Y-78934550D01*
X157739550Y-78538366D01*
X158129748Y-77823388D01*
X158372964Y-77046024D01*
X158459851Y-76236147D01*
X158387069Y-75424882D01*
X158157415Y-74643403D01*
X157779715Y-73921744D01*
X157739550Y-73861634D01*
X157219155Y-73465450D01*
X154484605Y-76200000D01*
X154125395Y-76200000D01*
X151390845Y-73465450D01*
X150870450Y-73861634D01*
X150480252Y-74576612D01*
X150237036Y-75353976D01*
X150150149Y-76163853D01*
X144117151Y-76163853D01*
X144113478Y-76153583D01*
X143968197Y-75911104D01*
X143778402Y-75701627D01*
X143551387Y-75533203D01*
X143295876Y-75412303D01*
X143160003Y-75371086D01*
X142936874Y-75492981D01*
X142682874Y-75492981D01*
X142459745Y-75371086D01*
X142193583Y-75466270D01*
X141951104Y-75611551D01*
X141741627Y-75801346D01*
X141573203Y-76028361D01*
X141452303Y-76283872D01*
X141411086Y-76419745D01*
X132262557Y-76419745D01*
X132296714Y-76391714D01*
X132501031Y-76142752D01*
X132652852Y-75858715D01*
X132746343Y-75550515D01*
X132770000Y-75310321D01*
X132770000Y-74549678D01*
X132746343Y-74309484D01*
X132699076Y-74153665D01*
X138900000Y-74153665D01*
X138900000Y-74436335D01*
X138955147Y-74713574D01*
X139063320Y-74974727D01*
X139220363Y-75209759D01*
X139420241Y-75409637D01*
X139655273Y-75566680D01*
X139916426Y-75674853D01*
X140193665Y-75730000D01*
X140476335Y-75730000D01*
X140753574Y-75674853D01*
X141014727Y-75566680D01*
X141249759Y-75409637D01*
X141449637Y-75209759D01*
X141606680Y-74974727D01*
X141714853Y-74713574D01*
X141770000Y-74436335D01*
X141770000Y-74153665D01*
X141714853Y-73876426D01*
X141606680Y-73615273D01*
X141449637Y-73380241D01*
X141355241Y-73285845D01*
X151570450Y-73285845D01*
X154305000Y-76020395D01*
X157039550Y-73285845D01*
X156643366Y-72765450D01*
X155928388Y-72375252D01*
X155151024Y-72132036D01*
X154341147Y-72045149D01*
X153529882Y-72117931D01*
X152748403Y-72347585D01*
X152026744Y-72725285D01*
X151966634Y-72765450D01*
X151570450Y-73285845D01*
X141355241Y-73285845D01*
X141249759Y-73180363D01*
X141014727Y-73023320D01*
X140753574Y-72915147D01*
X140476335Y-72860000D01*
X140193665Y-72860000D01*
X139916426Y-72915147D01*
X139655273Y-73023320D01*
X139420241Y-73180363D01*
X139220363Y-73380241D01*
X139063320Y-73615273D01*
X138955147Y-73876426D01*
X138900000Y-74153665D01*
X132699076Y-74153665D01*
X132652852Y-74001285D01*
X132501031Y-73717248D01*
X132296714Y-73468286D01*
X132047751Y-73263969D01*
X131763714Y-73112148D01*
X131455515Y-73018657D01*
X131135000Y-72987089D01*
X130814484Y-73018657D01*
X130506285Y-73112148D01*
X130222248Y-73263969D01*
X129973286Y-73468286D01*
X129768969Y-73717249D01*
X129617148Y-74001286D01*
X129523657Y-74309485D01*
X129500000Y-74549679D01*
X129270000Y-74549679D01*
X129270000Y-74549678D01*
X129246343Y-74309484D01*
X129152852Y-74001285D01*
X129001031Y-73717248D01*
X128796714Y-73468286D01*
X128547751Y-73263969D01*
X128520000Y-73249136D01*
X128520000Y-73068465D01*
X128524281Y-73024999D01*
X128520000Y-72981533D01*
X128520000Y-72981523D01*
X128507195Y-72851510D01*
X128456589Y-72684687D01*
X128374411Y-72530941D01*
X128336707Y-72484999D01*
X128291532Y-72429953D01*
X128291530Y-72429951D01*
X128263817Y-72396183D01*
X128230050Y-72368471D01*
X127266533Y-71404955D01*
X127238816Y-71371182D01*
X127104058Y-71260588D01*
X126950312Y-71178410D01*
X126783489Y-71127804D01*
X126653476Y-71114999D01*
X126653468Y-71114999D01*
X126609999Y-71110718D01*
X126566530Y-71114999D01*
X108383470Y-71114999D01*
X108340001Y-71110718D01*
X108296532Y-71114999D01*
X108296524Y-71114999D01*
X108166511Y-71127804D01*
X107999688Y-71178410D01*
X107891341Y-71236322D01*
X107845942Y-71260588D01*
X107744954Y-71343467D01*
X107744952Y-71343469D01*
X107711184Y-71371182D01*
X107683471Y-71404950D01*
X104689951Y-74398471D01*
X104656184Y-74426183D01*
X104628471Y-74459951D01*
X104628468Y-74459954D01*
X104545590Y-74560941D01*
X104463412Y-74714687D01*
X104412805Y-74881510D01*
X104395719Y-75055000D01*
X104400001Y-75098479D01*
X104400001Y-75437024D01*
X104248038Y-75588987D01*
X104239485Y-75601788D01*
X104184687Y-75618411D01*
X104089272Y-75669411D01*
X104030941Y-75700589D01*
X103929953Y-75783468D01*
X103929951Y-75783470D01*
X103896183Y-75811183D01*
X103868470Y-75844951D01*
X103588421Y-76125000D01*
X103373514Y-76125000D01*
X103115595Y-76176304D01*
X102872641Y-76276939D01*
X102653987Y-76423038D01*
X102502025Y-76575000D01*
X99748469Y-76575000D01*
X99705000Y-76570719D01*
X99661531Y-76575000D01*
X99661523Y-76575000D01*
X99531510Y-76587805D01*
X99364686Y-76638411D01*
X99210941Y-76720589D01*
X99109953Y-76803468D01*
X99109951Y-76803470D01*
X99076183Y-76831183D01*
X99048470Y-76864951D01*
X96559951Y-79353471D01*
X96526184Y-79381183D01*
X96498471Y-79414951D01*
X96498468Y-79414954D01*
X96415590Y-79515941D01*
X96333412Y-79669687D01*
X96282805Y-79836510D01*
X96265719Y-80010000D01*
X93903000Y-80010000D01*
X93903000Y-73437409D01*
X98705000Y-73437409D01*
X98705000Y-73882591D01*
X98791851Y-74319218D01*
X98962214Y-74730511D01*
X99209544Y-75100666D01*
X99524334Y-75415456D01*
X99894489Y-75662786D01*
X100305782Y-75833149D01*
X100742409Y-75920000D01*
X101187591Y-75920000D01*
X101624218Y-75833149D01*
X102035511Y-75662786D01*
X102405666Y-75415456D01*
X102720456Y-75100666D01*
X102967786Y-74730511D01*
X103138149Y-74319218D01*
X103225000Y-73882591D01*
X103225000Y-73437409D01*
X103190523Y-73264085D01*
X103225382Y-73229226D01*
X103357317Y-73524312D01*
X103698045Y-73695159D01*
X104065557Y-73796250D01*
X104445729Y-73823701D01*
X104823951Y-73776457D01*
X105185690Y-73656333D01*
X105432683Y-73524312D01*
X105564619Y-73229224D01*
X104395000Y-72059605D01*
X104380858Y-72073748D01*
X104201253Y-71894143D01*
X104215395Y-71880000D01*
X104574605Y-71880000D01*
X105744224Y-73049619D01*
X106039312Y-72917683D01*
X106210159Y-72576955D01*
X106311250Y-72209443D01*
X106338701Y-71829271D01*
X106291457Y-71451049D01*
X106171333Y-71089310D01*
X106039312Y-70842317D01*
X105744224Y-70710381D01*
X104574605Y-71880000D01*
X104215395Y-71880000D01*
X103045776Y-70710381D01*
X102750688Y-70842317D01*
X102579841Y-71183045D01*
X102478750Y-71550557D01*
X102451299Y-71930729D01*
X102454075Y-71952953D01*
X102405666Y-71904544D01*
X102035511Y-71657214D01*
X101624218Y-71486851D01*
X101187591Y-71400000D01*
X100742409Y-71400000D01*
X100305782Y-71486851D01*
X99894489Y-71657214D01*
X99524334Y-71904544D01*
X99209544Y-72219334D01*
X98962214Y-72589489D01*
X98791851Y-73000782D01*
X98705000Y-73437409D01*
X93903000Y-73437409D01*
X93903000Y-70530776D01*
X103225381Y-70530776D01*
X104395000Y-71700395D01*
X105564619Y-70530776D01*
X105432683Y-70235688D01*
X105091955Y-70064841D01*
X104724443Y-69963750D01*
X104344271Y-69936299D01*
X103966049Y-69983543D01*
X103604310Y-70103667D01*
X103357317Y-70235688D01*
X103225381Y-70530776D01*
X93903000Y-70530776D01*
X93903000Y-68630000D01*
X161367000Y-68630000D01*
X161367001Y-112980000D01*
G37*
G04 #@! TD.AperFunction*
D24*
X109068038Y-95591013D02*
X109253987Y-95776962D01*
X109415678Y-95885000D01*
X109253987Y-95993038D01*
X109068038Y-96178987D01*
X108921939Y-96397641D01*
X108821304Y-96640595D01*
X108770000Y-96898514D01*
X108770000Y-97161486D01*
X108821304Y-97419405D01*
X108921939Y-97662359D01*
X109068038Y-97881013D01*
X109253987Y-98066962D01*
X109472641Y-98213061D01*
X109715595Y-98313696D01*
X109973514Y-98365000D01*
X109995198Y-98365000D01*
X106584181Y-101776018D01*
X106584125Y-101775656D01*
X106493935Y-101528634D01*
X106440037Y-101427797D01*
X106206269Y-101368336D01*
X105464605Y-102110000D01*
X105478748Y-102124143D01*
X105299143Y-102303748D01*
X105285000Y-102289605D01*
X105270858Y-102303748D01*
X105091253Y-102124143D01*
X105105395Y-102110000D01*
X105091253Y-102095858D01*
X105270858Y-101916253D01*
X105285000Y-101930395D01*
X106026664Y-101188731D01*
X106024771Y-101181291D01*
X106136013Y-101106962D01*
X106321962Y-100921013D01*
X106468061Y-100702359D01*
X106568696Y-100459405D01*
X106620000Y-100201486D01*
X106620000Y-99938514D01*
X106568696Y-99680595D01*
X106468061Y-99437641D01*
X106321962Y-99218987D01*
X106152975Y-99050000D01*
X106321962Y-98881013D01*
X106468061Y-98662359D01*
X106568696Y-98419405D01*
X106620000Y-98161486D01*
X106620000Y-97898514D01*
X106598645Y-97791156D01*
X108960192Y-95429609D01*
X109068038Y-95591013D01*
G04 #@! TA.AperFunction,Conductor*
D25*
G36*
X109068038Y-95591013D02*
G01*
X109253987Y-95776962D01*
X109415678Y-95885000D01*
X109253987Y-95993038D01*
X109068038Y-96178987D01*
X108921939Y-96397641D01*
X108821304Y-96640595D01*
X108770000Y-96898514D01*
X108770000Y-97161486D01*
X108821304Y-97419405D01*
X108921939Y-97662359D01*
X109068038Y-97881013D01*
X109253987Y-98066962D01*
X109472641Y-98213061D01*
X109715595Y-98313696D01*
X109973514Y-98365000D01*
X109995198Y-98365000D01*
X106584181Y-101776018D01*
X106584125Y-101775656D01*
X106493935Y-101528634D01*
X106440037Y-101427797D01*
X106206269Y-101368336D01*
X105464605Y-102110000D01*
X105478748Y-102124143D01*
X105299143Y-102303748D01*
X105285000Y-102289605D01*
X105270858Y-102303748D01*
X105091253Y-102124143D01*
X105105395Y-102110000D01*
X105091253Y-102095858D01*
X105270858Y-101916253D01*
X105285000Y-101930395D01*
X106026664Y-101188731D01*
X106024771Y-101181291D01*
X106136013Y-101106962D01*
X106321962Y-100921013D01*
X106468061Y-100702359D01*
X106568696Y-100459405D01*
X106620000Y-100201486D01*
X106620000Y-99938514D01*
X106568696Y-99680595D01*
X106468061Y-99437641D01*
X106321962Y-99218987D01*
X106152975Y-99050000D01*
X106321962Y-98881013D01*
X106468061Y-98662359D01*
X106568696Y-98419405D01*
X106620000Y-98161486D01*
X106620000Y-97898514D01*
X106598645Y-97791156D01*
X108960192Y-95429609D01*
X109068038Y-95591013D01*
G37*
G04 #@! TD.AperFunction*
D24*
X102653987Y-78496962D02*
X102765229Y-78571291D01*
X102763336Y-78578731D01*
X103505000Y-79320395D01*
X103519143Y-79306253D01*
X103698748Y-79485858D01*
X103684605Y-79500000D01*
X103698748Y-79514143D01*
X103519143Y-79693748D01*
X103505000Y-79679605D01*
X102763336Y-80421269D01*
X102765229Y-80428709D01*
X102653987Y-80503038D01*
X102468038Y-80688987D01*
X102321939Y-80907641D01*
X102221304Y-81150595D01*
X102170000Y-81408514D01*
X102170000Y-81671486D01*
X102191355Y-81778844D01*
X101968997Y-82001202D01*
X101939999Y-82025000D01*
X101916201Y-82053998D01*
X101916200Y-82053999D01*
X101845025Y-82140725D01*
X101774453Y-82272755D01*
X101767310Y-82296304D01*
X101735548Y-82401014D01*
X101730997Y-82416016D01*
X101716323Y-82565001D01*
X101720000Y-82602333D01*
X101719999Y-84034678D01*
X101716323Y-84072001D01*
X101719999Y-84109323D01*
X101719999Y-84109333D01*
X101730996Y-84220986D01*
X101734498Y-84232530D01*
X101624218Y-84186851D01*
X101187591Y-84100000D01*
X100742409Y-84100000D01*
X100305782Y-84186851D01*
X99894489Y-84357214D01*
X99524334Y-84604544D01*
X99209544Y-84919334D01*
X98962214Y-85289489D01*
X98791851Y-85700782D01*
X98705000Y-86137409D01*
X98705000Y-86582591D01*
X98791851Y-87019218D01*
X98962214Y-87430511D01*
X99209544Y-87800666D01*
X99524334Y-88115456D01*
X99894489Y-88362786D01*
X100305782Y-88533149D01*
X100742409Y-88620000D01*
X101187591Y-88620000D01*
X101624218Y-88533149D01*
X102035511Y-88362786D01*
X102405666Y-88115456D01*
X102460709Y-88060413D01*
X102451299Y-88190729D01*
X102498543Y-88568951D01*
X102618667Y-88930690D01*
X102750688Y-89177683D01*
X103045776Y-89309619D01*
X104215395Y-88140000D01*
X104201253Y-88125858D01*
X104380858Y-87946253D01*
X104395000Y-87960395D01*
X104409143Y-87946253D01*
X104588748Y-88125858D01*
X104574605Y-88140000D01*
X105744224Y-89309619D01*
X106039312Y-89177683D01*
X106210159Y-88836955D01*
X106255893Y-88670692D01*
X108139203Y-90554003D01*
X108163001Y-90583001D01*
X108191999Y-90606799D01*
X108278725Y-90677974D01*
X108336037Y-90708608D01*
X108410755Y-90748546D01*
X108554016Y-90792003D01*
X108665669Y-90803000D01*
X108665679Y-90803000D01*
X108703002Y-90806676D01*
X108740325Y-90803000D01*
X112770635Y-90803000D01*
X112797394Y-90835606D01*
X112924392Y-90939831D01*
X113069284Y-91017278D01*
X113226500Y-91064969D01*
X113390000Y-91081072D01*
X113940000Y-91081072D01*
X114103500Y-91064969D01*
X114260716Y-91017278D01*
X114405608Y-90939831D01*
X114532606Y-90835606D01*
X114636831Y-90708608D01*
X114714278Y-90563716D01*
X114761969Y-90406500D01*
X114778072Y-90243000D01*
X114778072Y-89843000D01*
X114761969Y-89679500D01*
X114714278Y-89522284D01*
X114636831Y-89377392D01*
X114532606Y-89250394D01*
X114493134Y-89218000D01*
X114532606Y-89185606D01*
X114636831Y-89058608D01*
X114714278Y-88913716D01*
X114761969Y-88756500D01*
X114778072Y-88593000D01*
X114778072Y-88193000D01*
X114761969Y-88029500D01*
X114714278Y-87872284D01*
X114636831Y-87727392D01*
X114532606Y-87600394D01*
X114405608Y-87496169D01*
X114260716Y-87418722D01*
X114103500Y-87371031D01*
X113940000Y-87354928D01*
X113701730Y-87354928D01*
X112705804Y-86359003D01*
X112682001Y-86329999D01*
X112566276Y-86235026D01*
X112434247Y-86164454D01*
X112290986Y-86120997D01*
X112179333Y-86110000D01*
X112179322Y-86110000D01*
X112142000Y-86106324D01*
X112104678Y-86110000D01*
X111202775Y-86110000D01*
X111141962Y-86018987D01*
X110956013Y-85833038D01*
X110794322Y-85725000D01*
X110956013Y-85616962D01*
X111141962Y-85431013D01*
X111288061Y-85212359D01*
X111388696Y-84969405D01*
X111440000Y-84711486D01*
X111440000Y-84448514D01*
X111413442Y-84314999D01*
X111816608Y-84314999D01*
X113102611Y-85601003D01*
X113126409Y-85630001D01*
X113242134Y-85724974D01*
X113374163Y-85795546D01*
X113517424Y-85839003D01*
X113629077Y-85850000D01*
X113629086Y-85850000D01*
X113666409Y-85853676D01*
X113703732Y-85850000D01*
X116653141Y-85850000D01*
X116621916Y-85908418D01*
X116577071Y-86056255D01*
X116561928Y-86210000D01*
X116561928Y-86510000D01*
X116577071Y-86663745D01*
X116621916Y-86811582D01*
X116694742Y-86947829D01*
X116792749Y-87067251D01*
X116912171Y-87165258D01*
X117048418Y-87238084D01*
X117196255Y-87282929D01*
X117350000Y-87298072D01*
X119000000Y-87298072D01*
X119153745Y-87282929D01*
X119301582Y-87238084D01*
X119437829Y-87165258D01*
X119492976Y-87120000D01*
X119890000Y-87120000D01*
X119890001Y-87950197D01*
X116525199Y-91315000D01*
X113702333Y-91315000D01*
X113665000Y-91311323D01*
X113627667Y-91315000D01*
X111277325Y-91315000D01*
X111240000Y-91311324D01*
X111202675Y-91315000D01*
X111202667Y-91315000D01*
X111091014Y-91325997D01*
X110947753Y-91369454D01*
X110815724Y-91440026D01*
X110699999Y-91534999D01*
X110676201Y-91563997D01*
X105523844Y-96716355D01*
X105416486Y-96695000D01*
X105153514Y-96695000D01*
X104895595Y-96746304D01*
X104652641Y-96846939D01*
X104433987Y-96993038D01*
X104248038Y-97178987D01*
X104239485Y-97191788D01*
X104184687Y-97208411D01*
X104052636Y-97278993D01*
X104030941Y-97290589D01*
X103929953Y-97373468D01*
X103929951Y-97373470D01*
X103896183Y-97401183D01*
X103868470Y-97434951D01*
X103588421Y-97715000D01*
X103373514Y-97715000D01*
X103115595Y-97766304D01*
X102872641Y-97866939D01*
X102653987Y-98013038D01*
X102502025Y-98165000D01*
X99416579Y-98165000D01*
X98040000Y-96788422D01*
X98040000Y-95027409D01*
X98705000Y-95027409D01*
X98705000Y-95472591D01*
X98791851Y-95909218D01*
X98962214Y-96320511D01*
X99209544Y-96690666D01*
X99524334Y-97005456D01*
X99894489Y-97252786D01*
X100305782Y-97423149D01*
X100742409Y-97510000D01*
X101187591Y-97510000D01*
X101624218Y-97423149D01*
X102035511Y-97252786D01*
X102405666Y-97005456D01*
X102720456Y-96690666D01*
X102967786Y-96320511D01*
X103138149Y-95909218D01*
X103225000Y-95472591D01*
X103225000Y-95027409D01*
X103190523Y-94854085D01*
X103225382Y-94819226D01*
X103357317Y-95114312D01*
X103698045Y-95285159D01*
X104065557Y-95386250D01*
X104445729Y-95413701D01*
X104823951Y-95366457D01*
X105185690Y-95246333D01*
X105432683Y-95114312D01*
X105564619Y-94819224D01*
X104395000Y-93649605D01*
X104380858Y-93663748D01*
X104201253Y-93484143D01*
X104215395Y-93470000D01*
X104574605Y-93470000D01*
X105744224Y-94639619D01*
X106039312Y-94507683D01*
X106210159Y-94166955D01*
X106311250Y-93799443D01*
X106338701Y-93419271D01*
X106291457Y-93041049D01*
X106171333Y-92679310D01*
X106039312Y-92432317D01*
X105744224Y-92300381D01*
X104574605Y-93470000D01*
X104215395Y-93470000D01*
X103045776Y-92300381D01*
X102750688Y-92432317D01*
X102579841Y-92773045D01*
X102478750Y-93140557D01*
X102451299Y-93520729D01*
X102454075Y-93542953D01*
X102405666Y-93494544D01*
X102035511Y-93247214D01*
X101624218Y-93076851D01*
X101187591Y-92990000D01*
X100742409Y-92990000D01*
X100305782Y-93076851D01*
X99894489Y-93247214D01*
X99524334Y-93494544D01*
X99209544Y-93809334D01*
X98962214Y-94179489D01*
X98791851Y-94590782D01*
X98705000Y-95027409D01*
X98040000Y-95027409D01*
X98040000Y-92120776D01*
X103225381Y-92120776D01*
X104395000Y-93290395D01*
X105564619Y-92120776D01*
X105432683Y-91825688D01*
X105091955Y-91654841D01*
X104724443Y-91553750D01*
X104344271Y-91526299D01*
X103966049Y-91573543D01*
X103604310Y-91693667D01*
X103357317Y-91825688D01*
X103225381Y-92120776D01*
X98040000Y-92120776D01*
X98040000Y-89489224D01*
X103225381Y-89489224D01*
X103357317Y-89784312D01*
X103698045Y-89955159D01*
X104065557Y-90056250D01*
X104445729Y-90083701D01*
X104823951Y-90036457D01*
X105185690Y-89916333D01*
X105432683Y-89784312D01*
X105564619Y-89489224D01*
X104395000Y-88319605D01*
X103225381Y-89489224D01*
X98040000Y-89489224D01*
X98040000Y-80376578D01*
X98842105Y-79574473D01*
X102165610Y-79574473D01*
X102205875Y-79834344D01*
X102296065Y-80081366D01*
X102349963Y-80182203D01*
X102583731Y-80241664D01*
X103325395Y-79500000D01*
X102583731Y-78758336D01*
X102349963Y-78817797D01*
X102239066Y-79056242D01*
X102176817Y-79311740D01*
X102165610Y-79574473D01*
X98842105Y-79574473D01*
X100071579Y-78345000D01*
X102502025Y-78345000D01*
X102653987Y-78496962D01*
G04 #@! TA.AperFunction,Conductor*
D25*
G36*
X102653987Y-78496962D02*
G01*
X102765229Y-78571291D01*
X102763336Y-78578731D01*
X103505000Y-79320395D01*
X103519143Y-79306253D01*
X103698748Y-79485858D01*
X103684605Y-79500000D01*
X103698748Y-79514143D01*
X103519143Y-79693748D01*
X103505000Y-79679605D01*
X102763336Y-80421269D01*
X102765229Y-80428709D01*
X102653987Y-80503038D01*
X102468038Y-80688987D01*
X102321939Y-80907641D01*
X102221304Y-81150595D01*
X102170000Y-81408514D01*
X102170000Y-81671486D01*
X102191355Y-81778844D01*
X101968997Y-82001202D01*
X101939999Y-82025000D01*
X101916201Y-82053998D01*
X101916200Y-82053999D01*
X101845025Y-82140725D01*
X101774453Y-82272755D01*
X101767310Y-82296304D01*
X101735548Y-82401014D01*
X101730997Y-82416016D01*
X101716323Y-82565001D01*
X101720000Y-82602333D01*
X101719999Y-84034678D01*
X101716323Y-84072001D01*
X101719999Y-84109323D01*
X101719999Y-84109333D01*
X101730996Y-84220986D01*
X101734498Y-84232530D01*
X101624218Y-84186851D01*
X101187591Y-84100000D01*
X100742409Y-84100000D01*
X100305782Y-84186851D01*
X99894489Y-84357214D01*
X99524334Y-84604544D01*
X99209544Y-84919334D01*
X98962214Y-85289489D01*
X98791851Y-85700782D01*
X98705000Y-86137409D01*
X98705000Y-86582591D01*
X98791851Y-87019218D01*
X98962214Y-87430511D01*
X99209544Y-87800666D01*
X99524334Y-88115456D01*
X99894489Y-88362786D01*
X100305782Y-88533149D01*
X100742409Y-88620000D01*
X101187591Y-88620000D01*
X101624218Y-88533149D01*
X102035511Y-88362786D01*
X102405666Y-88115456D01*
X102460709Y-88060413D01*
X102451299Y-88190729D01*
X102498543Y-88568951D01*
X102618667Y-88930690D01*
X102750688Y-89177683D01*
X103045776Y-89309619D01*
X104215395Y-88140000D01*
X104201253Y-88125858D01*
X104380858Y-87946253D01*
X104395000Y-87960395D01*
X104409143Y-87946253D01*
X104588748Y-88125858D01*
X104574605Y-88140000D01*
X105744224Y-89309619D01*
X106039312Y-89177683D01*
X106210159Y-88836955D01*
X106255893Y-88670692D01*
X108139203Y-90554003D01*
X108163001Y-90583001D01*
X108191999Y-90606799D01*
X108278725Y-90677974D01*
X108336037Y-90708608D01*
X108410755Y-90748546D01*
X108554016Y-90792003D01*
X108665669Y-90803000D01*
X108665679Y-90803000D01*
X108703002Y-90806676D01*
X108740325Y-90803000D01*
X112770635Y-90803000D01*
X112797394Y-90835606D01*
X112924392Y-90939831D01*
X113069284Y-91017278D01*
X113226500Y-91064969D01*
X113390000Y-91081072D01*
X113940000Y-91081072D01*
X114103500Y-91064969D01*
X114260716Y-91017278D01*
X114405608Y-90939831D01*
X114532606Y-90835606D01*
X114636831Y-90708608D01*
X114714278Y-90563716D01*
X114761969Y-90406500D01*
X114778072Y-90243000D01*
X114778072Y-89843000D01*
X114761969Y-89679500D01*
X114714278Y-89522284D01*
X114636831Y-89377392D01*
X114532606Y-89250394D01*
X114493134Y-89218000D01*
X114532606Y-89185606D01*
X114636831Y-89058608D01*
X114714278Y-88913716D01*
X114761969Y-88756500D01*
X114778072Y-88593000D01*
X114778072Y-88193000D01*
X114761969Y-88029500D01*
X114714278Y-87872284D01*
X114636831Y-87727392D01*
X114532606Y-87600394D01*
X114405608Y-87496169D01*
X114260716Y-87418722D01*
X114103500Y-87371031D01*
X113940000Y-87354928D01*
X113701730Y-87354928D01*
X112705804Y-86359003D01*
X112682001Y-86329999D01*
X112566276Y-86235026D01*
X112434247Y-86164454D01*
X112290986Y-86120997D01*
X112179333Y-86110000D01*
X112179322Y-86110000D01*
X112142000Y-86106324D01*
X112104678Y-86110000D01*
X111202775Y-86110000D01*
X111141962Y-86018987D01*
X110956013Y-85833038D01*
X110794322Y-85725000D01*
X110956013Y-85616962D01*
X111141962Y-85431013D01*
X111288061Y-85212359D01*
X111388696Y-84969405D01*
X111440000Y-84711486D01*
X111440000Y-84448514D01*
X111413442Y-84314999D01*
X111816608Y-84314999D01*
X113102611Y-85601003D01*
X113126409Y-85630001D01*
X113242134Y-85724974D01*
X113374163Y-85795546D01*
X113517424Y-85839003D01*
X113629077Y-85850000D01*
X113629086Y-85850000D01*
X113666409Y-85853676D01*
X113703732Y-85850000D01*
X116653141Y-85850000D01*
X116621916Y-85908418D01*
X116577071Y-86056255D01*
X116561928Y-86210000D01*
X116561928Y-86510000D01*
X116577071Y-86663745D01*
X116621916Y-86811582D01*
X116694742Y-86947829D01*
X116792749Y-87067251D01*
X116912171Y-87165258D01*
X117048418Y-87238084D01*
X117196255Y-87282929D01*
X117350000Y-87298072D01*
X119000000Y-87298072D01*
X119153745Y-87282929D01*
X119301582Y-87238084D01*
X119437829Y-87165258D01*
X119492976Y-87120000D01*
X119890000Y-87120000D01*
X119890001Y-87950197D01*
X116525199Y-91315000D01*
X113702333Y-91315000D01*
X113665000Y-91311323D01*
X113627667Y-91315000D01*
X111277325Y-91315000D01*
X111240000Y-91311324D01*
X111202675Y-91315000D01*
X111202667Y-91315000D01*
X111091014Y-91325997D01*
X110947753Y-91369454D01*
X110815724Y-91440026D01*
X110699999Y-91534999D01*
X110676201Y-91563997D01*
X105523844Y-96716355D01*
X105416486Y-96695000D01*
X105153514Y-96695000D01*
X104895595Y-96746304D01*
X104652641Y-96846939D01*
X104433987Y-96993038D01*
X104248038Y-97178987D01*
X104239485Y-97191788D01*
X104184687Y-97208411D01*
X104052636Y-97278993D01*
X104030941Y-97290589D01*
X103929953Y-97373468D01*
X103929951Y-97373470D01*
X103896183Y-97401183D01*
X103868470Y-97434951D01*
X103588421Y-97715000D01*
X103373514Y-97715000D01*
X103115595Y-97766304D01*
X102872641Y-97866939D01*
X102653987Y-98013038D01*
X102502025Y-98165000D01*
X99416579Y-98165000D01*
X98040000Y-96788422D01*
X98040000Y-95027409D01*
X98705000Y-95027409D01*
X98705000Y-95472591D01*
X98791851Y-95909218D01*
X98962214Y-96320511D01*
X99209544Y-96690666D01*
X99524334Y-97005456D01*
X99894489Y-97252786D01*
X100305782Y-97423149D01*
X100742409Y-97510000D01*
X101187591Y-97510000D01*
X101624218Y-97423149D01*
X102035511Y-97252786D01*
X102405666Y-97005456D01*
X102720456Y-96690666D01*
X102967786Y-96320511D01*
X103138149Y-95909218D01*
X103225000Y-95472591D01*
X103225000Y-95027409D01*
X103190523Y-94854085D01*
X103225382Y-94819226D01*
X103357317Y-95114312D01*
X103698045Y-95285159D01*
X104065557Y-95386250D01*
X104445729Y-95413701D01*
X104823951Y-95366457D01*
X105185690Y-95246333D01*
X105432683Y-95114312D01*
X105564619Y-94819224D01*
X104395000Y-93649605D01*
X104380858Y-93663748D01*
X104201253Y-93484143D01*
X104215395Y-93470000D01*
X104574605Y-93470000D01*
X105744224Y-94639619D01*
X106039312Y-94507683D01*
X106210159Y-94166955D01*
X106311250Y-93799443D01*
X106338701Y-93419271D01*
X106291457Y-93041049D01*
X106171333Y-92679310D01*
X106039312Y-92432317D01*
X105744224Y-92300381D01*
X104574605Y-93470000D01*
X104215395Y-93470000D01*
X103045776Y-92300381D01*
X102750688Y-92432317D01*
X102579841Y-92773045D01*
X102478750Y-93140557D01*
X102451299Y-93520729D01*
X102454075Y-93542953D01*
X102405666Y-93494544D01*
X102035511Y-93247214D01*
X101624218Y-93076851D01*
X101187591Y-92990000D01*
X100742409Y-92990000D01*
X100305782Y-93076851D01*
X99894489Y-93247214D01*
X99524334Y-93494544D01*
X99209544Y-93809334D01*
X98962214Y-94179489D01*
X98791851Y-94590782D01*
X98705000Y-95027409D01*
X98040000Y-95027409D01*
X98040000Y-92120776D01*
X103225381Y-92120776D01*
X104395000Y-93290395D01*
X105564619Y-92120776D01*
X105432683Y-91825688D01*
X105091955Y-91654841D01*
X104724443Y-91553750D01*
X104344271Y-91526299D01*
X103966049Y-91573543D01*
X103604310Y-91693667D01*
X103357317Y-91825688D01*
X103225381Y-92120776D01*
X98040000Y-92120776D01*
X98040000Y-89489224D01*
X103225381Y-89489224D01*
X103357317Y-89784312D01*
X103698045Y-89955159D01*
X104065557Y-90056250D01*
X104445729Y-90083701D01*
X104823951Y-90036457D01*
X105185690Y-89916333D01*
X105432683Y-89784312D01*
X105564619Y-89489224D01*
X104395000Y-88319605D01*
X103225381Y-89489224D01*
X98040000Y-89489224D01*
X98040000Y-80376578D01*
X98842105Y-79574473D01*
X102165610Y-79574473D01*
X102205875Y-79834344D01*
X102296065Y-80081366D01*
X102349963Y-80182203D01*
X102583731Y-80241664D01*
X103325395Y-79500000D01*
X102583731Y-78758336D01*
X102349963Y-78817797D01*
X102239066Y-79056242D01*
X102176817Y-79311740D01*
X102165610Y-79574473D01*
X98842105Y-79574473D01*
X100071579Y-78345000D01*
X102502025Y-78345000D01*
X102653987Y-78496962D01*
G37*
G04 #@! TD.AperFunction*
D24*
X125795001Y-84187304D02*
X125795000Y-93319332D01*
X125795001Y-93319342D01*
X125795000Y-96650198D01*
X124780199Y-97665000D01*
X124764870Y-97665000D01*
X124790812Y-97579482D01*
X124803072Y-97455000D01*
X124800000Y-97440750D01*
X124641250Y-97282000D01*
X123317000Y-97282000D01*
X123317000Y-97302000D01*
X123063000Y-97302000D01*
X123063000Y-97282000D01*
X123043000Y-97282000D01*
X123043000Y-97028000D01*
X123063000Y-97028000D01*
X123063000Y-96378750D01*
X123317000Y-96378750D01*
X123317000Y-97028000D01*
X124641250Y-97028000D01*
X124800000Y-96869250D01*
X124803072Y-96855000D01*
X124790812Y-96730518D01*
X124754502Y-96610820D01*
X124695537Y-96500506D01*
X124616185Y-96403815D01*
X124519494Y-96324463D01*
X124409180Y-96265498D01*
X124289482Y-96229188D01*
X124165000Y-96216928D01*
X123475750Y-96220000D01*
X123317000Y-96378750D01*
X123063000Y-96378750D01*
X122904250Y-96220000D01*
X122215000Y-96216928D01*
X122090518Y-96229188D01*
X121970820Y-96265498D01*
X121860506Y-96324463D01*
X121763815Y-96403815D01*
X121684463Y-96500506D01*
X121625498Y-96610820D01*
X121589188Y-96730518D01*
X121576928Y-96855000D01*
X121580000Y-96869250D01*
X121738748Y-97027998D01*
X121580000Y-97027998D01*
X121580000Y-97061477D01*
X121538974Y-96984724D01*
X121444001Y-96868999D01*
X121415003Y-96845201D01*
X120588793Y-96018992D01*
X120564991Y-95989989D01*
X120449266Y-95895016D01*
X120317237Y-95824444D01*
X120173976Y-95780987D01*
X120062323Y-95769990D01*
X120062312Y-95769990D01*
X120024990Y-95766314D01*
X119987668Y-95769990D01*
X114646783Y-95769990D01*
X114714278Y-95643716D01*
X114761969Y-95486500D01*
X114778072Y-95323000D01*
X114778072Y-94923000D01*
X114761969Y-94759500D01*
X114714278Y-94602284D01*
X114636831Y-94457392D01*
X114532606Y-94330394D01*
X114493134Y-94298000D01*
X114532606Y-94265606D01*
X114636831Y-94138608D01*
X114714278Y-93993716D01*
X114761969Y-93836500D01*
X114778072Y-93673000D01*
X114778072Y-93273000D01*
X114761969Y-93109500D01*
X114714278Y-92952284D01*
X114651588Y-92835000D01*
X116802678Y-92835000D01*
X116840000Y-92838676D01*
X116877322Y-92835000D01*
X116877333Y-92835000D01*
X116988986Y-92824003D01*
X117132247Y-92780546D01*
X117264276Y-92709974D01*
X117380001Y-92615001D01*
X117403804Y-92585997D01*
X121161003Y-88828799D01*
X121190001Y-88805001D01*
X121284974Y-88689276D01*
X121355546Y-88557247D01*
X121399003Y-88413986D01*
X121410000Y-88302333D01*
X121410000Y-88302325D01*
X121413676Y-88265000D01*
X121410000Y-88227675D01*
X121410000Y-86397333D01*
X121413677Y-86360000D01*
X121410000Y-86322667D01*
X121410000Y-85850000D01*
X121603141Y-85850000D01*
X121571916Y-85908418D01*
X121527071Y-86056255D01*
X121511928Y-86210000D01*
X121511928Y-86510000D01*
X121527071Y-86663745D01*
X121571916Y-86811582D01*
X121644742Y-86947829D01*
X121742749Y-87067251D01*
X121862171Y-87165258D01*
X121998418Y-87238084D01*
X122146255Y-87282929D01*
X122300000Y-87298072D01*
X123950000Y-87298072D01*
X124103745Y-87282929D01*
X124251582Y-87238084D01*
X124387829Y-87165258D01*
X124507251Y-87067251D01*
X124605258Y-86947829D01*
X124678084Y-86811582D01*
X124722929Y-86663745D01*
X124738072Y-86510000D01*
X124738072Y-86210000D01*
X124722929Y-86056255D01*
X124678084Y-85908418D01*
X124605258Y-85772171D01*
X124566546Y-85725000D01*
X124605258Y-85677829D01*
X124678084Y-85541582D01*
X124722929Y-85393745D01*
X124738072Y-85240000D01*
X124738072Y-84940000D01*
X124722929Y-84786255D01*
X124678084Y-84638418D01*
X124605258Y-84502171D01*
X124566546Y-84455000D01*
X124605258Y-84407829D01*
X124678084Y-84271582D01*
X124722929Y-84123745D01*
X124738072Y-83970000D01*
X124738072Y-83670000D01*
X124722929Y-83516255D01*
X124678084Y-83368418D01*
X124646859Y-83310000D01*
X124917699Y-83310000D01*
X125795001Y-84187304D01*
G04 #@! TA.AperFunction,Conductor*
D25*
G36*
X125795001Y-84187304D02*
G01*
X125795000Y-93319332D01*
X125795001Y-93319342D01*
X125795000Y-96650198D01*
X124780199Y-97665000D01*
X124764870Y-97665000D01*
X124790812Y-97579482D01*
X124803072Y-97455000D01*
X124800000Y-97440750D01*
X124641250Y-97282000D01*
X123317000Y-97282000D01*
X123317000Y-97302000D01*
X123063000Y-97302000D01*
X123063000Y-97282000D01*
X123043000Y-97282000D01*
X123043000Y-97028000D01*
X123063000Y-97028000D01*
X123063000Y-96378750D01*
X123317000Y-96378750D01*
X123317000Y-97028000D01*
X124641250Y-97028000D01*
X124800000Y-96869250D01*
X124803072Y-96855000D01*
X124790812Y-96730518D01*
X124754502Y-96610820D01*
X124695537Y-96500506D01*
X124616185Y-96403815D01*
X124519494Y-96324463D01*
X124409180Y-96265498D01*
X124289482Y-96229188D01*
X124165000Y-96216928D01*
X123475750Y-96220000D01*
X123317000Y-96378750D01*
X123063000Y-96378750D01*
X122904250Y-96220000D01*
X122215000Y-96216928D01*
X122090518Y-96229188D01*
X121970820Y-96265498D01*
X121860506Y-96324463D01*
X121763815Y-96403815D01*
X121684463Y-96500506D01*
X121625498Y-96610820D01*
X121589188Y-96730518D01*
X121576928Y-96855000D01*
X121580000Y-96869250D01*
X121738748Y-97027998D01*
X121580000Y-97027998D01*
X121580000Y-97061477D01*
X121538974Y-96984724D01*
X121444001Y-96868999D01*
X121415003Y-96845201D01*
X120588793Y-96018992D01*
X120564991Y-95989989D01*
X120449266Y-95895016D01*
X120317237Y-95824444D01*
X120173976Y-95780987D01*
X120062323Y-95769990D01*
X120062312Y-95769990D01*
X120024990Y-95766314D01*
X119987668Y-95769990D01*
X114646783Y-95769990D01*
X114714278Y-95643716D01*
X114761969Y-95486500D01*
X114778072Y-95323000D01*
X114778072Y-94923000D01*
X114761969Y-94759500D01*
X114714278Y-94602284D01*
X114636831Y-94457392D01*
X114532606Y-94330394D01*
X114493134Y-94298000D01*
X114532606Y-94265606D01*
X114636831Y-94138608D01*
X114714278Y-93993716D01*
X114761969Y-93836500D01*
X114778072Y-93673000D01*
X114778072Y-93273000D01*
X114761969Y-93109500D01*
X114714278Y-92952284D01*
X114651588Y-92835000D01*
X116802678Y-92835000D01*
X116840000Y-92838676D01*
X116877322Y-92835000D01*
X116877333Y-92835000D01*
X116988986Y-92824003D01*
X117132247Y-92780546D01*
X117264276Y-92709974D01*
X117380001Y-92615001D01*
X117403804Y-92585997D01*
X121161003Y-88828799D01*
X121190001Y-88805001D01*
X121284974Y-88689276D01*
X121355546Y-88557247D01*
X121399003Y-88413986D01*
X121410000Y-88302333D01*
X121410000Y-88302325D01*
X121413676Y-88265000D01*
X121410000Y-88227675D01*
X121410000Y-86397333D01*
X121413677Y-86360000D01*
X121410000Y-86322667D01*
X121410000Y-85850000D01*
X121603141Y-85850000D01*
X121571916Y-85908418D01*
X121527071Y-86056255D01*
X121511928Y-86210000D01*
X121511928Y-86510000D01*
X121527071Y-86663745D01*
X121571916Y-86811582D01*
X121644742Y-86947829D01*
X121742749Y-87067251D01*
X121862171Y-87165258D01*
X121998418Y-87238084D01*
X122146255Y-87282929D01*
X122300000Y-87298072D01*
X123950000Y-87298072D01*
X124103745Y-87282929D01*
X124251582Y-87238084D01*
X124387829Y-87165258D01*
X124507251Y-87067251D01*
X124605258Y-86947829D01*
X124678084Y-86811582D01*
X124722929Y-86663745D01*
X124738072Y-86510000D01*
X124738072Y-86210000D01*
X124722929Y-86056255D01*
X124678084Y-85908418D01*
X124605258Y-85772171D01*
X124566546Y-85725000D01*
X124605258Y-85677829D01*
X124678084Y-85541582D01*
X124722929Y-85393745D01*
X124738072Y-85240000D01*
X124738072Y-84940000D01*
X124722929Y-84786255D01*
X124678084Y-84638418D01*
X124605258Y-84502171D01*
X124566546Y-84455000D01*
X124605258Y-84407829D01*
X124678084Y-84271582D01*
X124722929Y-84123745D01*
X124738072Y-83970000D01*
X124738072Y-83670000D01*
X124722929Y-83516255D01*
X124678084Y-83368418D01*
X124646859Y-83310000D01*
X124917699Y-83310000D01*
X125795001Y-84187304D01*
G37*
G04 #@! TD.AperFunction*
D24*
X108770000Y-84448514D02*
X108770000Y-84711486D01*
X108821304Y-84969405D01*
X108921939Y-85212359D01*
X109068038Y-85431013D01*
X109253987Y-85616962D01*
X109415678Y-85725000D01*
X109253987Y-85833038D01*
X109068038Y-86018987D01*
X108921939Y-86237641D01*
X108821304Y-86480595D01*
X108770000Y-86738514D01*
X108770000Y-87001486D01*
X108821304Y-87259405D01*
X108921939Y-87502359D01*
X109068038Y-87721013D01*
X109253987Y-87906962D01*
X109472641Y-88053061D01*
X109715595Y-88153696D01*
X109973514Y-88205000D01*
X110236486Y-88205000D01*
X110494405Y-88153696D01*
X110737359Y-88053061D01*
X110956013Y-87906962D01*
X111141962Y-87721013D01*
X111202775Y-87630000D01*
X111827199Y-87630000D01*
X112551928Y-88354730D01*
X112551928Y-88593000D01*
X112568031Y-88756500D01*
X112615722Y-88913716D01*
X112693169Y-89058608D01*
X112797394Y-89185606D01*
X112836866Y-89218000D01*
X112797394Y-89250394D01*
X112770635Y-89283000D01*
X109017804Y-89283000D01*
X104774802Y-85039999D01*
X105044681Y-85039999D01*
X105082003Y-85043675D01*
X105119325Y-85039999D01*
X105119336Y-85039999D01*
X105230989Y-85029002D01*
X105374250Y-84985545D01*
X105506279Y-84914973D01*
X105622004Y-84820000D01*
X105645806Y-84790997D01*
X106121805Y-84314999D01*
X108796558Y-84314999D01*
X108770000Y-84448514D01*
G04 #@! TA.AperFunction,Conductor*
D25*
G36*
X108770000Y-84448514D02*
G01*
X108770000Y-84711486D01*
X108821304Y-84969405D01*
X108921939Y-85212359D01*
X109068038Y-85431013D01*
X109253987Y-85616962D01*
X109415678Y-85725000D01*
X109253987Y-85833038D01*
X109068038Y-86018987D01*
X108921939Y-86237641D01*
X108821304Y-86480595D01*
X108770000Y-86738514D01*
X108770000Y-87001486D01*
X108821304Y-87259405D01*
X108921939Y-87502359D01*
X109068038Y-87721013D01*
X109253987Y-87906962D01*
X109472641Y-88053061D01*
X109715595Y-88153696D01*
X109973514Y-88205000D01*
X110236486Y-88205000D01*
X110494405Y-88153696D01*
X110737359Y-88053061D01*
X110956013Y-87906962D01*
X111141962Y-87721013D01*
X111202775Y-87630000D01*
X111827199Y-87630000D01*
X112551928Y-88354730D01*
X112551928Y-88593000D01*
X112568031Y-88756500D01*
X112615722Y-88913716D01*
X112693169Y-89058608D01*
X112797394Y-89185606D01*
X112836866Y-89218000D01*
X112797394Y-89250394D01*
X112770635Y-89283000D01*
X109017804Y-89283000D01*
X104774802Y-85039999D01*
X105044681Y-85039999D01*
X105082003Y-85043675D01*
X105119325Y-85039999D01*
X105119336Y-85039999D01*
X105230989Y-85029002D01*
X105374250Y-84985545D01*
X105506279Y-84914973D01*
X105622004Y-84820000D01*
X105645806Y-84790997D01*
X106121805Y-84314999D01*
X108796558Y-84314999D01*
X108770000Y-84448514D01*
G37*
G04 #@! TD.AperFunction*
M02*
