G04 #@! TF.GenerationSoftware,KiCad,Pcbnew,(5.1.9)-1*
G04 #@! TF.CreationDate,2021-06-09T23:14:14+02:00*
G04 #@! TF.ProjectId,decoder,6465636f-6465-4722-9e6b-696361645f70,rev?*
G04 #@! TF.SameCoordinates,Original*
G04 #@! TF.FileFunction,Soldermask,Top*
G04 #@! TF.FilePolarity,Negative*
%FSLAX46Y46*%
G04 Gerber Fmt 4.6, Leading zero omitted, Abs format (unit mm)*
G04 Created by KiCad (PCBNEW (5.1.9)-1) date 2021-06-09 23:14:14*
%MOMM*%
%LPD*%
G01*
G04 APERTURE LIST*
%ADD10R,1.700000X1.700000*%
%ADD11C,2.200000*%
%ADD12R,2.200000X2.200000*%
%ADD13C,1.400000*%
%ADD14C,2.600000*%
%ADD15C,3.250000*%
%ADD16O,1.700000X1.700000*%
%ADD17C,1.600000*%
%ADD18R,1.600000X0.550000*%
%ADD19R,0.550000X1.600000*%
%ADD20R,2.650000X0.760000*%
%ADD21O,2.000000X2.600000*%
%ADD22C,0.800000*%
%ADD23C,7.000000*%
%ADD24C,1.500000*%
G04 APERTURE END LIST*
D10*
X159385000Y-70485000D03*
D11*
X166624000Y-70485000D03*
X166624000Y-73025000D03*
X166624000Y-75565000D03*
X166624000Y-78105000D03*
X166624000Y-80645000D03*
X166624000Y-83185000D03*
X166624000Y-85725000D03*
D12*
X166624000Y-88265000D03*
D11*
X166624000Y-93345000D03*
X166624000Y-95885000D03*
X166624000Y-98425000D03*
X166624000Y-100965000D03*
X166624000Y-103505000D03*
X166624000Y-106045000D03*
X166624000Y-108585000D03*
D12*
X166624000Y-111125000D03*
G36*
G01*
X154075000Y-94465000D02*
X154075000Y-94765000D01*
G75*
G02*
X153925000Y-94915000I-150000J0D01*
G01*
X152275000Y-94915000D01*
G75*
G02*
X152125000Y-94765000I0J150000D01*
G01*
X152125000Y-94465000D01*
G75*
G02*
X152275000Y-94315000I150000J0D01*
G01*
X153925000Y-94315000D01*
G75*
G02*
X154075000Y-94465000I0J-150000D01*
G01*
G37*
G36*
G01*
X154075000Y-93195000D02*
X154075000Y-93495000D01*
G75*
G02*
X153925000Y-93645000I-150000J0D01*
G01*
X152275000Y-93645000D01*
G75*
G02*
X152125000Y-93495000I0J150000D01*
G01*
X152125000Y-93195000D01*
G75*
G02*
X152275000Y-93045000I150000J0D01*
G01*
X153925000Y-93045000D01*
G75*
G02*
X154075000Y-93195000I0J-150000D01*
G01*
G37*
G36*
G01*
X154075000Y-91925000D02*
X154075000Y-92225000D01*
G75*
G02*
X153925000Y-92375000I-150000J0D01*
G01*
X152275000Y-92375000D01*
G75*
G02*
X152125000Y-92225000I0J150000D01*
G01*
X152125000Y-91925000D01*
G75*
G02*
X152275000Y-91775000I150000J0D01*
G01*
X153925000Y-91775000D01*
G75*
G02*
X154075000Y-91925000I0J-150000D01*
G01*
G37*
G36*
G01*
X154075000Y-90655000D02*
X154075000Y-90955000D01*
G75*
G02*
X153925000Y-91105000I-150000J0D01*
G01*
X152275000Y-91105000D01*
G75*
G02*
X152125000Y-90955000I0J150000D01*
G01*
X152125000Y-90655000D01*
G75*
G02*
X152275000Y-90505000I150000J0D01*
G01*
X153925000Y-90505000D01*
G75*
G02*
X154075000Y-90655000I0J-150000D01*
G01*
G37*
G36*
G01*
X154075000Y-89385000D02*
X154075000Y-89685000D01*
G75*
G02*
X153925000Y-89835000I-150000J0D01*
G01*
X152275000Y-89835000D01*
G75*
G02*
X152125000Y-89685000I0J150000D01*
G01*
X152125000Y-89385000D01*
G75*
G02*
X152275000Y-89235000I150000J0D01*
G01*
X153925000Y-89235000D01*
G75*
G02*
X154075000Y-89385000I0J-150000D01*
G01*
G37*
G36*
G01*
X154075000Y-88115000D02*
X154075000Y-88415000D01*
G75*
G02*
X153925000Y-88565000I-150000J0D01*
G01*
X152275000Y-88565000D01*
G75*
G02*
X152125000Y-88415000I0J150000D01*
G01*
X152125000Y-88115000D01*
G75*
G02*
X152275000Y-87965000I150000J0D01*
G01*
X153925000Y-87965000D01*
G75*
G02*
X154075000Y-88115000I0J-150000D01*
G01*
G37*
G36*
G01*
X154075000Y-86845000D02*
X154075000Y-87145000D01*
G75*
G02*
X153925000Y-87295000I-150000J0D01*
G01*
X152275000Y-87295000D01*
G75*
G02*
X152125000Y-87145000I0J150000D01*
G01*
X152125000Y-86845000D01*
G75*
G02*
X152275000Y-86695000I150000J0D01*
G01*
X153925000Y-86695000D01*
G75*
G02*
X154075000Y-86845000I0J-150000D01*
G01*
G37*
G36*
G01*
X154075000Y-85575000D02*
X154075000Y-85875000D01*
G75*
G02*
X153925000Y-86025000I-150000J0D01*
G01*
X152275000Y-86025000D01*
G75*
G02*
X152125000Y-85875000I0J150000D01*
G01*
X152125000Y-85575000D01*
G75*
G02*
X152275000Y-85425000I150000J0D01*
G01*
X153925000Y-85425000D01*
G75*
G02*
X154075000Y-85575000I0J-150000D01*
G01*
G37*
G36*
G01*
X159025000Y-85575000D02*
X159025000Y-85875000D01*
G75*
G02*
X158875000Y-86025000I-150000J0D01*
G01*
X157225000Y-86025000D01*
G75*
G02*
X157075000Y-85875000I0J150000D01*
G01*
X157075000Y-85575000D01*
G75*
G02*
X157225000Y-85425000I150000J0D01*
G01*
X158875000Y-85425000D01*
G75*
G02*
X159025000Y-85575000I0J-150000D01*
G01*
G37*
G36*
G01*
X159025000Y-86845000D02*
X159025000Y-87145000D01*
G75*
G02*
X158875000Y-87295000I-150000J0D01*
G01*
X157225000Y-87295000D01*
G75*
G02*
X157075000Y-87145000I0J150000D01*
G01*
X157075000Y-86845000D01*
G75*
G02*
X157225000Y-86695000I150000J0D01*
G01*
X158875000Y-86695000D01*
G75*
G02*
X159025000Y-86845000I0J-150000D01*
G01*
G37*
G36*
G01*
X159025000Y-88115000D02*
X159025000Y-88415000D01*
G75*
G02*
X158875000Y-88565000I-150000J0D01*
G01*
X157225000Y-88565000D01*
G75*
G02*
X157075000Y-88415000I0J150000D01*
G01*
X157075000Y-88115000D01*
G75*
G02*
X157225000Y-87965000I150000J0D01*
G01*
X158875000Y-87965000D01*
G75*
G02*
X159025000Y-88115000I0J-150000D01*
G01*
G37*
G36*
G01*
X159025000Y-89385000D02*
X159025000Y-89685000D01*
G75*
G02*
X158875000Y-89835000I-150000J0D01*
G01*
X157225000Y-89835000D01*
G75*
G02*
X157075000Y-89685000I0J150000D01*
G01*
X157075000Y-89385000D01*
G75*
G02*
X157225000Y-89235000I150000J0D01*
G01*
X158875000Y-89235000D01*
G75*
G02*
X159025000Y-89385000I0J-150000D01*
G01*
G37*
G36*
G01*
X159025000Y-90655000D02*
X159025000Y-90955000D01*
G75*
G02*
X158875000Y-91105000I-150000J0D01*
G01*
X157225000Y-91105000D01*
G75*
G02*
X157075000Y-90955000I0J150000D01*
G01*
X157075000Y-90655000D01*
G75*
G02*
X157225000Y-90505000I150000J0D01*
G01*
X158875000Y-90505000D01*
G75*
G02*
X159025000Y-90655000I0J-150000D01*
G01*
G37*
G36*
G01*
X159025000Y-91925000D02*
X159025000Y-92225000D01*
G75*
G02*
X158875000Y-92375000I-150000J0D01*
G01*
X157225000Y-92375000D01*
G75*
G02*
X157075000Y-92225000I0J150000D01*
G01*
X157075000Y-91925000D01*
G75*
G02*
X157225000Y-91775000I150000J0D01*
G01*
X158875000Y-91775000D01*
G75*
G02*
X159025000Y-91925000I0J-150000D01*
G01*
G37*
G36*
G01*
X159025000Y-93195000D02*
X159025000Y-93495000D01*
G75*
G02*
X158875000Y-93645000I-150000J0D01*
G01*
X157225000Y-93645000D01*
G75*
G02*
X157075000Y-93495000I0J150000D01*
G01*
X157075000Y-93195000D01*
G75*
G02*
X157225000Y-93045000I150000J0D01*
G01*
X158875000Y-93045000D01*
G75*
G02*
X159025000Y-93195000I0J-150000D01*
G01*
G37*
G36*
G01*
X159025000Y-94465000D02*
X159025000Y-94765000D01*
G75*
G02*
X158875000Y-94915000I-150000J0D01*
G01*
X157225000Y-94915000D01*
G75*
G02*
X157075000Y-94765000I0J150000D01*
G01*
X157075000Y-94465000D01*
G75*
G02*
X157225000Y-94315000I150000J0D01*
G01*
X158875000Y-94315000D01*
G75*
G02*
X159025000Y-94465000I0J-150000D01*
G01*
G37*
G36*
G01*
X124865000Y-100180000D02*
X124865000Y-100480000D01*
G75*
G02*
X124715000Y-100630000I-150000J0D01*
G01*
X123065000Y-100630000D01*
G75*
G02*
X122915000Y-100480000I0J150000D01*
G01*
X122915000Y-100180000D01*
G75*
G02*
X123065000Y-100030000I150000J0D01*
G01*
X124715000Y-100030000D01*
G75*
G02*
X124865000Y-100180000I0J-150000D01*
G01*
G37*
G36*
G01*
X124865000Y-98910000D02*
X124865000Y-99210000D01*
G75*
G02*
X124715000Y-99360000I-150000J0D01*
G01*
X123065000Y-99360000D01*
G75*
G02*
X122915000Y-99210000I0J150000D01*
G01*
X122915000Y-98910000D01*
G75*
G02*
X123065000Y-98760000I150000J0D01*
G01*
X124715000Y-98760000D01*
G75*
G02*
X124865000Y-98910000I0J-150000D01*
G01*
G37*
G36*
G01*
X124865000Y-97640000D02*
X124865000Y-97940000D01*
G75*
G02*
X124715000Y-98090000I-150000J0D01*
G01*
X123065000Y-98090000D01*
G75*
G02*
X122915000Y-97940000I0J150000D01*
G01*
X122915000Y-97640000D01*
G75*
G02*
X123065000Y-97490000I150000J0D01*
G01*
X124715000Y-97490000D01*
G75*
G02*
X124865000Y-97640000I0J-150000D01*
G01*
G37*
G36*
G01*
X124865000Y-96370000D02*
X124865000Y-96670000D01*
G75*
G02*
X124715000Y-96820000I-150000J0D01*
G01*
X123065000Y-96820000D01*
G75*
G02*
X122915000Y-96670000I0J150000D01*
G01*
X122915000Y-96370000D01*
G75*
G02*
X123065000Y-96220000I150000J0D01*
G01*
X124715000Y-96220000D01*
G75*
G02*
X124865000Y-96370000I0J-150000D01*
G01*
G37*
G36*
G01*
X129815000Y-96370000D02*
X129815000Y-96670000D01*
G75*
G02*
X129665000Y-96820000I-150000J0D01*
G01*
X128015000Y-96820000D01*
G75*
G02*
X127865000Y-96670000I0J150000D01*
G01*
X127865000Y-96370000D01*
G75*
G02*
X128015000Y-96220000I150000J0D01*
G01*
X129665000Y-96220000D01*
G75*
G02*
X129815000Y-96370000I0J-150000D01*
G01*
G37*
G36*
G01*
X129815000Y-97640000D02*
X129815000Y-97940000D01*
G75*
G02*
X129665000Y-98090000I-150000J0D01*
G01*
X128015000Y-98090000D01*
G75*
G02*
X127865000Y-97940000I0J150000D01*
G01*
X127865000Y-97640000D01*
G75*
G02*
X128015000Y-97490000I150000J0D01*
G01*
X129665000Y-97490000D01*
G75*
G02*
X129815000Y-97640000I0J-150000D01*
G01*
G37*
G36*
G01*
X129815000Y-98910000D02*
X129815000Y-99210000D01*
G75*
G02*
X129665000Y-99360000I-150000J0D01*
G01*
X128015000Y-99360000D01*
G75*
G02*
X127865000Y-99210000I0J150000D01*
G01*
X127865000Y-98910000D01*
G75*
G02*
X128015000Y-98760000I150000J0D01*
G01*
X129665000Y-98760000D01*
G75*
G02*
X129815000Y-98910000I0J-150000D01*
G01*
G37*
G36*
G01*
X129815000Y-100180000D02*
X129815000Y-100480000D01*
G75*
G02*
X129665000Y-100630000I-150000J0D01*
G01*
X128015000Y-100630000D01*
G75*
G02*
X127865000Y-100480000I0J150000D01*
G01*
X127865000Y-100180000D01*
G75*
G02*
X128015000Y-100030000I150000J0D01*
G01*
X129665000Y-100030000D01*
G75*
G02*
X129815000Y-100180000I0J-150000D01*
G01*
G37*
G36*
G01*
X154110000Y-107800000D02*
X154110000Y-108100000D01*
G75*
G02*
X153960000Y-108250000I-150000J0D01*
G01*
X152310000Y-108250000D01*
G75*
G02*
X152160000Y-108100000I0J150000D01*
G01*
X152160000Y-107800000D01*
G75*
G02*
X152310000Y-107650000I150000J0D01*
G01*
X153960000Y-107650000D01*
G75*
G02*
X154110000Y-107800000I0J-150000D01*
G01*
G37*
G36*
G01*
X154110000Y-106530000D02*
X154110000Y-106830000D01*
G75*
G02*
X153960000Y-106980000I-150000J0D01*
G01*
X152310000Y-106980000D01*
G75*
G02*
X152160000Y-106830000I0J150000D01*
G01*
X152160000Y-106530000D01*
G75*
G02*
X152310000Y-106380000I150000J0D01*
G01*
X153960000Y-106380000D01*
G75*
G02*
X154110000Y-106530000I0J-150000D01*
G01*
G37*
G36*
G01*
X154110000Y-105260000D02*
X154110000Y-105560000D01*
G75*
G02*
X153960000Y-105710000I-150000J0D01*
G01*
X152310000Y-105710000D01*
G75*
G02*
X152160000Y-105560000I0J150000D01*
G01*
X152160000Y-105260000D01*
G75*
G02*
X152310000Y-105110000I150000J0D01*
G01*
X153960000Y-105110000D01*
G75*
G02*
X154110000Y-105260000I0J-150000D01*
G01*
G37*
G36*
G01*
X154110000Y-103990000D02*
X154110000Y-104290000D01*
G75*
G02*
X153960000Y-104440000I-150000J0D01*
G01*
X152310000Y-104440000D01*
G75*
G02*
X152160000Y-104290000I0J150000D01*
G01*
X152160000Y-103990000D01*
G75*
G02*
X152310000Y-103840000I150000J0D01*
G01*
X153960000Y-103840000D01*
G75*
G02*
X154110000Y-103990000I0J-150000D01*
G01*
G37*
G36*
G01*
X154110000Y-102720000D02*
X154110000Y-103020000D01*
G75*
G02*
X153960000Y-103170000I-150000J0D01*
G01*
X152310000Y-103170000D01*
G75*
G02*
X152160000Y-103020000I0J150000D01*
G01*
X152160000Y-102720000D01*
G75*
G02*
X152310000Y-102570000I150000J0D01*
G01*
X153960000Y-102570000D01*
G75*
G02*
X154110000Y-102720000I0J-150000D01*
G01*
G37*
G36*
G01*
X154110000Y-101450000D02*
X154110000Y-101750000D01*
G75*
G02*
X153960000Y-101900000I-150000J0D01*
G01*
X152310000Y-101900000D01*
G75*
G02*
X152160000Y-101750000I0J150000D01*
G01*
X152160000Y-101450000D01*
G75*
G02*
X152310000Y-101300000I150000J0D01*
G01*
X153960000Y-101300000D01*
G75*
G02*
X154110000Y-101450000I0J-150000D01*
G01*
G37*
G36*
G01*
X154110000Y-100180000D02*
X154110000Y-100480000D01*
G75*
G02*
X153960000Y-100630000I-150000J0D01*
G01*
X152310000Y-100630000D01*
G75*
G02*
X152160000Y-100480000I0J150000D01*
G01*
X152160000Y-100180000D01*
G75*
G02*
X152310000Y-100030000I150000J0D01*
G01*
X153960000Y-100030000D01*
G75*
G02*
X154110000Y-100180000I0J-150000D01*
G01*
G37*
G36*
G01*
X154110000Y-98910000D02*
X154110000Y-99210000D01*
G75*
G02*
X153960000Y-99360000I-150000J0D01*
G01*
X152310000Y-99360000D01*
G75*
G02*
X152160000Y-99210000I0J150000D01*
G01*
X152160000Y-98910000D01*
G75*
G02*
X152310000Y-98760000I150000J0D01*
G01*
X153960000Y-98760000D01*
G75*
G02*
X154110000Y-98910000I0J-150000D01*
G01*
G37*
G36*
G01*
X159060000Y-98910000D02*
X159060000Y-99210000D01*
G75*
G02*
X158910000Y-99360000I-150000J0D01*
G01*
X157260000Y-99360000D01*
G75*
G02*
X157110000Y-99210000I0J150000D01*
G01*
X157110000Y-98910000D01*
G75*
G02*
X157260000Y-98760000I150000J0D01*
G01*
X158910000Y-98760000D01*
G75*
G02*
X159060000Y-98910000I0J-150000D01*
G01*
G37*
G36*
G01*
X159060000Y-100180000D02*
X159060000Y-100480000D01*
G75*
G02*
X158910000Y-100630000I-150000J0D01*
G01*
X157260000Y-100630000D01*
G75*
G02*
X157110000Y-100480000I0J150000D01*
G01*
X157110000Y-100180000D01*
G75*
G02*
X157260000Y-100030000I150000J0D01*
G01*
X158910000Y-100030000D01*
G75*
G02*
X159060000Y-100180000I0J-150000D01*
G01*
G37*
G36*
G01*
X159060000Y-101450000D02*
X159060000Y-101750000D01*
G75*
G02*
X158910000Y-101900000I-150000J0D01*
G01*
X157260000Y-101900000D01*
G75*
G02*
X157110000Y-101750000I0J150000D01*
G01*
X157110000Y-101450000D01*
G75*
G02*
X157260000Y-101300000I150000J0D01*
G01*
X158910000Y-101300000D01*
G75*
G02*
X159060000Y-101450000I0J-150000D01*
G01*
G37*
G36*
G01*
X159060000Y-102720000D02*
X159060000Y-103020000D01*
G75*
G02*
X158910000Y-103170000I-150000J0D01*
G01*
X157260000Y-103170000D01*
G75*
G02*
X157110000Y-103020000I0J150000D01*
G01*
X157110000Y-102720000D01*
G75*
G02*
X157260000Y-102570000I150000J0D01*
G01*
X158910000Y-102570000D01*
G75*
G02*
X159060000Y-102720000I0J-150000D01*
G01*
G37*
G36*
G01*
X159060000Y-103990000D02*
X159060000Y-104290000D01*
G75*
G02*
X158910000Y-104440000I-150000J0D01*
G01*
X157260000Y-104440000D01*
G75*
G02*
X157110000Y-104290000I0J150000D01*
G01*
X157110000Y-103990000D01*
G75*
G02*
X157260000Y-103840000I150000J0D01*
G01*
X158910000Y-103840000D01*
G75*
G02*
X159060000Y-103990000I0J-150000D01*
G01*
G37*
G36*
G01*
X159060000Y-105260000D02*
X159060000Y-105560000D01*
G75*
G02*
X158910000Y-105710000I-150000J0D01*
G01*
X157260000Y-105710000D01*
G75*
G02*
X157110000Y-105560000I0J150000D01*
G01*
X157110000Y-105260000D01*
G75*
G02*
X157260000Y-105110000I150000J0D01*
G01*
X158910000Y-105110000D01*
G75*
G02*
X159060000Y-105260000I0J-150000D01*
G01*
G37*
G36*
G01*
X159060000Y-106530000D02*
X159060000Y-106830000D01*
G75*
G02*
X158910000Y-106980000I-150000J0D01*
G01*
X157260000Y-106980000D01*
G75*
G02*
X157110000Y-106830000I0J150000D01*
G01*
X157110000Y-106530000D01*
G75*
G02*
X157260000Y-106380000I150000J0D01*
G01*
X158910000Y-106380000D01*
G75*
G02*
X159060000Y-106530000I0J-150000D01*
G01*
G37*
G36*
G01*
X159060000Y-107800000D02*
X159060000Y-108100000D01*
G75*
G02*
X158910000Y-108250000I-150000J0D01*
G01*
X157260000Y-108250000D01*
G75*
G02*
X157110000Y-108100000I0J150000D01*
G01*
X157110000Y-107800000D01*
G75*
G02*
X157260000Y-107650000I150000J0D01*
G01*
X158910000Y-107650000D01*
G75*
G02*
X159060000Y-107800000I0J-150000D01*
G01*
G37*
G36*
G01*
X113813000Y-87649000D02*
X113263000Y-87649000D01*
G75*
G02*
X113063000Y-87449000I0J200000D01*
G01*
X113063000Y-87049000D01*
G75*
G02*
X113263000Y-86849000I200000J0D01*
G01*
X113813000Y-86849000D01*
G75*
G02*
X114013000Y-87049000I0J-200000D01*
G01*
X114013000Y-87449000D01*
G75*
G02*
X113813000Y-87649000I-200000J0D01*
G01*
G37*
G36*
G01*
X113813000Y-89299000D02*
X113263000Y-89299000D01*
G75*
G02*
X113063000Y-89099000I0J200000D01*
G01*
X113063000Y-88699000D01*
G75*
G02*
X113263000Y-88499000I200000J0D01*
G01*
X113813000Y-88499000D01*
G75*
G02*
X114013000Y-88699000I0J-200000D01*
G01*
X114013000Y-89099000D01*
G75*
G02*
X113813000Y-89299000I-200000J0D01*
G01*
G37*
G36*
G01*
X113430000Y-74020000D02*
X113430000Y-74570000D01*
G75*
G02*
X113230000Y-74770000I-200000J0D01*
G01*
X112830000Y-74770000D01*
G75*
G02*
X112630000Y-74570000I0J200000D01*
G01*
X112630000Y-74020000D01*
G75*
G02*
X112830000Y-73820000I200000J0D01*
G01*
X113230000Y-73820000D01*
G75*
G02*
X113430000Y-74020000I0J-200000D01*
G01*
G37*
G36*
G01*
X115080000Y-74020000D02*
X115080000Y-74570000D01*
G75*
G02*
X114880000Y-74770000I-200000J0D01*
G01*
X114480000Y-74770000D01*
G75*
G02*
X114280000Y-74570000I0J200000D01*
G01*
X114280000Y-74020000D01*
G75*
G02*
X114480000Y-73820000I200000J0D01*
G01*
X114880000Y-73820000D01*
G75*
G02*
X115080000Y-74020000I0J-200000D01*
G01*
G37*
G36*
G01*
X113390000Y-105390000D02*
X113940000Y-105390000D01*
G75*
G02*
X114140000Y-105590000I0J-200000D01*
G01*
X114140000Y-105990000D01*
G75*
G02*
X113940000Y-106190000I-200000J0D01*
G01*
X113390000Y-106190000D01*
G75*
G02*
X113190000Y-105990000I0J200000D01*
G01*
X113190000Y-105590000D01*
G75*
G02*
X113390000Y-105390000I200000J0D01*
G01*
G37*
G36*
G01*
X113390000Y-103740000D02*
X113940000Y-103740000D01*
G75*
G02*
X114140000Y-103940000I0J-200000D01*
G01*
X114140000Y-104340000D01*
G75*
G02*
X113940000Y-104540000I-200000J0D01*
G01*
X113390000Y-104540000D01*
G75*
G02*
X113190000Y-104340000I0J200000D01*
G01*
X113190000Y-103940000D01*
G75*
G02*
X113390000Y-103740000I200000J0D01*
G01*
G37*
G36*
G01*
X113263000Y-93325000D02*
X113813000Y-93325000D01*
G75*
G02*
X114013000Y-93525000I0J-200000D01*
G01*
X114013000Y-93925000D01*
G75*
G02*
X113813000Y-94125000I-200000J0D01*
G01*
X113263000Y-94125000D01*
G75*
G02*
X113063000Y-93925000I0J200000D01*
G01*
X113063000Y-93525000D01*
G75*
G02*
X113263000Y-93325000I200000J0D01*
G01*
G37*
G36*
G01*
X113263000Y-91675000D02*
X113813000Y-91675000D01*
G75*
G02*
X114013000Y-91875000I0J-200000D01*
G01*
X114013000Y-92275000D01*
G75*
G02*
X113813000Y-92475000I-200000J0D01*
G01*
X113263000Y-92475000D01*
G75*
G02*
X113063000Y-92275000I0J200000D01*
G01*
X113063000Y-91875000D01*
G75*
G02*
X113263000Y-91675000I200000J0D01*
G01*
G37*
D13*
X110105000Y-73150000D03*
X110105000Y-75440000D03*
X110105000Y-84580000D03*
X110105000Y-86870000D03*
X105285000Y-76440000D03*
X103505000Y-77460000D03*
X105285000Y-78480000D03*
X103505000Y-79500000D03*
X105285000Y-80520000D03*
X103505000Y-81540000D03*
X105285000Y-82560000D03*
X103505000Y-83580000D03*
D14*
X104395000Y-88140000D03*
X104395000Y-71880000D03*
D15*
X100965000Y-86360000D03*
X100965000Y-73660000D03*
D13*
X110105000Y-94740000D03*
X110105000Y-97030000D03*
X110105000Y-106170000D03*
X110105000Y-108460000D03*
X105285000Y-98030000D03*
X103505000Y-99050000D03*
X105285000Y-100070000D03*
X103505000Y-101090000D03*
X105285000Y-102110000D03*
X103505000Y-103130000D03*
X105285000Y-104150000D03*
X103505000Y-105170000D03*
D14*
X104395000Y-109730000D03*
X104395000Y-93470000D03*
D15*
X100965000Y-107950000D03*
X100965000Y-95250000D03*
D16*
X136525000Y-84455000D03*
X136525000Y-86995000D03*
X139065000Y-84455000D03*
X139065000Y-86995000D03*
X141605000Y-84455000D03*
D10*
X141605000Y-86995000D03*
D17*
X142809874Y-76769874D03*
X140335000Y-74295000D03*
D18*
X136525000Y-100025000D03*
X136525000Y-99225000D03*
X136525000Y-98425000D03*
X136525000Y-97625000D03*
X136525000Y-96825000D03*
X136525000Y-96025000D03*
X136525000Y-95225000D03*
X136525000Y-94425000D03*
D19*
X137975000Y-92975000D03*
X138775000Y-92975000D03*
X139575000Y-92975000D03*
X140375000Y-92975000D03*
X141175000Y-92975000D03*
X141975000Y-92975000D03*
X142775000Y-92975000D03*
X143575000Y-92975000D03*
D18*
X145025000Y-94425000D03*
X145025000Y-95225000D03*
X145025000Y-96025000D03*
X145025000Y-96825000D03*
X145025000Y-97625000D03*
X145025000Y-98425000D03*
X145025000Y-99225000D03*
X145025000Y-100025000D03*
D19*
X143575000Y-101475000D03*
X142775000Y-101475000D03*
X141975000Y-101475000D03*
X141175000Y-101475000D03*
X140375000Y-101475000D03*
X139575000Y-101475000D03*
X138775000Y-101475000D03*
X137975000Y-101475000D03*
D20*
X128990000Y-83820000D03*
X123740000Y-90170000D03*
X128990000Y-85090000D03*
X123740000Y-88900000D03*
X128990000Y-86360000D03*
X123740000Y-87630000D03*
X128990000Y-87630000D03*
X123740000Y-86360000D03*
X128990000Y-88900000D03*
X123740000Y-85090000D03*
X128990000Y-90170000D03*
X123740000Y-83820000D03*
D21*
X131135000Y-74930000D03*
X127635000Y-74930000D03*
G36*
G01*
X123135000Y-75980000D02*
X123135000Y-73880000D01*
G75*
G02*
X123385000Y-73630000I250000J0D01*
G01*
X124885000Y-73630000D01*
G75*
G02*
X125135000Y-73880000I0J-250000D01*
G01*
X125135000Y-75980000D01*
G75*
G02*
X124885000Y-76230000I-250000J0D01*
G01*
X123385000Y-76230000D01*
G75*
G02*
X123135000Y-75980000I0J250000D01*
G01*
G37*
D22*
X156161155Y-78056155D03*
X154305000Y-78825000D03*
X152448845Y-78056155D03*
X151680000Y-76200000D03*
X152448845Y-74343845D03*
X154305000Y-73575000D03*
X156161155Y-74343845D03*
X156930000Y-76200000D03*
D23*
X154305000Y-76200000D03*
D22*
X126316155Y-105458845D03*
X124460000Y-104690000D03*
X122603845Y-105458845D03*
X121835000Y-107315000D03*
X122603845Y-109171155D03*
X124460000Y-109940000D03*
X126316155Y-109171155D03*
X127085000Y-107315000D03*
D23*
X124460000Y-107315000D03*
D24*
X143310000Y-106680000D03*
X138430000Y-106680000D03*
G36*
G01*
X132990000Y-102255000D02*
X132440000Y-102255000D01*
G75*
G02*
X132240000Y-102055000I0J200000D01*
G01*
X132240000Y-101655000D01*
G75*
G02*
X132440000Y-101455000I200000J0D01*
G01*
X132990000Y-101455000D01*
G75*
G02*
X133190000Y-101655000I0J-200000D01*
G01*
X133190000Y-102055000D01*
G75*
G02*
X132990000Y-102255000I-200000J0D01*
G01*
G37*
G36*
G01*
X132990000Y-103905000D02*
X132440000Y-103905000D01*
G75*
G02*
X132240000Y-103705000I0J200000D01*
G01*
X132240000Y-103305000D01*
G75*
G02*
X132440000Y-103105000I200000J0D01*
G01*
X132990000Y-103105000D01*
G75*
G02*
X133190000Y-103305000I0J-200000D01*
G01*
X133190000Y-103705000D01*
G75*
G02*
X132990000Y-103905000I-200000J0D01*
G01*
G37*
G36*
G01*
X132971250Y-105847500D02*
X132458750Y-105847500D01*
G75*
G02*
X132240000Y-105628750I0J218750D01*
G01*
X132240000Y-105191250D01*
G75*
G02*
X132458750Y-104972500I218750J0D01*
G01*
X132971250Y-104972500D01*
G75*
G02*
X133190000Y-105191250I0J-218750D01*
G01*
X133190000Y-105628750D01*
G75*
G02*
X132971250Y-105847500I-218750J0D01*
G01*
G37*
G36*
G01*
X132971250Y-107422500D02*
X132458750Y-107422500D01*
G75*
G02*
X132240000Y-107203750I0J218750D01*
G01*
X132240000Y-106766250D01*
G75*
G02*
X132458750Y-106547500I218750J0D01*
G01*
X132971250Y-106547500D01*
G75*
G02*
X133190000Y-106766250I0J-218750D01*
G01*
X133190000Y-107203750D01*
G75*
G02*
X132971250Y-107422500I-218750J0D01*
G01*
G37*
G36*
G01*
X131720000Y-96285000D02*
X131170000Y-96285000D01*
G75*
G02*
X130970000Y-96085000I0J200000D01*
G01*
X130970000Y-95685000D01*
G75*
G02*
X131170000Y-95485000I200000J0D01*
G01*
X131720000Y-95485000D01*
G75*
G02*
X131920000Y-95685000I0J-200000D01*
G01*
X131920000Y-96085000D01*
G75*
G02*
X131720000Y-96285000I-200000J0D01*
G01*
G37*
G36*
G01*
X131720000Y-97935000D02*
X131170000Y-97935000D01*
G75*
G02*
X130970000Y-97735000I0J200000D01*
G01*
X130970000Y-97335000D01*
G75*
G02*
X131170000Y-97135000I200000J0D01*
G01*
X131720000Y-97135000D01*
G75*
G02*
X131920000Y-97335000I0J-200000D01*
G01*
X131920000Y-97735000D01*
G75*
G02*
X131720000Y-97935000I-200000J0D01*
G01*
G37*
G36*
G01*
X120290000Y-98000000D02*
X119740000Y-98000000D01*
G75*
G02*
X119540000Y-97800000I0J200000D01*
G01*
X119540000Y-97400000D01*
G75*
G02*
X119740000Y-97200000I200000J0D01*
G01*
X120290000Y-97200000D01*
G75*
G02*
X120490000Y-97400000I0J-200000D01*
G01*
X120490000Y-97800000D01*
G75*
G02*
X120290000Y-98000000I-200000J0D01*
G01*
G37*
G36*
G01*
X120290000Y-99650000D02*
X119740000Y-99650000D01*
G75*
G02*
X119540000Y-99450000I0J200000D01*
G01*
X119540000Y-99050000D01*
G75*
G02*
X119740000Y-98850000I200000J0D01*
G01*
X120290000Y-98850000D01*
G75*
G02*
X120490000Y-99050000I0J-200000D01*
G01*
X120490000Y-99450000D01*
G75*
G02*
X120290000Y-99650000I-200000J0D01*
G01*
G37*
G36*
G01*
X149840000Y-91080000D02*
X149840000Y-90530000D01*
G75*
G02*
X150040000Y-90330000I200000J0D01*
G01*
X150440000Y-90330000D01*
G75*
G02*
X150640000Y-90530000I0J-200000D01*
G01*
X150640000Y-91080000D01*
G75*
G02*
X150440000Y-91280000I-200000J0D01*
G01*
X150040000Y-91280000D01*
G75*
G02*
X149840000Y-91080000I0J200000D01*
G01*
G37*
G36*
G01*
X148190000Y-91080000D02*
X148190000Y-90530000D01*
G75*
G02*
X148390000Y-90330000I200000J0D01*
G01*
X148790000Y-90330000D01*
G75*
G02*
X148990000Y-90530000I0J-200000D01*
G01*
X148990000Y-91080000D01*
G75*
G02*
X148790000Y-91280000I-200000J0D01*
G01*
X148390000Y-91280000D01*
G75*
G02*
X148190000Y-91080000I0J200000D01*
G01*
G37*
G36*
G01*
X143835000Y-110740000D02*
X143835000Y-110240000D01*
G75*
G02*
X144060000Y-110015000I225000J0D01*
G01*
X144510000Y-110015000D01*
G75*
G02*
X144735000Y-110240000I0J-225000D01*
G01*
X144735000Y-110740000D01*
G75*
G02*
X144510000Y-110965000I-225000J0D01*
G01*
X144060000Y-110965000D01*
G75*
G02*
X143835000Y-110740000I0J225000D01*
G01*
G37*
G36*
G01*
X142285000Y-110740000D02*
X142285000Y-110240000D01*
G75*
G02*
X142510000Y-110015000I225000J0D01*
G01*
X142960000Y-110015000D01*
G75*
G02*
X143185000Y-110240000I0J-225000D01*
G01*
X143185000Y-110740000D01*
G75*
G02*
X142960000Y-110965000I-225000J0D01*
G01*
X142510000Y-110965000D01*
G75*
G02*
X142285000Y-110740000I0J225000D01*
G01*
G37*
G36*
G01*
X138755000Y-110740000D02*
X138755000Y-110240000D01*
G75*
G02*
X138980000Y-110015000I225000J0D01*
G01*
X139430000Y-110015000D01*
G75*
G02*
X139655000Y-110240000I0J-225000D01*
G01*
X139655000Y-110740000D01*
G75*
G02*
X139430000Y-110965000I-225000J0D01*
G01*
X138980000Y-110965000D01*
G75*
G02*
X138755000Y-110740000I0J225000D01*
G01*
G37*
G36*
G01*
X137205000Y-110740000D02*
X137205000Y-110240000D01*
G75*
G02*
X137430000Y-110015000I225000J0D01*
G01*
X137880000Y-110015000D01*
G75*
G02*
X138105000Y-110240000I0J-225000D01*
G01*
X138105000Y-110740000D01*
G75*
G02*
X137880000Y-110965000I-225000J0D01*
G01*
X137430000Y-110965000D01*
G75*
G02*
X137205000Y-110740000I0J225000D01*
G01*
G37*
M02*
