G04 #@! TF.GenerationSoftware,KiCad,Pcbnew,(5.1.9)-1*
G04 #@! TF.CreationDate,2021-06-10T00:36:34+02:00*
G04 #@! TF.ProjectId,shield,73686965-6c64-42e6-9b69-6361645f7063,rev?*
G04 #@! TF.SameCoordinates,Original*
G04 #@! TF.FileFunction,Soldermask,Bot*
G04 #@! TF.FilePolarity,Negative*
%FSLAX46Y46*%
G04 Gerber Fmt 4.6, Leading zero omitted, Abs format (unit mm)*
G04 Created by KiCad (PCBNEW (5.1.9)-1) date 2021-06-10 00:36:34*
%MOMM*%
%LPD*%
G01*
G04 APERTURE LIST*
%ADD10C,1.400000*%
%ADD11C,2.600000*%
%ADD12C,3.250000*%
%ADD13O,2.200000X2.200000*%
%ADD14R,2.200000X2.200000*%
%ADD15R,1.700000X1.700000*%
%ADD16O,1.700000X1.700000*%
%ADD17O,2.400000X1.600000*%
%ADD18R,2.400000X1.600000*%
%ADD19O,1.727200X2.032000*%
G04 APERTURE END LIST*
D10*
X158373000Y-116090000D03*
X158373000Y-113800000D03*
X158373000Y-104660000D03*
X158373000Y-102370000D03*
X163193000Y-112800000D03*
X164973000Y-111780000D03*
X163193000Y-110760000D03*
X164973000Y-109740000D03*
X163193000Y-108720000D03*
X164973000Y-107700000D03*
X163193000Y-106680000D03*
X164973000Y-105660000D03*
D11*
X164083000Y-101100000D03*
X164083000Y-117360000D03*
D12*
X167513000Y-102880000D03*
X167513000Y-115580000D03*
D13*
X152273000Y-120015000D03*
D14*
X156083000Y-120015000D03*
D15*
X130683000Y-97155000D03*
D16*
X128143000Y-97155000D03*
X130683000Y-99695000D03*
X128143000Y-99695000D03*
X130683000Y-102235000D03*
X128143000Y-102235000D03*
D17*
X138938000Y-116840000D03*
X146558000Y-109220000D03*
X138938000Y-114300000D03*
X146558000Y-111760000D03*
X138938000Y-111760000D03*
X146558000Y-114300000D03*
X138938000Y-109220000D03*
D18*
X146558000Y-116840000D03*
D17*
X138938000Y-90805000D03*
X146558000Y-83185000D03*
X138938000Y-88265000D03*
X146558000Y-85725000D03*
X138938000Y-85725000D03*
X146558000Y-88265000D03*
X138938000Y-83185000D03*
D18*
X146558000Y-90805000D03*
D10*
X158373000Y-95760000D03*
X158373000Y-93470000D03*
X158373000Y-84330000D03*
X158373000Y-82040000D03*
X163193000Y-92470000D03*
X164973000Y-91450000D03*
X163193000Y-90430000D03*
X164973000Y-89410000D03*
X163193000Y-88390000D03*
X164973000Y-87370000D03*
X163193000Y-86350000D03*
X164973000Y-85330000D03*
D11*
X164083000Y-80770000D03*
X164083000Y-97030000D03*
D12*
X167513000Y-82550000D03*
X167513000Y-95250000D03*
D19*
X138938000Y-123825000D03*
X141478000Y-123825000D03*
X144018000Y-123825000D03*
X146558000Y-123825000D03*
X149098000Y-123825000D03*
X151638000Y-123825000D03*
X154178000Y-123825000D03*
X156718000Y-123825000D03*
X161798000Y-123825000D03*
X164338000Y-123825000D03*
X166878000Y-123825000D03*
X169418000Y-123825000D03*
X171958000Y-123825000D03*
X174498000Y-123825000D03*
X129794000Y-75565000D03*
X132334000Y-75565000D03*
X134874000Y-75565000D03*
X137414000Y-75565000D03*
X139954000Y-75565000D03*
X142494000Y-75565000D03*
X145034000Y-75565000D03*
X147574000Y-75565000D03*
X150114000Y-75565000D03*
X152654000Y-75565000D03*
X156718000Y-75565000D03*
X159258000Y-75565000D03*
X161798000Y-75565000D03*
X164338000Y-75565000D03*
X166878000Y-75565000D03*
X169418000Y-75565000D03*
X171958000Y-75565000D03*
X174498000Y-75565000D03*
M02*
