G04 #@! TF.GenerationSoftware,KiCad,Pcbnew,(5.1.9)-1*
G04 #@! TF.CreationDate,2021-06-10T00:36:34+02:00*
G04 #@! TF.ProjectId,shield,73686965-6c64-42e6-9b69-6361645f7063,rev?*
G04 #@! TF.SameCoordinates,Original*
G04 #@! TF.FileFunction,Copper,L1,Top*
G04 #@! TF.FilePolarity,Positive*
%FSLAX46Y46*%
G04 Gerber Fmt 4.6, Leading zero omitted, Abs format (unit mm)*
G04 Created by KiCad (PCBNEW (5.1.9)-1) date 2021-06-10 00:36:34*
%MOMM*%
%LPD*%
G01*
G04 APERTURE LIST*
G04 #@! TA.AperFunction,ComponentPad*
%ADD10C,1.400000*%
G04 #@! TD*
G04 #@! TA.AperFunction,ComponentPad*
%ADD11C,2.600000*%
G04 #@! TD*
G04 #@! TA.AperFunction,ComponentPad*
%ADD12O,2.200000X2.200000*%
G04 #@! TD*
G04 #@! TA.AperFunction,ComponentPad*
%ADD13R,2.200000X2.200000*%
G04 #@! TD*
G04 #@! TA.AperFunction,ComponentPad*
%ADD14R,1.700000X1.700000*%
G04 #@! TD*
G04 #@! TA.AperFunction,ComponentPad*
%ADD15O,1.700000X1.700000*%
G04 #@! TD*
G04 #@! TA.AperFunction,ComponentPad*
%ADD16O,2.400000X1.600000*%
G04 #@! TD*
G04 #@! TA.AperFunction,ComponentPad*
%ADD17R,2.400000X1.600000*%
G04 #@! TD*
G04 #@! TA.AperFunction,ComponentPad*
%ADD18O,1.727200X2.032000*%
G04 #@! TD*
G04 #@! TA.AperFunction,ViaPad*
%ADD19C,0.600000*%
G04 #@! TD*
G04 #@! TA.AperFunction,Conductor*
%ADD20C,0.250000*%
G04 #@! TD*
G04 #@! TA.AperFunction,Conductor*
%ADD21C,0.254000*%
G04 #@! TD*
G04 #@! TA.AperFunction,Conductor*
%ADD22C,0.100000*%
G04 #@! TD*
G04 APERTURE END LIST*
D10*
X158373000Y-116090000D03*
X158373000Y-113800000D03*
X158373000Y-104660000D03*
X158373000Y-102370000D03*
X163193000Y-112800000D03*
X164973000Y-111780000D03*
X163193000Y-110760000D03*
X164973000Y-109740000D03*
X163193000Y-108720000D03*
X164973000Y-107700000D03*
X163193000Y-106680000D03*
X164973000Y-105660000D03*
D11*
X164083000Y-101100000D03*
X164083000Y-117360000D03*
D12*
X152273000Y-120015000D03*
D13*
X156083000Y-120015000D03*
G04 #@! TA.AperFunction,SMDPad,CuDef*
G36*
G01*
X144183000Y-96035000D02*
X144183000Y-95735000D01*
G75*
G02*
X144333000Y-95585000I150000J0D01*
G01*
X145983000Y-95585000D01*
G75*
G02*
X146133000Y-95735000I0J-150000D01*
G01*
X146133000Y-96035000D01*
G75*
G02*
X145983000Y-96185000I-150000J0D01*
G01*
X144333000Y-96185000D01*
G75*
G02*
X144183000Y-96035000I0J150000D01*
G01*
G37*
G04 #@! TD.AperFunction*
G04 #@! TA.AperFunction,SMDPad,CuDef*
G36*
G01*
X144183000Y-97305000D02*
X144183000Y-97005000D01*
G75*
G02*
X144333000Y-96855000I150000J0D01*
G01*
X145983000Y-96855000D01*
G75*
G02*
X146133000Y-97005000I0J-150000D01*
G01*
X146133000Y-97305000D01*
G75*
G02*
X145983000Y-97455000I-150000J0D01*
G01*
X144333000Y-97455000D01*
G75*
G02*
X144183000Y-97305000I0J150000D01*
G01*
G37*
G04 #@! TD.AperFunction*
G04 #@! TA.AperFunction,SMDPad,CuDef*
G36*
G01*
X144183000Y-98575000D02*
X144183000Y-98275000D01*
G75*
G02*
X144333000Y-98125000I150000J0D01*
G01*
X145983000Y-98125000D01*
G75*
G02*
X146133000Y-98275000I0J-150000D01*
G01*
X146133000Y-98575000D01*
G75*
G02*
X145983000Y-98725000I-150000J0D01*
G01*
X144333000Y-98725000D01*
G75*
G02*
X144183000Y-98575000I0J150000D01*
G01*
G37*
G04 #@! TD.AperFunction*
G04 #@! TA.AperFunction,SMDPad,CuDef*
G36*
G01*
X144183000Y-99845000D02*
X144183000Y-99545000D01*
G75*
G02*
X144333000Y-99395000I150000J0D01*
G01*
X145983000Y-99395000D01*
G75*
G02*
X146133000Y-99545000I0J-150000D01*
G01*
X146133000Y-99845000D01*
G75*
G02*
X145983000Y-99995000I-150000J0D01*
G01*
X144333000Y-99995000D01*
G75*
G02*
X144183000Y-99845000I0J150000D01*
G01*
G37*
G04 #@! TD.AperFunction*
G04 #@! TA.AperFunction,SMDPad,CuDef*
G36*
G01*
X144183000Y-101115000D02*
X144183000Y-100815000D01*
G75*
G02*
X144333000Y-100665000I150000J0D01*
G01*
X145983000Y-100665000D01*
G75*
G02*
X146133000Y-100815000I0J-150000D01*
G01*
X146133000Y-101115000D01*
G75*
G02*
X145983000Y-101265000I-150000J0D01*
G01*
X144333000Y-101265000D01*
G75*
G02*
X144183000Y-101115000I0J150000D01*
G01*
G37*
G04 #@! TD.AperFunction*
G04 #@! TA.AperFunction,SMDPad,CuDef*
G36*
G01*
X144183000Y-102385000D02*
X144183000Y-102085000D01*
G75*
G02*
X144333000Y-101935000I150000J0D01*
G01*
X145983000Y-101935000D01*
G75*
G02*
X146133000Y-102085000I0J-150000D01*
G01*
X146133000Y-102385000D01*
G75*
G02*
X145983000Y-102535000I-150000J0D01*
G01*
X144333000Y-102535000D01*
G75*
G02*
X144183000Y-102385000I0J150000D01*
G01*
G37*
G04 #@! TD.AperFunction*
G04 #@! TA.AperFunction,SMDPad,CuDef*
G36*
G01*
X144183000Y-103655000D02*
X144183000Y-103355000D01*
G75*
G02*
X144333000Y-103205000I150000J0D01*
G01*
X145983000Y-103205000D01*
G75*
G02*
X146133000Y-103355000I0J-150000D01*
G01*
X146133000Y-103655000D01*
G75*
G02*
X145983000Y-103805000I-150000J0D01*
G01*
X144333000Y-103805000D01*
G75*
G02*
X144183000Y-103655000I0J150000D01*
G01*
G37*
G04 #@! TD.AperFunction*
G04 #@! TA.AperFunction,SMDPad,CuDef*
G36*
G01*
X139233000Y-103655000D02*
X139233000Y-103355000D01*
G75*
G02*
X139383000Y-103205000I150000J0D01*
G01*
X141033000Y-103205000D01*
G75*
G02*
X141183000Y-103355000I0J-150000D01*
G01*
X141183000Y-103655000D01*
G75*
G02*
X141033000Y-103805000I-150000J0D01*
G01*
X139383000Y-103805000D01*
G75*
G02*
X139233000Y-103655000I0J150000D01*
G01*
G37*
G04 #@! TD.AperFunction*
G04 #@! TA.AperFunction,SMDPad,CuDef*
G36*
G01*
X139233000Y-102385000D02*
X139233000Y-102085000D01*
G75*
G02*
X139383000Y-101935000I150000J0D01*
G01*
X141033000Y-101935000D01*
G75*
G02*
X141183000Y-102085000I0J-150000D01*
G01*
X141183000Y-102385000D01*
G75*
G02*
X141033000Y-102535000I-150000J0D01*
G01*
X139383000Y-102535000D01*
G75*
G02*
X139233000Y-102385000I0J150000D01*
G01*
G37*
G04 #@! TD.AperFunction*
G04 #@! TA.AperFunction,SMDPad,CuDef*
G36*
G01*
X139233000Y-101115000D02*
X139233000Y-100815000D01*
G75*
G02*
X139383000Y-100665000I150000J0D01*
G01*
X141033000Y-100665000D01*
G75*
G02*
X141183000Y-100815000I0J-150000D01*
G01*
X141183000Y-101115000D01*
G75*
G02*
X141033000Y-101265000I-150000J0D01*
G01*
X139383000Y-101265000D01*
G75*
G02*
X139233000Y-101115000I0J150000D01*
G01*
G37*
G04 #@! TD.AperFunction*
G04 #@! TA.AperFunction,SMDPad,CuDef*
G36*
G01*
X139233000Y-99845000D02*
X139233000Y-99545000D01*
G75*
G02*
X139383000Y-99395000I150000J0D01*
G01*
X141033000Y-99395000D01*
G75*
G02*
X141183000Y-99545000I0J-150000D01*
G01*
X141183000Y-99845000D01*
G75*
G02*
X141033000Y-99995000I-150000J0D01*
G01*
X139383000Y-99995000D01*
G75*
G02*
X139233000Y-99845000I0J150000D01*
G01*
G37*
G04 #@! TD.AperFunction*
G04 #@! TA.AperFunction,SMDPad,CuDef*
G36*
G01*
X139233000Y-98575000D02*
X139233000Y-98275000D01*
G75*
G02*
X139383000Y-98125000I150000J0D01*
G01*
X141033000Y-98125000D01*
G75*
G02*
X141183000Y-98275000I0J-150000D01*
G01*
X141183000Y-98575000D01*
G75*
G02*
X141033000Y-98725000I-150000J0D01*
G01*
X139383000Y-98725000D01*
G75*
G02*
X139233000Y-98575000I0J150000D01*
G01*
G37*
G04 #@! TD.AperFunction*
G04 #@! TA.AperFunction,SMDPad,CuDef*
G36*
G01*
X139233000Y-97305000D02*
X139233000Y-97005000D01*
G75*
G02*
X139383000Y-96855000I150000J0D01*
G01*
X141033000Y-96855000D01*
G75*
G02*
X141183000Y-97005000I0J-150000D01*
G01*
X141183000Y-97305000D01*
G75*
G02*
X141033000Y-97455000I-150000J0D01*
G01*
X139383000Y-97455000D01*
G75*
G02*
X139233000Y-97305000I0J150000D01*
G01*
G37*
G04 #@! TD.AperFunction*
G04 #@! TA.AperFunction,SMDPad,CuDef*
G36*
G01*
X139233000Y-96035000D02*
X139233000Y-95735000D01*
G75*
G02*
X139383000Y-95585000I150000J0D01*
G01*
X141033000Y-95585000D01*
G75*
G02*
X141183000Y-95735000I0J-150000D01*
G01*
X141183000Y-96035000D01*
G75*
G02*
X141033000Y-96185000I-150000J0D01*
G01*
X139383000Y-96185000D01*
G75*
G02*
X139233000Y-96035000I0J150000D01*
G01*
G37*
G04 #@! TD.AperFunction*
D14*
X130683000Y-97155000D03*
D15*
X128143000Y-97155000D03*
X130683000Y-99695000D03*
X128143000Y-99695000D03*
X130683000Y-102235000D03*
X128143000Y-102235000D03*
G04 #@! TA.AperFunction,SMDPad,CuDef*
G36*
G01*
X155088000Y-106065000D02*
X154538000Y-106065000D01*
G75*
G02*
X154338000Y-105865000I0J200000D01*
G01*
X154338000Y-105465000D01*
G75*
G02*
X154538000Y-105265000I200000J0D01*
G01*
X155088000Y-105265000D01*
G75*
G02*
X155288000Y-105465000I0J-200000D01*
G01*
X155288000Y-105865000D01*
G75*
G02*
X155088000Y-106065000I-200000J0D01*
G01*
G37*
G04 #@! TD.AperFunction*
G04 #@! TA.AperFunction,SMDPad,CuDef*
G36*
G01*
X155088000Y-107715000D02*
X154538000Y-107715000D01*
G75*
G02*
X154338000Y-107515000I0J200000D01*
G01*
X154338000Y-107115000D01*
G75*
G02*
X154538000Y-106915000I200000J0D01*
G01*
X155088000Y-106915000D01*
G75*
G02*
X155288000Y-107115000I0J-200000D01*
G01*
X155288000Y-107515000D01*
G75*
G02*
X155088000Y-107715000I-200000J0D01*
G01*
G37*
G04 #@! TD.AperFunction*
G04 #@! TA.AperFunction,SMDPad,CuDef*
G36*
G01*
X154538000Y-115550000D02*
X155088000Y-115550000D01*
G75*
G02*
X155288000Y-115750000I0J-200000D01*
G01*
X155288000Y-116150000D01*
G75*
G02*
X155088000Y-116350000I-200000J0D01*
G01*
X154538000Y-116350000D01*
G75*
G02*
X154338000Y-116150000I0J200000D01*
G01*
X154338000Y-115750000D01*
G75*
G02*
X154538000Y-115550000I200000J0D01*
G01*
G37*
G04 #@! TD.AperFunction*
G04 #@! TA.AperFunction,SMDPad,CuDef*
G36*
G01*
X154538000Y-113900000D02*
X155088000Y-113900000D01*
G75*
G02*
X155288000Y-114100000I0J-200000D01*
G01*
X155288000Y-114500000D01*
G75*
G02*
X155088000Y-114700000I-200000J0D01*
G01*
X154538000Y-114700000D01*
G75*
G02*
X154338000Y-114500000I0J200000D01*
G01*
X154338000Y-114100000D01*
G75*
G02*
X154538000Y-113900000I200000J0D01*
G01*
G37*
G04 #@! TD.AperFunction*
G04 #@! TA.AperFunction,SMDPad,CuDef*
G36*
G01*
X150768000Y-108945000D02*
X150768000Y-109495000D01*
G75*
G02*
X150568000Y-109695000I-200000J0D01*
G01*
X150168000Y-109695000D01*
G75*
G02*
X149968000Y-109495000I0J200000D01*
G01*
X149968000Y-108945000D01*
G75*
G02*
X150168000Y-108745000I200000J0D01*
G01*
X150568000Y-108745000D01*
G75*
G02*
X150768000Y-108945000I0J-200000D01*
G01*
G37*
G04 #@! TD.AperFunction*
G04 #@! TA.AperFunction,SMDPad,CuDef*
G36*
G01*
X152418000Y-108945000D02*
X152418000Y-109495000D01*
G75*
G02*
X152218000Y-109695000I-200000J0D01*
G01*
X151818000Y-109695000D01*
G75*
G02*
X151618000Y-109495000I0J200000D01*
G01*
X151618000Y-108945000D01*
G75*
G02*
X151818000Y-108745000I200000J0D01*
G01*
X152218000Y-108745000D01*
G75*
G02*
X152418000Y-108945000I0J-200000D01*
G01*
G37*
G04 #@! TD.AperFunction*
G04 #@! TA.AperFunction,SMDPad,CuDef*
G36*
G01*
X150768000Y-116565000D02*
X150768000Y-117115000D01*
G75*
G02*
X150568000Y-117315000I-200000J0D01*
G01*
X150168000Y-117315000D01*
G75*
G02*
X149968000Y-117115000I0J200000D01*
G01*
X149968000Y-116565000D01*
G75*
G02*
X150168000Y-116365000I200000J0D01*
G01*
X150568000Y-116365000D01*
G75*
G02*
X150768000Y-116565000I0J-200000D01*
G01*
G37*
G04 #@! TD.AperFunction*
G04 #@! TA.AperFunction,SMDPad,CuDef*
G36*
G01*
X152418000Y-116565000D02*
X152418000Y-117115000D01*
G75*
G02*
X152218000Y-117315000I-200000J0D01*
G01*
X151818000Y-117315000D01*
G75*
G02*
X151618000Y-117115000I0J200000D01*
G01*
X151618000Y-116565000D01*
G75*
G02*
X151818000Y-116365000I200000J0D01*
G01*
X152218000Y-116365000D01*
G75*
G02*
X152418000Y-116565000I0J-200000D01*
G01*
G37*
G04 #@! TD.AperFunction*
G04 #@! TA.AperFunction,SMDPad,CuDef*
G36*
G01*
X155088000Y-85110000D02*
X154538000Y-85110000D01*
G75*
G02*
X154338000Y-84910000I0J200000D01*
G01*
X154338000Y-84510000D01*
G75*
G02*
X154538000Y-84310000I200000J0D01*
G01*
X155088000Y-84310000D01*
G75*
G02*
X155288000Y-84510000I0J-200000D01*
G01*
X155288000Y-84910000D01*
G75*
G02*
X155088000Y-85110000I-200000J0D01*
G01*
G37*
G04 #@! TD.AperFunction*
G04 #@! TA.AperFunction,SMDPad,CuDef*
G36*
G01*
X155088000Y-86760000D02*
X154538000Y-86760000D01*
G75*
G02*
X154338000Y-86560000I0J200000D01*
G01*
X154338000Y-86160000D01*
G75*
G02*
X154538000Y-85960000I200000J0D01*
G01*
X155088000Y-85960000D01*
G75*
G02*
X155288000Y-86160000I0J-200000D01*
G01*
X155288000Y-86560000D01*
G75*
G02*
X155088000Y-86760000I-200000J0D01*
G01*
G37*
G04 #@! TD.AperFunction*
G04 #@! TA.AperFunction,SMDPad,CuDef*
G36*
G01*
X154538000Y-95230000D02*
X155088000Y-95230000D01*
G75*
G02*
X155288000Y-95430000I0J-200000D01*
G01*
X155288000Y-95830000D01*
G75*
G02*
X155088000Y-96030000I-200000J0D01*
G01*
X154538000Y-96030000D01*
G75*
G02*
X154338000Y-95830000I0J200000D01*
G01*
X154338000Y-95430000D01*
G75*
G02*
X154538000Y-95230000I200000J0D01*
G01*
G37*
G04 #@! TD.AperFunction*
G04 #@! TA.AperFunction,SMDPad,CuDef*
G36*
G01*
X154538000Y-93580000D02*
X155088000Y-93580000D01*
G75*
G02*
X155288000Y-93780000I0J-200000D01*
G01*
X155288000Y-94180000D01*
G75*
G02*
X155088000Y-94380000I-200000J0D01*
G01*
X154538000Y-94380000D01*
G75*
G02*
X154338000Y-94180000I0J200000D01*
G01*
X154338000Y-93780000D01*
G75*
G02*
X154538000Y-93580000I200000J0D01*
G01*
G37*
G04 #@! TD.AperFunction*
G04 #@! TA.AperFunction,SMDPad,CuDef*
G36*
G01*
X150768000Y-82910000D02*
X150768000Y-83460000D01*
G75*
G02*
X150568000Y-83660000I-200000J0D01*
G01*
X150168000Y-83660000D01*
G75*
G02*
X149968000Y-83460000I0J200000D01*
G01*
X149968000Y-82910000D01*
G75*
G02*
X150168000Y-82710000I200000J0D01*
G01*
X150568000Y-82710000D01*
G75*
G02*
X150768000Y-82910000I0J-200000D01*
G01*
G37*
G04 #@! TD.AperFunction*
G04 #@! TA.AperFunction,SMDPad,CuDef*
G36*
G01*
X152418000Y-82910000D02*
X152418000Y-83460000D01*
G75*
G02*
X152218000Y-83660000I-200000J0D01*
G01*
X151818000Y-83660000D01*
G75*
G02*
X151618000Y-83460000I0J200000D01*
G01*
X151618000Y-82910000D01*
G75*
G02*
X151818000Y-82710000I200000J0D01*
G01*
X152218000Y-82710000D01*
G75*
G02*
X152418000Y-82910000I0J-200000D01*
G01*
G37*
G04 #@! TD.AperFunction*
G04 #@! TA.AperFunction,SMDPad,CuDef*
G36*
G01*
X136038000Y-98635000D02*
X135488000Y-98635000D01*
G75*
G02*
X135288000Y-98435000I0J200000D01*
G01*
X135288000Y-98035000D01*
G75*
G02*
X135488000Y-97835000I200000J0D01*
G01*
X136038000Y-97835000D01*
G75*
G02*
X136238000Y-98035000I0J-200000D01*
G01*
X136238000Y-98435000D01*
G75*
G02*
X136038000Y-98635000I-200000J0D01*
G01*
G37*
G04 #@! TD.AperFunction*
G04 #@! TA.AperFunction,SMDPad,CuDef*
G36*
G01*
X136038000Y-100285000D02*
X135488000Y-100285000D01*
G75*
G02*
X135288000Y-100085000I0J200000D01*
G01*
X135288000Y-99685000D01*
G75*
G02*
X135488000Y-99485000I200000J0D01*
G01*
X136038000Y-99485000D01*
G75*
G02*
X136238000Y-99685000I0J-200000D01*
G01*
X136238000Y-100085000D01*
G75*
G02*
X136038000Y-100285000I-200000J0D01*
G01*
G37*
G04 #@! TD.AperFunction*
G04 #@! TA.AperFunction,SMDPad,CuDef*
G36*
G01*
X150768000Y-90530000D02*
X150768000Y-91080000D01*
G75*
G02*
X150568000Y-91280000I-200000J0D01*
G01*
X150168000Y-91280000D01*
G75*
G02*
X149968000Y-91080000I0J200000D01*
G01*
X149968000Y-90530000D01*
G75*
G02*
X150168000Y-90330000I200000J0D01*
G01*
X150568000Y-90330000D01*
G75*
G02*
X150768000Y-90530000I0J-200000D01*
G01*
G37*
G04 #@! TD.AperFunction*
G04 #@! TA.AperFunction,SMDPad,CuDef*
G36*
G01*
X152418000Y-90530000D02*
X152418000Y-91080000D01*
G75*
G02*
X152218000Y-91280000I-200000J0D01*
G01*
X151818000Y-91280000D01*
G75*
G02*
X151618000Y-91080000I0J200000D01*
G01*
X151618000Y-90530000D01*
G75*
G02*
X151818000Y-90330000I200000J0D01*
G01*
X152218000Y-90330000D01*
G75*
G02*
X152418000Y-90530000I0J-200000D01*
G01*
G37*
G04 #@! TD.AperFunction*
D16*
X138938000Y-116840000D03*
X146558000Y-109220000D03*
X138938000Y-114300000D03*
X146558000Y-111760000D03*
X138938000Y-111760000D03*
X146558000Y-114300000D03*
X138938000Y-109220000D03*
D17*
X146558000Y-116840000D03*
D16*
X138938000Y-90805000D03*
X146558000Y-83185000D03*
X138938000Y-88265000D03*
X146558000Y-85725000D03*
X138938000Y-85725000D03*
X146558000Y-88265000D03*
X138938000Y-83185000D03*
D17*
X146558000Y-90805000D03*
D10*
X158373000Y-95760000D03*
X158373000Y-93470000D03*
X158373000Y-84330000D03*
X158373000Y-82040000D03*
X163193000Y-92470000D03*
X164973000Y-91450000D03*
X163193000Y-90430000D03*
X164973000Y-89410000D03*
X163193000Y-88390000D03*
X164973000Y-87370000D03*
X163193000Y-86350000D03*
X164973000Y-85330000D03*
D11*
X164083000Y-80770000D03*
X164083000Y-97030000D03*
D18*
X138938000Y-123825000D03*
X141478000Y-123825000D03*
X144018000Y-123825000D03*
X146558000Y-123825000D03*
X149098000Y-123825000D03*
X151638000Y-123825000D03*
X154178000Y-123825000D03*
X156718000Y-123825000D03*
X161798000Y-123825000D03*
X164338000Y-123825000D03*
X166878000Y-123825000D03*
X169418000Y-123825000D03*
X171958000Y-123825000D03*
X174498000Y-123825000D03*
X129794000Y-75565000D03*
X132334000Y-75565000D03*
X134874000Y-75565000D03*
X137414000Y-75565000D03*
X139954000Y-75565000D03*
X142494000Y-75565000D03*
X145034000Y-75565000D03*
X147574000Y-75565000D03*
X150114000Y-75565000D03*
X152654000Y-75565000D03*
X156718000Y-75565000D03*
X159258000Y-75565000D03*
X161798000Y-75565000D03*
X164338000Y-75565000D03*
X166878000Y-75565000D03*
X169418000Y-75565000D03*
X171958000Y-75565000D03*
X174498000Y-75565000D03*
D19*
X137668000Y-97155000D03*
X153543000Y-88900000D03*
X137668000Y-99695000D03*
X152060500Y-96307500D03*
X148463000Y-97790000D03*
X151574001Y-92646001D03*
D20*
X142748000Y-111760000D02*
X144018000Y-113030000D01*
X144018000Y-113030000D02*
X144018000Y-123825000D01*
X138938000Y-111760000D02*
X142748000Y-111760000D01*
X140208000Y-97155000D02*
X137668000Y-97155000D01*
X172593000Y-77470000D02*
X174498000Y-75565000D01*
X156718000Y-77470000D02*
X172593000Y-77470000D01*
X152908000Y-81280000D02*
X156718000Y-77470000D01*
X137668000Y-81280000D02*
X152908000Y-81280000D01*
X134493000Y-84455000D02*
X137668000Y-81280000D01*
X134493000Y-95885000D02*
X134493000Y-84455000D01*
X133858000Y-96520000D02*
X134493000Y-95885000D01*
X133858000Y-99695000D02*
X133858000Y-96520000D01*
X135128000Y-100965000D02*
X133858000Y-99695000D01*
X140208000Y-100965000D02*
X135128000Y-100965000D01*
X131953000Y-102235000D02*
X130683000Y-102235000D01*
X145476500Y-78928500D02*
X138749500Y-78928500D01*
X132588000Y-101600000D02*
X131953000Y-102235000D01*
X147574000Y-75565000D02*
X147574000Y-76831000D01*
X138749500Y-78928500D02*
X132588000Y-85090000D01*
X147574000Y-76831000D02*
X145476500Y-78928500D01*
X132588000Y-85090000D02*
X132588000Y-101600000D01*
X138936589Y-78105000D02*
X142494000Y-78105000D01*
X142494000Y-78105000D02*
X145034000Y-75565000D01*
X132137989Y-84905011D02*
X132137989Y-84903600D01*
X132137989Y-84903600D02*
X138936589Y-78105000D01*
X129507999Y-87535001D02*
X132137989Y-84905011D01*
X129507999Y-98330001D02*
X129507999Y-87535001D01*
X128143000Y-99695000D02*
X129507999Y-98330001D01*
X154943000Y-95760000D02*
X154813000Y-95630000D01*
X158373000Y-95760000D02*
X154943000Y-95760000D01*
X155193000Y-84330000D02*
X154813000Y-84710000D01*
X158373000Y-84330000D02*
X155193000Y-84330000D01*
X161167999Y-94495001D02*
X163193000Y-92470000D01*
X155328001Y-94495001D02*
X161167999Y-94495001D01*
X154813000Y-93980000D02*
X155328001Y-94495001D01*
X154813000Y-86360000D02*
X154813000Y-86995000D01*
X154813000Y-86995000D02*
X153798000Y-88010000D01*
X152018000Y-88010000D02*
X152018000Y-90805000D01*
X152018000Y-83185000D02*
X152018000Y-88010000D01*
X153543000Y-88265000D02*
X153798000Y-88010000D01*
X153543000Y-88900000D02*
X153543000Y-88265000D01*
X152018000Y-88265000D02*
X152018000Y-88010000D01*
X153543000Y-88265000D02*
X152018000Y-88265000D01*
X135763000Y-99885000D02*
X137478000Y-99885000D01*
X137668000Y-99695000D02*
X140208000Y-99695000D01*
X137478000Y-99885000D02*
X137668000Y-99695000D01*
X144183000Y-95885000D02*
X142748000Y-97320000D01*
X145158000Y-95885000D02*
X144183000Y-95885000D01*
X142748000Y-97320000D02*
X142748000Y-99060000D01*
X142113000Y-99695000D02*
X140208000Y-99695000D01*
X142748000Y-99060000D02*
X142113000Y-99695000D01*
X157145522Y-90430000D02*
X163193000Y-90430000D01*
X153543000Y-94032522D02*
X157145522Y-90430000D01*
X153543000Y-94825000D02*
X153543000Y-94032522D01*
X145158000Y-102235000D02*
X146133000Y-102235000D01*
X152060500Y-96307500D02*
X153543000Y-94825000D01*
X146133000Y-102235000D02*
X152060500Y-96307500D01*
X164973000Y-105660000D02*
X163953000Y-105660000D01*
X163953000Y-105660000D02*
X162433000Y-104140000D01*
X144183000Y-100965000D02*
X145158000Y-100965000D01*
X143857990Y-101290010D02*
X144183000Y-100965000D01*
X144136242Y-102860010D02*
X143857990Y-102581758D01*
X143857990Y-102581758D02*
X143857990Y-101290010D01*
X146179758Y-102860010D02*
X144136242Y-102860010D01*
X151884768Y-97155000D02*
X146179758Y-102860010D01*
X162433000Y-97155000D02*
X151884768Y-97155000D01*
X162433000Y-104140000D02*
X162433000Y-97155000D01*
X166878000Y-92710000D02*
X166878000Y-89275000D01*
X164973000Y-94615000D02*
X166878000Y-92710000D01*
X163580499Y-94615000D02*
X164973000Y-94615000D01*
X166878000Y-89275000D02*
X164973000Y-87370000D01*
X162457999Y-95737500D02*
X163580499Y-94615000D01*
X162457999Y-97130001D02*
X162457999Y-95737500D01*
X162433000Y-97155000D02*
X162457999Y-97130001D01*
X159903000Y-86350000D02*
X163193000Y-86350000D01*
X145158000Y-98425000D02*
X147828000Y-98425000D01*
X148463000Y-97790000D02*
X159903000Y-86350000D01*
X147828000Y-98425000D02*
X148463000Y-97790000D01*
X164273001Y-84630001D02*
X164973000Y-85330000D01*
X159590001Y-84630001D02*
X164273001Y-84630001D01*
X144136242Y-97799990D02*
X146420012Y-97799990D01*
X143857990Y-98078242D02*
X144136242Y-97799990D01*
X143857990Y-99369990D02*
X143857990Y-98078242D01*
X144183000Y-99695000D02*
X143857990Y-99369990D01*
X145158000Y-99695000D02*
X144183000Y-99695000D01*
X151574001Y-92646001D02*
X159590001Y-84630001D01*
X146420012Y-97799990D02*
X151574001Y-92646001D01*
X154953000Y-116090000D02*
X154813000Y-115950000D01*
X158373000Y-116090000D02*
X154953000Y-116090000D01*
X158398001Y-113825001D02*
X158373000Y-113800000D01*
X164445001Y-113825001D02*
X158398001Y-113825001D01*
X165998001Y-112272001D02*
X164445001Y-113825001D01*
X165998001Y-110765001D02*
X165998001Y-112272001D01*
X164973000Y-109740000D02*
X165998001Y-110765001D01*
X145032990Y-110234990D02*
X146558000Y-111760000D01*
X145032990Y-108754006D02*
X145032990Y-110234990D01*
X151446027Y-107589498D02*
X146197498Y-107589498D01*
X156665525Y-102370000D02*
X151446027Y-107589498D01*
X146197498Y-107589498D02*
X145032990Y-108754006D01*
X158373000Y-102370000D02*
X156665525Y-102370000D01*
X155818000Y-104660000D02*
X154813000Y-105665000D01*
X158373000Y-104660000D02*
X155818000Y-104660000D01*
X152018000Y-112015000D02*
X152653000Y-112015000D01*
X152018000Y-116840000D02*
X152018000Y-112015000D01*
X152018000Y-112015000D02*
X152018000Y-109220000D01*
X153543000Y-111125000D02*
X154813000Y-111125000D01*
X152653000Y-112015000D02*
X153543000Y-111125000D01*
X154813000Y-111125000D02*
X154813000Y-114300000D01*
X154813000Y-107315000D02*
X154813000Y-111125000D01*
X161518000Y-111125000D02*
X154813000Y-111125000D01*
X163193000Y-112800000D02*
X161518000Y-111125000D01*
X150368000Y-83185000D02*
X146558000Y-83185000D01*
X140208000Y-98425000D02*
X137668000Y-98425000D01*
X137668000Y-98425000D02*
X137478000Y-98235000D01*
X136843000Y-98235000D02*
X136843000Y-89090000D01*
X137478000Y-98235000D02*
X136843000Y-98235000D01*
X136843000Y-98235000D02*
X135763000Y-98235000D01*
X137668000Y-88265000D02*
X138938000Y-88265000D01*
X136843000Y-89090000D02*
X137668000Y-88265000D01*
X150368000Y-90805000D02*
X146558000Y-90805000D01*
X150368000Y-109220000D02*
X146558000Y-109220000D01*
X146558000Y-116840000D02*
X150368000Y-116840000D01*
D21*
X176328000Y-86013876D02*
X176328001Y-86013886D01*
X176328000Y-123859876D01*
X176328001Y-123859886D01*
X176328000Y-125655000D01*
X136692091Y-125655000D01*
X128226130Y-117189039D01*
X137146096Y-117189039D01*
X137163633Y-117271818D01*
X137274285Y-117531646D01*
X137433500Y-117764895D01*
X137635161Y-117962601D01*
X137871517Y-118117166D01*
X138133486Y-118222650D01*
X138411000Y-118275000D01*
X138811000Y-118275000D01*
X138811000Y-116967000D01*
X139065000Y-116967000D01*
X139065000Y-118275000D01*
X139465000Y-118275000D01*
X139742514Y-118222650D01*
X140004483Y-118117166D01*
X140240839Y-117962601D01*
X140442500Y-117764895D01*
X140601715Y-117531646D01*
X140712367Y-117271818D01*
X140729904Y-117189039D01*
X140607915Y-116967000D01*
X139065000Y-116967000D01*
X138811000Y-116967000D01*
X137268085Y-116967000D01*
X137146096Y-117189039D01*
X128226130Y-117189039D01*
X125043000Y-114005909D01*
X125043000Y-108870961D01*
X137146096Y-108870961D01*
X137268085Y-109093000D01*
X138811000Y-109093000D01*
X138811000Y-107785000D01*
X139065000Y-107785000D01*
X139065000Y-109093000D01*
X140607915Y-109093000D01*
X140729904Y-108870961D01*
X140712367Y-108788182D01*
X140601715Y-108528354D01*
X140442500Y-108295105D01*
X140240839Y-108097399D01*
X140004483Y-107942834D01*
X139742514Y-107837350D01*
X139465000Y-107785000D01*
X139065000Y-107785000D01*
X138811000Y-107785000D01*
X138411000Y-107785000D01*
X138133486Y-107837350D01*
X137871517Y-107942834D01*
X137635161Y-108097399D01*
X137433500Y-108295105D01*
X137274285Y-108528354D01*
X137163633Y-108788182D01*
X137146096Y-108870961D01*
X125043000Y-108870961D01*
X125043000Y-103805000D01*
X138594928Y-103805000D01*
X138607188Y-103929482D01*
X138643498Y-104049180D01*
X138702463Y-104159494D01*
X138781815Y-104256185D01*
X138878506Y-104335537D01*
X138988820Y-104394502D01*
X139108518Y-104430812D01*
X139233000Y-104443072D01*
X139922250Y-104440000D01*
X140081000Y-104281250D01*
X140081000Y-103632000D01*
X140335000Y-103632000D01*
X140335000Y-104281250D01*
X140493750Y-104440000D01*
X141183000Y-104443072D01*
X141307482Y-104430812D01*
X141427180Y-104394502D01*
X141537494Y-104335537D01*
X141634185Y-104256185D01*
X141713537Y-104159494D01*
X141772502Y-104049180D01*
X141808812Y-103929482D01*
X141821072Y-103805000D01*
X141818000Y-103790750D01*
X141659250Y-103632000D01*
X140335000Y-103632000D01*
X140081000Y-103632000D01*
X138756750Y-103632000D01*
X138598000Y-103790750D01*
X138594928Y-103805000D01*
X125043000Y-103805000D01*
X125043000Y-102591890D01*
X126701524Y-102591890D01*
X126746175Y-102739099D01*
X126871359Y-103001920D01*
X127045412Y-103235269D01*
X127261645Y-103430178D01*
X127511748Y-103579157D01*
X127786109Y-103676481D01*
X128016000Y-103555814D01*
X128016000Y-102362000D01*
X126822845Y-102362000D01*
X126701524Y-102591890D01*
X125043000Y-102591890D01*
X125043000Y-97008740D01*
X126658000Y-97008740D01*
X126658000Y-97301260D01*
X126715068Y-97588158D01*
X126827010Y-97858411D01*
X126989525Y-98101632D01*
X127196368Y-98308475D01*
X127370760Y-98425000D01*
X127196368Y-98541525D01*
X126989525Y-98748368D01*
X126827010Y-98991589D01*
X126715068Y-99261842D01*
X126658000Y-99548740D01*
X126658000Y-99841260D01*
X126715068Y-100128158D01*
X126827010Y-100398411D01*
X126989525Y-100641632D01*
X127196368Y-100848475D01*
X127378534Y-100970195D01*
X127261645Y-101039822D01*
X127045412Y-101234731D01*
X126871359Y-101468080D01*
X126746175Y-101730901D01*
X126701524Y-101878110D01*
X126822845Y-102108000D01*
X128016000Y-102108000D01*
X128016000Y-102088000D01*
X128270000Y-102088000D01*
X128270000Y-102108000D01*
X128290000Y-102108000D01*
X128290000Y-102362000D01*
X128270000Y-102362000D01*
X128270000Y-103555814D01*
X128499891Y-103676481D01*
X128774252Y-103579157D01*
X129024355Y-103430178D01*
X129240588Y-103235269D01*
X129411900Y-103005594D01*
X129529525Y-103181632D01*
X129736368Y-103388475D01*
X129979589Y-103550990D01*
X130249842Y-103662932D01*
X130536740Y-103720000D01*
X130829260Y-103720000D01*
X131116158Y-103662932D01*
X131386411Y-103550990D01*
X131629632Y-103388475D01*
X131836475Y-103181632D01*
X131959125Y-102998073D01*
X131990322Y-102995000D01*
X131990333Y-102995000D01*
X132101986Y-102984003D01*
X132245247Y-102940546D01*
X132377276Y-102869974D01*
X132493001Y-102775001D01*
X132516803Y-102745998D01*
X132727801Y-102535000D01*
X138594928Y-102535000D01*
X138607188Y-102659482D01*
X138643498Y-102779180D01*
X138692043Y-102870000D01*
X138643498Y-102960820D01*
X138607188Y-103080518D01*
X138594928Y-103205000D01*
X138598000Y-103219250D01*
X138756750Y-103378000D01*
X140081000Y-103378000D01*
X140081000Y-102362000D01*
X140335000Y-102362000D01*
X140335000Y-103378000D01*
X141659250Y-103378000D01*
X141818000Y-103219250D01*
X141821072Y-103205000D01*
X141808812Y-103080518D01*
X141772502Y-102960820D01*
X141723957Y-102870000D01*
X141772502Y-102779180D01*
X141808812Y-102659482D01*
X141821072Y-102535000D01*
X141818000Y-102520750D01*
X141659250Y-102362000D01*
X140335000Y-102362000D01*
X140081000Y-102362000D01*
X138756750Y-102362000D01*
X138598000Y-102520750D01*
X138594928Y-102535000D01*
X132727801Y-102535000D01*
X133099002Y-102163800D01*
X133128001Y-102140001D01*
X133222974Y-102024276D01*
X133293546Y-101892247D01*
X133337003Y-101748986D01*
X133348000Y-101637333D01*
X133351677Y-101600000D01*
X133348000Y-101562667D01*
X133348000Y-100259801D01*
X134564200Y-101476002D01*
X134587999Y-101505001D01*
X134703724Y-101599974D01*
X134835753Y-101670546D01*
X134979014Y-101714003D01*
X135090667Y-101725000D01*
X135090676Y-101725000D01*
X135127999Y-101728676D01*
X135165322Y-101725000D01*
X138633130Y-101725000D01*
X138607188Y-101810518D01*
X138594928Y-101935000D01*
X138598000Y-101949250D01*
X138756750Y-102108000D01*
X140081000Y-102108000D01*
X140081000Y-102088000D01*
X140335000Y-102088000D01*
X140335000Y-102108000D01*
X141659250Y-102108000D01*
X141818000Y-101949250D01*
X141821072Y-101935000D01*
X141808812Y-101810518D01*
X141772502Y-101690820D01*
X141713537Y-101580506D01*
X141689270Y-101550936D01*
X141761084Y-101416582D01*
X141805929Y-101268745D01*
X141821072Y-101115000D01*
X141821072Y-100815000D01*
X141805929Y-100661255D01*
X141761084Y-100513418D01*
X141729859Y-100455000D01*
X142075678Y-100455000D01*
X142113000Y-100458676D01*
X142150322Y-100455000D01*
X142150333Y-100455000D01*
X142261986Y-100444003D01*
X142405247Y-100400546D01*
X142537276Y-100329974D01*
X142653001Y-100235001D01*
X142676803Y-100205998D01*
X143176173Y-99706629D01*
X143223016Y-99794266D01*
X143261583Y-99841260D01*
X143317989Y-99909991D01*
X143346993Y-99933794D01*
X143619196Y-100205997D01*
X143642999Y-100235001D01*
X143659350Y-100248420D01*
X143677742Y-100282829D01*
X143716454Y-100330000D01*
X143677742Y-100377171D01*
X143659350Y-100411580D01*
X143642999Y-100424999D01*
X143619196Y-100454003D01*
X143346988Y-100726211D01*
X143317990Y-100750009D01*
X143294192Y-100779007D01*
X143294191Y-100779008D01*
X143223016Y-100865734D01*
X143152444Y-100997764D01*
X143108988Y-101141025D01*
X143094314Y-101290010D01*
X143097991Y-101327342D01*
X143097990Y-102544435D01*
X143094314Y-102581758D01*
X143097990Y-102619080D01*
X143097990Y-102619090D01*
X143108987Y-102730743D01*
X143136921Y-102822829D01*
X143152444Y-102874004D01*
X143223016Y-103006034D01*
X143262861Y-103054584D01*
X143317989Y-103121759D01*
X143346993Y-103145562D01*
X143545959Y-103344528D01*
X143544928Y-103355000D01*
X143544928Y-103655000D01*
X143560071Y-103808745D01*
X143604916Y-103956582D01*
X143677742Y-104092829D01*
X143775749Y-104212251D01*
X143895171Y-104310258D01*
X144031418Y-104383084D01*
X144179255Y-104427929D01*
X144333000Y-104443072D01*
X145983000Y-104443072D01*
X146136745Y-104427929D01*
X146284582Y-104383084D01*
X146420829Y-104310258D01*
X146540251Y-104212251D01*
X146638258Y-104092829D01*
X146711084Y-103956582D01*
X146755929Y-103808745D01*
X146771072Y-103655000D01*
X146771072Y-103355000D01*
X146770041Y-103344528D01*
X152199570Y-97915000D01*
X161673001Y-97915000D01*
X161673000Y-104102677D01*
X161669324Y-104140000D01*
X161673000Y-104177322D01*
X161673000Y-104177332D01*
X161683997Y-104288985D01*
X161727019Y-104430812D01*
X161727454Y-104432246D01*
X161798026Y-104564276D01*
X161837871Y-104612826D01*
X161892999Y-104680001D01*
X161922003Y-104703804D01*
X162669886Y-105451688D01*
X162560641Y-105496939D01*
X162341987Y-105643038D01*
X162156038Y-105828987D01*
X162009939Y-106047641D01*
X161909304Y-106290595D01*
X161858000Y-106548514D01*
X161858000Y-106811486D01*
X161909304Y-107069405D01*
X162009939Y-107312359D01*
X162156038Y-107531013D01*
X162341987Y-107716962D01*
X162453229Y-107791291D01*
X162451336Y-107798731D01*
X163193000Y-108540395D01*
X163207143Y-108526253D01*
X163386748Y-108705858D01*
X163372605Y-108720000D01*
X163386748Y-108734143D01*
X163207143Y-108913748D01*
X163193000Y-108899605D01*
X162451336Y-109641269D01*
X162453229Y-109648709D01*
X162341987Y-109723038D01*
X162156038Y-109908987D01*
X162009939Y-110127641D01*
X161909304Y-110370595D01*
X161890999Y-110462618D01*
X161810247Y-110419454D01*
X161666986Y-110375997D01*
X161555333Y-110365000D01*
X161555322Y-110365000D01*
X161518000Y-110361324D01*
X161480678Y-110365000D01*
X155573000Y-110365000D01*
X155573000Y-108794473D01*
X161853610Y-108794473D01*
X161893875Y-109054344D01*
X161984065Y-109301366D01*
X162037963Y-109402203D01*
X162271731Y-109461664D01*
X163013395Y-108720000D01*
X162271731Y-107978336D01*
X162037963Y-108037797D01*
X161927066Y-108276242D01*
X161864817Y-108531740D01*
X161853610Y-108794473D01*
X155573000Y-108794473D01*
X155573000Y-108195916D01*
X155680606Y-108107606D01*
X155784831Y-107980608D01*
X155862278Y-107835716D01*
X155909969Y-107678500D01*
X155926072Y-107515000D01*
X155926072Y-107115000D01*
X155909969Y-106951500D01*
X155862278Y-106794284D01*
X155784831Y-106649392D01*
X155680606Y-106522394D01*
X155641134Y-106490000D01*
X155680606Y-106457606D01*
X155784831Y-106330608D01*
X155862278Y-106185716D01*
X155909969Y-106028500D01*
X155926072Y-105865000D01*
X155926072Y-105626730D01*
X156132802Y-105420000D01*
X157275225Y-105420000D01*
X157336038Y-105511013D01*
X157521987Y-105696962D01*
X157740641Y-105843061D01*
X157983595Y-105943696D01*
X158241514Y-105995000D01*
X158504486Y-105995000D01*
X158762405Y-105943696D01*
X159005359Y-105843061D01*
X159224013Y-105696962D01*
X159409962Y-105511013D01*
X159556061Y-105292359D01*
X159656696Y-105049405D01*
X159708000Y-104791486D01*
X159708000Y-104528514D01*
X159656696Y-104270595D01*
X159556061Y-104027641D01*
X159409962Y-103808987D01*
X159224013Y-103623038D01*
X159062322Y-103515000D01*
X159224013Y-103406962D01*
X159409962Y-103221013D01*
X159556061Y-103002359D01*
X159656696Y-102759405D01*
X159708000Y-102501486D01*
X159708000Y-102238514D01*
X159656696Y-101980595D01*
X159556061Y-101737641D01*
X159409962Y-101518987D01*
X159224013Y-101333038D01*
X159005359Y-101186939D01*
X158762405Y-101086304D01*
X158504486Y-101035000D01*
X158241514Y-101035000D01*
X157983595Y-101086304D01*
X157740641Y-101186939D01*
X157521987Y-101333038D01*
X157336038Y-101518987D01*
X157275225Y-101610000D01*
X156702848Y-101610000D01*
X156665525Y-101606324D01*
X156628202Y-101610000D01*
X156628192Y-101610000D01*
X156516539Y-101620997D01*
X156373278Y-101664454D01*
X156241249Y-101735026D01*
X156125524Y-101829999D01*
X156101726Y-101858997D01*
X151131226Y-106829498D01*
X146234820Y-106829498D01*
X146197497Y-106825822D01*
X146160175Y-106829498D01*
X146160165Y-106829498D01*
X146048512Y-106840495D01*
X145905251Y-106883952D01*
X145773221Y-106954524D01*
X145690085Y-107022753D01*
X145657497Y-107049497D01*
X145633699Y-107078495D01*
X144521993Y-108190202D01*
X144492989Y-108214005D01*
X144464952Y-108248169D01*
X144398016Y-108329730D01*
X144385485Y-108353174D01*
X144327444Y-108461760D01*
X144283987Y-108605021D01*
X144272990Y-108716674D01*
X144272990Y-108716684D01*
X144269314Y-108754006D01*
X144272990Y-108791329D01*
X144272991Y-110197658D01*
X144269314Y-110234990D01*
X144283988Y-110383975D01*
X144327444Y-110527236D01*
X144398016Y-110659266D01*
X144454153Y-110727668D01*
X144492990Y-110774991D01*
X144521988Y-110798789D01*
X144862592Y-111139393D01*
X144825818Y-111208192D01*
X144743764Y-111478691D01*
X144716057Y-111760000D01*
X144743764Y-112041309D01*
X144825818Y-112311808D01*
X144959068Y-112561101D01*
X145138392Y-112779608D01*
X145356899Y-112958932D01*
X145489858Y-113030000D01*
X145356899Y-113101068D01*
X145138392Y-113280392D01*
X144959068Y-113498899D01*
X144825818Y-113748192D01*
X144778000Y-113905829D01*
X144778000Y-113067322D01*
X144781676Y-113029999D01*
X144778000Y-112992676D01*
X144778000Y-112992667D01*
X144767003Y-112881014D01*
X144723546Y-112737753D01*
X144652974Y-112605724D01*
X144558001Y-112489999D01*
X144529004Y-112466202D01*
X143311804Y-111249003D01*
X143288001Y-111219999D01*
X143172276Y-111125026D01*
X143040247Y-111054454D01*
X142896986Y-111010997D01*
X142785333Y-111000000D01*
X142785322Y-111000000D01*
X142748000Y-110996324D01*
X142710678Y-111000000D01*
X140558901Y-111000000D01*
X140536932Y-110958899D01*
X140357608Y-110740392D01*
X140139101Y-110561068D01*
X140011259Y-110492735D01*
X140240839Y-110342601D01*
X140442500Y-110144895D01*
X140601715Y-109911646D01*
X140712367Y-109651818D01*
X140729904Y-109569039D01*
X140607915Y-109347000D01*
X139065000Y-109347000D01*
X139065000Y-109367000D01*
X138811000Y-109367000D01*
X138811000Y-109347000D01*
X137268085Y-109347000D01*
X137146096Y-109569039D01*
X137163633Y-109651818D01*
X137274285Y-109911646D01*
X137433500Y-110144895D01*
X137635161Y-110342601D01*
X137864741Y-110492735D01*
X137736899Y-110561068D01*
X137518392Y-110740392D01*
X137339068Y-110958899D01*
X137205818Y-111208192D01*
X137123764Y-111478691D01*
X137096057Y-111760000D01*
X137123764Y-112041309D01*
X137205818Y-112311808D01*
X137339068Y-112561101D01*
X137518392Y-112779608D01*
X137736899Y-112958932D01*
X137869858Y-113030000D01*
X137736899Y-113101068D01*
X137518392Y-113280392D01*
X137339068Y-113498899D01*
X137205818Y-113748192D01*
X137123764Y-114018691D01*
X137096057Y-114300000D01*
X137123764Y-114581309D01*
X137205818Y-114851808D01*
X137339068Y-115101101D01*
X137518392Y-115319608D01*
X137736899Y-115498932D01*
X137864741Y-115567265D01*
X137635161Y-115717399D01*
X137433500Y-115915105D01*
X137274285Y-116148354D01*
X137163633Y-116408182D01*
X137146096Y-116490961D01*
X137268085Y-116713000D01*
X138811000Y-116713000D01*
X138811000Y-116693000D01*
X139065000Y-116693000D01*
X139065000Y-116713000D01*
X140607915Y-116713000D01*
X140729904Y-116490961D01*
X140712367Y-116408182D01*
X140601715Y-116148354D01*
X140442500Y-115915105D01*
X140240839Y-115717399D01*
X140011259Y-115567265D01*
X140139101Y-115498932D01*
X140357608Y-115319608D01*
X140536932Y-115101101D01*
X140670182Y-114851808D01*
X140752236Y-114581309D01*
X140779943Y-114300000D01*
X140752236Y-114018691D01*
X140670182Y-113748192D01*
X140536932Y-113498899D01*
X140357608Y-113280392D01*
X140139101Y-113101068D01*
X140006142Y-113030000D01*
X140139101Y-112958932D01*
X140357608Y-112779608D01*
X140536932Y-112561101D01*
X140558901Y-112520000D01*
X142433199Y-112520000D01*
X143258000Y-113344802D01*
X143258001Y-122379584D01*
X143181394Y-122420531D01*
X142953203Y-122607803D01*
X142765931Y-122835995D01*
X142748000Y-122869541D01*
X142730069Y-122835994D01*
X142542797Y-122607803D01*
X142314605Y-122420531D01*
X142054263Y-122281375D01*
X141771776Y-122195684D01*
X141478000Y-122166749D01*
X141184223Y-122195684D01*
X140901736Y-122281375D01*
X140641394Y-122420531D01*
X140413203Y-122607803D01*
X140225931Y-122835995D01*
X140208000Y-122869541D01*
X140190069Y-122835994D01*
X140002797Y-122607803D01*
X139774605Y-122420531D01*
X139514263Y-122281375D01*
X139231776Y-122195684D01*
X138938000Y-122166749D01*
X138644223Y-122195684D01*
X138361736Y-122281375D01*
X138101394Y-122420531D01*
X137873203Y-122607803D01*
X137685931Y-122835995D01*
X137546775Y-123096337D01*
X137461084Y-123378824D01*
X137439400Y-123598982D01*
X137439400Y-124051019D01*
X137461084Y-124271177D01*
X137546775Y-124553664D01*
X137685931Y-124814006D01*
X137873203Y-125042197D01*
X138101395Y-125229469D01*
X138361737Y-125368625D01*
X138644224Y-125454316D01*
X138938000Y-125483251D01*
X139231777Y-125454316D01*
X139514264Y-125368625D01*
X139774606Y-125229469D01*
X140002797Y-125042197D01*
X140190069Y-124814006D01*
X140208000Y-124780459D01*
X140225931Y-124814006D01*
X140413203Y-125042197D01*
X140641395Y-125229469D01*
X140901737Y-125368625D01*
X141184224Y-125454316D01*
X141478000Y-125483251D01*
X141771777Y-125454316D01*
X142054264Y-125368625D01*
X142314606Y-125229469D01*
X142542797Y-125042197D01*
X142730069Y-124814006D01*
X142748000Y-124780459D01*
X142765931Y-124814006D01*
X142953203Y-125042197D01*
X143181395Y-125229469D01*
X143441737Y-125368625D01*
X143724224Y-125454316D01*
X144018000Y-125483251D01*
X144311777Y-125454316D01*
X144594264Y-125368625D01*
X144854606Y-125229469D01*
X145082797Y-125042197D01*
X145270069Y-124814006D01*
X145288000Y-124780459D01*
X145305931Y-124814006D01*
X145493203Y-125042197D01*
X145721395Y-125229469D01*
X145981737Y-125368625D01*
X146264224Y-125454316D01*
X146558000Y-125483251D01*
X146851777Y-125454316D01*
X147134264Y-125368625D01*
X147394606Y-125229469D01*
X147622797Y-125042197D01*
X147810069Y-124814006D01*
X147828000Y-124780459D01*
X147845931Y-124814006D01*
X148033203Y-125042197D01*
X148261395Y-125229469D01*
X148521737Y-125368625D01*
X148804224Y-125454316D01*
X149098000Y-125483251D01*
X149391777Y-125454316D01*
X149674264Y-125368625D01*
X149934606Y-125229469D01*
X150162797Y-125042197D01*
X150350069Y-124814006D01*
X150371424Y-124774053D01*
X150519514Y-124976729D01*
X150735965Y-125175733D01*
X150987081Y-125328686D01*
X151263211Y-125429709D01*
X151278974Y-125432358D01*
X151511000Y-125311217D01*
X151511000Y-123952000D01*
X151765000Y-123952000D01*
X151765000Y-125311217D01*
X151997026Y-125432358D01*
X152012789Y-125429709D01*
X152288919Y-125328686D01*
X152540035Y-125175733D01*
X152756486Y-124976729D01*
X152908000Y-124769367D01*
X153059514Y-124976729D01*
X153275965Y-125175733D01*
X153527081Y-125328686D01*
X153803211Y-125429709D01*
X153818974Y-125432358D01*
X154051000Y-125311217D01*
X154051000Y-123952000D01*
X151765000Y-123952000D01*
X151511000Y-123952000D01*
X151491000Y-123952000D01*
X151491000Y-123698000D01*
X151511000Y-123698000D01*
X151511000Y-122338783D01*
X151765000Y-122338783D01*
X151765000Y-123698000D01*
X154051000Y-123698000D01*
X154051000Y-122338783D01*
X154305000Y-122338783D01*
X154305000Y-123698000D01*
X154325000Y-123698000D01*
X154325000Y-123952000D01*
X154305000Y-123952000D01*
X154305000Y-125311217D01*
X154537026Y-125432358D01*
X154552789Y-125429709D01*
X154828919Y-125328686D01*
X155080035Y-125175733D01*
X155296486Y-124976729D01*
X155444576Y-124774053D01*
X155465931Y-124814006D01*
X155653203Y-125042197D01*
X155881395Y-125229469D01*
X156141737Y-125368625D01*
X156424224Y-125454316D01*
X156718000Y-125483251D01*
X157011777Y-125454316D01*
X157294264Y-125368625D01*
X157554606Y-125229469D01*
X157782797Y-125042197D01*
X157970069Y-124814006D01*
X158109225Y-124553663D01*
X158194916Y-124271176D01*
X158216600Y-124051018D01*
X158216600Y-123598982D01*
X160299400Y-123598982D01*
X160299400Y-124051019D01*
X160321084Y-124271177D01*
X160406775Y-124553664D01*
X160545931Y-124814006D01*
X160733203Y-125042197D01*
X160961395Y-125229469D01*
X161221737Y-125368625D01*
X161504224Y-125454316D01*
X161798000Y-125483251D01*
X162091777Y-125454316D01*
X162374264Y-125368625D01*
X162634606Y-125229469D01*
X162862797Y-125042197D01*
X163050069Y-124814006D01*
X163068000Y-124780459D01*
X163085931Y-124814006D01*
X163273203Y-125042197D01*
X163501395Y-125229469D01*
X163761737Y-125368625D01*
X164044224Y-125454316D01*
X164338000Y-125483251D01*
X164631777Y-125454316D01*
X164914264Y-125368625D01*
X165174606Y-125229469D01*
X165402797Y-125042197D01*
X165590069Y-124814006D01*
X165608000Y-124780459D01*
X165625931Y-124814006D01*
X165813203Y-125042197D01*
X166041395Y-125229469D01*
X166301737Y-125368625D01*
X166584224Y-125454316D01*
X166878000Y-125483251D01*
X167171777Y-125454316D01*
X167454264Y-125368625D01*
X167714606Y-125229469D01*
X167942797Y-125042197D01*
X168130069Y-124814006D01*
X168148000Y-124780459D01*
X168165931Y-124814006D01*
X168353203Y-125042197D01*
X168581395Y-125229469D01*
X168841737Y-125368625D01*
X169124224Y-125454316D01*
X169418000Y-125483251D01*
X169711777Y-125454316D01*
X169994264Y-125368625D01*
X170254606Y-125229469D01*
X170482797Y-125042197D01*
X170670069Y-124814006D01*
X170688000Y-124780459D01*
X170705931Y-124814006D01*
X170893203Y-125042197D01*
X171121395Y-125229469D01*
X171381737Y-125368625D01*
X171664224Y-125454316D01*
X171958000Y-125483251D01*
X172251777Y-125454316D01*
X172534264Y-125368625D01*
X172794606Y-125229469D01*
X173022797Y-125042197D01*
X173210069Y-124814006D01*
X173228000Y-124780459D01*
X173245931Y-124814006D01*
X173433203Y-125042197D01*
X173661395Y-125229469D01*
X173921737Y-125368625D01*
X174204224Y-125454316D01*
X174498000Y-125483251D01*
X174791777Y-125454316D01*
X175074264Y-125368625D01*
X175334606Y-125229469D01*
X175562797Y-125042197D01*
X175750069Y-124814006D01*
X175889225Y-124553663D01*
X175974916Y-124271176D01*
X175996600Y-124051018D01*
X175996600Y-123598981D01*
X175974916Y-123378823D01*
X175889225Y-123096336D01*
X175750069Y-122835994D01*
X175562797Y-122607803D01*
X175334605Y-122420531D01*
X175074263Y-122281375D01*
X174791776Y-122195684D01*
X174498000Y-122166749D01*
X174204223Y-122195684D01*
X173921736Y-122281375D01*
X173661394Y-122420531D01*
X173433203Y-122607803D01*
X173245931Y-122835995D01*
X173228000Y-122869541D01*
X173210069Y-122835994D01*
X173022797Y-122607803D01*
X172794605Y-122420531D01*
X172534263Y-122281375D01*
X172251776Y-122195684D01*
X171958000Y-122166749D01*
X171664223Y-122195684D01*
X171381736Y-122281375D01*
X171121394Y-122420531D01*
X170893203Y-122607803D01*
X170705931Y-122835995D01*
X170688000Y-122869541D01*
X170670069Y-122835994D01*
X170482797Y-122607803D01*
X170254605Y-122420531D01*
X169994263Y-122281375D01*
X169711776Y-122195684D01*
X169418000Y-122166749D01*
X169124223Y-122195684D01*
X168841736Y-122281375D01*
X168581394Y-122420531D01*
X168353203Y-122607803D01*
X168165931Y-122835995D01*
X168148000Y-122869541D01*
X168130069Y-122835994D01*
X167942797Y-122607803D01*
X167714605Y-122420531D01*
X167454263Y-122281375D01*
X167171776Y-122195684D01*
X166878000Y-122166749D01*
X166584223Y-122195684D01*
X166301736Y-122281375D01*
X166041394Y-122420531D01*
X165813203Y-122607803D01*
X165625931Y-122835995D01*
X165608000Y-122869541D01*
X165590069Y-122835994D01*
X165402797Y-122607803D01*
X165174605Y-122420531D01*
X164914263Y-122281375D01*
X164631776Y-122195684D01*
X164338000Y-122166749D01*
X164044223Y-122195684D01*
X163761736Y-122281375D01*
X163501394Y-122420531D01*
X163273203Y-122607803D01*
X163085931Y-122835995D01*
X163068000Y-122869541D01*
X163050069Y-122835994D01*
X162862797Y-122607803D01*
X162634605Y-122420531D01*
X162374263Y-122281375D01*
X162091776Y-122195684D01*
X161798000Y-122166749D01*
X161504223Y-122195684D01*
X161221736Y-122281375D01*
X160961394Y-122420531D01*
X160733203Y-122607803D01*
X160545931Y-122835995D01*
X160406775Y-123096337D01*
X160321084Y-123378824D01*
X160299400Y-123598982D01*
X158216600Y-123598982D01*
X158216600Y-123598981D01*
X158194916Y-123378823D01*
X158109225Y-123096336D01*
X157970069Y-122835994D01*
X157782797Y-122607803D01*
X157554605Y-122420531D01*
X157294263Y-122281375D01*
X157011776Y-122195684D01*
X156718000Y-122166749D01*
X156424223Y-122195684D01*
X156141736Y-122281375D01*
X155881394Y-122420531D01*
X155653203Y-122607803D01*
X155465931Y-122835995D01*
X155444576Y-122875947D01*
X155296486Y-122673271D01*
X155080035Y-122474267D01*
X154828919Y-122321314D01*
X154552789Y-122220291D01*
X154537026Y-122217642D01*
X154305000Y-122338783D01*
X154051000Y-122338783D01*
X153818974Y-122217642D01*
X153803211Y-122220291D01*
X153527081Y-122321314D01*
X153275965Y-122474267D01*
X153059514Y-122673271D01*
X152908000Y-122880633D01*
X152756486Y-122673271D01*
X152540035Y-122474267D01*
X152288919Y-122321314D01*
X152012789Y-122220291D01*
X151997026Y-122217642D01*
X151765000Y-122338783D01*
X151511000Y-122338783D01*
X151278974Y-122217642D01*
X151263211Y-122220291D01*
X150987081Y-122321314D01*
X150735965Y-122474267D01*
X150519514Y-122673271D01*
X150371424Y-122875947D01*
X150350069Y-122835994D01*
X150162797Y-122607803D01*
X149934605Y-122420531D01*
X149674263Y-122281375D01*
X149391776Y-122195684D01*
X149098000Y-122166749D01*
X148804223Y-122195684D01*
X148521736Y-122281375D01*
X148261394Y-122420531D01*
X148033203Y-122607803D01*
X147845931Y-122835995D01*
X147828000Y-122869541D01*
X147810069Y-122835994D01*
X147622797Y-122607803D01*
X147394605Y-122420531D01*
X147134263Y-122281375D01*
X146851776Y-122195684D01*
X146558000Y-122166749D01*
X146264223Y-122195684D01*
X145981736Y-122281375D01*
X145721394Y-122420531D01*
X145493203Y-122607803D01*
X145305931Y-122835995D01*
X145288000Y-122869541D01*
X145270069Y-122835994D01*
X145082797Y-122607803D01*
X144854605Y-122420531D01*
X144778000Y-122379585D01*
X144778000Y-119844117D01*
X150538000Y-119844117D01*
X150538000Y-120185883D01*
X150604675Y-120521081D01*
X150735463Y-120836831D01*
X150925337Y-121120998D01*
X151167002Y-121362663D01*
X151451169Y-121552537D01*
X151766919Y-121683325D01*
X152102117Y-121750000D01*
X152443883Y-121750000D01*
X152779081Y-121683325D01*
X153094831Y-121552537D01*
X153378998Y-121362663D01*
X153620663Y-121120998D01*
X153810537Y-120836831D01*
X153941325Y-120521081D01*
X154008000Y-120185883D01*
X154008000Y-119844117D01*
X153941325Y-119508919D01*
X153810537Y-119193169D01*
X153624671Y-118915000D01*
X154344928Y-118915000D01*
X154344928Y-121115000D01*
X154357188Y-121239482D01*
X154393498Y-121359180D01*
X154452463Y-121469494D01*
X154531815Y-121566185D01*
X154628506Y-121645537D01*
X154738820Y-121704502D01*
X154858518Y-121740812D01*
X154983000Y-121753072D01*
X157183000Y-121753072D01*
X157307482Y-121740812D01*
X157427180Y-121704502D01*
X157537494Y-121645537D01*
X157634185Y-121566185D01*
X157713537Y-121469494D01*
X157772502Y-121359180D01*
X157808812Y-121239482D01*
X157821072Y-121115000D01*
X157821072Y-118915000D01*
X157808812Y-118790518D01*
X157784152Y-118709224D01*
X162913381Y-118709224D01*
X163045317Y-119004312D01*
X163386045Y-119175159D01*
X163753557Y-119276250D01*
X164133729Y-119303701D01*
X164511951Y-119256457D01*
X164873690Y-119136333D01*
X165120683Y-119004312D01*
X165252619Y-118709224D01*
X164083000Y-117539605D01*
X162913381Y-118709224D01*
X157784152Y-118709224D01*
X157772502Y-118670820D01*
X157713537Y-118560506D01*
X157634185Y-118463815D01*
X157537494Y-118384463D01*
X157427180Y-118325498D01*
X157307482Y-118289188D01*
X157183000Y-118276928D01*
X154983000Y-118276928D01*
X154858518Y-118289188D01*
X154738820Y-118325498D01*
X154628506Y-118384463D01*
X154531815Y-118463815D01*
X154452463Y-118560506D01*
X154393498Y-118670820D01*
X154357188Y-118790518D01*
X154344928Y-118915000D01*
X153624671Y-118915000D01*
X153620663Y-118909002D01*
X153378998Y-118667337D01*
X153094831Y-118477463D01*
X152779081Y-118346675D01*
X152443883Y-118280000D01*
X152102117Y-118280000D01*
X151766919Y-118346675D01*
X151451169Y-118477463D01*
X151167002Y-118667337D01*
X150925337Y-118909002D01*
X150735463Y-119193169D01*
X150604675Y-119508919D01*
X150538000Y-119844117D01*
X144778000Y-119844117D01*
X144778000Y-117901957D01*
X144827463Y-117994494D01*
X144906815Y-118091185D01*
X145003506Y-118170537D01*
X145113820Y-118229502D01*
X145233518Y-118265812D01*
X145358000Y-118278072D01*
X147758000Y-118278072D01*
X147882482Y-118265812D01*
X148002180Y-118229502D01*
X148112494Y-118170537D01*
X148209185Y-118091185D01*
X148288537Y-117994494D01*
X148347502Y-117884180D01*
X148383812Y-117764482D01*
X148396072Y-117640000D01*
X148396072Y-117600000D01*
X149487084Y-117600000D01*
X149575394Y-117707606D01*
X149702392Y-117811831D01*
X149847284Y-117889278D01*
X150004500Y-117936969D01*
X150168000Y-117953072D01*
X150568000Y-117953072D01*
X150731500Y-117936969D01*
X150888716Y-117889278D01*
X151033608Y-117811831D01*
X151160606Y-117707606D01*
X151193000Y-117668134D01*
X151225394Y-117707606D01*
X151352392Y-117811831D01*
X151497284Y-117889278D01*
X151654500Y-117936969D01*
X151818000Y-117953072D01*
X152218000Y-117953072D01*
X152381500Y-117936969D01*
X152538716Y-117889278D01*
X152683608Y-117811831D01*
X152810606Y-117707606D01*
X152914831Y-117580608D01*
X152992278Y-117435716D01*
X153039969Y-117278500D01*
X153056072Y-117115000D01*
X153056072Y-116565000D01*
X153039969Y-116401500D01*
X152992278Y-116244284D01*
X152914831Y-116099392D01*
X152810606Y-115972394D01*
X152778000Y-115945635D01*
X152778000Y-112766365D01*
X152801986Y-112764003D01*
X152945247Y-112720546D01*
X153077276Y-112649974D01*
X153193001Y-112555001D01*
X153216803Y-112525998D01*
X153857802Y-111885000D01*
X154053000Y-111885000D01*
X154053001Y-113419083D01*
X153945394Y-113507394D01*
X153841169Y-113634392D01*
X153763722Y-113779284D01*
X153716031Y-113936500D01*
X153699928Y-114100000D01*
X153699928Y-114500000D01*
X153716031Y-114663500D01*
X153763722Y-114820716D01*
X153841169Y-114965608D01*
X153945394Y-115092606D01*
X153984866Y-115125000D01*
X153945394Y-115157394D01*
X153841169Y-115284392D01*
X153763722Y-115429284D01*
X153716031Y-115586500D01*
X153699928Y-115750000D01*
X153699928Y-116150000D01*
X153716031Y-116313500D01*
X153763722Y-116470716D01*
X153841169Y-116615608D01*
X153945394Y-116742606D01*
X154072392Y-116846831D01*
X154217284Y-116924278D01*
X154374500Y-116971969D01*
X154538000Y-116988072D01*
X155088000Y-116988072D01*
X155251500Y-116971969D01*
X155408716Y-116924278D01*
X155547679Y-116850000D01*
X157275225Y-116850000D01*
X157336038Y-116941013D01*
X157521987Y-117126962D01*
X157740641Y-117273061D01*
X157983595Y-117373696D01*
X158241514Y-117425000D01*
X158504486Y-117425000D01*
X158576230Y-117410729D01*
X162139299Y-117410729D01*
X162186543Y-117788951D01*
X162306667Y-118150690D01*
X162438688Y-118397683D01*
X162733776Y-118529619D01*
X163903395Y-117360000D01*
X162733776Y-116190381D01*
X162438688Y-116322317D01*
X162267841Y-116663045D01*
X162166750Y-117030557D01*
X162139299Y-117410729D01*
X158576230Y-117410729D01*
X158762405Y-117373696D01*
X159005359Y-117273061D01*
X159224013Y-117126962D01*
X159409962Y-116941013D01*
X159556061Y-116722359D01*
X159656696Y-116479405D01*
X159708000Y-116221486D01*
X159708000Y-116010776D01*
X162913381Y-116010776D01*
X164083000Y-117180395D01*
X164097143Y-117166253D01*
X164276748Y-117345858D01*
X164262605Y-117360000D01*
X165432224Y-118529619D01*
X165727312Y-118397683D01*
X165898159Y-118056955D01*
X165999250Y-117689443D01*
X166026701Y-117309271D01*
X166023925Y-117287047D01*
X166072334Y-117335456D01*
X166442489Y-117582786D01*
X166853782Y-117753149D01*
X167290409Y-117840000D01*
X167735591Y-117840000D01*
X168172218Y-117753149D01*
X168583511Y-117582786D01*
X168953666Y-117335456D01*
X169268456Y-117020666D01*
X169515786Y-116650511D01*
X169686149Y-116239218D01*
X169773000Y-115802591D01*
X169773000Y-115357409D01*
X169686149Y-114920782D01*
X169515786Y-114509489D01*
X169268456Y-114139334D01*
X168953666Y-113824544D01*
X168583511Y-113577214D01*
X168172218Y-113406851D01*
X167735591Y-113320000D01*
X167290409Y-113320000D01*
X166853782Y-113406851D01*
X166442489Y-113577214D01*
X166072334Y-113824544D01*
X165757544Y-114139334D01*
X165510214Y-114509489D01*
X165339851Y-114920782D01*
X165253000Y-115357409D01*
X165253000Y-115802591D01*
X165287477Y-115975915D01*
X165252618Y-116010774D01*
X165120683Y-115715688D01*
X164779955Y-115544841D01*
X164412443Y-115443750D01*
X164032271Y-115416299D01*
X163654049Y-115463543D01*
X163292310Y-115583667D01*
X163045317Y-115715688D01*
X162913381Y-116010776D01*
X159708000Y-116010776D01*
X159708000Y-115958514D01*
X159656696Y-115700595D01*
X159556061Y-115457641D01*
X159409962Y-115238987D01*
X159224013Y-115053038D01*
X159062322Y-114945000D01*
X159224013Y-114836962D01*
X159409962Y-114651013D01*
X159454070Y-114585001D01*
X164407679Y-114585001D01*
X164445001Y-114588677D01*
X164482323Y-114585001D01*
X164482334Y-114585001D01*
X164593987Y-114574004D01*
X164737248Y-114530547D01*
X164869277Y-114459975D01*
X164985002Y-114365002D01*
X165008805Y-114335998D01*
X166509004Y-112835800D01*
X166538002Y-112812002D01*
X166632975Y-112696277D01*
X166703547Y-112564248D01*
X166747004Y-112420987D01*
X166758001Y-112309334D01*
X166758001Y-112309326D01*
X166761677Y-112272001D01*
X166758001Y-112234676D01*
X166758001Y-110802323D01*
X166761677Y-110765000D01*
X166758001Y-110727677D01*
X166758001Y-110727668D01*
X166747004Y-110616015D01*
X166703547Y-110472754D01*
X166632975Y-110340725D01*
X166538002Y-110225000D01*
X166509005Y-110201203D01*
X166286645Y-109978843D01*
X166308000Y-109871486D01*
X166308000Y-109608514D01*
X166256696Y-109350595D01*
X166156061Y-109107641D01*
X166009962Y-108888987D01*
X165840975Y-108720000D01*
X166009962Y-108551013D01*
X166156061Y-108332359D01*
X166256696Y-108089405D01*
X166308000Y-107831486D01*
X166308000Y-107568514D01*
X166256696Y-107310595D01*
X166156061Y-107067641D01*
X166009962Y-106848987D01*
X165840975Y-106680000D01*
X166009962Y-106511013D01*
X166156061Y-106292359D01*
X166256696Y-106049405D01*
X166308000Y-105791486D01*
X166308000Y-105528514D01*
X166256696Y-105270595D01*
X166156061Y-105027641D01*
X166009962Y-104808987D01*
X165824013Y-104623038D01*
X165605359Y-104476939D01*
X165362405Y-104376304D01*
X165104486Y-104325000D01*
X164841514Y-104325000D01*
X164583595Y-104376304D01*
X164340641Y-104476939D01*
X164121987Y-104623038D01*
X164056413Y-104688612D01*
X163193000Y-103825199D01*
X163193000Y-102818363D01*
X163386045Y-102915159D01*
X163753557Y-103016250D01*
X164133729Y-103043701D01*
X164511951Y-102996457D01*
X164873690Y-102876333D01*
X165120683Y-102744312D01*
X165252618Y-102449226D01*
X165287477Y-102484085D01*
X165253000Y-102657409D01*
X165253000Y-103102591D01*
X165339851Y-103539218D01*
X165510214Y-103950511D01*
X165757544Y-104320666D01*
X166072334Y-104635456D01*
X166442489Y-104882786D01*
X166853782Y-105053149D01*
X167290409Y-105140000D01*
X167735591Y-105140000D01*
X168172218Y-105053149D01*
X168583511Y-104882786D01*
X168953666Y-104635456D01*
X169268456Y-104320666D01*
X169515786Y-103950511D01*
X169686149Y-103539218D01*
X169773000Y-103102591D01*
X169773000Y-102657409D01*
X169686149Y-102220782D01*
X169515786Y-101809489D01*
X169268456Y-101439334D01*
X168953666Y-101124544D01*
X168583511Y-100877214D01*
X168172218Y-100706851D01*
X167735591Y-100620000D01*
X167290409Y-100620000D01*
X166853782Y-100706851D01*
X166442489Y-100877214D01*
X166072334Y-101124544D01*
X166017291Y-101179587D01*
X166026701Y-101049271D01*
X165979457Y-100671049D01*
X165859333Y-100309310D01*
X165727312Y-100062317D01*
X165432224Y-99930381D01*
X164262605Y-101100000D01*
X164276748Y-101114143D01*
X164097143Y-101293748D01*
X164083000Y-101279605D01*
X164068858Y-101293748D01*
X163889253Y-101114143D01*
X163903395Y-101100000D01*
X163889253Y-101085858D01*
X164068858Y-100906253D01*
X164083000Y-100920395D01*
X165252619Y-99750776D01*
X165120683Y-99455688D01*
X164779955Y-99284841D01*
X164412443Y-99183750D01*
X164032271Y-99156299D01*
X163654049Y-99203543D01*
X163292310Y-99323667D01*
X163193000Y-99376749D01*
X163193000Y-98748363D01*
X163386045Y-98845159D01*
X163753557Y-98946250D01*
X164133729Y-98973701D01*
X164511951Y-98926457D01*
X164873690Y-98806333D01*
X165120683Y-98674312D01*
X165252619Y-98379224D01*
X164083000Y-97209605D01*
X164068858Y-97223748D01*
X163889253Y-97044143D01*
X163903395Y-97030000D01*
X163889253Y-97015858D01*
X164068858Y-96836253D01*
X164083000Y-96850395D01*
X164097143Y-96836253D01*
X164276748Y-97015858D01*
X164262605Y-97030000D01*
X165432224Y-98199619D01*
X165727312Y-98067683D01*
X165898159Y-97726955D01*
X165999250Y-97359443D01*
X166026701Y-96979271D01*
X166023925Y-96957047D01*
X166072334Y-97005456D01*
X166442489Y-97252786D01*
X166853782Y-97423149D01*
X167290409Y-97510000D01*
X167735591Y-97510000D01*
X168172218Y-97423149D01*
X168583511Y-97252786D01*
X168953666Y-97005456D01*
X169268456Y-96690666D01*
X169515786Y-96320511D01*
X169686149Y-95909218D01*
X169773000Y-95472591D01*
X169773000Y-95027409D01*
X169686149Y-94590782D01*
X169515786Y-94179489D01*
X169268456Y-93809334D01*
X168953666Y-93494544D01*
X168583511Y-93247214D01*
X168172218Y-93076851D01*
X167735591Y-92990000D01*
X167587261Y-92990000D01*
X167627003Y-92858986D01*
X167638000Y-92747333D01*
X167638000Y-92747323D01*
X167641676Y-92710000D01*
X167638000Y-92672677D01*
X167638000Y-89312323D01*
X167641676Y-89275000D01*
X167638000Y-89237677D01*
X167638000Y-89237667D01*
X167627003Y-89126014D01*
X167583546Y-88982753D01*
X167512974Y-88850724D01*
X167418001Y-88734999D01*
X167389003Y-88711201D01*
X166286645Y-87608844D01*
X166308000Y-87501486D01*
X166308000Y-87238514D01*
X166256696Y-86980595D01*
X166156061Y-86737641D01*
X166009962Y-86518987D01*
X165840975Y-86350000D01*
X166009962Y-86181013D01*
X166156061Y-85962359D01*
X166256696Y-85719405D01*
X166308000Y-85461486D01*
X166308000Y-85198514D01*
X166256696Y-84940595D01*
X166156061Y-84697641D01*
X166009962Y-84478987D01*
X165824013Y-84293038D01*
X165605359Y-84146939D01*
X165362405Y-84046304D01*
X165104486Y-83995000D01*
X164841514Y-83995000D01*
X164725390Y-84018099D01*
X164697277Y-83995027D01*
X164565248Y-83924455D01*
X164421987Y-83880998D01*
X164310334Y-83870001D01*
X164310323Y-83870001D01*
X164273001Y-83866325D01*
X164235679Y-83870001D01*
X159627455Y-83870001D01*
X159556061Y-83697641D01*
X159409962Y-83478987D01*
X159224013Y-83293038D01*
X159062322Y-83185000D01*
X159224013Y-83076962D01*
X159409962Y-82891013D01*
X159556061Y-82672359D01*
X159656696Y-82429405D01*
X159708000Y-82171486D01*
X159708000Y-82119224D01*
X162913381Y-82119224D01*
X163045317Y-82414312D01*
X163386045Y-82585159D01*
X163753557Y-82686250D01*
X164133729Y-82713701D01*
X164511951Y-82666457D01*
X164873690Y-82546333D01*
X165120683Y-82414312D01*
X165252618Y-82119226D01*
X165287477Y-82154085D01*
X165253000Y-82327409D01*
X165253000Y-82772591D01*
X165339851Y-83209218D01*
X165510214Y-83620511D01*
X165757544Y-83990666D01*
X166072334Y-84305456D01*
X166442489Y-84552786D01*
X166853782Y-84723149D01*
X167290409Y-84810000D01*
X167735591Y-84810000D01*
X168172218Y-84723149D01*
X168583511Y-84552786D01*
X168953666Y-84305456D01*
X169268456Y-83990666D01*
X169515786Y-83620511D01*
X169686149Y-83209218D01*
X169773000Y-82772591D01*
X169773000Y-82327409D01*
X169686149Y-81890782D01*
X169515786Y-81479489D01*
X169268456Y-81109334D01*
X168953666Y-80794544D01*
X168583511Y-80547214D01*
X168172218Y-80376851D01*
X167735591Y-80290000D01*
X167290409Y-80290000D01*
X166853782Y-80376851D01*
X166442489Y-80547214D01*
X166072334Y-80794544D01*
X166017291Y-80849587D01*
X166026701Y-80719271D01*
X165979457Y-80341049D01*
X165859333Y-79979310D01*
X165727312Y-79732317D01*
X165432224Y-79600381D01*
X164262605Y-80770000D01*
X164276748Y-80784143D01*
X164097143Y-80963748D01*
X164083000Y-80949605D01*
X162913381Y-82119224D01*
X159708000Y-82119224D01*
X159708000Y-81908514D01*
X159656696Y-81650595D01*
X159556061Y-81407641D01*
X159409962Y-81188987D01*
X159224013Y-81003038D01*
X159005359Y-80856939D01*
X158917941Y-80820729D01*
X162139299Y-80820729D01*
X162186543Y-81198951D01*
X162306667Y-81560690D01*
X162438688Y-81807683D01*
X162733776Y-81939619D01*
X163903395Y-80770000D01*
X162733776Y-79600381D01*
X162438688Y-79732317D01*
X162267841Y-80073045D01*
X162166750Y-80440557D01*
X162139299Y-80820729D01*
X158917941Y-80820729D01*
X158762405Y-80756304D01*
X158504486Y-80705000D01*
X158241514Y-80705000D01*
X157983595Y-80756304D01*
X157740641Y-80856939D01*
X157521987Y-81003038D01*
X157336038Y-81188987D01*
X157189939Y-81407641D01*
X157089304Y-81650595D01*
X157038000Y-81908514D01*
X157038000Y-82171486D01*
X157089304Y-82429405D01*
X157189939Y-82672359D01*
X157336038Y-82891013D01*
X157521987Y-83076962D01*
X157683678Y-83185000D01*
X157521987Y-83293038D01*
X157336038Y-83478987D01*
X157275225Y-83570000D01*
X155230322Y-83570000D01*
X155192999Y-83566324D01*
X155155676Y-83570000D01*
X155155667Y-83570000D01*
X155044014Y-83580997D01*
X154900753Y-83624454D01*
X154811937Y-83671928D01*
X154538000Y-83671928D01*
X154374500Y-83688031D01*
X154217284Y-83735722D01*
X154072392Y-83813169D01*
X153945394Y-83917394D01*
X153841169Y-84044392D01*
X153763722Y-84189284D01*
X153716031Y-84346500D01*
X153699928Y-84510000D01*
X153699928Y-84910000D01*
X153716031Y-85073500D01*
X153763722Y-85230716D01*
X153841169Y-85375608D01*
X153945394Y-85502606D01*
X153984866Y-85535000D01*
X153945394Y-85567394D01*
X153841169Y-85694392D01*
X153763722Y-85839284D01*
X153716031Y-85996500D01*
X153699928Y-86160000D01*
X153699928Y-86560000D01*
X153716031Y-86723500D01*
X153763722Y-86880716D01*
X153794640Y-86938559D01*
X153287002Y-87446197D01*
X153286997Y-87446201D01*
X153228198Y-87505000D01*
X152778000Y-87505000D01*
X152778000Y-84079365D01*
X152810606Y-84052606D01*
X152914831Y-83925608D01*
X152992278Y-83780716D01*
X153039969Y-83623500D01*
X153056072Y-83460000D01*
X153056072Y-82910000D01*
X153039969Y-82746500D01*
X152992278Y-82589284D01*
X152914831Y-82444392D01*
X152810606Y-82317394D01*
X152683608Y-82213169D01*
X152538716Y-82135722D01*
X152381500Y-82088031D01*
X152218000Y-82071928D01*
X151818000Y-82071928D01*
X151654500Y-82088031D01*
X151497284Y-82135722D01*
X151352392Y-82213169D01*
X151225394Y-82317394D01*
X151193000Y-82356866D01*
X151160606Y-82317394D01*
X151033608Y-82213169D01*
X150888716Y-82135722D01*
X150731500Y-82088031D01*
X150568000Y-82071928D01*
X150168000Y-82071928D01*
X150004500Y-82088031D01*
X149847284Y-82135722D01*
X149702392Y-82213169D01*
X149575394Y-82317394D01*
X149487084Y-82425000D01*
X148178901Y-82425000D01*
X148156932Y-82383899D01*
X147977608Y-82165392D01*
X147824817Y-82040000D01*
X152870678Y-82040000D01*
X152908000Y-82043676D01*
X152945322Y-82040000D01*
X152945333Y-82040000D01*
X153056986Y-82029003D01*
X153200247Y-81985546D01*
X153332276Y-81914974D01*
X153448001Y-81820001D01*
X153471804Y-81790997D01*
X155842025Y-79420776D01*
X162913381Y-79420776D01*
X164083000Y-80590395D01*
X165252619Y-79420776D01*
X165120683Y-79125688D01*
X164779955Y-78954841D01*
X164412443Y-78853750D01*
X164032271Y-78826299D01*
X163654049Y-78873543D01*
X163292310Y-78993667D01*
X163045317Y-79125688D01*
X162913381Y-79420776D01*
X155842025Y-79420776D01*
X157032802Y-78230000D01*
X172555678Y-78230000D01*
X172593000Y-78233676D01*
X172630322Y-78230000D01*
X172630333Y-78230000D01*
X172741986Y-78219003D01*
X172885247Y-78175546D01*
X173017276Y-78104974D01*
X173133001Y-78010001D01*
X173156804Y-77980997D01*
X174004171Y-77133631D01*
X174204224Y-77194316D01*
X174498000Y-77223251D01*
X174791777Y-77194316D01*
X175074264Y-77108625D01*
X175334606Y-76969469D01*
X175562797Y-76782197D01*
X175750069Y-76554006D01*
X175889225Y-76293663D01*
X175974916Y-76011176D01*
X175996600Y-75791018D01*
X175996600Y-75338981D01*
X175974916Y-75118823D01*
X175889225Y-74836336D01*
X175750069Y-74575994D01*
X175562797Y-74347803D01*
X175334605Y-74160531D01*
X175074263Y-74021375D01*
X174791776Y-73935684D01*
X174498000Y-73906749D01*
X174204223Y-73935684D01*
X173921736Y-74021375D01*
X173661394Y-74160531D01*
X173433203Y-74347803D01*
X173245931Y-74575995D01*
X173228000Y-74609541D01*
X173210069Y-74575994D01*
X173022797Y-74347803D01*
X172794605Y-74160531D01*
X172534263Y-74021375D01*
X172251776Y-73935684D01*
X171958000Y-73906749D01*
X171664223Y-73935684D01*
X171381736Y-74021375D01*
X171121394Y-74160531D01*
X170893203Y-74347803D01*
X170705931Y-74575995D01*
X170688000Y-74609541D01*
X170670069Y-74575994D01*
X170482797Y-74347803D01*
X170254605Y-74160531D01*
X169994263Y-74021375D01*
X169711776Y-73935684D01*
X169418000Y-73906749D01*
X169124223Y-73935684D01*
X168841736Y-74021375D01*
X168581394Y-74160531D01*
X168353203Y-74347803D01*
X168165931Y-74575995D01*
X168148000Y-74609541D01*
X168130069Y-74575994D01*
X167942797Y-74347803D01*
X167714605Y-74160531D01*
X167454263Y-74021375D01*
X167171776Y-73935684D01*
X166878000Y-73906749D01*
X166584223Y-73935684D01*
X166301736Y-74021375D01*
X166041394Y-74160531D01*
X165813203Y-74347803D01*
X165625931Y-74575995D01*
X165608000Y-74609541D01*
X165590069Y-74575994D01*
X165402797Y-74347803D01*
X165174605Y-74160531D01*
X164914263Y-74021375D01*
X164631776Y-73935684D01*
X164338000Y-73906749D01*
X164044223Y-73935684D01*
X163761736Y-74021375D01*
X163501394Y-74160531D01*
X163273203Y-74347803D01*
X163085931Y-74575995D01*
X163068000Y-74609541D01*
X163050069Y-74575994D01*
X162862797Y-74347803D01*
X162634605Y-74160531D01*
X162374263Y-74021375D01*
X162091776Y-73935684D01*
X161798000Y-73906749D01*
X161504223Y-73935684D01*
X161221736Y-74021375D01*
X160961394Y-74160531D01*
X160733203Y-74347803D01*
X160545931Y-74575995D01*
X160528000Y-74609541D01*
X160510069Y-74575994D01*
X160322797Y-74347803D01*
X160094605Y-74160531D01*
X159834263Y-74021375D01*
X159551776Y-73935684D01*
X159258000Y-73906749D01*
X158964223Y-73935684D01*
X158681736Y-74021375D01*
X158421394Y-74160531D01*
X158193203Y-74347803D01*
X158005931Y-74575995D01*
X157988000Y-74609541D01*
X157970069Y-74575994D01*
X157782797Y-74347803D01*
X157554605Y-74160531D01*
X157294263Y-74021375D01*
X157011776Y-73935684D01*
X156718000Y-73906749D01*
X156424223Y-73935684D01*
X156141736Y-74021375D01*
X155881394Y-74160531D01*
X155653203Y-74347803D01*
X155465931Y-74575995D01*
X155326775Y-74836337D01*
X155241084Y-75118824D01*
X155219400Y-75338982D01*
X155219400Y-75791019D01*
X155241084Y-76011177D01*
X155326775Y-76293664D01*
X155465931Y-76554006D01*
X155653203Y-76782197D01*
X155881395Y-76969469D01*
X156052351Y-77060847D01*
X152593199Y-80520000D01*
X138232802Y-80520000D01*
X139064302Y-79688500D01*
X145439178Y-79688500D01*
X145476500Y-79692176D01*
X145513822Y-79688500D01*
X145513833Y-79688500D01*
X145625486Y-79677503D01*
X145768747Y-79634046D01*
X145900776Y-79563474D01*
X146016501Y-79468501D01*
X146040304Y-79439497D01*
X148085003Y-77394799D01*
X148114001Y-77371001D01*
X148140332Y-77338917D01*
X148208974Y-77255277D01*
X148279546Y-77123247D01*
X148283981Y-77108625D01*
X148309858Y-77023320D01*
X148410606Y-76969469D01*
X148638797Y-76782197D01*
X148826069Y-76554006D01*
X148844000Y-76520459D01*
X148861931Y-76554006D01*
X149049203Y-76782197D01*
X149277395Y-76969469D01*
X149537737Y-77108625D01*
X149820224Y-77194316D01*
X150114000Y-77223251D01*
X150407777Y-77194316D01*
X150690264Y-77108625D01*
X150950606Y-76969469D01*
X151178797Y-76782197D01*
X151366069Y-76554006D01*
X151384000Y-76520459D01*
X151401931Y-76554006D01*
X151589203Y-76782197D01*
X151817395Y-76969469D01*
X152077737Y-77108625D01*
X152360224Y-77194316D01*
X152654000Y-77223251D01*
X152947777Y-77194316D01*
X153230264Y-77108625D01*
X153490606Y-76969469D01*
X153718797Y-76782197D01*
X153906069Y-76554006D01*
X154045225Y-76293663D01*
X154130916Y-76011176D01*
X154152600Y-75791018D01*
X154152600Y-75338981D01*
X154130916Y-75118823D01*
X154045225Y-74836336D01*
X153906069Y-74575994D01*
X153718797Y-74347803D01*
X153490605Y-74160531D01*
X153230263Y-74021375D01*
X152947776Y-73935684D01*
X152654000Y-73906749D01*
X152360223Y-73935684D01*
X152077736Y-74021375D01*
X151817394Y-74160531D01*
X151589203Y-74347803D01*
X151401931Y-74575995D01*
X151384000Y-74609541D01*
X151366069Y-74575994D01*
X151178797Y-74347803D01*
X150950605Y-74160531D01*
X150690263Y-74021375D01*
X150407776Y-73935684D01*
X150114000Y-73906749D01*
X149820223Y-73935684D01*
X149537736Y-74021375D01*
X149277394Y-74160531D01*
X149049203Y-74347803D01*
X148861931Y-74575995D01*
X148844000Y-74609541D01*
X148826069Y-74575994D01*
X148638797Y-74347803D01*
X148410605Y-74160531D01*
X148150263Y-74021375D01*
X147867776Y-73935684D01*
X147574000Y-73906749D01*
X147280223Y-73935684D01*
X146997736Y-74021375D01*
X146737394Y-74160531D01*
X146509203Y-74347803D01*
X146321931Y-74575995D01*
X146304000Y-74609541D01*
X146286069Y-74575994D01*
X146098797Y-74347803D01*
X145870605Y-74160531D01*
X145610263Y-74021375D01*
X145327776Y-73935684D01*
X145034000Y-73906749D01*
X144740223Y-73935684D01*
X144457736Y-74021375D01*
X144197394Y-74160531D01*
X143969203Y-74347803D01*
X143781931Y-74575995D01*
X143764000Y-74609541D01*
X143746069Y-74575994D01*
X143558797Y-74347803D01*
X143330605Y-74160531D01*
X143070263Y-74021375D01*
X142787776Y-73935684D01*
X142494000Y-73906749D01*
X142200223Y-73935684D01*
X141917736Y-74021375D01*
X141657394Y-74160531D01*
X141429203Y-74347803D01*
X141241931Y-74575995D01*
X141224000Y-74609541D01*
X141206069Y-74575994D01*
X141018797Y-74347803D01*
X140790605Y-74160531D01*
X140530263Y-74021375D01*
X140247776Y-73935684D01*
X139954000Y-73906749D01*
X139660223Y-73935684D01*
X139377736Y-74021375D01*
X139117394Y-74160531D01*
X138889203Y-74347803D01*
X138701931Y-74575995D01*
X138680576Y-74615947D01*
X138532486Y-74413271D01*
X138316035Y-74214267D01*
X138064919Y-74061314D01*
X137788789Y-73960291D01*
X137773026Y-73957642D01*
X137541000Y-74078783D01*
X137541000Y-75438000D01*
X137561000Y-75438000D01*
X137561000Y-75692000D01*
X137541000Y-75692000D01*
X137541000Y-77051217D01*
X137773026Y-77172358D01*
X137788789Y-77169709D01*
X138064919Y-77068686D01*
X138316035Y-76915733D01*
X138532486Y-76716729D01*
X138680576Y-76514053D01*
X138701931Y-76554006D01*
X138889203Y-76782197D01*
X139117395Y-76969469D01*
X139377737Y-77108625D01*
X139660224Y-77194316D01*
X139954000Y-77223251D01*
X140247777Y-77194316D01*
X140530264Y-77108625D01*
X140790606Y-76969469D01*
X141018797Y-76782197D01*
X141206069Y-76554006D01*
X141224000Y-76520459D01*
X141241931Y-76554006D01*
X141429203Y-76782197D01*
X141657395Y-76969469D01*
X141917737Y-77108625D01*
X142200224Y-77194316D01*
X142318257Y-77205941D01*
X142179199Y-77345000D01*
X138973911Y-77345000D01*
X138936588Y-77341324D01*
X138899265Y-77345000D01*
X138899256Y-77345000D01*
X138787603Y-77355997D01*
X138644342Y-77399454D01*
X138512313Y-77470026D01*
X138396588Y-77564999D01*
X138372790Y-77593997D01*
X131626991Y-84339797D01*
X131597988Y-84363599D01*
X131567732Y-84400466D01*
X128996997Y-86971202D01*
X128967999Y-86995000D01*
X128944201Y-87023998D01*
X128944200Y-87023999D01*
X128873025Y-87110725D01*
X128802453Y-87242755D01*
X128774691Y-87334278D01*
X128758997Y-87386015D01*
X128755721Y-87419276D01*
X128744323Y-87535001D01*
X128748000Y-87572333D01*
X128747999Y-95798247D01*
X128576158Y-95727068D01*
X128289260Y-95670000D01*
X127996740Y-95670000D01*
X127709842Y-95727068D01*
X127439589Y-95839010D01*
X127196368Y-96001525D01*
X126989525Y-96208368D01*
X126827010Y-96451589D01*
X126715068Y-96721842D01*
X126658000Y-97008740D01*
X125043000Y-97008740D01*
X125043000Y-75338982D01*
X128295400Y-75338982D01*
X128295400Y-75791019D01*
X128317084Y-76011177D01*
X128402775Y-76293664D01*
X128541931Y-76554006D01*
X128729203Y-76782197D01*
X128957395Y-76969469D01*
X129217737Y-77108625D01*
X129500224Y-77194316D01*
X129794000Y-77223251D01*
X130087777Y-77194316D01*
X130370264Y-77108625D01*
X130630606Y-76969469D01*
X130858797Y-76782197D01*
X131046069Y-76554006D01*
X131064000Y-76520459D01*
X131081931Y-76554006D01*
X131269203Y-76782197D01*
X131497395Y-76969469D01*
X131757737Y-77108625D01*
X132040224Y-77194316D01*
X132334000Y-77223251D01*
X132627777Y-77194316D01*
X132910264Y-77108625D01*
X133170606Y-76969469D01*
X133398797Y-76782197D01*
X133586069Y-76554006D01*
X133604000Y-76520459D01*
X133621931Y-76554006D01*
X133809203Y-76782197D01*
X134037395Y-76969469D01*
X134297737Y-77108625D01*
X134580224Y-77194316D01*
X134874000Y-77223251D01*
X135167777Y-77194316D01*
X135450264Y-77108625D01*
X135710606Y-76969469D01*
X135938797Y-76782197D01*
X136126069Y-76554006D01*
X136147424Y-76514053D01*
X136295514Y-76716729D01*
X136511965Y-76915733D01*
X136763081Y-77068686D01*
X137039211Y-77169709D01*
X137054974Y-77172358D01*
X137287000Y-77051217D01*
X137287000Y-75692000D01*
X137267000Y-75692000D01*
X137267000Y-75438000D01*
X137287000Y-75438000D01*
X137287000Y-74078783D01*
X137054974Y-73957642D01*
X137039211Y-73960291D01*
X136763081Y-74061314D01*
X136511965Y-74214267D01*
X136295514Y-74413271D01*
X136147424Y-74615947D01*
X136126069Y-74575994D01*
X135938797Y-74347803D01*
X135710605Y-74160531D01*
X135450263Y-74021375D01*
X135167776Y-73935684D01*
X134874000Y-73906749D01*
X134580223Y-73935684D01*
X134297736Y-74021375D01*
X134037394Y-74160531D01*
X133809203Y-74347803D01*
X133621931Y-74575995D01*
X133604000Y-74609541D01*
X133586069Y-74575994D01*
X133398797Y-74347803D01*
X133170605Y-74160531D01*
X132910263Y-74021375D01*
X132627776Y-73935684D01*
X132334000Y-73906749D01*
X132040223Y-73935684D01*
X131757736Y-74021375D01*
X131497394Y-74160531D01*
X131269203Y-74347803D01*
X131081931Y-74575995D01*
X131064000Y-74609541D01*
X131046069Y-74575994D01*
X130858797Y-74347803D01*
X130630605Y-74160531D01*
X130370263Y-74021375D01*
X130087776Y-73935684D01*
X129794000Y-73906749D01*
X129500223Y-73935684D01*
X129217736Y-74021375D01*
X128957394Y-74160531D01*
X128729203Y-74347803D01*
X128541931Y-74575995D01*
X128402775Y-74836337D01*
X128317084Y-75118824D01*
X128295400Y-75338982D01*
X125043000Y-75338982D01*
X125043000Y-73735000D01*
X176328001Y-73735000D01*
X176328000Y-86013876D01*
G04 #@! TA.AperFunction,Conductor*
D22*
G36*
X176328000Y-86013876D02*
G01*
X176328001Y-86013886D01*
X176328000Y-123859876D01*
X176328001Y-123859886D01*
X176328000Y-125655000D01*
X136692091Y-125655000D01*
X128226130Y-117189039D01*
X137146096Y-117189039D01*
X137163633Y-117271818D01*
X137274285Y-117531646D01*
X137433500Y-117764895D01*
X137635161Y-117962601D01*
X137871517Y-118117166D01*
X138133486Y-118222650D01*
X138411000Y-118275000D01*
X138811000Y-118275000D01*
X138811000Y-116967000D01*
X139065000Y-116967000D01*
X139065000Y-118275000D01*
X139465000Y-118275000D01*
X139742514Y-118222650D01*
X140004483Y-118117166D01*
X140240839Y-117962601D01*
X140442500Y-117764895D01*
X140601715Y-117531646D01*
X140712367Y-117271818D01*
X140729904Y-117189039D01*
X140607915Y-116967000D01*
X139065000Y-116967000D01*
X138811000Y-116967000D01*
X137268085Y-116967000D01*
X137146096Y-117189039D01*
X128226130Y-117189039D01*
X125043000Y-114005909D01*
X125043000Y-108870961D01*
X137146096Y-108870961D01*
X137268085Y-109093000D01*
X138811000Y-109093000D01*
X138811000Y-107785000D01*
X139065000Y-107785000D01*
X139065000Y-109093000D01*
X140607915Y-109093000D01*
X140729904Y-108870961D01*
X140712367Y-108788182D01*
X140601715Y-108528354D01*
X140442500Y-108295105D01*
X140240839Y-108097399D01*
X140004483Y-107942834D01*
X139742514Y-107837350D01*
X139465000Y-107785000D01*
X139065000Y-107785000D01*
X138811000Y-107785000D01*
X138411000Y-107785000D01*
X138133486Y-107837350D01*
X137871517Y-107942834D01*
X137635161Y-108097399D01*
X137433500Y-108295105D01*
X137274285Y-108528354D01*
X137163633Y-108788182D01*
X137146096Y-108870961D01*
X125043000Y-108870961D01*
X125043000Y-103805000D01*
X138594928Y-103805000D01*
X138607188Y-103929482D01*
X138643498Y-104049180D01*
X138702463Y-104159494D01*
X138781815Y-104256185D01*
X138878506Y-104335537D01*
X138988820Y-104394502D01*
X139108518Y-104430812D01*
X139233000Y-104443072D01*
X139922250Y-104440000D01*
X140081000Y-104281250D01*
X140081000Y-103632000D01*
X140335000Y-103632000D01*
X140335000Y-104281250D01*
X140493750Y-104440000D01*
X141183000Y-104443072D01*
X141307482Y-104430812D01*
X141427180Y-104394502D01*
X141537494Y-104335537D01*
X141634185Y-104256185D01*
X141713537Y-104159494D01*
X141772502Y-104049180D01*
X141808812Y-103929482D01*
X141821072Y-103805000D01*
X141818000Y-103790750D01*
X141659250Y-103632000D01*
X140335000Y-103632000D01*
X140081000Y-103632000D01*
X138756750Y-103632000D01*
X138598000Y-103790750D01*
X138594928Y-103805000D01*
X125043000Y-103805000D01*
X125043000Y-102591890D01*
X126701524Y-102591890D01*
X126746175Y-102739099D01*
X126871359Y-103001920D01*
X127045412Y-103235269D01*
X127261645Y-103430178D01*
X127511748Y-103579157D01*
X127786109Y-103676481D01*
X128016000Y-103555814D01*
X128016000Y-102362000D01*
X126822845Y-102362000D01*
X126701524Y-102591890D01*
X125043000Y-102591890D01*
X125043000Y-97008740D01*
X126658000Y-97008740D01*
X126658000Y-97301260D01*
X126715068Y-97588158D01*
X126827010Y-97858411D01*
X126989525Y-98101632D01*
X127196368Y-98308475D01*
X127370760Y-98425000D01*
X127196368Y-98541525D01*
X126989525Y-98748368D01*
X126827010Y-98991589D01*
X126715068Y-99261842D01*
X126658000Y-99548740D01*
X126658000Y-99841260D01*
X126715068Y-100128158D01*
X126827010Y-100398411D01*
X126989525Y-100641632D01*
X127196368Y-100848475D01*
X127378534Y-100970195D01*
X127261645Y-101039822D01*
X127045412Y-101234731D01*
X126871359Y-101468080D01*
X126746175Y-101730901D01*
X126701524Y-101878110D01*
X126822845Y-102108000D01*
X128016000Y-102108000D01*
X128016000Y-102088000D01*
X128270000Y-102088000D01*
X128270000Y-102108000D01*
X128290000Y-102108000D01*
X128290000Y-102362000D01*
X128270000Y-102362000D01*
X128270000Y-103555814D01*
X128499891Y-103676481D01*
X128774252Y-103579157D01*
X129024355Y-103430178D01*
X129240588Y-103235269D01*
X129411900Y-103005594D01*
X129529525Y-103181632D01*
X129736368Y-103388475D01*
X129979589Y-103550990D01*
X130249842Y-103662932D01*
X130536740Y-103720000D01*
X130829260Y-103720000D01*
X131116158Y-103662932D01*
X131386411Y-103550990D01*
X131629632Y-103388475D01*
X131836475Y-103181632D01*
X131959125Y-102998073D01*
X131990322Y-102995000D01*
X131990333Y-102995000D01*
X132101986Y-102984003D01*
X132245247Y-102940546D01*
X132377276Y-102869974D01*
X132493001Y-102775001D01*
X132516803Y-102745998D01*
X132727801Y-102535000D01*
X138594928Y-102535000D01*
X138607188Y-102659482D01*
X138643498Y-102779180D01*
X138692043Y-102870000D01*
X138643498Y-102960820D01*
X138607188Y-103080518D01*
X138594928Y-103205000D01*
X138598000Y-103219250D01*
X138756750Y-103378000D01*
X140081000Y-103378000D01*
X140081000Y-102362000D01*
X140335000Y-102362000D01*
X140335000Y-103378000D01*
X141659250Y-103378000D01*
X141818000Y-103219250D01*
X141821072Y-103205000D01*
X141808812Y-103080518D01*
X141772502Y-102960820D01*
X141723957Y-102870000D01*
X141772502Y-102779180D01*
X141808812Y-102659482D01*
X141821072Y-102535000D01*
X141818000Y-102520750D01*
X141659250Y-102362000D01*
X140335000Y-102362000D01*
X140081000Y-102362000D01*
X138756750Y-102362000D01*
X138598000Y-102520750D01*
X138594928Y-102535000D01*
X132727801Y-102535000D01*
X133099002Y-102163800D01*
X133128001Y-102140001D01*
X133222974Y-102024276D01*
X133293546Y-101892247D01*
X133337003Y-101748986D01*
X133348000Y-101637333D01*
X133351677Y-101600000D01*
X133348000Y-101562667D01*
X133348000Y-100259801D01*
X134564200Y-101476002D01*
X134587999Y-101505001D01*
X134703724Y-101599974D01*
X134835753Y-101670546D01*
X134979014Y-101714003D01*
X135090667Y-101725000D01*
X135090676Y-101725000D01*
X135127999Y-101728676D01*
X135165322Y-101725000D01*
X138633130Y-101725000D01*
X138607188Y-101810518D01*
X138594928Y-101935000D01*
X138598000Y-101949250D01*
X138756750Y-102108000D01*
X140081000Y-102108000D01*
X140081000Y-102088000D01*
X140335000Y-102088000D01*
X140335000Y-102108000D01*
X141659250Y-102108000D01*
X141818000Y-101949250D01*
X141821072Y-101935000D01*
X141808812Y-101810518D01*
X141772502Y-101690820D01*
X141713537Y-101580506D01*
X141689270Y-101550936D01*
X141761084Y-101416582D01*
X141805929Y-101268745D01*
X141821072Y-101115000D01*
X141821072Y-100815000D01*
X141805929Y-100661255D01*
X141761084Y-100513418D01*
X141729859Y-100455000D01*
X142075678Y-100455000D01*
X142113000Y-100458676D01*
X142150322Y-100455000D01*
X142150333Y-100455000D01*
X142261986Y-100444003D01*
X142405247Y-100400546D01*
X142537276Y-100329974D01*
X142653001Y-100235001D01*
X142676803Y-100205998D01*
X143176173Y-99706629D01*
X143223016Y-99794266D01*
X143261583Y-99841260D01*
X143317989Y-99909991D01*
X143346993Y-99933794D01*
X143619196Y-100205997D01*
X143642999Y-100235001D01*
X143659350Y-100248420D01*
X143677742Y-100282829D01*
X143716454Y-100330000D01*
X143677742Y-100377171D01*
X143659350Y-100411580D01*
X143642999Y-100424999D01*
X143619196Y-100454003D01*
X143346988Y-100726211D01*
X143317990Y-100750009D01*
X143294192Y-100779007D01*
X143294191Y-100779008D01*
X143223016Y-100865734D01*
X143152444Y-100997764D01*
X143108988Y-101141025D01*
X143094314Y-101290010D01*
X143097991Y-101327342D01*
X143097990Y-102544435D01*
X143094314Y-102581758D01*
X143097990Y-102619080D01*
X143097990Y-102619090D01*
X143108987Y-102730743D01*
X143136921Y-102822829D01*
X143152444Y-102874004D01*
X143223016Y-103006034D01*
X143262861Y-103054584D01*
X143317989Y-103121759D01*
X143346993Y-103145562D01*
X143545959Y-103344528D01*
X143544928Y-103355000D01*
X143544928Y-103655000D01*
X143560071Y-103808745D01*
X143604916Y-103956582D01*
X143677742Y-104092829D01*
X143775749Y-104212251D01*
X143895171Y-104310258D01*
X144031418Y-104383084D01*
X144179255Y-104427929D01*
X144333000Y-104443072D01*
X145983000Y-104443072D01*
X146136745Y-104427929D01*
X146284582Y-104383084D01*
X146420829Y-104310258D01*
X146540251Y-104212251D01*
X146638258Y-104092829D01*
X146711084Y-103956582D01*
X146755929Y-103808745D01*
X146771072Y-103655000D01*
X146771072Y-103355000D01*
X146770041Y-103344528D01*
X152199570Y-97915000D01*
X161673001Y-97915000D01*
X161673000Y-104102677D01*
X161669324Y-104140000D01*
X161673000Y-104177322D01*
X161673000Y-104177332D01*
X161683997Y-104288985D01*
X161727019Y-104430812D01*
X161727454Y-104432246D01*
X161798026Y-104564276D01*
X161837871Y-104612826D01*
X161892999Y-104680001D01*
X161922003Y-104703804D01*
X162669886Y-105451688D01*
X162560641Y-105496939D01*
X162341987Y-105643038D01*
X162156038Y-105828987D01*
X162009939Y-106047641D01*
X161909304Y-106290595D01*
X161858000Y-106548514D01*
X161858000Y-106811486D01*
X161909304Y-107069405D01*
X162009939Y-107312359D01*
X162156038Y-107531013D01*
X162341987Y-107716962D01*
X162453229Y-107791291D01*
X162451336Y-107798731D01*
X163193000Y-108540395D01*
X163207143Y-108526253D01*
X163386748Y-108705858D01*
X163372605Y-108720000D01*
X163386748Y-108734143D01*
X163207143Y-108913748D01*
X163193000Y-108899605D01*
X162451336Y-109641269D01*
X162453229Y-109648709D01*
X162341987Y-109723038D01*
X162156038Y-109908987D01*
X162009939Y-110127641D01*
X161909304Y-110370595D01*
X161890999Y-110462618D01*
X161810247Y-110419454D01*
X161666986Y-110375997D01*
X161555333Y-110365000D01*
X161555322Y-110365000D01*
X161518000Y-110361324D01*
X161480678Y-110365000D01*
X155573000Y-110365000D01*
X155573000Y-108794473D01*
X161853610Y-108794473D01*
X161893875Y-109054344D01*
X161984065Y-109301366D01*
X162037963Y-109402203D01*
X162271731Y-109461664D01*
X163013395Y-108720000D01*
X162271731Y-107978336D01*
X162037963Y-108037797D01*
X161927066Y-108276242D01*
X161864817Y-108531740D01*
X161853610Y-108794473D01*
X155573000Y-108794473D01*
X155573000Y-108195916D01*
X155680606Y-108107606D01*
X155784831Y-107980608D01*
X155862278Y-107835716D01*
X155909969Y-107678500D01*
X155926072Y-107515000D01*
X155926072Y-107115000D01*
X155909969Y-106951500D01*
X155862278Y-106794284D01*
X155784831Y-106649392D01*
X155680606Y-106522394D01*
X155641134Y-106490000D01*
X155680606Y-106457606D01*
X155784831Y-106330608D01*
X155862278Y-106185716D01*
X155909969Y-106028500D01*
X155926072Y-105865000D01*
X155926072Y-105626730D01*
X156132802Y-105420000D01*
X157275225Y-105420000D01*
X157336038Y-105511013D01*
X157521987Y-105696962D01*
X157740641Y-105843061D01*
X157983595Y-105943696D01*
X158241514Y-105995000D01*
X158504486Y-105995000D01*
X158762405Y-105943696D01*
X159005359Y-105843061D01*
X159224013Y-105696962D01*
X159409962Y-105511013D01*
X159556061Y-105292359D01*
X159656696Y-105049405D01*
X159708000Y-104791486D01*
X159708000Y-104528514D01*
X159656696Y-104270595D01*
X159556061Y-104027641D01*
X159409962Y-103808987D01*
X159224013Y-103623038D01*
X159062322Y-103515000D01*
X159224013Y-103406962D01*
X159409962Y-103221013D01*
X159556061Y-103002359D01*
X159656696Y-102759405D01*
X159708000Y-102501486D01*
X159708000Y-102238514D01*
X159656696Y-101980595D01*
X159556061Y-101737641D01*
X159409962Y-101518987D01*
X159224013Y-101333038D01*
X159005359Y-101186939D01*
X158762405Y-101086304D01*
X158504486Y-101035000D01*
X158241514Y-101035000D01*
X157983595Y-101086304D01*
X157740641Y-101186939D01*
X157521987Y-101333038D01*
X157336038Y-101518987D01*
X157275225Y-101610000D01*
X156702848Y-101610000D01*
X156665525Y-101606324D01*
X156628202Y-101610000D01*
X156628192Y-101610000D01*
X156516539Y-101620997D01*
X156373278Y-101664454D01*
X156241249Y-101735026D01*
X156125524Y-101829999D01*
X156101726Y-101858997D01*
X151131226Y-106829498D01*
X146234820Y-106829498D01*
X146197497Y-106825822D01*
X146160175Y-106829498D01*
X146160165Y-106829498D01*
X146048512Y-106840495D01*
X145905251Y-106883952D01*
X145773221Y-106954524D01*
X145690085Y-107022753D01*
X145657497Y-107049497D01*
X145633699Y-107078495D01*
X144521993Y-108190202D01*
X144492989Y-108214005D01*
X144464952Y-108248169D01*
X144398016Y-108329730D01*
X144385485Y-108353174D01*
X144327444Y-108461760D01*
X144283987Y-108605021D01*
X144272990Y-108716674D01*
X144272990Y-108716684D01*
X144269314Y-108754006D01*
X144272990Y-108791329D01*
X144272991Y-110197658D01*
X144269314Y-110234990D01*
X144283988Y-110383975D01*
X144327444Y-110527236D01*
X144398016Y-110659266D01*
X144454153Y-110727668D01*
X144492990Y-110774991D01*
X144521988Y-110798789D01*
X144862592Y-111139393D01*
X144825818Y-111208192D01*
X144743764Y-111478691D01*
X144716057Y-111760000D01*
X144743764Y-112041309D01*
X144825818Y-112311808D01*
X144959068Y-112561101D01*
X145138392Y-112779608D01*
X145356899Y-112958932D01*
X145489858Y-113030000D01*
X145356899Y-113101068D01*
X145138392Y-113280392D01*
X144959068Y-113498899D01*
X144825818Y-113748192D01*
X144778000Y-113905829D01*
X144778000Y-113067322D01*
X144781676Y-113029999D01*
X144778000Y-112992676D01*
X144778000Y-112992667D01*
X144767003Y-112881014D01*
X144723546Y-112737753D01*
X144652974Y-112605724D01*
X144558001Y-112489999D01*
X144529004Y-112466202D01*
X143311804Y-111249003D01*
X143288001Y-111219999D01*
X143172276Y-111125026D01*
X143040247Y-111054454D01*
X142896986Y-111010997D01*
X142785333Y-111000000D01*
X142785322Y-111000000D01*
X142748000Y-110996324D01*
X142710678Y-111000000D01*
X140558901Y-111000000D01*
X140536932Y-110958899D01*
X140357608Y-110740392D01*
X140139101Y-110561068D01*
X140011259Y-110492735D01*
X140240839Y-110342601D01*
X140442500Y-110144895D01*
X140601715Y-109911646D01*
X140712367Y-109651818D01*
X140729904Y-109569039D01*
X140607915Y-109347000D01*
X139065000Y-109347000D01*
X139065000Y-109367000D01*
X138811000Y-109367000D01*
X138811000Y-109347000D01*
X137268085Y-109347000D01*
X137146096Y-109569039D01*
X137163633Y-109651818D01*
X137274285Y-109911646D01*
X137433500Y-110144895D01*
X137635161Y-110342601D01*
X137864741Y-110492735D01*
X137736899Y-110561068D01*
X137518392Y-110740392D01*
X137339068Y-110958899D01*
X137205818Y-111208192D01*
X137123764Y-111478691D01*
X137096057Y-111760000D01*
X137123764Y-112041309D01*
X137205818Y-112311808D01*
X137339068Y-112561101D01*
X137518392Y-112779608D01*
X137736899Y-112958932D01*
X137869858Y-113030000D01*
X137736899Y-113101068D01*
X137518392Y-113280392D01*
X137339068Y-113498899D01*
X137205818Y-113748192D01*
X137123764Y-114018691D01*
X137096057Y-114300000D01*
X137123764Y-114581309D01*
X137205818Y-114851808D01*
X137339068Y-115101101D01*
X137518392Y-115319608D01*
X137736899Y-115498932D01*
X137864741Y-115567265D01*
X137635161Y-115717399D01*
X137433500Y-115915105D01*
X137274285Y-116148354D01*
X137163633Y-116408182D01*
X137146096Y-116490961D01*
X137268085Y-116713000D01*
X138811000Y-116713000D01*
X138811000Y-116693000D01*
X139065000Y-116693000D01*
X139065000Y-116713000D01*
X140607915Y-116713000D01*
X140729904Y-116490961D01*
X140712367Y-116408182D01*
X140601715Y-116148354D01*
X140442500Y-115915105D01*
X140240839Y-115717399D01*
X140011259Y-115567265D01*
X140139101Y-115498932D01*
X140357608Y-115319608D01*
X140536932Y-115101101D01*
X140670182Y-114851808D01*
X140752236Y-114581309D01*
X140779943Y-114300000D01*
X140752236Y-114018691D01*
X140670182Y-113748192D01*
X140536932Y-113498899D01*
X140357608Y-113280392D01*
X140139101Y-113101068D01*
X140006142Y-113030000D01*
X140139101Y-112958932D01*
X140357608Y-112779608D01*
X140536932Y-112561101D01*
X140558901Y-112520000D01*
X142433199Y-112520000D01*
X143258000Y-113344802D01*
X143258001Y-122379584D01*
X143181394Y-122420531D01*
X142953203Y-122607803D01*
X142765931Y-122835995D01*
X142748000Y-122869541D01*
X142730069Y-122835994D01*
X142542797Y-122607803D01*
X142314605Y-122420531D01*
X142054263Y-122281375D01*
X141771776Y-122195684D01*
X141478000Y-122166749D01*
X141184223Y-122195684D01*
X140901736Y-122281375D01*
X140641394Y-122420531D01*
X140413203Y-122607803D01*
X140225931Y-122835995D01*
X140208000Y-122869541D01*
X140190069Y-122835994D01*
X140002797Y-122607803D01*
X139774605Y-122420531D01*
X139514263Y-122281375D01*
X139231776Y-122195684D01*
X138938000Y-122166749D01*
X138644223Y-122195684D01*
X138361736Y-122281375D01*
X138101394Y-122420531D01*
X137873203Y-122607803D01*
X137685931Y-122835995D01*
X137546775Y-123096337D01*
X137461084Y-123378824D01*
X137439400Y-123598982D01*
X137439400Y-124051019D01*
X137461084Y-124271177D01*
X137546775Y-124553664D01*
X137685931Y-124814006D01*
X137873203Y-125042197D01*
X138101395Y-125229469D01*
X138361737Y-125368625D01*
X138644224Y-125454316D01*
X138938000Y-125483251D01*
X139231777Y-125454316D01*
X139514264Y-125368625D01*
X139774606Y-125229469D01*
X140002797Y-125042197D01*
X140190069Y-124814006D01*
X140208000Y-124780459D01*
X140225931Y-124814006D01*
X140413203Y-125042197D01*
X140641395Y-125229469D01*
X140901737Y-125368625D01*
X141184224Y-125454316D01*
X141478000Y-125483251D01*
X141771777Y-125454316D01*
X142054264Y-125368625D01*
X142314606Y-125229469D01*
X142542797Y-125042197D01*
X142730069Y-124814006D01*
X142748000Y-124780459D01*
X142765931Y-124814006D01*
X142953203Y-125042197D01*
X143181395Y-125229469D01*
X143441737Y-125368625D01*
X143724224Y-125454316D01*
X144018000Y-125483251D01*
X144311777Y-125454316D01*
X144594264Y-125368625D01*
X144854606Y-125229469D01*
X145082797Y-125042197D01*
X145270069Y-124814006D01*
X145288000Y-124780459D01*
X145305931Y-124814006D01*
X145493203Y-125042197D01*
X145721395Y-125229469D01*
X145981737Y-125368625D01*
X146264224Y-125454316D01*
X146558000Y-125483251D01*
X146851777Y-125454316D01*
X147134264Y-125368625D01*
X147394606Y-125229469D01*
X147622797Y-125042197D01*
X147810069Y-124814006D01*
X147828000Y-124780459D01*
X147845931Y-124814006D01*
X148033203Y-125042197D01*
X148261395Y-125229469D01*
X148521737Y-125368625D01*
X148804224Y-125454316D01*
X149098000Y-125483251D01*
X149391777Y-125454316D01*
X149674264Y-125368625D01*
X149934606Y-125229469D01*
X150162797Y-125042197D01*
X150350069Y-124814006D01*
X150371424Y-124774053D01*
X150519514Y-124976729D01*
X150735965Y-125175733D01*
X150987081Y-125328686D01*
X151263211Y-125429709D01*
X151278974Y-125432358D01*
X151511000Y-125311217D01*
X151511000Y-123952000D01*
X151765000Y-123952000D01*
X151765000Y-125311217D01*
X151997026Y-125432358D01*
X152012789Y-125429709D01*
X152288919Y-125328686D01*
X152540035Y-125175733D01*
X152756486Y-124976729D01*
X152908000Y-124769367D01*
X153059514Y-124976729D01*
X153275965Y-125175733D01*
X153527081Y-125328686D01*
X153803211Y-125429709D01*
X153818974Y-125432358D01*
X154051000Y-125311217D01*
X154051000Y-123952000D01*
X151765000Y-123952000D01*
X151511000Y-123952000D01*
X151491000Y-123952000D01*
X151491000Y-123698000D01*
X151511000Y-123698000D01*
X151511000Y-122338783D01*
X151765000Y-122338783D01*
X151765000Y-123698000D01*
X154051000Y-123698000D01*
X154051000Y-122338783D01*
X154305000Y-122338783D01*
X154305000Y-123698000D01*
X154325000Y-123698000D01*
X154325000Y-123952000D01*
X154305000Y-123952000D01*
X154305000Y-125311217D01*
X154537026Y-125432358D01*
X154552789Y-125429709D01*
X154828919Y-125328686D01*
X155080035Y-125175733D01*
X155296486Y-124976729D01*
X155444576Y-124774053D01*
X155465931Y-124814006D01*
X155653203Y-125042197D01*
X155881395Y-125229469D01*
X156141737Y-125368625D01*
X156424224Y-125454316D01*
X156718000Y-125483251D01*
X157011777Y-125454316D01*
X157294264Y-125368625D01*
X157554606Y-125229469D01*
X157782797Y-125042197D01*
X157970069Y-124814006D01*
X158109225Y-124553663D01*
X158194916Y-124271176D01*
X158216600Y-124051018D01*
X158216600Y-123598982D01*
X160299400Y-123598982D01*
X160299400Y-124051019D01*
X160321084Y-124271177D01*
X160406775Y-124553664D01*
X160545931Y-124814006D01*
X160733203Y-125042197D01*
X160961395Y-125229469D01*
X161221737Y-125368625D01*
X161504224Y-125454316D01*
X161798000Y-125483251D01*
X162091777Y-125454316D01*
X162374264Y-125368625D01*
X162634606Y-125229469D01*
X162862797Y-125042197D01*
X163050069Y-124814006D01*
X163068000Y-124780459D01*
X163085931Y-124814006D01*
X163273203Y-125042197D01*
X163501395Y-125229469D01*
X163761737Y-125368625D01*
X164044224Y-125454316D01*
X164338000Y-125483251D01*
X164631777Y-125454316D01*
X164914264Y-125368625D01*
X165174606Y-125229469D01*
X165402797Y-125042197D01*
X165590069Y-124814006D01*
X165608000Y-124780459D01*
X165625931Y-124814006D01*
X165813203Y-125042197D01*
X166041395Y-125229469D01*
X166301737Y-125368625D01*
X166584224Y-125454316D01*
X166878000Y-125483251D01*
X167171777Y-125454316D01*
X167454264Y-125368625D01*
X167714606Y-125229469D01*
X167942797Y-125042197D01*
X168130069Y-124814006D01*
X168148000Y-124780459D01*
X168165931Y-124814006D01*
X168353203Y-125042197D01*
X168581395Y-125229469D01*
X168841737Y-125368625D01*
X169124224Y-125454316D01*
X169418000Y-125483251D01*
X169711777Y-125454316D01*
X169994264Y-125368625D01*
X170254606Y-125229469D01*
X170482797Y-125042197D01*
X170670069Y-124814006D01*
X170688000Y-124780459D01*
X170705931Y-124814006D01*
X170893203Y-125042197D01*
X171121395Y-125229469D01*
X171381737Y-125368625D01*
X171664224Y-125454316D01*
X171958000Y-125483251D01*
X172251777Y-125454316D01*
X172534264Y-125368625D01*
X172794606Y-125229469D01*
X173022797Y-125042197D01*
X173210069Y-124814006D01*
X173228000Y-124780459D01*
X173245931Y-124814006D01*
X173433203Y-125042197D01*
X173661395Y-125229469D01*
X173921737Y-125368625D01*
X174204224Y-125454316D01*
X174498000Y-125483251D01*
X174791777Y-125454316D01*
X175074264Y-125368625D01*
X175334606Y-125229469D01*
X175562797Y-125042197D01*
X175750069Y-124814006D01*
X175889225Y-124553663D01*
X175974916Y-124271176D01*
X175996600Y-124051018D01*
X175996600Y-123598981D01*
X175974916Y-123378823D01*
X175889225Y-123096336D01*
X175750069Y-122835994D01*
X175562797Y-122607803D01*
X175334605Y-122420531D01*
X175074263Y-122281375D01*
X174791776Y-122195684D01*
X174498000Y-122166749D01*
X174204223Y-122195684D01*
X173921736Y-122281375D01*
X173661394Y-122420531D01*
X173433203Y-122607803D01*
X173245931Y-122835995D01*
X173228000Y-122869541D01*
X173210069Y-122835994D01*
X173022797Y-122607803D01*
X172794605Y-122420531D01*
X172534263Y-122281375D01*
X172251776Y-122195684D01*
X171958000Y-122166749D01*
X171664223Y-122195684D01*
X171381736Y-122281375D01*
X171121394Y-122420531D01*
X170893203Y-122607803D01*
X170705931Y-122835995D01*
X170688000Y-122869541D01*
X170670069Y-122835994D01*
X170482797Y-122607803D01*
X170254605Y-122420531D01*
X169994263Y-122281375D01*
X169711776Y-122195684D01*
X169418000Y-122166749D01*
X169124223Y-122195684D01*
X168841736Y-122281375D01*
X168581394Y-122420531D01*
X168353203Y-122607803D01*
X168165931Y-122835995D01*
X168148000Y-122869541D01*
X168130069Y-122835994D01*
X167942797Y-122607803D01*
X167714605Y-122420531D01*
X167454263Y-122281375D01*
X167171776Y-122195684D01*
X166878000Y-122166749D01*
X166584223Y-122195684D01*
X166301736Y-122281375D01*
X166041394Y-122420531D01*
X165813203Y-122607803D01*
X165625931Y-122835995D01*
X165608000Y-122869541D01*
X165590069Y-122835994D01*
X165402797Y-122607803D01*
X165174605Y-122420531D01*
X164914263Y-122281375D01*
X164631776Y-122195684D01*
X164338000Y-122166749D01*
X164044223Y-122195684D01*
X163761736Y-122281375D01*
X163501394Y-122420531D01*
X163273203Y-122607803D01*
X163085931Y-122835995D01*
X163068000Y-122869541D01*
X163050069Y-122835994D01*
X162862797Y-122607803D01*
X162634605Y-122420531D01*
X162374263Y-122281375D01*
X162091776Y-122195684D01*
X161798000Y-122166749D01*
X161504223Y-122195684D01*
X161221736Y-122281375D01*
X160961394Y-122420531D01*
X160733203Y-122607803D01*
X160545931Y-122835995D01*
X160406775Y-123096337D01*
X160321084Y-123378824D01*
X160299400Y-123598982D01*
X158216600Y-123598982D01*
X158216600Y-123598981D01*
X158194916Y-123378823D01*
X158109225Y-123096336D01*
X157970069Y-122835994D01*
X157782797Y-122607803D01*
X157554605Y-122420531D01*
X157294263Y-122281375D01*
X157011776Y-122195684D01*
X156718000Y-122166749D01*
X156424223Y-122195684D01*
X156141736Y-122281375D01*
X155881394Y-122420531D01*
X155653203Y-122607803D01*
X155465931Y-122835995D01*
X155444576Y-122875947D01*
X155296486Y-122673271D01*
X155080035Y-122474267D01*
X154828919Y-122321314D01*
X154552789Y-122220291D01*
X154537026Y-122217642D01*
X154305000Y-122338783D01*
X154051000Y-122338783D01*
X153818974Y-122217642D01*
X153803211Y-122220291D01*
X153527081Y-122321314D01*
X153275965Y-122474267D01*
X153059514Y-122673271D01*
X152908000Y-122880633D01*
X152756486Y-122673271D01*
X152540035Y-122474267D01*
X152288919Y-122321314D01*
X152012789Y-122220291D01*
X151997026Y-122217642D01*
X151765000Y-122338783D01*
X151511000Y-122338783D01*
X151278974Y-122217642D01*
X151263211Y-122220291D01*
X150987081Y-122321314D01*
X150735965Y-122474267D01*
X150519514Y-122673271D01*
X150371424Y-122875947D01*
X150350069Y-122835994D01*
X150162797Y-122607803D01*
X149934605Y-122420531D01*
X149674263Y-122281375D01*
X149391776Y-122195684D01*
X149098000Y-122166749D01*
X148804223Y-122195684D01*
X148521736Y-122281375D01*
X148261394Y-122420531D01*
X148033203Y-122607803D01*
X147845931Y-122835995D01*
X147828000Y-122869541D01*
X147810069Y-122835994D01*
X147622797Y-122607803D01*
X147394605Y-122420531D01*
X147134263Y-122281375D01*
X146851776Y-122195684D01*
X146558000Y-122166749D01*
X146264223Y-122195684D01*
X145981736Y-122281375D01*
X145721394Y-122420531D01*
X145493203Y-122607803D01*
X145305931Y-122835995D01*
X145288000Y-122869541D01*
X145270069Y-122835994D01*
X145082797Y-122607803D01*
X144854605Y-122420531D01*
X144778000Y-122379585D01*
X144778000Y-119844117D01*
X150538000Y-119844117D01*
X150538000Y-120185883D01*
X150604675Y-120521081D01*
X150735463Y-120836831D01*
X150925337Y-121120998D01*
X151167002Y-121362663D01*
X151451169Y-121552537D01*
X151766919Y-121683325D01*
X152102117Y-121750000D01*
X152443883Y-121750000D01*
X152779081Y-121683325D01*
X153094831Y-121552537D01*
X153378998Y-121362663D01*
X153620663Y-121120998D01*
X153810537Y-120836831D01*
X153941325Y-120521081D01*
X154008000Y-120185883D01*
X154008000Y-119844117D01*
X153941325Y-119508919D01*
X153810537Y-119193169D01*
X153624671Y-118915000D01*
X154344928Y-118915000D01*
X154344928Y-121115000D01*
X154357188Y-121239482D01*
X154393498Y-121359180D01*
X154452463Y-121469494D01*
X154531815Y-121566185D01*
X154628506Y-121645537D01*
X154738820Y-121704502D01*
X154858518Y-121740812D01*
X154983000Y-121753072D01*
X157183000Y-121753072D01*
X157307482Y-121740812D01*
X157427180Y-121704502D01*
X157537494Y-121645537D01*
X157634185Y-121566185D01*
X157713537Y-121469494D01*
X157772502Y-121359180D01*
X157808812Y-121239482D01*
X157821072Y-121115000D01*
X157821072Y-118915000D01*
X157808812Y-118790518D01*
X157784152Y-118709224D01*
X162913381Y-118709224D01*
X163045317Y-119004312D01*
X163386045Y-119175159D01*
X163753557Y-119276250D01*
X164133729Y-119303701D01*
X164511951Y-119256457D01*
X164873690Y-119136333D01*
X165120683Y-119004312D01*
X165252619Y-118709224D01*
X164083000Y-117539605D01*
X162913381Y-118709224D01*
X157784152Y-118709224D01*
X157772502Y-118670820D01*
X157713537Y-118560506D01*
X157634185Y-118463815D01*
X157537494Y-118384463D01*
X157427180Y-118325498D01*
X157307482Y-118289188D01*
X157183000Y-118276928D01*
X154983000Y-118276928D01*
X154858518Y-118289188D01*
X154738820Y-118325498D01*
X154628506Y-118384463D01*
X154531815Y-118463815D01*
X154452463Y-118560506D01*
X154393498Y-118670820D01*
X154357188Y-118790518D01*
X154344928Y-118915000D01*
X153624671Y-118915000D01*
X153620663Y-118909002D01*
X153378998Y-118667337D01*
X153094831Y-118477463D01*
X152779081Y-118346675D01*
X152443883Y-118280000D01*
X152102117Y-118280000D01*
X151766919Y-118346675D01*
X151451169Y-118477463D01*
X151167002Y-118667337D01*
X150925337Y-118909002D01*
X150735463Y-119193169D01*
X150604675Y-119508919D01*
X150538000Y-119844117D01*
X144778000Y-119844117D01*
X144778000Y-117901957D01*
X144827463Y-117994494D01*
X144906815Y-118091185D01*
X145003506Y-118170537D01*
X145113820Y-118229502D01*
X145233518Y-118265812D01*
X145358000Y-118278072D01*
X147758000Y-118278072D01*
X147882482Y-118265812D01*
X148002180Y-118229502D01*
X148112494Y-118170537D01*
X148209185Y-118091185D01*
X148288537Y-117994494D01*
X148347502Y-117884180D01*
X148383812Y-117764482D01*
X148396072Y-117640000D01*
X148396072Y-117600000D01*
X149487084Y-117600000D01*
X149575394Y-117707606D01*
X149702392Y-117811831D01*
X149847284Y-117889278D01*
X150004500Y-117936969D01*
X150168000Y-117953072D01*
X150568000Y-117953072D01*
X150731500Y-117936969D01*
X150888716Y-117889278D01*
X151033608Y-117811831D01*
X151160606Y-117707606D01*
X151193000Y-117668134D01*
X151225394Y-117707606D01*
X151352392Y-117811831D01*
X151497284Y-117889278D01*
X151654500Y-117936969D01*
X151818000Y-117953072D01*
X152218000Y-117953072D01*
X152381500Y-117936969D01*
X152538716Y-117889278D01*
X152683608Y-117811831D01*
X152810606Y-117707606D01*
X152914831Y-117580608D01*
X152992278Y-117435716D01*
X153039969Y-117278500D01*
X153056072Y-117115000D01*
X153056072Y-116565000D01*
X153039969Y-116401500D01*
X152992278Y-116244284D01*
X152914831Y-116099392D01*
X152810606Y-115972394D01*
X152778000Y-115945635D01*
X152778000Y-112766365D01*
X152801986Y-112764003D01*
X152945247Y-112720546D01*
X153077276Y-112649974D01*
X153193001Y-112555001D01*
X153216803Y-112525998D01*
X153857802Y-111885000D01*
X154053000Y-111885000D01*
X154053001Y-113419083D01*
X153945394Y-113507394D01*
X153841169Y-113634392D01*
X153763722Y-113779284D01*
X153716031Y-113936500D01*
X153699928Y-114100000D01*
X153699928Y-114500000D01*
X153716031Y-114663500D01*
X153763722Y-114820716D01*
X153841169Y-114965608D01*
X153945394Y-115092606D01*
X153984866Y-115125000D01*
X153945394Y-115157394D01*
X153841169Y-115284392D01*
X153763722Y-115429284D01*
X153716031Y-115586500D01*
X153699928Y-115750000D01*
X153699928Y-116150000D01*
X153716031Y-116313500D01*
X153763722Y-116470716D01*
X153841169Y-116615608D01*
X153945394Y-116742606D01*
X154072392Y-116846831D01*
X154217284Y-116924278D01*
X154374500Y-116971969D01*
X154538000Y-116988072D01*
X155088000Y-116988072D01*
X155251500Y-116971969D01*
X155408716Y-116924278D01*
X155547679Y-116850000D01*
X157275225Y-116850000D01*
X157336038Y-116941013D01*
X157521987Y-117126962D01*
X157740641Y-117273061D01*
X157983595Y-117373696D01*
X158241514Y-117425000D01*
X158504486Y-117425000D01*
X158576230Y-117410729D01*
X162139299Y-117410729D01*
X162186543Y-117788951D01*
X162306667Y-118150690D01*
X162438688Y-118397683D01*
X162733776Y-118529619D01*
X163903395Y-117360000D01*
X162733776Y-116190381D01*
X162438688Y-116322317D01*
X162267841Y-116663045D01*
X162166750Y-117030557D01*
X162139299Y-117410729D01*
X158576230Y-117410729D01*
X158762405Y-117373696D01*
X159005359Y-117273061D01*
X159224013Y-117126962D01*
X159409962Y-116941013D01*
X159556061Y-116722359D01*
X159656696Y-116479405D01*
X159708000Y-116221486D01*
X159708000Y-116010776D01*
X162913381Y-116010776D01*
X164083000Y-117180395D01*
X164097143Y-117166253D01*
X164276748Y-117345858D01*
X164262605Y-117360000D01*
X165432224Y-118529619D01*
X165727312Y-118397683D01*
X165898159Y-118056955D01*
X165999250Y-117689443D01*
X166026701Y-117309271D01*
X166023925Y-117287047D01*
X166072334Y-117335456D01*
X166442489Y-117582786D01*
X166853782Y-117753149D01*
X167290409Y-117840000D01*
X167735591Y-117840000D01*
X168172218Y-117753149D01*
X168583511Y-117582786D01*
X168953666Y-117335456D01*
X169268456Y-117020666D01*
X169515786Y-116650511D01*
X169686149Y-116239218D01*
X169773000Y-115802591D01*
X169773000Y-115357409D01*
X169686149Y-114920782D01*
X169515786Y-114509489D01*
X169268456Y-114139334D01*
X168953666Y-113824544D01*
X168583511Y-113577214D01*
X168172218Y-113406851D01*
X167735591Y-113320000D01*
X167290409Y-113320000D01*
X166853782Y-113406851D01*
X166442489Y-113577214D01*
X166072334Y-113824544D01*
X165757544Y-114139334D01*
X165510214Y-114509489D01*
X165339851Y-114920782D01*
X165253000Y-115357409D01*
X165253000Y-115802591D01*
X165287477Y-115975915D01*
X165252618Y-116010774D01*
X165120683Y-115715688D01*
X164779955Y-115544841D01*
X164412443Y-115443750D01*
X164032271Y-115416299D01*
X163654049Y-115463543D01*
X163292310Y-115583667D01*
X163045317Y-115715688D01*
X162913381Y-116010776D01*
X159708000Y-116010776D01*
X159708000Y-115958514D01*
X159656696Y-115700595D01*
X159556061Y-115457641D01*
X159409962Y-115238987D01*
X159224013Y-115053038D01*
X159062322Y-114945000D01*
X159224013Y-114836962D01*
X159409962Y-114651013D01*
X159454070Y-114585001D01*
X164407679Y-114585001D01*
X164445001Y-114588677D01*
X164482323Y-114585001D01*
X164482334Y-114585001D01*
X164593987Y-114574004D01*
X164737248Y-114530547D01*
X164869277Y-114459975D01*
X164985002Y-114365002D01*
X165008805Y-114335998D01*
X166509004Y-112835800D01*
X166538002Y-112812002D01*
X166632975Y-112696277D01*
X166703547Y-112564248D01*
X166747004Y-112420987D01*
X166758001Y-112309334D01*
X166758001Y-112309326D01*
X166761677Y-112272001D01*
X166758001Y-112234676D01*
X166758001Y-110802323D01*
X166761677Y-110765000D01*
X166758001Y-110727677D01*
X166758001Y-110727668D01*
X166747004Y-110616015D01*
X166703547Y-110472754D01*
X166632975Y-110340725D01*
X166538002Y-110225000D01*
X166509005Y-110201203D01*
X166286645Y-109978843D01*
X166308000Y-109871486D01*
X166308000Y-109608514D01*
X166256696Y-109350595D01*
X166156061Y-109107641D01*
X166009962Y-108888987D01*
X165840975Y-108720000D01*
X166009962Y-108551013D01*
X166156061Y-108332359D01*
X166256696Y-108089405D01*
X166308000Y-107831486D01*
X166308000Y-107568514D01*
X166256696Y-107310595D01*
X166156061Y-107067641D01*
X166009962Y-106848987D01*
X165840975Y-106680000D01*
X166009962Y-106511013D01*
X166156061Y-106292359D01*
X166256696Y-106049405D01*
X166308000Y-105791486D01*
X166308000Y-105528514D01*
X166256696Y-105270595D01*
X166156061Y-105027641D01*
X166009962Y-104808987D01*
X165824013Y-104623038D01*
X165605359Y-104476939D01*
X165362405Y-104376304D01*
X165104486Y-104325000D01*
X164841514Y-104325000D01*
X164583595Y-104376304D01*
X164340641Y-104476939D01*
X164121987Y-104623038D01*
X164056413Y-104688612D01*
X163193000Y-103825199D01*
X163193000Y-102818363D01*
X163386045Y-102915159D01*
X163753557Y-103016250D01*
X164133729Y-103043701D01*
X164511951Y-102996457D01*
X164873690Y-102876333D01*
X165120683Y-102744312D01*
X165252618Y-102449226D01*
X165287477Y-102484085D01*
X165253000Y-102657409D01*
X165253000Y-103102591D01*
X165339851Y-103539218D01*
X165510214Y-103950511D01*
X165757544Y-104320666D01*
X166072334Y-104635456D01*
X166442489Y-104882786D01*
X166853782Y-105053149D01*
X167290409Y-105140000D01*
X167735591Y-105140000D01*
X168172218Y-105053149D01*
X168583511Y-104882786D01*
X168953666Y-104635456D01*
X169268456Y-104320666D01*
X169515786Y-103950511D01*
X169686149Y-103539218D01*
X169773000Y-103102591D01*
X169773000Y-102657409D01*
X169686149Y-102220782D01*
X169515786Y-101809489D01*
X169268456Y-101439334D01*
X168953666Y-101124544D01*
X168583511Y-100877214D01*
X168172218Y-100706851D01*
X167735591Y-100620000D01*
X167290409Y-100620000D01*
X166853782Y-100706851D01*
X166442489Y-100877214D01*
X166072334Y-101124544D01*
X166017291Y-101179587D01*
X166026701Y-101049271D01*
X165979457Y-100671049D01*
X165859333Y-100309310D01*
X165727312Y-100062317D01*
X165432224Y-99930381D01*
X164262605Y-101100000D01*
X164276748Y-101114143D01*
X164097143Y-101293748D01*
X164083000Y-101279605D01*
X164068858Y-101293748D01*
X163889253Y-101114143D01*
X163903395Y-101100000D01*
X163889253Y-101085858D01*
X164068858Y-100906253D01*
X164083000Y-100920395D01*
X165252619Y-99750776D01*
X165120683Y-99455688D01*
X164779955Y-99284841D01*
X164412443Y-99183750D01*
X164032271Y-99156299D01*
X163654049Y-99203543D01*
X163292310Y-99323667D01*
X163193000Y-99376749D01*
X163193000Y-98748363D01*
X163386045Y-98845159D01*
X163753557Y-98946250D01*
X164133729Y-98973701D01*
X164511951Y-98926457D01*
X164873690Y-98806333D01*
X165120683Y-98674312D01*
X165252619Y-98379224D01*
X164083000Y-97209605D01*
X164068858Y-97223748D01*
X163889253Y-97044143D01*
X163903395Y-97030000D01*
X163889253Y-97015858D01*
X164068858Y-96836253D01*
X164083000Y-96850395D01*
X164097143Y-96836253D01*
X164276748Y-97015858D01*
X164262605Y-97030000D01*
X165432224Y-98199619D01*
X165727312Y-98067683D01*
X165898159Y-97726955D01*
X165999250Y-97359443D01*
X166026701Y-96979271D01*
X166023925Y-96957047D01*
X166072334Y-97005456D01*
X166442489Y-97252786D01*
X166853782Y-97423149D01*
X167290409Y-97510000D01*
X167735591Y-97510000D01*
X168172218Y-97423149D01*
X168583511Y-97252786D01*
X168953666Y-97005456D01*
X169268456Y-96690666D01*
X169515786Y-96320511D01*
X169686149Y-95909218D01*
X169773000Y-95472591D01*
X169773000Y-95027409D01*
X169686149Y-94590782D01*
X169515786Y-94179489D01*
X169268456Y-93809334D01*
X168953666Y-93494544D01*
X168583511Y-93247214D01*
X168172218Y-93076851D01*
X167735591Y-92990000D01*
X167587261Y-92990000D01*
X167627003Y-92858986D01*
X167638000Y-92747333D01*
X167638000Y-92747323D01*
X167641676Y-92710000D01*
X167638000Y-92672677D01*
X167638000Y-89312323D01*
X167641676Y-89275000D01*
X167638000Y-89237677D01*
X167638000Y-89237667D01*
X167627003Y-89126014D01*
X167583546Y-88982753D01*
X167512974Y-88850724D01*
X167418001Y-88734999D01*
X167389003Y-88711201D01*
X166286645Y-87608844D01*
X166308000Y-87501486D01*
X166308000Y-87238514D01*
X166256696Y-86980595D01*
X166156061Y-86737641D01*
X166009962Y-86518987D01*
X165840975Y-86350000D01*
X166009962Y-86181013D01*
X166156061Y-85962359D01*
X166256696Y-85719405D01*
X166308000Y-85461486D01*
X166308000Y-85198514D01*
X166256696Y-84940595D01*
X166156061Y-84697641D01*
X166009962Y-84478987D01*
X165824013Y-84293038D01*
X165605359Y-84146939D01*
X165362405Y-84046304D01*
X165104486Y-83995000D01*
X164841514Y-83995000D01*
X164725390Y-84018099D01*
X164697277Y-83995027D01*
X164565248Y-83924455D01*
X164421987Y-83880998D01*
X164310334Y-83870001D01*
X164310323Y-83870001D01*
X164273001Y-83866325D01*
X164235679Y-83870001D01*
X159627455Y-83870001D01*
X159556061Y-83697641D01*
X159409962Y-83478987D01*
X159224013Y-83293038D01*
X159062322Y-83185000D01*
X159224013Y-83076962D01*
X159409962Y-82891013D01*
X159556061Y-82672359D01*
X159656696Y-82429405D01*
X159708000Y-82171486D01*
X159708000Y-82119224D01*
X162913381Y-82119224D01*
X163045317Y-82414312D01*
X163386045Y-82585159D01*
X163753557Y-82686250D01*
X164133729Y-82713701D01*
X164511951Y-82666457D01*
X164873690Y-82546333D01*
X165120683Y-82414312D01*
X165252618Y-82119226D01*
X165287477Y-82154085D01*
X165253000Y-82327409D01*
X165253000Y-82772591D01*
X165339851Y-83209218D01*
X165510214Y-83620511D01*
X165757544Y-83990666D01*
X166072334Y-84305456D01*
X166442489Y-84552786D01*
X166853782Y-84723149D01*
X167290409Y-84810000D01*
X167735591Y-84810000D01*
X168172218Y-84723149D01*
X168583511Y-84552786D01*
X168953666Y-84305456D01*
X169268456Y-83990666D01*
X169515786Y-83620511D01*
X169686149Y-83209218D01*
X169773000Y-82772591D01*
X169773000Y-82327409D01*
X169686149Y-81890782D01*
X169515786Y-81479489D01*
X169268456Y-81109334D01*
X168953666Y-80794544D01*
X168583511Y-80547214D01*
X168172218Y-80376851D01*
X167735591Y-80290000D01*
X167290409Y-80290000D01*
X166853782Y-80376851D01*
X166442489Y-80547214D01*
X166072334Y-80794544D01*
X166017291Y-80849587D01*
X166026701Y-80719271D01*
X165979457Y-80341049D01*
X165859333Y-79979310D01*
X165727312Y-79732317D01*
X165432224Y-79600381D01*
X164262605Y-80770000D01*
X164276748Y-80784143D01*
X164097143Y-80963748D01*
X164083000Y-80949605D01*
X162913381Y-82119224D01*
X159708000Y-82119224D01*
X159708000Y-81908514D01*
X159656696Y-81650595D01*
X159556061Y-81407641D01*
X159409962Y-81188987D01*
X159224013Y-81003038D01*
X159005359Y-80856939D01*
X158917941Y-80820729D01*
X162139299Y-80820729D01*
X162186543Y-81198951D01*
X162306667Y-81560690D01*
X162438688Y-81807683D01*
X162733776Y-81939619D01*
X163903395Y-80770000D01*
X162733776Y-79600381D01*
X162438688Y-79732317D01*
X162267841Y-80073045D01*
X162166750Y-80440557D01*
X162139299Y-80820729D01*
X158917941Y-80820729D01*
X158762405Y-80756304D01*
X158504486Y-80705000D01*
X158241514Y-80705000D01*
X157983595Y-80756304D01*
X157740641Y-80856939D01*
X157521987Y-81003038D01*
X157336038Y-81188987D01*
X157189939Y-81407641D01*
X157089304Y-81650595D01*
X157038000Y-81908514D01*
X157038000Y-82171486D01*
X157089304Y-82429405D01*
X157189939Y-82672359D01*
X157336038Y-82891013D01*
X157521987Y-83076962D01*
X157683678Y-83185000D01*
X157521987Y-83293038D01*
X157336038Y-83478987D01*
X157275225Y-83570000D01*
X155230322Y-83570000D01*
X155192999Y-83566324D01*
X155155676Y-83570000D01*
X155155667Y-83570000D01*
X155044014Y-83580997D01*
X154900753Y-83624454D01*
X154811937Y-83671928D01*
X154538000Y-83671928D01*
X154374500Y-83688031D01*
X154217284Y-83735722D01*
X154072392Y-83813169D01*
X153945394Y-83917394D01*
X153841169Y-84044392D01*
X153763722Y-84189284D01*
X153716031Y-84346500D01*
X153699928Y-84510000D01*
X153699928Y-84910000D01*
X153716031Y-85073500D01*
X153763722Y-85230716D01*
X153841169Y-85375608D01*
X153945394Y-85502606D01*
X153984866Y-85535000D01*
X153945394Y-85567394D01*
X153841169Y-85694392D01*
X153763722Y-85839284D01*
X153716031Y-85996500D01*
X153699928Y-86160000D01*
X153699928Y-86560000D01*
X153716031Y-86723500D01*
X153763722Y-86880716D01*
X153794640Y-86938559D01*
X153287002Y-87446197D01*
X153286997Y-87446201D01*
X153228198Y-87505000D01*
X152778000Y-87505000D01*
X152778000Y-84079365D01*
X152810606Y-84052606D01*
X152914831Y-83925608D01*
X152992278Y-83780716D01*
X153039969Y-83623500D01*
X153056072Y-83460000D01*
X153056072Y-82910000D01*
X153039969Y-82746500D01*
X152992278Y-82589284D01*
X152914831Y-82444392D01*
X152810606Y-82317394D01*
X152683608Y-82213169D01*
X152538716Y-82135722D01*
X152381500Y-82088031D01*
X152218000Y-82071928D01*
X151818000Y-82071928D01*
X151654500Y-82088031D01*
X151497284Y-82135722D01*
X151352392Y-82213169D01*
X151225394Y-82317394D01*
X151193000Y-82356866D01*
X151160606Y-82317394D01*
X151033608Y-82213169D01*
X150888716Y-82135722D01*
X150731500Y-82088031D01*
X150568000Y-82071928D01*
X150168000Y-82071928D01*
X150004500Y-82088031D01*
X149847284Y-82135722D01*
X149702392Y-82213169D01*
X149575394Y-82317394D01*
X149487084Y-82425000D01*
X148178901Y-82425000D01*
X148156932Y-82383899D01*
X147977608Y-82165392D01*
X147824817Y-82040000D01*
X152870678Y-82040000D01*
X152908000Y-82043676D01*
X152945322Y-82040000D01*
X152945333Y-82040000D01*
X153056986Y-82029003D01*
X153200247Y-81985546D01*
X153332276Y-81914974D01*
X153448001Y-81820001D01*
X153471804Y-81790997D01*
X155842025Y-79420776D01*
X162913381Y-79420776D01*
X164083000Y-80590395D01*
X165252619Y-79420776D01*
X165120683Y-79125688D01*
X164779955Y-78954841D01*
X164412443Y-78853750D01*
X164032271Y-78826299D01*
X163654049Y-78873543D01*
X163292310Y-78993667D01*
X163045317Y-79125688D01*
X162913381Y-79420776D01*
X155842025Y-79420776D01*
X157032802Y-78230000D01*
X172555678Y-78230000D01*
X172593000Y-78233676D01*
X172630322Y-78230000D01*
X172630333Y-78230000D01*
X172741986Y-78219003D01*
X172885247Y-78175546D01*
X173017276Y-78104974D01*
X173133001Y-78010001D01*
X173156804Y-77980997D01*
X174004171Y-77133631D01*
X174204224Y-77194316D01*
X174498000Y-77223251D01*
X174791777Y-77194316D01*
X175074264Y-77108625D01*
X175334606Y-76969469D01*
X175562797Y-76782197D01*
X175750069Y-76554006D01*
X175889225Y-76293663D01*
X175974916Y-76011176D01*
X175996600Y-75791018D01*
X175996600Y-75338981D01*
X175974916Y-75118823D01*
X175889225Y-74836336D01*
X175750069Y-74575994D01*
X175562797Y-74347803D01*
X175334605Y-74160531D01*
X175074263Y-74021375D01*
X174791776Y-73935684D01*
X174498000Y-73906749D01*
X174204223Y-73935684D01*
X173921736Y-74021375D01*
X173661394Y-74160531D01*
X173433203Y-74347803D01*
X173245931Y-74575995D01*
X173228000Y-74609541D01*
X173210069Y-74575994D01*
X173022797Y-74347803D01*
X172794605Y-74160531D01*
X172534263Y-74021375D01*
X172251776Y-73935684D01*
X171958000Y-73906749D01*
X171664223Y-73935684D01*
X171381736Y-74021375D01*
X171121394Y-74160531D01*
X170893203Y-74347803D01*
X170705931Y-74575995D01*
X170688000Y-74609541D01*
X170670069Y-74575994D01*
X170482797Y-74347803D01*
X170254605Y-74160531D01*
X169994263Y-74021375D01*
X169711776Y-73935684D01*
X169418000Y-73906749D01*
X169124223Y-73935684D01*
X168841736Y-74021375D01*
X168581394Y-74160531D01*
X168353203Y-74347803D01*
X168165931Y-74575995D01*
X168148000Y-74609541D01*
X168130069Y-74575994D01*
X167942797Y-74347803D01*
X167714605Y-74160531D01*
X167454263Y-74021375D01*
X167171776Y-73935684D01*
X166878000Y-73906749D01*
X166584223Y-73935684D01*
X166301736Y-74021375D01*
X166041394Y-74160531D01*
X165813203Y-74347803D01*
X165625931Y-74575995D01*
X165608000Y-74609541D01*
X165590069Y-74575994D01*
X165402797Y-74347803D01*
X165174605Y-74160531D01*
X164914263Y-74021375D01*
X164631776Y-73935684D01*
X164338000Y-73906749D01*
X164044223Y-73935684D01*
X163761736Y-74021375D01*
X163501394Y-74160531D01*
X163273203Y-74347803D01*
X163085931Y-74575995D01*
X163068000Y-74609541D01*
X163050069Y-74575994D01*
X162862797Y-74347803D01*
X162634605Y-74160531D01*
X162374263Y-74021375D01*
X162091776Y-73935684D01*
X161798000Y-73906749D01*
X161504223Y-73935684D01*
X161221736Y-74021375D01*
X160961394Y-74160531D01*
X160733203Y-74347803D01*
X160545931Y-74575995D01*
X160528000Y-74609541D01*
X160510069Y-74575994D01*
X160322797Y-74347803D01*
X160094605Y-74160531D01*
X159834263Y-74021375D01*
X159551776Y-73935684D01*
X159258000Y-73906749D01*
X158964223Y-73935684D01*
X158681736Y-74021375D01*
X158421394Y-74160531D01*
X158193203Y-74347803D01*
X158005931Y-74575995D01*
X157988000Y-74609541D01*
X157970069Y-74575994D01*
X157782797Y-74347803D01*
X157554605Y-74160531D01*
X157294263Y-74021375D01*
X157011776Y-73935684D01*
X156718000Y-73906749D01*
X156424223Y-73935684D01*
X156141736Y-74021375D01*
X155881394Y-74160531D01*
X155653203Y-74347803D01*
X155465931Y-74575995D01*
X155326775Y-74836337D01*
X155241084Y-75118824D01*
X155219400Y-75338982D01*
X155219400Y-75791019D01*
X155241084Y-76011177D01*
X155326775Y-76293664D01*
X155465931Y-76554006D01*
X155653203Y-76782197D01*
X155881395Y-76969469D01*
X156052351Y-77060847D01*
X152593199Y-80520000D01*
X138232802Y-80520000D01*
X139064302Y-79688500D01*
X145439178Y-79688500D01*
X145476500Y-79692176D01*
X145513822Y-79688500D01*
X145513833Y-79688500D01*
X145625486Y-79677503D01*
X145768747Y-79634046D01*
X145900776Y-79563474D01*
X146016501Y-79468501D01*
X146040304Y-79439497D01*
X148085003Y-77394799D01*
X148114001Y-77371001D01*
X148140332Y-77338917D01*
X148208974Y-77255277D01*
X148279546Y-77123247D01*
X148283981Y-77108625D01*
X148309858Y-77023320D01*
X148410606Y-76969469D01*
X148638797Y-76782197D01*
X148826069Y-76554006D01*
X148844000Y-76520459D01*
X148861931Y-76554006D01*
X149049203Y-76782197D01*
X149277395Y-76969469D01*
X149537737Y-77108625D01*
X149820224Y-77194316D01*
X150114000Y-77223251D01*
X150407777Y-77194316D01*
X150690264Y-77108625D01*
X150950606Y-76969469D01*
X151178797Y-76782197D01*
X151366069Y-76554006D01*
X151384000Y-76520459D01*
X151401931Y-76554006D01*
X151589203Y-76782197D01*
X151817395Y-76969469D01*
X152077737Y-77108625D01*
X152360224Y-77194316D01*
X152654000Y-77223251D01*
X152947777Y-77194316D01*
X153230264Y-77108625D01*
X153490606Y-76969469D01*
X153718797Y-76782197D01*
X153906069Y-76554006D01*
X154045225Y-76293663D01*
X154130916Y-76011176D01*
X154152600Y-75791018D01*
X154152600Y-75338981D01*
X154130916Y-75118823D01*
X154045225Y-74836336D01*
X153906069Y-74575994D01*
X153718797Y-74347803D01*
X153490605Y-74160531D01*
X153230263Y-74021375D01*
X152947776Y-73935684D01*
X152654000Y-73906749D01*
X152360223Y-73935684D01*
X152077736Y-74021375D01*
X151817394Y-74160531D01*
X151589203Y-74347803D01*
X151401931Y-74575995D01*
X151384000Y-74609541D01*
X151366069Y-74575994D01*
X151178797Y-74347803D01*
X150950605Y-74160531D01*
X150690263Y-74021375D01*
X150407776Y-73935684D01*
X150114000Y-73906749D01*
X149820223Y-73935684D01*
X149537736Y-74021375D01*
X149277394Y-74160531D01*
X149049203Y-74347803D01*
X148861931Y-74575995D01*
X148844000Y-74609541D01*
X148826069Y-74575994D01*
X148638797Y-74347803D01*
X148410605Y-74160531D01*
X148150263Y-74021375D01*
X147867776Y-73935684D01*
X147574000Y-73906749D01*
X147280223Y-73935684D01*
X146997736Y-74021375D01*
X146737394Y-74160531D01*
X146509203Y-74347803D01*
X146321931Y-74575995D01*
X146304000Y-74609541D01*
X146286069Y-74575994D01*
X146098797Y-74347803D01*
X145870605Y-74160531D01*
X145610263Y-74021375D01*
X145327776Y-73935684D01*
X145034000Y-73906749D01*
X144740223Y-73935684D01*
X144457736Y-74021375D01*
X144197394Y-74160531D01*
X143969203Y-74347803D01*
X143781931Y-74575995D01*
X143764000Y-74609541D01*
X143746069Y-74575994D01*
X143558797Y-74347803D01*
X143330605Y-74160531D01*
X143070263Y-74021375D01*
X142787776Y-73935684D01*
X142494000Y-73906749D01*
X142200223Y-73935684D01*
X141917736Y-74021375D01*
X141657394Y-74160531D01*
X141429203Y-74347803D01*
X141241931Y-74575995D01*
X141224000Y-74609541D01*
X141206069Y-74575994D01*
X141018797Y-74347803D01*
X140790605Y-74160531D01*
X140530263Y-74021375D01*
X140247776Y-73935684D01*
X139954000Y-73906749D01*
X139660223Y-73935684D01*
X139377736Y-74021375D01*
X139117394Y-74160531D01*
X138889203Y-74347803D01*
X138701931Y-74575995D01*
X138680576Y-74615947D01*
X138532486Y-74413271D01*
X138316035Y-74214267D01*
X138064919Y-74061314D01*
X137788789Y-73960291D01*
X137773026Y-73957642D01*
X137541000Y-74078783D01*
X137541000Y-75438000D01*
X137561000Y-75438000D01*
X137561000Y-75692000D01*
X137541000Y-75692000D01*
X137541000Y-77051217D01*
X137773026Y-77172358D01*
X137788789Y-77169709D01*
X138064919Y-77068686D01*
X138316035Y-76915733D01*
X138532486Y-76716729D01*
X138680576Y-76514053D01*
X138701931Y-76554006D01*
X138889203Y-76782197D01*
X139117395Y-76969469D01*
X139377737Y-77108625D01*
X139660224Y-77194316D01*
X139954000Y-77223251D01*
X140247777Y-77194316D01*
X140530264Y-77108625D01*
X140790606Y-76969469D01*
X141018797Y-76782197D01*
X141206069Y-76554006D01*
X141224000Y-76520459D01*
X141241931Y-76554006D01*
X141429203Y-76782197D01*
X141657395Y-76969469D01*
X141917737Y-77108625D01*
X142200224Y-77194316D01*
X142318257Y-77205941D01*
X142179199Y-77345000D01*
X138973911Y-77345000D01*
X138936588Y-77341324D01*
X138899265Y-77345000D01*
X138899256Y-77345000D01*
X138787603Y-77355997D01*
X138644342Y-77399454D01*
X138512313Y-77470026D01*
X138396588Y-77564999D01*
X138372790Y-77593997D01*
X131626991Y-84339797D01*
X131597988Y-84363599D01*
X131567732Y-84400466D01*
X128996997Y-86971202D01*
X128967999Y-86995000D01*
X128944201Y-87023998D01*
X128944200Y-87023999D01*
X128873025Y-87110725D01*
X128802453Y-87242755D01*
X128774691Y-87334278D01*
X128758997Y-87386015D01*
X128755721Y-87419276D01*
X128744323Y-87535001D01*
X128748000Y-87572333D01*
X128747999Y-95798247D01*
X128576158Y-95727068D01*
X128289260Y-95670000D01*
X127996740Y-95670000D01*
X127709842Y-95727068D01*
X127439589Y-95839010D01*
X127196368Y-96001525D01*
X126989525Y-96208368D01*
X126827010Y-96451589D01*
X126715068Y-96721842D01*
X126658000Y-97008740D01*
X125043000Y-97008740D01*
X125043000Y-75338982D01*
X128295400Y-75338982D01*
X128295400Y-75791019D01*
X128317084Y-76011177D01*
X128402775Y-76293664D01*
X128541931Y-76554006D01*
X128729203Y-76782197D01*
X128957395Y-76969469D01*
X129217737Y-77108625D01*
X129500224Y-77194316D01*
X129794000Y-77223251D01*
X130087777Y-77194316D01*
X130370264Y-77108625D01*
X130630606Y-76969469D01*
X130858797Y-76782197D01*
X131046069Y-76554006D01*
X131064000Y-76520459D01*
X131081931Y-76554006D01*
X131269203Y-76782197D01*
X131497395Y-76969469D01*
X131757737Y-77108625D01*
X132040224Y-77194316D01*
X132334000Y-77223251D01*
X132627777Y-77194316D01*
X132910264Y-77108625D01*
X133170606Y-76969469D01*
X133398797Y-76782197D01*
X133586069Y-76554006D01*
X133604000Y-76520459D01*
X133621931Y-76554006D01*
X133809203Y-76782197D01*
X134037395Y-76969469D01*
X134297737Y-77108625D01*
X134580224Y-77194316D01*
X134874000Y-77223251D01*
X135167777Y-77194316D01*
X135450264Y-77108625D01*
X135710606Y-76969469D01*
X135938797Y-76782197D01*
X136126069Y-76554006D01*
X136147424Y-76514053D01*
X136295514Y-76716729D01*
X136511965Y-76915733D01*
X136763081Y-77068686D01*
X137039211Y-77169709D01*
X137054974Y-77172358D01*
X137287000Y-77051217D01*
X137287000Y-75692000D01*
X137267000Y-75692000D01*
X137267000Y-75438000D01*
X137287000Y-75438000D01*
X137287000Y-74078783D01*
X137054974Y-73957642D01*
X137039211Y-73960291D01*
X136763081Y-74061314D01*
X136511965Y-74214267D01*
X136295514Y-74413271D01*
X136147424Y-74615947D01*
X136126069Y-74575994D01*
X135938797Y-74347803D01*
X135710605Y-74160531D01*
X135450263Y-74021375D01*
X135167776Y-73935684D01*
X134874000Y-73906749D01*
X134580223Y-73935684D01*
X134297736Y-74021375D01*
X134037394Y-74160531D01*
X133809203Y-74347803D01*
X133621931Y-74575995D01*
X133604000Y-74609541D01*
X133586069Y-74575994D01*
X133398797Y-74347803D01*
X133170605Y-74160531D01*
X132910263Y-74021375D01*
X132627776Y-73935684D01*
X132334000Y-73906749D01*
X132040223Y-73935684D01*
X131757736Y-74021375D01*
X131497394Y-74160531D01*
X131269203Y-74347803D01*
X131081931Y-74575995D01*
X131064000Y-74609541D01*
X131046069Y-74575994D01*
X130858797Y-74347803D01*
X130630605Y-74160531D01*
X130370263Y-74021375D01*
X130087776Y-73935684D01*
X129794000Y-73906749D01*
X129500223Y-73935684D01*
X129217736Y-74021375D01*
X128957394Y-74160531D01*
X128729203Y-74347803D01*
X128541931Y-74575995D01*
X128402775Y-74836337D01*
X128317084Y-75118824D01*
X128295400Y-75338982D01*
X125043000Y-75338982D01*
X125043000Y-73735000D01*
X176328001Y-73735000D01*
X176328000Y-86013876D01*
G37*
G04 #@! TD.AperFunction*
D21*
X145138392Y-82165392D02*
X144959068Y-82383899D01*
X144825818Y-82633192D01*
X144743764Y-82903691D01*
X144716057Y-83185000D01*
X144743764Y-83466309D01*
X144825818Y-83736808D01*
X144959068Y-83986101D01*
X145138392Y-84204608D01*
X145356899Y-84383932D01*
X145489858Y-84455000D01*
X145356899Y-84526068D01*
X145138392Y-84705392D01*
X144959068Y-84923899D01*
X144825818Y-85173192D01*
X144743764Y-85443691D01*
X144716057Y-85725000D01*
X144743764Y-86006309D01*
X144825818Y-86276808D01*
X144959068Y-86526101D01*
X145138392Y-86744608D01*
X145356899Y-86923932D01*
X145489858Y-86995000D01*
X145356899Y-87066068D01*
X145138392Y-87245392D01*
X144959068Y-87463899D01*
X144825818Y-87713192D01*
X144743764Y-87983691D01*
X144716057Y-88265000D01*
X144743764Y-88546309D01*
X144825818Y-88816808D01*
X144959068Y-89066101D01*
X145138392Y-89284608D01*
X145251482Y-89377419D01*
X145233518Y-89379188D01*
X145113820Y-89415498D01*
X145003506Y-89474463D01*
X144906815Y-89553815D01*
X144827463Y-89650506D01*
X144768498Y-89760820D01*
X144732188Y-89880518D01*
X144719928Y-90005000D01*
X144719928Y-91605000D01*
X144732188Y-91729482D01*
X144768498Y-91849180D01*
X144827463Y-91959494D01*
X144906815Y-92056185D01*
X145003506Y-92135537D01*
X145113820Y-92194502D01*
X145233518Y-92230812D01*
X145358000Y-92243072D01*
X147758000Y-92243072D01*
X147882482Y-92230812D01*
X148002180Y-92194502D01*
X148112494Y-92135537D01*
X148209185Y-92056185D01*
X148288537Y-91959494D01*
X148347502Y-91849180D01*
X148383812Y-91729482D01*
X148396072Y-91605000D01*
X148396072Y-91565000D01*
X149487084Y-91565000D01*
X149575394Y-91672606D01*
X149702392Y-91776831D01*
X149847284Y-91854278D01*
X150004500Y-91901969D01*
X150168000Y-91918072D01*
X150568000Y-91918072D01*
X150731500Y-91901969D01*
X150888716Y-91854278D01*
X151033608Y-91776831D01*
X151160606Y-91672606D01*
X151193000Y-91633134D01*
X151225394Y-91672606D01*
X151313096Y-91744581D01*
X151301272Y-91746933D01*
X151131112Y-91817415D01*
X150977973Y-91919739D01*
X150847739Y-92049973D01*
X150745415Y-92203112D01*
X150674933Y-92373272D01*
X150650848Y-92494352D01*
X146611110Y-96534091D01*
X146599546Y-96520000D01*
X146638258Y-96472829D01*
X146711084Y-96336582D01*
X146755929Y-96188745D01*
X146771072Y-96035000D01*
X146771072Y-95735000D01*
X146755929Y-95581255D01*
X146711084Y-95433418D01*
X146638258Y-95297171D01*
X146540251Y-95177749D01*
X146420829Y-95079742D01*
X146284582Y-95006916D01*
X146136745Y-94962071D01*
X145983000Y-94946928D01*
X144333000Y-94946928D01*
X144179255Y-94962071D01*
X144031418Y-95006916D01*
X143895171Y-95079742D01*
X143775749Y-95177749D01*
X143677742Y-95297171D01*
X143659350Y-95331580D01*
X143642999Y-95344999D01*
X143619205Y-95373992D01*
X142237002Y-96756197D01*
X142207999Y-96779999D01*
X142160600Y-96837755D01*
X142113026Y-96895724D01*
X142077914Y-96961414D01*
X142042454Y-97027754D01*
X141998997Y-97171015D01*
X141988000Y-97282668D01*
X141988000Y-97282678D01*
X141984324Y-97320000D01*
X141988000Y-97357323D01*
X141988001Y-98745198D01*
X141798199Y-98935000D01*
X141729859Y-98935000D01*
X141761084Y-98876582D01*
X141805929Y-98728745D01*
X141821072Y-98575000D01*
X141821072Y-98275000D01*
X141805929Y-98121255D01*
X141761084Y-97973418D01*
X141688258Y-97837171D01*
X141649546Y-97790000D01*
X141688258Y-97742829D01*
X141761084Y-97606582D01*
X141805929Y-97458745D01*
X141821072Y-97305000D01*
X141821072Y-97005000D01*
X141805929Y-96851255D01*
X141761084Y-96703418D01*
X141688258Y-96567171D01*
X141649546Y-96520000D01*
X141688258Y-96472829D01*
X141761084Y-96336582D01*
X141805929Y-96188745D01*
X141821072Y-96035000D01*
X141821072Y-95735000D01*
X141805929Y-95581255D01*
X141761084Y-95433418D01*
X141688258Y-95297171D01*
X141590251Y-95177749D01*
X141470829Y-95079742D01*
X141334582Y-95006916D01*
X141186745Y-94962071D01*
X141033000Y-94946928D01*
X139383000Y-94946928D01*
X139229255Y-94962071D01*
X139081418Y-95006916D01*
X138945171Y-95079742D01*
X138825749Y-95177749D01*
X138727742Y-95297171D01*
X138654916Y-95433418D01*
X138610071Y-95581255D01*
X138594928Y-95735000D01*
X138594928Y-96035000D01*
X138610071Y-96188745D01*
X138654916Y-96336582D01*
X138686141Y-96395000D01*
X138213535Y-96395000D01*
X138110889Y-96326414D01*
X137940729Y-96255932D01*
X137760089Y-96220000D01*
X137603000Y-96220000D01*
X137603000Y-91896071D01*
X137635161Y-91927601D01*
X137871517Y-92082166D01*
X138133486Y-92187650D01*
X138411000Y-92240000D01*
X138811000Y-92240000D01*
X138811000Y-90932000D01*
X139065000Y-90932000D01*
X139065000Y-92240000D01*
X139465000Y-92240000D01*
X139742514Y-92187650D01*
X140004483Y-92082166D01*
X140240839Y-91927601D01*
X140442500Y-91729895D01*
X140601715Y-91496646D01*
X140712367Y-91236818D01*
X140729904Y-91154039D01*
X140607915Y-90932000D01*
X139065000Y-90932000D01*
X138811000Y-90932000D01*
X138791000Y-90932000D01*
X138791000Y-90678000D01*
X138811000Y-90678000D01*
X138811000Y-90658000D01*
X139065000Y-90658000D01*
X139065000Y-90678000D01*
X140607915Y-90678000D01*
X140729904Y-90455961D01*
X140712367Y-90373182D01*
X140601715Y-90113354D01*
X140442500Y-89880105D01*
X140240839Y-89682399D01*
X140011259Y-89532265D01*
X140139101Y-89463932D01*
X140357608Y-89284608D01*
X140536932Y-89066101D01*
X140670182Y-88816808D01*
X140752236Y-88546309D01*
X140779943Y-88265000D01*
X140752236Y-87983691D01*
X140670182Y-87713192D01*
X140536932Y-87463899D01*
X140357608Y-87245392D01*
X140139101Y-87066068D01*
X140006142Y-86995000D01*
X140139101Y-86923932D01*
X140357608Y-86744608D01*
X140536932Y-86526101D01*
X140670182Y-86276808D01*
X140752236Y-86006309D01*
X140779943Y-85725000D01*
X140752236Y-85443691D01*
X140670182Y-85173192D01*
X140536932Y-84923899D01*
X140357608Y-84705392D01*
X140139101Y-84526068D01*
X140011259Y-84457735D01*
X140240839Y-84307601D01*
X140442500Y-84109895D01*
X140601715Y-83876646D01*
X140712367Y-83616818D01*
X140729904Y-83534039D01*
X140607915Y-83312000D01*
X139065000Y-83312000D01*
X139065000Y-83332000D01*
X138811000Y-83332000D01*
X138811000Y-83312000D01*
X137268085Y-83312000D01*
X137146096Y-83534039D01*
X137163633Y-83616818D01*
X137274285Y-83876646D01*
X137433500Y-84109895D01*
X137635161Y-84307601D01*
X137864741Y-84457735D01*
X137736899Y-84526068D01*
X137518392Y-84705392D01*
X137339068Y-84923899D01*
X137205818Y-85173192D01*
X137123764Y-85443691D01*
X137096057Y-85725000D01*
X137123764Y-86006309D01*
X137205818Y-86276808D01*
X137339068Y-86526101D01*
X137518392Y-86744608D01*
X137736899Y-86923932D01*
X137869858Y-86995000D01*
X137736899Y-87066068D01*
X137518392Y-87245392D01*
X137339068Y-87463899D01*
X137252890Y-87625127D01*
X137243724Y-87630026D01*
X137127999Y-87724999D01*
X137104201Y-87753998D01*
X136331998Y-88526201D01*
X136303000Y-88549999D01*
X136279202Y-88578997D01*
X136279201Y-88578998D01*
X136208026Y-88665724D01*
X136137454Y-88797754D01*
X136107180Y-88897558D01*
X136093998Y-88941014D01*
X136086809Y-89014002D01*
X136079324Y-89090000D01*
X136083001Y-89127332D01*
X136083000Y-97201360D01*
X136038000Y-97196928D01*
X135488000Y-97196928D01*
X135324500Y-97213031D01*
X135167284Y-97260722D01*
X135022392Y-97338169D01*
X134895394Y-97442394D01*
X134791169Y-97569392D01*
X134713722Y-97714284D01*
X134666031Y-97871500D01*
X134649928Y-98035000D01*
X134649928Y-98435000D01*
X134666031Y-98598500D01*
X134713722Y-98755716D01*
X134791169Y-98900608D01*
X134895394Y-99027606D01*
X134934866Y-99060000D01*
X134895394Y-99092394D01*
X134791169Y-99219392D01*
X134713722Y-99364284D01*
X134687739Y-99449938D01*
X134618000Y-99380199D01*
X134618000Y-96834801D01*
X135004004Y-96448798D01*
X135033001Y-96425001D01*
X135127974Y-96309276D01*
X135198546Y-96177247D01*
X135242003Y-96033986D01*
X135253000Y-95922333D01*
X135253000Y-95922332D01*
X135256677Y-95885000D01*
X135253000Y-95847667D01*
X135253000Y-84769801D01*
X137160544Y-82862258D01*
X137268085Y-83058000D01*
X138811000Y-83058000D01*
X138811000Y-83038000D01*
X139065000Y-83038000D01*
X139065000Y-83058000D01*
X140607915Y-83058000D01*
X140729904Y-82835961D01*
X140712367Y-82753182D01*
X140601715Y-82493354D01*
X140442500Y-82260105D01*
X140240839Y-82062399D01*
X140206587Y-82040000D01*
X145291183Y-82040000D01*
X145138392Y-82165392D01*
G04 #@! TA.AperFunction,Conductor*
D22*
G36*
X145138392Y-82165392D02*
G01*
X144959068Y-82383899D01*
X144825818Y-82633192D01*
X144743764Y-82903691D01*
X144716057Y-83185000D01*
X144743764Y-83466309D01*
X144825818Y-83736808D01*
X144959068Y-83986101D01*
X145138392Y-84204608D01*
X145356899Y-84383932D01*
X145489858Y-84455000D01*
X145356899Y-84526068D01*
X145138392Y-84705392D01*
X144959068Y-84923899D01*
X144825818Y-85173192D01*
X144743764Y-85443691D01*
X144716057Y-85725000D01*
X144743764Y-86006309D01*
X144825818Y-86276808D01*
X144959068Y-86526101D01*
X145138392Y-86744608D01*
X145356899Y-86923932D01*
X145489858Y-86995000D01*
X145356899Y-87066068D01*
X145138392Y-87245392D01*
X144959068Y-87463899D01*
X144825818Y-87713192D01*
X144743764Y-87983691D01*
X144716057Y-88265000D01*
X144743764Y-88546309D01*
X144825818Y-88816808D01*
X144959068Y-89066101D01*
X145138392Y-89284608D01*
X145251482Y-89377419D01*
X145233518Y-89379188D01*
X145113820Y-89415498D01*
X145003506Y-89474463D01*
X144906815Y-89553815D01*
X144827463Y-89650506D01*
X144768498Y-89760820D01*
X144732188Y-89880518D01*
X144719928Y-90005000D01*
X144719928Y-91605000D01*
X144732188Y-91729482D01*
X144768498Y-91849180D01*
X144827463Y-91959494D01*
X144906815Y-92056185D01*
X145003506Y-92135537D01*
X145113820Y-92194502D01*
X145233518Y-92230812D01*
X145358000Y-92243072D01*
X147758000Y-92243072D01*
X147882482Y-92230812D01*
X148002180Y-92194502D01*
X148112494Y-92135537D01*
X148209185Y-92056185D01*
X148288537Y-91959494D01*
X148347502Y-91849180D01*
X148383812Y-91729482D01*
X148396072Y-91605000D01*
X148396072Y-91565000D01*
X149487084Y-91565000D01*
X149575394Y-91672606D01*
X149702392Y-91776831D01*
X149847284Y-91854278D01*
X150004500Y-91901969D01*
X150168000Y-91918072D01*
X150568000Y-91918072D01*
X150731500Y-91901969D01*
X150888716Y-91854278D01*
X151033608Y-91776831D01*
X151160606Y-91672606D01*
X151193000Y-91633134D01*
X151225394Y-91672606D01*
X151313096Y-91744581D01*
X151301272Y-91746933D01*
X151131112Y-91817415D01*
X150977973Y-91919739D01*
X150847739Y-92049973D01*
X150745415Y-92203112D01*
X150674933Y-92373272D01*
X150650848Y-92494352D01*
X146611110Y-96534091D01*
X146599546Y-96520000D01*
X146638258Y-96472829D01*
X146711084Y-96336582D01*
X146755929Y-96188745D01*
X146771072Y-96035000D01*
X146771072Y-95735000D01*
X146755929Y-95581255D01*
X146711084Y-95433418D01*
X146638258Y-95297171D01*
X146540251Y-95177749D01*
X146420829Y-95079742D01*
X146284582Y-95006916D01*
X146136745Y-94962071D01*
X145983000Y-94946928D01*
X144333000Y-94946928D01*
X144179255Y-94962071D01*
X144031418Y-95006916D01*
X143895171Y-95079742D01*
X143775749Y-95177749D01*
X143677742Y-95297171D01*
X143659350Y-95331580D01*
X143642999Y-95344999D01*
X143619205Y-95373992D01*
X142237002Y-96756197D01*
X142207999Y-96779999D01*
X142160600Y-96837755D01*
X142113026Y-96895724D01*
X142077914Y-96961414D01*
X142042454Y-97027754D01*
X141998997Y-97171015D01*
X141988000Y-97282668D01*
X141988000Y-97282678D01*
X141984324Y-97320000D01*
X141988000Y-97357323D01*
X141988001Y-98745198D01*
X141798199Y-98935000D01*
X141729859Y-98935000D01*
X141761084Y-98876582D01*
X141805929Y-98728745D01*
X141821072Y-98575000D01*
X141821072Y-98275000D01*
X141805929Y-98121255D01*
X141761084Y-97973418D01*
X141688258Y-97837171D01*
X141649546Y-97790000D01*
X141688258Y-97742829D01*
X141761084Y-97606582D01*
X141805929Y-97458745D01*
X141821072Y-97305000D01*
X141821072Y-97005000D01*
X141805929Y-96851255D01*
X141761084Y-96703418D01*
X141688258Y-96567171D01*
X141649546Y-96520000D01*
X141688258Y-96472829D01*
X141761084Y-96336582D01*
X141805929Y-96188745D01*
X141821072Y-96035000D01*
X141821072Y-95735000D01*
X141805929Y-95581255D01*
X141761084Y-95433418D01*
X141688258Y-95297171D01*
X141590251Y-95177749D01*
X141470829Y-95079742D01*
X141334582Y-95006916D01*
X141186745Y-94962071D01*
X141033000Y-94946928D01*
X139383000Y-94946928D01*
X139229255Y-94962071D01*
X139081418Y-95006916D01*
X138945171Y-95079742D01*
X138825749Y-95177749D01*
X138727742Y-95297171D01*
X138654916Y-95433418D01*
X138610071Y-95581255D01*
X138594928Y-95735000D01*
X138594928Y-96035000D01*
X138610071Y-96188745D01*
X138654916Y-96336582D01*
X138686141Y-96395000D01*
X138213535Y-96395000D01*
X138110889Y-96326414D01*
X137940729Y-96255932D01*
X137760089Y-96220000D01*
X137603000Y-96220000D01*
X137603000Y-91896071D01*
X137635161Y-91927601D01*
X137871517Y-92082166D01*
X138133486Y-92187650D01*
X138411000Y-92240000D01*
X138811000Y-92240000D01*
X138811000Y-90932000D01*
X139065000Y-90932000D01*
X139065000Y-92240000D01*
X139465000Y-92240000D01*
X139742514Y-92187650D01*
X140004483Y-92082166D01*
X140240839Y-91927601D01*
X140442500Y-91729895D01*
X140601715Y-91496646D01*
X140712367Y-91236818D01*
X140729904Y-91154039D01*
X140607915Y-90932000D01*
X139065000Y-90932000D01*
X138811000Y-90932000D01*
X138791000Y-90932000D01*
X138791000Y-90678000D01*
X138811000Y-90678000D01*
X138811000Y-90658000D01*
X139065000Y-90658000D01*
X139065000Y-90678000D01*
X140607915Y-90678000D01*
X140729904Y-90455961D01*
X140712367Y-90373182D01*
X140601715Y-90113354D01*
X140442500Y-89880105D01*
X140240839Y-89682399D01*
X140011259Y-89532265D01*
X140139101Y-89463932D01*
X140357608Y-89284608D01*
X140536932Y-89066101D01*
X140670182Y-88816808D01*
X140752236Y-88546309D01*
X140779943Y-88265000D01*
X140752236Y-87983691D01*
X140670182Y-87713192D01*
X140536932Y-87463899D01*
X140357608Y-87245392D01*
X140139101Y-87066068D01*
X140006142Y-86995000D01*
X140139101Y-86923932D01*
X140357608Y-86744608D01*
X140536932Y-86526101D01*
X140670182Y-86276808D01*
X140752236Y-86006309D01*
X140779943Y-85725000D01*
X140752236Y-85443691D01*
X140670182Y-85173192D01*
X140536932Y-84923899D01*
X140357608Y-84705392D01*
X140139101Y-84526068D01*
X140011259Y-84457735D01*
X140240839Y-84307601D01*
X140442500Y-84109895D01*
X140601715Y-83876646D01*
X140712367Y-83616818D01*
X140729904Y-83534039D01*
X140607915Y-83312000D01*
X139065000Y-83312000D01*
X139065000Y-83332000D01*
X138811000Y-83332000D01*
X138811000Y-83312000D01*
X137268085Y-83312000D01*
X137146096Y-83534039D01*
X137163633Y-83616818D01*
X137274285Y-83876646D01*
X137433500Y-84109895D01*
X137635161Y-84307601D01*
X137864741Y-84457735D01*
X137736899Y-84526068D01*
X137518392Y-84705392D01*
X137339068Y-84923899D01*
X137205818Y-85173192D01*
X137123764Y-85443691D01*
X137096057Y-85725000D01*
X137123764Y-86006309D01*
X137205818Y-86276808D01*
X137339068Y-86526101D01*
X137518392Y-86744608D01*
X137736899Y-86923932D01*
X137869858Y-86995000D01*
X137736899Y-87066068D01*
X137518392Y-87245392D01*
X137339068Y-87463899D01*
X137252890Y-87625127D01*
X137243724Y-87630026D01*
X137127999Y-87724999D01*
X137104201Y-87753998D01*
X136331998Y-88526201D01*
X136303000Y-88549999D01*
X136279202Y-88578997D01*
X136279201Y-88578998D01*
X136208026Y-88665724D01*
X136137454Y-88797754D01*
X136107180Y-88897558D01*
X136093998Y-88941014D01*
X136086809Y-89014002D01*
X136079324Y-89090000D01*
X136083001Y-89127332D01*
X136083000Y-97201360D01*
X136038000Y-97196928D01*
X135488000Y-97196928D01*
X135324500Y-97213031D01*
X135167284Y-97260722D01*
X135022392Y-97338169D01*
X134895394Y-97442394D01*
X134791169Y-97569392D01*
X134713722Y-97714284D01*
X134666031Y-97871500D01*
X134649928Y-98035000D01*
X134649928Y-98435000D01*
X134666031Y-98598500D01*
X134713722Y-98755716D01*
X134791169Y-98900608D01*
X134895394Y-99027606D01*
X134934866Y-99060000D01*
X134895394Y-99092394D01*
X134791169Y-99219392D01*
X134713722Y-99364284D01*
X134687739Y-99449938D01*
X134618000Y-99380199D01*
X134618000Y-96834801D01*
X135004004Y-96448798D01*
X135033001Y-96425001D01*
X135127974Y-96309276D01*
X135198546Y-96177247D01*
X135242003Y-96033986D01*
X135253000Y-95922333D01*
X135253000Y-95922332D01*
X135256677Y-95885000D01*
X135253000Y-95847667D01*
X135253000Y-84769801D01*
X137160544Y-82862258D01*
X137268085Y-83058000D01*
X138811000Y-83058000D01*
X138811000Y-83038000D01*
X139065000Y-83038000D01*
X139065000Y-83058000D01*
X140607915Y-83058000D01*
X140729904Y-82835961D01*
X140712367Y-82753182D01*
X140601715Y-82493354D01*
X140442500Y-82260105D01*
X140240839Y-82062399D01*
X140206587Y-82040000D01*
X145291183Y-82040000D01*
X145138392Y-82165392D01*
G37*
G04 #@! TD.AperFunction*
D21*
X162156038Y-87201013D02*
X162341987Y-87386962D01*
X162453229Y-87461291D01*
X162451336Y-87468731D01*
X163193000Y-88210395D01*
X163207143Y-88196253D01*
X163386748Y-88375858D01*
X163372605Y-88390000D01*
X163386748Y-88404143D01*
X163207143Y-88583748D01*
X163193000Y-88569605D01*
X162451336Y-89311269D01*
X162453229Y-89318709D01*
X162341987Y-89393038D01*
X162156038Y-89578987D01*
X162095225Y-89670000D01*
X157657802Y-89670000D01*
X158863329Y-88464473D01*
X161853610Y-88464473D01*
X161893875Y-88724344D01*
X161984065Y-88971366D01*
X162037963Y-89072203D01*
X162271731Y-89131664D01*
X163013395Y-88390000D01*
X162271731Y-87648336D01*
X162037963Y-87707797D01*
X161927066Y-87946242D01*
X161864817Y-88201740D01*
X161853610Y-88464473D01*
X158863329Y-88464473D01*
X160217802Y-87110000D01*
X162095225Y-87110000D01*
X162156038Y-87201013D01*
G04 #@! TA.AperFunction,Conductor*
D22*
G36*
X162156038Y-87201013D02*
G01*
X162341987Y-87386962D01*
X162453229Y-87461291D01*
X162451336Y-87468731D01*
X163193000Y-88210395D01*
X163207143Y-88196253D01*
X163386748Y-88375858D01*
X163372605Y-88390000D01*
X163386748Y-88404143D01*
X163207143Y-88583748D01*
X163193000Y-88569605D01*
X162451336Y-89311269D01*
X162453229Y-89318709D01*
X162341987Y-89393038D01*
X162156038Y-89578987D01*
X162095225Y-89670000D01*
X157657802Y-89670000D01*
X158863329Y-88464473D01*
X161853610Y-88464473D01*
X161893875Y-88724344D01*
X161984065Y-88971366D01*
X162037963Y-89072203D01*
X162271731Y-89131664D01*
X163013395Y-88390000D01*
X162271731Y-87648336D01*
X162037963Y-87707797D01*
X161927066Y-87946242D01*
X161864817Y-88201740D01*
X161853610Y-88464473D01*
X158863329Y-88464473D01*
X160217802Y-87110000D01*
X162095225Y-87110000D01*
X162156038Y-87201013D01*
G37*
G04 #@! TD.AperFunction*
M02*
