G04 #@! TF.GenerationSoftware,KiCad,Pcbnew,(5.1.9)-1*
G04 #@! TF.CreationDate,2021-06-09T23:06:16+02:00*
G04 #@! TF.ProjectId,interface,696e7465-7266-4616-9365-2e6b69636164,rev?*
G04 #@! TF.SameCoordinates,Original*
G04 #@! TF.FileFunction,Paste,Top*
G04 #@! TF.FilePolarity,Positive*
%FSLAX46Y46*%
G04 Gerber Fmt 4.6, Leading zero omitted, Abs format (unit mm)*
G04 Created by KiCad (PCBNEW (5.1.9)-1) date 2021-06-09 23:06:16*
%MOMM*%
%LPD*%
G01*
G04 APERTURE LIST*
%ADD10R,1.600000X0.550000*%
%ADD11R,0.550000X1.600000*%
G04 APERTURE END LIST*
G36*
G01*
X153312000Y-107974000D02*
X153012000Y-107974000D01*
G75*
G02*
X152862000Y-107824000I0J150000D01*
G01*
X152862000Y-106174000D01*
G75*
G02*
X153012000Y-106024000I150000J0D01*
G01*
X153312000Y-106024000D01*
G75*
G02*
X153462000Y-106174000I0J-150000D01*
G01*
X153462000Y-107824000D01*
G75*
G02*
X153312000Y-107974000I-150000J0D01*
G01*
G37*
G36*
G01*
X154582000Y-107974000D02*
X154282000Y-107974000D01*
G75*
G02*
X154132000Y-107824000I0J150000D01*
G01*
X154132000Y-106174000D01*
G75*
G02*
X154282000Y-106024000I150000J0D01*
G01*
X154582000Y-106024000D01*
G75*
G02*
X154732000Y-106174000I0J-150000D01*
G01*
X154732000Y-107824000D01*
G75*
G02*
X154582000Y-107974000I-150000J0D01*
G01*
G37*
G36*
G01*
X155852000Y-107974000D02*
X155552000Y-107974000D01*
G75*
G02*
X155402000Y-107824000I0J150000D01*
G01*
X155402000Y-106174000D01*
G75*
G02*
X155552000Y-106024000I150000J0D01*
G01*
X155852000Y-106024000D01*
G75*
G02*
X156002000Y-106174000I0J-150000D01*
G01*
X156002000Y-107824000D01*
G75*
G02*
X155852000Y-107974000I-150000J0D01*
G01*
G37*
G36*
G01*
X157122000Y-107974000D02*
X156822000Y-107974000D01*
G75*
G02*
X156672000Y-107824000I0J150000D01*
G01*
X156672000Y-106174000D01*
G75*
G02*
X156822000Y-106024000I150000J0D01*
G01*
X157122000Y-106024000D01*
G75*
G02*
X157272000Y-106174000I0J-150000D01*
G01*
X157272000Y-107824000D01*
G75*
G02*
X157122000Y-107974000I-150000J0D01*
G01*
G37*
G36*
G01*
X158392000Y-107974000D02*
X158092000Y-107974000D01*
G75*
G02*
X157942000Y-107824000I0J150000D01*
G01*
X157942000Y-106174000D01*
G75*
G02*
X158092000Y-106024000I150000J0D01*
G01*
X158392000Y-106024000D01*
G75*
G02*
X158542000Y-106174000I0J-150000D01*
G01*
X158542000Y-107824000D01*
G75*
G02*
X158392000Y-107974000I-150000J0D01*
G01*
G37*
G36*
G01*
X159662000Y-107974000D02*
X159362000Y-107974000D01*
G75*
G02*
X159212000Y-107824000I0J150000D01*
G01*
X159212000Y-106174000D01*
G75*
G02*
X159362000Y-106024000I150000J0D01*
G01*
X159662000Y-106024000D01*
G75*
G02*
X159812000Y-106174000I0J-150000D01*
G01*
X159812000Y-107824000D01*
G75*
G02*
X159662000Y-107974000I-150000J0D01*
G01*
G37*
G36*
G01*
X160932000Y-107974000D02*
X160632000Y-107974000D01*
G75*
G02*
X160482000Y-107824000I0J150000D01*
G01*
X160482000Y-106174000D01*
G75*
G02*
X160632000Y-106024000I150000J0D01*
G01*
X160932000Y-106024000D01*
G75*
G02*
X161082000Y-106174000I0J-150000D01*
G01*
X161082000Y-107824000D01*
G75*
G02*
X160932000Y-107974000I-150000J0D01*
G01*
G37*
G36*
G01*
X162202000Y-107974000D02*
X161902000Y-107974000D01*
G75*
G02*
X161752000Y-107824000I0J150000D01*
G01*
X161752000Y-106174000D01*
G75*
G02*
X161902000Y-106024000I150000J0D01*
G01*
X162202000Y-106024000D01*
G75*
G02*
X162352000Y-106174000I0J-150000D01*
G01*
X162352000Y-107824000D01*
G75*
G02*
X162202000Y-107974000I-150000J0D01*
G01*
G37*
G36*
G01*
X162202000Y-112924000D02*
X161902000Y-112924000D01*
G75*
G02*
X161752000Y-112774000I0J150000D01*
G01*
X161752000Y-111124000D01*
G75*
G02*
X161902000Y-110974000I150000J0D01*
G01*
X162202000Y-110974000D01*
G75*
G02*
X162352000Y-111124000I0J-150000D01*
G01*
X162352000Y-112774000D01*
G75*
G02*
X162202000Y-112924000I-150000J0D01*
G01*
G37*
G36*
G01*
X160932000Y-112924000D02*
X160632000Y-112924000D01*
G75*
G02*
X160482000Y-112774000I0J150000D01*
G01*
X160482000Y-111124000D01*
G75*
G02*
X160632000Y-110974000I150000J0D01*
G01*
X160932000Y-110974000D01*
G75*
G02*
X161082000Y-111124000I0J-150000D01*
G01*
X161082000Y-112774000D01*
G75*
G02*
X160932000Y-112924000I-150000J0D01*
G01*
G37*
G36*
G01*
X159662000Y-112924000D02*
X159362000Y-112924000D01*
G75*
G02*
X159212000Y-112774000I0J150000D01*
G01*
X159212000Y-111124000D01*
G75*
G02*
X159362000Y-110974000I150000J0D01*
G01*
X159662000Y-110974000D01*
G75*
G02*
X159812000Y-111124000I0J-150000D01*
G01*
X159812000Y-112774000D01*
G75*
G02*
X159662000Y-112924000I-150000J0D01*
G01*
G37*
G36*
G01*
X158392000Y-112924000D02*
X158092000Y-112924000D01*
G75*
G02*
X157942000Y-112774000I0J150000D01*
G01*
X157942000Y-111124000D01*
G75*
G02*
X158092000Y-110974000I150000J0D01*
G01*
X158392000Y-110974000D01*
G75*
G02*
X158542000Y-111124000I0J-150000D01*
G01*
X158542000Y-112774000D01*
G75*
G02*
X158392000Y-112924000I-150000J0D01*
G01*
G37*
G36*
G01*
X157122000Y-112924000D02*
X156822000Y-112924000D01*
G75*
G02*
X156672000Y-112774000I0J150000D01*
G01*
X156672000Y-111124000D01*
G75*
G02*
X156822000Y-110974000I150000J0D01*
G01*
X157122000Y-110974000D01*
G75*
G02*
X157272000Y-111124000I0J-150000D01*
G01*
X157272000Y-112774000D01*
G75*
G02*
X157122000Y-112924000I-150000J0D01*
G01*
G37*
G36*
G01*
X155852000Y-112924000D02*
X155552000Y-112924000D01*
G75*
G02*
X155402000Y-112774000I0J150000D01*
G01*
X155402000Y-111124000D01*
G75*
G02*
X155552000Y-110974000I150000J0D01*
G01*
X155852000Y-110974000D01*
G75*
G02*
X156002000Y-111124000I0J-150000D01*
G01*
X156002000Y-112774000D01*
G75*
G02*
X155852000Y-112924000I-150000J0D01*
G01*
G37*
G36*
G01*
X154582000Y-112924000D02*
X154282000Y-112924000D01*
G75*
G02*
X154132000Y-112774000I0J150000D01*
G01*
X154132000Y-111124000D01*
G75*
G02*
X154282000Y-110974000I150000J0D01*
G01*
X154582000Y-110974000D01*
G75*
G02*
X154732000Y-111124000I0J-150000D01*
G01*
X154732000Y-112774000D01*
G75*
G02*
X154582000Y-112924000I-150000J0D01*
G01*
G37*
G36*
G01*
X153312000Y-112924000D02*
X153012000Y-112924000D01*
G75*
G02*
X152862000Y-112774000I0J150000D01*
G01*
X152862000Y-111124000D01*
G75*
G02*
X153012000Y-110974000I150000J0D01*
G01*
X153312000Y-110974000D01*
G75*
G02*
X153462000Y-111124000I0J-150000D01*
G01*
X153462000Y-112774000D01*
G75*
G02*
X153312000Y-112924000I-150000J0D01*
G01*
G37*
G36*
G01*
X165377000Y-89559000D02*
X165077000Y-89559000D01*
G75*
G02*
X164927000Y-89409000I0J150000D01*
G01*
X164927000Y-87759000D01*
G75*
G02*
X165077000Y-87609000I150000J0D01*
G01*
X165377000Y-87609000D01*
G75*
G02*
X165527000Y-87759000I0J-150000D01*
G01*
X165527000Y-89409000D01*
G75*
G02*
X165377000Y-89559000I-150000J0D01*
G01*
G37*
G36*
G01*
X166647000Y-89559000D02*
X166347000Y-89559000D01*
G75*
G02*
X166197000Y-89409000I0J150000D01*
G01*
X166197000Y-87759000D01*
G75*
G02*
X166347000Y-87609000I150000J0D01*
G01*
X166647000Y-87609000D01*
G75*
G02*
X166797000Y-87759000I0J-150000D01*
G01*
X166797000Y-89409000D01*
G75*
G02*
X166647000Y-89559000I-150000J0D01*
G01*
G37*
G36*
G01*
X167917000Y-89559000D02*
X167617000Y-89559000D01*
G75*
G02*
X167467000Y-89409000I0J150000D01*
G01*
X167467000Y-87759000D01*
G75*
G02*
X167617000Y-87609000I150000J0D01*
G01*
X167917000Y-87609000D01*
G75*
G02*
X168067000Y-87759000I0J-150000D01*
G01*
X168067000Y-89409000D01*
G75*
G02*
X167917000Y-89559000I-150000J0D01*
G01*
G37*
G36*
G01*
X169187000Y-89559000D02*
X168887000Y-89559000D01*
G75*
G02*
X168737000Y-89409000I0J150000D01*
G01*
X168737000Y-87759000D01*
G75*
G02*
X168887000Y-87609000I150000J0D01*
G01*
X169187000Y-87609000D01*
G75*
G02*
X169337000Y-87759000I0J-150000D01*
G01*
X169337000Y-89409000D01*
G75*
G02*
X169187000Y-89559000I-150000J0D01*
G01*
G37*
G36*
G01*
X170457000Y-89559000D02*
X170157000Y-89559000D01*
G75*
G02*
X170007000Y-89409000I0J150000D01*
G01*
X170007000Y-87759000D01*
G75*
G02*
X170157000Y-87609000I150000J0D01*
G01*
X170457000Y-87609000D01*
G75*
G02*
X170607000Y-87759000I0J-150000D01*
G01*
X170607000Y-89409000D01*
G75*
G02*
X170457000Y-89559000I-150000J0D01*
G01*
G37*
G36*
G01*
X171727000Y-89559000D02*
X171427000Y-89559000D01*
G75*
G02*
X171277000Y-89409000I0J150000D01*
G01*
X171277000Y-87759000D01*
G75*
G02*
X171427000Y-87609000I150000J0D01*
G01*
X171727000Y-87609000D01*
G75*
G02*
X171877000Y-87759000I0J-150000D01*
G01*
X171877000Y-89409000D01*
G75*
G02*
X171727000Y-89559000I-150000J0D01*
G01*
G37*
G36*
G01*
X172997000Y-89559000D02*
X172697000Y-89559000D01*
G75*
G02*
X172547000Y-89409000I0J150000D01*
G01*
X172547000Y-87759000D01*
G75*
G02*
X172697000Y-87609000I150000J0D01*
G01*
X172997000Y-87609000D01*
G75*
G02*
X173147000Y-87759000I0J-150000D01*
G01*
X173147000Y-89409000D01*
G75*
G02*
X172997000Y-89559000I-150000J0D01*
G01*
G37*
G36*
G01*
X174267000Y-89559000D02*
X173967000Y-89559000D01*
G75*
G02*
X173817000Y-89409000I0J150000D01*
G01*
X173817000Y-87759000D01*
G75*
G02*
X173967000Y-87609000I150000J0D01*
G01*
X174267000Y-87609000D01*
G75*
G02*
X174417000Y-87759000I0J-150000D01*
G01*
X174417000Y-89409000D01*
G75*
G02*
X174267000Y-89559000I-150000J0D01*
G01*
G37*
G36*
G01*
X174267000Y-94509000D02*
X173967000Y-94509000D01*
G75*
G02*
X173817000Y-94359000I0J150000D01*
G01*
X173817000Y-92709000D01*
G75*
G02*
X173967000Y-92559000I150000J0D01*
G01*
X174267000Y-92559000D01*
G75*
G02*
X174417000Y-92709000I0J-150000D01*
G01*
X174417000Y-94359000D01*
G75*
G02*
X174267000Y-94509000I-150000J0D01*
G01*
G37*
G36*
G01*
X172997000Y-94509000D02*
X172697000Y-94509000D01*
G75*
G02*
X172547000Y-94359000I0J150000D01*
G01*
X172547000Y-92709000D01*
G75*
G02*
X172697000Y-92559000I150000J0D01*
G01*
X172997000Y-92559000D01*
G75*
G02*
X173147000Y-92709000I0J-150000D01*
G01*
X173147000Y-94359000D01*
G75*
G02*
X172997000Y-94509000I-150000J0D01*
G01*
G37*
G36*
G01*
X171727000Y-94509000D02*
X171427000Y-94509000D01*
G75*
G02*
X171277000Y-94359000I0J150000D01*
G01*
X171277000Y-92709000D01*
G75*
G02*
X171427000Y-92559000I150000J0D01*
G01*
X171727000Y-92559000D01*
G75*
G02*
X171877000Y-92709000I0J-150000D01*
G01*
X171877000Y-94359000D01*
G75*
G02*
X171727000Y-94509000I-150000J0D01*
G01*
G37*
G36*
G01*
X170457000Y-94509000D02*
X170157000Y-94509000D01*
G75*
G02*
X170007000Y-94359000I0J150000D01*
G01*
X170007000Y-92709000D01*
G75*
G02*
X170157000Y-92559000I150000J0D01*
G01*
X170457000Y-92559000D01*
G75*
G02*
X170607000Y-92709000I0J-150000D01*
G01*
X170607000Y-94359000D01*
G75*
G02*
X170457000Y-94509000I-150000J0D01*
G01*
G37*
G36*
G01*
X169187000Y-94509000D02*
X168887000Y-94509000D01*
G75*
G02*
X168737000Y-94359000I0J150000D01*
G01*
X168737000Y-92709000D01*
G75*
G02*
X168887000Y-92559000I150000J0D01*
G01*
X169187000Y-92559000D01*
G75*
G02*
X169337000Y-92709000I0J-150000D01*
G01*
X169337000Y-94359000D01*
G75*
G02*
X169187000Y-94509000I-150000J0D01*
G01*
G37*
G36*
G01*
X167917000Y-94509000D02*
X167617000Y-94509000D01*
G75*
G02*
X167467000Y-94359000I0J150000D01*
G01*
X167467000Y-92709000D01*
G75*
G02*
X167617000Y-92559000I150000J0D01*
G01*
X167917000Y-92559000D01*
G75*
G02*
X168067000Y-92709000I0J-150000D01*
G01*
X168067000Y-94359000D01*
G75*
G02*
X167917000Y-94509000I-150000J0D01*
G01*
G37*
G36*
G01*
X166647000Y-94509000D02*
X166347000Y-94509000D01*
G75*
G02*
X166197000Y-94359000I0J150000D01*
G01*
X166197000Y-92709000D01*
G75*
G02*
X166347000Y-92559000I150000J0D01*
G01*
X166647000Y-92559000D01*
G75*
G02*
X166797000Y-92709000I0J-150000D01*
G01*
X166797000Y-94359000D01*
G75*
G02*
X166647000Y-94509000I-150000J0D01*
G01*
G37*
G36*
G01*
X165377000Y-94509000D02*
X165077000Y-94509000D01*
G75*
G02*
X164927000Y-94359000I0J150000D01*
G01*
X164927000Y-92709000D01*
G75*
G02*
X165077000Y-92559000I150000J0D01*
G01*
X165377000Y-92559000D01*
G75*
G02*
X165527000Y-92709000I0J-150000D01*
G01*
X165527000Y-94359000D01*
G75*
G02*
X165377000Y-94509000I-150000J0D01*
G01*
G37*
G36*
G01*
X109498000Y-122405000D02*
X109498000Y-122705000D01*
G75*
G02*
X109348000Y-122855000I-150000J0D01*
G01*
X107698000Y-122855000D01*
G75*
G02*
X107548000Y-122705000I0J150000D01*
G01*
X107548000Y-122405000D01*
G75*
G02*
X107698000Y-122255000I150000J0D01*
G01*
X109348000Y-122255000D01*
G75*
G02*
X109498000Y-122405000I0J-150000D01*
G01*
G37*
G36*
G01*
X109498000Y-121135000D02*
X109498000Y-121435000D01*
G75*
G02*
X109348000Y-121585000I-150000J0D01*
G01*
X107698000Y-121585000D01*
G75*
G02*
X107548000Y-121435000I0J150000D01*
G01*
X107548000Y-121135000D01*
G75*
G02*
X107698000Y-120985000I150000J0D01*
G01*
X109348000Y-120985000D01*
G75*
G02*
X109498000Y-121135000I0J-150000D01*
G01*
G37*
G36*
G01*
X109498000Y-119865000D02*
X109498000Y-120165000D01*
G75*
G02*
X109348000Y-120315000I-150000J0D01*
G01*
X107698000Y-120315000D01*
G75*
G02*
X107548000Y-120165000I0J150000D01*
G01*
X107548000Y-119865000D01*
G75*
G02*
X107698000Y-119715000I150000J0D01*
G01*
X109348000Y-119715000D01*
G75*
G02*
X109498000Y-119865000I0J-150000D01*
G01*
G37*
G36*
G01*
X109498000Y-118595000D02*
X109498000Y-118895000D01*
G75*
G02*
X109348000Y-119045000I-150000J0D01*
G01*
X107698000Y-119045000D01*
G75*
G02*
X107548000Y-118895000I0J150000D01*
G01*
X107548000Y-118595000D01*
G75*
G02*
X107698000Y-118445000I150000J0D01*
G01*
X109348000Y-118445000D01*
G75*
G02*
X109498000Y-118595000I0J-150000D01*
G01*
G37*
G36*
G01*
X109498000Y-117325000D02*
X109498000Y-117625000D01*
G75*
G02*
X109348000Y-117775000I-150000J0D01*
G01*
X107698000Y-117775000D01*
G75*
G02*
X107548000Y-117625000I0J150000D01*
G01*
X107548000Y-117325000D01*
G75*
G02*
X107698000Y-117175000I150000J0D01*
G01*
X109348000Y-117175000D01*
G75*
G02*
X109498000Y-117325000I0J-150000D01*
G01*
G37*
G36*
G01*
X109498000Y-116055000D02*
X109498000Y-116355000D01*
G75*
G02*
X109348000Y-116505000I-150000J0D01*
G01*
X107698000Y-116505000D01*
G75*
G02*
X107548000Y-116355000I0J150000D01*
G01*
X107548000Y-116055000D01*
G75*
G02*
X107698000Y-115905000I150000J0D01*
G01*
X109348000Y-115905000D01*
G75*
G02*
X109498000Y-116055000I0J-150000D01*
G01*
G37*
G36*
G01*
X109498000Y-114785000D02*
X109498000Y-115085000D01*
G75*
G02*
X109348000Y-115235000I-150000J0D01*
G01*
X107698000Y-115235000D01*
G75*
G02*
X107548000Y-115085000I0J150000D01*
G01*
X107548000Y-114785000D01*
G75*
G02*
X107698000Y-114635000I150000J0D01*
G01*
X109348000Y-114635000D01*
G75*
G02*
X109498000Y-114785000I0J-150000D01*
G01*
G37*
G36*
G01*
X109498000Y-113515000D02*
X109498000Y-113815000D01*
G75*
G02*
X109348000Y-113965000I-150000J0D01*
G01*
X107698000Y-113965000D01*
G75*
G02*
X107548000Y-113815000I0J150000D01*
G01*
X107548000Y-113515000D01*
G75*
G02*
X107698000Y-113365000I150000J0D01*
G01*
X109348000Y-113365000D01*
G75*
G02*
X109498000Y-113515000I0J-150000D01*
G01*
G37*
G36*
G01*
X114448000Y-113515000D02*
X114448000Y-113815000D01*
G75*
G02*
X114298000Y-113965000I-150000J0D01*
G01*
X112648000Y-113965000D01*
G75*
G02*
X112498000Y-113815000I0J150000D01*
G01*
X112498000Y-113515000D01*
G75*
G02*
X112648000Y-113365000I150000J0D01*
G01*
X114298000Y-113365000D01*
G75*
G02*
X114448000Y-113515000I0J-150000D01*
G01*
G37*
G36*
G01*
X114448000Y-114785000D02*
X114448000Y-115085000D01*
G75*
G02*
X114298000Y-115235000I-150000J0D01*
G01*
X112648000Y-115235000D01*
G75*
G02*
X112498000Y-115085000I0J150000D01*
G01*
X112498000Y-114785000D01*
G75*
G02*
X112648000Y-114635000I150000J0D01*
G01*
X114298000Y-114635000D01*
G75*
G02*
X114448000Y-114785000I0J-150000D01*
G01*
G37*
G36*
G01*
X114448000Y-116055000D02*
X114448000Y-116355000D01*
G75*
G02*
X114298000Y-116505000I-150000J0D01*
G01*
X112648000Y-116505000D01*
G75*
G02*
X112498000Y-116355000I0J150000D01*
G01*
X112498000Y-116055000D01*
G75*
G02*
X112648000Y-115905000I150000J0D01*
G01*
X114298000Y-115905000D01*
G75*
G02*
X114448000Y-116055000I0J-150000D01*
G01*
G37*
G36*
G01*
X114448000Y-117325000D02*
X114448000Y-117625000D01*
G75*
G02*
X114298000Y-117775000I-150000J0D01*
G01*
X112648000Y-117775000D01*
G75*
G02*
X112498000Y-117625000I0J150000D01*
G01*
X112498000Y-117325000D01*
G75*
G02*
X112648000Y-117175000I150000J0D01*
G01*
X114298000Y-117175000D01*
G75*
G02*
X114448000Y-117325000I0J-150000D01*
G01*
G37*
G36*
G01*
X114448000Y-118595000D02*
X114448000Y-118895000D01*
G75*
G02*
X114298000Y-119045000I-150000J0D01*
G01*
X112648000Y-119045000D01*
G75*
G02*
X112498000Y-118895000I0J150000D01*
G01*
X112498000Y-118595000D01*
G75*
G02*
X112648000Y-118445000I150000J0D01*
G01*
X114298000Y-118445000D01*
G75*
G02*
X114448000Y-118595000I0J-150000D01*
G01*
G37*
G36*
G01*
X114448000Y-119865000D02*
X114448000Y-120165000D01*
G75*
G02*
X114298000Y-120315000I-150000J0D01*
G01*
X112648000Y-120315000D01*
G75*
G02*
X112498000Y-120165000I0J150000D01*
G01*
X112498000Y-119865000D01*
G75*
G02*
X112648000Y-119715000I150000J0D01*
G01*
X114298000Y-119715000D01*
G75*
G02*
X114448000Y-119865000I0J-150000D01*
G01*
G37*
G36*
G01*
X114448000Y-121135000D02*
X114448000Y-121435000D01*
G75*
G02*
X114298000Y-121585000I-150000J0D01*
G01*
X112648000Y-121585000D01*
G75*
G02*
X112498000Y-121435000I0J150000D01*
G01*
X112498000Y-121135000D01*
G75*
G02*
X112648000Y-120985000I150000J0D01*
G01*
X114298000Y-120985000D01*
G75*
G02*
X114448000Y-121135000I0J-150000D01*
G01*
G37*
G36*
G01*
X114448000Y-122405000D02*
X114448000Y-122705000D01*
G75*
G02*
X114298000Y-122855000I-150000J0D01*
G01*
X112648000Y-122855000D01*
G75*
G02*
X112498000Y-122705000I0J150000D01*
G01*
X112498000Y-122405000D01*
G75*
G02*
X112648000Y-122255000I150000J0D01*
G01*
X114298000Y-122255000D01*
G75*
G02*
X114448000Y-122405000I0J-150000D01*
G01*
G37*
G36*
G01*
X165377000Y-107974000D02*
X165077000Y-107974000D01*
G75*
G02*
X164927000Y-107824000I0J150000D01*
G01*
X164927000Y-106174000D01*
G75*
G02*
X165077000Y-106024000I150000J0D01*
G01*
X165377000Y-106024000D01*
G75*
G02*
X165527000Y-106174000I0J-150000D01*
G01*
X165527000Y-107824000D01*
G75*
G02*
X165377000Y-107974000I-150000J0D01*
G01*
G37*
G36*
G01*
X166647000Y-107974000D02*
X166347000Y-107974000D01*
G75*
G02*
X166197000Y-107824000I0J150000D01*
G01*
X166197000Y-106174000D01*
G75*
G02*
X166347000Y-106024000I150000J0D01*
G01*
X166647000Y-106024000D01*
G75*
G02*
X166797000Y-106174000I0J-150000D01*
G01*
X166797000Y-107824000D01*
G75*
G02*
X166647000Y-107974000I-150000J0D01*
G01*
G37*
G36*
G01*
X167917000Y-107974000D02*
X167617000Y-107974000D01*
G75*
G02*
X167467000Y-107824000I0J150000D01*
G01*
X167467000Y-106174000D01*
G75*
G02*
X167617000Y-106024000I150000J0D01*
G01*
X167917000Y-106024000D01*
G75*
G02*
X168067000Y-106174000I0J-150000D01*
G01*
X168067000Y-107824000D01*
G75*
G02*
X167917000Y-107974000I-150000J0D01*
G01*
G37*
G36*
G01*
X169187000Y-107974000D02*
X168887000Y-107974000D01*
G75*
G02*
X168737000Y-107824000I0J150000D01*
G01*
X168737000Y-106174000D01*
G75*
G02*
X168887000Y-106024000I150000J0D01*
G01*
X169187000Y-106024000D01*
G75*
G02*
X169337000Y-106174000I0J-150000D01*
G01*
X169337000Y-107824000D01*
G75*
G02*
X169187000Y-107974000I-150000J0D01*
G01*
G37*
G36*
G01*
X170457000Y-107974000D02*
X170157000Y-107974000D01*
G75*
G02*
X170007000Y-107824000I0J150000D01*
G01*
X170007000Y-106174000D01*
G75*
G02*
X170157000Y-106024000I150000J0D01*
G01*
X170457000Y-106024000D01*
G75*
G02*
X170607000Y-106174000I0J-150000D01*
G01*
X170607000Y-107824000D01*
G75*
G02*
X170457000Y-107974000I-150000J0D01*
G01*
G37*
G36*
G01*
X171727000Y-107974000D02*
X171427000Y-107974000D01*
G75*
G02*
X171277000Y-107824000I0J150000D01*
G01*
X171277000Y-106174000D01*
G75*
G02*
X171427000Y-106024000I150000J0D01*
G01*
X171727000Y-106024000D01*
G75*
G02*
X171877000Y-106174000I0J-150000D01*
G01*
X171877000Y-107824000D01*
G75*
G02*
X171727000Y-107974000I-150000J0D01*
G01*
G37*
G36*
G01*
X172997000Y-107974000D02*
X172697000Y-107974000D01*
G75*
G02*
X172547000Y-107824000I0J150000D01*
G01*
X172547000Y-106174000D01*
G75*
G02*
X172697000Y-106024000I150000J0D01*
G01*
X172997000Y-106024000D01*
G75*
G02*
X173147000Y-106174000I0J-150000D01*
G01*
X173147000Y-107824000D01*
G75*
G02*
X172997000Y-107974000I-150000J0D01*
G01*
G37*
G36*
G01*
X174267000Y-107974000D02*
X173967000Y-107974000D01*
G75*
G02*
X173817000Y-107824000I0J150000D01*
G01*
X173817000Y-106174000D01*
G75*
G02*
X173967000Y-106024000I150000J0D01*
G01*
X174267000Y-106024000D01*
G75*
G02*
X174417000Y-106174000I0J-150000D01*
G01*
X174417000Y-107824000D01*
G75*
G02*
X174267000Y-107974000I-150000J0D01*
G01*
G37*
G36*
G01*
X174267000Y-112924000D02*
X173967000Y-112924000D01*
G75*
G02*
X173817000Y-112774000I0J150000D01*
G01*
X173817000Y-111124000D01*
G75*
G02*
X173967000Y-110974000I150000J0D01*
G01*
X174267000Y-110974000D01*
G75*
G02*
X174417000Y-111124000I0J-150000D01*
G01*
X174417000Y-112774000D01*
G75*
G02*
X174267000Y-112924000I-150000J0D01*
G01*
G37*
G36*
G01*
X172997000Y-112924000D02*
X172697000Y-112924000D01*
G75*
G02*
X172547000Y-112774000I0J150000D01*
G01*
X172547000Y-111124000D01*
G75*
G02*
X172697000Y-110974000I150000J0D01*
G01*
X172997000Y-110974000D01*
G75*
G02*
X173147000Y-111124000I0J-150000D01*
G01*
X173147000Y-112774000D01*
G75*
G02*
X172997000Y-112924000I-150000J0D01*
G01*
G37*
G36*
G01*
X171727000Y-112924000D02*
X171427000Y-112924000D01*
G75*
G02*
X171277000Y-112774000I0J150000D01*
G01*
X171277000Y-111124000D01*
G75*
G02*
X171427000Y-110974000I150000J0D01*
G01*
X171727000Y-110974000D01*
G75*
G02*
X171877000Y-111124000I0J-150000D01*
G01*
X171877000Y-112774000D01*
G75*
G02*
X171727000Y-112924000I-150000J0D01*
G01*
G37*
G36*
G01*
X170457000Y-112924000D02*
X170157000Y-112924000D01*
G75*
G02*
X170007000Y-112774000I0J150000D01*
G01*
X170007000Y-111124000D01*
G75*
G02*
X170157000Y-110974000I150000J0D01*
G01*
X170457000Y-110974000D01*
G75*
G02*
X170607000Y-111124000I0J-150000D01*
G01*
X170607000Y-112774000D01*
G75*
G02*
X170457000Y-112924000I-150000J0D01*
G01*
G37*
G36*
G01*
X169187000Y-112924000D02*
X168887000Y-112924000D01*
G75*
G02*
X168737000Y-112774000I0J150000D01*
G01*
X168737000Y-111124000D01*
G75*
G02*
X168887000Y-110974000I150000J0D01*
G01*
X169187000Y-110974000D01*
G75*
G02*
X169337000Y-111124000I0J-150000D01*
G01*
X169337000Y-112774000D01*
G75*
G02*
X169187000Y-112924000I-150000J0D01*
G01*
G37*
G36*
G01*
X167917000Y-112924000D02*
X167617000Y-112924000D01*
G75*
G02*
X167467000Y-112774000I0J150000D01*
G01*
X167467000Y-111124000D01*
G75*
G02*
X167617000Y-110974000I150000J0D01*
G01*
X167917000Y-110974000D01*
G75*
G02*
X168067000Y-111124000I0J-150000D01*
G01*
X168067000Y-112774000D01*
G75*
G02*
X167917000Y-112924000I-150000J0D01*
G01*
G37*
G36*
G01*
X166647000Y-112924000D02*
X166347000Y-112924000D01*
G75*
G02*
X166197000Y-112774000I0J150000D01*
G01*
X166197000Y-111124000D01*
G75*
G02*
X166347000Y-110974000I150000J0D01*
G01*
X166647000Y-110974000D01*
G75*
G02*
X166797000Y-111124000I0J-150000D01*
G01*
X166797000Y-112774000D01*
G75*
G02*
X166647000Y-112924000I-150000J0D01*
G01*
G37*
G36*
G01*
X165377000Y-112924000D02*
X165077000Y-112924000D01*
G75*
G02*
X164927000Y-112774000I0J150000D01*
G01*
X164927000Y-111124000D01*
G75*
G02*
X165077000Y-110974000I150000J0D01*
G01*
X165377000Y-110974000D01*
G75*
G02*
X165527000Y-111124000I0J-150000D01*
G01*
X165527000Y-112774000D01*
G75*
G02*
X165377000Y-112924000I-150000J0D01*
G01*
G37*
G36*
G01*
X153312000Y-89559000D02*
X153012000Y-89559000D01*
G75*
G02*
X152862000Y-89409000I0J150000D01*
G01*
X152862000Y-87759000D01*
G75*
G02*
X153012000Y-87609000I150000J0D01*
G01*
X153312000Y-87609000D01*
G75*
G02*
X153462000Y-87759000I0J-150000D01*
G01*
X153462000Y-89409000D01*
G75*
G02*
X153312000Y-89559000I-150000J0D01*
G01*
G37*
G36*
G01*
X154582000Y-89559000D02*
X154282000Y-89559000D01*
G75*
G02*
X154132000Y-89409000I0J150000D01*
G01*
X154132000Y-87759000D01*
G75*
G02*
X154282000Y-87609000I150000J0D01*
G01*
X154582000Y-87609000D01*
G75*
G02*
X154732000Y-87759000I0J-150000D01*
G01*
X154732000Y-89409000D01*
G75*
G02*
X154582000Y-89559000I-150000J0D01*
G01*
G37*
G36*
G01*
X155852000Y-89559000D02*
X155552000Y-89559000D01*
G75*
G02*
X155402000Y-89409000I0J150000D01*
G01*
X155402000Y-87759000D01*
G75*
G02*
X155552000Y-87609000I150000J0D01*
G01*
X155852000Y-87609000D01*
G75*
G02*
X156002000Y-87759000I0J-150000D01*
G01*
X156002000Y-89409000D01*
G75*
G02*
X155852000Y-89559000I-150000J0D01*
G01*
G37*
G36*
G01*
X157122000Y-89559000D02*
X156822000Y-89559000D01*
G75*
G02*
X156672000Y-89409000I0J150000D01*
G01*
X156672000Y-87759000D01*
G75*
G02*
X156822000Y-87609000I150000J0D01*
G01*
X157122000Y-87609000D01*
G75*
G02*
X157272000Y-87759000I0J-150000D01*
G01*
X157272000Y-89409000D01*
G75*
G02*
X157122000Y-89559000I-150000J0D01*
G01*
G37*
G36*
G01*
X158392000Y-89559000D02*
X158092000Y-89559000D01*
G75*
G02*
X157942000Y-89409000I0J150000D01*
G01*
X157942000Y-87759000D01*
G75*
G02*
X158092000Y-87609000I150000J0D01*
G01*
X158392000Y-87609000D01*
G75*
G02*
X158542000Y-87759000I0J-150000D01*
G01*
X158542000Y-89409000D01*
G75*
G02*
X158392000Y-89559000I-150000J0D01*
G01*
G37*
G36*
G01*
X159662000Y-89559000D02*
X159362000Y-89559000D01*
G75*
G02*
X159212000Y-89409000I0J150000D01*
G01*
X159212000Y-87759000D01*
G75*
G02*
X159362000Y-87609000I150000J0D01*
G01*
X159662000Y-87609000D01*
G75*
G02*
X159812000Y-87759000I0J-150000D01*
G01*
X159812000Y-89409000D01*
G75*
G02*
X159662000Y-89559000I-150000J0D01*
G01*
G37*
G36*
G01*
X160932000Y-89559000D02*
X160632000Y-89559000D01*
G75*
G02*
X160482000Y-89409000I0J150000D01*
G01*
X160482000Y-87759000D01*
G75*
G02*
X160632000Y-87609000I150000J0D01*
G01*
X160932000Y-87609000D01*
G75*
G02*
X161082000Y-87759000I0J-150000D01*
G01*
X161082000Y-89409000D01*
G75*
G02*
X160932000Y-89559000I-150000J0D01*
G01*
G37*
G36*
G01*
X162202000Y-89559000D02*
X161902000Y-89559000D01*
G75*
G02*
X161752000Y-89409000I0J150000D01*
G01*
X161752000Y-87759000D01*
G75*
G02*
X161902000Y-87609000I150000J0D01*
G01*
X162202000Y-87609000D01*
G75*
G02*
X162352000Y-87759000I0J-150000D01*
G01*
X162352000Y-89409000D01*
G75*
G02*
X162202000Y-89559000I-150000J0D01*
G01*
G37*
G36*
G01*
X162202000Y-94509000D02*
X161902000Y-94509000D01*
G75*
G02*
X161752000Y-94359000I0J150000D01*
G01*
X161752000Y-92709000D01*
G75*
G02*
X161902000Y-92559000I150000J0D01*
G01*
X162202000Y-92559000D01*
G75*
G02*
X162352000Y-92709000I0J-150000D01*
G01*
X162352000Y-94359000D01*
G75*
G02*
X162202000Y-94509000I-150000J0D01*
G01*
G37*
G36*
G01*
X160932000Y-94509000D02*
X160632000Y-94509000D01*
G75*
G02*
X160482000Y-94359000I0J150000D01*
G01*
X160482000Y-92709000D01*
G75*
G02*
X160632000Y-92559000I150000J0D01*
G01*
X160932000Y-92559000D01*
G75*
G02*
X161082000Y-92709000I0J-150000D01*
G01*
X161082000Y-94359000D01*
G75*
G02*
X160932000Y-94509000I-150000J0D01*
G01*
G37*
G36*
G01*
X159662000Y-94509000D02*
X159362000Y-94509000D01*
G75*
G02*
X159212000Y-94359000I0J150000D01*
G01*
X159212000Y-92709000D01*
G75*
G02*
X159362000Y-92559000I150000J0D01*
G01*
X159662000Y-92559000D01*
G75*
G02*
X159812000Y-92709000I0J-150000D01*
G01*
X159812000Y-94359000D01*
G75*
G02*
X159662000Y-94509000I-150000J0D01*
G01*
G37*
G36*
G01*
X158392000Y-94509000D02*
X158092000Y-94509000D01*
G75*
G02*
X157942000Y-94359000I0J150000D01*
G01*
X157942000Y-92709000D01*
G75*
G02*
X158092000Y-92559000I150000J0D01*
G01*
X158392000Y-92559000D01*
G75*
G02*
X158542000Y-92709000I0J-150000D01*
G01*
X158542000Y-94359000D01*
G75*
G02*
X158392000Y-94509000I-150000J0D01*
G01*
G37*
G36*
G01*
X157122000Y-94509000D02*
X156822000Y-94509000D01*
G75*
G02*
X156672000Y-94359000I0J150000D01*
G01*
X156672000Y-92709000D01*
G75*
G02*
X156822000Y-92559000I150000J0D01*
G01*
X157122000Y-92559000D01*
G75*
G02*
X157272000Y-92709000I0J-150000D01*
G01*
X157272000Y-94359000D01*
G75*
G02*
X157122000Y-94509000I-150000J0D01*
G01*
G37*
G36*
G01*
X155852000Y-94509000D02*
X155552000Y-94509000D01*
G75*
G02*
X155402000Y-94359000I0J150000D01*
G01*
X155402000Y-92709000D01*
G75*
G02*
X155552000Y-92559000I150000J0D01*
G01*
X155852000Y-92559000D01*
G75*
G02*
X156002000Y-92709000I0J-150000D01*
G01*
X156002000Y-94359000D01*
G75*
G02*
X155852000Y-94509000I-150000J0D01*
G01*
G37*
G36*
G01*
X154582000Y-94509000D02*
X154282000Y-94509000D01*
G75*
G02*
X154132000Y-94359000I0J150000D01*
G01*
X154132000Y-92709000D01*
G75*
G02*
X154282000Y-92559000I150000J0D01*
G01*
X154582000Y-92559000D01*
G75*
G02*
X154732000Y-92709000I0J-150000D01*
G01*
X154732000Y-94359000D01*
G75*
G02*
X154582000Y-94509000I-150000J0D01*
G01*
G37*
G36*
G01*
X153312000Y-94509000D02*
X153012000Y-94509000D01*
G75*
G02*
X152862000Y-94359000I0J150000D01*
G01*
X152862000Y-92709000D01*
G75*
G02*
X153012000Y-92559000I150000J0D01*
G01*
X153312000Y-92559000D01*
G75*
G02*
X153462000Y-92709000I0J-150000D01*
G01*
X153462000Y-94359000D01*
G75*
G02*
X153312000Y-94509000I-150000J0D01*
G01*
G37*
G36*
G01*
X165377000Y-71144000D02*
X165077000Y-71144000D01*
G75*
G02*
X164927000Y-70994000I0J150000D01*
G01*
X164927000Y-69344000D01*
G75*
G02*
X165077000Y-69194000I150000J0D01*
G01*
X165377000Y-69194000D01*
G75*
G02*
X165527000Y-69344000I0J-150000D01*
G01*
X165527000Y-70994000D01*
G75*
G02*
X165377000Y-71144000I-150000J0D01*
G01*
G37*
G36*
G01*
X166647000Y-71144000D02*
X166347000Y-71144000D01*
G75*
G02*
X166197000Y-70994000I0J150000D01*
G01*
X166197000Y-69344000D01*
G75*
G02*
X166347000Y-69194000I150000J0D01*
G01*
X166647000Y-69194000D01*
G75*
G02*
X166797000Y-69344000I0J-150000D01*
G01*
X166797000Y-70994000D01*
G75*
G02*
X166647000Y-71144000I-150000J0D01*
G01*
G37*
G36*
G01*
X167917000Y-71144000D02*
X167617000Y-71144000D01*
G75*
G02*
X167467000Y-70994000I0J150000D01*
G01*
X167467000Y-69344000D01*
G75*
G02*
X167617000Y-69194000I150000J0D01*
G01*
X167917000Y-69194000D01*
G75*
G02*
X168067000Y-69344000I0J-150000D01*
G01*
X168067000Y-70994000D01*
G75*
G02*
X167917000Y-71144000I-150000J0D01*
G01*
G37*
G36*
G01*
X169187000Y-71144000D02*
X168887000Y-71144000D01*
G75*
G02*
X168737000Y-70994000I0J150000D01*
G01*
X168737000Y-69344000D01*
G75*
G02*
X168887000Y-69194000I150000J0D01*
G01*
X169187000Y-69194000D01*
G75*
G02*
X169337000Y-69344000I0J-150000D01*
G01*
X169337000Y-70994000D01*
G75*
G02*
X169187000Y-71144000I-150000J0D01*
G01*
G37*
G36*
G01*
X170457000Y-71144000D02*
X170157000Y-71144000D01*
G75*
G02*
X170007000Y-70994000I0J150000D01*
G01*
X170007000Y-69344000D01*
G75*
G02*
X170157000Y-69194000I150000J0D01*
G01*
X170457000Y-69194000D01*
G75*
G02*
X170607000Y-69344000I0J-150000D01*
G01*
X170607000Y-70994000D01*
G75*
G02*
X170457000Y-71144000I-150000J0D01*
G01*
G37*
G36*
G01*
X171727000Y-71144000D02*
X171427000Y-71144000D01*
G75*
G02*
X171277000Y-70994000I0J150000D01*
G01*
X171277000Y-69344000D01*
G75*
G02*
X171427000Y-69194000I150000J0D01*
G01*
X171727000Y-69194000D01*
G75*
G02*
X171877000Y-69344000I0J-150000D01*
G01*
X171877000Y-70994000D01*
G75*
G02*
X171727000Y-71144000I-150000J0D01*
G01*
G37*
G36*
G01*
X172997000Y-71144000D02*
X172697000Y-71144000D01*
G75*
G02*
X172547000Y-70994000I0J150000D01*
G01*
X172547000Y-69344000D01*
G75*
G02*
X172697000Y-69194000I150000J0D01*
G01*
X172997000Y-69194000D01*
G75*
G02*
X173147000Y-69344000I0J-150000D01*
G01*
X173147000Y-70994000D01*
G75*
G02*
X172997000Y-71144000I-150000J0D01*
G01*
G37*
G36*
G01*
X174267000Y-71144000D02*
X173967000Y-71144000D01*
G75*
G02*
X173817000Y-70994000I0J150000D01*
G01*
X173817000Y-69344000D01*
G75*
G02*
X173967000Y-69194000I150000J0D01*
G01*
X174267000Y-69194000D01*
G75*
G02*
X174417000Y-69344000I0J-150000D01*
G01*
X174417000Y-70994000D01*
G75*
G02*
X174267000Y-71144000I-150000J0D01*
G01*
G37*
G36*
G01*
X174267000Y-76094000D02*
X173967000Y-76094000D01*
G75*
G02*
X173817000Y-75944000I0J150000D01*
G01*
X173817000Y-74294000D01*
G75*
G02*
X173967000Y-74144000I150000J0D01*
G01*
X174267000Y-74144000D01*
G75*
G02*
X174417000Y-74294000I0J-150000D01*
G01*
X174417000Y-75944000D01*
G75*
G02*
X174267000Y-76094000I-150000J0D01*
G01*
G37*
G36*
G01*
X172997000Y-76094000D02*
X172697000Y-76094000D01*
G75*
G02*
X172547000Y-75944000I0J150000D01*
G01*
X172547000Y-74294000D01*
G75*
G02*
X172697000Y-74144000I150000J0D01*
G01*
X172997000Y-74144000D01*
G75*
G02*
X173147000Y-74294000I0J-150000D01*
G01*
X173147000Y-75944000D01*
G75*
G02*
X172997000Y-76094000I-150000J0D01*
G01*
G37*
G36*
G01*
X171727000Y-76094000D02*
X171427000Y-76094000D01*
G75*
G02*
X171277000Y-75944000I0J150000D01*
G01*
X171277000Y-74294000D01*
G75*
G02*
X171427000Y-74144000I150000J0D01*
G01*
X171727000Y-74144000D01*
G75*
G02*
X171877000Y-74294000I0J-150000D01*
G01*
X171877000Y-75944000D01*
G75*
G02*
X171727000Y-76094000I-150000J0D01*
G01*
G37*
G36*
G01*
X170457000Y-76094000D02*
X170157000Y-76094000D01*
G75*
G02*
X170007000Y-75944000I0J150000D01*
G01*
X170007000Y-74294000D01*
G75*
G02*
X170157000Y-74144000I150000J0D01*
G01*
X170457000Y-74144000D01*
G75*
G02*
X170607000Y-74294000I0J-150000D01*
G01*
X170607000Y-75944000D01*
G75*
G02*
X170457000Y-76094000I-150000J0D01*
G01*
G37*
G36*
G01*
X169187000Y-76094000D02*
X168887000Y-76094000D01*
G75*
G02*
X168737000Y-75944000I0J150000D01*
G01*
X168737000Y-74294000D01*
G75*
G02*
X168887000Y-74144000I150000J0D01*
G01*
X169187000Y-74144000D01*
G75*
G02*
X169337000Y-74294000I0J-150000D01*
G01*
X169337000Y-75944000D01*
G75*
G02*
X169187000Y-76094000I-150000J0D01*
G01*
G37*
G36*
G01*
X167917000Y-76094000D02*
X167617000Y-76094000D01*
G75*
G02*
X167467000Y-75944000I0J150000D01*
G01*
X167467000Y-74294000D01*
G75*
G02*
X167617000Y-74144000I150000J0D01*
G01*
X167917000Y-74144000D01*
G75*
G02*
X168067000Y-74294000I0J-150000D01*
G01*
X168067000Y-75944000D01*
G75*
G02*
X167917000Y-76094000I-150000J0D01*
G01*
G37*
G36*
G01*
X166647000Y-76094000D02*
X166347000Y-76094000D01*
G75*
G02*
X166197000Y-75944000I0J150000D01*
G01*
X166197000Y-74294000D01*
G75*
G02*
X166347000Y-74144000I150000J0D01*
G01*
X166647000Y-74144000D01*
G75*
G02*
X166797000Y-74294000I0J-150000D01*
G01*
X166797000Y-75944000D01*
G75*
G02*
X166647000Y-76094000I-150000J0D01*
G01*
G37*
G36*
G01*
X165377000Y-76094000D02*
X165077000Y-76094000D01*
G75*
G02*
X164927000Y-75944000I0J150000D01*
G01*
X164927000Y-74294000D01*
G75*
G02*
X165077000Y-74144000I150000J0D01*
G01*
X165377000Y-74144000D01*
G75*
G02*
X165527000Y-74294000I0J-150000D01*
G01*
X165527000Y-75944000D01*
G75*
G02*
X165377000Y-76094000I-150000J0D01*
G01*
G37*
G36*
G01*
X153312000Y-71144000D02*
X153012000Y-71144000D01*
G75*
G02*
X152862000Y-70994000I0J150000D01*
G01*
X152862000Y-69344000D01*
G75*
G02*
X153012000Y-69194000I150000J0D01*
G01*
X153312000Y-69194000D01*
G75*
G02*
X153462000Y-69344000I0J-150000D01*
G01*
X153462000Y-70994000D01*
G75*
G02*
X153312000Y-71144000I-150000J0D01*
G01*
G37*
G36*
G01*
X154582000Y-71144000D02*
X154282000Y-71144000D01*
G75*
G02*
X154132000Y-70994000I0J150000D01*
G01*
X154132000Y-69344000D01*
G75*
G02*
X154282000Y-69194000I150000J0D01*
G01*
X154582000Y-69194000D01*
G75*
G02*
X154732000Y-69344000I0J-150000D01*
G01*
X154732000Y-70994000D01*
G75*
G02*
X154582000Y-71144000I-150000J0D01*
G01*
G37*
G36*
G01*
X155852000Y-71144000D02*
X155552000Y-71144000D01*
G75*
G02*
X155402000Y-70994000I0J150000D01*
G01*
X155402000Y-69344000D01*
G75*
G02*
X155552000Y-69194000I150000J0D01*
G01*
X155852000Y-69194000D01*
G75*
G02*
X156002000Y-69344000I0J-150000D01*
G01*
X156002000Y-70994000D01*
G75*
G02*
X155852000Y-71144000I-150000J0D01*
G01*
G37*
G36*
G01*
X157122000Y-71144000D02*
X156822000Y-71144000D01*
G75*
G02*
X156672000Y-70994000I0J150000D01*
G01*
X156672000Y-69344000D01*
G75*
G02*
X156822000Y-69194000I150000J0D01*
G01*
X157122000Y-69194000D01*
G75*
G02*
X157272000Y-69344000I0J-150000D01*
G01*
X157272000Y-70994000D01*
G75*
G02*
X157122000Y-71144000I-150000J0D01*
G01*
G37*
G36*
G01*
X158392000Y-71144000D02*
X158092000Y-71144000D01*
G75*
G02*
X157942000Y-70994000I0J150000D01*
G01*
X157942000Y-69344000D01*
G75*
G02*
X158092000Y-69194000I150000J0D01*
G01*
X158392000Y-69194000D01*
G75*
G02*
X158542000Y-69344000I0J-150000D01*
G01*
X158542000Y-70994000D01*
G75*
G02*
X158392000Y-71144000I-150000J0D01*
G01*
G37*
G36*
G01*
X159662000Y-71144000D02*
X159362000Y-71144000D01*
G75*
G02*
X159212000Y-70994000I0J150000D01*
G01*
X159212000Y-69344000D01*
G75*
G02*
X159362000Y-69194000I150000J0D01*
G01*
X159662000Y-69194000D01*
G75*
G02*
X159812000Y-69344000I0J-150000D01*
G01*
X159812000Y-70994000D01*
G75*
G02*
X159662000Y-71144000I-150000J0D01*
G01*
G37*
G36*
G01*
X160932000Y-71144000D02*
X160632000Y-71144000D01*
G75*
G02*
X160482000Y-70994000I0J150000D01*
G01*
X160482000Y-69344000D01*
G75*
G02*
X160632000Y-69194000I150000J0D01*
G01*
X160932000Y-69194000D01*
G75*
G02*
X161082000Y-69344000I0J-150000D01*
G01*
X161082000Y-70994000D01*
G75*
G02*
X160932000Y-71144000I-150000J0D01*
G01*
G37*
G36*
G01*
X162202000Y-71144000D02*
X161902000Y-71144000D01*
G75*
G02*
X161752000Y-70994000I0J150000D01*
G01*
X161752000Y-69344000D01*
G75*
G02*
X161902000Y-69194000I150000J0D01*
G01*
X162202000Y-69194000D01*
G75*
G02*
X162352000Y-69344000I0J-150000D01*
G01*
X162352000Y-70994000D01*
G75*
G02*
X162202000Y-71144000I-150000J0D01*
G01*
G37*
G36*
G01*
X162202000Y-76094000D02*
X161902000Y-76094000D01*
G75*
G02*
X161752000Y-75944000I0J150000D01*
G01*
X161752000Y-74294000D01*
G75*
G02*
X161902000Y-74144000I150000J0D01*
G01*
X162202000Y-74144000D01*
G75*
G02*
X162352000Y-74294000I0J-150000D01*
G01*
X162352000Y-75944000D01*
G75*
G02*
X162202000Y-76094000I-150000J0D01*
G01*
G37*
G36*
G01*
X160932000Y-76094000D02*
X160632000Y-76094000D01*
G75*
G02*
X160482000Y-75944000I0J150000D01*
G01*
X160482000Y-74294000D01*
G75*
G02*
X160632000Y-74144000I150000J0D01*
G01*
X160932000Y-74144000D01*
G75*
G02*
X161082000Y-74294000I0J-150000D01*
G01*
X161082000Y-75944000D01*
G75*
G02*
X160932000Y-76094000I-150000J0D01*
G01*
G37*
G36*
G01*
X159662000Y-76094000D02*
X159362000Y-76094000D01*
G75*
G02*
X159212000Y-75944000I0J150000D01*
G01*
X159212000Y-74294000D01*
G75*
G02*
X159362000Y-74144000I150000J0D01*
G01*
X159662000Y-74144000D01*
G75*
G02*
X159812000Y-74294000I0J-150000D01*
G01*
X159812000Y-75944000D01*
G75*
G02*
X159662000Y-76094000I-150000J0D01*
G01*
G37*
G36*
G01*
X158392000Y-76094000D02*
X158092000Y-76094000D01*
G75*
G02*
X157942000Y-75944000I0J150000D01*
G01*
X157942000Y-74294000D01*
G75*
G02*
X158092000Y-74144000I150000J0D01*
G01*
X158392000Y-74144000D01*
G75*
G02*
X158542000Y-74294000I0J-150000D01*
G01*
X158542000Y-75944000D01*
G75*
G02*
X158392000Y-76094000I-150000J0D01*
G01*
G37*
G36*
G01*
X157122000Y-76094000D02*
X156822000Y-76094000D01*
G75*
G02*
X156672000Y-75944000I0J150000D01*
G01*
X156672000Y-74294000D01*
G75*
G02*
X156822000Y-74144000I150000J0D01*
G01*
X157122000Y-74144000D01*
G75*
G02*
X157272000Y-74294000I0J-150000D01*
G01*
X157272000Y-75944000D01*
G75*
G02*
X157122000Y-76094000I-150000J0D01*
G01*
G37*
G36*
G01*
X155852000Y-76094000D02*
X155552000Y-76094000D01*
G75*
G02*
X155402000Y-75944000I0J150000D01*
G01*
X155402000Y-74294000D01*
G75*
G02*
X155552000Y-74144000I150000J0D01*
G01*
X155852000Y-74144000D01*
G75*
G02*
X156002000Y-74294000I0J-150000D01*
G01*
X156002000Y-75944000D01*
G75*
G02*
X155852000Y-76094000I-150000J0D01*
G01*
G37*
G36*
G01*
X154582000Y-76094000D02*
X154282000Y-76094000D01*
G75*
G02*
X154132000Y-75944000I0J150000D01*
G01*
X154132000Y-74294000D01*
G75*
G02*
X154282000Y-74144000I150000J0D01*
G01*
X154582000Y-74144000D01*
G75*
G02*
X154732000Y-74294000I0J-150000D01*
G01*
X154732000Y-75944000D01*
G75*
G02*
X154582000Y-76094000I-150000J0D01*
G01*
G37*
G36*
G01*
X153312000Y-76094000D02*
X153012000Y-76094000D01*
G75*
G02*
X152862000Y-75944000I0J150000D01*
G01*
X152862000Y-74294000D01*
G75*
G02*
X153012000Y-74144000I150000J0D01*
G01*
X153312000Y-74144000D01*
G75*
G02*
X153462000Y-74294000I0J-150000D01*
G01*
X153462000Y-75944000D01*
G75*
G02*
X153312000Y-76094000I-150000J0D01*
G01*
G37*
G36*
G01*
X144883000Y-113815000D02*
X144883000Y-113515000D01*
G75*
G02*
X145033000Y-113365000I150000J0D01*
G01*
X146683000Y-113365000D01*
G75*
G02*
X146833000Y-113515000I0J-150000D01*
G01*
X146833000Y-113815000D01*
G75*
G02*
X146683000Y-113965000I-150000J0D01*
G01*
X145033000Y-113965000D01*
G75*
G02*
X144883000Y-113815000I0J150000D01*
G01*
G37*
G36*
G01*
X144883000Y-115085000D02*
X144883000Y-114785000D01*
G75*
G02*
X145033000Y-114635000I150000J0D01*
G01*
X146683000Y-114635000D01*
G75*
G02*
X146833000Y-114785000I0J-150000D01*
G01*
X146833000Y-115085000D01*
G75*
G02*
X146683000Y-115235000I-150000J0D01*
G01*
X145033000Y-115235000D01*
G75*
G02*
X144883000Y-115085000I0J150000D01*
G01*
G37*
G36*
G01*
X144883000Y-116355000D02*
X144883000Y-116055000D01*
G75*
G02*
X145033000Y-115905000I150000J0D01*
G01*
X146683000Y-115905000D01*
G75*
G02*
X146833000Y-116055000I0J-150000D01*
G01*
X146833000Y-116355000D01*
G75*
G02*
X146683000Y-116505000I-150000J0D01*
G01*
X145033000Y-116505000D01*
G75*
G02*
X144883000Y-116355000I0J150000D01*
G01*
G37*
G36*
G01*
X144883000Y-117625000D02*
X144883000Y-117325000D01*
G75*
G02*
X145033000Y-117175000I150000J0D01*
G01*
X146683000Y-117175000D01*
G75*
G02*
X146833000Y-117325000I0J-150000D01*
G01*
X146833000Y-117625000D01*
G75*
G02*
X146683000Y-117775000I-150000J0D01*
G01*
X145033000Y-117775000D01*
G75*
G02*
X144883000Y-117625000I0J150000D01*
G01*
G37*
G36*
G01*
X144883000Y-118895000D02*
X144883000Y-118595000D01*
G75*
G02*
X145033000Y-118445000I150000J0D01*
G01*
X146683000Y-118445000D01*
G75*
G02*
X146833000Y-118595000I0J-150000D01*
G01*
X146833000Y-118895000D01*
G75*
G02*
X146683000Y-119045000I-150000J0D01*
G01*
X145033000Y-119045000D01*
G75*
G02*
X144883000Y-118895000I0J150000D01*
G01*
G37*
G36*
G01*
X144883000Y-120165000D02*
X144883000Y-119865000D01*
G75*
G02*
X145033000Y-119715000I150000J0D01*
G01*
X146683000Y-119715000D01*
G75*
G02*
X146833000Y-119865000I0J-150000D01*
G01*
X146833000Y-120165000D01*
G75*
G02*
X146683000Y-120315000I-150000J0D01*
G01*
X145033000Y-120315000D01*
G75*
G02*
X144883000Y-120165000I0J150000D01*
G01*
G37*
G36*
G01*
X144883000Y-121435000D02*
X144883000Y-121135000D01*
G75*
G02*
X145033000Y-120985000I150000J0D01*
G01*
X146683000Y-120985000D01*
G75*
G02*
X146833000Y-121135000I0J-150000D01*
G01*
X146833000Y-121435000D01*
G75*
G02*
X146683000Y-121585000I-150000J0D01*
G01*
X145033000Y-121585000D01*
G75*
G02*
X144883000Y-121435000I0J150000D01*
G01*
G37*
G36*
G01*
X144883000Y-122705000D02*
X144883000Y-122405000D01*
G75*
G02*
X145033000Y-122255000I150000J0D01*
G01*
X146683000Y-122255000D01*
G75*
G02*
X146833000Y-122405000I0J-150000D01*
G01*
X146833000Y-122705000D01*
G75*
G02*
X146683000Y-122855000I-150000J0D01*
G01*
X145033000Y-122855000D01*
G75*
G02*
X144883000Y-122705000I0J150000D01*
G01*
G37*
G36*
G01*
X139933000Y-122705000D02*
X139933000Y-122405000D01*
G75*
G02*
X140083000Y-122255000I150000J0D01*
G01*
X141733000Y-122255000D01*
G75*
G02*
X141883000Y-122405000I0J-150000D01*
G01*
X141883000Y-122705000D01*
G75*
G02*
X141733000Y-122855000I-150000J0D01*
G01*
X140083000Y-122855000D01*
G75*
G02*
X139933000Y-122705000I0J150000D01*
G01*
G37*
G36*
G01*
X139933000Y-121435000D02*
X139933000Y-121135000D01*
G75*
G02*
X140083000Y-120985000I150000J0D01*
G01*
X141733000Y-120985000D01*
G75*
G02*
X141883000Y-121135000I0J-150000D01*
G01*
X141883000Y-121435000D01*
G75*
G02*
X141733000Y-121585000I-150000J0D01*
G01*
X140083000Y-121585000D01*
G75*
G02*
X139933000Y-121435000I0J150000D01*
G01*
G37*
G36*
G01*
X139933000Y-120165000D02*
X139933000Y-119865000D01*
G75*
G02*
X140083000Y-119715000I150000J0D01*
G01*
X141733000Y-119715000D01*
G75*
G02*
X141883000Y-119865000I0J-150000D01*
G01*
X141883000Y-120165000D01*
G75*
G02*
X141733000Y-120315000I-150000J0D01*
G01*
X140083000Y-120315000D01*
G75*
G02*
X139933000Y-120165000I0J150000D01*
G01*
G37*
G36*
G01*
X139933000Y-118895000D02*
X139933000Y-118595000D01*
G75*
G02*
X140083000Y-118445000I150000J0D01*
G01*
X141733000Y-118445000D01*
G75*
G02*
X141883000Y-118595000I0J-150000D01*
G01*
X141883000Y-118895000D01*
G75*
G02*
X141733000Y-119045000I-150000J0D01*
G01*
X140083000Y-119045000D01*
G75*
G02*
X139933000Y-118895000I0J150000D01*
G01*
G37*
G36*
G01*
X139933000Y-117625000D02*
X139933000Y-117325000D01*
G75*
G02*
X140083000Y-117175000I150000J0D01*
G01*
X141733000Y-117175000D01*
G75*
G02*
X141883000Y-117325000I0J-150000D01*
G01*
X141883000Y-117625000D01*
G75*
G02*
X141733000Y-117775000I-150000J0D01*
G01*
X140083000Y-117775000D01*
G75*
G02*
X139933000Y-117625000I0J150000D01*
G01*
G37*
G36*
G01*
X139933000Y-116355000D02*
X139933000Y-116055000D01*
G75*
G02*
X140083000Y-115905000I150000J0D01*
G01*
X141733000Y-115905000D01*
G75*
G02*
X141883000Y-116055000I0J-150000D01*
G01*
X141883000Y-116355000D01*
G75*
G02*
X141733000Y-116505000I-150000J0D01*
G01*
X140083000Y-116505000D01*
G75*
G02*
X139933000Y-116355000I0J150000D01*
G01*
G37*
G36*
G01*
X139933000Y-115085000D02*
X139933000Y-114785000D01*
G75*
G02*
X140083000Y-114635000I150000J0D01*
G01*
X141733000Y-114635000D01*
G75*
G02*
X141883000Y-114785000I0J-150000D01*
G01*
X141883000Y-115085000D01*
G75*
G02*
X141733000Y-115235000I-150000J0D01*
G01*
X140083000Y-115235000D01*
G75*
G02*
X139933000Y-115085000I0J150000D01*
G01*
G37*
G36*
G01*
X139933000Y-113815000D02*
X139933000Y-113515000D01*
G75*
G02*
X140083000Y-113365000I150000J0D01*
G01*
X141733000Y-113365000D01*
G75*
G02*
X141883000Y-113515000I0J-150000D01*
G01*
X141883000Y-113815000D01*
G75*
G02*
X141733000Y-113965000I-150000J0D01*
G01*
X140083000Y-113965000D01*
G75*
G02*
X139933000Y-113815000I0J150000D01*
G01*
G37*
G36*
G01*
X148738000Y-100350000D02*
X148188000Y-100350000D01*
G75*
G02*
X147988000Y-100150000I0J200000D01*
G01*
X147988000Y-99750000D01*
G75*
G02*
X148188000Y-99550000I200000J0D01*
G01*
X148738000Y-99550000D01*
G75*
G02*
X148938000Y-99750000I0J-200000D01*
G01*
X148938000Y-100150000D01*
G75*
G02*
X148738000Y-100350000I-200000J0D01*
G01*
G37*
G36*
G01*
X148738000Y-102000000D02*
X148188000Y-102000000D01*
G75*
G02*
X147988000Y-101800000I0J200000D01*
G01*
X147988000Y-101400000D01*
G75*
G02*
X148188000Y-101200000I200000J0D01*
G01*
X148738000Y-101200000D01*
G75*
G02*
X148938000Y-101400000I0J-200000D01*
G01*
X148938000Y-101800000D01*
G75*
G02*
X148738000Y-102000000I-200000J0D01*
G01*
G37*
G36*
G01*
X150008000Y-93555000D02*
X149458000Y-93555000D01*
G75*
G02*
X149258000Y-93355000I0J200000D01*
G01*
X149258000Y-92955000D01*
G75*
G02*
X149458000Y-92755000I200000J0D01*
G01*
X150008000Y-92755000D01*
G75*
G02*
X150208000Y-92955000I0J-200000D01*
G01*
X150208000Y-93355000D01*
G75*
G02*
X150008000Y-93555000I-200000J0D01*
G01*
G37*
G36*
G01*
X150008000Y-95205000D02*
X149458000Y-95205000D01*
G75*
G02*
X149258000Y-95005000I0J200000D01*
G01*
X149258000Y-94605000D01*
G75*
G02*
X149458000Y-94405000I200000J0D01*
G01*
X150008000Y-94405000D01*
G75*
G02*
X150208000Y-94605000I0J-200000D01*
G01*
X150208000Y-95005000D01*
G75*
G02*
X150008000Y-95205000I-200000J0D01*
G01*
G37*
G36*
G01*
X119215000Y-100815000D02*
X119215000Y-101115000D01*
G75*
G02*
X119065000Y-101265000I-150000J0D01*
G01*
X117415000Y-101265000D01*
G75*
G02*
X117265000Y-101115000I0J150000D01*
G01*
X117265000Y-100815000D01*
G75*
G02*
X117415000Y-100665000I150000J0D01*
G01*
X119065000Y-100665000D01*
G75*
G02*
X119215000Y-100815000I0J-150000D01*
G01*
G37*
G36*
G01*
X119215000Y-99545000D02*
X119215000Y-99845000D01*
G75*
G02*
X119065000Y-99995000I-150000J0D01*
G01*
X117415000Y-99995000D01*
G75*
G02*
X117265000Y-99845000I0J150000D01*
G01*
X117265000Y-99545000D01*
G75*
G02*
X117415000Y-99395000I150000J0D01*
G01*
X119065000Y-99395000D01*
G75*
G02*
X119215000Y-99545000I0J-150000D01*
G01*
G37*
G36*
G01*
X119215000Y-98275000D02*
X119215000Y-98575000D01*
G75*
G02*
X119065000Y-98725000I-150000J0D01*
G01*
X117415000Y-98725000D01*
G75*
G02*
X117265000Y-98575000I0J150000D01*
G01*
X117265000Y-98275000D01*
G75*
G02*
X117415000Y-98125000I150000J0D01*
G01*
X119065000Y-98125000D01*
G75*
G02*
X119215000Y-98275000I0J-150000D01*
G01*
G37*
G36*
G01*
X119215000Y-97005000D02*
X119215000Y-97305000D01*
G75*
G02*
X119065000Y-97455000I-150000J0D01*
G01*
X117415000Y-97455000D01*
G75*
G02*
X117265000Y-97305000I0J150000D01*
G01*
X117265000Y-97005000D01*
G75*
G02*
X117415000Y-96855000I150000J0D01*
G01*
X119065000Y-96855000D01*
G75*
G02*
X119215000Y-97005000I0J-150000D01*
G01*
G37*
G36*
G01*
X124165000Y-97005000D02*
X124165000Y-97305000D01*
G75*
G02*
X124015000Y-97455000I-150000J0D01*
G01*
X122365000Y-97455000D01*
G75*
G02*
X122215000Y-97305000I0J150000D01*
G01*
X122215000Y-97005000D01*
G75*
G02*
X122365000Y-96855000I150000J0D01*
G01*
X124015000Y-96855000D01*
G75*
G02*
X124165000Y-97005000I0J-150000D01*
G01*
G37*
G36*
G01*
X124165000Y-98275000D02*
X124165000Y-98575000D01*
G75*
G02*
X124015000Y-98725000I-150000J0D01*
G01*
X122365000Y-98725000D01*
G75*
G02*
X122215000Y-98575000I0J150000D01*
G01*
X122215000Y-98275000D01*
G75*
G02*
X122365000Y-98125000I150000J0D01*
G01*
X124015000Y-98125000D01*
G75*
G02*
X124165000Y-98275000I0J-150000D01*
G01*
G37*
G36*
G01*
X124165000Y-99545000D02*
X124165000Y-99845000D01*
G75*
G02*
X124015000Y-99995000I-150000J0D01*
G01*
X122365000Y-99995000D01*
G75*
G02*
X122215000Y-99845000I0J150000D01*
G01*
X122215000Y-99545000D01*
G75*
G02*
X122365000Y-99395000I150000J0D01*
G01*
X124015000Y-99395000D01*
G75*
G02*
X124165000Y-99545000I0J-150000D01*
G01*
G37*
G36*
G01*
X124165000Y-100815000D02*
X124165000Y-101115000D01*
G75*
G02*
X124015000Y-101265000I-150000J0D01*
G01*
X122365000Y-101265000D01*
G75*
G02*
X122215000Y-101115000I0J150000D01*
G01*
X122215000Y-100815000D01*
G75*
G02*
X122365000Y-100665000I150000J0D01*
G01*
X124015000Y-100665000D01*
G75*
G02*
X124165000Y-100815000I0J-150000D01*
G01*
G37*
G36*
G01*
X113390000Y-105390000D02*
X113940000Y-105390000D01*
G75*
G02*
X114140000Y-105590000I0J-200000D01*
G01*
X114140000Y-105990000D01*
G75*
G02*
X113940000Y-106190000I-200000J0D01*
G01*
X113390000Y-106190000D01*
G75*
G02*
X113190000Y-105990000I0J200000D01*
G01*
X113190000Y-105590000D01*
G75*
G02*
X113390000Y-105390000I200000J0D01*
G01*
G37*
G36*
G01*
X113390000Y-103740000D02*
X113940000Y-103740000D01*
G75*
G02*
X114140000Y-103940000I0J-200000D01*
G01*
X114140000Y-104340000D01*
G75*
G02*
X113940000Y-104540000I-200000J0D01*
G01*
X113390000Y-104540000D01*
G75*
G02*
X113190000Y-104340000I0J200000D01*
G01*
X113190000Y-103940000D01*
G75*
G02*
X113390000Y-103740000I200000J0D01*
G01*
G37*
G36*
G01*
X109835000Y-90445000D02*
X109835000Y-89895000D01*
G75*
G02*
X110035000Y-89695000I200000J0D01*
G01*
X110435000Y-89695000D01*
G75*
G02*
X110635000Y-89895000I0J-200000D01*
G01*
X110635000Y-90445000D01*
G75*
G02*
X110435000Y-90645000I-200000J0D01*
G01*
X110035000Y-90645000D01*
G75*
G02*
X109835000Y-90445000I0J200000D01*
G01*
G37*
G36*
G01*
X108185000Y-90445000D02*
X108185000Y-89895000D01*
G75*
G02*
X108385000Y-89695000I200000J0D01*
G01*
X108785000Y-89695000D01*
G75*
G02*
X108985000Y-89895000I0J-200000D01*
G01*
X108985000Y-90445000D01*
G75*
G02*
X108785000Y-90645000I-200000J0D01*
G01*
X108385000Y-90645000D01*
G75*
G02*
X108185000Y-90445000I0J200000D01*
G01*
G37*
D10*
X136525000Y-100025000D03*
X136525000Y-99225000D03*
X136525000Y-98425000D03*
X136525000Y-97625000D03*
X136525000Y-96825000D03*
X136525000Y-96025000D03*
X136525000Y-95225000D03*
X136525000Y-94425000D03*
D11*
X137975000Y-92975000D03*
X138775000Y-92975000D03*
X139575000Y-92975000D03*
X140375000Y-92975000D03*
X141175000Y-92975000D03*
X141975000Y-92975000D03*
X142775000Y-92975000D03*
X143575000Y-92975000D03*
D10*
X145025000Y-94425000D03*
X145025000Y-95225000D03*
X145025000Y-96025000D03*
X145025000Y-96825000D03*
X145025000Y-97625000D03*
X145025000Y-98425000D03*
X145025000Y-99225000D03*
X145025000Y-100025000D03*
D11*
X143575000Y-101475000D03*
X142775000Y-101475000D03*
X141975000Y-101475000D03*
X141175000Y-101475000D03*
X140375000Y-101475000D03*
X139575000Y-101475000D03*
X138775000Y-101475000D03*
X137975000Y-101475000D03*
G36*
G01*
X132990000Y-102255000D02*
X132440000Y-102255000D01*
G75*
G02*
X132240000Y-102055000I0J200000D01*
G01*
X132240000Y-101655000D01*
G75*
G02*
X132440000Y-101455000I200000J0D01*
G01*
X132990000Y-101455000D01*
G75*
G02*
X133190000Y-101655000I0J-200000D01*
G01*
X133190000Y-102055000D01*
G75*
G02*
X132990000Y-102255000I-200000J0D01*
G01*
G37*
G36*
G01*
X132990000Y-103905000D02*
X132440000Y-103905000D01*
G75*
G02*
X132240000Y-103705000I0J200000D01*
G01*
X132240000Y-103305000D01*
G75*
G02*
X132440000Y-103105000I200000J0D01*
G01*
X132990000Y-103105000D01*
G75*
G02*
X133190000Y-103305000I0J-200000D01*
G01*
X133190000Y-103705000D01*
G75*
G02*
X132990000Y-103905000I-200000J0D01*
G01*
G37*
G36*
G01*
X132971250Y-105847500D02*
X132458750Y-105847500D01*
G75*
G02*
X132240000Y-105628750I0J218750D01*
G01*
X132240000Y-105191250D01*
G75*
G02*
X132458750Y-104972500I218750J0D01*
G01*
X132971250Y-104972500D01*
G75*
G02*
X133190000Y-105191250I0J-218750D01*
G01*
X133190000Y-105628750D01*
G75*
G02*
X132971250Y-105847500I-218750J0D01*
G01*
G37*
G36*
G01*
X132971250Y-107422500D02*
X132458750Y-107422500D01*
G75*
G02*
X132240000Y-107203750I0J218750D01*
G01*
X132240000Y-106766250D01*
G75*
G02*
X132458750Y-106547500I218750J0D01*
G01*
X132971250Y-106547500D01*
G75*
G02*
X133190000Y-106766250I0J-218750D01*
G01*
X133190000Y-107203750D01*
G75*
G02*
X132971250Y-107422500I-218750J0D01*
G01*
G37*
G36*
G01*
X131043000Y-97135000D02*
X131593000Y-97135000D01*
G75*
G02*
X131793000Y-97335000I0J-200000D01*
G01*
X131793000Y-97735000D01*
G75*
G02*
X131593000Y-97935000I-200000J0D01*
G01*
X131043000Y-97935000D01*
G75*
G02*
X130843000Y-97735000I0J200000D01*
G01*
X130843000Y-97335000D01*
G75*
G02*
X131043000Y-97135000I200000J0D01*
G01*
G37*
G36*
G01*
X131043000Y-95485000D02*
X131593000Y-95485000D01*
G75*
G02*
X131793000Y-95685000I0J-200000D01*
G01*
X131793000Y-96085000D01*
G75*
G02*
X131593000Y-96285000I-200000J0D01*
G01*
X131043000Y-96285000D01*
G75*
G02*
X130843000Y-96085000I0J200000D01*
G01*
X130843000Y-95685000D01*
G75*
G02*
X131043000Y-95485000I200000J0D01*
G01*
G37*
G36*
G01*
X113898000Y-100755000D02*
X114448000Y-100755000D01*
G75*
G02*
X114648000Y-100955000I0J-200000D01*
G01*
X114648000Y-101355000D01*
G75*
G02*
X114448000Y-101555000I-200000J0D01*
G01*
X113898000Y-101555000D01*
G75*
G02*
X113698000Y-101355000I0J200000D01*
G01*
X113698000Y-100955000D01*
G75*
G02*
X113898000Y-100755000I200000J0D01*
G01*
G37*
G36*
G01*
X113898000Y-99105000D02*
X114448000Y-99105000D01*
G75*
G02*
X114648000Y-99305000I0J-200000D01*
G01*
X114648000Y-99705000D01*
G75*
G02*
X114448000Y-99905000I-200000J0D01*
G01*
X113898000Y-99905000D01*
G75*
G02*
X113698000Y-99705000I0J200000D01*
G01*
X113698000Y-99305000D01*
G75*
G02*
X113898000Y-99105000I200000J0D01*
G01*
G37*
G36*
G01*
X143835000Y-110740000D02*
X143835000Y-110240000D01*
G75*
G02*
X144060000Y-110015000I225000J0D01*
G01*
X144510000Y-110015000D01*
G75*
G02*
X144735000Y-110240000I0J-225000D01*
G01*
X144735000Y-110740000D01*
G75*
G02*
X144510000Y-110965000I-225000J0D01*
G01*
X144060000Y-110965000D01*
G75*
G02*
X143835000Y-110740000I0J225000D01*
G01*
G37*
G36*
G01*
X142285000Y-110740000D02*
X142285000Y-110240000D01*
G75*
G02*
X142510000Y-110015000I225000J0D01*
G01*
X142960000Y-110015000D01*
G75*
G02*
X143185000Y-110240000I0J-225000D01*
G01*
X143185000Y-110740000D01*
G75*
G02*
X142960000Y-110965000I-225000J0D01*
G01*
X142510000Y-110965000D01*
G75*
G02*
X142285000Y-110740000I0J225000D01*
G01*
G37*
G36*
G01*
X138755000Y-110740000D02*
X138755000Y-110240000D01*
G75*
G02*
X138980000Y-110015000I225000J0D01*
G01*
X139430000Y-110015000D01*
G75*
G02*
X139655000Y-110240000I0J-225000D01*
G01*
X139655000Y-110740000D01*
G75*
G02*
X139430000Y-110965000I-225000J0D01*
G01*
X138980000Y-110965000D01*
G75*
G02*
X138755000Y-110740000I0J225000D01*
G01*
G37*
G36*
G01*
X137205000Y-110740000D02*
X137205000Y-110240000D01*
G75*
G02*
X137430000Y-110015000I225000J0D01*
G01*
X137880000Y-110015000D01*
G75*
G02*
X138105000Y-110240000I0J-225000D01*
G01*
X138105000Y-110740000D01*
G75*
G02*
X137880000Y-110965000I-225000J0D01*
G01*
X137430000Y-110965000D01*
G75*
G02*
X137205000Y-110740000I0J225000D01*
G01*
G37*
M02*
