G04 #@! TF.GenerationSoftware,KiCad,Pcbnew,(5.1.9)-1*
G04 #@! TF.CreationDate,2021-06-09T23:06:16+02:00*
G04 #@! TF.ProjectId,interface,696e7465-7266-4616-9365-2e6b69636164,rev?*
G04 #@! TF.SameCoordinates,Original*
G04 #@! TF.FileFunction,Copper,L2,Bot*
G04 #@! TF.FilePolarity,Positive*
%FSLAX46Y46*%
G04 Gerber Fmt 4.6, Leading zero omitted, Abs format (unit mm)*
G04 Created by KiCad (PCBNEW (5.1.9)-1) date 2021-06-09 23:06:16*
%MOMM*%
%LPD*%
G01*
G04 APERTURE LIST*
G04 #@! TA.AperFunction,ComponentPad*
%ADD10C,0.800000*%
G04 #@! TD*
G04 #@! TA.AperFunction,ComponentPad*
%ADD11C,7.000000*%
G04 #@! TD*
G04 #@! TA.AperFunction,ComponentPad*
%ADD12O,1.700000X1.700000*%
G04 #@! TD*
G04 #@! TA.AperFunction,ComponentPad*
%ADD13R,1.700000X1.700000*%
G04 #@! TD*
G04 #@! TA.AperFunction,ComponentPad*
%ADD14C,1.400000*%
G04 #@! TD*
G04 #@! TA.AperFunction,ComponentPad*
%ADD15C,2.600000*%
G04 #@! TD*
G04 #@! TA.AperFunction,ComponentPad*
%ADD16C,1.600000*%
G04 #@! TD*
G04 #@! TA.AperFunction,ComponentPad*
%ADD17O,2.000000X2.600000*%
G04 #@! TD*
G04 #@! TA.AperFunction,ComponentPad*
%ADD18C,1.500000*%
G04 #@! TD*
G04 #@! TA.AperFunction,ViaPad*
%ADD19C,0.800000*%
G04 #@! TD*
G04 #@! TA.AperFunction,Conductor*
%ADD20C,0.250000*%
G04 #@! TD*
G04 #@! TA.AperFunction,Conductor*
%ADD21C,1.000000*%
G04 #@! TD*
G04 #@! TA.AperFunction,Conductor*
%ADD22C,0.500000*%
G04 #@! TD*
G04 #@! TA.AperFunction,Conductor*
%ADD23C,0.254000*%
G04 #@! TD*
G04 #@! TA.AperFunction,Conductor*
%ADD24C,0.100000*%
G04 #@! TD*
G04 APERTURE END LIST*
D10*
X105234155Y-71803845D03*
X103378000Y-71035000D03*
X101521845Y-71803845D03*
X100753000Y-73660000D03*
X101521845Y-75516155D03*
X103378000Y-76285000D03*
X105234155Y-75516155D03*
X106003000Y-73660000D03*
D11*
X103378000Y-73660000D03*
D12*
X136398000Y-115570000D03*
X136398000Y-118110000D03*
X133858000Y-115570000D03*
X133858000Y-118110000D03*
X131318000Y-115570000D03*
X131318000Y-118110000D03*
X128778000Y-115570000D03*
X128778000Y-118110000D03*
X126238000Y-115570000D03*
X126238000Y-118110000D03*
X123698000Y-115570000D03*
X123698000Y-118110000D03*
X121158000Y-115570000D03*
X121158000Y-118110000D03*
X118618000Y-115570000D03*
D13*
X118618000Y-118110000D03*
D12*
X172212000Y-117729000D03*
X172212000Y-120269000D03*
X169672000Y-117729000D03*
X169672000Y-120269000D03*
X167132000Y-117729000D03*
X167132000Y-120269000D03*
X164592000Y-117729000D03*
X164592000Y-120269000D03*
X162052000Y-117729000D03*
X162052000Y-120269000D03*
X159512000Y-117729000D03*
X159512000Y-120269000D03*
X156972000Y-117729000D03*
X156972000Y-120269000D03*
X154432000Y-117729000D03*
D13*
X154432000Y-120269000D03*
D12*
X172212000Y-99314000D03*
X172212000Y-101854000D03*
X169672000Y-99314000D03*
X169672000Y-101854000D03*
X167132000Y-99314000D03*
X167132000Y-101854000D03*
X164592000Y-99314000D03*
X164592000Y-101854000D03*
X162052000Y-99314000D03*
X162052000Y-101854000D03*
X159512000Y-99314000D03*
X159512000Y-101854000D03*
X156972000Y-99314000D03*
X156972000Y-101854000D03*
X154432000Y-99314000D03*
D13*
X154432000Y-101854000D03*
D12*
X172212000Y-80899000D03*
X172212000Y-83439000D03*
X169672000Y-80899000D03*
X169672000Y-83439000D03*
X167132000Y-80899000D03*
X167132000Y-83439000D03*
X164592000Y-80899000D03*
X164592000Y-83439000D03*
X162052000Y-80899000D03*
X162052000Y-83439000D03*
X159512000Y-80899000D03*
X159512000Y-83439000D03*
X156972000Y-80899000D03*
X156972000Y-83439000D03*
X154432000Y-80899000D03*
D13*
X154432000Y-83439000D03*
D12*
X118618000Y-86360000D03*
X121158000Y-86360000D03*
X123698000Y-86360000D03*
D13*
X126238000Y-86360000D03*
D14*
X110105000Y-94740000D03*
X110105000Y-97030000D03*
X110105000Y-106170000D03*
X110105000Y-108460000D03*
X105285000Y-98030000D03*
X103505000Y-99050000D03*
X105285000Y-100070000D03*
X103505000Y-101090000D03*
X105285000Y-102110000D03*
X103505000Y-103130000D03*
X105285000Y-104150000D03*
X103505000Y-105170000D03*
D15*
X104395000Y-109730000D03*
X104395000Y-93470000D03*
D12*
X136525000Y-84455000D03*
X136525000Y-86995000D03*
X139065000Y-84455000D03*
X139065000Y-86995000D03*
X141605000Y-84455000D03*
D13*
X141605000Y-86995000D03*
D16*
X142809874Y-76769874D03*
X140335000Y-74295000D03*
D17*
X131135000Y-74930000D03*
X127635000Y-74930000D03*
G04 #@! TA.AperFunction,ComponentPad*
G36*
G01*
X123135000Y-75980000D02*
X123135000Y-73880000D01*
G75*
G02*
X123385000Y-73630000I250000J0D01*
G01*
X124885000Y-73630000D01*
G75*
G02*
X125135000Y-73880000I0J-250000D01*
G01*
X125135000Y-75980000D01*
G75*
G02*
X124885000Y-76230000I-250000J0D01*
G01*
X123385000Y-76230000D01*
G75*
G02*
X123135000Y-75980000I0J250000D01*
G01*
G37*
G04 #@! TD.AperFunction*
D10*
X126316155Y-105458845D03*
X124460000Y-104690000D03*
X122603845Y-105458845D03*
X121835000Y-107315000D03*
X122603845Y-109171155D03*
X124460000Y-109940000D03*
X126316155Y-109171155D03*
X127085000Y-107315000D03*
D11*
X124460000Y-107315000D03*
D18*
X143310000Y-106680000D03*
X138430000Y-106680000D03*
D19*
X139065000Y-90170000D03*
X174117000Y-109474000D03*
X162052000Y-91874010D03*
X162052000Y-73459010D03*
X174842000Y-91059000D03*
X174842000Y-72644000D03*
X116713000Y-110490000D03*
X151003000Y-81280000D03*
X163703000Y-88265000D03*
X162433000Y-114300000D03*
X141478000Y-104140000D03*
X141478000Y-107950000D03*
X115443000Y-91440000D03*
X126873000Y-95885000D03*
X131445000Y-93980000D03*
X140652503Y-96202503D03*
X128905000Y-101600000D03*
X149733000Y-85090000D03*
X143383000Y-112485000D03*
X133350000Y-96520000D03*
X154813000Y-73025000D03*
X149098000Y-78740000D03*
X110998000Y-115570000D03*
X148463020Y-113665000D03*
X156312740Y-109694435D03*
X149733000Y-97790000D03*
X145288000Y-92075000D03*
X125603000Y-98425000D03*
X156972000Y-108839000D03*
X156972000Y-90424000D03*
X168118711Y-91149010D03*
X168409141Y-72734010D03*
X168409141Y-109564010D03*
X154309653Y-91571653D03*
X151003000Y-96520000D03*
X158623000Y-73025000D03*
X149733000Y-80010000D03*
X143383000Y-116750000D03*
X149733000Y-110490000D03*
X158242000Y-105029000D03*
X158242000Y-86614000D03*
X170307000Y-108839000D03*
X170307000Y-90424000D03*
X148463000Y-90805000D03*
X170492847Y-68289000D03*
X158111045Y-72122739D03*
X110998000Y-118745000D03*
X143383000Y-120015000D03*
D20*
X158423991Y-73859009D02*
X151003000Y-81280000D01*
X161652001Y-73859009D02*
X158423991Y-73859009D01*
X162052000Y-73459010D02*
X161652001Y-73859009D01*
D21*
X127635000Y-74930000D02*
X127635000Y-76835000D01*
X127635000Y-76835000D02*
X129540000Y-78740000D01*
X129540000Y-78740000D02*
X135890000Y-78740000D01*
X137795000Y-76835000D02*
X141605000Y-80645000D01*
X135890000Y-78740000D02*
X137795000Y-76835000D01*
X137795000Y-76835000D02*
X140335000Y-74295000D01*
D20*
X131445000Y-96520000D02*
X131445000Y-93980000D01*
X132715000Y-97790000D02*
X131445000Y-96520000D01*
X130810000Y-99695000D02*
X132715000Y-97790000D01*
X139935001Y-94379999D02*
X138665001Y-94379999D01*
X138665001Y-94379999D02*
X135255000Y-97790000D01*
X135255000Y-97790000D02*
X132715000Y-97790000D01*
D22*
X139935001Y-94379999D02*
X139935001Y-95485001D01*
X139935001Y-95485001D02*
X140652503Y-96202503D01*
X143256000Y-86106000D02*
X141605000Y-84455000D01*
X143256000Y-89471500D02*
X143256000Y-86106000D01*
X139935001Y-92792499D02*
X143256000Y-89471500D01*
X139935001Y-94379999D02*
X139935001Y-92792499D01*
D20*
X130810000Y-99695000D02*
X128905000Y-101600000D01*
X149733000Y-85090000D02*
X147066000Y-82423000D01*
D21*
X141605000Y-82423000D02*
X141605000Y-84455000D01*
D20*
X147066000Y-82423000D02*
X141605000Y-82423000D01*
D21*
X141605000Y-80645000D02*
X141605000Y-82423000D01*
D20*
X140652503Y-109754503D02*
X140652503Y-96202503D01*
X143383000Y-112485000D02*
X140652503Y-109754503D01*
X133350000Y-90170000D02*
X136525000Y-86995000D01*
X133350000Y-96520000D02*
X133350000Y-90170000D01*
X154813000Y-73025000D02*
X149098000Y-78740000D01*
X110998000Y-115570000D02*
X112903000Y-113665000D01*
X112903000Y-113665000D02*
X148463020Y-113665000D01*
X149455563Y-109694435D02*
X148463020Y-110686978D01*
X148463020Y-110686978D02*
X148463020Y-113665000D01*
X156312740Y-109694435D02*
X149455563Y-109694435D01*
X145288000Y-93345000D02*
X145288000Y-92075000D01*
X149733000Y-97790000D02*
X145288000Y-93345000D01*
X115568000Y-108460000D02*
X125603000Y-98425000D01*
X110105000Y-108460000D02*
X115568000Y-108460000D01*
X157697010Y-91149010D02*
X168118711Y-91149010D01*
X156972000Y-90424000D02*
X157697010Y-91149010D01*
X156972000Y-108839000D02*
X157697010Y-109564010D01*
X157697010Y-109564010D02*
X168409141Y-109564010D01*
X151003000Y-94878306D02*
X151003000Y-96520000D01*
X158913990Y-72734010D02*
X158623000Y-73025000D01*
X168409141Y-72734010D02*
X158913990Y-72734010D01*
X155796999Y-96233999D02*
X152722153Y-93159153D01*
X155796999Y-107663999D02*
X155796999Y-96233999D01*
X156972000Y-108839000D02*
X155796999Y-107663999D01*
X152722153Y-93159153D02*
X151003000Y-94878306D01*
X154309653Y-91571653D02*
X152722153Y-93159153D01*
X156718000Y-73025000D02*
X149733000Y-80010000D01*
X158623000Y-73025000D02*
X156718000Y-73025000D01*
X149733000Y-113468022D02*
X149733000Y-110490000D01*
X146451022Y-116750000D02*
X149733000Y-113468022D01*
X143383000Y-116750000D02*
X146451022Y-116750000D01*
X158242000Y-94234000D02*
X155702000Y-91694000D01*
X158242000Y-103759000D02*
X158242000Y-94234000D01*
X158242000Y-105029000D02*
X158242000Y-103759000D01*
X158242000Y-86614000D02*
X158242000Y-85344000D01*
X159512000Y-85344000D02*
X155702000Y-85344000D01*
X164592000Y-90424000D02*
X159512000Y-85344000D01*
X170307000Y-90424000D02*
X164592000Y-90424000D01*
X159512000Y-103759000D02*
X158242000Y-103759000D01*
X170307000Y-108839000D02*
X164592000Y-108839000D01*
X164592000Y-108839000D02*
X159512000Y-103759000D01*
X154813000Y-90805000D02*
X155702000Y-91694000D01*
X148463000Y-90805000D02*
X154813000Y-90805000D01*
X154813000Y-88265000D02*
X154813000Y-90805000D01*
X154813000Y-86233000D02*
X154813000Y-88265000D01*
X155702000Y-85344000D02*
X154813000Y-86233000D01*
X158242000Y-85344000D02*
X158242000Y-78486000D01*
X158242000Y-78486000D02*
X163068000Y-73660000D01*
X163068000Y-73660000D02*
X168783000Y-73660000D01*
X170492847Y-71950153D02*
X170492847Y-68289000D01*
X168783000Y-73660000D02*
X170492847Y-71950153D01*
X161944784Y-68289000D02*
X158111045Y-72122739D01*
X170492847Y-68289000D02*
X161944784Y-68289000D01*
X112268000Y-120015000D02*
X143383000Y-120015000D01*
X110998000Y-118745000D02*
X112268000Y-120015000D01*
D23*
X177623001Y-126315000D02*
X93903000Y-126315000D01*
X93903000Y-115468061D01*
X109963000Y-115468061D01*
X109963000Y-115671939D01*
X110002774Y-115871898D01*
X110080795Y-116060256D01*
X110194063Y-116229774D01*
X110338226Y-116373937D01*
X110507744Y-116487205D01*
X110696102Y-116565226D01*
X110896061Y-116605000D01*
X111099939Y-116605000D01*
X111299898Y-116565226D01*
X111488256Y-116487205D01*
X111657774Y-116373937D01*
X111801937Y-116229774D01*
X111915205Y-116060256D01*
X111993226Y-115871898D01*
X112033000Y-115671939D01*
X112033000Y-115609801D01*
X113217802Y-114425000D01*
X117662893Y-114425000D01*
X117464525Y-114623368D01*
X117302010Y-114866589D01*
X117190068Y-115136842D01*
X117133000Y-115423740D01*
X117133000Y-115716260D01*
X117190068Y-116003158D01*
X117302010Y-116273411D01*
X117464525Y-116516632D01*
X117596380Y-116648487D01*
X117523820Y-116670498D01*
X117413506Y-116729463D01*
X117316815Y-116808815D01*
X117237463Y-116905506D01*
X117178498Y-117015820D01*
X117142188Y-117135518D01*
X117129928Y-117260000D01*
X117129928Y-118960000D01*
X117142188Y-119084482D01*
X117178498Y-119204180D01*
X117205662Y-119255000D01*
X112582802Y-119255000D01*
X112033000Y-118705199D01*
X112033000Y-118643061D01*
X111993226Y-118443102D01*
X111915205Y-118254744D01*
X111801937Y-118085226D01*
X111657774Y-117941063D01*
X111488256Y-117827795D01*
X111299898Y-117749774D01*
X111099939Y-117710000D01*
X110896061Y-117710000D01*
X110696102Y-117749774D01*
X110507744Y-117827795D01*
X110338226Y-117941063D01*
X110194063Y-118085226D01*
X110080795Y-118254744D01*
X110002774Y-118443102D01*
X109963000Y-118643061D01*
X109963000Y-118846939D01*
X110002774Y-119046898D01*
X110080795Y-119235256D01*
X110194063Y-119404774D01*
X110338226Y-119548937D01*
X110507744Y-119662205D01*
X110696102Y-119740226D01*
X110896061Y-119780000D01*
X110958199Y-119780000D01*
X111704201Y-120526003D01*
X111727999Y-120555001D01*
X111843724Y-120649974D01*
X111975753Y-120720546D01*
X112119014Y-120764003D01*
X112230667Y-120775000D01*
X112230676Y-120775000D01*
X112267999Y-120778676D01*
X112305322Y-120775000D01*
X142679289Y-120775000D01*
X142723226Y-120818937D01*
X142892744Y-120932205D01*
X143081102Y-121010226D01*
X143281061Y-121050000D01*
X143484939Y-121050000D01*
X143684898Y-121010226D01*
X143873256Y-120932205D01*
X144042774Y-120818937D01*
X144186937Y-120674774D01*
X144300205Y-120505256D01*
X144378226Y-120316898D01*
X144418000Y-120116939D01*
X144418000Y-119913061D01*
X144378226Y-119713102D01*
X144300205Y-119524744D01*
X144229550Y-119419000D01*
X152943928Y-119419000D01*
X152943928Y-121119000D01*
X152956188Y-121243482D01*
X152992498Y-121363180D01*
X153051463Y-121473494D01*
X153130815Y-121570185D01*
X153227506Y-121649537D01*
X153337820Y-121708502D01*
X153457518Y-121744812D01*
X153582000Y-121757072D01*
X155282000Y-121757072D01*
X155406482Y-121744812D01*
X155526180Y-121708502D01*
X155636494Y-121649537D01*
X155733185Y-121570185D01*
X155812537Y-121473494D01*
X155871502Y-121363180D01*
X155893513Y-121290620D01*
X156025368Y-121422475D01*
X156268589Y-121584990D01*
X156538842Y-121696932D01*
X156825740Y-121754000D01*
X157118260Y-121754000D01*
X157405158Y-121696932D01*
X157675411Y-121584990D01*
X157918632Y-121422475D01*
X158125475Y-121215632D01*
X158242000Y-121041240D01*
X158358525Y-121215632D01*
X158565368Y-121422475D01*
X158808589Y-121584990D01*
X159078842Y-121696932D01*
X159365740Y-121754000D01*
X159658260Y-121754000D01*
X159945158Y-121696932D01*
X160215411Y-121584990D01*
X160458632Y-121422475D01*
X160665475Y-121215632D01*
X160782000Y-121041240D01*
X160898525Y-121215632D01*
X161105368Y-121422475D01*
X161348589Y-121584990D01*
X161618842Y-121696932D01*
X161905740Y-121754000D01*
X162198260Y-121754000D01*
X162485158Y-121696932D01*
X162755411Y-121584990D01*
X162998632Y-121422475D01*
X163205475Y-121215632D01*
X163322000Y-121041240D01*
X163438525Y-121215632D01*
X163645368Y-121422475D01*
X163888589Y-121584990D01*
X164158842Y-121696932D01*
X164445740Y-121754000D01*
X164738260Y-121754000D01*
X165025158Y-121696932D01*
X165295411Y-121584990D01*
X165538632Y-121422475D01*
X165745475Y-121215632D01*
X165862000Y-121041240D01*
X165978525Y-121215632D01*
X166185368Y-121422475D01*
X166428589Y-121584990D01*
X166698842Y-121696932D01*
X166985740Y-121754000D01*
X167278260Y-121754000D01*
X167565158Y-121696932D01*
X167835411Y-121584990D01*
X168078632Y-121422475D01*
X168285475Y-121215632D01*
X168402000Y-121041240D01*
X168518525Y-121215632D01*
X168725368Y-121422475D01*
X168968589Y-121584990D01*
X169238842Y-121696932D01*
X169525740Y-121754000D01*
X169818260Y-121754000D01*
X170105158Y-121696932D01*
X170375411Y-121584990D01*
X170618632Y-121422475D01*
X170825475Y-121215632D01*
X170942000Y-121041240D01*
X171058525Y-121215632D01*
X171265368Y-121422475D01*
X171508589Y-121584990D01*
X171778842Y-121696932D01*
X172065740Y-121754000D01*
X172358260Y-121754000D01*
X172645158Y-121696932D01*
X172915411Y-121584990D01*
X173158632Y-121422475D01*
X173365475Y-121215632D01*
X173527990Y-120972411D01*
X173639932Y-120702158D01*
X173697000Y-120415260D01*
X173697000Y-120122740D01*
X173639932Y-119835842D01*
X173527990Y-119565589D01*
X173365475Y-119322368D01*
X173158632Y-119115525D01*
X172984240Y-118999000D01*
X173158632Y-118882475D01*
X173365475Y-118675632D01*
X173527990Y-118432411D01*
X173639932Y-118162158D01*
X173697000Y-117875260D01*
X173697000Y-117582740D01*
X173639932Y-117295842D01*
X173527990Y-117025589D01*
X173365475Y-116782368D01*
X173158632Y-116575525D01*
X172915411Y-116413010D01*
X172645158Y-116301068D01*
X172358260Y-116244000D01*
X172065740Y-116244000D01*
X171778842Y-116301068D01*
X171508589Y-116413010D01*
X171265368Y-116575525D01*
X171058525Y-116782368D01*
X170942000Y-116956760D01*
X170825475Y-116782368D01*
X170618632Y-116575525D01*
X170375411Y-116413010D01*
X170105158Y-116301068D01*
X169818260Y-116244000D01*
X169525740Y-116244000D01*
X169238842Y-116301068D01*
X168968589Y-116413010D01*
X168725368Y-116575525D01*
X168518525Y-116782368D01*
X168402000Y-116956760D01*
X168285475Y-116782368D01*
X168078632Y-116575525D01*
X167835411Y-116413010D01*
X167565158Y-116301068D01*
X167278260Y-116244000D01*
X166985740Y-116244000D01*
X166698842Y-116301068D01*
X166428589Y-116413010D01*
X166185368Y-116575525D01*
X165978525Y-116782368D01*
X165862000Y-116956760D01*
X165745475Y-116782368D01*
X165538632Y-116575525D01*
X165295411Y-116413010D01*
X165025158Y-116301068D01*
X164738260Y-116244000D01*
X164445740Y-116244000D01*
X164158842Y-116301068D01*
X163888589Y-116413010D01*
X163645368Y-116575525D01*
X163438525Y-116782368D01*
X163322000Y-116956760D01*
X163205475Y-116782368D01*
X162998632Y-116575525D01*
X162755411Y-116413010D01*
X162485158Y-116301068D01*
X162198260Y-116244000D01*
X161905740Y-116244000D01*
X161618842Y-116301068D01*
X161348589Y-116413010D01*
X161105368Y-116575525D01*
X160898525Y-116782368D01*
X160782000Y-116956760D01*
X160665475Y-116782368D01*
X160458632Y-116575525D01*
X160215411Y-116413010D01*
X159945158Y-116301068D01*
X159658260Y-116244000D01*
X159365740Y-116244000D01*
X159078842Y-116301068D01*
X158808589Y-116413010D01*
X158565368Y-116575525D01*
X158358525Y-116782368D01*
X158242000Y-116956760D01*
X158125475Y-116782368D01*
X157918632Y-116575525D01*
X157675411Y-116413010D01*
X157405158Y-116301068D01*
X157118260Y-116244000D01*
X156825740Y-116244000D01*
X156538842Y-116301068D01*
X156268589Y-116413010D01*
X156025368Y-116575525D01*
X155818525Y-116782368D01*
X155702000Y-116956760D01*
X155585475Y-116782368D01*
X155378632Y-116575525D01*
X155135411Y-116413010D01*
X154865158Y-116301068D01*
X154578260Y-116244000D01*
X154285740Y-116244000D01*
X153998842Y-116301068D01*
X153728589Y-116413010D01*
X153485368Y-116575525D01*
X153278525Y-116782368D01*
X153116010Y-117025589D01*
X153004068Y-117295842D01*
X152947000Y-117582740D01*
X152947000Y-117875260D01*
X153004068Y-118162158D01*
X153116010Y-118432411D01*
X153278525Y-118675632D01*
X153410380Y-118807487D01*
X153337820Y-118829498D01*
X153227506Y-118888463D01*
X153130815Y-118967815D01*
X153051463Y-119064506D01*
X152992498Y-119174820D01*
X152956188Y-119294518D01*
X152943928Y-119419000D01*
X144229550Y-119419000D01*
X144186937Y-119355226D01*
X144042774Y-119211063D01*
X143873256Y-119097795D01*
X143684898Y-119019774D01*
X143484939Y-118980000D01*
X143281061Y-118980000D01*
X143081102Y-119019774D01*
X142892744Y-119097795D01*
X142723226Y-119211063D01*
X142679289Y-119255000D01*
X137353107Y-119255000D01*
X137551475Y-119056632D01*
X137713990Y-118813411D01*
X137825932Y-118543158D01*
X137883000Y-118256260D01*
X137883000Y-117963740D01*
X137825932Y-117676842D01*
X137713990Y-117406589D01*
X137551475Y-117163368D01*
X137344632Y-116956525D01*
X137170240Y-116840000D01*
X137344632Y-116723475D01*
X137551475Y-116516632D01*
X137713990Y-116273411D01*
X137825932Y-116003158D01*
X137883000Y-115716260D01*
X137883000Y-115423740D01*
X137825932Y-115136842D01*
X137713990Y-114866589D01*
X137551475Y-114623368D01*
X137353107Y-114425000D01*
X147701220Y-114425000D01*
X146136221Y-115990000D01*
X144086711Y-115990000D01*
X144042774Y-115946063D01*
X143873256Y-115832795D01*
X143684898Y-115754774D01*
X143484939Y-115715000D01*
X143281061Y-115715000D01*
X143081102Y-115754774D01*
X142892744Y-115832795D01*
X142723226Y-115946063D01*
X142579063Y-116090226D01*
X142465795Y-116259744D01*
X142387774Y-116448102D01*
X142348000Y-116648061D01*
X142348000Y-116851939D01*
X142387774Y-117051898D01*
X142465795Y-117240256D01*
X142579063Y-117409774D01*
X142723226Y-117553937D01*
X142892744Y-117667205D01*
X143081102Y-117745226D01*
X143281061Y-117785000D01*
X143484939Y-117785000D01*
X143684898Y-117745226D01*
X143873256Y-117667205D01*
X144042774Y-117553937D01*
X144086711Y-117510000D01*
X146413700Y-117510000D01*
X146451022Y-117513676D01*
X146488344Y-117510000D01*
X146488355Y-117510000D01*
X146600008Y-117499003D01*
X146743269Y-117455546D01*
X146875298Y-117384974D01*
X146991023Y-117290001D01*
X147014826Y-117260997D01*
X150244004Y-114031820D01*
X150273001Y-114008023D01*
X150367974Y-113892298D01*
X150438546Y-113760269D01*
X150482003Y-113617008D01*
X150493000Y-113505355D01*
X150493000Y-113505347D01*
X150496676Y-113468022D01*
X150493000Y-113430697D01*
X150493000Y-111193711D01*
X150536937Y-111149774D01*
X150650205Y-110980256D01*
X150728226Y-110791898D01*
X150768000Y-110591939D01*
X150768000Y-110454435D01*
X155609029Y-110454435D01*
X155652966Y-110498372D01*
X155822484Y-110611640D01*
X156010842Y-110689661D01*
X156210801Y-110729435D01*
X156414679Y-110729435D01*
X156614638Y-110689661D01*
X156802996Y-110611640D01*
X156972514Y-110498372D01*
X157116677Y-110354209D01*
X157229945Y-110184691D01*
X157236382Y-110169151D01*
X157272733Y-110198984D01*
X157329179Y-110229155D01*
X157404763Y-110269556D01*
X157548024Y-110313013D01*
X157659677Y-110324010D01*
X157659687Y-110324010D01*
X157697010Y-110327686D01*
X157734333Y-110324010D01*
X167705430Y-110324010D01*
X167749367Y-110367947D01*
X167918885Y-110481215D01*
X168107243Y-110559236D01*
X168307202Y-110599010D01*
X168511080Y-110599010D01*
X168711039Y-110559236D01*
X168899397Y-110481215D01*
X169068915Y-110367947D01*
X169213078Y-110223784D01*
X169326346Y-110054266D01*
X169404367Y-109865908D01*
X169444141Y-109665949D01*
X169444141Y-109599000D01*
X169603289Y-109599000D01*
X169647226Y-109642937D01*
X169816744Y-109756205D01*
X170005102Y-109834226D01*
X170205061Y-109874000D01*
X170408939Y-109874000D01*
X170608898Y-109834226D01*
X170797256Y-109756205D01*
X170966774Y-109642937D01*
X171110937Y-109498774D01*
X171224205Y-109329256D01*
X171302226Y-109140898D01*
X171342000Y-108940939D01*
X171342000Y-108737061D01*
X171302226Y-108537102D01*
X171224205Y-108348744D01*
X171110937Y-108179226D01*
X170966774Y-108035063D01*
X170797256Y-107921795D01*
X170608898Y-107843774D01*
X170408939Y-107804000D01*
X170205061Y-107804000D01*
X170005102Y-107843774D01*
X169816744Y-107921795D01*
X169647226Y-108035063D01*
X169603289Y-108079000D01*
X164906802Y-108079000D01*
X160075804Y-103248003D01*
X160063440Y-103232938D01*
X160215411Y-103169990D01*
X160458632Y-103007475D01*
X160665475Y-102800632D01*
X160782000Y-102626240D01*
X160898525Y-102800632D01*
X161105368Y-103007475D01*
X161348589Y-103169990D01*
X161618842Y-103281932D01*
X161905740Y-103339000D01*
X162198260Y-103339000D01*
X162485158Y-103281932D01*
X162755411Y-103169990D01*
X162998632Y-103007475D01*
X163205475Y-102800632D01*
X163322000Y-102626240D01*
X163438525Y-102800632D01*
X163645368Y-103007475D01*
X163888589Y-103169990D01*
X164158842Y-103281932D01*
X164445740Y-103339000D01*
X164738260Y-103339000D01*
X165025158Y-103281932D01*
X165295411Y-103169990D01*
X165538632Y-103007475D01*
X165745475Y-102800632D01*
X165862000Y-102626240D01*
X165978525Y-102800632D01*
X166185368Y-103007475D01*
X166428589Y-103169990D01*
X166698842Y-103281932D01*
X166985740Y-103339000D01*
X167278260Y-103339000D01*
X167565158Y-103281932D01*
X167835411Y-103169990D01*
X168078632Y-103007475D01*
X168285475Y-102800632D01*
X168402000Y-102626240D01*
X168518525Y-102800632D01*
X168725368Y-103007475D01*
X168968589Y-103169990D01*
X169238842Y-103281932D01*
X169525740Y-103339000D01*
X169818260Y-103339000D01*
X170105158Y-103281932D01*
X170375411Y-103169990D01*
X170618632Y-103007475D01*
X170825475Y-102800632D01*
X170942000Y-102626240D01*
X171058525Y-102800632D01*
X171265368Y-103007475D01*
X171508589Y-103169990D01*
X171778842Y-103281932D01*
X172065740Y-103339000D01*
X172358260Y-103339000D01*
X172645158Y-103281932D01*
X172915411Y-103169990D01*
X173158632Y-103007475D01*
X173365475Y-102800632D01*
X173527990Y-102557411D01*
X173639932Y-102287158D01*
X173697000Y-102000260D01*
X173697000Y-101707740D01*
X173639932Y-101420842D01*
X173527990Y-101150589D01*
X173365475Y-100907368D01*
X173158632Y-100700525D01*
X172984240Y-100584000D01*
X173158632Y-100467475D01*
X173365475Y-100260632D01*
X173527990Y-100017411D01*
X173639932Y-99747158D01*
X173697000Y-99460260D01*
X173697000Y-99167740D01*
X173639932Y-98880842D01*
X173527990Y-98610589D01*
X173365475Y-98367368D01*
X173158632Y-98160525D01*
X172915411Y-97998010D01*
X172645158Y-97886068D01*
X172358260Y-97829000D01*
X172065740Y-97829000D01*
X171778842Y-97886068D01*
X171508589Y-97998010D01*
X171265368Y-98160525D01*
X171058525Y-98367368D01*
X170942000Y-98541760D01*
X170825475Y-98367368D01*
X170618632Y-98160525D01*
X170375411Y-97998010D01*
X170105158Y-97886068D01*
X169818260Y-97829000D01*
X169525740Y-97829000D01*
X169238842Y-97886068D01*
X168968589Y-97998010D01*
X168725368Y-98160525D01*
X168518525Y-98367368D01*
X168402000Y-98541760D01*
X168285475Y-98367368D01*
X168078632Y-98160525D01*
X167835411Y-97998010D01*
X167565158Y-97886068D01*
X167278260Y-97829000D01*
X166985740Y-97829000D01*
X166698842Y-97886068D01*
X166428589Y-97998010D01*
X166185368Y-98160525D01*
X165978525Y-98367368D01*
X165862000Y-98541760D01*
X165745475Y-98367368D01*
X165538632Y-98160525D01*
X165295411Y-97998010D01*
X165025158Y-97886068D01*
X164738260Y-97829000D01*
X164445740Y-97829000D01*
X164158842Y-97886068D01*
X163888589Y-97998010D01*
X163645368Y-98160525D01*
X163438525Y-98367368D01*
X163322000Y-98541760D01*
X163205475Y-98367368D01*
X162998632Y-98160525D01*
X162755411Y-97998010D01*
X162485158Y-97886068D01*
X162198260Y-97829000D01*
X161905740Y-97829000D01*
X161618842Y-97886068D01*
X161348589Y-97998010D01*
X161105368Y-98160525D01*
X160898525Y-98367368D01*
X160782000Y-98541760D01*
X160665475Y-98367368D01*
X160458632Y-98160525D01*
X160215411Y-97998010D01*
X159945158Y-97886068D01*
X159658260Y-97829000D01*
X159365740Y-97829000D01*
X159078842Y-97886068D01*
X159002000Y-97917897D01*
X159002000Y-94271322D01*
X159005676Y-94233999D01*
X159002000Y-94196676D01*
X159002000Y-94196667D01*
X158991003Y-94085014D01*
X158947546Y-93941753D01*
X158876974Y-93809724D01*
X158843779Y-93769276D01*
X158805799Y-93722996D01*
X158805795Y-93722992D01*
X158782001Y-93693999D01*
X158753008Y-93670205D01*
X156265803Y-91183002D01*
X156265799Y-91182997D01*
X155573000Y-90490199D01*
X155573000Y-86547801D01*
X156016802Y-86104000D01*
X157337987Y-86104000D01*
X157324795Y-86123744D01*
X157246774Y-86312102D01*
X157207000Y-86512061D01*
X157207000Y-86715939D01*
X157246774Y-86915898D01*
X157324795Y-87104256D01*
X157438063Y-87273774D01*
X157582226Y-87417937D01*
X157751744Y-87531205D01*
X157940102Y-87609226D01*
X158140061Y-87649000D01*
X158343939Y-87649000D01*
X158543898Y-87609226D01*
X158732256Y-87531205D01*
X158901774Y-87417937D01*
X159045937Y-87273774D01*
X159159205Y-87104256D01*
X159237226Y-86915898D01*
X159277000Y-86715939D01*
X159277000Y-86512061D01*
X159237226Y-86312102D01*
X159159205Y-86123744D01*
X159146013Y-86104000D01*
X159197199Y-86104000D01*
X163482208Y-90389010D01*
X158011812Y-90389010D01*
X158007000Y-90384198D01*
X158007000Y-90322061D01*
X157967226Y-90122102D01*
X157889205Y-89933744D01*
X157775937Y-89764226D01*
X157631774Y-89620063D01*
X157462256Y-89506795D01*
X157273898Y-89428774D01*
X157073939Y-89389000D01*
X156870061Y-89389000D01*
X156670102Y-89428774D01*
X156481744Y-89506795D01*
X156312226Y-89620063D01*
X156168063Y-89764226D01*
X156054795Y-89933744D01*
X155976774Y-90122102D01*
X155937000Y-90322061D01*
X155937000Y-90525939D01*
X155976774Y-90725898D01*
X156054795Y-90914256D01*
X156168063Y-91083774D01*
X156312226Y-91227937D01*
X156481744Y-91341205D01*
X156670102Y-91419226D01*
X156870061Y-91459000D01*
X156932198Y-91459000D01*
X157133211Y-91660012D01*
X157157009Y-91689011D01*
X157186007Y-91712809D01*
X157272733Y-91783984D01*
X157377531Y-91840000D01*
X157404763Y-91854556D01*
X157548024Y-91898013D01*
X157659677Y-91909010D01*
X157659687Y-91909010D01*
X157697010Y-91912686D01*
X157734333Y-91909010D01*
X167415000Y-91909010D01*
X167458937Y-91952947D01*
X167628455Y-92066215D01*
X167816813Y-92144236D01*
X168016772Y-92184010D01*
X168220650Y-92184010D01*
X168420609Y-92144236D01*
X168608967Y-92066215D01*
X168778485Y-91952947D01*
X168922648Y-91808784D01*
X169035916Y-91639266D01*
X169113937Y-91450908D01*
X169153711Y-91250949D01*
X169153711Y-91184000D01*
X169603289Y-91184000D01*
X169647226Y-91227937D01*
X169816744Y-91341205D01*
X170005102Y-91419226D01*
X170205061Y-91459000D01*
X170408939Y-91459000D01*
X170608898Y-91419226D01*
X170797256Y-91341205D01*
X170966774Y-91227937D01*
X171110937Y-91083774D01*
X171224205Y-90914256D01*
X171302226Y-90725898D01*
X171342000Y-90525939D01*
X171342000Y-90322061D01*
X171302226Y-90122102D01*
X171224205Y-89933744D01*
X171110937Y-89764226D01*
X170966774Y-89620063D01*
X170797256Y-89506795D01*
X170608898Y-89428774D01*
X170408939Y-89389000D01*
X170205061Y-89389000D01*
X170005102Y-89428774D01*
X169816744Y-89506795D01*
X169647226Y-89620063D01*
X169603289Y-89664000D01*
X164906802Y-89664000D01*
X160075804Y-84833003D01*
X160063440Y-84817938D01*
X160215411Y-84754990D01*
X160458632Y-84592475D01*
X160665475Y-84385632D01*
X160782000Y-84211240D01*
X160898525Y-84385632D01*
X161105368Y-84592475D01*
X161348589Y-84754990D01*
X161618842Y-84866932D01*
X161905740Y-84924000D01*
X162198260Y-84924000D01*
X162485158Y-84866932D01*
X162755411Y-84754990D01*
X162998632Y-84592475D01*
X163205475Y-84385632D01*
X163322000Y-84211240D01*
X163438525Y-84385632D01*
X163645368Y-84592475D01*
X163888589Y-84754990D01*
X164158842Y-84866932D01*
X164445740Y-84924000D01*
X164738260Y-84924000D01*
X165025158Y-84866932D01*
X165295411Y-84754990D01*
X165538632Y-84592475D01*
X165745475Y-84385632D01*
X165862000Y-84211240D01*
X165978525Y-84385632D01*
X166185368Y-84592475D01*
X166428589Y-84754990D01*
X166698842Y-84866932D01*
X166985740Y-84924000D01*
X167278260Y-84924000D01*
X167565158Y-84866932D01*
X167835411Y-84754990D01*
X168078632Y-84592475D01*
X168285475Y-84385632D01*
X168402000Y-84211240D01*
X168518525Y-84385632D01*
X168725368Y-84592475D01*
X168968589Y-84754990D01*
X169238842Y-84866932D01*
X169525740Y-84924000D01*
X169818260Y-84924000D01*
X170105158Y-84866932D01*
X170375411Y-84754990D01*
X170618632Y-84592475D01*
X170825475Y-84385632D01*
X170942000Y-84211240D01*
X171058525Y-84385632D01*
X171265368Y-84592475D01*
X171508589Y-84754990D01*
X171778842Y-84866932D01*
X172065740Y-84924000D01*
X172358260Y-84924000D01*
X172645158Y-84866932D01*
X172915411Y-84754990D01*
X173158632Y-84592475D01*
X173365475Y-84385632D01*
X173527990Y-84142411D01*
X173639932Y-83872158D01*
X173697000Y-83585260D01*
X173697000Y-83292740D01*
X173639932Y-83005842D01*
X173527990Y-82735589D01*
X173365475Y-82492368D01*
X173158632Y-82285525D01*
X172984240Y-82169000D01*
X173158632Y-82052475D01*
X173365475Y-81845632D01*
X173527990Y-81602411D01*
X173639932Y-81332158D01*
X173697000Y-81045260D01*
X173697000Y-80752740D01*
X173639932Y-80465842D01*
X173527990Y-80195589D01*
X173365475Y-79952368D01*
X173158632Y-79745525D01*
X172915411Y-79583010D01*
X172645158Y-79471068D01*
X172358260Y-79414000D01*
X172065740Y-79414000D01*
X171778842Y-79471068D01*
X171508589Y-79583010D01*
X171265368Y-79745525D01*
X171058525Y-79952368D01*
X170942000Y-80126760D01*
X170825475Y-79952368D01*
X170618632Y-79745525D01*
X170375411Y-79583010D01*
X170105158Y-79471068D01*
X169818260Y-79414000D01*
X169525740Y-79414000D01*
X169238842Y-79471068D01*
X168968589Y-79583010D01*
X168725368Y-79745525D01*
X168518525Y-79952368D01*
X168402000Y-80126760D01*
X168285475Y-79952368D01*
X168078632Y-79745525D01*
X167835411Y-79583010D01*
X167565158Y-79471068D01*
X167278260Y-79414000D01*
X166985740Y-79414000D01*
X166698842Y-79471068D01*
X166428589Y-79583010D01*
X166185368Y-79745525D01*
X165978525Y-79952368D01*
X165862000Y-80126760D01*
X165745475Y-79952368D01*
X165538632Y-79745525D01*
X165295411Y-79583010D01*
X165025158Y-79471068D01*
X164738260Y-79414000D01*
X164445740Y-79414000D01*
X164158842Y-79471068D01*
X163888589Y-79583010D01*
X163645368Y-79745525D01*
X163438525Y-79952368D01*
X163322000Y-80126760D01*
X163205475Y-79952368D01*
X162998632Y-79745525D01*
X162755411Y-79583010D01*
X162485158Y-79471068D01*
X162198260Y-79414000D01*
X161905740Y-79414000D01*
X161618842Y-79471068D01*
X161348589Y-79583010D01*
X161105368Y-79745525D01*
X160898525Y-79952368D01*
X160782000Y-80126760D01*
X160665475Y-79952368D01*
X160458632Y-79745525D01*
X160215411Y-79583010D01*
X159945158Y-79471068D01*
X159658260Y-79414000D01*
X159365740Y-79414000D01*
X159078842Y-79471068D01*
X159002000Y-79502897D01*
X159002000Y-78800801D01*
X163382802Y-74420000D01*
X168745678Y-74420000D01*
X168783000Y-74423676D01*
X168820322Y-74420000D01*
X168820333Y-74420000D01*
X168931986Y-74409003D01*
X169075247Y-74365546D01*
X169207276Y-74294974D01*
X169323001Y-74200001D01*
X169346804Y-74170997D01*
X171003851Y-72513951D01*
X171032848Y-72490154D01*
X171127821Y-72374429D01*
X171198393Y-72242400D01*
X171241850Y-72099139D01*
X171252847Y-71987486D01*
X171252847Y-71987476D01*
X171256523Y-71950153D01*
X171252847Y-71912830D01*
X171252847Y-68992711D01*
X171296784Y-68948774D01*
X171410052Y-68779256D01*
X171488073Y-68590898D01*
X171527847Y-68390939D01*
X171527847Y-68187061D01*
X171488073Y-67987102D01*
X171410052Y-67798744D01*
X171296784Y-67629226D01*
X171152621Y-67485063D01*
X170983103Y-67371795D01*
X170794745Y-67293774D01*
X170594786Y-67254000D01*
X170390908Y-67254000D01*
X170190949Y-67293774D01*
X170002591Y-67371795D01*
X169833073Y-67485063D01*
X169789136Y-67529000D01*
X161982109Y-67529000D01*
X161944784Y-67525324D01*
X161907459Y-67529000D01*
X161907451Y-67529000D01*
X161795798Y-67539997D01*
X161652537Y-67583454D01*
X161520508Y-67654026D01*
X161404783Y-67748999D01*
X161380985Y-67777997D01*
X158071244Y-71087739D01*
X158009106Y-71087739D01*
X157809147Y-71127513D01*
X157620789Y-71205534D01*
X157451271Y-71318802D01*
X157307108Y-71462965D01*
X157193840Y-71632483D01*
X157115819Y-71820841D01*
X157076045Y-72020800D01*
X157076045Y-72224678D01*
X157084065Y-72265000D01*
X156755325Y-72265000D01*
X156718000Y-72261324D01*
X156680675Y-72265000D01*
X156680667Y-72265000D01*
X156569014Y-72275997D01*
X156425753Y-72319454D01*
X156293724Y-72390026D01*
X156177999Y-72484999D01*
X156154201Y-72513997D01*
X155830934Y-72837264D01*
X155808226Y-72723102D01*
X155730205Y-72534744D01*
X155616937Y-72365226D01*
X155472774Y-72221063D01*
X155303256Y-72107795D01*
X155114898Y-72029774D01*
X154914939Y-71990000D01*
X154711061Y-71990000D01*
X154511102Y-72029774D01*
X154322744Y-72107795D01*
X154153226Y-72221063D01*
X154009063Y-72365226D01*
X153895795Y-72534744D01*
X153817774Y-72723102D01*
X153778000Y-72923061D01*
X153778000Y-72985198D01*
X149058199Y-77705000D01*
X148996061Y-77705000D01*
X148796102Y-77744774D01*
X148607744Y-77822795D01*
X148438226Y-77936063D01*
X148294063Y-78080226D01*
X148180795Y-78249744D01*
X148102774Y-78438102D01*
X148063000Y-78638061D01*
X148063000Y-78841939D01*
X148102774Y-79041898D01*
X148180795Y-79230256D01*
X148294063Y-79399774D01*
X148438226Y-79543937D01*
X148607744Y-79657205D01*
X148737229Y-79710840D01*
X148698000Y-79908061D01*
X148698000Y-80111939D01*
X148737774Y-80311898D01*
X148815795Y-80500256D01*
X148929063Y-80669774D01*
X149073226Y-80813937D01*
X149242744Y-80927205D01*
X149431102Y-81005226D01*
X149631061Y-81045000D01*
X149834939Y-81045000D01*
X150034898Y-81005226D01*
X150223256Y-80927205D01*
X150392774Y-80813937D01*
X150536937Y-80669774D01*
X150650205Y-80500256D01*
X150728226Y-80311898D01*
X150768000Y-80111939D01*
X150768000Y-80049801D01*
X157032802Y-73785000D01*
X157919289Y-73785000D01*
X157963226Y-73828937D01*
X158132744Y-73942205D01*
X158321102Y-74020226D01*
X158521061Y-74060000D01*
X158724939Y-74060000D01*
X158924898Y-74020226D01*
X159113256Y-73942205D01*
X159282774Y-73828937D01*
X159426937Y-73684774D01*
X159540205Y-73515256D01*
X159549005Y-73494010D01*
X162159188Y-73494010D01*
X157730998Y-77922201D01*
X157702000Y-77945999D01*
X157678202Y-77974997D01*
X157678201Y-77974998D01*
X157607026Y-78061724D01*
X157536454Y-78193754D01*
X157492998Y-78337015D01*
X157478324Y-78486000D01*
X157482001Y-78523332D01*
X157482001Y-79502897D01*
X157405158Y-79471068D01*
X157118260Y-79414000D01*
X156825740Y-79414000D01*
X156538842Y-79471068D01*
X156268589Y-79583010D01*
X156025368Y-79745525D01*
X155818525Y-79952368D01*
X155702000Y-80126760D01*
X155585475Y-79952368D01*
X155378632Y-79745525D01*
X155135411Y-79583010D01*
X154865158Y-79471068D01*
X154578260Y-79414000D01*
X154285740Y-79414000D01*
X153998842Y-79471068D01*
X153728589Y-79583010D01*
X153485368Y-79745525D01*
X153278525Y-79952368D01*
X153116010Y-80195589D01*
X153004068Y-80465842D01*
X152947000Y-80752740D01*
X152947000Y-81045260D01*
X153004068Y-81332158D01*
X153116010Y-81602411D01*
X153278525Y-81845632D01*
X153410380Y-81977487D01*
X153337820Y-81999498D01*
X153227506Y-82058463D01*
X153130815Y-82137815D01*
X153051463Y-82234506D01*
X152992498Y-82344820D01*
X152956188Y-82464518D01*
X152943928Y-82589000D01*
X152943928Y-84289000D01*
X152956188Y-84413482D01*
X152992498Y-84533180D01*
X153051463Y-84643494D01*
X153130815Y-84740185D01*
X153227506Y-84819537D01*
X153337820Y-84878502D01*
X153457518Y-84914812D01*
X153582000Y-84927072D01*
X155044126Y-84927072D01*
X154302002Y-85669197D01*
X154272999Y-85692999D01*
X154217871Y-85760174D01*
X154178026Y-85808724D01*
X154131121Y-85896476D01*
X154107454Y-85940754D01*
X154063997Y-86084015D01*
X154053000Y-86195668D01*
X154053000Y-86195678D01*
X154049324Y-86233000D01*
X154053000Y-86270323D01*
X154053001Y-88227658D01*
X154053000Y-88227668D01*
X154053001Y-90045000D01*
X149166711Y-90045000D01*
X149122774Y-90001063D01*
X148953256Y-89887795D01*
X148764898Y-89809774D01*
X148564939Y-89770000D01*
X148361061Y-89770000D01*
X148161102Y-89809774D01*
X147972744Y-89887795D01*
X147803226Y-90001063D01*
X147659063Y-90145226D01*
X147545795Y-90314744D01*
X147467774Y-90503102D01*
X147428000Y-90703061D01*
X147428000Y-90906939D01*
X147467774Y-91106898D01*
X147545795Y-91295256D01*
X147659063Y-91464774D01*
X147803226Y-91608937D01*
X147972744Y-91722205D01*
X148161102Y-91800226D01*
X148361061Y-91840000D01*
X148564939Y-91840000D01*
X148764898Y-91800226D01*
X148953256Y-91722205D01*
X149122774Y-91608937D01*
X149166711Y-91565000D01*
X153241504Y-91565000D01*
X152211160Y-92595345D01*
X152211149Y-92595354D01*
X152211145Y-92595358D01*
X152182152Y-92619152D01*
X152158358Y-92648145D01*
X150492002Y-94314503D01*
X150462999Y-94338305D01*
X150407871Y-94405480D01*
X150368026Y-94454030D01*
X150314864Y-94553488D01*
X150297454Y-94586060D01*
X150253997Y-94729321D01*
X150243000Y-94840974D01*
X150243000Y-94840984D01*
X150239324Y-94878306D01*
X150243000Y-94915629D01*
X150243001Y-95816288D01*
X150199063Y-95860226D01*
X150085795Y-96029744D01*
X150007774Y-96218102D01*
X149968000Y-96418061D01*
X149968000Y-96621939D01*
X150001039Y-96788039D01*
X149834939Y-96755000D01*
X149772802Y-96755000D01*
X146048000Y-93030199D01*
X146048000Y-92778711D01*
X146091937Y-92734774D01*
X146205205Y-92565256D01*
X146283226Y-92376898D01*
X146323000Y-92176939D01*
X146323000Y-91973061D01*
X146283226Y-91773102D01*
X146205205Y-91584744D01*
X146091937Y-91415226D01*
X145947774Y-91271063D01*
X145778256Y-91157795D01*
X145589898Y-91079774D01*
X145389939Y-91040000D01*
X145186061Y-91040000D01*
X144986102Y-91079774D01*
X144797744Y-91157795D01*
X144628226Y-91271063D01*
X144484063Y-91415226D01*
X144370795Y-91584744D01*
X144292774Y-91773102D01*
X144253000Y-91973061D01*
X144253000Y-92176939D01*
X144292774Y-92376898D01*
X144370795Y-92565256D01*
X144484063Y-92734774D01*
X144528000Y-92778711D01*
X144528000Y-93307677D01*
X144524324Y-93345000D01*
X144528000Y-93382322D01*
X144528000Y-93382332D01*
X144538997Y-93493985D01*
X144575429Y-93614087D01*
X144582454Y-93637246D01*
X144653026Y-93769276D01*
X144686221Y-93809724D01*
X144747999Y-93885001D01*
X144777003Y-93908804D01*
X148698000Y-97829802D01*
X148698000Y-97891939D01*
X148737774Y-98091898D01*
X148815795Y-98280256D01*
X148929063Y-98449774D01*
X149073226Y-98593937D01*
X149242744Y-98707205D01*
X149431102Y-98785226D01*
X149631061Y-98825000D01*
X149834939Y-98825000D01*
X150034898Y-98785226D01*
X150223256Y-98707205D01*
X150392774Y-98593937D01*
X150536937Y-98449774D01*
X150650205Y-98280256D01*
X150728226Y-98091898D01*
X150768000Y-97891939D01*
X150768000Y-97688061D01*
X150734961Y-97521961D01*
X150901061Y-97555000D01*
X151104939Y-97555000D01*
X151304898Y-97515226D01*
X151493256Y-97437205D01*
X151662774Y-97323937D01*
X151806937Y-97179774D01*
X151920205Y-97010256D01*
X151998226Y-96821898D01*
X152038000Y-96621939D01*
X152038000Y-96418061D01*
X151998226Y-96218102D01*
X151920205Y-96029744D01*
X151806937Y-95860226D01*
X151763000Y-95816289D01*
X151763000Y-95193107D01*
X152722154Y-94233955D01*
X155037000Y-96548802D01*
X155037000Y-97957247D01*
X154865158Y-97886068D01*
X154578260Y-97829000D01*
X154285740Y-97829000D01*
X153998842Y-97886068D01*
X153728589Y-97998010D01*
X153485368Y-98160525D01*
X153278525Y-98367368D01*
X153116010Y-98610589D01*
X153004068Y-98880842D01*
X152947000Y-99167740D01*
X152947000Y-99460260D01*
X153004068Y-99747158D01*
X153116010Y-100017411D01*
X153278525Y-100260632D01*
X153410380Y-100392487D01*
X153337820Y-100414498D01*
X153227506Y-100473463D01*
X153130815Y-100552815D01*
X153051463Y-100649506D01*
X152992498Y-100759820D01*
X152956188Y-100879518D01*
X152943928Y-101004000D01*
X152943928Y-102704000D01*
X152956188Y-102828482D01*
X152992498Y-102948180D01*
X153051463Y-103058494D01*
X153130815Y-103155185D01*
X153227506Y-103234537D01*
X153337820Y-103293502D01*
X153457518Y-103329812D01*
X153582000Y-103342072D01*
X155036999Y-103342072D01*
X155036999Y-107626677D01*
X155033323Y-107663999D01*
X155036999Y-107701321D01*
X155036999Y-107701331D01*
X155047996Y-107812984D01*
X155080458Y-107919999D01*
X155091453Y-107956245D01*
X155162025Y-108088275D01*
X155163538Y-108090118D01*
X155256998Y-108204000D01*
X155286002Y-108227803D01*
X155831637Y-108773439D01*
X155822484Y-108777230D01*
X155652966Y-108890498D01*
X155609029Y-108934435D01*
X149492888Y-108934435D01*
X149455563Y-108930759D01*
X149418238Y-108934435D01*
X149418230Y-108934435D01*
X149306577Y-108945432D01*
X149163316Y-108988889D01*
X149031287Y-109059461D01*
X148915562Y-109154434D01*
X148891764Y-109183432D01*
X147952022Y-110123174D01*
X147923019Y-110146977D01*
X147875807Y-110204506D01*
X147828046Y-110262702D01*
X147801155Y-110313012D01*
X147757474Y-110394732D01*
X147714017Y-110537993D01*
X147703020Y-110649646D01*
X147703020Y-110649656D01*
X147699344Y-110686978D01*
X147703020Y-110724301D01*
X147703021Y-112905000D01*
X144329306Y-112905000D01*
X144378226Y-112786898D01*
X144418000Y-112586939D01*
X144418000Y-112383061D01*
X144378226Y-112183102D01*
X144300205Y-111994744D01*
X144186937Y-111825226D01*
X144042774Y-111681063D01*
X143873256Y-111567795D01*
X143684898Y-111489774D01*
X143484939Y-111450000D01*
X143422802Y-111450000D01*
X141412503Y-109439702D01*
X141412503Y-106543589D01*
X141925000Y-106543589D01*
X141925000Y-106816411D01*
X141978225Y-107083989D01*
X142082629Y-107336043D01*
X142234201Y-107562886D01*
X142427114Y-107755799D01*
X142653957Y-107907371D01*
X142906011Y-108011775D01*
X143173589Y-108065000D01*
X143446411Y-108065000D01*
X143713989Y-108011775D01*
X143966043Y-107907371D01*
X144192886Y-107755799D01*
X144385799Y-107562886D01*
X144537371Y-107336043D01*
X144641775Y-107083989D01*
X144695000Y-106816411D01*
X144695000Y-106543589D01*
X144641775Y-106276011D01*
X144537371Y-106023957D01*
X144385799Y-105797114D01*
X144192886Y-105604201D01*
X143966043Y-105452629D01*
X143713989Y-105348225D01*
X143446411Y-105295000D01*
X143173589Y-105295000D01*
X142906011Y-105348225D01*
X142653957Y-105452629D01*
X142427114Y-105604201D01*
X142234201Y-105797114D01*
X142082629Y-106023957D01*
X141978225Y-106276011D01*
X141925000Y-106543589D01*
X141412503Y-106543589D01*
X141412503Y-96906214D01*
X141456440Y-96862277D01*
X141569708Y-96692759D01*
X141647729Y-96504401D01*
X141687503Y-96304442D01*
X141687503Y-96100564D01*
X141647729Y-95900605D01*
X141569708Y-95712247D01*
X141456440Y-95542729D01*
X141312277Y-95398566D01*
X141142759Y-95285298D01*
X140954401Y-95207277D01*
X140897546Y-95195968D01*
X140820001Y-95118423D01*
X140820001Y-93159077D01*
X143851050Y-90128029D01*
X143884817Y-90100317D01*
X143966274Y-90001063D01*
X143995411Y-89965559D01*
X144012416Y-89933744D01*
X144077589Y-89811813D01*
X144128195Y-89644990D01*
X144141000Y-89514977D01*
X144141000Y-89514969D01*
X144145281Y-89471500D01*
X144141000Y-89428031D01*
X144141000Y-86149469D01*
X144145281Y-86106000D01*
X144141000Y-86062531D01*
X144141000Y-86062523D01*
X144128195Y-85932510D01*
X144113480Y-85884001D01*
X144077589Y-85765686D01*
X143995411Y-85611941D01*
X143912532Y-85510953D01*
X143912530Y-85510951D01*
X143884817Y-85477183D01*
X143851049Y-85449470D01*
X143075539Y-84673960D01*
X143090000Y-84601260D01*
X143090000Y-84308740D01*
X143032932Y-84021842D01*
X142920990Y-83751589D01*
X142758475Y-83508368D01*
X142740000Y-83489893D01*
X142740000Y-83183000D01*
X146751199Y-83183000D01*
X148698000Y-85129802D01*
X148698000Y-85191939D01*
X148737774Y-85391898D01*
X148815795Y-85580256D01*
X148929063Y-85749774D01*
X149073226Y-85893937D01*
X149242744Y-86007205D01*
X149431102Y-86085226D01*
X149631061Y-86125000D01*
X149834939Y-86125000D01*
X150034898Y-86085226D01*
X150223256Y-86007205D01*
X150392774Y-85893937D01*
X150536937Y-85749774D01*
X150650205Y-85580256D01*
X150728226Y-85391898D01*
X150768000Y-85191939D01*
X150768000Y-84988061D01*
X150728226Y-84788102D01*
X150650205Y-84599744D01*
X150536937Y-84430226D01*
X150392774Y-84286063D01*
X150223256Y-84172795D01*
X150034898Y-84094774D01*
X149834939Y-84055000D01*
X149772802Y-84055000D01*
X147629804Y-81912003D01*
X147606001Y-81882999D01*
X147490276Y-81788026D01*
X147358247Y-81717454D01*
X147214986Y-81673997D01*
X147103333Y-81663000D01*
X147103322Y-81663000D01*
X147066000Y-81659324D01*
X147028678Y-81663000D01*
X142740000Y-81663000D01*
X142740000Y-80700752D01*
X142745491Y-80645000D01*
X142723577Y-80422501D01*
X142658676Y-80208553D01*
X142553284Y-80011377D01*
X142446989Y-79881856D01*
X142446987Y-79881854D01*
X142411449Y-79838551D01*
X142368146Y-79803013D01*
X139685135Y-77120003D01*
X141411086Y-77120003D01*
X141506270Y-77386165D01*
X141651551Y-77628644D01*
X141841346Y-77838121D01*
X142068361Y-78006545D01*
X142323872Y-78127445D01*
X142459745Y-78168662D01*
X142682874Y-78046767D01*
X142682874Y-76896874D01*
X142936874Y-76896874D01*
X142936874Y-78046767D01*
X143160003Y-78168662D01*
X143426165Y-78073478D01*
X143668644Y-77928197D01*
X143878121Y-77738402D01*
X144046545Y-77511387D01*
X144167445Y-77255876D01*
X144208662Y-77120003D01*
X144086767Y-76896874D01*
X142936874Y-76896874D01*
X142682874Y-76896874D01*
X141532981Y-76896874D01*
X141411086Y-77120003D01*
X139685135Y-77120003D01*
X139400131Y-76835000D01*
X139815386Y-76419745D01*
X141411086Y-76419745D01*
X141532981Y-76642874D01*
X142682874Y-76642874D01*
X142682874Y-75492981D01*
X142936874Y-75492981D01*
X142936874Y-76642874D01*
X144086767Y-76642874D01*
X144208662Y-76419745D01*
X144113478Y-76153583D01*
X143968197Y-75911104D01*
X143778402Y-75701627D01*
X143551387Y-75533203D01*
X143295876Y-75412303D01*
X143160003Y-75371086D01*
X142936874Y-75492981D01*
X142682874Y-75492981D01*
X142459745Y-75371086D01*
X142193583Y-75466270D01*
X141951104Y-75611551D01*
X141741627Y-75801346D01*
X141573203Y-76028361D01*
X141452303Y-76283872D01*
X141411086Y-76419745D01*
X139815386Y-76419745D01*
X140512282Y-75722850D01*
X140753574Y-75674853D01*
X141014727Y-75566680D01*
X141249759Y-75409637D01*
X141449637Y-75209759D01*
X141606680Y-74974727D01*
X141714853Y-74713574D01*
X141770000Y-74436335D01*
X141770000Y-74153665D01*
X141714853Y-73876426D01*
X141606680Y-73615273D01*
X141449637Y-73380241D01*
X141249759Y-73180363D01*
X141014727Y-73023320D01*
X140753574Y-72915147D01*
X140476335Y-72860000D01*
X140193665Y-72860000D01*
X139916426Y-72915147D01*
X139655273Y-73023320D01*
X139420241Y-73180363D01*
X139220363Y-73380241D01*
X139063320Y-73615273D01*
X138955147Y-73876426D01*
X138907150Y-74117718D01*
X137031861Y-75993008D01*
X137031856Y-75993012D01*
X137031849Y-75993019D01*
X136988552Y-76028552D01*
X136953019Y-76071849D01*
X135419869Y-77605000D01*
X130010132Y-77605000D01*
X128796773Y-76391642D01*
X129001031Y-76142752D01*
X129152852Y-75858715D01*
X129246343Y-75550515D01*
X129270000Y-75310321D01*
X129270000Y-74549679D01*
X129500000Y-74549679D01*
X129500000Y-75310322D01*
X129523657Y-75550516D01*
X129617148Y-75858715D01*
X129768969Y-76142752D01*
X129973286Y-76391714D01*
X130222249Y-76596031D01*
X130506286Y-76747852D01*
X130814485Y-76841343D01*
X131135000Y-76872911D01*
X131455516Y-76841343D01*
X131763715Y-76747852D01*
X132047752Y-76596031D01*
X132296714Y-76391714D01*
X132501031Y-76142752D01*
X132652852Y-75858715D01*
X132746343Y-75550515D01*
X132770000Y-75310321D01*
X132770000Y-74549678D01*
X132746343Y-74309484D01*
X132652852Y-74001285D01*
X132501031Y-73717248D01*
X132296714Y-73468286D01*
X132047751Y-73263969D01*
X131763714Y-73112148D01*
X131455515Y-73018657D01*
X131135000Y-72987089D01*
X130814484Y-73018657D01*
X130506285Y-73112148D01*
X130222248Y-73263969D01*
X129973286Y-73468286D01*
X129768969Y-73717249D01*
X129617148Y-74001286D01*
X129523657Y-74309485D01*
X129500000Y-74549679D01*
X129270000Y-74549679D01*
X129270000Y-74549678D01*
X129246343Y-74309484D01*
X129152852Y-74001285D01*
X129001031Y-73717248D01*
X128796714Y-73468286D01*
X128547751Y-73263969D01*
X128263714Y-73112148D01*
X127955515Y-73018657D01*
X127635000Y-72987089D01*
X127314484Y-73018657D01*
X127006285Y-73112148D01*
X126722248Y-73263969D01*
X126473286Y-73468286D01*
X126268969Y-73717249D01*
X126117148Y-74001286D01*
X126023657Y-74309485D01*
X126000000Y-74549679D01*
X126000000Y-75310322D01*
X126023657Y-75550516D01*
X126117148Y-75858715D01*
X126268969Y-76142752D01*
X126473286Y-76391714D01*
X126500001Y-76413638D01*
X126500001Y-76779239D01*
X126494509Y-76835000D01*
X126516423Y-77057498D01*
X126581324Y-77271446D01*
X126608032Y-77321413D01*
X126686717Y-77468623D01*
X126828552Y-77641449D01*
X126871860Y-77676991D01*
X128698009Y-79503141D01*
X128733551Y-79546449D01*
X128868507Y-79657205D01*
X128906377Y-79688284D01*
X129103553Y-79793676D01*
X129317501Y-79858577D01*
X129540000Y-79880491D01*
X129595752Y-79875000D01*
X135834249Y-79875000D01*
X135890000Y-79880491D01*
X135945751Y-79875000D01*
X135945752Y-79875000D01*
X136112499Y-79858577D01*
X136326447Y-79793676D01*
X136523623Y-79688284D01*
X136696449Y-79546449D01*
X136731996Y-79503135D01*
X137795000Y-78440132D01*
X140470000Y-81115133D01*
X140470000Y-82367249D01*
X140470001Y-83489892D01*
X140451525Y-83508368D01*
X140335000Y-83682760D01*
X140218475Y-83508368D01*
X140011632Y-83301525D01*
X139768411Y-83139010D01*
X139498158Y-83027068D01*
X139211260Y-82970000D01*
X138918740Y-82970000D01*
X138631842Y-83027068D01*
X138361589Y-83139010D01*
X138118368Y-83301525D01*
X137911525Y-83508368D01*
X137789805Y-83690534D01*
X137720178Y-83573645D01*
X137525269Y-83357412D01*
X137291920Y-83183359D01*
X137029099Y-83058175D01*
X136881890Y-83013524D01*
X136652000Y-83134845D01*
X136652000Y-84328000D01*
X136672000Y-84328000D01*
X136672000Y-84582000D01*
X136652000Y-84582000D01*
X136652000Y-84602000D01*
X136398000Y-84602000D01*
X136398000Y-84582000D01*
X135204186Y-84582000D01*
X135083519Y-84811891D01*
X135180843Y-85086252D01*
X135329822Y-85336355D01*
X135524731Y-85552588D01*
X135754406Y-85723900D01*
X135578368Y-85841525D01*
X135371525Y-86048368D01*
X135209010Y-86291589D01*
X135097068Y-86561842D01*
X135040000Y-86848740D01*
X135040000Y-87141260D01*
X135083790Y-87361408D01*
X132838998Y-89606201D01*
X132810000Y-89629999D01*
X132786202Y-89658997D01*
X132786201Y-89658998D01*
X132715026Y-89745724D01*
X132644454Y-89877754D01*
X132617820Y-89965558D01*
X132600998Y-90021014D01*
X132597552Y-90055998D01*
X132586324Y-90170000D01*
X132590001Y-90207332D01*
X132590000Y-95816289D01*
X132546063Y-95860226D01*
X132432795Y-96029744D01*
X132354774Y-96218102D01*
X132332066Y-96332265D01*
X132205000Y-96205199D01*
X132205000Y-94683711D01*
X132248937Y-94639774D01*
X132362205Y-94470256D01*
X132440226Y-94281898D01*
X132480000Y-94081939D01*
X132480000Y-93878061D01*
X132440226Y-93678102D01*
X132362205Y-93489744D01*
X132248937Y-93320226D01*
X132104774Y-93176063D01*
X131935256Y-93062795D01*
X131746898Y-92984774D01*
X131546939Y-92945000D01*
X131343061Y-92945000D01*
X131143102Y-92984774D01*
X130954744Y-93062795D01*
X130785226Y-93176063D01*
X130641063Y-93320226D01*
X130527795Y-93489744D01*
X130449774Y-93678102D01*
X130410000Y-93878061D01*
X130410000Y-94081939D01*
X130449774Y-94281898D01*
X130527795Y-94470256D01*
X130641063Y-94639774D01*
X130685001Y-94683712D01*
X130685000Y-96482677D01*
X130681324Y-96520000D01*
X130685000Y-96557322D01*
X130685000Y-96557332D01*
X130695997Y-96668985D01*
X130734154Y-96794774D01*
X130739454Y-96812246D01*
X130810026Y-96944276D01*
X130841807Y-96983001D01*
X130904999Y-97060001D01*
X130934003Y-97083804D01*
X131640198Y-97790000D01*
X130299002Y-99131197D01*
X130298997Y-99131201D01*
X128865199Y-100565000D01*
X128803061Y-100565000D01*
X128603102Y-100604774D01*
X128414744Y-100682795D01*
X128245226Y-100796063D01*
X128101063Y-100940226D01*
X127987795Y-101109744D01*
X127909774Y-101298102D01*
X127870000Y-101498061D01*
X127870000Y-101701939D01*
X127909774Y-101901898D01*
X127987795Y-102090256D01*
X128101063Y-102259774D01*
X128245226Y-102403937D01*
X128414744Y-102517205D01*
X128603102Y-102595226D01*
X128803061Y-102635000D01*
X129006939Y-102635000D01*
X129206898Y-102595226D01*
X129395256Y-102517205D01*
X129564774Y-102403937D01*
X129708937Y-102259774D01*
X129822205Y-102090256D01*
X129900226Y-101901898D01*
X129940000Y-101701939D01*
X129940000Y-101639801D01*
X131373799Y-100206003D01*
X131373803Y-100205998D01*
X133029802Y-98550000D01*
X135217678Y-98550000D01*
X135255000Y-98553676D01*
X135292322Y-98550000D01*
X135292333Y-98550000D01*
X135403986Y-98539003D01*
X135547247Y-98495546D01*
X135679276Y-98424974D01*
X135795001Y-98330001D01*
X135818804Y-98300997D01*
X138979803Y-95139999D01*
X139050002Y-95139999D01*
X139050002Y-95441523D01*
X139045720Y-95485001D01*
X139062806Y-95658491D01*
X139113413Y-95825314D01*
X139195591Y-95979060D01*
X139278469Y-96080047D01*
X139278472Y-96080050D01*
X139306185Y-96113818D01*
X139339952Y-96141530D01*
X139645968Y-96447546D01*
X139657277Y-96504401D01*
X139735298Y-96692759D01*
X139848566Y-96862277D01*
X139892504Y-96906215D01*
X139892503Y-109717181D01*
X139888827Y-109754503D01*
X139892503Y-109791825D01*
X139892503Y-109791835D01*
X139903500Y-109903488D01*
X139940777Y-110026377D01*
X139946957Y-110046749D01*
X140017529Y-110178779D01*
X140033101Y-110197753D01*
X140112502Y-110294504D01*
X140141506Y-110318307D01*
X142348000Y-112524802D01*
X142348000Y-112586939D01*
X142387774Y-112786898D01*
X142436694Y-112905000D01*
X112940323Y-112905000D01*
X112903000Y-112901324D01*
X112865677Y-112905000D01*
X112865667Y-112905000D01*
X112754014Y-112915997D01*
X112610753Y-112959454D01*
X112478724Y-113030026D01*
X112362999Y-113124999D01*
X112339201Y-113153997D01*
X110958199Y-114535000D01*
X110896061Y-114535000D01*
X110696102Y-114574774D01*
X110507744Y-114652795D01*
X110338226Y-114766063D01*
X110194063Y-114910226D01*
X110080795Y-115079744D01*
X110002774Y-115268102D01*
X109963000Y-115468061D01*
X93903000Y-115468061D01*
X93903000Y-111079224D01*
X103225381Y-111079224D01*
X103357317Y-111374312D01*
X103698045Y-111545159D01*
X104065557Y-111646250D01*
X104445729Y-111673701D01*
X104823951Y-111626457D01*
X105185690Y-111506333D01*
X105432683Y-111374312D01*
X105564619Y-111079224D01*
X104395000Y-109909605D01*
X103225381Y-111079224D01*
X93903000Y-111079224D01*
X93903000Y-107727409D01*
X98705000Y-107727409D01*
X98705000Y-108172591D01*
X98791851Y-108609218D01*
X98962214Y-109020511D01*
X99209544Y-109390666D01*
X99524334Y-109705456D01*
X99894489Y-109952786D01*
X100305782Y-110123149D01*
X100742409Y-110210000D01*
X101187591Y-110210000D01*
X101624218Y-110123149D01*
X102035511Y-109952786D01*
X102405666Y-109705456D01*
X102460709Y-109650413D01*
X102451299Y-109780729D01*
X102498543Y-110158951D01*
X102618667Y-110520690D01*
X102750688Y-110767683D01*
X103045776Y-110899619D01*
X104215395Y-109730000D01*
X104574605Y-109730000D01*
X105744224Y-110899619D01*
X106039312Y-110767683D01*
X106210159Y-110426955D01*
X106264567Y-110229155D01*
X121725450Y-110229155D01*
X122121634Y-110749550D01*
X122836612Y-111139748D01*
X123613976Y-111382964D01*
X124423853Y-111469851D01*
X125235118Y-111397069D01*
X126016597Y-111167415D01*
X126738256Y-110789715D01*
X126798366Y-110749550D01*
X127194550Y-110229155D01*
X124460000Y-107494605D01*
X121725450Y-110229155D01*
X106264567Y-110229155D01*
X106311250Y-110059443D01*
X106338701Y-109679271D01*
X106291457Y-109301049D01*
X106171333Y-108939310D01*
X106039312Y-108692317D01*
X105744224Y-108560381D01*
X104574605Y-109730000D01*
X104215395Y-109730000D01*
X104201253Y-109715858D01*
X104380858Y-109536253D01*
X104395000Y-109550395D01*
X105564619Y-108380776D01*
X105432683Y-108085688D01*
X105091955Y-107914841D01*
X104724443Y-107813750D01*
X104344271Y-107786299D01*
X103966049Y-107833543D01*
X103604310Y-107953667D01*
X103357317Y-108085688D01*
X103225382Y-108380774D01*
X103190523Y-108345915D01*
X103225000Y-108172591D01*
X103225000Y-107727409D01*
X103138149Y-107290782D01*
X102967786Y-106879489D01*
X102720456Y-106509334D01*
X102405666Y-106194544D01*
X102035511Y-105947214D01*
X101624218Y-105776851D01*
X101187591Y-105690000D01*
X100742409Y-105690000D01*
X100305782Y-105776851D01*
X99894489Y-105947214D01*
X99524334Y-106194544D01*
X99209544Y-106509334D01*
X98962214Y-106879489D01*
X98791851Y-107290782D01*
X98705000Y-107727409D01*
X93903000Y-107727409D01*
X93903000Y-101164473D01*
X102165610Y-101164473D01*
X102205875Y-101424344D01*
X102296065Y-101671366D01*
X102349963Y-101772203D01*
X102583731Y-101831664D01*
X103325395Y-101090000D01*
X102583731Y-100348336D01*
X102349963Y-100407797D01*
X102239066Y-100646242D01*
X102176817Y-100901740D01*
X102165610Y-101164473D01*
X93903000Y-101164473D01*
X93903000Y-98918514D01*
X102170000Y-98918514D01*
X102170000Y-99181486D01*
X102221304Y-99439405D01*
X102321939Y-99682359D01*
X102468038Y-99901013D01*
X102653987Y-100086962D01*
X102765229Y-100161291D01*
X102763336Y-100168731D01*
X103505000Y-100910395D01*
X103519143Y-100896253D01*
X103698748Y-101075858D01*
X103684605Y-101090000D01*
X103698748Y-101104143D01*
X103519143Y-101283748D01*
X103505000Y-101269605D01*
X102763336Y-102011269D01*
X102765229Y-102018709D01*
X102653987Y-102093038D01*
X102468038Y-102278987D01*
X102321939Y-102497641D01*
X102221304Y-102740595D01*
X102170000Y-102998514D01*
X102170000Y-103261486D01*
X102221304Y-103519405D01*
X102321939Y-103762359D01*
X102468038Y-103981013D01*
X102637025Y-104150000D01*
X102468038Y-104318987D01*
X102321939Y-104537641D01*
X102221304Y-104780595D01*
X102170000Y-105038514D01*
X102170000Y-105301486D01*
X102221304Y-105559405D01*
X102321939Y-105802359D01*
X102468038Y-106021013D01*
X102653987Y-106206962D01*
X102872641Y-106353061D01*
X103115595Y-106453696D01*
X103373514Y-106505000D01*
X103636486Y-106505000D01*
X103894405Y-106453696D01*
X104137359Y-106353061D01*
X104356013Y-106206962D01*
X104524461Y-106038514D01*
X108770000Y-106038514D01*
X108770000Y-106301486D01*
X108821304Y-106559405D01*
X108921939Y-106802359D01*
X109068038Y-107021013D01*
X109253987Y-107206962D01*
X109415678Y-107315000D01*
X109253987Y-107423038D01*
X109068038Y-107608987D01*
X108921939Y-107827641D01*
X108821304Y-108070595D01*
X108770000Y-108328514D01*
X108770000Y-108591486D01*
X108821304Y-108849405D01*
X108921939Y-109092359D01*
X109068038Y-109311013D01*
X109253987Y-109496962D01*
X109472641Y-109643061D01*
X109715595Y-109743696D01*
X109973514Y-109795000D01*
X110236486Y-109795000D01*
X110494405Y-109743696D01*
X110737359Y-109643061D01*
X110956013Y-109496962D01*
X111141962Y-109311013D01*
X111202775Y-109220000D01*
X115530678Y-109220000D01*
X115568000Y-109223676D01*
X115605322Y-109220000D01*
X115605333Y-109220000D01*
X115716986Y-109209003D01*
X115860247Y-109165546D01*
X115992276Y-109094974D01*
X116108001Y-109000001D01*
X116131804Y-108970997D01*
X117823948Y-107278853D01*
X120305149Y-107278853D01*
X120377931Y-108090118D01*
X120607585Y-108871597D01*
X120985285Y-109593256D01*
X121025450Y-109653366D01*
X121545845Y-110049550D01*
X124280395Y-107315000D01*
X124639605Y-107315000D01*
X127374155Y-110049550D01*
X127894550Y-109653366D01*
X128284748Y-108938388D01*
X128527964Y-108161024D01*
X128614851Y-107351147D01*
X128542402Y-106543589D01*
X137045000Y-106543589D01*
X137045000Y-106816411D01*
X137098225Y-107083989D01*
X137202629Y-107336043D01*
X137354201Y-107562886D01*
X137547114Y-107755799D01*
X137773957Y-107907371D01*
X138026011Y-108011775D01*
X138293589Y-108065000D01*
X138566411Y-108065000D01*
X138833989Y-108011775D01*
X139086043Y-107907371D01*
X139312886Y-107755799D01*
X139505799Y-107562886D01*
X139657371Y-107336043D01*
X139761775Y-107083989D01*
X139815000Y-106816411D01*
X139815000Y-106543589D01*
X139761775Y-106276011D01*
X139657371Y-106023957D01*
X139505799Y-105797114D01*
X139312886Y-105604201D01*
X139086043Y-105452629D01*
X138833989Y-105348225D01*
X138566411Y-105295000D01*
X138293589Y-105295000D01*
X138026011Y-105348225D01*
X137773957Y-105452629D01*
X137547114Y-105604201D01*
X137354201Y-105797114D01*
X137202629Y-106023957D01*
X137098225Y-106276011D01*
X137045000Y-106543589D01*
X128542402Y-106543589D01*
X128542069Y-106539882D01*
X128312415Y-105758403D01*
X127934715Y-105036744D01*
X127894550Y-104976634D01*
X127374155Y-104580450D01*
X124639605Y-107315000D01*
X124280395Y-107315000D01*
X121545845Y-104580450D01*
X121025450Y-104976634D01*
X120635252Y-105691612D01*
X120392036Y-106468976D01*
X120305149Y-107278853D01*
X117823948Y-107278853D01*
X120701956Y-104400845D01*
X121725450Y-104400845D01*
X124460000Y-107135395D01*
X127194550Y-104400845D01*
X126798366Y-103880450D01*
X126083388Y-103490252D01*
X125306024Y-103247036D01*
X124496147Y-103160149D01*
X123684882Y-103232931D01*
X122903403Y-103462585D01*
X122181744Y-103840285D01*
X122121634Y-103880450D01*
X121725450Y-104400845D01*
X120701956Y-104400845D01*
X125642802Y-99460000D01*
X125704939Y-99460000D01*
X125904898Y-99420226D01*
X126093256Y-99342205D01*
X126262774Y-99228937D01*
X126406937Y-99084774D01*
X126520205Y-98915256D01*
X126598226Y-98726898D01*
X126638000Y-98526939D01*
X126638000Y-98323061D01*
X126598226Y-98123102D01*
X126520205Y-97934744D01*
X126406937Y-97765226D01*
X126262774Y-97621063D01*
X126093256Y-97507795D01*
X125904898Y-97429774D01*
X125704939Y-97390000D01*
X125501061Y-97390000D01*
X125301102Y-97429774D01*
X125112744Y-97507795D01*
X124943226Y-97621063D01*
X124799063Y-97765226D01*
X124685795Y-97934744D01*
X124607774Y-98123102D01*
X124568000Y-98323061D01*
X124568000Y-98385198D01*
X115253199Y-107700000D01*
X111202775Y-107700000D01*
X111141962Y-107608987D01*
X110956013Y-107423038D01*
X110794322Y-107315000D01*
X110956013Y-107206962D01*
X111141962Y-107021013D01*
X111288061Y-106802359D01*
X111388696Y-106559405D01*
X111440000Y-106301486D01*
X111440000Y-106038514D01*
X111388696Y-105780595D01*
X111288061Y-105537641D01*
X111141962Y-105318987D01*
X110956013Y-105133038D01*
X110737359Y-104986939D01*
X110494405Y-104886304D01*
X110236486Y-104835000D01*
X109973514Y-104835000D01*
X109715595Y-104886304D01*
X109472641Y-104986939D01*
X109253987Y-105133038D01*
X109068038Y-105318987D01*
X108921939Y-105537641D01*
X108821304Y-105780595D01*
X108770000Y-106038514D01*
X104524461Y-106038514D01*
X104541962Y-106021013D01*
X104688061Y-105802359D01*
X104788696Y-105559405D01*
X104819935Y-105402357D01*
X104895595Y-105433696D01*
X105153514Y-105485000D01*
X105416486Y-105485000D01*
X105674405Y-105433696D01*
X105917359Y-105333061D01*
X106136013Y-105186962D01*
X106321962Y-105001013D01*
X106468061Y-104782359D01*
X106568696Y-104539405D01*
X106620000Y-104281486D01*
X106620000Y-104018514D01*
X106568696Y-103760595D01*
X106468061Y-103517641D01*
X106321962Y-103298987D01*
X106136013Y-103113038D01*
X106024771Y-103038709D01*
X106026664Y-103031269D01*
X105285000Y-102289605D01*
X105270858Y-102303748D01*
X105091253Y-102124143D01*
X105105395Y-102110000D01*
X105464605Y-102110000D01*
X106206269Y-102851664D01*
X106440037Y-102792203D01*
X106550934Y-102553758D01*
X106613183Y-102298260D01*
X106624390Y-102035527D01*
X106584125Y-101775656D01*
X106493935Y-101528634D01*
X106440037Y-101427797D01*
X106206269Y-101368336D01*
X105464605Y-102110000D01*
X105105395Y-102110000D01*
X105091253Y-102095858D01*
X105270858Y-101916253D01*
X105285000Y-101930395D01*
X106026664Y-101188731D01*
X106024771Y-101181291D01*
X106136013Y-101106962D01*
X106321962Y-100921013D01*
X106468061Y-100702359D01*
X106568696Y-100459405D01*
X106620000Y-100201486D01*
X106620000Y-99938514D01*
X106568696Y-99680595D01*
X106468061Y-99437641D01*
X106321962Y-99218987D01*
X106152975Y-99050000D01*
X106321962Y-98881013D01*
X106468061Y-98662359D01*
X106568696Y-98419405D01*
X106620000Y-98161486D01*
X106620000Y-97898514D01*
X106568696Y-97640595D01*
X106468061Y-97397641D01*
X106321962Y-97178987D01*
X106136013Y-96993038D01*
X105917359Y-96846939D01*
X105674405Y-96746304D01*
X105416486Y-96695000D01*
X105153514Y-96695000D01*
X104895595Y-96746304D01*
X104652641Y-96846939D01*
X104433987Y-96993038D01*
X104248038Y-97178987D01*
X104101939Y-97397641D01*
X104001304Y-97640595D01*
X103970065Y-97797643D01*
X103894405Y-97766304D01*
X103636486Y-97715000D01*
X103373514Y-97715000D01*
X103115595Y-97766304D01*
X102872641Y-97866939D01*
X102653987Y-98013038D01*
X102468038Y-98198987D01*
X102321939Y-98417641D01*
X102221304Y-98660595D01*
X102170000Y-98918514D01*
X93903000Y-98918514D01*
X93903000Y-95027409D01*
X98705000Y-95027409D01*
X98705000Y-95472591D01*
X98791851Y-95909218D01*
X98962214Y-96320511D01*
X99209544Y-96690666D01*
X99524334Y-97005456D01*
X99894489Y-97252786D01*
X100305782Y-97423149D01*
X100742409Y-97510000D01*
X101187591Y-97510000D01*
X101624218Y-97423149D01*
X102035511Y-97252786D01*
X102405666Y-97005456D01*
X102720456Y-96690666D01*
X102967786Y-96320511D01*
X103138149Y-95909218D01*
X103225000Y-95472591D01*
X103225000Y-95027409D01*
X103190523Y-94854085D01*
X103225382Y-94819226D01*
X103357317Y-95114312D01*
X103698045Y-95285159D01*
X104065557Y-95386250D01*
X104445729Y-95413701D01*
X104823951Y-95366457D01*
X105185690Y-95246333D01*
X105432683Y-95114312D01*
X105564619Y-94819224D01*
X104395000Y-93649605D01*
X104380858Y-93663748D01*
X104201253Y-93484143D01*
X104215395Y-93470000D01*
X104574605Y-93470000D01*
X105744224Y-94639619D01*
X105813793Y-94608514D01*
X108770000Y-94608514D01*
X108770000Y-94871486D01*
X108821304Y-95129405D01*
X108921939Y-95372359D01*
X109068038Y-95591013D01*
X109253987Y-95776962D01*
X109415678Y-95885000D01*
X109253987Y-95993038D01*
X109068038Y-96178987D01*
X108921939Y-96397641D01*
X108821304Y-96640595D01*
X108770000Y-96898514D01*
X108770000Y-97161486D01*
X108821304Y-97419405D01*
X108921939Y-97662359D01*
X109068038Y-97881013D01*
X109253987Y-98066962D01*
X109472641Y-98213061D01*
X109715595Y-98313696D01*
X109973514Y-98365000D01*
X110236486Y-98365000D01*
X110494405Y-98313696D01*
X110737359Y-98213061D01*
X110956013Y-98066962D01*
X111141962Y-97881013D01*
X111288061Y-97662359D01*
X111388696Y-97419405D01*
X111440000Y-97161486D01*
X111440000Y-96898514D01*
X111388696Y-96640595D01*
X111288061Y-96397641D01*
X111141962Y-96178987D01*
X110956013Y-95993038D01*
X110794322Y-95885000D01*
X110956013Y-95776962D01*
X111141962Y-95591013D01*
X111288061Y-95372359D01*
X111388696Y-95129405D01*
X111440000Y-94871486D01*
X111440000Y-94608514D01*
X111388696Y-94350595D01*
X111288061Y-94107641D01*
X111141962Y-93888987D01*
X110956013Y-93703038D01*
X110737359Y-93556939D01*
X110494405Y-93456304D01*
X110236486Y-93405000D01*
X109973514Y-93405000D01*
X109715595Y-93456304D01*
X109472641Y-93556939D01*
X109253987Y-93703038D01*
X109068038Y-93888987D01*
X108921939Y-94107641D01*
X108821304Y-94350595D01*
X108770000Y-94608514D01*
X105813793Y-94608514D01*
X106039312Y-94507683D01*
X106210159Y-94166955D01*
X106311250Y-93799443D01*
X106338701Y-93419271D01*
X106291457Y-93041049D01*
X106171333Y-92679310D01*
X106039312Y-92432317D01*
X105744224Y-92300381D01*
X104574605Y-93470000D01*
X104215395Y-93470000D01*
X103045776Y-92300381D01*
X102750688Y-92432317D01*
X102579841Y-92773045D01*
X102478750Y-93140557D01*
X102451299Y-93520729D01*
X102454075Y-93542953D01*
X102405666Y-93494544D01*
X102035511Y-93247214D01*
X101624218Y-93076851D01*
X101187591Y-92990000D01*
X100742409Y-92990000D01*
X100305782Y-93076851D01*
X99894489Y-93247214D01*
X99524334Y-93494544D01*
X99209544Y-93809334D01*
X98962214Y-94179489D01*
X98791851Y-94590782D01*
X98705000Y-95027409D01*
X93903000Y-95027409D01*
X93903000Y-92120776D01*
X103225381Y-92120776D01*
X104395000Y-93290395D01*
X105564619Y-92120776D01*
X105432683Y-91825688D01*
X105091955Y-91654841D01*
X104724443Y-91553750D01*
X104344271Y-91526299D01*
X103966049Y-91573543D01*
X103604310Y-91693667D01*
X103357317Y-91825688D01*
X103225381Y-92120776D01*
X93903000Y-92120776D01*
X93903000Y-86213740D01*
X117133000Y-86213740D01*
X117133000Y-86506260D01*
X117190068Y-86793158D01*
X117302010Y-87063411D01*
X117464525Y-87306632D01*
X117671368Y-87513475D01*
X117914589Y-87675990D01*
X118184842Y-87787932D01*
X118471740Y-87845000D01*
X118764260Y-87845000D01*
X119051158Y-87787932D01*
X119321411Y-87675990D01*
X119564632Y-87513475D01*
X119771475Y-87306632D01*
X119888000Y-87132240D01*
X120004525Y-87306632D01*
X120211368Y-87513475D01*
X120454589Y-87675990D01*
X120724842Y-87787932D01*
X121011740Y-87845000D01*
X121304260Y-87845000D01*
X121591158Y-87787932D01*
X121861411Y-87675990D01*
X122104632Y-87513475D01*
X122311475Y-87306632D01*
X122428000Y-87132240D01*
X122544525Y-87306632D01*
X122751368Y-87513475D01*
X122994589Y-87675990D01*
X123264842Y-87787932D01*
X123551740Y-87845000D01*
X123844260Y-87845000D01*
X124131158Y-87787932D01*
X124401411Y-87675990D01*
X124644632Y-87513475D01*
X124776487Y-87381620D01*
X124798498Y-87454180D01*
X124857463Y-87564494D01*
X124936815Y-87661185D01*
X125033506Y-87740537D01*
X125143820Y-87799502D01*
X125263518Y-87835812D01*
X125388000Y-87848072D01*
X127088000Y-87848072D01*
X127212482Y-87835812D01*
X127332180Y-87799502D01*
X127442494Y-87740537D01*
X127539185Y-87661185D01*
X127618537Y-87564494D01*
X127677502Y-87454180D01*
X127713812Y-87334482D01*
X127726072Y-87210000D01*
X127726072Y-85510000D01*
X127713812Y-85385518D01*
X127677502Y-85265820D01*
X127618537Y-85155506D01*
X127539185Y-85058815D01*
X127442494Y-84979463D01*
X127332180Y-84920498D01*
X127212482Y-84884188D01*
X127088000Y-84871928D01*
X125388000Y-84871928D01*
X125263518Y-84884188D01*
X125143820Y-84920498D01*
X125033506Y-84979463D01*
X124936815Y-85058815D01*
X124857463Y-85155506D01*
X124798498Y-85265820D01*
X124776487Y-85338380D01*
X124644632Y-85206525D01*
X124401411Y-85044010D01*
X124131158Y-84932068D01*
X123844260Y-84875000D01*
X123551740Y-84875000D01*
X123264842Y-84932068D01*
X122994589Y-85044010D01*
X122751368Y-85206525D01*
X122544525Y-85413368D01*
X122428000Y-85587760D01*
X122311475Y-85413368D01*
X122104632Y-85206525D01*
X121861411Y-85044010D01*
X121591158Y-84932068D01*
X121304260Y-84875000D01*
X121011740Y-84875000D01*
X120724842Y-84932068D01*
X120454589Y-85044010D01*
X120211368Y-85206525D01*
X120004525Y-85413368D01*
X119888000Y-85587760D01*
X119771475Y-85413368D01*
X119564632Y-85206525D01*
X119321411Y-85044010D01*
X119051158Y-84932068D01*
X118764260Y-84875000D01*
X118471740Y-84875000D01*
X118184842Y-84932068D01*
X117914589Y-85044010D01*
X117671368Y-85206525D01*
X117464525Y-85413368D01*
X117302010Y-85656589D01*
X117190068Y-85926842D01*
X117133000Y-86213740D01*
X93903000Y-86213740D01*
X93903000Y-84098109D01*
X135083519Y-84098109D01*
X135204186Y-84328000D01*
X136398000Y-84328000D01*
X136398000Y-83134845D01*
X136168110Y-83013524D01*
X136020901Y-83058175D01*
X135758080Y-83183359D01*
X135524731Y-83357412D01*
X135329822Y-83573645D01*
X135180843Y-83823748D01*
X135083519Y-84098109D01*
X93903000Y-84098109D01*
X93903000Y-76574155D01*
X100643450Y-76574155D01*
X101039634Y-77094550D01*
X101754612Y-77484748D01*
X102531976Y-77727964D01*
X103341853Y-77814851D01*
X104153118Y-77742069D01*
X104934597Y-77512415D01*
X105656256Y-77134715D01*
X105716366Y-77094550D01*
X106112550Y-76574155D01*
X103378000Y-73839605D01*
X100643450Y-76574155D01*
X93903000Y-76574155D01*
X93903000Y-73623853D01*
X99223149Y-73623853D01*
X99295931Y-74435118D01*
X99525585Y-75216597D01*
X99903285Y-75938256D01*
X99943450Y-75998366D01*
X100463845Y-76394550D01*
X103198395Y-73660000D01*
X103557605Y-73660000D01*
X106292155Y-76394550D01*
X106508294Y-76230000D01*
X122496928Y-76230000D01*
X122509188Y-76354482D01*
X122545498Y-76474180D01*
X122604463Y-76584494D01*
X122683815Y-76681185D01*
X122780506Y-76760537D01*
X122890820Y-76819502D01*
X123010518Y-76855812D01*
X123135000Y-76868072D01*
X123849250Y-76865000D01*
X124008000Y-76706250D01*
X124008000Y-75057000D01*
X124262000Y-75057000D01*
X124262000Y-76706250D01*
X124420750Y-76865000D01*
X125135000Y-76868072D01*
X125259482Y-76855812D01*
X125379180Y-76819502D01*
X125489494Y-76760537D01*
X125586185Y-76681185D01*
X125665537Y-76584494D01*
X125724502Y-76474180D01*
X125760812Y-76354482D01*
X125773072Y-76230000D01*
X125770000Y-75215750D01*
X125611250Y-75057000D01*
X124262000Y-75057000D01*
X124008000Y-75057000D01*
X122658750Y-75057000D01*
X122500000Y-75215750D01*
X122496928Y-76230000D01*
X106508294Y-76230000D01*
X106812550Y-75998366D01*
X107202748Y-75283388D01*
X107445964Y-74506024D01*
X107532851Y-73696147D01*
X107526917Y-73630000D01*
X122496928Y-73630000D01*
X122500000Y-74644250D01*
X122658750Y-74803000D01*
X124008000Y-74803000D01*
X124008000Y-73153750D01*
X124262000Y-73153750D01*
X124262000Y-74803000D01*
X125611250Y-74803000D01*
X125770000Y-74644250D01*
X125773072Y-73630000D01*
X125760812Y-73505518D01*
X125724502Y-73385820D01*
X125665537Y-73275506D01*
X125586185Y-73178815D01*
X125489494Y-73099463D01*
X125379180Y-73040498D01*
X125259482Y-73004188D01*
X125135000Y-72991928D01*
X124420750Y-72995000D01*
X124262000Y-73153750D01*
X124008000Y-73153750D01*
X123849250Y-72995000D01*
X123135000Y-72991928D01*
X123010518Y-73004188D01*
X122890820Y-73040498D01*
X122780506Y-73099463D01*
X122683815Y-73178815D01*
X122604463Y-73275506D01*
X122545498Y-73385820D01*
X122509188Y-73505518D01*
X122496928Y-73630000D01*
X107526917Y-73630000D01*
X107460069Y-72884882D01*
X107230415Y-72103403D01*
X106852715Y-71381744D01*
X106812550Y-71321634D01*
X106292155Y-70925450D01*
X103557605Y-73660000D01*
X103198395Y-73660000D01*
X100463845Y-70925450D01*
X99943450Y-71321634D01*
X99553252Y-72036612D01*
X99310036Y-72813976D01*
X99223149Y-73623853D01*
X93903000Y-73623853D01*
X93903000Y-70745845D01*
X100643450Y-70745845D01*
X103378000Y-73480395D01*
X106112550Y-70745845D01*
X105716366Y-70225450D01*
X105001388Y-69835252D01*
X104224024Y-69592036D01*
X103414147Y-69505149D01*
X102602882Y-69577931D01*
X101821403Y-69807585D01*
X101099744Y-70185285D01*
X101039634Y-70225450D01*
X100643450Y-70745845D01*
X93903000Y-70745845D01*
X93903000Y-64820000D01*
X177623000Y-64820000D01*
X177623001Y-126315000D01*
G04 #@! TA.AperFunction,Conductor*
D24*
G36*
X177623001Y-126315000D02*
G01*
X93903000Y-126315000D01*
X93903000Y-115468061D01*
X109963000Y-115468061D01*
X109963000Y-115671939D01*
X110002774Y-115871898D01*
X110080795Y-116060256D01*
X110194063Y-116229774D01*
X110338226Y-116373937D01*
X110507744Y-116487205D01*
X110696102Y-116565226D01*
X110896061Y-116605000D01*
X111099939Y-116605000D01*
X111299898Y-116565226D01*
X111488256Y-116487205D01*
X111657774Y-116373937D01*
X111801937Y-116229774D01*
X111915205Y-116060256D01*
X111993226Y-115871898D01*
X112033000Y-115671939D01*
X112033000Y-115609801D01*
X113217802Y-114425000D01*
X117662893Y-114425000D01*
X117464525Y-114623368D01*
X117302010Y-114866589D01*
X117190068Y-115136842D01*
X117133000Y-115423740D01*
X117133000Y-115716260D01*
X117190068Y-116003158D01*
X117302010Y-116273411D01*
X117464525Y-116516632D01*
X117596380Y-116648487D01*
X117523820Y-116670498D01*
X117413506Y-116729463D01*
X117316815Y-116808815D01*
X117237463Y-116905506D01*
X117178498Y-117015820D01*
X117142188Y-117135518D01*
X117129928Y-117260000D01*
X117129928Y-118960000D01*
X117142188Y-119084482D01*
X117178498Y-119204180D01*
X117205662Y-119255000D01*
X112582802Y-119255000D01*
X112033000Y-118705199D01*
X112033000Y-118643061D01*
X111993226Y-118443102D01*
X111915205Y-118254744D01*
X111801937Y-118085226D01*
X111657774Y-117941063D01*
X111488256Y-117827795D01*
X111299898Y-117749774D01*
X111099939Y-117710000D01*
X110896061Y-117710000D01*
X110696102Y-117749774D01*
X110507744Y-117827795D01*
X110338226Y-117941063D01*
X110194063Y-118085226D01*
X110080795Y-118254744D01*
X110002774Y-118443102D01*
X109963000Y-118643061D01*
X109963000Y-118846939D01*
X110002774Y-119046898D01*
X110080795Y-119235256D01*
X110194063Y-119404774D01*
X110338226Y-119548937D01*
X110507744Y-119662205D01*
X110696102Y-119740226D01*
X110896061Y-119780000D01*
X110958199Y-119780000D01*
X111704201Y-120526003D01*
X111727999Y-120555001D01*
X111843724Y-120649974D01*
X111975753Y-120720546D01*
X112119014Y-120764003D01*
X112230667Y-120775000D01*
X112230676Y-120775000D01*
X112267999Y-120778676D01*
X112305322Y-120775000D01*
X142679289Y-120775000D01*
X142723226Y-120818937D01*
X142892744Y-120932205D01*
X143081102Y-121010226D01*
X143281061Y-121050000D01*
X143484939Y-121050000D01*
X143684898Y-121010226D01*
X143873256Y-120932205D01*
X144042774Y-120818937D01*
X144186937Y-120674774D01*
X144300205Y-120505256D01*
X144378226Y-120316898D01*
X144418000Y-120116939D01*
X144418000Y-119913061D01*
X144378226Y-119713102D01*
X144300205Y-119524744D01*
X144229550Y-119419000D01*
X152943928Y-119419000D01*
X152943928Y-121119000D01*
X152956188Y-121243482D01*
X152992498Y-121363180D01*
X153051463Y-121473494D01*
X153130815Y-121570185D01*
X153227506Y-121649537D01*
X153337820Y-121708502D01*
X153457518Y-121744812D01*
X153582000Y-121757072D01*
X155282000Y-121757072D01*
X155406482Y-121744812D01*
X155526180Y-121708502D01*
X155636494Y-121649537D01*
X155733185Y-121570185D01*
X155812537Y-121473494D01*
X155871502Y-121363180D01*
X155893513Y-121290620D01*
X156025368Y-121422475D01*
X156268589Y-121584990D01*
X156538842Y-121696932D01*
X156825740Y-121754000D01*
X157118260Y-121754000D01*
X157405158Y-121696932D01*
X157675411Y-121584990D01*
X157918632Y-121422475D01*
X158125475Y-121215632D01*
X158242000Y-121041240D01*
X158358525Y-121215632D01*
X158565368Y-121422475D01*
X158808589Y-121584990D01*
X159078842Y-121696932D01*
X159365740Y-121754000D01*
X159658260Y-121754000D01*
X159945158Y-121696932D01*
X160215411Y-121584990D01*
X160458632Y-121422475D01*
X160665475Y-121215632D01*
X160782000Y-121041240D01*
X160898525Y-121215632D01*
X161105368Y-121422475D01*
X161348589Y-121584990D01*
X161618842Y-121696932D01*
X161905740Y-121754000D01*
X162198260Y-121754000D01*
X162485158Y-121696932D01*
X162755411Y-121584990D01*
X162998632Y-121422475D01*
X163205475Y-121215632D01*
X163322000Y-121041240D01*
X163438525Y-121215632D01*
X163645368Y-121422475D01*
X163888589Y-121584990D01*
X164158842Y-121696932D01*
X164445740Y-121754000D01*
X164738260Y-121754000D01*
X165025158Y-121696932D01*
X165295411Y-121584990D01*
X165538632Y-121422475D01*
X165745475Y-121215632D01*
X165862000Y-121041240D01*
X165978525Y-121215632D01*
X166185368Y-121422475D01*
X166428589Y-121584990D01*
X166698842Y-121696932D01*
X166985740Y-121754000D01*
X167278260Y-121754000D01*
X167565158Y-121696932D01*
X167835411Y-121584990D01*
X168078632Y-121422475D01*
X168285475Y-121215632D01*
X168402000Y-121041240D01*
X168518525Y-121215632D01*
X168725368Y-121422475D01*
X168968589Y-121584990D01*
X169238842Y-121696932D01*
X169525740Y-121754000D01*
X169818260Y-121754000D01*
X170105158Y-121696932D01*
X170375411Y-121584990D01*
X170618632Y-121422475D01*
X170825475Y-121215632D01*
X170942000Y-121041240D01*
X171058525Y-121215632D01*
X171265368Y-121422475D01*
X171508589Y-121584990D01*
X171778842Y-121696932D01*
X172065740Y-121754000D01*
X172358260Y-121754000D01*
X172645158Y-121696932D01*
X172915411Y-121584990D01*
X173158632Y-121422475D01*
X173365475Y-121215632D01*
X173527990Y-120972411D01*
X173639932Y-120702158D01*
X173697000Y-120415260D01*
X173697000Y-120122740D01*
X173639932Y-119835842D01*
X173527990Y-119565589D01*
X173365475Y-119322368D01*
X173158632Y-119115525D01*
X172984240Y-118999000D01*
X173158632Y-118882475D01*
X173365475Y-118675632D01*
X173527990Y-118432411D01*
X173639932Y-118162158D01*
X173697000Y-117875260D01*
X173697000Y-117582740D01*
X173639932Y-117295842D01*
X173527990Y-117025589D01*
X173365475Y-116782368D01*
X173158632Y-116575525D01*
X172915411Y-116413010D01*
X172645158Y-116301068D01*
X172358260Y-116244000D01*
X172065740Y-116244000D01*
X171778842Y-116301068D01*
X171508589Y-116413010D01*
X171265368Y-116575525D01*
X171058525Y-116782368D01*
X170942000Y-116956760D01*
X170825475Y-116782368D01*
X170618632Y-116575525D01*
X170375411Y-116413010D01*
X170105158Y-116301068D01*
X169818260Y-116244000D01*
X169525740Y-116244000D01*
X169238842Y-116301068D01*
X168968589Y-116413010D01*
X168725368Y-116575525D01*
X168518525Y-116782368D01*
X168402000Y-116956760D01*
X168285475Y-116782368D01*
X168078632Y-116575525D01*
X167835411Y-116413010D01*
X167565158Y-116301068D01*
X167278260Y-116244000D01*
X166985740Y-116244000D01*
X166698842Y-116301068D01*
X166428589Y-116413010D01*
X166185368Y-116575525D01*
X165978525Y-116782368D01*
X165862000Y-116956760D01*
X165745475Y-116782368D01*
X165538632Y-116575525D01*
X165295411Y-116413010D01*
X165025158Y-116301068D01*
X164738260Y-116244000D01*
X164445740Y-116244000D01*
X164158842Y-116301068D01*
X163888589Y-116413010D01*
X163645368Y-116575525D01*
X163438525Y-116782368D01*
X163322000Y-116956760D01*
X163205475Y-116782368D01*
X162998632Y-116575525D01*
X162755411Y-116413010D01*
X162485158Y-116301068D01*
X162198260Y-116244000D01*
X161905740Y-116244000D01*
X161618842Y-116301068D01*
X161348589Y-116413010D01*
X161105368Y-116575525D01*
X160898525Y-116782368D01*
X160782000Y-116956760D01*
X160665475Y-116782368D01*
X160458632Y-116575525D01*
X160215411Y-116413010D01*
X159945158Y-116301068D01*
X159658260Y-116244000D01*
X159365740Y-116244000D01*
X159078842Y-116301068D01*
X158808589Y-116413010D01*
X158565368Y-116575525D01*
X158358525Y-116782368D01*
X158242000Y-116956760D01*
X158125475Y-116782368D01*
X157918632Y-116575525D01*
X157675411Y-116413010D01*
X157405158Y-116301068D01*
X157118260Y-116244000D01*
X156825740Y-116244000D01*
X156538842Y-116301068D01*
X156268589Y-116413010D01*
X156025368Y-116575525D01*
X155818525Y-116782368D01*
X155702000Y-116956760D01*
X155585475Y-116782368D01*
X155378632Y-116575525D01*
X155135411Y-116413010D01*
X154865158Y-116301068D01*
X154578260Y-116244000D01*
X154285740Y-116244000D01*
X153998842Y-116301068D01*
X153728589Y-116413010D01*
X153485368Y-116575525D01*
X153278525Y-116782368D01*
X153116010Y-117025589D01*
X153004068Y-117295842D01*
X152947000Y-117582740D01*
X152947000Y-117875260D01*
X153004068Y-118162158D01*
X153116010Y-118432411D01*
X153278525Y-118675632D01*
X153410380Y-118807487D01*
X153337820Y-118829498D01*
X153227506Y-118888463D01*
X153130815Y-118967815D01*
X153051463Y-119064506D01*
X152992498Y-119174820D01*
X152956188Y-119294518D01*
X152943928Y-119419000D01*
X144229550Y-119419000D01*
X144186937Y-119355226D01*
X144042774Y-119211063D01*
X143873256Y-119097795D01*
X143684898Y-119019774D01*
X143484939Y-118980000D01*
X143281061Y-118980000D01*
X143081102Y-119019774D01*
X142892744Y-119097795D01*
X142723226Y-119211063D01*
X142679289Y-119255000D01*
X137353107Y-119255000D01*
X137551475Y-119056632D01*
X137713990Y-118813411D01*
X137825932Y-118543158D01*
X137883000Y-118256260D01*
X137883000Y-117963740D01*
X137825932Y-117676842D01*
X137713990Y-117406589D01*
X137551475Y-117163368D01*
X137344632Y-116956525D01*
X137170240Y-116840000D01*
X137344632Y-116723475D01*
X137551475Y-116516632D01*
X137713990Y-116273411D01*
X137825932Y-116003158D01*
X137883000Y-115716260D01*
X137883000Y-115423740D01*
X137825932Y-115136842D01*
X137713990Y-114866589D01*
X137551475Y-114623368D01*
X137353107Y-114425000D01*
X147701220Y-114425000D01*
X146136221Y-115990000D01*
X144086711Y-115990000D01*
X144042774Y-115946063D01*
X143873256Y-115832795D01*
X143684898Y-115754774D01*
X143484939Y-115715000D01*
X143281061Y-115715000D01*
X143081102Y-115754774D01*
X142892744Y-115832795D01*
X142723226Y-115946063D01*
X142579063Y-116090226D01*
X142465795Y-116259744D01*
X142387774Y-116448102D01*
X142348000Y-116648061D01*
X142348000Y-116851939D01*
X142387774Y-117051898D01*
X142465795Y-117240256D01*
X142579063Y-117409774D01*
X142723226Y-117553937D01*
X142892744Y-117667205D01*
X143081102Y-117745226D01*
X143281061Y-117785000D01*
X143484939Y-117785000D01*
X143684898Y-117745226D01*
X143873256Y-117667205D01*
X144042774Y-117553937D01*
X144086711Y-117510000D01*
X146413700Y-117510000D01*
X146451022Y-117513676D01*
X146488344Y-117510000D01*
X146488355Y-117510000D01*
X146600008Y-117499003D01*
X146743269Y-117455546D01*
X146875298Y-117384974D01*
X146991023Y-117290001D01*
X147014826Y-117260997D01*
X150244004Y-114031820D01*
X150273001Y-114008023D01*
X150367974Y-113892298D01*
X150438546Y-113760269D01*
X150482003Y-113617008D01*
X150493000Y-113505355D01*
X150493000Y-113505347D01*
X150496676Y-113468022D01*
X150493000Y-113430697D01*
X150493000Y-111193711D01*
X150536937Y-111149774D01*
X150650205Y-110980256D01*
X150728226Y-110791898D01*
X150768000Y-110591939D01*
X150768000Y-110454435D01*
X155609029Y-110454435D01*
X155652966Y-110498372D01*
X155822484Y-110611640D01*
X156010842Y-110689661D01*
X156210801Y-110729435D01*
X156414679Y-110729435D01*
X156614638Y-110689661D01*
X156802996Y-110611640D01*
X156972514Y-110498372D01*
X157116677Y-110354209D01*
X157229945Y-110184691D01*
X157236382Y-110169151D01*
X157272733Y-110198984D01*
X157329179Y-110229155D01*
X157404763Y-110269556D01*
X157548024Y-110313013D01*
X157659677Y-110324010D01*
X157659687Y-110324010D01*
X157697010Y-110327686D01*
X157734333Y-110324010D01*
X167705430Y-110324010D01*
X167749367Y-110367947D01*
X167918885Y-110481215D01*
X168107243Y-110559236D01*
X168307202Y-110599010D01*
X168511080Y-110599010D01*
X168711039Y-110559236D01*
X168899397Y-110481215D01*
X169068915Y-110367947D01*
X169213078Y-110223784D01*
X169326346Y-110054266D01*
X169404367Y-109865908D01*
X169444141Y-109665949D01*
X169444141Y-109599000D01*
X169603289Y-109599000D01*
X169647226Y-109642937D01*
X169816744Y-109756205D01*
X170005102Y-109834226D01*
X170205061Y-109874000D01*
X170408939Y-109874000D01*
X170608898Y-109834226D01*
X170797256Y-109756205D01*
X170966774Y-109642937D01*
X171110937Y-109498774D01*
X171224205Y-109329256D01*
X171302226Y-109140898D01*
X171342000Y-108940939D01*
X171342000Y-108737061D01*
X171302226Y-108537102D01*
X171224205Y-108348744D01*
X171110937Y-108179226D01*
X170966774Y-108035063D01*
X170797256Y-107921795D01*
X170608898Y-107843774D01*
X170408939Y-107804000D01*
X170205061Y-107804000D01*
X170005102Y-107843774D01*
X169816744Y-107921795D01*
X169647226Y-108035063D01*
X169603289Y-108079000D01*
X164906802Y-108079000D01*
X160075804Y-103248003D01*
X160063440Y-103232938D01*
X160215411Y-103169990D01*
X160458632Y-103007475D01*
X160665475Y-102800632D01*
X160782000Y-102626240D01*
X160898525Y-102800632D01*
X161105368Y-103007475D01*
X161348589Y-103169990D01*
X161618842Y-103281932D01*
X161905740Y-103339000D01*
X162198260Y-103339000D01*
X162485158Y-103281932D01*
X162755411Y-103169990D01*
X162998632Y-103007475D01*
X163205475Y-102800632D01*
X163322000Y-102626240D01*
X163438525Y-102800632D01*
X163645368Y-103007475D01*
X163888589Y-103169990D01*
X164158842Y-103281932D01*
X164445740Y-103339000D01*
X164738260Y-103339000D01*
X165025158Y-103281932D01*
X165295411Y-103169990D01*
X165538632Y-103007475D01*
X165745475Y-102800632D01*
X165862000Y-102626240D01*
X165978525Y-102800632D01*
X166185368Y-103007475D01*
X166428589Y-103169990D01*
X166698842Y-103281932D01*
X166985740Y-103339000D01*
X167278260Y-103339000D01*
X167565158Y-103281932D01*
X167835411Y-103169990D01*
X168078632Y-103007475D01*
X168285475Y-102800632D01*
X168402000Y-102626240D01*
X168518525Y-102800632D01*
X168725368Y-103007475D01*
X168968589Y-103169990D01*
X169238842Y-103281932D01*
X169525740Y-103339000D01*
X169818260Y-103339000D01*
X170105158Y-103281932D01*
X170375411Y-103169990D01*
X170618632Y-103007475D01*
X170825475Y-102800632D01*
X170942000Y-102626240D01*
X171058525Y-102800632D01*
X171265368Y-103007475D01*
X171508589Y-103169990D01*
X171778842Y-103281932D01*
X172065740Y-103339000D01*
X172358260Y-103339000D01*
X172645158Y-103281932D01*
X172915411Y-103169990D01*
X173158632Y-103007475D01*
X173365475Y-102800632D01*
X173527990Y-102557411D01*
X173639932Y-102287158D01*
X173697000Y-102000260D01*
X173697000Y-101707740D01*
X173639932Y-101420842D01*
X173527990Y-101150589D01*
X173365475Y-100907368D01*
X173158632Y-100700525D01*
X172984240Y-100584000D01*
X173158632Y-100467475D01*
X173365475Y-100260632D01*
X173527990Y-100017411D01*
X173639932Y-99747158D01*
X173697000Y-99460260D01*
X173697000Y-99167740D01*
X173639932Y-98880842D01*
X173527990Y-98610589D01*
X173365475Y-98367368D01*
X173158632Y-98160525D01*
X172915411Y-97998010D01*
X172645158Y-97886068D01*
X172358260Y-97829000D01*
X172065740Y-97829000D01*
X171778842Y-97886068D01*
X171508589Y-97998010D01*
X171265368Y-98160525D01*
X171058525Y-98367368D01*
X170942000Y-98541760D01*
X170825475Y-98367368D01*
X170618632Y-98160525D01*
X170375411Y-97998010D01*
X170105158Y-97886068D01*
X169818260Y-97829000D01*
X169525740Y-97829000D01*
X169238842Y-97886068D01*
X168968589Y-97998010D01*
X168725368Y-98160525D01*
X168518525Y-98367368D01*
X168402000Y-98541760D01*
X168285475Y-98367368D01*
X168078632Y-98160525D01*
X167835411Y-97998010D01*
X167565158Y-97886068D01*
X167278260Y-97829000D01*
X166985740Y-97829000D01*
X166698842Y-97886068D01*
X166428589Y-97998010D01*
X166185368Y-98160525D01*
X165978525Y-98367368D01*
X165862000Y-98541760D01*
X165745475Y-98367368D01*
X165538632Y-98160525D01*
X165295411Y-97998010D01*
X165025158Y-97886068D01*
X164738260Y-97829000D01*
X164445740Y-97829000D01*
X164158842Y-97886068D01*
X163888589Y-97998010D01*
X163645368Y-98160525D01*
X163438525Y-98367368D01*
X163322000Y-98541760D01*
X163205475Y-98367368D01*
X162998632Y-98160525D01*
X162755411Y-97998010D01*
X162485158Y-97886068D01*
X162198260Y-97829000D01*
X161905740Y-97829000D01*
X161618842Y-97886068D01*
X161348589Y-97998010D01*
X161105368Y-98160525D01*
X160898525Y-98367368D01*
X160782000Y-98541760D01*
X160665475Y-98367368D01*
X160458632Y-98160525D01*
X160215411Y-97998010D01*
X159945158Y-97886068D01*
X159658260Y-97829000D01*
X159365740Y-97829000D01*
X159078842Y-97886068D01*
X159002000Y-97917897D01*
X159002000Y-94271322D01*
X159005676Y-94233999D01*
X159002000Y-94196676D01*
X159002000Y-94196667D01*
X158991003Y-94085014D01*
X158947546Y-93941753D01*
X158876974Y-93809724D01*
X158843779Y-93769276D01*
X158805799Y-93722996D01*
X158805795Y-93722992D01*
X158782001Y-93693999D01*
X158753008Y-93670205D01*
X156265803Y-91183002D01*
X156265799Y-91182997D01*
X155573000Y-90490199D01*
X155573000Y-86547801D01*
X156016802Y-86104000D01*
X157337987Y-86104000D01*
X157324795Y-86123744D01*
X157246774Y-86312102D01*
X157207000Y-86512061D01*
X157207000Y-86715939D01*
X157246774Y-86915898D01*
X157324795Y-87104256D01*
X157438063Y-87273774D01*
X157582226Y-87417937D01*
X157751744Y-87531205D01*
X157940102Y-87609226D01*
X158140061Y-87649000D01*
X158343939Y-87649000D01*
X158543898Y-87609226D01*
X158732256Y-87531205D01*
X158901774Y-87417937D01*
X159045937Y-87273774D01*
X159159205Y-87104256D01*
X159237226Y-86915898D01*
X159277000Y-86715939D01*
X159277000Y-86512061D01*
X159237226Y-86312102D01*
X159159205Y-86123744D01*
X159146013Y-86104000D01*
X159197199Y-86104000D01*
X163482208Y-90389010D01*
X158011812Y-90389010D01*
X158007000Y-90384198D01*
X158007000Y-90322061D01*
X157967226Y-90122102D01*
X157889205Y-89933744D01*
X157775937Y-89764226D01*
X157631774Y-89620063D01*
X157462256Y-89506795D01*
X157273898Y-89428774D01*
X157073939Y-89389000D01*
X156870061Y-89389000D01*
X156670102Y-89428774D01*
X156481744Y-89506795D01*
X156312226Y-89620063D01*
X156168063Y-89764226D01*
X156054795Y-89933744D01*
X155976774Y-90122102D01*
X155937000Y-90322061D01*
X155937000Y-90525939D01*
X155976774Y-90725898D01*
X156054795Y-90914256D01*
X156168063Y-91083774D01*
X156312226Y-91227937D01*
X156481744Y-91341205D01*
X156670102Y-91419226D01*
X156870061Y-91459000D01*
X156932198Y-91459000D01*
X157133211Y-91660012D01*
X157157009Y-91689011D01*
X157186007Y-91712809D01*
X157272733Y-91783984D01*
X157377531Y-91840000D01*
X157404763Y-91854556D01*
X157548024Y-91898013D01*
X157659677Y-91909010D01*
X157659687Y-91909010D01*
X157697010Y-91912686D01*
X157734333Y-91909010D01*
X167415000Y-91909010D01*
X167458937Y-91952947D01*
X167628455Y-92066215D01*
X167816813Y-92144236D01*
X168016772Y-92184010D01*
X168220650Y-92184010D01*
X168420609Y-92144236D01*
X168608967Y-92066215D01*
X168778485Y-91952947D01*
X168922648Y-91808784D01*
X169035916Y-91639266D01*
X169113937Y-91450908D01*
X169153711Y-91250949D01*
X169153711Y-91184000D01*
X169603289Y-91184000D01*
X169647226Y-91227937D01*
X169816744Y-91341205D01*
X170005102Y-91419226D01*
X170205061Y-91459000D01*
X170408939Y-91459000D01*
X170608898Y-91419226D01*
X170797256Y-91341205D01*
X170966774Y-91227937D01*
X171110937Y-91083774D01*
X171224205Y-90914256D01*
X171302226Y-90725898D01*
X171342000Y-90525939D01*
X171342000Y-90322061D01*
X171302226Y-90122102D01*
X171224205Y-89933744D01*
X171110937Y-89764226D01*
X170966774Y-89620063D01*
X170797256Y-89506795D01*
X170608898Y-89428774D01*
X170408939Y-89389000D01*
X170205061Y-89389000D01*
X170005102Y-89428774D01*
X169816744Y-89506795D01*
X169647226Y-89620063D01*
X169603289Y-89664000D01*
X164906802Y-89664000D01*
X160075804Y-84833003D01*
X160063440Y-84817938D01*
X160215411Y-84754990D01*
X160458632Y-84592475D01*
X160665475Y-84385632D01*
X160782000Y-84211240D01*
X160898525Y-84385632D01*
X161105368Y-84592475D01*
X161348589Y-84754990D01*
X161618842Y-84866932D01*
X161905740Y-84924000D01*
X162198260Y-84924000D01*
X162485158Y-84866932D01*
X162755411Y-84754990D01*
X162998632Y-84592475D01*
X163205475Y-84385632D01*
X163322000Y-84211240D01*
X163438525Y-84385632D01*
X163645368Y-84592475D01*
X163888589Y-84754990D01*
X164158842Y-84866932D01*
X164445740Y-84924000D01*
X164738260Y-84924000D01*
X165025158Y-84866932D01*
X165295411Y-84754990D01*
X165538632Y-84592475D01*
X165745475Y-84385632D01*
X165862000Y-84211240D01*
X165978525Y-84385632D01*
X166185368Y-84592475D01*
X166428589Y-84754990D01*
X166698842Y-84866932D01*
X166985740Y-84924000D01*
X167278260Y-84924000D01*
X167565158Y-84866932D01*
X167835411Y-84754990D01*
X168078632Y-84592475D01*
X168285475Y-84385632D01*
X168402000Y-84211240D01*
X168518525Y-84385632D01*
X168725368Y-84592475D01*
X168968589Y-84754990D01*
X169238842Y-84866932D01*
X169525740Y-84924000D01*
X169818260Y-84924000D01*
X170105158Y-84866932D01*
X170375411Y-84754990D01*
X170618632Y-84592475D01*
X170825475Y-84385632D01*
X170942000Y-84211240D01*
X171058525Y-84385632D01*
X171265368Y-84592475D01*
X171508589Y-84754990D01*
X171778842Y-84866932D01*
X172065740Y-84924000D01*
X172358260Y-84924000D01*
X172645158Y-84866932D01*
X172915411Y-84754990D01*
X173158632Y-84592475D01*
X173365475Y-84385632D01*
X173527990Y-84142411D01*
X173639932Y-83872158D01*
X173697000Y-83585260D01*
X173697000Y-83292740D01*
X173639932Y-83005842D01*
X173527990Y-82735589D01*
X173365475Y-82492368D01*
X173158632Y-82285525D01*
X172984240Y-82169000D01*
X173158632Y-82052475D01*
X173365475Y-81845632D01*
X173527990Y-81602411D01*
X173639932Y-81332158D01*
X173697000Y-81045260D01*
X173697000Y-80752740D01*
X173639932Y-80465842D01*
X173527990Y-80195589D01*
X173365475Y-79952368D01*
X173158632Y-79745525D01*
X172915411Y-79583010D01*
X172645158Y-79471068D01*
X172358260Y-79414000D01*
X172065740Y-79414000D01*
X171778842Y-79471068D01*
X171508589Y-79583010D01*
X171265368Y-79745525D01*
X171058525Y-79952368D01*
X170942000Y-80126760D01*
X170825475Y-79952368D01*
X170618632Y-79745525D01*
X170375411Y-79583010D01*
X170105158Y-79471068D01*
X169818260Y-79414000D01*
X169525740Y-79414000D01*
X169238842Y-79471068D01*
X168968589Y-79583010D01*
X168725368Y-79745525D01*
X168518525Y-79952368D01*
X168402000Y-80126760D01*
X168285475Y-79952368D01*
X168078632Y-79745525D01*
X167835411Y-79583010D01*
X167565158Y-79471068D01*
X167278260Y-79414000D01*
X166985740Y-79414000D01*
X166698842Y-79471068D01*
X166428589Y-79583010D01*
X166185368Y-79745525D01*
X165978525Y-79952368D01*
X165862000Y-80126760D01*
X165745475Y-79952368D01*
X165538632Y-79745525D01*
X165295411Y-79583010D01*
X165025158Y-79471068D01*
X164738260Y-79414000D01*
X164445740Y-79414000D01*
X164158842Y-79471068D01*
X163888589Y-79583010D01*
X163645368Y-79745525D01*
X163438525Y-79952368D01*
X163322000Y-80126760D01*
X163205475Y-79952368D01*
X162998632Y-79745525D01*
X162755411Y-79583010D01*
X162485158Y-79471068D01*
X162198260Y-79414000D01*
X161905740Y-79414000D01*
X161618842Y-79471068D01*
X161348589Y-79583010D01*
X161105368Y-79745525D01*
X160898525Y-79952368D01*
X160782000Y-80126760D01*
X160665475Y-79952368D01*
X160458632Y-79745525D01*
X160215411Y-79583010D01*
X159945158Y-79471068D01*
X159658260Y-79414000D01*
X159365740Y-79414000D01*
X159078842Y-79471068D01*
X159002000Y-79502897D01*
X159002000Y-78800801D01*
X163382802Y-74420000D01*
X168745678Y-74420000D01*
X168783000Y-74423676D01*
X168820322Y-74420000D01*
X168820333Y-74420000D01*
X168931986Y-74409003D01*
X169075247Y-74365546D01*
X169207276Y-74294974D01*
X169323001Y-74200001D01*
X169346804Y-74170997D01*
X171003851Y-72513951D01*
X171032848Y-72490154D01*
X171127821Y-72374429D01*
X171198393Y-72242400D01*
X171241850Y-72099139D01*
X171252847Y-71987486D01*
X171252847Y-71987476D01*
X171256523Y-71950153D01*
X171252847Y-71912830D01*
X171252847Y-68992711D01*
X171296784Y-68948774D01*
X171410052Y-68779256D01*
X171488073Y-68590898D01*
X171527847Y-68390939D01*
X171527847Y-68187061D01*
X171488073Y-67987102D01*
X171410052Y-67798744D01*
X171296784Y-67629226D01*
X171152621Y-67485063D01*
X170983103Y-67371795D01*
X170794745Y-67293774D01*
X170594786Y-67254000D01*
X170390908Y-67254000D01*
X170190949Y-67293774D01*
X170002591Y-67371795D01*
X169833073Y-67485063D01*
X169789136Y-67529000D01*
X161982109Y-67529000D01*
X161944784Y-67525324D01*
X161907459Y-67529000D01*
X161907451Y-67529000D01*
X161795798Y-67539997D01*
X161652537Y-67583454D01*
X161520508Y-67654026D01*
X161404783Y-67748999D01*
X161380985Y-67777997D01*
X158071244Y-71087739D01*
X158009106Y-71087739D01*
X157809147Y-71127513D01*
X157620789Y-71205534D01*
X157451271Y-71318802D01*
X157307108Y-71462965D01*
X157193840Y-71632483D01*
X157115819Y-71820841D01*
X157076045Y-72020800D01*
X157076045Y-72224678D01*
X157084065Y-72265000D01*
X156755325Y-72265000D01*
X156718000Y-72261324D01*
X156680675Y-72265000D01*
X156680667Y-72265000D01*
X156569014Y-72275997D01*
X156425753Y-72319454D01*
X156293724Y-72390026D01*
X156177999Y-72484999D01*
X156154201Y-72513997D01*
X155830934Y-72837264D01*
X155808226Y-72723102D01*
X155730205Y-72534744D01*
X155616937Y-72365226D01*
X155472774Y-72221063D01*
X155303256Y-72107795D01*
X155114898Y-72029774D01*
X154914939Y-71990000D01*
X154711061Y-71990000D01*
X154511102Y-72029774D01*
X154322744Y-72107795D01*
X154153226Y-72221063D01*
X154009063Y-72365226D01*
X153895795Y-72534744D01*
X153817774Y-72723102D01*
X153778000Y-72923061D01*
X153778000Y-72985198D01*
X149058199Y-77705000D01*
X148996061Y-77705000D01*
X148796102Y-77744774D01*
X148607744Y-77822795D01*
X148438226Y-77936063D01*
X148294063Y-78080226D01*
X148180795Y-78249744D01*
X148102774Y-78438102D01*
X148063000Y-78638061D01*
X148063000Y-78841939D01*
X148102774Y-79041898D01*
X148180795Y-79230256D01*
X148294063Y-79399774D01*
X148438226Y-79543937D01*
X148607744Y-79657205D01*
X148737229Y-79710840D01*
X148698000Y-79908061D01*
X148698000Y-80111939D01*
X148737774Y-80311898D01*
X148815795Y-80500256D01*
X148929063Y-80669774D01*
X149073226Y-80813937D01*
X149242744Y-80927205D01*
X149431102Y-81005226D01*
X149631061Y-81045000D01*
X149834939Y-81045000D01*
X150034898Y-81005226D01*
X150223256Y-80927205D01*
X150392774Y-80813937D01*
X150536937Y-80669774D01*
X150650205Y-80500256D01*
X150728226Y-80311898D01*
X150768000Y-80111939D01*
X150768000Y-80049801D01*
X157032802Y-73785000D01*
X157919289Y-73785000D01*
X157963226Y-73828937D01*
X158132744Y-73942205D01*
X158321102Y-74020226D01*
X158521061Y-74060000D01*
X158724939Y-74060000D01*
X158924898Y-74020226D01*
X159113256Y-73942205D01*
X159282774Y-73828937D01*
X159426937Y-73684774D01*
X159540205Y-73515256D01*
X159549005Y-73494010D01*
X162159188Y-73494010D01*
X157730998Y-77922201D01*
X157702000Y-77945999D01*
X157678202Y-77974997D01*
X157678201Y-77974998D01*
X157607026Y-78061724D01*
X157536454Y-78193754D01*
X157492998Y-78337015D01*
X157478324Y-78486000D01*
X157482001Y-78523332D01*
X157482001Y-79502897D01*
X157405158Y-79471068D01*
X157118260Y-79414000D01*
X156825740Y-79414000D01*
X156538842Y-79471068D01*
X156268589Y-79583010D01*
X156025368Y-79745525D01*
X155818525Y-79952368D01*
X155702000Y-80126760D01*
X155585475Y-79952368D01*
X155378632Y-79745525D01*
X155135411Y-79583010D01*
X154865158Y-79471068D01*
X154578260Y-79414000D01*
X154285740Y-79414000D01*
X153998842Y-79471068D01*
X153728589Y-79583010D01*
X153485368Y-79745525D01*
X153278525Y-79952368D01*
X153116010Y-80195589D01*
X153004068Y-80465842D01*
X152947000Y-80752740D01*
X152947000Y-81045260D01*
X153004068Y-81332158D01*
X153116010Y-81602411D01*
X153278525Y-81845632D01*
X153410380Y-81977487D01*
X153337820Y-81999498D01*
X153227506Y-82058463D01*
X153130815Y-82137815D01*
X153051463Y-82234506D01*
X152992498Y-82344820D01*
X152956188Y-82464518D01*
X152943928Y-82589000D01*
X152943928Y-84289000D01*
X152956188Y-84413482D01*
X152992498Y-84533180D01*
X153051463Y-84643494D01*
X153130815Y-84740185D01*
X153227506Y-84819537D01*
X153337820Y-84878502D01*
X153457518Y-84914812D01*
X153582000Y-84927072D01*
X155044126Y-84927072D01*
X154302002Y-85669197D01*
X154272999Y-85692999D01*
X154217871Y-85760174D01*
X154178026Y-85808724D01*
X154131121Y-85896476D01*
X154107454Y-85940754D01*
X154063997Y-86084015D01*
X154053000Y-86195668D01*
X154053000Y-86195678D01*
X154049324Y-86233000D01*
X154053000Y-86270323D01*
X154053001Y-88227658D01*
X154053000Y-88227668D01*
X154053001Y-90045000D01*
X149166711Y-90045000D01*
X149122774Y-90001063D01*
X148953256Y-89887795D01*
X148764898Y-89809774D01*
X148564939Y-89770000D01*
X148361061Y-89770000D01*
X148161102Y-89809774D01*
X147972744Y-89887795D01*
X147803226Y-90001063D01*
X147659063Y-90145226D01*
X147545795Y-90314744D01*
X147467774Y-90503102D01*
X147428000Y-90703061D01*
X147428000Y-90906939D01*
X147467774Y-91106898D01*
X147545795Y-91295256D01*
X147659063Y-91464774D01*
X147803226Y-91608937D01*
X147972744Y-91722205D01*
X148161102Y-91800226D01*
X148361061Y-91840000D01*
X148564939Y-91840000D01*
X148764898Y-91800226D01*
X148953256Y-91722205D01*
X149122774Y-91608937D01*
X149166711Y-91565000D01*
X153241504Y-91565000D01*
X152211160Y-92595345D01*
X152211149Y-92595354D01*
X152211145Y-92595358D01*
X152182152Y-92619152D01*
X152158358Y-92648145D01*
X150492002Y-94314503D01*
X150462999Y-94338305D01*
X150407871Y-94405480D01*
X150368026Y-94454030D01*
X150314864Y-94553488D01*
X150297454Y-94586060D01*
X150253997Y-94729321D01*
X150243000Y-94840974D01*
X150243000Y-94840984D01*
X150239324Y-94878306D01*
X150243000Y-94915629D01*
X150243001Y-95816288D01*
X150199063Y-95860226D01*
X150085795Y-96029744D01*
X150007774Y-96218102D01*
X149968000Y-96418061D01*
X149968000Y-96621939D01*
X150001039Y-96788039D01*
X149834939Y-96755000D01*
X149772802Y-96755000D01*
X146048000Y-93030199D01*
X146048000Y-92778711D01*
X146091937Y-92734774D01*
X146205205Y-92565256D01*
X146283226Y-92376898D01*
X146323000Y-92176939D01*
X146323000Y-91973061D01*
X146283226Y-91773102D01*
X146205205Y-91584744D01*
X146091937Y-91415226D01*
X145947774Y-91271063D01*
X145778256Y-91157795D01*
X145589898Y-91079774D01*
X145389939Y-91040000D01*
X145186061Y-91040000D01*
X144986102Y-91079774D01*
X144797744Y-91157795D01*
X144628226Y-91271063D01*
X144484063Y-91415226D01*
X144370795Y-91584744D01*
X144292774Y-91773102D01*
X144253000Y-91973061D01*
X144253000Y-92176939D01*
X144292774Y-92376898D01*
X144370795Y-92565256D01*
X144484063Y-92734774D01*
X144528000Y-92778711D01*
X144528000Y-93307677D01*
X144524324Y-93345000D01*
X144528000Y-93382322D01*
X144528000Y-93382332D01*
X144538997Y-93493985D01*
X144575429Y-93614087D01*
X144582454Y-93637246D01*
X144653026Y-93769276D01*
X144686221Y-93809724D01*
X144747999Y-93885001D01*
X144777003Y-93908804D01*
X148698000Y-97829802D01*
X148698000Y-97891939D01*
X148737774Y-98091898D01*
X148815795Y-98280256D01*
X148929063Y-98449774D01*
X149073226Y-98593937D01*
X149242744Y-98707205D01*
X149431102Y-98785226D01*
X149631061Y-98825000D01*
X149834939Y-98825000D01*
X150034898Y-98785226D01*
X150223256Y-98707205D01*
X150392774Y-98593937D01*
X150536937Y-98449774D01*
X150650205Y-98280256D01*
X150728226Y-98091898D01*
X150768000Y-97891939D01*
X150768000Y-97688061D01*
X150734961Y-97521961D01*
X150901061Y-97555000D01*
X151104939Y-97555000D01*
X151304898Y-97515226D01*
X151493256Y-97437205D01*
X151662774Y-97323937D01*
X151806937Y-97179774D01*
X151920205Y-97010256D01*
X151998226Y-96821898D01*
X152038000Y-96621939D01*
X152038000Y-96418061D01*
X151998226Y-96218102D01*
X151920205Y-96029744D01*
X151806937Y-95860226D01*
X151763000Y-95816289D01*
X151763000Y-95193107D01*
X152722154Y-94233955D01*
X155037000Y-96548802D01*
X155037000Y-97957247D01*
X154865158Y-97886068D01*
X154578260Y-97829000D01*
X154285740Y-97829000D01*
X153998842Y-97886068D01*
X153728589Y-97998010D01*
X153485368Y-98160525D01*
X153278525Y-98367368D01*
X153116010Y-98610589D01*
X153004068Y-98880842D01*
X152947000Y-99167740D01*
X152947000Y-99460260D01*
X153004068Y-99747158D01*
X153116010Y-100017411D01*
X153278525Y-100260632D01*
X153410380Y-100392487D01*
X153337820Y-100414498D01*
X153227506Y-100473463D01*
X153130815Y-100552815D01*
X153051463Y-100649506D01*
X152992498Y-100759820D01*
X152956188Y-100879518D01*
X152943928Y-101004000D01*
X152943928Y-102704000D01*
X152956188Y-102828482D01*
X152992498Y-102948180D01*
X153051463Y-103058494D01*
X153130815Y-103155185D01*
X153227506Y-103234537D01*
X153337820Y-103293502D01*
X153457518Y-103329812D01*
X153582000Y-103342072D01*
X155036999Y-103342072D01*
X155036999Y-107626677D01*
X155033323Y-107663999D01*
X155036999Y-107701321D01*
X155036999Y-107701331D01*
X155047996Y-107812984D01*
X155080458Y-107919999D01*
X155091453Y-107956245D01*
X155162025Y-108088275D01*
X155163538Y-108090118D01*
X155256998Y-108204000D01*
X155286002Y-108227803D01*
X155831637Y-108773439D01*
X155822484Y-108777230D01*
X155652966Y-108890498D01*
X155609029Y-108934435D01*
X149492888Y-108934435D01*
X149455563Y-108930759D01*
X149418238Y-108934435D01*
X149418230Y-108934435D01*
X149306577Y-108945432D01*
X149163316Y-108988889D01*
X149031287Y-109059461D01*
X148915562Y-109154434D01*
X148891764Y-109183432D01*
X147952022Y-110123174D01*
X147923019Y-110146977D01*
X147875807Y-110204506D01*
X147828046Y-110262702D01*
X147801155Y-110313012D01*
X147757474Y-110394732D01*
X147714017Y-110537993D01*
X147703020Y-110649646D01*
X147703020Y-110649656D01*
X147699344Y-110686978D01*
X147703020Y-110724301D01*
X147703021Y-112905000D01*
X144329306Y-112905000D01*
X144378226Y-112786898D01*
X144418000Y-112586939D01*
X144418000Y-112383061D01*
X144378226Y-112183102D01*
X144300205Y-111994744D01*
X144186937Y-111825226D01*
X144042774Y-111681063D01*
X143873256Y-111567795D01*
X143684898Y-111489774D01*
X143484939Y-111450000D01*
X143422802Y-111450000D01*
X141412503Y-109439702D01*
X141412503Y-106543589D01*
X141925000Y-106543589D01*
X141925000Y-106816411D01*
X141978225Y-107083989D01*
X142082629Y-107336043D01*
X142234201Y-107562886D01*
X142427114Y-107755799D01*
X142653957Y-107907371D01*
X142906011Y-108011775D01*
X143173589Y-108065000D01*
X143446411Y-108065000D01*
X143713989Y-108011775D01*
X143966043Y-107907371D01*
X144192886Y-107755799D01*
X144385799Y-107562886D01*
X144537371Y-107336043D01*
X144641775Y-107083989D01*
X144695000Y-106816411D01*
X144695000Y-106543589D01*
X144641775Y-106276011D01*
X144537371Y-106023957D01*
X144385799Y-105797114D01*
X144192886Y-105604201D01*
X143966043Y-105452629D01*
X143713989Y-105348225D01*
X143446411Y-105295000D01*
X143173589Y-105295000D01*
X142906011Y-105348225D01*
X142653957Y-105452629D01*
X142427114Y-105604201D01*
X142234201Y-105797114D01*
X142082629Y-106023957D01*
X141978225Y-106276011D01*
X141925000Y-106543589D01*
X141412503Y-106543589D01*
X141412503Y-96906214D01*
X141456440Y-96862277D01*
X141569708Y-96692759D01*
X141647729Y-96504401D01*
X141687503Y-96304442D01*
X141687503Y-96100564D01*
X141647729Y-95900605D01*
X141569708Y-95712247D01*
X141456440Y-95542729D01*
X141312277Y-95398566D01*
X141142759Y-95285298D01*
X140954401Y-95207277D01*
X140897546Y-95195968D01*
X140820001Y-95118423D01*
X140820001Y-93159077D01*
X143851050Y-90128029D01*
X143884817Y-90100317D01*
X143966274Y-90001063D01*
X143995411Y-89965559D01*
X144012416Y-89933744D01*
X144077589Y-89811813D01*
X144128195Y-89644990D01*
X144141000Y-89514977D01*
X144141000Y-89514969D01*
X144145281Y-89471500D01*
X144141000Y-89428031D01*
X144141000Y-86149469D01*
X144145281Y-86106000D01*
X144141000Y-86062531D01*
X144141000Y-86062523D01*
X144128195Y-85932510D01*
X144113480Y-85884001D01*
X144077589Y-85765686D01*
X143995411Y-85611941D01*
X143912532Y-85510953D01*
X143912530Y-85510951D01*
X143884817Y-85477183D01*
X143851049Y-85449470D01*
X143075539Y-84673960D01*
X143090000Y-84601260D01*
X143090000Y-84308740D01*
X143032932Y-84021842D01*
X142920990Y-83751589D01*
X142758475Y-83508368D01*
X142740000Y-83489893D01*
X142740000Y-83183000D01*
X146751199Y-83183000D01*
X148698000Y-85129802D01*
X148698000Y-85191939D01*
X148737774Y-85391898D01*
X148815795Y-85580256D01*
X148929063Y-85749774D01*
X149073226Y-85893937D01*
X149242744Y-86007205D01*
X149431102Y-86085226D01*
X149631061Y-86125000D01*
X149834939Y-86125000D01*
X150034898Y-86085226D01*
X150223256Y-86007205D01*
X150392774Y-85893937D01*
X150536937Y-85749774D01*
X150650205Y-85580256D01*
X150728226Y-85391898D01*
X150768000Y-85191939D01*
X150768000Y-84988061D01*
X150728226Y-84788102D01*
X150650205Y-84599744D01*
X150536937Y-84430226D01*
X150392774Y-84286063D01*
X150223256Y-84172795D01*
X150034898Y-84094774D01*
X149834939Y-84055000D01*
X149772802Y-84055000D01*
X147629804Y-81912003D01*
X147606001Y-81882999D01*
X147490276Y-81788026D01*
X147358247Y-81717454D01*
X147214986Y-81673997D01*
X147103333Y-81663000D01*
X147103322Y-81663000D01*
X147066000Y-81659324D01*
X147028678Y-81663000D01*
X142740000Y-81663000D01*
X142740000Y-80700752D01*
X142745491Y-80645000D01*
X142723577Y-80422501D01*
X142658676Y-80208553D01*
X142553284Y-80011377D01*
X142446989Y-79881856D01*
X142446987Y-79881854D01*
X142411449Y-79838551D01*
X142368146Y-79803013D01*
X139685135Y-77120003D01*
X141411086Y-77120003D01*
X141506270Y-77386165D01*
X141651551Y-77628644D01*
X141841346Y-77838121D01*
X142068361Y-78006545D01*
X142323872Y-78127445D01*
X142459745Y-78168662D01*
X142682874Y-78046767D01*
X142682874Y-76896874D01*
X142936874Y-76896874D01*
X142936874Y-78046767D01*
X143160003Y-78168662D01*
X143426165Y-78073478D01*
X143668644Y-77928197D01*
X143878121Y-77738402D01*
X144046545Y-77511387D01*
X144167445Y-77255876D01*
X144208662Y-77120003D01*
X144086767Y-76896874D01*
X142936874Y-76896874D01*
X142682874Y-76896874D01*
X141532981Y-76896874D01*
X141411086Y-77120003D01*
X139685135Y-77120003D01*
X139400131Y-76835000D01*
X139815386Y-76419745D01*
X141411086Y-76419745D01*
X141532981Y-76642874D01*
X142682874Y-76642874D01*
X142682874Y-75492981D01*
X142936874Y-75492981D01*
X142936874Y-76642874D01*
X144086767Y-76642874D01*
X144208662Y-76419745D01*
X144113478Y-76153583D01*
X143968197Y-75911104D01*
X143778402Y-75701627D01*
X143551387Y-75533203D01*
X143295876Y-75412303D01*
X143160003Y-75371086D01*
X142936874Y-75492981D01*
X142682874Y-75492981D01*
X142459745Y-75371086D01*
X142193583Y-75466270D01*
X141951104Y-75611551D01*
X141741627Y-75801346D01*
X141573203Y-76028361D01*
X141452303Y-76283872D01*
X141411086Y-76419745D01*
X139815386Y-76419745D01*
X140512282Y-75722850D01*
X140753574Y-75674853D01*
X141014727Y-75566680D01*
X141249759Y-75409637D01*
X141449637Y-75209759D01*
X141606680Y-74974727D01*
X141714853Y-74713574D01*
X141770000Y-74436335D01*
X141770000Y-74153665D01*
X141714853Y-73876426D01*
X141606680Y-73615273D01*
X141449637Y-73380241D01*
X141249759Y-73180363D01*
X141014727Y-73023320D01*
X140753574Y-72915147D01*
X140476335Y-72860000D01*
X140193665Y-72860000D01*
X139916426Y-72915147D01*
X139655273Y-73023320D01*
X139420241Y-73180363D01*
X139220363Y-73380241D01*
X139063320Y-73615273D01*
X138955147Y-73876426D01*
X138907150Y-74117718D01*
X137031861Y-75993008D01*
X137031856Y-75993012D01*
X137031849Y-75993019D01*
X136988552Y-76028552D01*
X136953019Y-76071849D01*
X135419869Y-77605000D01*
X130010132Y-77605000D01*
X128796773Y-76391642D01*
X129001031Y-76142752D01*
X129152852Y-75858715D01*
X129246343Y-75550515D01*
X129270000Y-75310321D01*
X129270000Y-74549679D01*
X129500000Y-74549679D01*
X129500000Y-75310322D01*
X129523657Y-75550516D01*
X129617148Y-75858715D01*
X129768969Y-76142752D01*
X129973286Y-76391714D01*
X130222249Y-76596031D01*
X130506286Y-76747852D01*
X130814485Y-76841343D01*
X131135000Y-76872911D01*
X131455516Y-76841343D01*
X131763715Y-76747852D01*
X132047752Y-76596031D01*
X132296714Y-76391714D01*
X132501031Y-76142752D01*
X132652852Y-75858715D01*
X132746343Y-75550515D01*
X132770000Y-75310321D01*
X132770000Y-74549678D01*
X132746343Y-74309484D01*
X132652852Y-74001285D01*
X132501031Y-73717248D01*
X132296714Y-73468286D01*
X132047751Y-73263969D01*
X131763714Y-73112148D01*
X131455515Y-73018657D01*
X131135000Y-72987089D01*
X130814484Y-73018657D01*
X130506285Y-73112148D01*
X130222248Y-73263969D01*
X129973286Y-73468286D01*
X129768969Y-73717249D01*
X129617148Y-74001286D01*
X129523657Y-74309485D01*
X129500000Y-74549679D01*
X129270000Y-74549679D01*
X129270000Y-74549678D01*
X129246343Y-74309484D01*
X129152852Y-74001285D01*
X129001031Y-73717248D01*
X128796714Y-73468286D01*
X128547751Y-73263969D01*
X128263714Y-73112148D01*
X127955515Y-73018657D01*
X127635000Y-72987089D01*
X127314484Y-73018657D01*
X127006285Y-73112148D01*
X126722248Y-73263969D01*
X126473286Y-73468286D01*
X126268969Y-73717249D01*
X126117148Y-74001286D01*
X126023657Y-74309485D01*
X126000000Y-74549679D01*
X126000000Y-75310322D01*
X126023657Y-75550516D01*
X126117148Y-75858715D01*
X126268969Y-76142752D01*
X126473286Y-76391714D01*
X126500001Y-76413638D01*
X126500001Y-76779239D01*
X126494509Y-76835000D01*
X126516423Y-77057498D01*
X126581324Y-77271446D01*
X126608032Y-77321413D01*
X126686717Y-77468623D01*
X126828552Y-77641449D01*
X126871860Y-77676991D01*
X128698009Y-79503141D01*
X128733551Y-79546449D01*
X128868507Y-79657205D01*
X128906377Y-79688284D01*
X129103553Y-79793676D01*
X129317501Y-79858577D01*
X129540000Y-79880491D01*
X129595752Y-79875000D01*
X135834249Y-79875000D01*
X135890000Y-79880491D01*
X135945751Y-79875000D01*
X135945752Y-79875000D01*
X136112499Y-79858577D01*
X136326447Y-79793676D01*
X136523623Y-79688284D01*
X136696449Y-79546449D01*
X136731996Y-79503135D01*
X137795000Y-78440132D01*
X140470000Y-81115133D01*
X140470000Y-82367249D01*
X140470001Y-83489892D01*
X140451525Y-83508368D01*
X140335000Y-83682760D01*
X140218475Y-83508368D01*
X140011632Y-83301525D01*
X139768411Y-83139010D01*
X139498158Y-83027068D01*
X139211260Y-82970000D01*
X138918740Y-82970000D01*
X138631842Y-83027068D01*
X138361589Y-83139010D01*
X138118368Y-83301525D01*
X137911525Y-83508368D01*
X137789805Y-83690534D01*
X137720178Y-83573645D01*
X137525269Y-83357412D01*
X137291920Y-83183359D01*
X137029099Y-83058175D01*
X136881890Y-83013524D01*
X136652000Y-83134845D01*
X136652000Y-84328000D01*
X136672000Y-84328000D01*
X136672000Y-84582000D01*
X136652000Y-84582000D01*
X136652000Y-84602000D01*
X136398000Y-84602000D01*
X136398000Y-84582000D01*
X135204186Y-84582000D01*
X135083519Y-84811891D01*
X135180843Y-85086252D01*
X135329822Y-85336355D01*
X135524731Y-85552588D01*
X135754406Y-85723900D01*
X135578368Y-85841525D01*
X135371525Y-86048368D01*
X135209010Y-86291589D01*
X135097068Y-86561842D01*
X135040000Y-86848740D01*
X135040000Y-87141260D01*
X135083790Y-87361408D01*
X132838998Y-89606201D01*
X132810000Y-89629999D01*
X132786202Y-89658997D01*
X132786201Y-89658998D01*
X132715026Y-89745724D01*
X132644454Y-89877754D01*
X132617820Y-89965558D01*
X132600998Y-90021014D01*
X132597552Y-90055998D01*
X132586324Y-90170000D01*
X132590001Y-90207332D01*
X132590000Y-95816289D01*
X132546063Y-95860226D01*
X132432795Y-96029744D01*
X132354774Y-96218102D01*
X132332066Y-96332265D01*
X132205000Y-96205199D01*
X132205000Y-94683711D01*
X132248937Y-94639774D01*
X132362205Y-94470256D01*
X132440226Y-94281898D01*
X132480000Y-94081939D01*
X132480000Y-93878061D01*
X132440226Y-93678102D01*
X132362205Y-93489744D01*
X132248937Y-93320226D01*
X132104774Y-93176063D01*
X131935256Y-93062795D01*
X131746898Y-92984774D01*
X131546939Y-92945000D01*
X131343061Y-92945000D01*
X131143102Y-92984774D01*
X130954744Y-93062795D01*
X130785226Y-93176063D01*
X130641063Y-93320226D01*
X130527795Y-93489744D01*
X130449774Y-93678102D01*
X130410000Y-93878061D01*
X130410000Y-94081939D01*
X130449774Y-94281898D01*
X130527795Y-94470256D01*
X130641063Y-94639774D01*
X130685001Y-94683712D01*
X130685000Y-96482677D01*
X130681324Y-96520000D01*
X130685000Y-96557322D01*
X130685000Y-96557332D01*
X130695997Y-96668985D01*
X130734154Y-96794774D01*
X130739454Y-96812246D01*
X130810026Y-96944276D01*
X130841807Y-96983001D01*
X130904999Y-97060001D01*
X130934003Y-97083804D01*
X131640198Y-97790000D01*
X130299002Y-99131197D01*
X130298997Y-99131201D01*
X128865199Y-100565000D01*
X128803061Y-100565000D01*
X128603102Y-100604774D01*
X128414744Y-100682795D01*
X128245226Y-100796063D01*
X128101063Y-100940226D01*
X127987795Y-101109744D01*
X127909774Y-101298102D01*
X127870000Y-101498061D01*
X127870000Y-101701939D01*
X127909774Y-101901898D01*
X127987795Y-102090256D01*
X128101063Y-102259774D01*
X128245226Y-102403937D01*
X128414744Y-102517205D01*
X128603102Y-102595226D01*
X128803061Y-102635000D01*
X129006939Y-102635000D01*
X129206898Y-102595226D01*
X129395256Y-102517205D01*
X129564774Y-102403937D01*
X129708937Y-102259774D01*
X129822205Y-102090256D01*
X129900226Y-101901898D01*
X129940000Y-101701939D01*
X129940000Y-101639801D01*
X131373799Y-100206003D01*
X131373803Y-100205998D01*
X133029802Y-98550000D01*
X135217678Y-98550000D01*
X135255000Y-98553676D01*
X135292322Y-98550000D01*
X135292333Y-98550000D01*
X135403986Y-98539003D01*
X135547247Y-98495546D01*
X135679276Y-98424974D01*
X135795001Y-98330001D01*
X135818804Y-98300997D01*
X138979803Y-95139999D01*
X139050002Y-95139999D01*
X139050002Y-95441523D01*
X139045720Y-95485001D01*
X139062806Y-95658491D01*
X139113413Y-95825314D01*
X139195591Y-95979060D01*
X139278469Y-96080047D01*
X139278472Y-96080050D01*
X139306185Y-96113818D01*
X139339952Y-96141530D01*
X139645968Y-96447546D01*
X139657277Y-96504401D01*
X139735298Y-96692759D01*
X139848566Y-96862277D01*
X139892504Y-96906215D01*
X139892503Y-109717181D01*
X139888827Y-109754503D01*
X139892503Y-109791825D01*
X139892503Y-109791835D01*
X139903500Y-109903488D01*
X139940777Y-110026377D01*
X139946957Y-110046749D01*
X140017529Y-110178779D01*
X140033101Y-110197753D01*
X140112502Y-110294504D01*
X140141506Y-110318307D01*
X142348000Y-112524802D01*
X142348000Y-112586939D01*
X142387774Y-112786898D01*
X142436694Y-112905000D01*
X112940323Y-112905000D01*
X112903000Y-112901324D01*
X112865677Y-112905000D01*
X112865667Y-112905000D01*
X112754014Y-112915997D01*
X112610753Y-112959454D01*
X112478724Y-113030026D01*
X112362999Y-113124999D01*
X112339201Y-113153997D01*
X110958199Y-114535000D01*
X110896061Y-114535000D01*
X110696102Y-114574774D01*
X110507744Y-114652795D01*
X110338226Y-114766063D01*
X110194063Y-114910226D01*
X110080795Y-115079744D01*
X110002774Y-115268102D01*
X109963000Y-115468061D01*
X93903000Y-115468061D01*
X93903000Y-111079224D01*
X103225381Y-111079224D01*
X103357317Y-111374312D01*
X103698045Y-111545159D01*
X104065557Y-111646250D01*
X104445729Y-111673701D01*
X104823951Y-111626457D01*
X105185690Y-111506333D01*
X105432683Y-111374312D01*
X105564619Y-111079224D01*
X104395000Y-109909605D01*
X103225381Y-111079224D01*
X93903000Y-111079224D01*
X93903000Y-107727409D01*
X98705000Y-107727409D01*
X98705000Y-108172591D01*
X98791851Y-108609218D01*
X98962214Y-109020511D01*
X99209544Y-109390666D01*
X99524334Y-109705456D01*
X99894489Y-109952786D01*
X100305782Y-110123149D01*
X100742409Y-110210000D01*
X101187591Y-110210000D01*
X101624218Y-110123149D01*
X102035511Y-109952786D01*
X102405666Y-109705456D01*
X102460709Y-109650413D01*
X102451299Y-109780729D01*
X102498543Y-110158951D01*
X102618667Y-110520690D01*
X102750688Y-110767683D01*
X103045776Y-110899619D01*
X104215395Y-109730000D01*
X104574605Y-109730000D01*
X105744224Y-110899619D01*
X106039312Y-110767683D01*
X106210159Y-110426955D01*
X106264567Y-110229155D01*
X121725450Y-110229155D01*
X122121634Y-110749550D01*
X122836612Y-111139748D01*
X123613976Y-111382964D01*
X124423853Y-111469851D01*
X125235118Y-111397069D01*
X126016597Y-111167415D01*
X126738256Y-110789715D01*
X126798366Y-110749550D01*
X127194550Y-110229155D01*
X124460000Y-107494605D01*
X121725450Y-110229155D01*
X106264567Y-110229155D01*
X106311250Y-110059443D01*
X106338701Y-109679271D01*
X106291457Y-109301049D01*
X106171333Y-108939310D01*
X106039312Y-108692317D01*
X105744224Y-108560381D01*
X104574605Y-109730000D01*
X104215395Y-109730000D01*
X104201253Y-109715858D01*
X104380858Y-109536253D01*
X104395000Y-109550395D01*
X105564619Y-108380776D01*
X105432683Y-108085688D01*
X105091955Y-107914841D01*
X104724443Y-107813750D01*
X104344271Y-107786299D01*
X103966049Y-107833543D01*
X103604310Y-107953667D01*
X103357317Y-108085688D01*
X103225382Y-108380774D01*
X103190523Y-108345915D01*
X103225000Y-108172591D01*
X103225000Y-107727409D01*
X103138149Y-107290782D01*
X102967786Y-106879489D01*
X102720456Y-106509334D01*
X102405666Y-106194544D01*
X102035511Y-105947214D01*
X101624218Y-105776851D01*
X101187591Y-105690000D01*
X100742409Y-105690000D01*
X100305782Y-105776851D01*
X99894489Y-105947214D01*
X99524334Y-106194544D01*
X99209544Y-106509334D01*
X98962214Y-106879489D01*
X98791851Y-107290782D01*
X98705000Y-107727409D01*
X93903000Y-107727409D01*
X93903000Y-101164473D01*
X102165610Y-101164473D01*
X102205875Y-101424344D01*
X102296065Y-101671366D01*
X102349963Y-101772203D01*
X102583731Y-101831664D01*
X103325395Y-101090000D01*
X102583731Y-100348336D01*
X102349963Y-100407797D01*
X102239066Y-100646242D01*
X102176817Y-100901740D01*
X102165610Y-101164473D01*
X93903000Y-101164473D01*
X93903000Y-98918514D01*
X102170000Y-98918514D01*
X102170000Y-99181486D01*
X102221304Y-99439405D01*
X102321939Y-99682359D01*
X102468038Y-99901013D01*
X102653987Y-100086962D01*
X102765229Y-100161291D01*
X102763336Y-100168731D01*
X103505000Y-100910395D01*
X103519143Y-100896253D01*
X103698748Y-101075858D01*
X103684605Y-101090000D01*
X103698748Y-101104143D01*
X103519143Y-101283748D01*
X103505000Y-101269605D01*
X102763336Y-102011269D01*
X102765229Y-102018709D01*
X102653987Y-102093038D01*
X102468038Y-102278987D01*
X102321939Y-102497641D01*
X102221304Y-102740595D01*
X102170000Y-102998514D01*
X102170000Y-103261486D01*
X102221304Y-103519405D01*
X102321939Y-103762359D01*
X102468038Y-103981013D01*
X102637025Y-104150000D01*
X102468038Y-104318987D01*
X102321939Y-104537641D01*
X102221304Y-104780595D01*
X102170000Y-105038514D01*
X102170000Y-105301486D01*
X102221304Y-105559405D01*
X102321939Y-105802359D01*
X102468038Y-106021013D01*
X102653987Y-106206962D01*
X102872641Y-106353061D01*
X103115595Y-106453696D01*
X103373514Y-106505000D01*
X103636486Y-106505000D01*
X103894405Y-106453696D01*
X104137359Y-106353061D01*
X104356013Y-106206962D01*
X104524461Y-106038514D01*
X108770000Y-106038514D01*
X108770000Y-106301486D01*
X108821304Y-106559405D01*
X108921939Y-106802359D01*
X109068038Y-107021013D01*
X109253987Y-107206962D01*
X109415678Y-107315000D01*
X109253987Y-107423038D01*
X109068038Y-107608987D01*
X108921939Y-107827641D01*
X108821304Y-108070595D01*
X108770000Y-108328514D01*
X108770000Y-108591486D01*
X108821304Y-108849405D01*
X108921939Y-109092359D01*
X109068038Y-109311013D01*
X109253987Y-109496962D01*
X109472641Y-109643061D01*
X109715595Y-109743696D01*
X109973514Y-109795000D01*
X110236486Y-109795000D01*
X110494405Y-109743696D01*
X110737359Y-109643061D01*
X110956013Y-109496962D01*
X111141962Y-109311013D01*
X111202775Y-109220000D01*
X115530678Y-109220000D01*
X115568000Y-109223676D01*
X115605322Y-109220000D01*
X115605333Y-109220000D01*
X115716986Y-109209003D01*
X115860247Y-109165546D01*
X115992276Y-109094974D01*
X116108001Y-109000001D01*
X116131804Y-108970997D01*
X117823948Y-107278853D01*
X120305149Y-107278853D01*
X120377931Y-108090118D01*
X120607585Y-108871597D01*
X120985285Y-109593256D01*
X121025450Y-109653366D01*
X121545845Y-110049550D01*
X124280395Y-107315000D01*
X124639605Y-107315000D01*
X127374155Y-110049550D01*
X127894550Y-109653366D01*
X128284748Y-108938388D01*
X128527964Y-108161024D01*
X128614851Y-107351147D01*
X128542402Y-106543589D01*
X137045000Y-106543589D01*
X137045000Y-106816411D01*
X137098225Y-107083989D01*
X137202629Y-107336043D01*
X137354201Y-107562886D01*
X137547114Y-107755799D01*
X137773957Y-107907371D01*
X138026011Y-108011775D01*
X138293589Y-108065000D01*
X138566411Y-108065000D01*
X138833989Y-108011775D01*
X139086043Y-107907371D01*
X139312886Y-107755799D01*
X139505799Y-107562886D01*
X139657371Y-107336043D01*
X139761775Y-107083989D01*
X139815000Y-106816411D01*
X139815000Y-106543589D01*
X139761775Y-106276011D01*
X139657371Y-106023957D01*
X139505799Y-105797114D01*
X139312886Y-105604201D01*
X139086043Y-105452629D01*
X138833989Y-105348225D01*
X138566411Y-105295000D01*
X138293589Y-105295000D01*
X138026011Y-105348225D01*
X137773957Y-105452629D01*
X137547114Y-105604201D01*
X137354201Y-105797114D01*
X137202629Y-106023957D01*
X137098225Y-106276011D01*
X137045000Y-106543589D01*
X128542402Y-106543589D01*
X128542069Y-106539882D01*
X128312415Y-105758403D01*
X127934715Y-105036744D01*
X127894550Y-104976634D01*
X127374155Y-104580450D01*
X124639605Y-107315000D01*
X124280395Y-107315000D01*
X121545845Y-104580450D01*
X121025450Y-104976634D01*
X120635252Y-105691612D01*
X120392036Y-106468976D01*
X120305149Y-107278853D01*
X117823948Y-107278853D01*
X120701956Y-104400845D01*
X121725450Y-104400845D01*
X124460000Y-107135395D01*
X127194550Y-104400845D01*
X126798366Y-103880450D01*
X126083388Y-103490252D01*
X125306024Y-103247036D01*
X124496147Y-103160149D01*
X123684882Y-103232931D01*
X122903403Y-103462585D01*
X122181744Y-103840285D01*
X122121634Y-103880450D01*
X121725450Y-104400845D01*
X120701956Y-104400845D01*
X125642802Y-99460000D01*
X125704939Y-99460000D01*
X125904898Y-99420226D01*
X126093256Y-99342205D01*
X126262774Y-99228937D01*
X126406937Y-99084774D01*
X126520205Y-98915256D01*
X126598226Y-98726898D01*
X126638000Y-98526939D01*
X126638000Y-98323061D01*
X126598226Y-98123102D01*
X126520205Y-97934744D01*
X126406937Y-97765226D01*
X126262774Y-97621063D01*
X126093256Y-97507795D01*
X125904898Y-97429774D01*
X125704939Y-97390000D01*
X125501061Y-97390000D01*
X125301102Y-97429774D01*
X125112744Y-97507795D01*
X124943226Y-97621063D01*
X124799063Y-97765226D01*
X124685795Y-97934744D01*
X124607774Y-98123102D01*
X124568000Y-98323061D01*
X124568000Y-98385198D01*
X115253199Y-107700000D01*
X111202775Y-107700000D01*
X111141962Y-107608987D01*
X110956013Y-107423038D01*
X110794322Y-107315000D01*
X110956013Y-107206962D01*
X111141962Y-107021013D01*
X111288061Y-106802359D01*
X111388696Y-106559405D01*
X111440000Y-106301486D01*
X111440000Y-106038514D01*
X111388696Y-105780595D01*
X111288061Y-105537641D01*
X111141962Y-105318987D01*
X110956013Y-105133038D01*
X110737359Y-104986939D01*
X110494405Y-104886304D01*
X110236486Y-104835000D01*
X109973514Y-104835000D01*
X109715595Y-104886304D01*
X109472641Y-104986939D01*
X109253987Y-105133038D01*
X109068038Y-105318987D01*
X108921939Y-105537641D01*
X108821304Y-105780595D01*
X108770000Y-106038514D01*
X104524461Y-106038514D01*
X104541962Y-106021013D01*
X104688061Y-105802359D01*
X104788696Y-105559405D01*
X104819935Y-105402357D01*
X104895595Y-105433696D01*
X105153514Y-105485000D01*
X105416486Y-105485000D01*
X105674405Y-105433696D01*
X105917359Y-105333061D01*
X106136013Y-105186962D01*
X106321962Y-105001013D01*
X106468061Y-104782359D01*
X106568696Y-104539405D01*
X106620000Y-104281486D01*
X106620000Y-104018514D01*
X106568696Y-103760595D01*
X106468061Y-103517641D01*
X106321962Y-103298987D01*
X106136013Y-103113038D01*
X106024771Y-103038709D01*
X106026664Y-103031269D01*
X105285000Y-102289605D01*
X105270858Y-102303748D01*
X105091253Y-102124143D01*
X105105395Y-102110000D01*
X105464605Y-102110000D01*
X106206269Y-102851664D01*
X106440037Y-102792203D01*
X106550934Y-102553758D01*
X106613183Y-102298260D01*
X106624390Y-102035527D01*
X106584125Y-101775656D01*
X106493935Y-101528634D01*
X106440037Y-101427797D01*
X106206269Y-101368336D01*
X105464605Y-102110000D01*
X105105395Y-102110000D01*
X105091253Y-102095858D01*
X105270858Y-101916253D01*
X105285000Y-101930395D01*
X106026664Y-101188731D01*
X106024771Y-101181291D01*
X106136013Y-101106962D01*
X106321962Y-100921013D01*
X106468061Y-100702359D01*
X106568696Y-100459405D01*
X106620000Y-100201486D01*
X106620000Y-99938514D01*
X106568696Y-99680595D01*
X106468061Y-99437641D01*
X106321962Y-99218987D01*
X106152975Y-99050000D01*
X106321962Y-98881013D01*
X106468061Y-98662359D01*
X106568696Y-98419405D01*
X106620000Y-98161486D01*
X106620000Y-97898514D01*
X106568696Y-97640595D01*
X106468061Y-97397641D01*
X106321962Y-97178987D01*
X106136013Y-96993038D01*
X105917359Y-96846939D01*
X105674405Y-96746304D01*
X105416486Y-96695000D01*
X105153514Y-96695000D01*
X104895595Y-96746304D01*
X104652641Y-96846939D01*
X104433987Y-96993038D01*
X104248038Y-97178987D01*
X104101939Y-97397641D01*
X104001304Y-97640595D01*
X103970065Y-97797643D01*
X103894405Y-97766304D01*
X103636486Y-97715000D01*
X103373514Y-97715000D01*
X103115595Y-97766304D01*
X102872641Y-97866939D01*
X102653987Y-98013038D01*
X102468038Y-98198987D01*
X102321939Y-98417641D01*
X102221304Y-98660595D01*
X102170000Y-98918514D01*
X93903000Y-98918514D01*
X93903000Y-95027409D01*
X98705000Y-95027409D01*
X98705000Y-95472591D01*
X98791851Y-95909218D01*
X98962214Y-96320511D01*
X99209544Y-96690666D01*
X99524334Y-97005456D01*
X99894489Y-97252786D01*
X100305782Y-97423149D01*
X100742409Y-97510000D01*
X101187591Y-97510000D01*
X101624218Y-97423149D01*
X102035511Y-97252786D01*
X102405666Y-97005456D01*
X102720456Y-96690666D01*
X102967786Y-96320511D01*
X103138149Y-95909218D01*
X103225000Y-95472591D01*
X103225000Y-95027409D01*
X103190523Y-94854085D01*
X103225382Y-94819226D01*
X103357317Y-95114312D01*
X103698045Y-95285159D01*
X104065557Y-95386250D01*
X104445729Y-95413701D01*
X104823951Y-95366457D01*
X105185690Y-95246333D01*
X105432683Y-95114312D01*
X105564619Y-94819224D01*
X104395000Y-93649605D01*
X104380858Y-93663748D01*
X104201253Y-93484143D01*
X104215395Y-93470000D01*
X104574605Y-93470000D01*
X105744224Y-94639619D01*
X105813793Y-94608514D01*
X108770000Y-94608514D01*
X108770000Y-94871486D01*
X108821304Y-95129405D01*
X108921939Y-95372359D01*
X109068038Y-95591013D01*
X109253987Y-95776962D01*
X109415678Y-95885000D01*
X109253987Y-95993038D01*
X109068038Y-96178987D01*
X108921939Y-96397641D01*
X108821304Y-96640595D01*
X108770000Y-96898514D01*
X108770000Y-97161486D01*
X108821304Y-97419405D01*
X108921939Y-97662359D01*
X109068038Y-97881013D01*
X109253987Y-98066962D01*
X109472641Y-98213061D01*
X109715595Y-98313696D01*
X109973514Y-98365000D01*
X110236486Y-98365000D01*
X110494405Y-98313696D01*
X110737359Y-98213061D01*
X110956013Y-98066962D01*
X111141962Y-97881013D01*
X111288061Y-97662359D01*
X111388696Y-97419405D01*
X111440000Y-97161486D01*
X111440000Y-96898514D01*
X111388696Y-96640595D01*
X111288061Y-96397641D01*
X111141962Y-96178987D01*
X110956013Y-95993038D01*
X110794322Y-95885000D01*
X110956013Y-95776962D01*
X111141962Y-95591013D01*
X111288061Y-95372359D01*
X111388696Y-95129405D01*
X111440000Y-94871486D01*
X111440000Y-94608514D01*
X111388696Y-94350595D01*
X111288061Y-94107641D01*
X111141962Y-93888987D01*
X110956013Y-93703038D01*
X110737359Y-93556939D01*
X110494405Y-93456304D01*
X110236486Y-93405000D01*
X109973514Y-93405000D01*
X109715595Y-93456304D01*
X109472641Y-93556939D01*
X109253987Y-93703038D01*
X109068038Y-93888987D01*
X108921939Y-94107641D01*
X108821304Y-94350595D01*
X108770000Y-94608514D01*
X105813793Y-94608514D01*
X106039312Y-94507683D01*
X106210159Y-94166955D01*
X106311250Y-93799443D01*
X106338701Y-93419271D01*
X106291457Y-93041049D01*
X106171333Y-92679310D01*
X106039312Y-92432317D01*
X105744224Y-92300381D01*
X104574605Y-93470000D01*
X104215395Y-93470000D01*
X103045776Y-92300381D01*
X102750688Y-92432317D01*
X102579841Y-92773045D01*
X102478750Y-93140557D01*
X102451299Y-93520729D01*
X102454075Y-93542953D01*
X102405666Y-93494544D01*
X102035511Y-93247214D01*
X101624218Y-93076851D01*
X101187591Y-92990000D01*
X100742409Y-92990000D01*
X100305782Y-93076851D01*
X99894489Y-93247214D01*
X99524334Y-93494544D01*
X99209544Y-93809334D01*
X98962214Y-94179489D01*
X98791851Y-94590782D01*
X98705000Y-95027409D01*
X93903000Y-95027409D01*
X93903000Y-92120776D01*
X103225381Y-92120776D01*
X104395000Y-93290395D01*
X105564619Y-92120776D01*
X105432683Y-91825688D01*
X105091955Y-91654841D01*
X104724443Y-91553750D01*
X104344271Y-91526299D01*
X103966049Y-91573543D01*
X103604310Y-91693667D01*
X103357317Y-91825688D01*
X103225381Y-92120776D01*
X93903000Y-92120776D01*
X93903000Y-86213740D01*
X117133000Y-86213740D01*
X117133000Y-86506260D01*
X117190068Y-86793158D01*
X117302010Y-87063411D01*
X117464525Y-87306632D01*
X117671368Y-87513475D01*
X117914589Y-87675990D01*
X118184842Y-87787932D01*
X118471740Y-87845000D01*
X118764260Y-87845000D01*
X119051158Y-87787932D01*
X119321411Y-87675990D01*
X119564632Y-87513475D01*
X119771475Y-87306632D01*
X119888000Y-87132240D01*
X120004525Y-87306632D01*
X120211368Y-87513475D01*
X120454589Y-87675990D01*
X120724842Y-87787932D01*
X121011740Y-87845000D01*
X121304260Y-87845000D01*
X121591158Y-87787932D01*
X121861411Y-87675990D01*
X122104632Y-87513475D01*
X122311475Y-87306632D01*
X122428000Y-87132240D01*
X122544525Y-87306632D01*
X122751368Y-87513475D01*
X122994589Y-87675990D01*
X123264842Y-87787932D01*
X123551740Y-87845000D01*
X123844260Y-87845000D01*
X124131158Y-87787932D01*
X124401411Y-87675990D01*
X124644632Y-87513475D01*
X124776487Y-87381620D01*
X124798498Y-87454180D01*
X124857463Y-87564494D01*
X124936815Y-87661185D01*
X125033506Y-87740537D01*
X125143820Y-87799502D01*
X125263518Y-87835812D01*
X125388000Y-87848072D01*
X127088000Y-87848072D01*
X127212482Y-87835812D01*
X127332180Y-87799502D01*
X127442494Y-87740537D01*
X127539185Y-87661185D01*
X127618537Y-87564494D01*
X127677502Y-87454180D01*
X127713812Y-87334482D01*
X127726072Y-87210000D01*
X127726072Y-85510000D01*
X127713812Y-85385518D01*
X127677502Y-85265820D01*
X127618537Y-85155506D01*
X127539185Y-85058815D01*
X127442494Y-84979463D01*
X127332180Y-84920498D01*
X127212482Y-84884188D01*
X127088000Y-84871928D01*
X125388000Y-84871928D01*
X125263518Y-84884188D01*
X125143820Y-84920498D01*
X125033506Y-84979463D01*
X124936815Y-85058815D01*
X124857463Y-85155506D01*
X124798498Y-85265820D01*
X124776487Y-85338380D01*
X124644632Y-85206525D01*
X124401411Y-85044010D01*
X124131158Y-84932068D01*
X123844260Y-84875000D01*
X123551740Y-84875000D01*
X123264842Y-84932068D01*
X122994589Y-85044010D01*
X122751368Y-85206525D01*
X122544525Y-85413368D01*
X122428000Y-85587760D01*
X122311475Y-85413368D01*
X122104632Y-85206525D01*
X121861411Y-85044010D01*
X121591158Y-84932068D01*
X121304260Y-84875000D01*
X121011740Y-84875000D01*
X120724842Y-84932068D01*
X120454589Y-85044010D01*
X120211368Y-85206525D01*
X120004525Y-85413368D01*
X119888000Y-85587760D01*
X119771475Y-85413368D01*
X119564632Y-85206525D01*
X119321411Y-85044010D01*
X119051158Y-84932068D01*
X118764260Y-84875000D01*
X118471740Y-84875000D01*
X118184842Y-84932068D01*
X117914589Y-85044010D01*
X117671368Y-85206525D01*
X117464525Y-85413368D01*
X117302010Y-85656589D01*
X117190068Y-85926842D01*
X117133000Y-86213740D01*
X93903000Y-86213740D01*
X93903000Y-84098109D01*
X135083519Y-84098109D01*
X135204186Y-84328000D01*
X136398000Y-84328000D01*
X136398000Y-83134845D01*
X136168110Y-83013524D01*
X136020901Y-83058175D01*
X135758080Y-83183359D01*
X135524731Y-83357412D01*
X135329822Y-83573645D01*
X135180843Y-83823748D01*
X135083519Y-84098109D01*
X93903000Y-84098109D01*
X93903000Y-76574155D01*
X100643450Y-76574155D01*
X101039634Y-77094550D01*
X101754612Y-77484748D01*
X102531976Y-77727964D01*
X103341853Y-77814851D01*
X104153118Y-77742069D01*
X104934597Y-77512415D01*
X105656256Y-77134715D01*
X105716366Y-77094550D01*
X106112550Y-76574155D01*
X103378000Y-73839605D01*
X100643450Y-76574155D01*
X93903000Y-76574155D01*
X93903000Y-73623853D01*
X99223149Y-73623853D01*
X99295931Y-74435118D01*
X99525585Y-75216597D01*
X99903285Y-75938256D01*
X99943450Y-75998366D01*
X100463845Y-76394550D01*
X103198395Y-73660000D01*
X103557605Y-73660000D01*
X106292155Y-76394550D01*
X106508294Y-76230000D01*
X122496928Y-76230000D01*
X122509188Y-76354482D01*
X122545498Y-76474180D01*
X122604463Y-76584494D01*
X122683815Y-76681185D01*
X122780506Y-76760537D01*
X122890820Y-76819502D01*
X123010518Y-76855812D01*
X123135000Y-76868072D01*
X123849250Y-76865000D01*
X124008000Y-76706250D01*
X124008000Y-75057000D01*
X124262000Y-75057000D01*
X124262000Y-76706250D01*
X124420750Y-76865000D01*
X125135000Y-76868072D01*
X125259482Y-76855812D01*
X125379180Y-76819502D01*
X125489494Y-76760537D01*
X125586185Y-76681185D01*
X125665537Y-76584494D01*
X125724502Y-76474180D01*
X125760812Y-76354482D01*
X125773072Y-76230000D01*
X125770000Y-75215750D01*
X125611250Y-75057000D01*
X124262000Y-75057000D01*
X124008000Y-75057000D01*
X122658750Y-75057000D01*
X122500000Y-75215750D01*
X122496928Y-76230000D01*
X106508294Y-76230000D01*
X106812550Y-75998366D01*
X107202748Y-75283388D01*
X107445964Y-74506024D01*
X107532851Y-73696147D01*
X107526917Y-73630000D01*
X122496928Y-73630000D01*
X122500000Y-74644250D01*
X122658750Y-74803000D01*
X124008000Y-74803000D01*
X124008000Y-73153750D01*
X124262000Y-73153750D01*
X124262000Y-74803000D01*
X125611250Y-74803000D01*
X125770000Y-74644250D01*
X125773072Y-73630000D01*
X125760812Y-73505518D01*
X125724502Y-73385820D01*
X125665537Y-73275506D01*
X125586185Y-73178815D01*
X125489494Y-73099463D01*
X125379180Y-73040498D01*
X125259482Y-73004188D01*
X125135000Y-72991928D01*
X124420750Y-72995000D01*
X124262000Y-73153750D01*
X124008000Y-73153750D01*
X123849250Y-72995000D01*
X123135000Y-72991928D01*
X123010518Y-73004188D01*
X122890820Y-73040498D01*
X122780506Y-73099463D01*
X122683815Y-73178815D01*
X122604463Y-73275506D01*
X122545498Y-73385820D01*
X122509188Y-73505518D01*
X122496928Y-73630000D01*
X107526917Y-73630000D01*
X107460069Y-72884882D01*
X107230415Y-72103403D01*
X106852715Y-71381744D01*
X106812550Y-71321634D01*
X106292155Y-70925450D01*
X103557605Y-73660000D01*
X103198395Y-73660000D01*
X100463845Y-70925450D01*
X99943450Y-71321634D01*
X99553252Y-72036612D01*
X99310036Y-72813976D01*
X99223149Y-73623853D01*
X93903000Y-73623853D01*
X93903000Y-70745845D01*
X100643450Y-70745845D01*
X103378000Y-73480395D01*
X106112550Y-70745845D01*
X105716366Y-70225450D01*
X105001388Y-69835252D01*
X104224024Y-69592036D01*
X103414147Y-69505149D01*
X102602882Y-69577931D01*
X101821403Y-69807585D01*
X101099744Y-70185285D01*
X101039634Y-70225450D01*
X100643450Y-70745845D01*
X93903000Y-70745845D01*
X93903000Y-64820000D01*
X177623000Y-64820000D01*
X177623001Y-126315000D01*
G37*
G04 #@! TD.AperFunction*
D23*
X137911525Y-87941632D02*
X138118368Y-88148475D01*
X138361589Y-88310990D01*
X138631842Y-88422932D01*
X138918740Y-88480000D01*
X139211260Y-88480000D01*
X139498158Y-88422932D01*
X139768411Y-88310990D01*
X140011632Y-88148475D01*
X140143487Y-88016620D01*
X140165498Y-88089180D01*
X140224463Y-88199494D01*
X140303815Y-88296185D01*
X140400506Y-88375537D01*
X140510820Y-88434502D01*
X140630518Y-88470812D01*
X140755000Y-88483072D01*
X142371000Y-88483072D01*
X142371000Y-89104921D01*
X139339952Y-92135970D01*
X139306185Y-92163682D01*
X139278472Y-92197450D01*
X139278469Y-92197453D01*
X139195591Y-92298440D01*
X139113413Y-92452186D01*
X139062806Y-92619009D01*
X139045720Y-92792499D01*
X139050002Y-92835978D01*
X139050001Y-93619999D01*
X138702326Y-93619999D01*
X138665001Y-93616323D01*
X138627676Y-93619999D01*
X138627668Y-93619999D01*
X138516015Y-93630996D01*
X138372754Y-93674453D01*
X138240725Y-93745025D01*
X138125000Y-93839998D01*
X138101202Y-93868996D01*
X134940199Y-97030000D01*
X134254013Y-97030000D01*
X134267205Y-97010256D01*
X134345226Y-96821898D01*
X134385000Y-96621939D01*
X134385000Y-96418061D01*
X134345226Y-96218102D01*
X134267205Y-96029744D01*
X134153937Y-95860226D01*
X134110000Y-95816289D01*
X134110000Y-90484801D01*
X136158592Y-88436210D01*
X136378740Y-88480000D01*
X136671260Y-88480000D01*
X136958158Y-88422932D01*
X137228411Y-88310990D01*
X137471632Y-88148475D01*
X137678475Y-87941632D01*
X137795000Y-87767240D01*
X137911525Y-87941632D01*
G04 #@! TA.AperFunction,Conductor*
D24*
G36*
X137911525Y-87941632D02*
G01*
X138118368Y-88148475D01*
X138361589Y-88310990D01*
X138631842Y-88422932D01*
X138918740Y-88480000D01*
X139211260Y-88480000D01*
X139498158Y-88422932D01*
X139768411Y-88310990D01*
X140011632Y-88148475D01*
X140143487Y-88016620D01*
X140165498Y-88089180D01*
X140224463Y-88199494D01*
X140303815Y-88296185D01*
X140400506Y-88375537D01*
X140510820Y-88434502D01*
X140630518Y-88470812D01*
X140755000Y-88483072D01*
X142371000Y-88483072D01*
X142371000Y-89104921D01*
X139339952Y-92135970D01*
X139306185Y-92163682D01*
X139278472Y-92197450D01*
X139278469Y-92197453D01*
X139195591Y-92298440D01*
X139113413Y-92452186D01*
X139062806Y-92619009D01*
X139045720Y-92792499D01*
X139050002Y-92835978D01*
X139050001Y-93619999D01*
X138702326Y-93619999D01*
X138665001Y-93616323D01*
X138627676Y-93619999D01*
X138627668Y-93619999D01*
X138516015Y-93630996D01*
X138372754Y-93674453D01*
X138240725Y-93745025D01*
X138125000Y-93839998D01*
X138101202Y-93868996D01*
X134940199Y-97030000D01*
X134254013Y-97030000D01*
X134267205Y-97010256D01*
X134345226Y-96821898D01*
X134385000Y-96621939D01*
X134385000Y-96418061D01*
X134345226Y-96218102D01*
X134267205Y-96029744D01*
X134153937Y-95860226D01*
X134110000Y-95816289D01*
X134110000Y-90484801D01*
X136158592Y-88436210D01*
X136378740Y-88480000D01*
X136671260Y-88480000D01*
X136958158Y-88422932D01*
X137228411Y-88310990D01*
X137471632Y-88148475D01*
X137678475Y-87941632D01*
X137795000Y-87767240D01*
X137911525Y-87941632D01*
G37*
G04 #@! TD.AperFunction*
M02*
