G04 #@! TF.GenerationSoftware,KiCad,Pcbnew,(5.1.9)-1*
G04 #@! TF.CreationDate,2021-06-09T23:06:16+02:00*
G04 #@! TF.ProjectId,interface,696e7465-7266-4616-9365-2e6b69636164,rev?*
G04 #@! TF.SameCoordinates,Original*
G04 #@! TF.FileFunction,Legend,Top*
G04 #@! TF.FilePolarity,Positive*
%FSLAX46Y46*%
G04 Gerber Fmt 4.6, Leading zero omitted, Abs format (unit mm)*
G04 Created by KiCad (PCBNEW (5.1.9)-1) date 2021-06-09 23:06:16*
%MOMM*%
%LPD*%
G01*
G04 APERTURE LIST*
%ADD10C,0.120000*%
%ADD11C,0.150000*%
G04 APERTURE END LIST*
D10*
X152547000Y-109474000D02*
X152547000Y-112924000D01*
X152547000Y-109474000D02*
X152547000Y-107524000D01*
X162667000Y-109474000D02*
X162667000Y-111424000D01*
X162667000Y-109474000D02*
X162667000Y-107524000D01*
X164612000Y-91059000D02*
X164612000Y-94509000D01*
X164612000Y-91059000D02*
X164612000Y-89109000D01*
X174732000Y-91059000D02*
X174732000Y-93009000D01*
X174732000Y-91059000D02*
X174732000Y-89109000D01*
X117288000Y-119440000D02*
X117288000Y-118110000D01*
X118618000Y-119440000D02*
X117288000Y-119440000D01*
X117288000Y-116840000D02*
X117288000Y-114240000D01*
X119888000Y-116840000D02*
X117288000Y-116840000D01*
X119888000Y-119440000D02*
X119888000Y-116840000D01*
X117288000Y-114240000D02*
X137728000Y-114240000D01*
X119888000Y-119440000D02*
X137728000Y-119440000D01*
X137728000Y-119440000D02*
X137728000Y-114240000D01*
X110998000Y-123170000D02*
X114448000Y-123170000D01*
X110998000Y-123170000D02*
X109048000Y-123170000D01*
X110998000Y-113050000D02*
X112948000Y-113050000D01*
X110998000Y-113050000D02*
X109048000Y-113050000D01*
X164612000Y-109474000D02*
X164612000Y-112924000D01*
X164612000Y-109474000D02*
X164612000Y-107524000D01*
X174732000Y-109474000D02*
X174732000Y-111424000D01*
X174732000Y-109474000D02*
X174732000Y-107524000D01*
X152547000Y-91059000D02*
X152547000Y-94509000D01*
X152547000Y-91059000D02*
X152547000Y-89109000D01*
X162667000Y-91059000D02*
X162667000Y-93009000D01*
X162667000Y-91059000D02*
X162667000Y-89109000D01*
X164612000Y-72644000D02*
X164612000Y-76094000D01*
X164612000Y-72644000D02*
X164612000Y-70694000D01*
X174732000Y-72644000D02*
X174732000Y-74594000D01*
X174732000Y-72644000D02*
X174732000Y-70694000D01*
X152547000Y-72644000D02*
X152547000Y-76094000D01*
X152547000Y-72644000D02*
X152547000Y-70694000D01*
X162667000Y-72644000D02*
X162667000Y-74594000D01*
X162667000Y-72644000D02*
X162667000Y-70694000D01*
X143383000Y-113050000D02*
X139933000Y-113050000D01*
X143383000Y-113050000D02*
X145333000Y-113050000D01*
X143383000Y-123170000D02*
X141433000Y-123170000D01*
X143383000Y-123170000D02*
X145333000Y-123170000D01*
X148985500Y-101012258D02*
X148985500Y-100537742D01*
X147940500Y-101012258D02*
X147940500Y-100537742D01*
X150255500Y-94217258D02*
X150255500Y-93742742D01*
X149210500Y-94217258D02*
X149210500Y-93742742D01*
X153102000Y-121599000D02*
X153102000Y-120269000D01*
X154432000Y-121599000D02*
X153102000Y-121599000D01*
X153102000Y-118999000D02*
X153102000Y-116399000D01*
X155702000Y-118999000D02*
X153102000Y-118999000D01*
X155702000Y-121599000D02*
X155702000Y-118999000D01*
X153102000Y-116399000D02*
X173542000Y-116399000D01*
X155702000Y-121599000D02*
X173542000Y-121599000D01*
X173542000Y-121599000D02*
X173542000Y-116399000D01*
X153102000Y-103184000D02*
X153102000Y-101854000D01*
X154432000Y-103184000D02*
X153102000Y-103184000D01*
X153102000Y-100584000D02*
X153102000Y-97984000D01*
X155702000Y-100584000D02*
X153102000Y-100584000D01*
X155702000Y-103184000D02*
X155702000Y-100584000D01*
X153102000Y-97984000D02*
X173542000Y-97984000D01*
X155702000Y-103184000D02*
X173542000Y-103184000D01*
X173542000Y-103184000D02*
X173542000Y-97984000D01*
X153102000Y-84769000D02*
X153102000Y-83439000D01*
X154432000Y-84769000D02*
X153102000Y-84769000D01*
X153102000Y-82169000D02*
X153102000Y-79569000D01*
X155702000Y-82169000D02*
X153102000Y-82169000D01*
X155702000Y-84769000D02*
X155702000Y-82169000D01*
X153102000Y-79569000D02*
X173542000Y-79569000D01*
X155702000Y-84769000D02*
X173542000Y-84769000D01*
X173542000Y-84769000D02*
X173542000Y-79569000D01*
X127568000Y-85030000D02*
X127568000Y-86360000D01*
X126238000Y-85030000D02*
X127568000Y-85030000D01*
X124968000Y-85030000D02*
X124968000Y-87690000D01*
X124968000Y-87690000D02*
X117288000Y-87690000D01*
X124968000Y-85030000D02*
X117288000Y-85030000D01*
X117288000Y-85030000D02*
X117288000Y-87690000D01*
X120715000Y-96500000D02*
X118765000Y-96500000D01*
X120715000Y-96500000D02*
X122665000Y-96500000D01*
X120715000Y-101620000D02*
X118765000Y-101620000D01*
X120715000Y-101620000D02*
X124165000Y-101620000D01*
X114187500Y-104727742D02*
X114187500Y-105202258D01*
X113142500Y-104727742D02*
X113142500Y-105202258D01*
X109172742Y-89647500D02*
X109647258Y-89647500D01*
X109172742Y-90692500D02*
X109647258Y-90692500D01*
X110505000Y-92600000D02*
X106505000Y-92600000D01*
X102505000Y-92600000D02*
X93505000Y-92600000D01*
X93505000Y-92600000D02*
X93505000Y-110600000D01*
X93505000Y-110600000D02*
X102505000Y-110600000D01*
X106505000Y-110600000D02*
X110505000Y-110600000D01*
X110505000Y-98600000D02*
X110505000Y-104600000D01*
X108505000Y-106600000D02*
X106505000Y-106600000D01*
X106505000Y-106600000D02*
X107505000Y-108600000D01*
X107505000Y-108600000D02*
X108505000Y-106600000D01*
X107505000Y-106600000D02*
X107505000Y-105600000D01*
X108505000Y-108600000D02*
X106505000Y-108600000D01*
X107505000Y-108600000D02*
X107505000Y-109600000D01*
X107505000Y-93600000D02*
X107505000Y-94600000D01*
X107505000Y-94600000D02*
X106505000Y-94600000D01*
X106505000Y-94600000D02*
X107505000Y-96600000D01*
X107505000Y-96600000D02*
X108505000Y-94600000D01*
X108505000Y-94600000D02*
X107505000Y-94600000D01*
X108505000Y-96600000D02*
X106505000Y-96600000D01*
X107505000Y-97600000D02*
X107505000Y-96600000D01*
X109505000Y-101600000D02*
X106505000Y-101600000D01*
X101505000Y-101600000D02*
X94505000Y-101600000D01*
X94505000Y-101600000D02*
X97505000Y-104600000D01*
X94505000Y-101600000D02*
X97505000Y-98600000D01*
X142935000Y-83125000D02*
X142935000Y-85725000D01*
X142935000Y-83125000D02*
X135195000Y-83125000D01*
X135195000Y-83125000D02*
X135195000Y-88325000D01*
X140335000Y-88325000D02*
X135195000Y-88325000D01*
X140335000Y-85725000D02*
X140335000Y-88325000D01*
X142935000Y-85725000D02*
X140335000Y-85725000D01*
X142935000Y-88325000D02*
X141605000Y-88325000D01*
X142935000Y-86995000D02*
X142935000Y-88325000D01*
X145692437Y-75532437D02*
G75*
G03*
X145692437Y-75532437I-4120000J0D01*
G01*
D11*
X137150000Y-100850000D02*
X137375000Y-100850000D01*
X137150000Y-93600000D02*
X137475000Y-93600000D01*
X144400000Y-93600000D02*
X144075000Y-93600000D01*
X144400000Y-100850000D02*
X144075000Y-100850000D01*
X137150000Y-100850000D02*
X137150000Y-100525000D01*
X144400000Y-100850000D02*
X144400000Y-100525000D01*
X144400000Y-93600000D02*
X144400000Y-93925000D01*
X137150000Y-93600000D02*
X137150000Y-93925000D01*
X137375000Y-100850000D02*
X137375000Y-102275000D01*
D10*
X121225000Y-70670000D02*
X121225000Y-79390000D01*
X121225000Y-79390000D02*
X134345000Y-79390000D01*
X134345000Y-79390000D02*
X134345000Y-70670000D01*
X134345000Y-70670000D02*
X121225000Y-70670000D01*
X121835000Y-72280000D02*
X121835000Y-77780000D01*
X121835000Y-77780000D02*
X124135000Y-77780000D01*
X124135000Y-77780000D02*
X124135000Y-78780000D01*
X124135000Y-78780000D02*
X126735000Y-78780000D01*
X126735000Y-78780000D02*
X126735000Y-77780000D01*
X126735000Y-77780000D02*
X131135000Y-77780000D01*
X131135000Y-77780000D02*
X131135000Y-78780000D01*
X131135000Y-78780000D02*
X133735000Y-78780000D01*
X133735000Y-78780000D02*
X133735000Y-72280000D01*
X133735000Y-72280000D02*
X121835000Y-72280000D01*
X120925000Y-72780000D02*
X120925000Y-70370000D01*
X120925000Y-70370000D02*
X123335000Y-70370000D01*
X137670000Y-104155000D02*
X144070000Y-104155000D01*
X137670000Y-109205000D02*
X144070000Y-109205000D01*
X144070000Y-109205000D02*
G75*
G03*
X144070000Y-104155000I0J2525000D01*
G01*
X137670000Y-109205000D02*
G75*
G02*
X137670000Y-104155000I0J2525000D01*
G01*
X132192500Y-102917258D02*
X132192500Y-102442742D01*
X133237500Y-102917258D02*
X133237500Y-102442742D01*
X131980000Y-105397500D02*
X131980000Y-107682500D01*
X131980000Y-107682500D02*
X133450000Y-107682500D01*
X133450000Y-107682500D02*
X133450000Y-105397500D01*
X131840500Y-96472742D02*
X131840500Y-96947258D01*
X130795500Y-96472742D02*
X130795500Y-96947258D01*
X114695500Y-100092742D02*
X114695500Y-100567258D01*
X113650500Y-100092742D02*
X113650500Y-100567258D01*
X143369420Y-109980000D02*
X143650580Y-109980000D01*
X143369420Y-111000000D02*
X143650580Y-111000000D01*
X138289420Y-109980000D02*
X138570580Y-109980000D01*
X138289420Y-111000000D02*
X138570580Y-111000000D01*
D11*
X102616095Y-69612380D02*
X102616095Y-68612380D01*
X102616095Y-69088571D02*
X103187523Y-69088571D01*
X103187523Y-69612380D02*
X103187523Y-68612380D01*
X103616095Y-68707619D02*
X103663714Y-68660000D01*
X103758952Y-68612380D01*
X103997047Y-68612380D01*
X104092285Y-68660000D01*
X104139904Y-68707619D01*
X104187523Y-68802857D01*
X104187523Y-68898095D01*
X104139904Y-69040952D01*
X103568476Y-69612380D01*
X104187523Y-69612380D01*
X151159380Y-110235904D02*
X151968904Y-110235904D01*
X152064142Y-110188285D01*
X152111761Y-110140666D01*
X152159380Y-110045428D01*
X152159380Y-109854952D01*
X152111761Y-109759714D01*
X152064142Y-109712095D01*
X151968904Y-109664476D01*
X151159380Y-109664476D01*
X152159380Y-109140666D02*
X152159380Y-108950190D01*
X152111761Y-108854952D01*
X152064142Y-108807333D01*
X151921285Y-108712095D01*
X151730809Y-108664476D01*
X151349857Y-108664476D01*
X151254619Y-108712095D01*
X151207000Y-108759714D01*
X151159380Y-108854952D01*
X151159380Y-109045428D01*
X151207000Y-109140666D01*
X151254619Y-109188285D01*
X151349857Y-109235904D01*
X151587952Y-109235904D01*
X151683190Y-109188285D01*
X151730809Y-109140666D01*
X151778428Y-109045428D01*
X151778428Y-108854952D01*
X151730809Y-108759714D01*
X151683190Y-108712095D01*
X151587952Y-108664476D01*
X163224380Y-91820904D02*
X164033904Y-91820904D01*
X164129142Y-91773285D01*
X164176761Y-91725666D01*
X164224380Y-91630428D01*
X164224380Y-91439952D01*
X164176761Y-91344714D01*
X164129142Y-91297095D01*
X164033904Y-91249476D01*
X163224380Y-91249476D01*
X163652952Y-90630428D02*
X163605333Y-90725666D01*
X163557714Y-90773285D01*
X163462476Y-90820904D01*
X163414857Y-90820904D01*
X163319619Y-90773285D01*
X163272000Y-90725666D01*
X163224380Y-90630428D01*
X163224380Y-90439952D01*
X163272000Y-90344714D01*
X163319619Y-90297095D01*
X163414857Y-90249476D01*
X163462476Y-90249476D01*
X163557714Y-90297095D01*
X163605333Y-90344714D01*
X163652952Y-90439952D01*
X163652952Y-90630428D01*
X163700571Y-90725666D01*
X163748190Y-90773285D01*
X163843428Y-90820904D01*
X164033904Y-90820904D01*
X164129142Y-90773285D01*
X164176761Y-90725666D01*
X164224380Y-90630428D01*
X164224380Y-90439952D01*
X164176761Y-90344714D01*
X164129142Y-90297095D01*
X164033904Y-90249476D01*
X163843428Y-90249476D01*
X163748190Y-90297095D01*
X163700571Y-90344714D01*
X163652952Y-90439952D01*
X115530380Y-120983333D02*
X116244666Y-120983333D01*
X116387523Y-121030952D01*
X116482761Y-121126190D01*
X116530380Y-121269047D01*
X116530380Y-121364285D01*
X115530380Y-120602380D02*
X115530380Y-119983333D01*
X115911333Y-120316666D01*
X115911333Y-120173809D01*
X115958952Y-120078571D01*
X116006571Y-120030952D01*
X116101809Y-119983333D01*
X116339904Y-119983333D01*
X116435142Y-120030952D01*
X116482761Y-120078571D01*
X116530380Y-120173809D01*
X116530380Y-120459523D01*
X116482761Y-120554761D01*
X116435142Y-120602380D01*
X110236095Y-123462380D02*
X110236095Y-124271904D01*
X110283714Y-124367142D01*
X110331333Y-124414761D01*
X110426571Y-124462380D01*
X110617047Y-124462380D01*
X110712285Y-124414761D01*
X110759904Y-124367142D01*
X110807523Y-124271904D01*
X110807523Y-123462380D01*
X111188476Y-123462380D02*
X111807523Y-123462380D01*
X111474190Y-123843333D01*
X111617047Y-123843333D01*
X111712285Y-123890952D01*
X111759904Y-123938571D01*
X111807523Y-124033809D01*
X111807523Y-124271904D01*
X111759904Y-124367142D01*
X111712285Y-124414761D01*
X111617047Y-124462380D01*
X111331333Y-124462380D01*
X111236095Y-124414761D01*
X111188476Y-124367142D01*
X163224380Y-110712095D02*
X164033904Y-110712095D01*
X164129142Y-110664476D01*
X164176761Y-110616857D01*
X164224380Y-110521619D01*
X164224380Y-110331142D01*
X164176761Y-110235904D01*
X164129142Y-110188285D01*
X164033904Y-110140666D01*
X163224380Y-110140666D01*
X164224380Y-109140666D02*
X164224380Y-109712095D01*
X164224380Y-109426380D02*
X163224380Y-109426380D01*
X163367238Y-109521619D01*
X163462476Y-109616857D01*
X163510095Y-109712095D01*
X163224380Y-108521619D02*
X163224380Y-108426380D01*
X163272000Y-108331142D01*
X163319619Y-108283523D01*
X163414857Y-108235904D01*
X163605333Y-108188285D01*
X163843428Y-108188285D01*
X164033904Y-108235904D01*
X164129142Y-108283523D01*
X164176761Y-108331142D01*
X164224380Y-108426380D01*
X164224380Y-108521619D01*
X164176761Y-108616857D01*
X164129142Y-108664476D01*
X164033904Y-108712095D01*
X163843428Y-108759714D01*
X163605333Y-108759714D01*
X163414857Y-108712095D01*
X163319619Y-108664476D01*
X163272000Y-108616857D01*
X163224380Y-108521619D01*
X151159380Y-91820904D02*
X151968904Y-91820904D01*
X152064142Y-91773285D01*
X152111761Y-91725666D01*
X152159380Y-91630428D01*
X152159380Y-91439952D01*
X152111761Y-91344714D01*
X152064142Y-91297095D01*
X151968904Y-91249476D01*
X151159380Y-91249476D01*
X151159380Y-90868523D02*
X151159380Y-90201857D01*
X152159380Y-90630428D01*
X163224380Y-73405904D02*
X164033904Y-73405904D01*
X164129142Y-73358285D01*
X164176761Y-73310666D01*
X164224380Y-73215428D01*
X164224380Y-73024952D01*
X164176761Y-72929714D01*
X164129142Y-72882095D01*
X164033904Y-72834476D01*
X163224380Y-72834476D01*
X163224380Y-71929714D02*
X163224380Y-72120190D01*
X163272000Y-72215428D01*
X163319619Y-72263047D01*
X163462476Y-72358285D01*
X163652952Y-72405904D01*
X164033904Y-72405904D01*
X164129142Y-72358285D01*
X164176761Y-72310666D01*
X164224380Y-72215428D01*
X164224380Y-72024952D01*
X164176761Y-71929714D01*
X164129142Y-71882095D01*
X164033904Y-71834476D01*
X163795809Y-71834476D01*
X163700571Y-71882095D01*
X163652952Y-71929714D01*
X163605333Y-72024952D01*
X163605333Y-72215428D01*
X163652952Y-72310666D01*
X163700571Y-72358285D01*
X163795809Y-72405904D01*
X151159380Y-73405904D02*
X151968904Y-73405904D01*
X152064142Y-73358285D01*
X152111761Y-73310666D01*
X152159380Y-73215428D01*
X152159380Y-73024952D01*
X152111761Y-72929714D01*
X152064142Y-72882095D01*
X151968904Y-72834476D01*
X151159380Y-72834476D01*
X151159380Y-71882095D02*
X151159380Y-72358285D01*
X151635571Y-72405904D01*
X151587952Y-72358285D01*
X151540333Y-72263047D01*
X151540333Y-72024952D01*
X151587952Y-71929714D01*
X151635571Y-71882095D01*
X151730809Y-71834476D01*
X151968904Y-71834476D01*
X152064142Y-71882095D01*
X152111761Y-71929714D01*
X152159380Y-72024952D01*
X152159380Y-72263047D01*
X152111761Y-72358285D01*
X152064142Y-72405904D01*
X142621095Y-111662380D02*
X142621095Y-112471904D01*
X142668714Y-112567142D01*
X142716333Y-112614761D01*
X142811571Y-112662380D01*
X143002047Y-112662380D01*
X143097285Y-112614761D01*
X143144904Y-112567142D01*
X143192523Y-112471904D01*
X143192523Y-111662380D01*
X144097285Y-111995714D02*
X144097285Y-112662380D01*
X143859190Y-111614761D02*
X143621095Y-112329047D01*
X144240142Y-112329047D01*
X147485380Y-100941666D02*
X147009190Y-101275000D01*
X147485380Y-101513095D02*
X146485380Y-101513095D01*
X146485380Y-101132142D01*
X146533000Y-101036904D01*
X146580619Y-100989285D01*
X146675857Y-100941666D01*
X146818714Y-100941666D01*
X146913952Y-100989285D01*
X146961571Y-101036904D01*
X147009190Y-101132142D01*
X147009190Y-101513095D01*
X146818714Y-100084523D02*
X147485380Y-100084523D01*
X146437761Y-100322619D02*
X147152047Y-100560714D01*
X147152047Y-99941666D01*
X148755380Y-94146666D02*
X148279190Y-94480000D01*
X148755380Y-94718095D02*
X147755380Y-94718095D01*
X147755380Y-94337142D01*
X147803000Y-94241904D01*
X147850619Y-94194285D01*
X147945857Y-94146666D01*
X148088714Y-94146666D01*
X148183952Y-94194285D01*
X148231571Y-94241904D01*
X148279190Y-94337142D01*
X148279190Y-94718095D01*
X147755380Y-93813333D02*
X147755380Y-93194285D01*
X148136333Y-93527619D01*
X148136333Y-93384761D01*
X148183952Y-93289523D01*
X148231571Y-93241904D01*
X148326809Y-93194285D01*
X148564904Y-93194285D01*
X148660142Y-93241904D01*
X148707761Y-93289523D01*
X148755380Y-93384761D01*
X148755380Y-93670476D01*
X148707761Y-93765714D01*
X148660142Y-93813333D01*
X151554380Y-119332333D02*
X152268666Y-119332333D01*
X152411523Y-119379952D01*
X152506761Y-119475190D01*
X152554380Y-119618047D01*
X152554380Y-119713285D01*
X151554380Y-118951380D02*
X151554380Y-118284714D01*
X152554380Y-118713285D01*
X151554380Y-100917333D02*
X152268666Y-100917333D01*
X152411523Y-100964952D01*
X152506761Y-101060190D01*
X152554380Y-101203047D01*
X152554380Y-101298285D01*
X151554380Y-100012571D02*
X151554380Y-100203047D01*
X151602000Y-100298285D01*
X151649619Y-100345904D01*
X151792476Y-100441142D01*
X151982952Y-100488761D01*
X152363904Y-100488761D01*
X152459142Y-100441142D01*
X152506761Y-100393523D01*
X152554380Y-100298285D01*
X152554380Y-100107809D01*
X152506761Y-100012571D01*
X152459142Y-99964952D01*
X152363904Y-99917333D01*
X152125809Y-99917333D01*
X152030571Y-99964952D01*
X151982952Y-100012571D01*
X151935333Y-100107809D01*
X151935333Y-100298285D01*
X151982952Y-100393523D01*
X152030571Y-100441142D01*
X152125809Y-100488761D01*
X151554380Y-82502333D02*
X152268666Y-82502333D01*
X152411523Y-82549952D01*
X152506761Y-82645190D01*
X152554380Y-82788047D01*
X152554380Y-82883285D01*
X151554380Y-81549952D02*
X151554380Y-82026142D01*
X152030571Y-82073761D01*
X151982952Y-82026142D01*
X151935333Y-81930904D01*
X151935333Y-81692809D01*
X151982952Y-81597571D01*
X152030571Y-81549952D01*
X152125809Y-81502333D01*
X152363904Y-81502333D01*
X152459142Y-81549952D01*
X152506761Y-81597571D01*
X152554380Y-81692809D01*
X152554380Y-81930904D01*
X152506761Y-82026142D01*
X152459142Y-82073761D01*
X128020380Y-86693333D02*
X128734666Y-86693333D01*
X128877523Y-86740952D01*
X128972761Y-86836190D01*
X129020380Y-86979047D01*
X129020380Y-87074285D01*
X129020380Y-85693333D02*
X129020380Y-86264761D01*
X129020380Y-85979047D02*
X128020380Y-85979047D01*
X128163238Y-86074285D01*
X128258476Y-86169523D01*
X128306095Y-86264761D01*
X119953095Y-101912380D02*
X119953095Y-102721904D01*
X120000714Y-102817142D01*
X120048333Y-102864761D01*
X120143571Y-102912380D01*
X120334047Y-102912380D01*
X120429285Y-102864761D01*
X120476904Y-102817142D01*
X120524523Y-102721904D01*
X120524523Y-101912380D01*
X120953095Y-102007619D02*
X121000714Y-101960000D01*
X121095952Y-101912380D01*
X121334047Y-101912380D01*
X121429285Y-101960000D01*
X121476904Y-102007619D01*
X121524523Y-102102857D01*
X121524523Y-102198095D01*
X121476904Y-102340952D01*
X120905476Y-102912380D01*
X121524523Y-102912380D01*
X115547380Y-105607857D02*
X115071190Y-105941190D01*
X115547380Y-106179285D02*
X114547380Y-106179285D01*
X114547380Y-105798333D01*
X114595000Y-105703095D01*
X114642619Y-105655476D01*
X114737857Y-105607857D01*
X114880714Y-105607857D01*
X114975952Y-105655476D01*
X115023571Y-105703095D01*
X115071190Y-105798333D01*
X115071190Y-106179285D01*
X115547380Y-104655476D02*
X115547380Y-105226904D01*
X115547380Y-104941190D02*
X114547380Y-104941190D01*
X114690238Y-105036428D01*
X114785476Y-105131666D01*
X114833095Y-105226904D01*
X115547380Y-104179285D02*
X115547380Y-103988809D01*
X115499761Y-103893571D01*
X115452142Y-103845952D01*
X115309285Y-103750714D01*
X115118809Y-103703095D01*
X114737857Y-103703095D01*
X114642619Y-103750714D01*
X114595000Y-103798333D01*
X114547380Y-103893571D01*
X114547380Y-104084047D01*
X114595000Y-104179285D01*
X114642619Y-104226904D01*
X114737857Y-104274523D01*
X114975952Y-104274523D01*
X115071190Y-104226904D01*
X115118809Y-104179285D01*
X115166428Y-104084047D01*
X115166428Y-103893571D01*
X115118809Y-103798333D01*
X115071190Y-103750714D01*
X114975952Y-103703095D01*
X108767142Y-89192380D02*
X108433809Y-88716190D01*
X108195714Y-89192380D02*
X108195714Y-88192380D01*
X108576666Y-88192380D01*
X108671904Y-88240000D01*
X108719523Y-88287619D01*
X108767142Y-88382857D01*
X108767142Y-88525714D01*
X108719523Y-88620952D01*
X108671904Y-88668571D01*
X108576666Y-88716190D01*
X108195714Y-88716190D01*
X109719523Y-89192380D02*
X109148095Y-89192380D01*
X109433809Y-89192380D02*
X109433809Y-88192380D01*
X109338571Y-88335238D01*
X109243333Y-88430476D01*
X109148095Y-88478095D01*
X110290952Y-88620952D02*
X110195714Y-88573333D01*
X110148095Y-88525714D01*
X110100476Y-88430476D01*
X110100476Y-88382857D01*
X110148095Y-88287619D01*
X110195714Y-88240000D01*
X110290952Y-88192380D01*
X110481428Y-88192380D01*
X110576666Y-88240000D01*
X110624285Y-88287619D01*
X110671904Y-88382857D01*
X110671904Y-88430476D01*
X110624285Y-88525714D01*
X110576666Y-88573333D01*
X110481428Y-88620952D01*
X110290952Y-88620952D01*
X110195714Y-88668571D01*
X110148095Y-88716190D01*
X110100476Y-88811428D01*
X110100476Y-89001904D01*
X110148095Y-89097142D01*
X110195714Y-89144761D01*
X110290952Y-89192380D01*
X110481428Y-89192380D01*
X110576666Y-89144761D01*
X110624285Y-89097142D01*
X110671904Y-89001904D01*
X110671904Y-88811428D01*
X110624285Y-88716190D01*
X110576666Y-88668571D01*
X110481428Y-88620952D01*
X95845380Y-109045333D02*
X96559666Y-109045333D01*
X96702523Y-109092952D01*
X96797761Y-109188190D01*
X96845380Y-109331047D01*
X96845380Y-109426285D01*
X96178714Y-108140571D02*
X96845380Y-108140571D01*
X95797761Y-108378666D02*
X96512047Y-108616761D01*
X96512047Y-107997714D01*
X138731666Y-88987380D02*
X138731666Y-89701666D01*
X138684047Y-89844523D01*
X138588809Y-89939761D01*
X138445952Y-89987380D01*
X138350714Y-89987380D01*
X139160238Y-89082619D02*
X139207857Y-89035000D01*
X139303095Y-88987380D01*
X139541190Y-88987380D01*
X139636428Y-89035000D01*
X139684047Y-89082619D01*
X139731666Y-89177857D01*
X139731666Y-89273095D01*
X139684047Y-89415952D01*
X139112619Y-89987380D01*
X139731666Y-89987380D01*
X144914357Y-71954813D02*
X144847014Y-71954813D01*
X144712327Y-71887469D01*
X144644983Y-71820126D01*
X144577640Y-71685438D01*
X144577640Y-71550751D01*
X144611311Y-71449736D01*
X144712327Y-71281377D01*
X144813342Y-71180362D01*
X144981701Y-71079347D01*
X145082716Y-71045675D01*
X145217403Y-71045675D01*
X145352090Y-71113019D01*
X145419434Y-71180362D01*
X145486777Y-71315049D01*
X145486777Y-71382393D01*
X145789823Y-71550751D02*
X146227556Y-71988484D01*
X145722479Y-72022156D01*
X145823495Y-72123171D01*
X145857166Y-72224187D01*
X145857166Y-72291530D01*
X145823495Y-72392545D01*
X145655136Y-72560904D01*
X145554121Y-72594576D01*
X145486777Y-72594576D01*
X145385762Y-72560904D01*
X145183731Y-72358874D01*
X145150059Y-72257858D01*
X145150059Y-72190515D01*
X135128095Y-101052380D02*
X135128095Y-101861904D01*
X135175714Y-101957142D01*
X135223333Y-102004761D01*
X135318571Y-102052380D01*
X135509047Y-102052380D01*
X135604285Y-102004761D01*
X135651904Y-101957142D01*
X135699523Y-101861904D01*
X135699523Y-101052380D01*
X136699523Y-102052380D02*
X136128095Y-102052380D01*
X136413809Y-102052380D02*
X136413809Y-101052380D01*
X136318571Y-101195238D01*
X136223333Y-101290476D01*
X136128095Y-101338095D01*
X124999285Y-70032380D02*
X124999285Y-69032380D01*
X125380238Y-69032380D01*
X125475476Y-69080000D01*
X125523095Y-69127619D01*
X125570714Y-69222857D01*
X125570714Y-69365714D01*
X125523095Y-69460952D01*
X125475476Y-69508571D01*
X125380238Y-69556190D01*
X124999285Y-69556190D01*
X126189761Y-69032380D02*
X126380238Y-69032380D01*
X126475476Y-69080000D01*
X126570714Y-69175238D01*
X126618333Y-69365714D01*
X126618333Y-69699047D01*
X126570714Y-69889523D01*
X126475476Y-69984761D01*
X126380238Y-70032380D01*
X126189761Y-70032380D01*
X126094523Y-69984761D01*
X125999285Y-69889523D01*
X125951666Y-69699047D01*
X125951666Y-69365714D01*
X125999285Y-69175238D01*
X126094523Y-69080000D01*
X126189761Y-69032380D01*
X126951666Y-69032380D02*
X127189761Y-70032380D01*
X127380238Y-69318095D01*
X127570714Y-70032380D01*
X127808809Y-69032380D01*
X128189761Y-69508571D02*
X128523095Y-69508571D01*
X128665952Y-70032380D02*
X128189761Y-70032380D01*
X128189761Y-69032380D01*
X128665952Y-69032380D01*
X129665952Y-70032380D02*
X129332619Y-69556190D01*
X129094523Y-70032380D02*
X129094523Y-69032380D01*
X129475476Y-69032380D01*
X129570714Y-69080000D01*
X129618333Y-69127619D01*
X129665952Y-69222857D01*
X129665952Y-69365714D01*
X129618333Y-69460952D01*
X129570714Y-69508571D01*
X129475476Y-69556190D01*
X129094523Y-69556190D01*
X130618333Y-70032380D02*
X130046904Y-70032380D01*
X130332619Y-70032380D02*
X130332619Y-69032380D01*
X130237380Y-69175238D01*
X130142142Y-69270476D01*
X130046904Y-69318095D01*
X134651809Y-103608190D02*
X134651809Y-104084380D01*
X134318476Y-103084380D02*
X134651809Y-103608190D01*
X134985142Y-103084380D01*
X135842285Y-104084380D02*
X135270857Y-104084380D01*
X135556571Y-104084380D02*
X135556571Y-103084380D01*
X135461333Y-103227238D01*
X135366095Y-103322476D01*
X135270857Y-103370095D01*
X130643333Y-103322380D02*
X130310000Y-102846190D01*
X130071904Y-103322380D02*
X130071904Y-102322380D01*
X130452857Y-102322380D01*
X130548095Y-102370000D01*
X130595714Y-102417619D01*
X130643333Y-102512857D01*
X130643333Y-102655714D01*
X130595714Y-102750952D01*
X130548095Y-102798571D01*
X130452857Y-102846190D01*
X130071904Y-102846190D01*
X131024285Y-102417619D02*
X131071904Y-102370000D01*
X131167142Y-102322380D01*
X131405238Y-102322380D01*
X131500476Y-102370000D01*
X131548095Y-102417619D01*
X131595714Y-102512857D01*
X131595714Y-102608095D01*
X131548095Y-102750952D01*
X130976666Y-103322380D01*
X131595714Y-103322380D01*
X131262380Y-107164047D02*
X131262380Y-107640238D01*
X130262380Y-107640238D01*
X130738571Y-106830714D02*
X130738571Y-106497380D01*
X131262380Y-106354523D02*
X131262380Y-106830714D01*
X130262380Y-106830714D01*
X130262380Y-106354523D01*
X131262380Y-105925952D02*
X130262380Y-105925952D01*
X130262380Y-105687857D01*
X130310000Y-105545000D01*
X130405238Y-105449761D01*
X130500476Y-105402142D01*
X130690952Y-105354523D01*
X130833809Y-105354523D01*
X131024285Y-105402142D01*
X131119523Y-105449761D01*
X131214761Y-105545000D01*
X131262380Y-105687857D01*
X131262380Y-105925952D01*
X131262380Y-104402142D02*
X131262380Y-104973571D01*
X131262380Y-104687857D02*
X130262380Y-104687857D01*
X130405238Y-104783095D01*
X130500476Y-104878333D01*
X130548095Y-104973571D01*
X131151333Y-94812380D02*
X130818000Y-94336190D01*
X130579904Y-94812380D02*
X130579904Y-93812380D01*
X130960857Y-93812380D01*
X131056095Y-93860000D01*
X131103714Y-93907619D01*
X131151333Y-94002857D01*
X131151333Y-94145714D01*
X131103714Y-94240952D01*
X131056095Y-94288571D01*
X130960857Y-94336190D01*
X130579904Y-94336190D01*
X132103714Y-94812380D02*
X131532285Y-94812380D01*
X131818000Y-94812380D02*
X131818000Y-93812380D01*
X131722761Y-93955238D01*
X131627523Y-94050476D01*
X131532285Y-94098095D01*
X116055380Y-100496666D02*
X115579190Y-100830000D01*
X116055380Y-101068095D02*
X115055380Y-101068095D01*
X115055380Y-100687142D01*
X115103000Y-100591904D01*
X115150619Y-100544285D01*
X115245857Y-100496666D01*
X115388714Y-100496666D01*
X115483952Y-100544285D01*
X115531571Y-100591904D01*
X115579190Y-100687142D01*
X115579190Y-101068095D01*
X115483952Y-99925238D02*
X115436333Y-100020476D01*
X115388714Y-100068095D01*
X115293476Y-100115714D01*
X115245857Y-100115714D01*
X115150619Y-100068095D01*
X115103000Y-100020476D01*
X115055380Y-99925238D01*
X115055380Y-99734761D01*
X115103000Y-99639523D01*
X115150619Y-99591904D01*
X115245857Y-99544285D01*
X115293476Y-99544285D01*
X115388714Y-99591904D01*
X115436333Y-99639523D01*
X115483952Y-99734761D01*
X115483952Y-99925238D01*
X115531571Y-100020476D01*
X115579190Y-100068095D01*
X115674428Y-100115714D01*
X115864904Y-100115714D01*
X115960142Y-100068095D01*
X116007761Y-100020476D01*
X116055380Y-99925238D01*
X116055380Y-99734761D01*
X116007761Y-99639523D01*
X115960142Y-99591904D01*
X115864904Y-99544285D01*
X115674428Y-99544285D01*
X115579190Y-99591904D01*
X115531571Y-99639523D01*
X115483952Y-99734761D01*
X145883333Y-110847142D02*
X145835714Y-110894761D01*
X145692857Y-110942380D01*
X145597619Y-110942380D01*
X145454761Y-110894761D01*
X145359523Y-110799523D01*
X145311904Y-110704285D01*
X145264285Y-110513809D01*
X145264285Y-110370952D01*
X145311904Y-110180476D01*
X145359523Y-110085238D01*
X145454761Y-109990000D01*
X145597619Y-109942380D01*
X145692857Y-109942380D01*
X145835714Y-109990000D01*
X145883333Y-110037619D01*
X146264285Y-110037619D02*
X146311904Y-109990000D01*
X146407142Y-109942380D01*
X146645238Y-109942380D01*
X146740476Y-109990000D01*
X146788095Y-110037619D01*
X146835714Y-110132857D01*
X146835714Y-110228095D01*
X146788095Y-110370952D01*
X146216666Y-110942380D01*
X146835714Y-110942380D01*
X135863333Y-110847142D02*
X135815714Y-110894761D01*
X135672857Y-110942380D01*
X135577619Y-110942380D01*
X135434761Y-110894761D01*
X135339523Y-110799523D01*
X135291904Y-110704285D01*
X135244285Y-110513809D01*
X135244285Y-110370952D01*
X135291904Y-110180476D01*
X135339523Y-110085238D01*
X135434761Y-109990000D01*
X135577619Y-109942380D01*
X135672857Y-109942380D01*
X135815714Y-109990000D01*
X135863333Y-110037619D01*
X136815714Y-110942380D02*
X136244285Y-110942380D01*
X136530000Y-110942380D02*
X136530000Y-109942380D01*
X136434761Y-110085238D01*
X136339523Y-110180476D01*
X136244285Y-110228095D01*
M02*
