G04 #@! TF.GenerationSoftware,KiCad,Pcbnew,(5.1.9)-1*
G04 #@! TF.CreationDate,2021-06-09T23:11:38+02:00*
G04 #@! TF.ProjectId,controller,636f6e74-726f-46c6-9c65-722e6b696361,rev?*
G04 #@! TF.SameCoordinates,Original*
G04 #@! TF.FileFunction,Paste,Top*
G04 #@! TF.FilePolarity,Positive*
%FSLAX46Y46*%
G04 Gerber Fmt 4.6, Leading zero omitted, Abs format (unit mm)*
G04 Created by KiCad (PCBNEW (5.1.9)-1) date 2021-06-09 23:11:38*
%MOMM*%
%LPD*%
G01*
G04 APERTURE LIST*
%ADD10R,1.600000X0.550000*%
%ADD11R,0.550000X1.600000*%
G04 APERTURE END LIST*
G36*
G01*
X119215000Y-100815000D02*
X119215000Y-101115000D01*
G75*
G02*
X119065000Y-101265000I-150000J0D01*
G01*
X117415000Y-101265000D01*
G75*
G02*
X117265000Y-101115000I0J150000D01*
G01*
X117265000Y-100815000D01*
G75*
G02*
X117415000Y-100665000I150000J0D01*
G01*
X119065000Y-100665000D01*
G75*
G02*
X119215000Y-100815000I0J-150000D01*
G01*
G37*
G36*
G01*
X119215000Y-99545000D02*
X119215000Y-99845000D01*
G75*
G02*
X119065000Y-99995000I-150000J0D01*
G01*
X117415000Y-99995000D01*
G75*
G02*
X117265000Y-99845000I0J150000D01*
G01*
X117265000Y-99545000D01*
G75*
G02*
X117415000Y-99395000I150000J0D01*
G01*
X119065000Y-99395000D01*
G75*
G02*
X119215000Y-99545000I0J-150000D01*
G01*
G37*
G36*
G01*
X119215000Y-98275000D02*
X119215000Y-98575000D01*
G75*
G02*
X119065000Y-98725000I-150000J0D01*
G01*
X117415000Y-98725000D01*
G75*
G02*
X117265000Y-98575000I0J150000D01*
G01*
X117265000Y-98275000D01*
G75*
G02*
X117415000Y-98125000I150000J0D01*
G01*
X119065000Y-98125000D01*
G75*
G02*
X119215000Y-98275000I0J-150000D01*
G01*
G37*
G36*
G01*
X119215000Y-97005000D02*
X119215000Y-97305000D01*
G75*
G02*
X119065000Y-97455000I-150000J0D01*
G01*
X117415000Y-97455000D01*
G75*
G02*
X117265000Y-97305000I0J150000D01*
G01*
X117265000Y-97005000D01*
G75*
G02*
X117415000Y-96855000I150000J0D01*
G01*
X119065000Y-96855000D01*
G75*
G02*
X119215000Y-97005000I0J-150000D01*
G01*
G37*
G36*
G01*
X124165000Y-97005000D02*
X124165000Y-97305000D01*
G75*
G02*
X124015000Y-97455000I-150000J0D01*
G01*
X122365000Y-97455000D01*
G75*
G02*
X122215000Y-97305000I0J150000D01*
G01*
X122215000Y-97005000D01*
G75*
G02*
X122365000Y-96855000I150000J0D01*
G01*
X124015000Y-96855000D01*
G75*
G02*
X124165000Y-97005000I0J-150000D01*
G01*
G37*
G36*
G01*
X124165000Y-98275000D02*
X124165000Y-98575000D01*
G75*
G02*
X124015000Y-98725000I-150000J0D01*
G01*
X122365000Y-98725000D01*
G75*
G02*
X122215000Y-98575000I0J150000D01*
G01*
X122215000Y-98275000D01*
G75*
G02*
X122365000Y-98125000I150000J0D01*
G01*
X124015000Y-98125000D01*
G75*
G02*
X124165000Y-98275000I0J-150000D01*
G01*
G37*
G36*
G01*
X124165000Y-99545000D02*
X124165000Y-99845000D01*
G75*
G02*
X124015000Y-99995000I-150000J0D01*
G01*
X122365000Y-99995000D01*
G75*
G02*
X122215000Y-99845000I0J150000D01*
G01*
X122215000Y-99545000D01*
G75*
G02*
X122365000Y-99395000I150000J0D01*
G01*
X124015000Y-99395000D01*
G75*
G02*
X124165000Y-99545000I0J-150000D01*
G01*
G37*
G36*
G01*
X124165000Y-100815000D02*
X124165000Y-101115000D01*
G75*
G02*
X124015000Y-101265000I-150000J0D01*
G01*
X122365000Y-101265000D01*
G75*
G02*
X122215000Y-101115000I0J150000D01*
G01*
X122215000Y-100815000D01*
G75*
G02*
X122365000Y-100665000I150000J0D01*
G01*
X124015000Y-100665000D01*
G75*
G02*
X124165000Y-100815000I0J-150000D01*
G01*
G37*
G36*
G01*
X119150000Y-86210000D02*
X119150000Y-86510000D01*
G75*
G02*
X119000000Y-86660000I-150000J0D01*
G01*
X117350000Y-86660000D01*
G75*
G02*
X117200000Y-86510000I0J150000D01*
G01*
X117200000Y-86210000D01*
G75*
G02*
X117350000Y-86060000I150000J0D01*
G01*
X119000000Y-86060000D01*
G75*
G02*
X119150000Y-86210000I0J-150000D01*
G01*
G37*
G36*
G01*
X119150000Y-84940000D02*
X119150000Y-85240000D01*
G75*
G02*
X119000000Y-85390000I-150000J0D01*
G01*
X117350000Y-85390000D01*
G75*
G02*
X117200000Y-85240000I0J150000D01*
G01*
X117200000Y-84940000D01*
G75*
G02*
X117350000Y-84790000I150000J0D01*
G01*
X119000000Y-84790000D01*
G75*
G02*
X119150000Y-84940000I0J-150000D01*
G01*
G37*
G36*
G01*
X119150000Y-83670000D02*
X119150000Y-83970000D01*
G75*
G02*
X119000000Y-84120000I-150000J0D01*
G01*
X117350000Y-84120000D01*
G75*
G02*
X117200000Y-83970000I0J150000D01*
G01*
X117200000Y-83670000D01*
G75*
G02*
X117350000Y-83520000I150000J0D01*
G01*
X119000000Y-83520000D01*
G75*
G02*
X119150000Y-83670000I0J-150000D01*
G01*
G37*
G36*
G01*
X119150000Y-82400000D02*
X119150000Y-82700000D01*
G75*
G02*
X119000000Y-82850000I-150000J0D01*
G01*
X117350000Y-82850000D01*
G75*
G02*
X117200000Y-82700000I0J150000D01*
G01*
X117200000Y-82400000D01*
G75*
G02*
X117350000Y-82250000I150000J0D01*
G01*
X119000000Y-82250000D01*
G75*
G02*
X119150000Y-82400000I0J-150000D01*
G01*
G37*
G36*
G01*
X124100000Y-82400000D02*
X124100000Y-82700000D01*
G75*
G02*
X123950000Y-82850000I-150000J0D01*
G01*
X122300000Y-82850000D01*
G75*
G02*
X122150000Y-82700000I0J150000D01*
G01*
X122150000Y-82400000D01*
G75*
G02*
X122300000Y-82250000I150000J0D01*
G01*
X123950000Y-82250000D01*
G75*
G02*
X124100000Y-82400000I0J-150000D01*
G01*
G37*
G36*
G01*
X124100000Y-83670000D02*
X124100000Y-83970000D01*
G75*
G02*
X123950000Y-84120000I-150000J0D01*
G01*
X122300000Y-84120000D01*
G75*
G02*
X122150000Y-83970000I0J150000D01*
G01*
X122150000Y-83670000D01*
G75*
G02*
X122300000Y-83520000I150000J0D01*
G01*
X123950000Y-83520000D01*
G75*
G02*
X124100000Y-83670000I0J-150000D01*
G01*
G37*
G36*
G01*
X124100000Y-84940000D02*
X124100000Y-85240000D01*
G75*
G02*
X123950000Y-85390000I-150000J0D01*
G01*
X122300000Y-85390000D01*
G75*
G02*
X122150000Y-85240000I0J150000D01*
G01*
X122150000Y-84940000D01*
G75*
G02*
X122300000Y-84790000I150000J0D01*
G01*
X123950000Y-84790000D01*
G75*
G02*
X124100000Y-84940000I0J-150000D01*
G01*
G37*
G36*
G01*
X124100000Y-86210000D02*
X124100000Y-86510000D01*
G75*
G02*
X123950000Y-86660000I-150000J0D01*
G01*
X122300000Y-86660000D01*
G75*
G02*
X122150000Y-86510000I0J150000D01*
G01*
X122150000Y-86210000D01*
G75*
G02*
X122300000Y-86060000I150000J0D01*
G01*
X123950000Y-86060000D01*
G75*
G02*
X124100000Y-86210000I0J-150000D01*
G01*
G37*
G36*
G01*
X113940000Y-88793000D02*
X113390000Y-88793000D01*
G75*
G02*
X113190000Y-88593000I0J200000D01*
G01*
X113190000Y-88193000D01*
G75*
G02*
X113390000Y-87993000I200000J0D01*
G01*
X113940000Y-87993000D01*
G75*
G02*
X114140000Y-88193000I0J-200000D01*
G01*
X114140000Y-88593000D01*
G75*
G02*
X113940000Y-88793000I-200000J0D01*
G01*
G37*
G36*
G01*
X113940000Y-90443000D02*
X113390000Y-90443000D01*
G75*
G02*
X113190000Y-90243000I0J200000D01*
G01*
X113190000Y-89843000D01*
G75*
G02*
X113390000Y-89643000I200000J0D01*
G01*
X113940000Y-89643000D01*
G75*
G02*
X114140000Y-89843000I0J-200000D01*
G01*
X114140000Y-90243000D01*
G75*
G02*
X113940000Y-90443000I-200000J0D01*
G01*
G37*
G36*
G01*
X113430000Y-74020000D02*
X113430000Y-74570000D01*
G75*
G02*
X113230000Y-74770000I-200000J0D01*
G01*
X112830000Y-74770000D01*
G75*
G02*
X112630000Y-74570000I0J200000D01*
G01*
X112630000Y-74020000D01*
G75*
G02*
X112830000Y-73820000I200000J0D01*
G01*
X113230000Y-73820000D01*
G75*
G02*
X113430000Y-74020000I0J-200000D01*
G01*
G37*
G36*
G01*
X115080000Y-74020000D02*
X115080000Y-74570000D01*
G75*
G02*
X114880000Y-74770000I-200000J0D01*
G01*
X114480000Y-74770000D01*
G75*
G02*
X114280000Y-74570000I0J200000D01*
G01*
X114280000Y-74020000D01*
G75*
G02*
X114480000Y-73820000I200000J0D01*
G01*
X114880000Y-73820000D01*
G75*
G02*
X115080000Y-74020000I0J-200000D01*
G01*
G37*
G36*
G01*
X113390000Y-105390000D02*
X113940000Y-105390000D01*
G75*
G02*
X114140000Y-105590000I0J-200000D01*
G01*
X114140000Y-105990000D01*
G75*
G02*
X113940000Y-106190000I-200000J0D01*
G01*
X113390000Y-106190000D01*
G75*
G02*
X113190000Y-105990000I0J200000D01*
G01*
X113190000Y-105590000D01*
G75*
G02*
X113390000Y-105390000I200000J0D01*
G01*
G37*
G36*
G01*
X113390000Y-103740000D02*
X113940000Y-103740000D01*
G75*
G02*
X114140000Y-103940000I0J-200000D01*
G01*
X114140000Y-104340000D01*
G75*
G02*
X113940000Y-104540000I-200000J0D01*
G01*
X113390000Y-104540000D01*
G75*
G02*
X113190000Y-104340000I0J200000D01*
G01*
X113190000Y-103940000D01*
G75*
G02*
X113390000Y-103740000I200000J0D01*
G01*
G37*
G36*
G01*
X113390000Y-94723000D02*
X113940000Y-94723000D01*
G75*
G02*
X114140000Y-94923000I0J-200000D01*
G01*
X114140000Y-95323000D01*
G75*
G02*
X113940000Y-95523000I-200000J0D01*
G01*
X113390000Y-95523000D01*
G75*
G02*
X113190000Y-95323000I0J200000D01*
G01*
X113190000Y-94923000D01*
G75*
G02*
X113390000Y-94723000I200000J0D01*
G01*
G37*
G36*
G01*
X113390000Y-93073000D02*
X113940000Y-93073000D01*
G75*
G02*
X114140000Y-93273000I0J-200000D01*
G01*
X114140000Y-93673000D01*
G75*
G02*
X113940000Y-93873000I-200000J0D01*
G01*
X113390000Y-93873000D01*
G75*
G02*
X113190000Y-93673000I0J200000D01*
G01*
X113190000Y-93273000D01*
G75*
G02*
X113390000Y-93073000I200000J0D01*
G01*
G37*
D10*
X136525000Y-100025000D03*
X136525000Y-99225000D03*
X136525000Y-98425000D03*
X136525000Y-97625000D03*
X136525000Y-96825000D03*
X136525000Y-96025000D03*
X136525000Y-95225000D03*
X136525000Y-94425000D03*
D11*
X137975000Y-92975000D03*
X138775000Y-92975000D03*
X139575000Y-92975000D03*
X140375000Y-92975000D03*
X141175000Y-92975000D03*
X141975000Y-92975000D03*
X142775000Y-92975000D03*
X143575000Y-92975000D03*
D10*
X145025000Y-94425000D03*
X145025000Y-95225000D03*
X145025000Y-96025000D03*
X145025000Y-96825000D03*
X145025000Y-97625000D03*
X145025000Y-98425000D03*
X145025000Y-99225000D03*
X145025000Y-100025000D03*
D11*
X143575000Y-101475000D03*
X142775000Y-101475000D03*
X141975000Y-101475000D03*
X141175000Y-101475000D03*
X140375000Y-101475000D03*
X139575000Y-101475000D03*
X138775000Y-101475000D03*
X137975000Y-101475000D03*
G36*
G01*
X132990000Y-102255000D02*
X132440000Y-102255000D01*
G75*
G02*
X132240000Y-102055000I0J200000D01*
G01*
X132240000Y-101655000D01*
G75*
G02*
X132440000Y-101455000I200000J0D01*
G01*
X132990000Y-101455000D01*
G75*
G02*
X133190000Y-101655000I0J-200000D01*
G01*
X133190000Y-102055000D01*
G75*
G02*
X132990000Y-102255000I-200000J0D01*
G01*
G37*
G36*
G01*
X132990000Y-103905000D02*
X132440000Y-103905000D01*
G75*
G02*
X132240000Y-103705000I0J200000D01*
G01*
X132240000Y-103305000D01*
G75*
G02*
X132440000Y-103105000I200000J0D01*
G01*
X132990000Y-103105000D01*
G75*
G02*
X133190000Y-103305000I0J-200000D01*
G01*
X133190000Y-103705000D01*
G75*
G02*
X132990000Y-103905000I-200000J0D01*
G01*
G37*
G36*
G01*
X132971250Y-105847500D02*
X132458750Y-105847500D01*
G75*
G02*
X132240000Y-105628750I0J218750D01*
G01*
X132240000Y-105191250D01*
G75*
G02*
X132458750Y-104972500I218750J0D01*
G01*
X132971250Y-104972500D01*
G75*
G02*
X133190000Y-105191250I0J-218750D01*
G01*
X133190000Y-105628750D01*
G75*
G02*
X132971250Y-105847500I-218750J0D01*
G01*
G37*
G36*
G01*
X132971250Y-107422500D02*
X132458750Y-107422500D01*
G75*
G02*
X132240000Y-107203750I0J218750D01*
G01*
X132240000Y-106766250D01*
G75*
G02*
X132458750Y-106547500I218750J0D01*
G01*
X132971250Y-106547500D01*
G75*
G02*
X133190000Y-106766250I0J-218750D01*
G01*
X133190000Y-107203750D01*
G75*
G02*
X132971250Y-107422500I-218750J0D01*
G01*
G37*
G36*
G01*
X131720000Y-96285000D02*
X131170000Y-96285000D01*
G75*
G02*
X130970000Y-96085000I0J200000D01*
G01*
X130970000Y-95685000D01*
G75*
G02*
X131170000Y-95485000I200000J0D01*
G01*
X131720000Y-95485000D01*
G75*
G02*
X131920000Y-95685000I0J-200000D01*
G01*
X131920000Y-96085000D01*
G75*
G02*
X131720000Y-96285000I-200000J0D01*
G01*
G37*
G36*
G01*
X131720000Y-97935000D02*
X131170000Y-97935000D01*
G75*
G02*
X130970000Y-97735000I0J200000D01*
G01*
X130970000Y-97335000D01*
G75*
G02*
X131170000Y-97135000I200000J0D01*
G01*
X131720000Y-97135000D01*
G75*
G02*
X131920000Y-97335000I0J-200000D01*
G01*
X131920000Y-97735000D01*
G75*
G02*
X131720000Y-97935000I-200000J0D01*
G01*
G37*
G36*
G01*
X113940000Y-100540000D02*
X113390000Y-100540000D01*
G75*
G02*
X113190000Y-100340000I0J200000D01*
G01*
X113190000Y-99940000D01*
G75*
G02*
X113390000Y-99740000I200000J0D01*
G01*
X113940000Y-99740000D01*
G75*
G02*
X114140000Y-99940000I0J-200000D01*
G01*
X114140000Y-100340000D01*
G75*
G02*
X113940000Y-100540000I-200000J0D01*
G01*
G37*
G36*
G01*
X113940000Y-102190000D02*
X113390000Y-102190000D01*
G75*
G02*
X113190000Y-101990000I0J200000D01*
G01*
X113190000Y-101590000D01*
G75*
G02*
X113390000Y-101390000I200000J0D01*
G01*
X113940000Y-101390000D01*
G75*
G02*
X114140000Y-101590000I0J-200000D01*
G01*
X114140000Y-101990000D01*
G75*
G02*
X113940000Y-102190000I-200000J0D01*
G01*
G37*
G36*
G01*
X143835000Y-110740000D02*
X143835000Y-110240000D01*
G75*
G02*
X144060000Y-110015000I225000J0D01*
G01*
X144510000Y-110015000D01*
G75*
G02*
X144735000Y-110240000I0J-225000D01*
G01*
X144735000Y-110740000D01*
G75*
G02*
X144510000Y-110965000I-225000J0D01*
G01*
X144060000Y-110965000D01*
G75*
G02*
X143835000Y-110740000I0J225000D01*
G01*
G37*
G36*
G01*
X142285000Y-110740000D02*
X142285000Y-110240000D01*
G75*
G02*
X142510000Y-110015000I225000J0D01*
G01*
X142960000Y-110015000D01*
G75*
G02*
X143185000Y-110240000I0J-225000D01*
G01*
X143185000Y-110740000D01*
G75*
G02*
X142960000Y-110965000I-225000J0D01*
G01*
X142510000Y-110965000D01*
G75*
G02*
X142285000Y-110740000I0J225000D01*
G01*
G37*
G36*
G01*
X138755000Y-110740000D02*
X138755000Y-110240000D01*
G75*
G02*
X138980000Y-110015000I225000J0D01*
G01*
X139430000Y-110015000D01*
G75*
G02*
X139655000Y-110240000I0J-225000D01*
G01*
X139655000Y-110740000D01*
G75*
G02*
X139430000Y-110965000I-225000J0D01*
G01*
X138980000Y-110965000D01*
G75*
G02*
X138755000Y-110740000I0J225000D01*
G01*
G37*
G36*
G01*
X137205000Y-110740000D02*
X137205000Y-110240000D01*
G75*
G02*
X137430000Y-110015000I225000J0D01*
G01*
X137880000Y-110015000D01*
G75*
G02*
X138105000Y-110240000I0J-225000D01*
G01*
X138105000Y-110740000D01*
G75*
G02*
X137880000Y-110965000I-225000J0D01*
G01*
X137430000Y-110965000D01*
G75*
G02*
X137205000Y-110740000I0J225000D01*
G01*
G37*
M02*
